G04 (created by PCBNEW-RS274X (2011-05-25)-stable) date Sun 24 Mar 2013 20:47:49 CET*
G01*
G70*
G90*
%MOIN*%
G04 Gerber Fmt 3.4, Leading zero omitted, Abs format*
%FSLAX34Y34*%
G04 APERTURE LIST*
%ADD10C,0.006000*%
%ADD11C,0.007900*%
%ADD12C,0.015000*%
%ADD13C,0.000100*%
%ADD14R,0.050000X0.016000*%
%ADD15C,0.040000*%
%ADD16C,0.065000*%
%ADD17R,0.055000X0.055000*%
%ADD18C,0.055000*%
%ADD19R,0.055100X0.114200*%
%ADD20R,0.024000X0.035000*%
%ADD21R,0.047200X0.047200*%
%ADD22R,0.045000X0.020000*%
%ADD23R,0.059100X0.063000*%
%ADD24R,0.070900X0.047200*%
%ADD25R,0.047200X0.070900*%
%ADD26R,0.061000X0.024000*%
%ADD27C,0.035000*%
%ADD28C,0.025000*%
%ADD29C,0.012000*%
%ADD30C,0.010000*%
G04 APERTURE END LIST*
G54D10*
G54D11*
G54D12*
X67250Y-28250D02*
X49750Y-28250D01*
X68250Y-46750D02*
X68250Y-29250D01*
X68250Y-29250D02*
X68246Y-29163D01*
X68234Y-29077D01*
X68215Y-28992D01*
X68189Y-28908D01*
X68156Y-28828D01*
X68116Y-28751D01*
X68069Y-28677D01*
X68016Y-28608D01*
X67957Y-28543D01*
X67892Y-28484D01*
X67823Y-28431D01*
X67750Y-28384D01*
X67672Y-28344D01*
X67592Y-28311D01*
X67508Y-28285D01*
X67423Y-28266D01*
X67337Y-28254D01*
X67250Y-28250D01*
X50000Y-47750D02*
X67250Y-47750D01*
X48750Y-46500D02*
X48750Y-29250D01*
X48750Y-46500D02*
X48755Y-46608D01*
X48769Y-46717D01*
X48793Y-46823D01*
X48826Y-46927D01*
X48868Y-47028D01*
X48918Y-47124D01*
X48977Y-47216D01*
X49043Y-47303D01*
X49117Y-47383D01*
X49197Y-47457D01*
X49284Y-47523D01*
X49376Y-47582D01*
X49472Y-47632D01*
X49573Y-47674D01*
X49677Y-47707D01*
X49783Y-47731D01*
X49892Y-47745D01*
X50000Y-47750D01*
X67250Y-47750D02*
X67337Y-47746D01*
X67423Y-47734D01*
X67508Y-47715D01*
X67592Y-47689D01*
X67672Y-47656D01*
X67750Y-47616D01*
X67823Y-47569D01*
X67892Y-47516D01*
X67957Y-47457D01*
X68016Y-47392D01*
X68069Y-47323D01*
X68116Y-47249D01*
X68156Y-47172D01*
X68189Y-47092D01*
X68215Y-47008D01*
X68234Y-46923D01*
X68246Y-46837D01*
X68250Y-46750D01*
X49750Y-28250D02*
X49663Y-28254D01*
X49577Y-28266D01*
X49492Y-28285D01*
X49408Y-28311D01*
X49328Y-28344D01*
X49251Y-28384D01*
X49177Y-28431D01*
X49108Y-28484D01*
X49043Y-28543D01*
X48984Y-28608D01*
X48931Y-28677D01*
X48884Y-28751D01*
X48844Y-28828D01*
X48811Y-28908D01*
X48785Y-28992D01*
X48766Y-29077D01*
X48754Y-29163D01*
X48750Y-29250D01*
G54D13*
G36*
X57674Y-34220D02*
X57674Y-34220D01*
X57674Y-34220D01*
X57674Y-34220D01*
X57674Y-34220D01*
X57674Y-34220D01*
X57674Y-34220D01*
X57674Y-34220D01*
X57674Y-34220D01*
X57674Y-34220D01*
X57674Y-34220D01*
X57674Y-34220D01*
X57674Y-34220D01*
X57674Y-34220D01*
X57674Y-34220D01*
G37*
G36*
X58314Y-33774D02*
X58314Y-33774D01*
X58314Y-33774D01*
X58314Y-33774D01*
X58314Y-33774D01*
X58314Y-33774D01*
X58314Y-33774D01*
X58314Y-33774D01*
G37*
G36*
X57892Y-33774D02*
X57892Y-33774D01*
X57892Y-33774D01*
X57892Y-33774D01*
X57892Y-33774D01*
X57892Y-33774D01*
X57892Y-33774D01*
X57892Y-33774D01*
G37*
G54D14*
X53975Y-32915D03*
X53975Y-33170D03*
X53975Y-33430D03*
X53975Y-33685D03*
X52225Y-33685D03*
X52225Y-33430D03*
X52225Y-33170D03*
X52225Y-32915D03*
G54D15*
X59189Y-30750D03*
X57811Y-30750D03*
G54D16*
X50016Y-45000D03*
X51984Y-45000D03*
X50016Y-37750D03*
X51984Y-37750D03*
X65016Y-41250D03*
X66984Y-41250D03*
G54D17*
X55600Y-29550D03*
G54D18*
X55600Y-30550D03*
G54D19*
X54213Y-44431D03*
X55787Y-44431D03*
X54213Y-42069D03*
X55787Y-42069D03*
G54D16*
X54016Y-43250D03*
X55984Y-43250D03*
G54D20*
X55375Y-35000D03*
X54625Y-35000D03*
X55000Y-36000D03*
G54D21*
X54571Y-29500D03*
X53429Y-29500D03*
X53429Y-30750D03*
X54571Y-30750D03*
G54D22*
X62150Y-34000D03*
X62150Y-33500D03*
X62150Y-33000D03*
X62150Y-32500D03*
X62150Y-32000D03*
X62150Y-31500D03*
X62150Y-31000D03*
X64250Y-31000D03*
X64250Y-31500D03*
X64250Y-32000D03*
X64250Y-32500D03*
X64250Y-33000D03*
X64250Y-33500D03*
X64250Y-34000D03*
G54D23*
X50429Y-30000D03*
G54D21*
X51709Y-29606D03*
X51709Y-30394D03*
G54D23*
X65679Y-29750D03*
G54D21*
X66959Y-29356D03*
X66959Y-30144D03*
G54D24*
X62750Y-39880D03*
X62750Y-38620D03*
G54D25*
X61880Y-42000D03*
X60620Y-42000D03*
G54D24*
X61500Y-39880D03*
X61500Y-38620D03*
X61500Y-36120D03*
X61500Y-37380D03*
G54D25*
X54370Y-46000D03*
X55630Y-46000D03*
X61880Y-44500D03*
X60620Y-44500D03*
X59130Y-44500D03*
X57870Y-44500D03*
X59130Y-45750D03*
X57870Y-45750D03*
X61880Y-45750D03*
X60620Y-45750D03*
X61880Y-43250D03*
X60620Y-43250D03*
X59130Y-43250D03*
X57870Y-43250D03*
X59130Y-42000D03*
X57870Y-42000D03*
G54D24*
X62750Y-36120D03*
X62750Y-37380D03*
X65250Y-36120D03*
X65250Y-37380D03*
X65250Y-39880D03*
X65250Y-38620D03*
X64000Y-39880D03*
X64000Y-38620D03*
X64000Y-36120D03*
X64000Y-37380D03*
X60000Y-32630D03*
X60000Y-31370D03*
G54D25*
X62620Y-29750D03*
X63880Y-29750D03*
G54D24*
X66750Y-33870D03*
X66750Y-35130D03*
X66750Y-31370D03*
X66750Y-32630D03*
X60500Y-34880D03*
X60500Y-33620D03*
G54D25*
X50370Y-31500D03*
X51630Y-31500D03*
G54D24*
X50000Y-33620D03*
X50000Y-34880D03*
X52000Y-35370D03*
X52000Y-36630D03*
X53250Y-35370D03*
X53250Y-36630D03*
X56000Y-33880D03*
X56000Y-32620D03*
G54D26*
X64437Y-45500D03*
X66563Y-45500D03*
X64437Y-45000D03*
X66563Y-45000D03*
X64437Y-44500D03*
X66563Y-44500D03*
X64437Y-44000D03*
X66563Y-44000D03*
X64437Y-43500D03*
X66563Y-43500D03*
X64437Y-43000D03*
X66563Y-43000D03*
X64437Y-42500D03*
X66563Y-42500D03*
X64437Y-42000D03*
X66563Y-42000D03*
G54D25*
X66480Y-46550D03*
X65220Y-46550D03*
G54D27*
X66218Y-28863D03*
X60500Y-36000D03*
X61250Y-32500D03*
X57000Y-40500D03*
X53450Y-44400D03*
X67300Y-46550D03*
X66250Y-30400D03*
X65250Y-32500D03*
X59750Y-41250D03*
G54D28*
X66218Y-28863D02*
X66837Y-28863D01*
X66959Y-28985D02*
X66959Y-29356D01*
X66837Y-28863D02*
X66959Y-28985D01*
X60500Y-34880D02*
X60500Y-36000D01*
X60500Y-36000D02*
X60500Y-40000D01*
X55782Y-40500D02*
X54213Y-42069D01*
X60000Y-40500D02*
X57000Y-40500D01*
X57000Y-40500D02*
X55782Y-40500D01*
X60500Y-40000D02*
X60000Y-40500D01*
G54D29*
X53975Y-33685D02*
X54765Y-33685D01*
X54765Y-33685D02*
X55150Y-33300D01*
X55150Y-33300D02*
X56500Y-33300D01*
X56500Y-33300D02*
X56700Y-33500D01*
X56700Y-33500D02*
X56700Y-34650D01*
X56700Y-34650D02*
X56930Y-34880D01*
X56930Y-34880D02*
X60500Y-34880D01*
X53300Y-33685D02*
X53265Y-33685D01*
X53250Y-35050D02*
X53250Y-35370D01*
X53150Y-34950D02*
X53250Y-35050D01*
X53150Y-33800D02*
X53150Y-34950D01*
X53265Y-33685D02*
X53150Y-33800D01*
X52225Y-32915D02*
X53015Y-32915D01*
X53285Y-33685D02*
X53300Y-33685D01*
X53300Y-33685D02*
X53975Y-33685D01*
X53150Y-33550D02*
X53285Y-33685D01*
X53150Y-33050D02*
X53150Y-33550D01*
X53015Y-32915D02*
X53150Y-33050D01*
X51630Y-31500D02*
X51630Y-32730D01*
X51815Y-32915D02*
X52225Y-32915D01*
X51630Y-32730D02*
X51815Y-32915D01*
G54D28*
X54213Y-44431D02*
X53481Y-44431D01*
X53481Y-44431D02*
X53450Y-44400D01*
X66480Y-46550D02*
X67300Y-46550D01*
X66480Y-46550D02*
X66480Y-45583D01*
X66480Y-45583D02*
X66563Y-45500D01*
X54213Y-44431D02*
X54213Y-43447D01*
X54213Y-43447D02*
X54016Y-43250D01*
X54016Y-43250D02*
X54050Y-43250D01*
X54050Y-43250D02*
X54213Y-43087D01*
X54213Y-43087D02*
X54213Y-42069D01*
G54D29*
X67033Y-29263D02*
X66959Y-29356D01*
G54D28*
X62150Y-32500D02*
X61250Y-32500D01*
G54D29*
X66250Y-30750D02*
X65800Y-30750D01*
X66000Y-32250D02*
X66250Y-32000D01*
X67250Y-30750D02*
X66250Y-30750D01*
X67500Y-31000D02*
X67250Y-30750D01*
X67500Y-31750D02*
X67500Y-31000D01*
X67250Y-32000D02*
X67500Y-31750D01*
X66250Y-32000D02*
X67250Y-32000D01*
X65679Y-30629D02*
X65679Y-29750D01*
X65800Y-30750D02*
X65679Y-30629D01*
X60750Y-32250D02*
X60500Y-32000D01*
X65679Y-29679D02*
X65679Y-29750D01*
X65000Y-29000D02*
X65679Y-29679D01*
X62000Y-29000D02*
X65000Y-29000D01*
X61750Y-29250D02*
X62000Y-29000D01*
X61250Y-29750D02*
X61750Y-29250D01*
X58750Y-29750D02*
X61250Y-29750D01*
X58500Y-30000D02*
X58750Y-29750D01*
X58500Y-30250D02*
X58500Y-30000D01*
X58500Y-31750D02*
X58500Y-30250D01*
X58750Y-32000D02*
X58500Y-31750D01*
X60500Y-32000D02*
X58750Y-32000D01*
X62150Y-33000D02*
X61000Y-33000D01*
X61000Y-32000D02*
X62150Y-32000D01*
X60750Y-32250D02*
X61000Y-32000D01*
X60750Y-32750D02*
X60750Y-32250D01*
X61000Y-33000D02*
X60750Y-32750D01*
X64250Y-33000D02*
X65750Y-33000D01*
X66000Y-32750D02*
X66000Y-32250D01*
X65750Y-33000D02*
X66000Y-32750D01*
X65750Y-32000D02*
X64250Y-32000D01*
X66000Y-32250D02*
X65750Y-32000D01*
X55787Y-44431D02*
X55569Y-44431D01*
X54500Y-46000D02*
X54370Y-46000D01*
X55000Y-45500D02*
X54500Y-46000D01*
X55000Y-45000D02*
X55000Y-45500D01*
X55569Y-44431D02*
X55000Y-45000D01*
X55787Y-42069D02*
X55787Y-43053D01*
X55787Y-43053D02*
X55984Y-43250D01*
X55984Y-43250D02*
X55984Y-43266D01*
X55984Y-43266D02*
X55787Y-43463D01*
X55787Y-43463D02*
X55787Y-44431D01*
X54370Y-46000D02*
X54370Y-46620D01*
X54370Y-46620D02*
X54500Y-46750D01*
X54500Y-46750D02*
X64250Y-46750D01*
X64250Y-46750D02*
X64437Y-46563D01*
X64437Y-46563D02*
X64437Y-45500D01*
X54333Y-46037D02*
X54370Y-46000D01*
X52225Y-33170D02*
X50570Y-33170D01*
X50370Y-32970D02*
X50370Y-31500D01*
X50570Y-33170D02*
X50370Y-32970D01*
X50429Y-30000D02*
X50429Y-31441D01*
X50429Y-31441D02*
X50370Y-31500D01*
X53975Y-33170D02*
X53570Y-33170D01*
X53450Y-31871D02*
X54571Y-30750D01*
X53450Y-33050D02*
X53450Y-31871D01*
X53570Y-33170D02*
X53450Y-33050D01*
X50000Y-33620D02*
X51630Y-33620D01*
X51820Y-33430D02*
X52225Y-33430D01*
X51630Y-33620D02*
X51820Y-33430D01*
X50000Y-33620D02*
X50000Y-32500D01*
X54071Y-29000D02*
X54571Y-29500D01*
X50250Y-29000D02*
X54071Y-29000D01*
X49750Y-29500D02*
X50250Y-29000D01*
X49750Y-32250D02*
X49750Y-29500D01*
X50000Y-32500D02*
X49750Y-32250D01*
X54571Y-29500D02*
X54571Y-30750D01*
G54D28*
X66250Y-30400D02*
X66550Y-30100D01*
X66550Y-30100D02*
X66915Y-30100D01*
X66915Y-30100D02*
X66959Y-30144D01*
X65250Y-32500D02*
X64250Y-32500D01*
G54D29*
X55600Y-30550D02*
X55600Y-31800D01*
X54485Y-32915D02*
X53975Y-32915D01*
X55600Y-31800D02*
X54485Y-32915D01*
X52225Y-33685D02*
X51915Y-33685D01*
X51270Y-34880D02*
X50000Y-34880D01*
X51700Y-34450D02*
X51270Y-34880D01*
X51700Y-33900D02*
X51700Y-34450D01*
X51915Y-33685D02*
X51700Y-33900D01*
X53250Y-36630D02*
X53250Y-36250D01*
X52000Y-35750D02*
X52000Y-35370D01*
X52250Y-36000D02*
X52000Y-35750D01*
X53000Y-36000D02*
X52250Y-36000D01*
X53250Y-36250D02*
X53000Y-36000D01*
X53250Y-38500D02*
X54250Y-38500D01*
X51000Y-38000D02*
X51500Y-38500D01*
X51500Y-38500D02*
X53250Y-38500D01*
X52000Y-36630D02*
X51370Y-36630D01*
X51000Y-37000D02*
X51000Y-37250D01*
X51370Y-36630D02*
X51000Y-37000D01*
X51000Y-37250D02*
X51000Y-38000D01*
X55000Y-37750D02*
X55000Y-36000D01*
X54250Y-38500D02*
X55000Y-37750D01*
X55375Y-35000D02*
X55750Y-35000D01*
X56000Y-34500D02*
X56000Y-33880D01*
X56000Y-34750D02*
X56000Y-34500D01*
X55750Y-35000D02*
X56000Y-34750D01*
X64000Y-38620D02*
X64000Y-37380D01*
X65250Y-38620D02*
X65250Y-37380D01*
X60500Y-33620D02*
X60500Y-33130D01*
X60500Y-33130D02*
X60000Y-32630D01*
X62150Y-33500D02*
X60620Y-33500D01*
X60620Y-33500D02*
X60500Y-33620D01*
X62620Y-29750D02*
X62000Y-29750D01*
X60000Y-30500D02*
X60000Y-31370D01*
X60250Y-30250D02*
X60000Y-30500D01*
X61500Y-30250D02*
X60250Y-30250D01*
X62000Y-29750D02*
X61500Y-30250D01*
X62150Y-31500D02*
X61500Y-31500D01*
X61500Y-31500D02*
X60130Y-31500D01*
X60130Y-31500D02*
X60000Y-31370D01*
X64000Y-36120D02*
X64000Y-35750D01*
X63750Y-31000D02*
X64250Y-31000D01*
X63500Y-31250D02*
X63750Y-31000D01*
X63500Y-34500D02*
X63500Y-31250D01*
X63750Y-34750D02*
X63500Y-34500D01*
X63750Y-35500D02*
X63750Y-34750D01*
X64000Y-35750D02*
X63750Y-35500D01*
X65250Y-36120D02*
X65250Y-34500D01*
X65000Y-34000D02*
X64250Y-34000D01*
X65250Y-34250D02*
X65000Y-34000D01*
X65250Y-34500D02*
X65250Y-34250D01*
X66750Y-33870D02*
X66120Y-33870D01*
X65750Y-33500D02*
X64250Y-33500D01*
X66120Y-33870D02*
X65750Y-33500D01*
X66750Y-32630D02*
X66750Y-33870D01*
X61500Y-36120D02*
X61500Y-34250D01*
X61750Y-34000D02*
X62150Y-34000D01*
X61500Y-34250D02*
X61750Y-34000D01*
X61500Y-38620D02*
X61500Y-37380D01*
X62750Y-38620D02*
X62750Y-37380D01*
X62750Y-36120D02*
X62750Y-34750D01*
X62750Y-31000D02*
X62150Y-31000D01*
X63000Y-31250D02*
X62750Y-31000D01*
X63000Y-34500D02*
X63000Y-31250D01*
X62750Y-34750D02*
X63000Y-34500D01*
X53975Y-33430D02*
X54620Y-33430D01*
X55130Y-32620D02*
X56000Y-32620D01*
X54900Y-32850D02*
X55130Y-32620D01*
X54900Y-33150D02*
X54900Y-32850D01*
X54620Y-33430D02*
X54900Y-33150D01*
X51709Y-30394D02*
X51709Y-30459D01*
X52000Y-30750D02*
X53429Y-30750D01*
X51709Y-30459D02*
X52000Y-30750D01*
X53429Y-29500D02*
X51815Y-29500D01*
X51815Y-29500D02*
X51709Y-29606D01*
X63880Y-29750D02*
X64750Y-29750D01*
X65000Y-31250D02*
X65250Y-31500D01*
X65000Y-30000D02*
X65000Y-31250D01*
X64750Y-29750D02*
X65000Y-30000D01*
X64250Y-31500D02*
X65250Y-31500D01*
X65250Y-31500D02*
X66620Y-31500D01*
X66620Y-31500D02*
X66750Y-31370D01*
X59130Y-42000D02*
X60620Y-42000D01*
X64437Y-43000D02*
X63750Y-43000D01*
X63250Y-42000D02*
X61880Y-42000D01*
X63500Y-42250D02*
X63250Y-42000D01*
X63500Y-42750D02*
X63500Y-42250D01*
X63750Y-43000D02*
X63500Y-42750D01*
X65220Y-46550D02*
X65220Y-45170D01*
X65050Y-45000D02*
X64437Y-45000D01*
X65220Y-45170D02*
X65050Y-45000D01*
X61880Y-44500D02*
X62750Y-44500D01*
X63250Y-44000D02*
X64437Y-44000D01*
X62750Y-44500D02*
X63250Y-44000D01*
X59130Y-44500D02*
X60620Y-44500D01*
X60620Y-45750D02*
X59130Y-45750D01*
X64437Y-44500D02*
X63750Y-44500D01*
X63000Y-45750D02*
X61880Y-45750D01*
X63500Y-45250D02*
X63000Y-45750D01*
X63500Y-44750D02*
X63500Y-45250D01*
X63750Y-44500D02*
X63500Y-44750D01*
X61880Y-43250D02*
X63000Y-43250D01*
X63250Y-43500D02*
X64437Y-43500D01*
X63000Y-43250D02*
X63250Y-43500D01*
X60620Y-43250D02*
X59130Y-43250D01*
G54D10*
G36*
X65690Y-32621D02*
X65621Y-32690D01*
X64707Y-32690D01*
X64724Y-32649D01*
X64725Y-32612D01*
X64663Y-32550D01*
X64350Y-32550D01*
X64300Y-32550D01*
X64200Y-32550D01*
X64200Y-32450D01*
X64300Y-32450D01*
X64350Y-32450D01*
X64663Y-32450D01*
X64725Y-32388D01*
X64724Y-32351D01*
X64707Y-32310D01*
X65621Y-32310D01*
X65690Y-32378D01*
X65690Y-32621D01*
X65690Y-32621D01*
G37*
G54D30*
X65690Y-32621D02*
X65621Y-32690D01*
X64707Y-32690D01*
X64724Y-32649D01*
X64725Y-32612D01*
X64663Y-32550D01*
X64350Y-32550D01*
X64300Y-32550D01*
X64200Y-32550D01*
X64200Y-32450D01*
X64300Y-32450D01*
X64350Y-32450D01*
X64663Y-32450D01*
X64725Y-32388D01*
X64724Y-32351D01*
X64707Y-32310D01*
X65621Y-32310D01*
X65690Y-32378D01*
X65690Y-32621D01*
G54D10*
G36*
X67925Y-46717D02*
X67867Y-47005D01*
X67725Y-47218D01*
X67725Y-46635D01*
X67725Y-46466D01*
X67661Y-46310D01*
X67559Y-46208D01*
X67559Y-41365D01*
X67559Y-41136D01*
X67472Y-40925D01*
X67354Y-40807D01*
X67354Y-35242D01*
X67354Y-35018D01*
X67353Y-34845D01*
X67315Y-34753D01*
X67245Y-34683D01*
X67154Y-34645D01*
X67055Y-34645D01*
X66862Y-34644D01*
X66800Y-34706D01*
X66800Y-35080D01*
X67292Y-35080D01*
X67354Y-35018D01*
X67354Y-35242D01*
X67292Y-35180D01*
X66800Y-35180D01*
X66800Y-35554D01*
X66862Y-35616D01*
X67055Y-35615D01*
X67154Y-35615D01*
X67245Y-35577D01*
X67315Y-35507D01*
X67353Y-35415D01*
X67354Y-35242D01*
X67354Y-40807D01*
X67310Y-40763D01*
X67099Y-40675D01*
X66870Y-40675D01*
X66700Y-40745D01*
X66700Y-35554D01*
X66700Y-35180D01*
X66700Y-35080D01*
X66700Y-34706D01*
X66638Y-34644D01*
X66445Y-34645D01*
X66346Y-34645D01*
X66255Y-34683D01*
X66185Y-34753D01*
X66147Y-34845D01*
X66146Y-35018D01*
X66208Y-35080D01*
X66700Y-35080D01*
X66700Y-35180D01*
X66208Y-35180D01*
X66146Y-35242D01*
X66147Y-35415D01*
X66185Y-35507D01*
X66255Y-35577D01*
X66346Y-35615D01*
X66445Y-35615D01*
X66638Y-35616D01*
X66700Y-35554D01*
X66700Y-40745D01*
X66659Y-40762D01*
X66497Y-40924D01*
X66409Y-41135D01*
X66409Y-41364D01*
X66496Y-41575D01*
X66551Y-41630D01*
X66463Y-41630D01*
X66463Y-41642D01*
X66451Y-41630D01*
X66307Y-41631D01*
X66208Y-41631D01*
X66117Y-41669D01*
X66047Y-41739D01*
X66009Y-41831D01*
X66008Y-41888D01*
X66070Y-41950D01*
X66463Y-41950D01*
X66513Y-41950D01*
X66613Y-41950D01*
X66663Y-41950D01*
X67056Y-41950D01*
X67118Y-41888D01*
X67117Y-41831D01*
X67112Y-41819D01*
X67309Y-41738D01*
X67471Y-41576D01*
X67559Y-41365D01*
X67559Y-46208D01*
X67541Y-46190D01*
X67385Y-46125D01*
X67216Y-46125D01*
X67094Y-46175D01*
X66965Y-46175D01*
X66965Y-46147D01*
X66927Y-46055D01*
X66857Y-45985D01*
X66855Y-45984D01*
X66855Y-45869D01*
X66917Y-45869D01*
X67009Y-45831D01*
X67079Y-45761D01*
X67117Y-45670D01*
X67117Y-45571D01*
X67117Y-45331D01*
X67083Y-45250D01*
X67117Y-45169D01*
X67118Y-45112D01*
X67118Y-44888D01*
X67117Y-44831D01*
X67083Y-44750D01*
X67117Y-44670D01*
X67117Y-44571D01*
X67117Y-44331D01*
X67083Y-44250D01*
X67117Y-44170D01*
X67117Y-44071D01*
X67117Y-43831D01*
X67083Y-43750D01*
X67117Y-43670D01*
X67117Y-43571D01*
X67117Y-43331D01*
X67083Y-43250D01*
X67117Y-43170D01*
X67117Y-43071D01*
X67117Y-42831D01*
X67083Y-42750D01*
X67117Y-42669D01*
X67118Y-42612D01*
X67118Y-42388D01*
X67117Y-42331D01*
X67083Y-42250D01*
X67117Y-42169D01*
X67118Y-42112D01*
X67056Y-42050D01*
X66613Y-42050D01*
X66613Y-42192D01*
X66613Y-42308D01*
X66613Y-42450D01*
X67056Y-42450D01*
X67118Y-42388D01*
X67118Y-42612D01*
X67056Y-42550D01*
X66663Y-42550D01*
X66613Y-42550D01*
X66513Y-42550D01*
X66513Y-42450D01*
X66513Y-42308D01*
X66513Y-42192D01*
X66513Y-42050D01*
X66070Y-42050D01*
X66008Y-42112D01*
X66009Y-42169D01*
X66042Y-42250D01*
X66009Y-42331D01*
X66008Y-42388D01*
X66070Y-42450D01*
X66513Y-42450D01*
X66513Y-42550D01*
X66463Y-42550D01*
X66070Y-42550D01*
X66008Y-42612D01*
X66009Y-42669D01*
X66042Y-42749D01*
X66009Y-42830D01*
X66009Y-42929D01*
X66009Y-43169D01*
X66042Y-43249D01*
X66009Y-43330D01*
X66009Y-43429D01*
X66009Y-43669D01*
X66042Y-43749D01*
X66009Y-43830D01*
X66009Y-43929D01*
X66009Y-44169D01*
X66042Y-44249D01*
X66009Y-44330D01*
X66009Y-44429D01*
X66009Y-44669D01*
X66042Y-44750D01*
X66009Y-44831D01*
X66008Y-44888D01*
X66070Y-44950D01*
X66463Y-44950D01*
X66513Y-44950D01*
X66613Y-44950D01*
X66663Y-44950D01*
X67056Y-44950D01*
X67118Y-44888D01*
X67118Y-45112D01*
X67056Y-45050D01*
X66663Y-45050D01*
X66613Y-45050D01*
X66513Y-45050D01*
X66463Y-45050D01*
X66070Y-45050D01*
X66008Y-45112D01*
X66009Y-45169D01*
X66042Y-45249D01*
X66009Y-45330D01*
X66009Y-45429D01*
X66009Y-45669D01*
X66047Y-45761D01*
X66105Y-45819D01*
X66105Y-45984D01*
X66103Y-45985D01*
X66033Y-46055D01*
X65995Y-46146D01*
X65995Y-46245D01*
X65995Y-46953D01*
X66033Y-47045D01*
X66103Y-47115D01*
X66194Y-47153D01*
X66293Y-47153D01*
X66765Y-47153D01*
X66857Y-47115D01*
X66927Y-47045D01*
X66965Y-46954D01*
X66965Y-46925D01*
X67095Y-46925D01*
X67215Y-46975D01*
X67384Y-46975D01*
X67540Y-46911D01*
X67660Y-46791D01*
X67725Y-46635D01*
X67725Y-47218D01*
X67722Y-47223D01*
X67506Y-47367D01*
X67217Y-47425D01*
X65854Y-47425D01*
X65854Y-39992D01*
X65854Y-39768D01*
X65853Y-39595D01*
X65853Y-38906D01*
X65853Y-38807D01*
X65853Y-38335D01*
X65815Y-38243D01*
X65745Y-38173D01*
X65654Y-38135D01*
X65560Y-38135D01*
X65560Y-37865D01*
X65653Y-37865D01*
X65745Y-37827D01*
X65815Y-37757D01*
X65853Y-37666D01*
X65853Y-37567D01*
X65853Y-37095D01*
X65815Y-37003D01*
X65745Y-36933D01*
X65654Y-36895D01*
X65555Y-36895D01*
X64847Y-36895D01*
X64755Y-36933D01*
X64685Y-37003D01*
X64647Y-37094D01*
X64647Y-37193D01*
X64647Y-37665D01*
X64685Y-37757D01*
X64755Y-37827D01*
X64846Y-37865D01*
X64940Y-37865D01*
X64940Y-38135D01*
X64847Y-38135D01*
X64755Y-38173D01*
X64685Y-38243D01*
X64647Y-38334D01*
X64647Y-38433D01*
X64647Y-38905D01*
X64685Y-38997D01*
X64755Y-39067D01*
X64846Y-39105D01*
X64945Y-39105D01*
X65653Y-39105D01*
X65745Y-39067D01*
X65815Y-38997D01*
X65853Y-38906D01*
X65853Y-39595D01*
X65815Y-39503D01*
X65745Y-39433D01*
X65654Y-39395D01*
X65555Y-39395D01*
X65362Y-39394D01*
X65300Y-39456D01*
X65300Y-39830D01*
X65792Y-39830D01*
X65854Y-39768D01*
X65854Y-39992D01*
X65792Y-39930D01*
X65300Y-39930D01*
X65300Y-40304D01*
X65362Y-40366D01*
X65555Y-40365D01*
X65654Y-40365D01*
X65745Y-40327D01*
X65815Y-40257D01*
X65853Y-40165D01*
X65854Y-39992D01*
X65854Y-47425D01*
X52559Y-47425D01*
X52559Y-45115D01*
X52559Y-44886D01*
X52472Y-44675D01*
X52310Y-44513D01*
X52099Y-44425D01*
X51870Y-44425D01*
X51659Y-44512D01*
X51497Y-44674D01*
X51409Y-44885D01*
X51409Y-45114D01*
X51496Y-45325D01*
X51658Y-45487D01*
X51869Y-45575D01*
X52098Y-45575D01*
X52309Y-45488D01*
X52471Y-45326D01*
X52559Y-45115D01*
X52559Y-47425D01*
X50604Y-47425D01*
X50604Y-34992D01*
X50604Y-34768D01*
X50603Y-34595D01*
X50565Y-34503D01*
X50495Y-34433D01*
X50404Y-34395D01*
X50305Y-34395D01*
X50112Y-34394D01*
X50050Y-34456D01*
X50050Y-34830D01*
X50542Y-34830D01*
X50604Y-34768D01*
X50604Y-34992D01*
X50542Y-34930D01*
X50050Y-34930D01*
X50050Y-35304D01*
X50112Y-35366D01*
X50305Y-35365D01*
X50404Y-35365D01*
X50495Y-35327D01*
X50565Y-35257D01*
X50603Y-35165D01*
X50604Y-34992D01*
X50604Y-47425D01*
X50584Y-47425D01*
X50584Y-45084D01*
X50584Y-37834D01*
X50572Y-37611D01*
X50508Y-37454D01*
X50412Y-37425D01*
X50341Y-37496D01*
X50341Y-37354D01*
X50312Y-37258D01*
X50100Y-37182D01*
X49950Y-37190D01*
X49950Y-35304D01*
X49950Y-34930D01*
X49950Y-34830D01*
X49950Y-34456D01*
X49888Y-34394D01*
X49695Y-34395D01*
X49596Y-34395D01*
X49505Y-34433D01*
X49435Y-34503D01*
X49397Y-34595D01*
X49396Y-34768D01*
X49458Y-34830D01*
X49950Y-34830D01*
X49950Y-34930D01*
X49458Y-34930D01*
X49396Y-34992D01*
X49397Y-35165D01*
X49435Y-35257D01*
X49505Y-35327D01*
X49596Y-35365D01*
X49695Y-35365D01*
X49888Y-35366D01*
X49950Y-35304D01*
X49950Y-37190D01*
X49877Y-37194D01*
X49720Y-37258D01*
X49691Y-37354D01*
X50016Y-37679D01*
X50341Y-37354D01*
X50341Y-37496D01*
X50087Y-37750D01*
X50412Y-38075D01*
X50508Y-38046D01*
X50584Y-37834D01*
X50584Y-45084D01*
X50572Y-44861D01*
X50508Y-44704D01*
X50412Y-44675D01*
X50341Y-44746D01*
X50341Y-44604D01*
X50341Y-38146D01*
X50016Y-37821D01*
X49945Y-37892D01*
X49945Y-37750D01*
X49620Y-37425D01*
X49524Y-37454D01*
X49448Y-37666D01*
X49460Y-37889D01*
X49524Y-38046D01*
X49620Y-38075D01*
X49945Y-37750D01*
X49945Y-37892D01*
X49691Y-38146D01*
X49720Y-38242D01*
X49932Y-38318D01*
X50155Y-38306D01*
X50312Y-38242D01*
X50341Y-38146D01*
X50341Y-44604D01*
X50312Y-44508D01*
X50100Y-44432D01*
X49877Y-44444D01*
X49720Y-44508D01*
X49691Y-44604D01*
X50016Y-44929D01*
X50341Y-44604D01*
X50341Y-44746D01*
X50087Y-45000D01*
X50412Y-45325D01*
X50508Y-45296D01*
X50584Y-45084D01*
X50584Y-47425D01*
X50341Y-47425D01*
X50341Y-45396D01*
X50016Y-45071D01*
X49945Y-45142D01*
X49945Y-45000D01*
X49620Y-44675D01*
X49524Y-44704D01*
X49448Y-44916D01*
X49460Y-45139D01*
X49524Y-45296D01*
X49620Y-45325D01*
X49945Y-45000D01*
X49945Y-45142D01*
X49691Y-45396D01*
X49720Y-45492D01*
X49932Y-45568D01*
X50155Y-45556D01*
X50312Y-45492D01*
X50341Y-45396D01*
X50341Y-47425D01*
X50032Y-47425D01*
X49648Y-47348D01*
X49349Y-47149D01*
X49150Y-46851D01*
X49075Y-46467D01*
X49075Y-29282D01*
X49132Y-28993D01*
X49276Y-28777D01*
X49494Y-28632D01*
X49782Y-28575D01*
X65905Y-28575D01*
X65858Y-28622D01*
X65793Y-28778D01*
X65793Y-28947D01*
X65857Y-29103D01*
X65940Y-29186D01*
X65925Y-29186D01*
X65624Y-29186D01*
X65219Y-28781D01*
X65119Y-28714D01*
X65000Y-28690D01*
X62000Y-28690D01*
X61881Y-28714D01*
X61831Y-28747D01*
X61780Y-28781D01*
X61531Y-29031D01*
X61122Y-29440D01*
X58750Y-29440D01*
X58631Y-29464D01*
X58581Y-29497D01*
X58530Y-29531D01*
X58281Y-29781D01*
X58214Y-29881D01*
X58190Y-30000D01*
X58190Y-30250D01*
X58190Y-30494D01*
X58066Y-30370D01*
X57901Y-30301D01*
X57722Y-30301D01*
X57557Y-30369D01*
X57431Y-30495D01*
X57362Y-30660D01*
X57362Y-30839D01*
X57430Y-31004D01*
X57556Y-31130D01*
X57721Y-31199D01*
X57900Y-31199D01*
X58065Y-31131D01*
X58190Y-31006D01*
X58190Y-31750D01*
X58214Y-31869D01*
X58281Y-31969D01*
X58530Y-32219D01*
X58531Y-32219D01*
X58581Y-32252D01*
X58631Y-32286D01*
X58632Y-32286D01*
X58750Y-32310D01*
X59411Y-32310D01*
X59397Y-32344D01*
X59397Y-32443D01*
X59397Y-32915D01*
X59435Y-33007D01*
X59505Y-33077D01*
X59596Y-33115D01*
X59695Y-33115D01*
X60047Y-33115D01*
X60075Y-33143D01*
X60005Y-33173D01*
X59935Y-33243D01*
X59897Y-33334D01*
X59897Y-33433D01*
X59897Y-33905D01*
X59935Y-33997D01*
X60005Y-34067D01*
X60096Y-34105D01*
X60195Y-34105D01*
X60903Y-34105D01*
X60995Y-34067D01*
X61065Y-33997D01*
X61103Y-33906D01*
X61103Y-33810D01*
X61501Y-33810D01*
X61281Y-34031D01*
X61214Y-34131D01*
X61190Y-34250D01*
X61190Y-35635D01*
X61097Y-35635D01*
X61005Y-35673D01*
X60935Y-35743D01*
X60897Y-35834D01*
X60897Y-35847D01*
X60875Y-35794D01*
X60875Y-35365D01*
X60903Y-35365D01*
X60995Y-35327D01*
X61065Y-35257D01*
X61103Y-35166D01*
X61103Y-35067D01*
X61103Y-34595D01*
X61065Y-34503D01*
X60995Y-34433D01*
X60904Y-34395D01*
X60805Y-34395D01*
X60097Y-34395D01*
X60005Y-34433D01*
X59935Y-34503D01*
X59907Y-34570D01*
X59140Y-34570D01*
X59140Y-34396D01*
X59140Y-32527D01*
X57283Y-32527D01*
X57283Y-34396D01*
X59140Y-34396D01*
X59140Y-34570D01*
X57058Y-34570D01*
X57010Y-34522D01*
X57010Y-33500D01*
X57009Y-33499D01*
X56986Y-33381D01*
X56919Y-33281D01*
X56919Y-33280D01*
X56719Y-33081D01*
X56619Y-33014D01*
X56559Y-33002D01*
X56565Y-32997D01*
X56603Y-32906D01*
X56603Y-32807D01*
X56603Y-32335D01*
X56565Y-32243D01*
X56495Y-32173D01*
X56404Y-32135D01*
X56305Y-32135D01*
X56124Y-32135D01*
X56124Y-29875D01*
X56124Y-29776D01*
X56124Y-29226D01*
X56086Y-29134D01*
X56016Y-29064D01*
X55925Y-29026D01*
X55826Y-29026D01*
X55276Y-29026D01*
X55184Y-29064D01*
X55114Y-29134D01*
X55076Y-29225D01*
X55076Y-29324D01*
X55076Y-29874D01*
X55114Y-29966D01*
X55184Y-30036D01*
X55275Y-30074D01*
X55374Y-30074D01*
X55391Y-30074D01*
X55333Y-30098D01*
X55310Y-30189D01*
X55600Y-30479D01*
X55890Y-30189D01*
X55867Y-30098D01*
X55797Y-30074D01*
X55924Y-30074D01*
X56016Y-30036D01*
X56086Y-29966D01*
X56124Y-29875D01*
X56124Y-32135D01*
X56119Y-32135D01*
X56119Y-30624D01*
X56108Y-30420D01*
X56052Y-30283D01*
X55961Y-30260D01*
X55671Y-30550D01*
X55961Y-30840D01*
X56052Y-30817D01*
X56119Y-30624D01*
X56119Y-32135D01*
X55890Y-32135D01*
X55890Y-30911D01*
X55600Y-30621D01*
X55529Y-30692D01*
X55529Y-30550D01*
X55239Y-30260D01*
X55148Y-30283D01*
X55081Y-30476D01*
X55092Y-30680D01*
X55148Y-30817D01*
X55239Y-30840D01*
X55529Y-30550D01*
X55529Y-30692D01*
X55310Y-30911D01*
X55333Y-31002D01*
X55526Y-31069D01*
X55730Y-31058D01*
X55867Y-31002D01*
X55890Y-30911D01*
X55890Y-32135D01*
X55597Y-32135D01*
X55505Y-32173D01*
X55435Y-32243D01*
X55407Y-32310D01*
X55130Y-32310D01*
X55011Y-32334D01*
X54911Y-32401D01*
X54681Y-32631D01*
X54614Y-32731D01*
X54590Y-32850D01*
X54590Y-33021D01*
X54491Y-33120D01*
X54474Y-33120D01*
X54474Y-33044D01*
X54474Y-33041D01*
X54475Y-33017D01*
X54456Y-32998D01*
X54436Y-32949D01*
X54366Y-32879D01*
X54356Y-32875D01*
X54413Y-32875D01*
X54475Y-32813D01*
X54474Y-32786D01*
X54436Y-32694D01*
X54366Y-32624D01*
X54275Y-32586D01*
X54176Y-32586D01*
X54087Y-32585D01*
X54025Y-32647D01*
X54025Y-32841D01*
X53925Y-32841D01*
X53925Y-32815D01*
X53925Y-32647D01*
X53863Y-32585D01*
X53774Y-32586D01*
X53760Y-32586D01*
X53760Y-31999D01*
X54524Y-31235D01*
X54856Y-31235D01*
X54948Y-31197D01*
X55018Y-31127D01*
X55056Y-31036D01*
X55056Y-30937D01*
X55056Y-30465D01*
X55018Y-30373D01*
X54948Y-30303D01*
X54881Y-30275D01*
X54881Y-29974D01*
X54948Y-29947D01*
X55018Y-29877D01*
X55056Y-29786D01*
X55056Y-29687D01*
X55056Y-29215D01*
X55018Y-29123D01*
X54948Y-29053D01*
X54857Y-29015D01*
X54758Y-29015D01*
X54524Y-29015D01*
X54290Y-28781D01*
X54190Y-28714D01*
X54071Y-28690D01*
X50250Y-28690D01*
X50131Y-28714D01*
X50031Y-28781D01*
X49531Y-29281D01*
X49464Y-29381D01*
X49440Y-29500D01*
X49440Y-32250D01*
X49464Y-32369D01*
X49531Y-32469D01*
X49690Y-32628D01*
X49690Y-33135D01*
X49597Y-33135D01*
X49505Y-33173D01*
X49435Y-33243D01*
X49397Y-33334D01*
X49397Y-33433D01*
X49397Y-33905D01*
X49435Y-33997D01*
X49505Y-34067D01*
X49596Y-34105D01*
X49695Y-34105D01*
X50403Y-34105D01*
X50495Y-34067D01*
X50565Y-33997D01*
X50592Y-33930D01*
X51630Y-33930D01*
X51748Y-33906D01*
X51749Y-33906D01*
X51760Y-33898D01*
X51764Y-33906D01*
X51834Y-33976D01*
X51925Y-34014D01*
X52024Y-34014D01*
X52113Y-34015D01*
X52175Y-33953D01*
X52175Y-33785D01*
X52175Y-33759D01*
X52275Y-33759D01*
X52275Y-33953D01*
X52337Y-34015D01*
X52426Y-34014D01*
X52525Y-34014D01*
X52616Y-33976D01*
X52686Y-33906D01*
X52724Y-33814D01*
X52725Y-33787D01*
X52663Y-33725D01*
X52606Y-33725D01*
X52616Y-33721D01*
X52686Y-33651D01*
X52706Y-33601D01*
X52725Y-33583D01*
X52724Y-33560D01*
X52724Y-33556D01*
X52724Y-33461D01*
X52724Y-33301D01*
X52723Y-33300D01*
X52724Y-33300D01*
X52724Y-33225D01*
X52840Y-33225D01*
X52840Y-33550D01*
X52864Y-33669D01*
X52868Y-33674D01*
X52868Y-33675D01*
X52864Y-33681D01*
X52840Y-33800D01*
X52840Y-34887D01*
X52755Y-34923D01*
X52685Y-34993D01*
X52647Y-35084D01*
X52647Y-35183D01*
X52647Y-35655D01*
X52661Y-35690D01*
X52588Y-35690D01*
X52603Y-35656D01*
X52603Y-35557D01*
X52603Y-35085D01*
X52565Y-34993D01*
X52495Y-34923D01*
X52404Y-34885D01*
X52305Y-34885D01*
X51597Y-34885D01*
X51505Y-34923D01*
X51435Y-34993D01*
X51397Y-35084D01*
X51397Y-35183D01*
X51397Y-35655D01*
X51435Y-35747D01*
X51505Y-35817D01*
X51596Y-35855D01*
X51695Y-35855D01*
X51711Y-35855D01*
X51714Y-35869D01*
X51781Y-35969D01*
X51956Y-36145D01*
X51597Y-36145D01*
X51505Y-36183D01*
X51435Y-36253D01*
X51407Y-36320D01*
X51370Y-36320D01*
X51251Y-36344D01*
X51151Y-36411D01*
X50781Y-36781D01*
X50714Y-36881D01*
X50690Y-37000D01*
X50690Y-37250D01*
X50690Y-38000D01*
X50714Y-38119D01*
X50781Y-38219D01*
X51281Y-38719D01*
X51381Y-38786D01*
X51382Y-38786D01*
X51500Y-38810D01*
X53250Y-38810D01*
X54250Y-38810D01*
X54368Y-38786D01*
X54369Y-38786D01*
X54469Y-38719D01*
X55219Y-37970D01*
X55219Y-37969D01*
X55286Y-37869D01*
X55309Y-37750D01*
X55310Y-37750D01*
X55310Y-36337D01*
X55331Y-36316D01*
X55369Y-36225D01*
X55369Y-36126D01*
X55369Y-35776D01*
X55331Y-35684D01*
X55261Y-35614D01*
X55170Y-35576D01*
X55071Y-35576D01*
X54995Y-35576D01*
X54995Y-35112D01*
X54995Y-34888D01*
X54994Y-34874D01*
X54994Y-34775D01*
X54956Y-34684D01*
X54886Y-34614D01*
X54794Y-34576D01*
X54737Y-34575D01*
X54675Y-34637D01*
X54675Y-34950D01*
X54933Y-34950D01*
X54995Y-34888D01*
X54995Y-35112D01*
X54933Y-35050D01*
X54675Y-35050D01*
X54675Y-35363D01*
X54737Y-35425D01*
X54794Y-35424D01*
X54886Y-35386D01*
X54956Y-35316D01*
X54994Y-35225D01*
X54994Y-35126D01*
X54995Y-35112D01*
X54995Y-35576D01*
X54831Y-35576D01*
X54739Y-35614D01*
X54669Y-35684D01*
X54631Y-35775D01*
X54631Y-35874D01*
X54631Y-36224D01*
X54669Y-36316D01*
X54690Y-36337D01*
X54690Y-37621D01*
X54575Y-37736D01*
X54575Y-35363D01*
X54575Y-35050D01*
X54575Y-34950D01*
X54575Y-34637D01*
X54513Y-34575D01*
X54456Y-34576D01*
X54364Y-34614D01*
X54294Y-34684D01*
X54256Y-34775D01*
X54256Y-34874D01*
X54255Y-34888D01*
X54317Y-34950D01*
X54575Y-34950D01*
X54575Y-35050D01*
X54317Y-35050D01*
X54255Y-35112D01*
X54256Y-35126D01*
X54256Y-35225D01*
X54294Y-35316D01*
X54364Y-35386D01*
X54456Y-35424D01*
X54513Y-35425D01*
X54575Y-35363D01*
X54575Y-37736D01*
X54121Y-38190D01*
X53250Y-38190D01*
X52357Y-38190D01*
X52471Y-38076D01*
X52559Y-37865D01*
X52559Y-37636D01*
X52472Y-37425D01*
X52310Y-37263D01*
X52099Y-37175D01*
X51870Y-37175D01*
X51659Y-37262D01*
X51497Y-37424D01*
X51409Y-37635D01*
X51409Y-37864D01*
X51484Y-38046D01*
X51310Y-37872D01*
X51310Y-37250D01*
X51310Y-37128D01*
X51433Y-37004D01*
X51435Y-37007D01*
X51505Y-37077D01*
X51596Y-37115D01*
X51695Y-37115D01*
X52403Y-37115D01*
X52495Y-37077D01*
X52565Y-37007D01*
X52603Y-36916D01*
X52603Y-36817D01*
X52603Y-36345D01*
X52588Y-36310D01*
X52661Y-36310D01*
X52647Y-36344D01*
X52647Y-36443D01*
X52647Y-36915D01*
X52685Y-37007D01*
X52755Y-37077D01*
X52846Y-37115D01*
X52945Y-37115D01*
X53653Y-37115D01*
X53745Y-37077D01*
X53815Y-37007D01*
X53853Y-36916D01*
X53853Y-36817D01*
X53853Y-36345D01*
X53815Y-36253D01*
X53745Y-36183D01*
X53654Y-36145D01*
X53555Y-36145D01*
X53538Y-36145D01*
X53536Y-36132D01*
X53536Y-36131D01*
X53502Y-36081D01*
X53469Y-36031D01*
X53469Y-36030D01*
X53293Y-35855D01*
X53653Y-35855D01*
X53745Y-35817D01*
X53815Y-35747D01*
X53853Y-35656D01*
X53853Y-35557D01*
X53853Y-35085D01*
X53815Y-34993D01*
X53745Y-34923D01*
X53654Y-34885D01*
X53555Y-34885D01*
X53505Y-34885D01*
X53502Y-34881D01*
X53469Y-34831D01*
X53469Y-34830D01*
X53460Y-34821D01*
X53460Y-33995D01*
X53629Y-33995D01*
X53675Y-34014D01*
X53774Y-34014D01*
X54274Y-34014D01*
X54320Y-33995D01*
X54765Y-33995D01*
X54883Y-33971D01*
X54884Y-33971D01*
X54984Y-33904D01*
X55278Y-33610D01*
X55397Y-33610D01*
X55397Y-33693D01*
X55397Y-34165D01*
X55435Y-34257D01*
X55505Y-34327D01*
X55596Y-34365D01*
X55690Y-34365D01*
X55690Y-34500D01*
X55690Y-34621D01*
X55666Y-34644D01*
X55636Y-34614D01*
X55545Y-34576D01*
X55446Y-34576D01*
X55206Y-34576D01*
X55114Y-34614D01*
X55044Y-34684D01*
X55006Y-34775D01*
X55006Y-34874D01*
X55006Y-35224D01*
X55044Y-35316D01*
X55114Y-35386D01*
X55205Y-35424D01*
X55304Y-35424D01*
X55544Y-35424D01*
X55636Y-35386D01*
X55706Y-35316D01*
X55708Y-35310D01*
X55750Y-35310D01*
X55868Y-35286D01*
X55869Y-35286D01*
X55969Y-35219D01*
X56219Y-34970D01*
X56219Y-34969D01*
X56252Y-34919D01*
X56286Y-34869D01*
X56286Y-34868D01*
X56309Y-34750D01*
X56310Y-34750D01*
X56310Y-34500D01*
X56310Y-34365D01*
X56390Y-34365D01*
X56390Y-34650D01*
X56414Y-34769D01*
X56481Y-34869D01*
X56711Y-35099D01*
X56811Y-35166D01*
X56812Y-35166D01*
X56930Y-35190D01*
X59907Y-35190D01*
X59935Y-35257D01*
X60005Y-35327D01*
X60096Y-35365D01*
X60125Y-35365D01*
X60125Y-35795D01*
X60075Y-35915D01*
X60075Y-36084D01*
X60125Y-36205D01*
X60125Y-39845D01*
X59845Y-40125D01*
X57205Y-40125D01*
X57085Y-40075D01*
X56916Y-40075D01*
X56794Y-40125D01*
X55782Y-40125D01*
X55638Y-40154D01*
X55577Y-40194D01*
X55516Y-40235D01*
X54502Y-41249D01*
X54439Y-41249D01*
X53889Y-41249D01*
X53797Y-41287D01*
X53727Y-41357D01*
X53689Y-41448D01*
X53689Y-41547D01*
X53689Y-42689D01*
X53715Y-42752D01*
X53691Y-42762D01*
X53529Y-42924D01*
X53441Y-43135D01*
X53441Y-43364D01*
X53528Y-43575D01*
X53690Y-43737D01*
X53715Y-43747D01*
X53689Y-43810D01*
X53689Y-43909D01*
X53689Y-44039D01*
X53535Y-43975D01*
X53366Y-43975D01*
X53210Y-44039D01*
X53090Y-44159D01*
X53025Y-44315D01*
X53025Y-44484D01*
X53089Y-44640D01*
X53209Y-44760D01*
X53365Y-44825D01*
X53534Y-44825D01*
X53580Y-44806D01*
X53689Y-44806D01*
X53689Y-45051D01*
X53727Y-45143D01*
X53797Y-45213D01*
X53888Y-45251D01*
X53987Y-45251D01*
X54537Y-45251D01*
X54629Y-45213D01*
X54690Y-45152D01*
X54690Y-45372D01*
X54662Y-45399D01*
X54656Y-45397D01*
X54557Y-45397D01*
X54085Y-45397D01*
X53993Y-45435D01*
X53923Y-45505D01*
X53885Y-45596D01*
X53885Y-45695D01*
X53885Y-46403D01*
X53923Y-46495D01*
X53993Y-46565D01*
X54060Y-46592D01*
X54060Y-46620D01*
X54084Y-46739D01*
X54151Y-46839D01*
X54280Y-46969D01*
X54281Y-46969D01*
X54381Y-47036D01*
X54499Y-47059D01*
X54500Y-47060D01*
X64250Y-47060D01*
X64368Y-47036D01*
X64369Y-47036D01*
X64469Y-46969D01*
X64656Y-46783D01*
X64656Y-46782D01*
X64689Y-46732D01*
X64723Y-46682D01*
X64723Y-46681D01*
X64735Y-46622D01*
X64735Y-46953D01*
X64773Y-47045D01*
X64843Y-47115D01*
X64934Y-47153D01*
X65033Y-47153D01*
X65505Y-47153D01*
X65597Y-47115D01*
X65667Y-47045D01*
X65705Y-46954D01*
X65705Y-46855D01*
X65705Y-46147D01*
X65667Y-46055D01*
X65597Y-45985D01*
X65591Y-45982D01*
X65591Y-41365D01*
X65591Y-41136D01*
X65504Y-40925D01*
X65342Y-40763D01*
X65200Y-40703D01*
X65200Y-40304D01*
X65200Y-39930D01*
X65200Y-39830D01*
X65200Y-39456D01*
X65138Y-39394D01*
X64945Y-39395D01*
X64846Y-39395D01*
X64755Y-39433D01*
X64685Y-39503D01*
X64647Y-39595D01*
X64646Y-39768D01*
X64708Y-39830D01*
X65200Y-39830D01*
X65200Y-39930D01*
X64708Y-39930D01*
X64646Y-39992D01*
X64647Y-40165D01*
X64685Y-40257D01*
X64755Y-40327D01*
X64846Y-40365D01*
X64945Y-40365D01*
X65138Y-40366D01*
X65200Y-40304D01*
X65200Y-40703D01*
X65131Y-40675D01*
X64902Y-40675D01*
X64691Y-40762D01*
X64604Y-40849D01*
X64604Y-39992D01*
X64604Y-39768D01*
X64603Y-39595D01*
X64603Y-38906D01*
X64603Y-38807D01*
X64603Y-38335D01*
X64565Y-38243D01*
X64495Y-38173D01*
X64404Y-38135D01*
X64310Y-38135D01*
X64310Y-37865D01*
X64403Y-37865D01*
X64495Y-37827D01*
X64565Y-37757D01*
X64603Y-37666D01*
X64603Y-37567D01*
X64603Y-37095D01*
X64565Y-37003D01*
X64495Y-36933D01*
X64404Y-36895D01*
X64305Y-36895D01*
X63597Y-36895D01*
X63505Y-36933D01*
X63435Y-37003D01*
X63397Y-37094D01*
X63397Y-37193D01*
X63397Y-37665D01*
X63435Y-37757D01*
X63505Y-37827D01*
X63596Y-37865D01*
X63690Y-37865D01*
X63690Y-38135D01*
X63597Y-38135D01*
X63505Y-38173D01*
X63435Y-38243D01*
X63397Y-38334D01*
X63397Y-38433D01*
X63397Y-38905D01*
X63435Y-38997D01*
X63505Y-39067D01*
X63596Y-39105D01*
X63695Y-39105D01*
X64403Y-39105D01*
X64495Y-39067D01*
X64565Y-38997D01*
X64603Y-38906D01*
X64603Y-39595D01*
X64565Y-39503D01*
X64495Y-39433D01*
X64404Y-39395D01*
X64305Y-39395D01*
X64112Y-39394D01*
X64050Y-39456D01*
X64050Y-39830D01*
X64542Y-39830D01*
X64604Y-39768D01*
X64604Y-39992D01*
X64542Y-39930D01*
X64050Y-39930D01*
X64050Y-40304D01*
X64112Y-40366D01*
X64305Y-40365D01*
X64404Y-40365D01*
X64495Y-40327D01*
X64565Y-40257D01*
X64603Y-40165D01*
X64604Y-39992D01*
X64604Y-40849D01*
X64529Y-40924D01*
X64441Y-41135D01*
X64441Y-41364D01*
X64528Y-41575D01*
X64583Y-41630D01*
X64549Y-41630D01*
X64487Y-41692D01*
X64487Y-41950D01*
X64930Y-41950D01*
X64992Y-41888D01*
X64991Y-41831D01*
X64988Y-41825D01*
X65130Y-41825D01*
X65341Y-41738D01*
X65503Y-41576D01*
X65591Y-41365D01*
X65591Y-45982D01*
X65530Y-45957D01*
X65530Y-45170D01*
X65506Y-45052D01*
X65506Y-45051D01*
X65439Y-44951D01*
X65269Y-44781D01*
X65169Y-44714D01*
X65050Y-44690D01*
X64982Y-44690D01*
X64991Y-44670D01*
X64991Y-44571D01*
X64991Y-44331D01*
X64957Y-44250D01*
X64991Y-44170D01*
X64991Y-44071D01*
X64991Y-43831D01*
X64957Y-43750D01*
X64991Y-43670D01*
X64991Y-43571D01*
X64991Y-43331D01*
X64957Y-43250D01*
X64991Y-43170D01*
X64991Y-43071D01*
X64991Y-42831D01*
X64957Y-42750D01*
X64991Y-42669D01*
X64992Y-42612D01*
X64992Y-42388D01*
X64991Y-42331D01*
X64957Y-42250D01*
X64991Y-42169D01*
X64992Y-42112D01*
X64930Y-42050D01*
X64487Y-42050D01*
X64487Y-42192D01*
X64487Y-42308D01*
X64487Y-42450D01*
X64930Y-42450D01*
X64992Y-42388D01*
X64992Y-42612D01*
X64930Y-42550D01*
X64537Y-42550D01*
X64487Y-42550D01*
X64387Y-42550D01*
X64387Y-42450D01*
X64387Y-42308D01*
X64387Y-42192D01*
X64387Y-42050D01*
X64387Y-41950D01*
X64387Y-41692D01*
X64325Y-41630D01*
X64181Y-41631D01*
X64082Y-41631D01*
X63991Y-41669D01*
X63950Y-41710D01*
X63950Y-40304D01*
X63950Y-39930D01*
X63950Y-39830D01*
X63950Y-39456D01*
X63888Y-39394D01*
X63695Y-39395D01*
X63596Y-39395D01*
X63505Y-39433D01*
X63435Y-39503D01*
X63397Y-39595D01*
X63396Y-39768D01*
X63458Y-39830D01*
X63950Y-39830D01*
X63950Y-39930D01*
X63458Y-39930D01*
X63396Y-39992D01*
X63397Y-40165D01*
X63435Y-40257D01*
X63505Y-40327D01*
X63596Y-40365D01*
X63695Y-40365D01*
X63888Y-40366D01*
X63950Y-40304D01*
X63950Y-41710D01*
X63921Y-41739D01*
X63883Y-41831D01*
X63882Y-41888D01*
X63944Y-41950D01*
X64387Y-41950D01*
X64387Y-42050D01*
X63944Y-42050D01*
X63882Y-42112D01*
X63883Y-42169D01*
X63916Y-42250D01*
X63883Y-42331D01*
X63882Y-42388D01*
X63944Y-42450D01*
X64387Y-42450D01*
X64387Y-42550D01*
X64337Y-42550D01*
X63944Y-42550D01*
X63882Y-42612D01*
X63883Y-42669D01*
X63891Y-42690D01*
X63878Y-42690D01*
X63810Y-42621D01*
X63810Y-42250D01*
X63786Y-42132D01*
X63786Y-42131D01*
X63752Y-42081D01*
X63719Y-42031D01*
X63719Y-42030D01*
X63469Y-41781D01*
X63369Y-41714D01*
X63354Y-41710D01*
X63354Y-39992D01*
X63354Y-39768D01*
X63353Y-39595D01*
X63353Y-38906D01*
X63353Y-38807D01*
X63353Y-38335D01*
X63315Y-38243D01*
X63245Y-38173D01*
X63154Y-38135D01*
X63060Y-38135D01*
X63060Y-37865D01*
X63153Y-37865D01*
X63245Y-37827D01*
X63315Y-37757D01*
X63353Y-37666D01*
X63353Y-37567D01*
X63353Y-37095D01*
X63315Y-37003D01*
X63245Y-36933D01*
X63154Y-36895D01*
X63055Y-36895D01*
X62347Y-36895D01*
X62255Y-36933D01*
X62185Y-37003D01*
X62147Y-37094D01*
X62147Y-37193D01*
X62147Y-37665D01*
X62185Y-37757D01*
X62255Y-37827D01*
X62346Y-37865D01*
X62440Y-37865D01*
X62440Y-38135D01*
X62347Y-38135D01*
X62255Y-38173D01*
X62185Y-38243D01*
X62147Y-38334D01*
X62147Y-38433D01*
X62147Y-38905D01*
X62185Y-38997D01*
X62255Y-39067D01*
X62346Y-39105D01*
X62445Y-39105D01*
X63153Y-39105D01*
X63245Y-39067D01*
X63315Y-38997D01*
X63353Y-38906D01*
X63353Y-39595D01*
X63315Y-39503D01*
X63245Y-39433D01*
X63154Y-39395D01*
X63055Y-39395D01*
X62862Y-39394D01*
X62800Y-39456D01*
X62800Y-39830D01*
X63292Y-39830D01*
X63354Y-39768D01*
X63354Y-39992D01*
X63292Y-39930D01*
X62800Y-39930D01*
X62800Y-40304D01*
X62862Y-40366D01*
X63055Y-40365D01*
X63154Y-40365D01*
X63245Y-40327D01*
X63315Y-40257D01*
X63353Y-40165D01*
X63354Y-39992D01*
X63354Y-41710D01*
X63250Y-41690D01*
X62700Y-41690D01*
X62700Y-40304D01*
X62700Y-39930D01*
X62700Y-39830D01*
X62700Y-39456D01*
X62638Y-39394D01*
X62445Y-39395D01*
X62346Y-39395D01*
X62255Y-39433D01*
X62185Y-39503D01*
X62147Y-39595D01*
X62146Y-39768D01*
X62208Y-39830D01*
X62700Y-39830D01*
X62700Y-39930D01*
X62208Y-39930D01*
X62146Y-39992D01*
X62147Y-40165D01*
X62185Y-40257D01*
X62255Y-40327D01*
X62346Y-40365D01*
X62445Y-40365D01*
X62638Y-40366D01*
X62700Y-40304D01*
X62700Y-41690D01*
X62365Y-41690D01*
X62365Y-41597D01*
X62327Y-41505D01*
X62257Y-41435D01*
X62166Y-41397D01*
X62104Y-41397D01*
X62104Y-39992D01*
X62104Y-39768D01*
X62103Y-39595D01*
X62103Y-38906D01*
X62103Y-38807D01*
X62103Y-38335D01*
X62065Y-38243D01*
X61995Y-38173D01*
X61904Y-38135D01*
X61810Y-38135D01*
X61810Y-37865D01*
X61903Y-37865D01*
X61995Y-37827D01*
X62065Y-37757D01*
X62103Y-37666D01*
X62103Y-37567D01*
X62103Y-37095D01*
X62065Y-37003D01*
X61995Y-36933D01*
X61904Y-36895D01*
X61805Y-36895D01*
X61097Y-36895D01*
X61005Y-36933D01*
X60935Y-37003D01*
X60897Y-37094D01*
X60897Y-37193D01*
X60897Y-37665D01*
X60935Y-37757D01*
X61005Y-37827D01*
X61096Y-37865D01*
X61190Y-37865D01*
X61190Y-38135D01*
X61097Y-38135D01*
X61005Y-38173D01*
X60935Y-38243D01*
X60897Y-38334D01*
X60897Y-38433D01*
X60897Y-38905D01*
X60935Y-38997D01*
X61005Y-39067D01*
X61096Y-39105D01*
X61195Y-39105D01*
X61903Y-39105D01*
X61995Y-39067D01*
X62065Y-38997D01*
X62103Y-38906D01*
X62103Y-39595D01*
X62065Y-39503D01*
X61995Y-39433D01*
X61904Y-39395D01*
X61805Y-39395D01*
X61612Y-39394D01*
X61550Y-39456D01*
X61550Y-39830D01*
X62042Y-39830D01*
X62104Y-39768D01*
X62104Y-39992D01*
X62042Y-39930D01*
X61550Y-39930D01*
X61550Y-40304D01*
X61612Y-40366D01*
X61805Y-40365D01*
X61904Y-40365D01*
X61995Y-40327D01*
X62065Y-40257D01*
X62103Y-40165D01*
X62104Y-39992D01*
X62104Y-41397D01*
X62067Y-41397D01*
X61595Y-41397D01*
X61503Y-41435D01*
X61450Y-41488D01*
X61450Y-40304D01*
X61450Y-39930D01*
X61450Y-39830D01*
X61450Y-39456D01*
X61388Y-39394D01*
X61195Y-39395D01*
X61096Y-39395D01*
X61005Y-39433D01*
X60935Y-39503D01*
X60897Y-39595D01*
X60896Y-39768D01*
X60958Y-39830D01*
X61450Y-39830D01*
X61450Y-39930D01*
X60958Y-39930D01*
X60896Y-39992D01*
X60897Y-40165D01*
X60935Y-40257D01*
X61005Y-40327D01*
X61096Y-40365D01*
X61195Y-40365D01*
X61388Y-40366D01*
X61450Y-40304D01*
X61450Y-41488D01*
X61433Y-41505D01*
X61395Y-41596D01*
X61395Y-41695D01*
X61395Y-42403D01*
X61433Y-42495D01*
X61503Y-42565D01*
X61594Y-42603D01*
X61693Y-42603D01*
X62165Y-42603D01*
X62257Y-42565D01*
X62327Y-42495D01*
X62365Y-42404D01*
X62365Y-42310D01*
X63121Y-42310D01*
X63190Y-42378D01*
X63190Y-42750D01*
X63214Y-42869D01*
X63281Y-42969D01*
X63501Y-43190D01*
X63378Y-43190D01*
X63219Y-43031D01*
X63119Y-42964D01*
X63000Y-42940D01*
X62365Y-42940D01*
X62365Y-42847D01*
X62327Y-42755D01*
X62257Y-42685D01*
X62166Y-42647D01*
X62067Y-42647D01*
X61595Y-42647D01*
X61503Y-42685D01*
X61433Y-42755D01*
X61395Y-42846D01*
X61395Y-42945D01*
X61395Y-43653D01*
X61433Y-43745D01*
X61503Y-43815D01*
X61594Y-43853D01*
X61693Y-43853D01*
X62165Y-43853D01*
X62257Y-43815D01*
X62327Y-43745D01*
X62365Y-43654D01*
X62365Y-43560D01*
X62871Y-43560D01*
X63030Y-43719D01*
X63031Y-43719D01*
X63077Y-43750D01*
X63031Y-43781D01*
X62622Y-44190D01*
X62365Y-44190D01*
X62365Y-44097D01*
X62327Y-44005D01*
X62257Y-43935D01*
X62166Y-43897D01*
X62067Y-43897D01*
X61595Y-43897D01*
X61503Y-43935D01*
X61433Y-44005D01*
X61395Y-44096D01*
X61395Y-44195D01*
X61395Y-44903D01*
X61433Y-44995D01*
X61503Y-45065D01*
X61594Y-45103D01*
X61693Y-45103D01*
X62165Y-45103D01*
X62257Y-45065D01*
X62327Y-44995D01*
X62365Y-44904D01*
X62365Y-44810D01*
X62750Y-44810D01*
X62868Y-44786D01*
X62869Y-44786D01*
X62969Y-44719D01*
X63378Y-44310D01*
X63501Y-44310D01*
X63281Y-44531D01*
X63214Y-44631D01*
X63190Y-44750D01*
X63190Y-45122D01*
X62872Y-45440D01*
X62365Y-45440D01*
X62365Y-45347D01*
X62327Y-45255D01*
X62257Y-45185D01*
X62166Y-45147D01*
X62067Y-45147D01*
X61595Y-45147D01*
X61503Y-45185D01*
X61433Y-45255D01*
X61395Y-45346D01*
X61395Y-45445D01*
X61395Y-46153D01*
X61433Y-46245D01*
X61503Y-46315D01*
X61594Y-46353D01*
X61693Y-46353D01*
X62165Y-46353D01*
X62257Y-46315D01*
X62327Y-46245D01*
X62365Y-46154D01*
X62365Y-46060D01*
X63000Y-46060D01*
X63118Y-46036D01*
X63119Y-46036D01*
X63219Y-45969D01*
X63719Y-45469D01*
X63786Y-45369D01*
X63786Y-45368D01*
X63810Y-45250D01*
X63810Y-44878D01*
X63878Y-44810D01*
X63891Y-44810D01*
X63883Y-44830D01*
X63883Y-44929D01*
X63883Y-45169D01*
X63916Y-45249D01*
X63883Y-45330D01*
X63883Y-45429D01*
X63883Y-45669D01*
X63921Y-45761D01*
X63991Y-45831D01*
X64082Y-45869D01*
X64127Y-45869D01*
X64127Y-46434D01*
X64121Y-46440D01*
X61105Y-46440D01*
X61105Y-46154D01*
X61105Y-46055D01*
X61105Y-45347D01*
X61105Y-44904D01*
X61105Y-44805D01*
X61105Y-44097D01*
X61105Y-43654D01*
X61105Y-43555D01*
X61105Y-42847D01*
X61105Y-42404D01*
X61105Y-42305D01*
X61105Y-41597D01*
X61067Y-41505D01*
X60997Y-41435D01*
X60906Y-41397D01*
X60807Y-41397D01*
X60335Y-41397D01*
X60243Y-41435D01*
X60173Y-41505D01*
X60135Y-41596D01*
X60135Y-41690D01*
X59615Y-41690D01*
X59615Y-41597D01*
X59577Y-41505D01*
X59507Y-41435D01*
X59416Y-41397D01*
X59317Y-41397D01*
X58845Y-41397D01*
X58753Y-41435D01*
X58683Y-41505D01*
X58645Y-41596D01*
X58645Y-41695D01*
X58645Y-42403D01*
X58683Y-42495D01*
X58753Y-42565D01*
X58844Y-42603D01*
X58943Y-42603D01*
X59415Y-42603D01*
X59507Y-42565D01*
X59577Y-42495D01*
X59615Y-42404D01*
X59615Y-42310D01*
X60135Y-42310D01*
X60135Y-42403D01*
X60173Y-42495D01*
X60243Y-42565D01*
X60334Y-42603D01*
X60433Y-42603D01*
X60905Y-42603D01*
X60997Y-42565D01*
X61067Y-42495D01*
X61105Y-42404D01*
X61105Y-42847D01*
X61067Y-42755D01*
X60997Y-42685D01*
X60906Y-42647D01*
X60807Y-42647D01*
X60335Y-42647D01*
X60243Y-42685D01*
X60173Y-42755D01*
X60135Y-42846D01*
X60135Y-42940D01*
X59615Y-42940D01*
X59615Y-42847D01*
X59577Y-42755D01*
X59507Y-42685D01*
X59416Y-42647D01*
X59317Y-42647D01*
X58845Y-42647D01*
X58753Y-42685D01*
X58683Y-42755D01*
X58645Y-42846D01*
X58645Y-42945D01*
X58645Y-43653D01*
X58683Y-43745D01*
X58753Y-43815D01*
X58844Y-43853D01*
X58943Y-43853D01*
X59415Y-43853D01*
X59507Y-43815D01*
X59577Y-43745D01*
X59615Y-43654D01*
X59615Y-43560D01*
X60135Y-43560D01*
X60135Y-43653D01*
X60173Y-43745D01*
X60243Y-43815D01*
X60334Y-43853D01*
X60433Y-43853D01*
X60905Y-43853D01*
X60997Y-43815D01*
X61067Y-43745D01*
X61105Y-43654D01*
X61105Y-44097D01*
X61067Y-44005D01*
X60997Y-43935D01*
X60906Y-43897D01*
X60807Y-43897D01*
X60335Y-43897D01*
X60243Y-43935D01*
X60173Y-44005D01*
X60135Y-44096D01*
X60135Y-44190D01*
X59615Y-44190D01*
X59615Y-44097D01*
X59577Y-44005D01*
X59507Y-43935D01*
X59416Y-43897D01*
X59317Y-43897D01*
X58845Y-43897D01*
X58753Y-43935D01*
X58683Y-44005D01*
X58645Y-44096D01*
X58645Y-44195D01*
X58645Y-44903D01*
X58683Y-44995D01*
X58753Y-45065D01*
X58844Y-45103D01*
X58943Y-45103D01*
X59415Y-45103D01*
X59507Y-45065D01*
X59577Y-44995D01*
X59615Y-44904D01*
X59615Y-44810D01*
X60135Y-44810D01*
X60135Y-44903D01*
X60173Y-44995D01*
X60243Y-45065D01*
X60334Y-45103D01*
X60433Y-45103D01*
X60905Y-45103D01*
X60997Y-45065D01*
X61067Y-44995D01*
X61105Y-44904D01*
X61105Y-45347D01*
X61067Y-45255D01*
X60997Y-45185D01*
X60906Y-45147D01*
X60807Y-45147D01*
X60335Y-45147D01*
X60243Y-45185D01*
X60173Y-45255D01*
X60135Y-45346D01*
X60135Y-45440D01*
X59615Y-45440D01*
X59615Y-45347D01*
X59577Y-45255D01*
X59507Y-45185D01*
X59416Y-45147D01*
X59317Y-45147D01*
X58845Y-45147D01*
X58753Y-45185D01*
X58683Y-45255D01*
X58645Y-45346D01*
X58645Y-45445D01*
X58645Y-46153D01*
X58683Y-46245D01*
X58753Y-46315D01*
X58844Y-46353D01*
X58943Y-46353D01*
X59415Y-46353D01*
X59507Y-46315D01*
X59577Y-46245D01*
X59615Y-46154D01*
X59615Y-46060D01*
X60135Y-46060D01*
X60135Y-46153D01*
X60173Y-46245D01*
X60243Y-46315D01*
X60334Y-46353D01*
X60433Y-46353D01*
X60905Y-46353D01*
X60997Y-46315D01*
X61067Y-46245D01*
X61105Y-46154D01*
X61105Y-46440D01*
X58356Y-46440D01*
X58356Y-45862D01*
X58356Y-45638D01*
X58356Y-44612D01*
X58356Y-44388D01*
X58356Y-43362D01*
X58356Y-43138D01*
X58356Y-42112D01*
X58356Y-41888D01*
X58355Y-41695D01*
X58355Y-41596D01*
X58317Y-41505D01*
X58247Y-41435D01*
X58155Y-41397D01*
X57982Y-41396D01*
X57920Y-41458D01*
X57920Y-41950D01*
X58294Y-41950D01*
X58356Y-41888D01*
X58356Y-42112D01*
X58294Y-42050D01*
X57920Y-42050D01*
X57920Y-42542D01*
X57982Y-42604D01*
X58155Y-42603D01*
X58247Y-42565D01*
X58317Y-42495D01*
X58355Y-42404D01*
X58355Y-42305D01*
X58356Y-42112D01*
X58356Y-43138D01*
X58355Y-42945D01*
X58355Y-42846D01*
X58317Y-42755D01*
X58247Y-42685D01*
X58155Y-42647D01*
X57982Y-42646D01*
X57920Y-42708D01*
X57920Y-43200D01*
X58294Y-43200D01*
X58356Y-43138D01*
X58356Y-43362D01*
X58294Y-43300D01*
X57920Y-43300D01*
X57920Y-43792D01*
X57982Y-43854D01*
X58155Y-43853D01*
X58247Y-43815D01*
X58317Y-43745D01*
X58355Y-43654D01*
X58355Y-43555D01*
X58356Y-43362D01*
X58356Y-44388D01*
X58355Y-44195D01*
X58355Y-44096D01*
X58317Y-44005D01*
X58247Y-43935D01*
X58155Y-43897D01*
X57982Y-43896D01*
X57920Y-43958D01*
X57920Y-44450D01*
X58294Y-44450D01*
X58356Y-44388D01*
X58356Y-44612D01*
X58294Y-44550D01*
X57920Y-44550D01*
X57920Y-45042D01*
X57982Y-45104D01*
X58155Y-45103D01*
X58247Y-45065D01*
X58317Y-44995D01*
X58355Y-44904D01*
X58355Y-44805D01*
X58356Y-44612D01*
X58356Y-45638D01*
X58355Y-45445D01*
X58355Y-45346D01*
X58317Y-45255D01*
X58247Y-45185D01*
X58155Y-45147D01*
X57982Y-45146D01*
X57920Y-45208D01*
X57920Y-45700D01*
X58294Y-45700D01*
X58356Y-45638D01*
X58356Y-45862D01*
X58294Y-45800D01*
X57920Y-45800D01*
X57920Y-46292D01*
X57982Y-46354D01*
X58155Y-46353D01*
X58247Y-46315D01*
X58317Y-46245D01*
X58355Y-46154D01*
X58355Y-46055D01*
X58356Y-45862D01*
X58356Y-46440D01*
X57820Y-46440D01*
X57820Y-46292D01*
X57820Y-45800D01*
X57820Y-45700D01*
X57820Y-45208D01*
X57820Y-45042D01*
X57820Y-44550D01*
X57820Y-44450D01*
X57820Y-43958D01*
X57820Y-43792D01*
X57820Y-43300D01*
X57820Y-43200D01*
X57820Y-42708D01*
X57820Y-42542D01*
X57820Y-42050D01*
X57820Y-41950D01*
X57820Y-41458D01*
X57758Y-41396D01*
X57585Y-41397D01*
X57493Y-41435D01*
X57423Y-41505D01*
X57385Y-41596D01*
X57385Y-41695D01*
X57384Y-41888D01*
X57446Y-41950D01*
X57820Y-41950D01*
X57820Y-42050D01*
X57446Y-42050D01*
X57384Y-42112D01*
X57385Y-42305D01*
X57385Y-42404D01*
X57423Y-42495D01*
X57493Y-42565D01*
X57585Y-42603D01*
X57758Y-42604D01*
X57820Y-42542D01*
X57820Y-42708D01*
X57758Y-42646D01*
X57585Y-42647D01*
X57493Y-42685D01*
X57423Y-42755D01*
X57385Y-42846D01*
X57385Y-42945D01*
X57384Y-43138D01*
X57446Y-43200D01*
X57820Y-43200D01*
X57820Y-43300D01*
X57446Y-43300D01*
X57384Y-43362D01*
X57385Y-43555D01*
X57385Y-43654D01*
X57423Y-43745D01*
X57493Y-43815D01*
X57585Y-43853D01*
X57758Y-43854D01*
X57820Y-43792D01*
X57820Y-43958D01*
X57758Y-43896D01*
X57585Y-43897D01*
X57493Y-43935D01*
X57423Y-44005D01*
X57385Y-44096D01*
X57385Y-44195D01*
X57384Y-44388D01*
X57446Y-44450D01*
X57820Y-44450D01*
X57820Y-44550D01*
X57446Y-44550D01*
X57384Y-44612D01*
X57385Y-44805D01*
X57385Y-44904D01*
X57423Y-44995D01*
X57493Y-45065D01*
X57585Y-45103D01*
X57758Y-45104D01*
X57820Y-45042D01*
X57820Y-45208D01*
X57758Y-45146D01*
X57585Y-45147D01*
X57493Y-45185D01*
X57423Y-45255D01*
X57385Y-45346D01*
X57385Y-45445D01*
X57384Y-45638D01*
X57446Y-45700D01*
X57820Y-45700D01*
X57820Y-45800D01*
X57446Y-45800D01*
X57384Y-45862D01*
X57385Y-46055D01*
X57385Y-46154D01*
X57423Y-46245D01*
X57493Y-46315D01*
X57585Y-46353D01*
X57758Y-46354D01*
X57820Y-46292D01*
X57820Y-46440D01*
X56099Y-46440D01*
X56115Y-46404D01*
X56115Y-46305D01*
X56116Y-46112D01*
X56116Y-45888D01*
X56115Y-45695D01*
X56115Y-45596D01*
X56077Y-45505D01*
X56007Y-45435D01*
X55915Y-45397D01*
X55742Y-45396D01*
X55680Y-45458D01*
X55680Y-45950D01*
X56054Y-45950D01*
X56116Y-45888D01*
X56116Y-46112D01*
X56054Y-46050D01*
X55730Y-46050D01*
X55680Y-46050D01*
X55580Y-46050D01*
X55530Y-46050D01*
X55206Y-46050D01*
X55144Y-46112D01*
X55145Y-46305D01*
X55145Y-46404D01*
X55160Y-46440D01*
X54839Y-46440D01*
X54855Y-46404D01*
X54855Y-46305D01*
X54855Y-46083D01*
X55144Y-45793D01*
X55144Y-45888D01*
X55206Y-45950D01*
X55580Y-45950D01*
X55580Y-45458D01*
X55518Y-45396D01*
X55345Y-45397D01*
X55310Y-45411D01*
X55310Y-45152D01*
X55371Y-45213D01*
X55462Y-45251D01*
X55561Y-45251D01*
X56111Y-45251D01*
X56203Y-45213D01*
X56273Y-45143D01*
X56311Y-45052D01*
X56311Y-44953D01*
X56311Y-43811D01*
X56284Y-43747D01*
X56309Y-43738D01*
X56471Y-43576D01*
X56559Y-43365D01*
X56559Y-43136D01*
X56472Y-42925D01*
X56310Y-42763D01*
X56284Y-42752D01*
X56311Y-42690D01*
X56311Y-42591D01*
X56311Y-41449D01*
X56273Y-41357D01*
X56203Y-41287D01*
X56112Y-41249D01*
X56013Y-41249D01*
X55563Y-41249D01*
X55937Y-40875D01*
X56795Y-40875D01*
X56915Y-40925D01*
X57084Y-40925D01*
X57205Y-40875D01*
X60000Y-40875D01*
X60143Y-40846D01*
X60144Y-40846D01*
X60265Y-40765D01*
X60765Y-40265D01*
X60846Y-40144D01*
X60846Y-40143D01*
X60875Y-40000D01*
X60875Y-36205D01*
X60897Y-36152D01*
X60897Y-36405D01*
X60935Y-36497D01*
X61005Y-36567D01*
X61096Y-36605D01*
X61195Y-36605D01*
X61903Y-36605D01*
X61995Y-36567D01*
X62065Y-36497D01*
X62103Y-36406D01*
X62103Y-36307D01*
X62103Y-35835D01*
X62065Y-35743D01*
X61995Y-35673D01*
X61904Y-35635D01*
X61810Y-35635D01*
X61810Y-34378D01*
X61849Y-34338D01*
X61875Y-34349D01*
X61974Y-34349D01*
X62424Y-34349D01*
X62516Y-34311D01*
X62586Y-34241D01*
X62624Y-34150D01*
X62624Y-34051D01*
X62624Y-33851D01*
X62586Y-33759D01*
X62577Y-33750D01*
X62586Y-33741D01*
X62624Y-33650D01*
X62624Y-33551D01*
X62624Y-33351D01*
X62586Y-33259D01*
X62577Y-33250D01*
X62586Y-33241D01*
X62624Y-33150D01*
X62624Y-33051D01*
X62624Y-32851D01*
X62586Y-32759D01*
X62577Y-32750D01*
X62586Y-32741D01*
X62624Y-32650D01*
X62624Y-32551D01*
X62624Y-32351D01*
X62586Y-32259D01*
X62577Y-32250D01*
X62586Y-32241D01*
X62624Y-32150D01*
X62624Y-32051D01*
X62624Y-31851D01*
X62586Y-31759D01*
X62577Y-31750D01*
X62586Y-31741D01*
X62624Y-31650D01*
X62624Y-31551D01*
X62624Y-31351D01*
X62607Y-31310D01*
X62621Y-31310D01*
X62690Y-31378D01*
X62690Y-34371D01*
X62531Y-34531D01*
X62464Y-34631D01*
X62440Y-34750D01*
X62440Y-35635D01*
X62347Y-35635D01*
X62255Y-35673D01*
X62185Y-35743D01*
X62147Y-35834D01*
X62147Y-35933D01*
X62147Y-36405D01*
X62185Y-36497D01*
X62255Y-36567D01*
X62346Y-36605D01*
X62445Y-36605D01*
X63153Y-36605D01*
X63245Y-36567D01*
X63315Y-36497D01*
X63353Y-36406D01*
X63353Y-36307D01*
X63353Y-35835D01*
X63315Y-35743D01*
X63245Y-35673D01*
X63154Y-35635D01*
X63060Y-35635D01*
X63060Y-34878D01*
X63219Y-34720D01*
X63219Y-34719D01*
X63250Y-34672D01*
X63281Y-34719D01*
X63440Y-34878D01*
X63440Y-35500D01*
X63464Y-35619D01*
X63502Y-35675D01*
X63435Y-35743D01*
X63397Y-35834D01*
X63397Y-35933D01*
X63397Y-36405D01*
X63435Y-36497D01*
X63505Y-36567D01*
X63596Y-36605D01*
X63695Y-36605D01*
X64403Y-36605D01*
X64495Y-36567D01*
X64565Y-36497D01*
X64603Y-36406D01*
X64603Y-36307D01*
X64603Y-35835D01*
X64565Y-35743D01*
X64495Y-35673D01*
X64404Y-35635D01*
X64305Y-35635D01*
X64286Y-35635D01*
X64286Y-35632D01*
X64286Y-35631D01*
X64252Y-35581D01*
X64219Y-35531D01*
X64219Y-35530D01*
X64060Y-35371D01*
X64060Y-34750D01*
X64036Y-34632D01*
X64036Y-34631D01*
X64002Y-34581D01*
X63969Y-34531D01*
X63969Y-34530D01*
X63810Y-34371D01*
X63810Y-34231D01*
X63814Y-34241D01*
X63884Y-34311D01*
X63975Y-34349D01*
X64074Y-34349D01*
X64524Y-34349D01*
X64616Y-34311D01*
X64617Y-34310D01*
X64871Y-34310D01*
X64940Y-34378D01*
X64940Y-34500D01*
X64940Y-35635D01*
X64847Y-35635D01*
X64755Y-35673D01*
X64685Y-35743D01*
X64647Y-35834D01*
X64647Y-35933D01*
X64647Y-36405D01*
X64685Y-36497D01*
X64755Y-36567D01*
X64846Y-36605D01*
X64945Y-36605D01*
X65653Y-36605D01*
X65745Y-36567D01*
X65815Y-36497D01*
X65853Y-36406D01*
X65853Y-36307D01*
X65853Y-35835D01*
X65815Y-35743D01*
X65745Y-35673D01*
X65654Y-35635D01*
X65560Y-35635D01*
X65560Y-34500D01*
X65560Y-34250D01*
X65536Y-34132D01*
X65536Y-34131D01*
X65502Y-34081D01*
X65469Y-34031D01*
X65469Y-34030D01*
X65248Y-33810D01*
X65622Y-33810D01*
X65901Y-34089D01*
X66001Y-34156D01*
X66002Y-34156D01*
X66120Y-34180D01*
X66157Y-34180D01*
X66185Y-34247D01*
X66255Y-34317D01*
X66346Y-34355D01*
X66445Y-34355D01*
X67153Y-34355D01*
X67245Y-34317D01*
X67315Y-34247D01*
X67353Y-34156D01*
X67353Y-34057D01*
X67353Y-33585D01*
X67315Y-33493D01*
X67245Y-33423D01*
X67154Y-33385D01*
X67060Y-33385D01*
X67060Y-33115D01*
X67153Y-33115D01*
X67245Y-33077D01*
X67315Y-33007D01*
X67353Y-32916D01*
X67353Y-32817D01*
X67353Y-32345D01*
X67331Y-32293D01*
X67368Y-32286D01*
X67369Y-32286D01*
X67469Y-32219D01*
X67719Y-31970D01*
X67719Y-31969D01*
X67752Y-31919D01*
X67786Y-31869D01*
X67786Y-31868D01*
X67809Y-31750D01*
X67810Y-31750D01*
X67810Y-31000D01*
X67786Y-30882D01*
X67786Y-30881D01*
X67752Y-30831D01*
X67719Y-30781D01*
X67719Y-30780D01*
X67469Y-30531D01*
X67416Y-30496D01*
X67416Y-30495D01*
X67444Y-30429D01*
X67445Y-30256D01*
X67383Y-30194D01*
X67059Y-30194D01*
X67009Y-30194D01*
X66909Y-30194D01*
X66859Y-30194D01*
X66535Y-30194D01*
X66473Y-30256D01*
X66474Y-30429D01*
X66478Y-30440D01*
X66250Y-30440D01*
X65989Y-30440D01*
X65989Y-30314D01*
X66023Y-30314D01*
X66115Y-30276D01*
X66185Y-30206D01*
X66223Y-30115D01*
X66223Y-30016D01*
X66223Y-29386D01*
X66185Y-29294D01*
X66179Y-29288D01*
X66302Y-29288D01*
X66423Y-29238D01*
X66474Y-29238D01*
X66474Y-29641D01*
X66512Y-29733D01*
X66529Y-29750D01*
X66512Y-29767D01*
X66474Y-29859D01*
X66473Y-30032D01*
X66535Y-30094D01*
X66859Y-30094D01*
X66909Y-30094D01*
X67009Y-30094D01*
X67059Y-30094D01*
X67383Y-30094D01*
X67445Y-30032D01*
X67444Y-29859D01*
X67406Y-29767D01*
X67389Y-29750D01*
X67406Y-29733D01*
X67444Y-29642D01*
X67444Y-29543D01*
X67444Y-29071D01*
X67406Y-28979D01*
X67336Y-28909D01*
X67317Y-28901D01*
X67316Y-28900D01*
X67305Y-28842D01*
X67305Y-28841D01*
X67264Y-28780D01*
X67224Y-28720D01*
X67224Y-28719D01*
X67102Y-28598D01*
X67067Y-28575D01*
X67217Y-28575D01*
X67506Y-28632D01*
X67722Y-28776D01*
X67867Y-28994D01*
X67925Y-29282D01*
X67925Y-46717D01*
X67925Y-46717D01*
G37*
G54D30*
X67925Y-46717D02*
X67867Y-47005D01*
X67725Y-47218D01*
X67725Y-46635D01*
X67725Y-46466D01*
X67661Y-46310D01*
X67559Y-46208D01*
X67559Y-41365D01*
X67559Y-41136D01*
X67472Y-40925D01*
X67354Y-40807D01*
X67354Y-35242D01*
X67354Y-35018D01*
X67353Y-34845D01*
X67315Y-34753D01*
X67245Y-34683D01*
X67154Y-34645D01*
X67055Y-34645D01*
X66862Y-34644D01*
X66800Y-34706D01*
X66800Y-35080D01*
X67292Y-35080D01*
X67354Y-35018D01*
X67354Y-35242D01*
X67292Y-35180D01*
X66800Y-35180D01*
X66800Y-35554D01*
X66862Y-35616D01*
X67055Y-35615D01*
X67154Y-35615D01*
X67245Y-35577D01*
X67315Y-35507D01*
X67353Y-35415D01*
X67354Y-35242D01*
X67354Y-40807D01*
X67310Y-40763D01*
X67099Y-40675D01*
X66870Y-40675D01*
X66700Y-40745D01*
X66700Y-35554D01*
X66700Y-35180D01*
X66700Y-35080D01*
X66700Y-34706D01*
X66638Y-34644D01*
X66445Y-34645D01*
X66346Y-34645D01*
X66255Y-34683D01*
X66185Y-34753D01*
X66147Y-34845D01*
X66146Y-35018D01*
X66208Y-35080D01*
X66700Y-35080D01*
X66700Y-35180D01*
X66208Y-35180D01*
X66146Y-35242D01*
X66147Y-35415D01*
X66185Y-35507D01*
X66255Y-35577D01*
X66346Y-35615D01*
X66445Y-35615D01*
X66638Y-35616D01*
X66700Y-35554D01*
X66700Y-40745D01*
X66659Y-40762D01*
X66497Y-40924D01*
X66409Y-41135D01*
X66409Y-41364D01*
X66496Y-41575D01*
X66551Y-41630D01*
X66463Y-41630D01*
X66463Y-41642D01*
X66451Y-41630D01*
X66307Y-41631D01*
X66208Y-41631D01*
X66117Y-41669D01*
X66047Y-41739D01*
X66009Y-41831D01*
X66008Y-41888D01*
X66070Y-41950D01*
X66463Y-41950D01*
X66513Y-41950D01*
X66613Y-41950D01*
X66663Y-41950D01*
X67056Y-41950D01*
X67118Y-41888D01*
X67117Y-41831D01*
X67112Y-41819D01*
X67309Y-41738D01*
X67471Y-41576D01*
X67559Y-41365D01*
X67559Y-46208D01*
X67541Y-46190D01*
X67385Y-46125D01*
X67216Y-46125D01*
X67094Y-46175D01*
X66965Y-46175D01*
X66965Y-46147D01*
X66927Y-46055D01*
X66857Y-45985D01*
X66855Y-45984D01*
X66855Y-45869D01*
X66917Y-45869D01*
X67009Y-45831D01*
X67079Y-45761D01*
X67117Y-45670D01*
X67117Y-45571D01*
X67117Y-45331D01*
X67083Y-45250D01*
X67117Y-45169D01*
X67118Y-45112D01*
X67118Y-44888D01*
X67117Y-44831D01*
X67083Y-44750D01*
X67117Y-44670D01*
X67117Y-44571D01*
X67117Y-44331D01*
X67083Y-44250D01*
X67117Y-44170D01*
X67117Y-44071D01*
X67117Y-43831D01*
X67083Y-43750D01*
X67117Y-43670D01*
X67117Y-43571D01*
X67117Y-43331D01*
X67083Y-43250D01*
X67117Y-43170D01*
X67117Y-43071D01*
X67117Y-42831D01*
X67083Y-42750D01*
X67117Y-42669D01*
X67118Y-42612D01*
X67118Y-42388D01*
X67117Y-42331D01*
X67083Y-42250D01*
X67117Y-42169D01*
X67118Y-42112D01*
X67056Y-42050D01*
X66613Y-42050D01*
X66613Y-42192D01*
X66613Y-42308D01*
X66613Y-42450D01*
X67056Y-42450D01*
X67118Y-42388D01*
X67118Y-42612D01*
X67056Y-42550D01*
X66663Y-42550D01*
X66613Y-42550D01*
X66513Y-42550D01*
X66513Y-42450D01*
X66513Y-42308D01*
X66513Y-42192D01*
X66513Y-42050D01*
X66070Y-42050D01*
X66008Y-42112D01*
X66009Y-42169D01*
X66042Y-42250D01*
X66009Y-42331D01*
X66008Y-42388D01*
X66070Y-42450D01*
X66513Y-42450D01*
X66513Y-42550D01*
X66463Y-42550D01*
X66070Y-42550D01*
X66008Y-42612D01*
X66009Y-42669D01*
X66042Y-42749D01*
X66009Y-42830D01*
X66009Y-42929D01*
X66009Y-43169D01*
X66042Y-43249D01*
X66009Y-43330D01*
X66009Y-43429D01*
X66009Y-43669D01*
X66042Y-43749D01*
X66009Y-43830D01*
X66009Y-43929D01*
X66009Y-44169D01*
X66042Y-44249D01*
X66009Y-44330D01*
X66009Y-44429D01*
X66009Y-44669D01*
X66042Y-44750D01*
X66009Y-44831D01*
X66008Y-44888D01*
X66070Y-44950D01*
X66463Y-44950D01*
X66513Y-44950D01*
X66613Y-44950D01*
X66663Y-44950D01*
X67056Y-44950D01*
X67118Y-44888D01*
X67118Y-45112D01*
X67056Y-45050D01*
X66663Y-45050D01*
X66613Y-45050D01*
X66513Y-45050D01*
X66463Y-45050D01*
X66070Y-45050D01*
X66008Y-45112D01*
X66009Y-45169D01*
X66042Y-45249D01*
X66009Y-45330D01*
X66009Y-45429D01*
X66009Y-45669D01*
X66047Y-45761D01*
X66105Y-45819D01*
X66105Y-45984D01*
X66103Y-45985D01*
X66033Y-46055D01*
X65995Y-46146D01*
X65995Y-46245D01*
X65995Y-46953D01*
X66033Y-47045D01*
X66103Y-47115D01*
X66194Y-47153D01*
X66293Y-47153D01*
X66765Y-47153D01*
X66857Y-47115D01*
X66927Y-47045D01*
X66965Y-46954D01*
X66965Y-46925D01*
X67095Y-46925D01*
X67215Y-46975D01*
X67384Y-46975D01*
X67540Y-46911D01*
X67660Y-46791D01*
X67725Y-46635D01*
X67725Y-47218D01*
X67722Y-47223D01*
X67506Y-47367D01*
X67217Y-47425D01*
X65854Y-47425D01*
X65854Y-39992D01*
X65854Y-39768D01*
X65853Y-39595D01*
X65853Y-38906D01*
X65853Y-38807D01*
X65853Y-38335D01*
X65815Y-38243D01*
X65745Y-38173D01*
X65654Y-38135D01*
X65560Y-38135D01*
X65560Y-37865D01*
X65653Y-37865D01*
X65745Y-37827D01*
X65815Y-37757D01*
X65853Y-37666D01*
X65853Y-37567D01*
X65853Y-37095D01*
X65815Y-37003D01*
X65745Y-36933D01*
X65654Y-36895D01*
X65555Y-36895D01*
X64847Y-36895D01*
X64755Y-36933D01*
X64685Y-37003D01*
X64647Y-37094D01*
X64647Y-37193D01*
X64647Y-37665D01*
X64685Y-37757D01*
X64755Y-37827D01*
X64846Y-37865D01*
X64940Y-37865D01*
X64940Y-38135D01*
X64847Y-38135D01*
X64755Y-38173D01*
X64685Y-38243D01*
X64647Y-38334D01*
X64647Y-38433D01*
X64647Y-38905D01*
X64685Y-38997D01*
X64755Y-39067D01*
X64846Y-39105D01*
X64945Y-39105D01*
X65653Y-39105D01*
X65745Y-39067D01*
X65815Y-38997D01*
X65853Y-38906D01*
X65853Y-39595D01*
X65815Y-39503D01*
X65745Y-39433D01*
X65654Y-39395D01*
X65555Y-39395D01*
X65362Y-39394D01*
X65300Y-39456D01*
X65300Y-39830D01*
X65792Y-39830D01*
X65854Y-39768D01*
X65854Y-39992D01*
X65792Y-39930D01*
X65300Y-39930D01*
X65300Y-40304D01*
X65362Y-40366D01*
X65555Y-40365D01*
X65654Y-40365D01*
X65745Y-40327D01*
X65815Y-40257D01*
X65853Y-40165D01*
X65854Y-39992D01*
X65854Y-47425D01*
X52559Y-47425D01*
X52559Y-45115D01*
X52559Y-44886D01*
X52472Y-44675D01*
X52310Y-44513D01*
X52099Y-44425D01*
X51870Y-44425D01*
X51659Y-44512D01*
X51497Y-44674D01*
X51409Y-44885D01*
X51409Y-45114D01*
X51496Y-45325D01*
X51658Y-45487D01*
X51869Y-45575D01*
X52098Y-45575D01*
X52309Y-45488D01*
X52471Y-45326D01*
X52559Y-45115D01*
X52559Y-47425D01*
X50604Y-47425D01*
X50604Y-34992D01*
X50604Y-34768D01*
X50603Y-34595D01*
X50565Y-34503D01*
X50495Y-34433D01*
X50404Y-34395D01*
X50305Y-34395D01*
X50112Y-34394D01*
X50050Y-34456D01*
X50050Y-34830D01*
X50542Y-34830D01*
X50604Y-34768D01*
X50604Y-34992D01*
X50542Y-34930D01*
X50050Y-34930D01*
X50050Y-35304D01*
X50112Y-35366D01*
X50305Y-35365D01*
X50404Y-35365D01*
X50495Y-35327D01*
X50565Y-35257D01*
X50603Y-35165D01*
X50604Y-34992D01*
X50604Y-47425D01*
X50584Y-47425D01*
X50584Y-45084D01*
X50584Y-37834D01*
X50572Y-37611D01*
X50508Y-37454D01*
X50412Y-37425D01*
X50341Y-37496D01*
X50341Y-37354D01*
X50312Y-37258D01*
X50100Y-37182D01*
X49950Y-37190D01*
X49950Y-35304D01*
X49950Y-34930D01*
X49950Y-34830D01*
X49950Y-34456D01*
X49888Y-34394D01*
X49695Y-34395D01*
X49596Y-34395D01*
X49505Y-34433D01*
X49435Y-34503D01*
X49397Y-34595D01*
X49396Y-34768D01*
X49458Y-34830D01*
X49950Y-34830D01*
X49950Y-34930D01*
X49458Y-34930D01*
X49396Y-34992D01*
X49397Y-35165D01*
X49435Y-35257D01*
X49505Y-35327D01*
X49596Y-35365D01*
X49695Y-35365D01*
X49888Y-35366D01*
X49950Y-35304D01*
X49950Y-37190D01*
X49877Y-37194D01*
X49720Y-37258D01*
X49691Y-37354D01*
X50016Y-37679D01*
X50341Y-37354D01*
X50341Y-37496D01*
X50087Y-37750D01*
X50412Y-38075D01*
X50508Y-38046D01*
X50584Y-37834D01*
X50584Y-45084D01*
X50572Y-44861D01*
X50508Y-44704D01*
X50412Y-44675D01*
X50341Y-44746D01*
X50341Y-44604D01*
X50341Y-38146D01*
X50016Y-37821D01*
X49945Y-37892D01*
X49945Y-37750D01*
X49620Y-37425D01*
X49524Y-37454D01*
X49448Y-37666D01*
X49460Y-37889D01*
X49524Y-38046D01*
X49620Y-38075D01*
X49945Y-37750D01*
X49945Y-37892D01*
X49691Y-38146D01*
X49720Y-38242D01*
X49932Y-38318D01*
X50155Y-38306D01*
X50312Y-38242D01*
X50341Y-38146D01*
X50341Y-44604D01*
X50312Y-44508D01*
X50100Y-44432D01*
X49877Y-44444D01*
X49720Y-44508D01*
X49691Y-44604D01*
X50016Y-44929D01*
X50341Y-44604D01*
X50341Y-44746D01*
X50087Y-45000D01*
X50412Y-45325D01*
X50508Y-45296D01*
X50584Y-45084D01*
X50584Y-47425D01*
X50341Y-47425D01*
X50341Y-45396D01*
X50016Y-45071D01*
X49945Y-45142D01*
X49945Y-45000D01*
X49620Y-44675D01*
X49524Y-44704D01*
X49448Y-44916D01*
X49460Y-45139D01*
X49524Y-45296D01*
X49620Y-45325D01*
X49945Y-45000D01*
X49945Y-45142D01*
X49691Y-45396D01*
X49720Y-45492D01*
X49932Y-45568D01*
X50155Y-45556D01*
X50312Y-45492D01*
X50341Y-45396D01*
X50341Y-47425D01*
X50032Y-47425D01*
X49648Y-47348D01*
X49349Y-47149D01*
X49150Y-46851D01*
X49075Y-46467D01*
X49075Y-29282D01*
X49132Y-28993D01*
X49276Y-28777D01*
X49494Y-28632D01*
X49782Y-28575D01*
X65905Y-28575D01*
X65858Y-28622D01*
X65793Y-28778D01*
X65793Y-28947D01*
X65857Y-29103D01*
X65940Y-29186D01*
X65925Y-29186D01*
X65624Y-29186D01*
X65219Y-28781D01*
X65119Y-28714D01*
X65000Y-28690D01*
X62000Y-28690D01*
X61881Y-28714D01*
X61831Y-28747D01*
X61780Y-28781D01*
X61531Y-29031D01*
X61122Y-29440D01*
X58750Y-29440D01*
X58631Y-29464D01*
X58581Y-29497D01*
X58530Y-29531D01*
X58281Y-29781D01*
X58214Y-29881D01*
X58190Y-30000D01*
X58190Y-30250D01*
X58190Y-30494D01*
X58066Y-30370D01*
X57901Y-30301D01*
X57722Y-30301D01*
X57557Y-30369D01*
X57431Y-30495D01*
X57362Y-30660D01*
X57362Y-30839D01*
X57430Y-31004D01*
X57556Y-31130D01*
X57721Y-31199D01*
X57900Y-31199D01*
X58065Y-31131D01*
X58190Y-31006D01*
X58190Y-31750D01*
X58214Y-31869D01*
X58281Y-31969D01*
X58530Y-32219D01*
X58531Y-32219D01*
X58581Y-32252D01*
X58631Y-32286D01*
X58632Y-32286D01*
X58750Y-32310D01*
X59411Y-32310D01*
X59397Y-32344D01*
X59397Y-32443D01*
X59397Y-32915D01*
X59435Y-33007D01*
X59505Y-33077D01*
X59596Y-33115D01*
X59695Y-33115D01*
X60047Y-33115D01*
X60075Y-33143D01*
X60005Y-33173D01*
X59935Y-33243D01*
X59897Y-33334D01*
X59897Y-33433D01*
X59897Y-33905D01*
X59935Y-33997D01*
X60005Y-34067D01*
X60096Y-34105D01*
X60195Y-34105D01*
X60903Y-34105D01*
X60995Y-34067D01*
X61065Y-33997D01*
X61103Y-33906D01*
X61103Y-33810D01*
X61501Y-33810D01*
X61281Y-34031D01*
X61214Y-34131D01*
X61190Y-34250D01*
X61190Y-35635D01*
X61097Y-35635D01*
X61005Y-35673D01*
X60935Y-35743D01*
X60897Y-35834D01*
X60897Y-35847D01*
X60875Y-35794D01*
X60875Y-35365D01*
X60903Y-35365D01*
X60995Y-35327D01*
X61065Y-35257D01*
X61103Y-35166D01*
X61103Y-35067D01*
X61103Y-34595D01*
X61065Y-34503D01*
X60995Y-34433D01*
X60904Y-34395D01*
X60805Y-34395D01*
X60097Y-34395D01*
X60005Y-34433D01*
X59935Y-34503D01*
X59907Y-34570D01*
X59140Y-34570D01*
X59140Y-34396D01*
X59140Y-32527D01*
X57283Y-32527D01*
X57283Y-34396D01*
X59140Y-34396D01*
X59140Y-34570D01*
X57058Y-34570D01*
X57010Y-34522D01*
X57010Y-33500D01*
X57009Y-33499D01*
X56986Y-33381D01*
X56919Y-33281D01*
X56919Y-33280D01*
X56719Y-33081D01*
X56619Y-33014D01*
X56559Y-33002D01*
X56565Y-32997D01*
X56603Y-32906D01*
X56603Y-32807D01*
X56603Y-32335D01*
X56565Y-32243D01*
X56495Y-32173D01*
X56404Y-32135D01*
X56305Y-32135D01*
X56124Y-32135D01*
X56124Y-29875D01*
X56124Y-29776D01*
X56124Y-29226D01*
X56086Y-29134D01*
X56016Y-29064D01*
X55925Y-29026D01*
X55826Y-29026D01*
X55276Y-29026D01*
X55184Y-29064D01*
X55114Y-29134D01*
X55076Y-29225D01*
X55076Y-29324D01*
X55076Y-29874D01*
X55114Y-29966D01*
X55184Y-30036D01*
X55275Y-30074D01*
X55374Y-30074D01*
X55391Y-30074D01*
X55333Y-30098D01*
X55310Y-30189D01*
X55600Y-30479D01*
X55890Y-30189D01*
X55867Y-30098D01*
X55797Y-30074D01*
X55924Y-30074D01*
X56016Y-30036D01*
X56086Y-29966D01*
X56124Y-29875D01*
X56124Y-32135D01*
X56119Y-32135D01*
X56119Y-30624D01*
X56108Y-30420D01*
X56052Y-30283D01*
X55961Y-30260D01*
X55671Y-30550D01*
X55961Y-30840D01*
X56052Y-30817D01*
X56119Y-30624D01*
X56119Y-32135D01*
X55890Y-32135D01*
X55890Y-30911D01*
X55600Y-30621D01*
X55529Y-30692D01*
X55529Y-30550D01*
X55239Y-30260D01*
X55148Y-30283D01*
X55081Y-30476D01*
X55092Y-30680D01*
X55148Y-30817D01*
X55239Y-30840D01*
X55529Y-30550D01*
X55529Y-30692D01*
X55310Y-30911D01*
X55333Y-31002D01*
X55526Y-31069D01*
X55730Y-31058D01*
X55867Y-31002D01*
X55890Y-30911D01*
X55890Y-32135D01*
X55597Y-32135D01*
X55505Y-32173D01*
X55435Y-32243D01*
X55407Y-32310D01*
X55130Y-32310D01*
X55011Y-32334D01*
X54911Y-32401D01*
X54681Y-32631D01*
X54614Y-32731D01*
X54590Y-32850D01*
X54590Y-33021D01*
X54491Y-33120D01*
X54474Y-33120D01*
X54474Y-33044D01*
X54474Y-33041D01*
X54475Y-33017D01*
X54456Y-32998D01*
X54436Y-32949D01*
X54366Y-32879D01*
X54356Y-32875D01*
X54413Y-32875D01*
X54475Y-32813D01*
X54474Y-32786D01*
X54436Y-32694D01*
X54366Y-32624D01*
X54275Y-32586D01*
X54176Y-32586D01*
X54087Y-32585D01*
X54025Y-32647D01*
X54025Y-32841D01*
X53925Y-32841D01*
X53925Y-32815D01*
X53925Y-32647D01*
X53863Y-32585D01*
X53774Y-32586D01*
X53760Y-32586D01*
X53760Y-31999D01*
X54524Y-31235D01*
X54856Y-31235D01*
X54948Y-31197D01*
X55018Y-31127D01*
X55056Y-31036D01*
X55056Y-30937D01*
X55056Y-30465D01*
X55018Y-30373D01*
X54948Y-30303D01*
X54881Y-30275D01*
X54881Y-29974D01*
X54948Y-29947D01*
X55018Y-29877D01*
X55056Y-29786D01*
X55056Y-29687D01*
X55056Y-29215D01*
X55018Y-29123D01*
X54948Y-29053D01*
X54857Y-29015D01*
X54758Y-29015D01*
X54524Y-29015D01*
X54290Y-28781D01*
X54190Y-28714D01*
X54071Y-28690D01*
X50250Y-28690D01*
X50131Y-28714D01*
X50031Y-28781D01*
X49531Y-29281D01*
X49464Y-29381D01*
X49440Y-29500D01*
X49440Y-32250D01*
X49464Y-32369D01*
X49531Y-32469D01*
X49690Y-32628D01*
X49690Y-33135D01*
X49597Y-33135D01*
X49505Y-33173D01*
X49435Y-33243D01*
X49397Y-33334D01*
X49397Y-33433D01*
X49397Y-33905D01*
X49435Y-33997D01*
X49505Y-34067D01*
X49596Y-34105D01*
X49695Y-34105D01*
X50403Y-34105D01*
X50495Y-34067D01*
X50565Y-33997D01*
X50592Y-33930D01*
X51630Y-33930D01*
X51748Y-33906D01*
X51749Y-33906D01*
X51760Y-33898D01*
X51764Y-33906D01*
X51834Y-33976D01*
X51925Y-34014D01*
X52024Y-34014D01*
X52113Y-34015D01*
X52175Y-33953D01*
X52175Y-33785D01*
X52175Y-33759D01*
X52275Y-33759D01*
X52275Y-33953D01*
X52337Y-34015D01*
X52426Y-34014D01*
X52525Y-34014D01*
X52616Y-33976D01*
X52686Y-33906D01*
X52724Y-33814D01*
X52725Y-33787D01*
X52663Y-33725D01*
X52606Y-33725D01*
X52616Y-33721D01*
X52686Y-33651D01*
X52706Y-33601D01*
X52725Y-33583D01*
X52724Y-33560D01*
X52724Y-33556D01*
X52724Y-33461D01*
X52724Y-33301D01*
X52723Y-33300D01*
X52724Y-33300D01*
X52724Y-33225D01*
X52840Y-33225D01*
X52840Y-33550D01*
X52864Y-33669D01*
X52868Y-33674D01*
X52868Y-33675D01*
X52864Y-33681D01*
X52840Y-33800D01*
X52840Y-34887D01*
X52755Y-34923D01*
X52685Y-34993D01*
X52647Y-35084D01*
X52647Y-35183D01*
X52647Y-35655D01*
X52661Y-35690D01*
X52588Y-35690D01*
X52603Y-35656D01*
X52603Y-35557D01*
X52603Y-35085D01*
X52565Y-34993D01*
X52495Y-34923D01*
X52404Y-34885D01*
X52305Y-34885D01*
X51597Y-34885D01*
X51505Y-34923D01*
X51435Y-34993D01*
X51397Y-35084D01*
X51397Y-35183D01*
X51397Y-35655D01*
X51435Y-35747D01*
X51505Y-35817D01*
X51596Y-35855D01*
X51695Y-35855D01*
X51711Y-35855D01*
X51714Y-35869D01*
X51781Y-35969D01*
X51956Y-36145D01*
X51597Y-36145D01*
X51505Y-36183D01*
X51435Y-36253D01*
X51407Y-36320D01*
X51370Y-36320D01*
X51251Y-36344D01*
X51151Y-36411D01*
X50781Y-36781D01*
X50714Y-36881D01*
X50690Y-37000D01*
X50690Y-37250D01*
X50690Y-38000D01*
X50714Y-38119D01*
X50781Y-38219D01*
X51281Y-38719D01*
X51381Y-38786D01*
X51382Y-38786D01*
X51500Y-38810D01*
X53250Y-38810D01*
X54250Y-38810D01*
X54368Y-38786D01*
X54369Y-38786D01*
X54469Y-38719D01*
X55219Y-37970D01*
X55219Y-37969D01*
X55286Y-37869D01*
X55309Y-37750D01*
X55310Y-37750D01*
X55310Y-36337D01*
X55331Y-36316D01*
X55369Y-36225D01*
X55369Y-36126D01*
X55369Y-35776D01*
X55331Y-35684D01*
X55261Y-35614D01*
X55170Y-35576D01*
X55071Y-35576D01*
X54995Y-35576D01*
X54995Y-35112D01*
X54995Y-34888D01*
X54994Y-34874D01*
X54994Y-34775D01*
X54956Y-34684D01*
X54886Y-34614D01*
X54794Y-34576D01*
X54737Y-34575D01*
X54675Y-34637D01*
X54675Y-34950D01*
X54933Y-34950D01*
X54995Y-34888D01*
X54995Y-35112D01*
X54933Y-35050D01*
X54675Y-35050D01*
X54675Y-35363D01*
X54737Y-35425D01*
X54794Y-35424D01*
X54886Y-35386D01*
X54956Y-35316D01*
X54994Y-35225D01*
X54994Y-35126D01*
X54995Y-35112D01*
X54995Y-35576D01*
X54831Y-35576D01*
X54739Y-35614D01*
X54669Y-35684D01*
X54631Y-35775D01*
X54631Y-35874D01*
X54631Y-36224D01*
X54669Y-36316D01*
X54690Y-36337D01*
X54690Y-37621D01*
X54575Y-37736D01*
X54575Y-35363D01*
X54575Y-35050D01*
X54575Y-34950D01*
X54575Y-34637D01*
X54513Y-34575D01*
X54456Y-34576D01*
X54364Y-34614D01*
X54294Y-34684D01*
X54256Y-34775D01*
X54256Y-34874D01*
X54255Y-34888D01*
X54317Y-34950D01*
X54575Y-34950D01*
X54575Y-35050D01*
X54317Y-35050D01*
X54255Y-35112D01*
X54256Y-35126D01*
X54256Y-35225D01*
X54294Y-35316D01*
X54364Y-35386D01*
X54456Y-35424D01*
X54513Y-35425D01*
X54575Y-35363D01*
X54575Y-37736D01*
X54121Y-38190D01*
X53250Y-38190D01*
X52357Y-38190D01*
X52471Y-38076D01*
X52559Y-37865D01*
X52559Y-37636D01*
X52472Y-37425D01*
X52310Y-37263D01*
X52099Y-37175D01*
X51870Y-37175D01*
X51659Y-37262D01*
X51497Y-37424D01*
X51409Y-37635D01*
X51409Y-37864D01*
X51484Y-38046D01*
X51310Y-37872D01*
X51310Y-37250D01*
X51310Y-37128D01*
X51433Y-37004D01*
X51435Y-37007D01*
X51505Y-37077D01*
X51596Y-37115D01*
X51695Y-37115D01*
X52403Y-37115D01*
X52495Y-37077D01*
X52565Y-37007D01*
X52603Y-36916D01*
X52603Y-36817D01*
X52603Y-36345D01*
X52588Y-36310D01*
X52661Y-36310D01*
X52647Y-36344D01*
X52647Y-36443D01*
X52647Y-36915D01*
X52685Y-37007D01*
X52755Y-37077D01*
X52846Y-37115D01*
X52945Y-37115D01*
X53653Y-37115D01*
X53745Y-37077D01*
X53815Y-37007D01*
X53853Y-36916D01*
X53853Y-36817D01*
X53853Y-36345D01*
X53815Y-36253D01*
X53745Y-36183D01*
X53654Y-36145D01*
X53555Y-36145D01*
X53538Y-36145D01*
X53536Y-36132D01*
X53536Y-36131D01*
X53502Y-36081D01*
X53469Y-36031D01*
X53469Y-36030D01*
X53293Y-35855D01*
X53653Y-35855D01*
X53745Y-35817D01*
X53815Y-35747D01*
X53853Y-35656D01*
X53853Y-35557D01*
X53853Y-35085D01*
X53815Y-34993D01*
X53745Y-34923D01*
X53654Y-34885D01*
X53555Y-34885D01*
X53505Y-34885D01*
X53502Y-34881D01*
X53469Y-34831D01*
X53469Y-34830D01*
X53460Y-34821D01*
X53460Y-33995D01*
X53629Y-33995D01*
X53675Y-34014D01*
X53774Y-34014D01*
X54274Y-34014D01*
X54320Y-33995D01*
X54765Y-33995D01*
X54883Y-33971D01*
X54884Y-33971D01*
X54984Y-33904D01*
X55278Y-33610D01*
X55397Y-33610D01*
X55397Y-33693D01*
X55397Y-34165D01*
X55435Y-34257D01*
X55505Y-34327D01*
X55596Y-34365D01*
X55690Y-34365D01*
X55690Y-34500D01*
X55690Y-34621D01*
X55666Y-34644D01*
X55636Y-34614D01*
X55545Y-34576D01*
X55446Y-34576D01*
X55206Y-34576D01*
X55114Y-34614D01*
X55044Y-34684D01*
X55006Y-34775D01*
X55006Y-34874D01*
X55006Y-35224D01*
X55044Y-35316D01*
X55114Y-35386D01*
X55205Y-35424D01*
X55304Y-35424D01*
X55544Y-35424D01*
X55636Y-35386D01*
X55706Y-35316D01*
X55708Y-35310D01*
X55750Y-35310D01*
X55868Y-35286D01*
X55869Y-35286D01*
X55969Y-35219D01*
X56219Y-34970D01*
X56219Y-34969D01*
X56252Y-34919D01*
X56286Y-34869D01*
X56286Y-34868D01*
X56309Y-34750D01*
X56310Y-34750D01*
X56310Y-34500D01*
X56310Y-34365D01*
X56390Y-34365D01*
X56390Y-34650D01*
X56414Y-34769D01*
X56481Y-34869D01*
X56711Y-35099D01*
X56811Y-35166D01*
X56812Y-35166D01*
X56930Y-35190D01*
X59907Y-35190D01*
X59935Y-35257D01*
X60005Y-35327D01*
X60096Y-35365D01*
X60125Y-35365D01*
X60125Y-35795D01*
X60075Y-35915D01*
X60075Y-36084D01*
X60125Y-36205D01*
X60125Y-39845D01*
X59845Y-40125D01*
X57205Y-40125D01*
X57085Y-40075D01*
X56916Y-40075D01*
X56794Y-40125D01*
X55782Y-40125D01*
X55638Y-40154D01*
X55577Y-40194D01*
X55516Y-40235D01*
X54502Y-41249D01*
X54439Y-41249D01*
X53889Y-41249D01*
X53797Y-41287D01*
X53727Y-41357D01*
X53689Y-41448D01*
X53689Y-41547D01*
X53689Y-42689D01*
X53715Y-42752D01*
X53691Y-42762D01*
X53529Y-42924D01*
X53441Y-43135D01*
X53441Y-43364D01*
X53528Y-43575D01*
X53690Y-43737D01*
X53715Y-43747D01*
X53689Y-43810D01*
X53689Y-43909D01*
X53689Y-44039D01*
X53535Y-43975D01*
X53366Y-43975D01*
X53210Y-44039D01*
X53090Y-44159D01*
X53025Y-44315D01*
X53025Y-44484D01*
X53089Y-44640D01*
X53209Y-44760D01*
X53365Y-44825D01*
X53534Y-44825D01*
X53580Y-44806D01*
X53689Y-44806D01*
X53689Y-45051D01*
X53727Y-45143D01*
X53797Y-45213D01*
X53888Y-45251D01*
X53987Y-45251D01*
X54537Y-45251D01*
X54629Y-45213D01*
X54690Y-45152D01*
X54690Y-45372D01*
X54662Y-45399D01*
X54656Y-45397D01*
X54557Y-45397D01*
X54085Y-45397D01*
X53993Y-45435D01*
X53923Y-45505D01*
X53885Y-45596D01*
X53885Y-45695D01*
X53885Y-46403D01*
X53923Y-46495D01*
X53993Y-46565D01*
X54060Y-46592D01*
X54060Y-46620D01*
X54084Y-46739D01*
X54151Y-46839D01*
X54280Y-46969D01*
X54281Y-46969D01*
X54381Y-47036D01*
X54499Y-47059D01*
X54500Y-47060D01*
X64250Y-47060D01*
X64368Y-47036D01*
X64369Y-47036D01*
X64469Y-46969D01*
X64656Y-46783D01*
X64656Y-46782D01*
X64689Y-46732D01*
X64723Y-46682D01*
X64723Y-46681D01*
X64735Y-46622D01*
X64735Y-46953D01*
X64773Y-47045D01*
X64843Y-47115D01*
X64934Y-47153D01*
X65033Y-47153D01*
X65505Y-47153D01*
X65597Y-47115D01*
X65667Y-47045D01*
X65705Y-46954D01*
X65705Y-46855D01*
X65705Y-46147D01*
X65667Y-46055D01*
X65597Y-45985D01*
X65591Y-45982D01*
X65591Y-41365D01*
X65591Y-41136D01*
X65504Y-40925D01*
X65342Y-40763D01*
X65200Y-40703D01*
X65200Y-40304D01*
X65200Y-39930D01*
X65200Y-39830D01*
X65200Y-39456D01*
X65138Y-39394D01*
X64945Y-39395D01*
X64846Y-39395D01*
X64755Y-39433D01*
X64685Y-39503D01*
X64647Y-39595D01*
X64646Y-39768D01*
X64708Y-39830D01*
X65200Y-39830D01*
X65200Y-39930D01*
X64708Y-39930D01*
X64646Y-39992D01*
X64647Y-40165D01*
X64685Y-40257D01*
X64755Y-40327D01*
X64846Y-40365D01*
X64945Y-40365D01*
X65138Y-40366D01*
X65200Y-40304D01*
X65200Y-40703D01*
X65131Y-40675D01*
X64902Y-40675D01*
X64691Y-40762D01*
X64604Y-40849D01*
X64604Y-39992D01*
X64604Y-39768D01*
X64603Y-39595D01*
X64603Y-38906D01*
X64603Y-38807D01*
X64603Y-38335D01*
X64565Y-38243D01*
X64495Y-38173D01*
X64404Y-38135D01*
X64310Y-38135D01*
X64310Y-37865D01*
X64403Y-37865D01*
X64495Y-37827D01*
X64565Y-37757D01*
X64603Y-37666D01*
X64603Y-37567D01*
X64603Y-37095D01*
X64565Y-37003D01*
X64495Y-36933D01*
X64404Y-36895D01*
X64305Y-36895D01*
X63597Y-36895D01*
X63505Y-36933D01*
X63435Y-37003D01*
X63397Y-37094D01*
X63397Y-37193D01*
X63397Y-37665D01*
X63435Y-37757D01*
X63505Y-37827D01*
X63596Y-37865D01*
X63690Y-37865D01*
X63690Y-38135D01*
X63597Y-38135D01*
X63505Y-38173D01*
X63435Y-38243D01*
X63397Y-38334D01*
X63397Y-38433D01*
X63397Y-38905D01*
X63435Y-38997D01*
X63505Y-39067D01*
X63596Y-39105D01*
X63695Y-39105D01*
X64403Y-39105D01*
X64495Y-39067D01*
X64565Y-38997D01*
X64603Y-38906D01*
X64603Y-39595D01*
X64565Y-39503D01*
X64495Y-39433D01*
X64404Y-39395D01*
X64305Y-39395D01*
X64112Y-39394D01*
X64050Y-39456D01*
X64050Y-39830D01*
X64542Y-39830D01*
X64604Y-39768D01*
X64604Y-39992D01*
X64542Y-39930D01*
X64050Y-39930D01*
X64050Y-40304D01*
X64112Y-40366D01*
X64305Y-40365D01*
X64404Y-40365D01*
X64495Y-40327D01*
X64565Y-40257D01*
X64603Y-40165D01*
X64604Y-39992D01*
X64604Y-40849D01*
X64529Y-40924D01*
X64441Y-41135D01*
X64441Y-41364D01*
X64528Y-41575D01*
X64583Y-41630D01*
X64549Y-41630D01*
X64487Y-41692D01*
X64487Y-41950D01*
X64930Y-41950D01*
X64992Y-41888D01*
X64991Y-41831D01*
X64988Y-41825D01*
X65130Y-41825D01*
X65341Y-41738D01*
X65503Y-41576D01*
X65591Y-41365D01*
X65591Y-45982D01*
X65530Y-45957D01*
X65530Y-45170D01*
X65506Y-45052D01*
X65506Y-45051D01*
X65439Y-44951D01*
X65269Y-44781D01*
X65169Y-44714D01*
X65050Y-44690D01*
X64982Y-44690D01*
X64991Y-44670D01*
X64991Y-44571D01*
X64991Y-44331D01*
X64957Y-44250D01*
X64991Y-44170D01*
X64991Y-44071D01*
X64991Y-43831D01*
X64957Y-43750D01*
X64991Y-43670D01*
X64991Y-43571D01*
X64991Y-43331D01*
X64957Y-43250D01*
X64991Y-43170D01*
X64991Y-43071D01*
X64991Y-42831D01*
X64957Y-42750D01*
X64991Y-42669D01*
X64992Y-42612D01*
X64992Y-42388D01*
X64991Y-42331D01*
X64957Y-42250D01*
X64991Y-42169D01*
X64992Y-42112D01*
X64930Y-42050D01*
X64487Y-42050D01*
X64487Y-42192D01*
X64487Y-42308D01*
X64487Y-42450D01*
X64930Y-42450D01*
X64992Y-42388D01*
X64992Y-42612D01*
X64930Y-42550D01*
X64537Y-42550D01*
X64487Y-42550D01*
X64387Y-42550D01*
X64387Y-42450D01*
X64387Y-42308D01*
X64387Y-42192D01*
X64387Y-42050D01*
X64387Y-41950D01*
X64387Y-41692D01*
X64325Y-41630D01*
X64181Y-41631D01*
X64082Y-41631D01*
X63991Y-41669D01*
X63950Y-41710D01*
X63950Y-40304D01*
X63950Y-39930D01*
X63950Y-39830D01*
X63950Y-39456D01*
X63888Y-39394D01*
X63695Y-39395D01*
X63596Y-39395D01*
X63505Y-39433D01*
X63435Y-39503D01*
X63397Y-39595D01*
X63396Y-39768D01*
X63458Y-39830D01*
X63950Y-39830D01*
X63950Y-39930D01*
X63458Y-39930D01*
X63396Y-39992D01*
X63397Y-40165D01*
X63435Y-40257D01*
X63505Y-40327D01*
X63596Y-40365D01*
X63695Y-40365D01*
X63888Y-40366D01*
X63950Y-40304D01*
X63950Y-41710D01*
X63921Y-41739D01*
X63883Y-41831D01*
X63882Y-41888D01*
X63944Y-41950D01*
X64387Y-41950D01*
X64387Y-42050D01*
X63944Y-42050D01*
X63882Y-42112D01*
X63883Y-42169D01*
X63916Y-42250D01*
X63883Y-42331D01*
X63882Y-42388D01*
X63944Y-42450D01*
X64387Y-42450D01*
X64387Y-42550D01*
X64337Y-42550D01*
X63944Y-42550D01*
X63882Y-42612D01*
X63883Y-42669D01*
X63891Y-42690D01*
X63878Y-42690D01*
X63810Y-42621D01*
X63810Y-42250D01*
X63786Y-42132D01*
X63786Y-42131D01*
X63752Y-42081D01*
X63719Y-42031D01*
X63719Y-42030D01*
X63469Y-41781D01*
X63369Y-41714D01*
X63354Y-41710D01*
X63354Y-39992D01*
X63354Y-39768D01*
X63353Y-39595D01*
X63353Y-38906D01*
X63353Y-38807D01*
X63353Y-38335D01*
X63315Y-38243D01*
X63245Y-38173D01*
X63154Y-38135D01*
X63060Y-38135D01*
X63060Y-37865D01*
X63153Y-37865D01*
X63245Y-37827D01*
X63315Y-37757D01*
X63353Y-37666D01*
X63353Y-37567D01*
X63353Y-37095D01*
X63315Y-37003D01*
X63245Y-36933D01*
X63154Y-36895D01*
X63055Y-36895D01*
X62347Y-36895D01*
X62255Y-36933D01*
X62185Y-37003D01*
X62147Y-37094D01*
X62147Y-37193D01*
X62147Y-37665D01*
X62185Y-37757D01*
X62255Y-37827D01*
X62346Y-37865D01*
X62440Y-37865D01*
X62440Y-38135D01*
X62347Y-38135D01*
X62255Y-38173D01*
X62185Y-38243D01*
X62147Y-38334D01*
X62147Y-38433D01*
X62147Y-38905D01*
X62185Y-38997D01*
X62255Y-39067D01*
X62346Y-39105D01*
X62445Y-39105D01*
X63153Y-39105D01*
X63245Y-39067D01*
X63315Y-38997D01*
X63353Y-38906D01*
X63353Y-39595D01*
X63315Y-39503D01*
X63245Y-39433D01*
X63154Y-39395D01*
X63055Y-39395D01*
X62862Y-39394D01*
X62800Y-39456D01*
X62800Y-39830D01*
X63292Y-39830D01*
X63354Y-39768D01*
X63354Y-39992D01*
X63292Y-39930D01*
X62800Y-39930D01*
X62800Y-40304D01*
X62862Y-40366D01*
X63055Y-40365D01*
X63154Y-40365D01*
X63245Y-40327D01*
X63315Y-40257D01*
X63353Y-40165D01*
X63354Y-39992D01*
X63354Y-41710D01*
X63250Y-41690D01*
X62700Y-41690D01*
X62700Y-40304D01*
X62700Y-39930D01*
X62700Y-39830D01*
X62700Y-39456D01*
X62638Y-39394D01*
X62445Y-39395D01*
X62346Y-39395D01*
X62255Y-39433D01*
X62185Y-39503D01*
X62147Y-39595D01*
X62146Y-39768D01*
X62208Y-39830D01*
X62700Y-39830D01*
X62700Y-39930D01*
X62208Y-39930D01*
X62146Y-39992D01*
X62147Y-40165D01*
X62185Y-40257D01*
X62255Y-40327D01*
X62346Y-40365D01*
X62445Y-40365D01*
X62638Y-40366D01*
X62700Y-40304D01*
X62700Y-41690D01*
X62365Y-41690D01*
X62365Y-41597D01*
X62327Y-41505D01*
X62257Y-41435D01*
X62166Y-41397D01*
X62104Y-41397D01*
X62104Y-39992D01*
X62104Y-39768D01*
X62103Y-39595D01*
X62103Y-38906D01*
X62103Y-38807D01*
X62103Y-38335D01*
X62065Y-38243D01*
X61995Y-38173D01*
X61904Y-38135D01*
X61810Y-38135D01*
X61810Y-37865D01*
X61903Y-37865D01*
X61995Y-37827D01*
X62065Y-37757D01*
X62103Y-37666D01*
X62103Y-37567D01*
X62103Y-37095D01*
X62065Y-37003D01*
X61995Y-36933D01*
X61904Y-36895D01*
X61805Y-36895D01*
X61097Y-36895D01*
X61005Y-36933D01*
X60935Y-37003D01*
X60897Y-37094D01*
X60897Y-37193D01*
X60897Y-37665D01*
X60935Y-37757D01*
X61005Y-37827D01*
X61096Y-37865D01*
X61190Y-37865D01*
X61190Y-38135D01*
X61097Y-38135D01*
X61005Y-38173D01*
X60935Y-38243D01*
X60897Y-38334D01*
X60897Y-38433D01*
X60897Y-38905D01*
X60935Y-38997D01*
X61005Y-39067D01*
X61096Y-39105D01*
X61195Y-39105D01*
X61903Y-39105D01*
X61995Y-39067D01*
X62065Y-38997D01*
X62103Y-38906D01*
X62103Y-39595D01*
X62065Y-39503D01*
X61995Y-39433D01*
X61904Y-39395D01*
X61805Y-39395D01*
X61612Y-39394D01*
X61550Y-39456D01*
X61550Y-39830D01*
X62042Y-39830D01*
X62104Y-39768D01*
X62104Y-39992D01*
X62042Y-39930D01*
X61550Y-39930D01*
X61550Y-40304D01*
X61612Y-40366D01*
X61805Y-40365D01*
X61904Y-40365D01*
X61995Y-40327D01*
X62065Y-40257D01*
X62103Y-40165D01*
X62104Y-39992D01*
X62104Y-41397D01*
X62067Y-41397D01*
X61595Y-41397D01*
X61503Y-41435D01*
X61450Y-41488D01*
X61450Y-40304D01*
X61450Y-39930D01*
X61450Y-39830D01*
X61450Y-39456D01*
X61388Y-39394D01*
X61195Y-39395D01*
X61096Y-39395D01*
X61005Y-39433D01*
X60935Y-39503D01*
X60897Y-39595D01*
X60896Y-39768D01*
X60958Y-39830D01*
X61450Y-39830D01*
X61450Y-39930D01*
X60958Y-39930D01*
X60896Y-39992D01*
X60897Y-40165D01*
X60935Y-40257D01*
X61005Y-40327D01*
X61096Y-40365D01*
X61195Y-40365D01*
X61388Y-40366D01*
X61450Y-40304D01*
X61450Y-41488D01*
X61433Y-41505D01*
X61395Y-41596D01*
X61395Y-41695D01*
X61395Y-42403D01*
X61433Y-42495D01*
X61503Y-42565D01*
X61594Y-42603D01*
X61693Y-42603D01*
X62165Y-42603D01*
X62257Y-42565D01*
X62327Y-42495D01*
X62365Y-42404D01*
X62365Y-42310D01*
X63121Y-42310D01*
X63190Y-42378D01*
X63190Y-42750D01*
X63214Y-42869D01*
X63281Y-42969D01*
X63501Y-43190D01*
X63378Y-43190D01*
X63219Y-43031D01*
X63119Y-42964D01*
X63000Y-42940D01*
X62365Y-42940D01*
X62365Y-42847D01*
X62327Y-42755D01*
X62257Y-42685D01*
X62166Y-42647D01*
X62067Y-42647D01*
X61595Y-42647D01*
X61503Y-42685D01*
X61433Y-42755D01*
X61395Y-42846D01*
X61395Y-42945D01*
X61395Y-43653D01*
X61433Y-43745D01*
X61503Y-43815D01*
X61594Y-43853D01*
X61693Y-43853D01*
X62165Y-43853D01*
X62257Y-43815D01*
X62327Y-43745D01*
X62365Y-43654D01*
X62365Y-43560D01*
X62871Y-43560D01*
X63030Y-43719D01*
X63031Y-43719D01*
X63077Y-43750D01*
X63031Y-43781D01*
X62622Y-44190D01*
X62365Y-44190D01*
X62365Y-44097D01*
X62327Y-44005D01*
X62257Y-43935D01*
X62166Y-43897D01*
X62067Y-43897D01*
X61595Y-43897D01*
X61503Y-43935D01*
X61433Y-44005D01*
X61395Y-44096D01*
X61395Y-44195D01*
X61395Y-44903D01*
X61433Y-44995D01*
X61503Y-45065D01*
X61594Y-45103D01*
X61693Y-45103D01*
X62165Y-45103D01*
X62257Y-45065D01*
X62327Y-44995D01*
X62365Y-44904D01*
X62365Y-44810D01*
X62750Y-44810D01*
X62868Y-44786D01*
X62869Y-44786D01*
X62969Y-44719D01*
X63378Y-44310D01*
X63501Y-44310D01*
X63281Y-44531D01*
X63214Y-44631D01*
X63190Y-44750D01*
X63190Y-45122D01*
X62872Y-45440D01*
X62365Y-45440D01*
X62365Y-45347D01*
X62327Y-45255D01*
X62257Y-45185D01*
X62166Y-45147D01*
X62067Y-45147D01*
X61595Y-45147D01*
X61503Y-45185D01*
X61433Y-45255D01*
X61395Y-45346D01*
X61395Y-45445D01*
X61395Y-46153D01*
X61433Y-46245D01*
X61503Y-46315D01*
X61594Y-46353D01*
X61693Y-46353D01*
X62165Y-46353D01*
X62257Y-46315D01*
X62327Y-46245D01*
X62365Y-46154D01*
X62365Y-46060D01*
X63000Y-46060D01*
X63118Y-46036D01*
X63119Y-46036D01*
X63219Y-45969D01*
X63719Y-45469D01*
X63786Y-45369D01*
X63786Y-45368D01*
X63810Y-45250D01*
X63810Y-44878D01*
X63878Y-44810D01*
X63891Y-44810D01*
X63883Y-44830D01*
X63883Y-44929D01*
X63883Y-45169D01*
X63916Y-45249D01*
X63883Y-45330D01*
X63883Y-45429D01*
X63883Y-45669D01*
X63921Y-45761D01*
X63991Y-45831D01*
X64082Y-45869D01*
X64127Y-45869D01*
X64127Y-46434D01*
X64121Y-46440D01*
X61105Y-46440D01*
X61105Y-46154D01*
X61105Y-46055D01*
X61105Y-45347D01*
X61105Y-44904D01*
X61105Y-44805D01*
X61105Y-44097D01*
X61105Y-43654D01*
X61105Y-43555D01*
X61105Y-42847D01*
X61105Y-42404D01*
X61105Y-42305D01*
X61105Y-41597D01*
X61067Y-41505D01*
X60997Y-41435D01*
X60906Y-41397D01*
X60807Y-41397D01*
X60335Y-41397D01*
X60243Y-41435D01*
X60173Y-41505D01*
X60135Y-41596D01*
X60135Y-41690D01*
X59615Y-41690D01*
X59615Y-41597D01*
X59577Y-41505D01*
X59507Y-41435D01*
X59416Y-41397D01*
X59317Y-41397D01*
X58845Y-41397D01*
X58753Y-41435D01*
X58683Y-41505D01*
X58645Y-41596D01*
X58645Y-41695D01*
X58645Y-42403D01*
X58683Y-42495D01*
X58753Y-42565D01*
X58844Y-42603D01*
X58943Y-42603D01*
X59415Y-42603D01*
X59507Y-42565D01*
X59577Y-42495D01*
X59615Y-42404D01*
X59615Y-42310D01*
X60135Y-42310D01*
X60135Y-42403D01*
X60173Y-42495D01*
X60243Y-42565D01*
X60334Y-42603D01*
X60433Y-42603D01*
X60905Y-42603D01*
X60997Y-42565D01*
X61067Y-42495D01*
X61105Y-42404D01*
X61105Y-42847D01*
X61067Y-42755D01*
X60997Y-42685D01*
X60906Y-42647D01*
X60807Y-42647D01*
X60335Y-42647D01*
X60243Y-42685D01*
X60173Y-42755D01*
X60135Y-42846D01*
X60135Y-42940D01*
X59615Y-42940D01*
X59615Y-42847D01*
X59577Y-42755D01*
X59507Y-42685D01*
X59416Y-42647D01*
X59317Y-42647D01*
X58845Y-42647D01*
X58753Y-42685D01*
X58683Y-42755D01*
X58645Y-42846D01*
X58645Y-42945D01*
X58645Y-43653D01*
X58683Y-43745D01*
X58753Y-43815D01*
X58844Y-43853D01*
X58943Y-43853D01*
X59415Y-43853D01*
X59507Y-43815D01*
X59577Y-43745D01*
X59615Y-43654D01*
X59615Y-43560D01*
X60135Y-43560D01*
X60135Y-43653D01*
X60173Y-43745D01*
X60243Y-43815D01*
X60334Y-43853D01*
X60433Y-43853D01*
X60905Y-43853D01*
X60997Y-43815D01*
X61067Y-43745D01*
X61105Y-43654D01*
X61105Y-44097D01*
X61067Y-44005D01*
X60997Y-43935D01*
X60906Y-43897D01*
X60807Y-43897D01*
X60335Y-43897D01*
X60243Y-43935D01*
X60173Y-44005D01*
X60135Y-44096D01*
X60135Y-44190D01*
X59615Y-44190D01*
X59615Y-44097D01*
X59577Y-44005D01*
X59507Y-43935D01*
X59416Y-43897D01*
X59317Y-43897D01*
X58845Y-43897D01*
X58753Y-43935D01*
X58683Y-44005D01*
X58645Y-44096D01*
X58645Y-44195D01*
X58645Y-44903D01*
X58683Y-44995D01*
X58753Y-45065D01*
X58844Y-45103D01*
X58943Y-45103D01*
X59415Y-45103D01*
X59507Y-45065D01*
X59577Y-44995D01*
X59615Y-44904D01*
X59615Y-44810D01*
X60135Y-44810D01*
X60135Y-44903D01*
X60173Y-44995D01*
X60243Y-45065D01*
X60334Y-45103D01*
X60433Y-45103D01*
X60905Y-45103D01*
X60997Y-45065D01*
X61067Y-44995D01*
X61105Y-44904D01*
X61105Y-45347D01*
X61067Y-45255D01*
X60997Y-45185D01*
X60906Y-45147D01*
X60807Y-45147D01*
X60335Y-45147D01*
X60243Y-45185D01*
X60173Y-45255D01*
X60135Y-45346D01*
X60135Y-45440D01*
X59615Y-45440D01*
X59615Y-45347D01*
X59577Y-45255D01*
X59507Y-45185D01*
X59416Y-45147D01*
X59317Y-45147D01*
X58845Y-45147D01*
X58753Y-45185D01*
X58683Y-45255D01*
X58645Y-45346D01*
X58645Y-45445D01*
X58645Y-46153D01*
X58683Y-46245D01*
X58753Y-46315D01*
X58844Y-46353D01*
X58943Y-46353D01*
X59415Y-46353D01*
X59507Y-46315D01*
X59577Y-46245D01*
X59615Y-46154D01*
X59615Y-46060D01*
X60135Y-46060D01*
X60135Y-46153D01*
X60173Y-46245D01*
X60243Y-46315D01*
X60334Y-46353D01*
X60433Y-46353D01*
X60905Y-46353D01*
X60997Y-46315D01*
X61067Y-46245D01*
X61105Y-46154D01*
X61105Y-46440D01*
X58356Y-46440D01*
X58356Y-45862D01*
X58356Y-45638D01*
X58356Y-44612D01*
X58356Y-44388D01*
X58356Y-43362D01*
X58356Y-43138D01*
X58356Y-42112D01*
X58356Y-41888D01*
X58355Y-41695D01*
X58355Y-41596D01*
X58317Y-41505D01*
X58247Y-41435D01*
X58155Y-41397D01*
X57982Y-41396D01*
X57920Y-41458D01*
X57920Y-41950D01*
X58294Y-41950D01*
X58356Y-41888D01*
X58356Y-42112D01*
X58294Y-42050D01*
X57920Y-42050D01*
X57920Y-42542D01*
X57982Y-42604D01*
X58155Y-42603D01*
X58247Y-42565D01*
X58317Y-42495D01*
X58355Y-42404D01*
X58355Y-42305D01*
X58356Y-42112D01*
X58356Y-43138D01*
X58355Y-42945D01*
X58355Y-42846D01*
X58317Y-42755D01*
X58247Y-42685D01*
X58155Y-42647D01*
X57982Y-42646D01*
X57920Y-42708D01*
X57920Y-43200D01*
X58294Y-43200D01*
X58356Y-43138D01*
X58356Y-43362D01*
X58294Y-43300D01*
X57920Y-43300D01*
X57920Y-43792D01*
X57982Y-43854D01*
X58155Y-43853D01*
X58247Y-43815D01*
X58317Y-43745D01*
X58355Y-43654D01*
X58355Y-43555D01*
X58356Y-43362D01*
X58356Y-44388D01*
X58355Y-44195D01*
X58355Y-44096D01*
X58317Y-44005D01*
X58247Y-43935D01*
X58155Y-43897D01*
X57982Y-43896D01*
X57920Y-43958D01*
X57920Y-44450D01*
X58294Y-44450D01*
X58356Y-44388D01*
X58356Y-44612D01*
X58294Y-44550D01*
X57920Y-44550D01*
X57920Y-45042D01*
X57982Y-45104D01*
X58155Y-45103D01*
X58247Y-45065D01*
X58317Y-44995D01*
X58355Y-44904D01*
X58355Y-44805D01*
X58356Y-44612D01*
X58356Y-45638D01*
X58355Y-45445D01*
X58355Y-45346D01*
X58317Y-45255D01*
X58247Y-45185D01*
X58155Y-45147D01*
X57982Y-45146D01*
X57920Y-45208D01*
X57920Y-45700D01*
X58294Y-45700D01*
X58356Y-45638D01*
X58356Y-45862D01*
X58294Y-45800D01*
X57920Y-45800D01*
X57920Y-46292D01*
X57982Y-46354D01*
X58155Y-46353D01*
X58247Y-46315D01*
X58317Y-46245D01*
X58355Y-46154D01*
X58355Y-46055D01*
X58356Y-45862D01*
X58356Y-46440D01*
X57820Y-46440D01*
X57820Y-46292D01*
X57820Y-45800D01*
X57820Y-45700D01*
X57820Y-45208D01*
X57820Y-45042D01*
X57820Y-44550D01*
X57820Y-44450D01*
X57820Y-43958D01*
X57820Y-43792D01*
X57820Y-43300D01*
X57820Y-43200D01*
X57820Y-42708D01*
X57820Y-42542D01*
X57820Y-42050D01*
X57820Y-41950D01*
X57820Y-41458D01*
X57758Y-41396D01*
X57585Y-41397D01*
X57493Y-41435D01*
X57423Y-41505D01*
X57385Y-41596D01*
X57385Y-41695D01*
X57384Y-41888D01*
X57446Y-41950D01*
X57820Y-41950D01*
X57820Y-42050D01*
X57446Y-42050D01*
X57384Y-42112D01*
X57385Y-42305D01*
X57385Y-42404D01*
X57423Y-42495D01*
X57493Y-42565D01*
X57585Y-42603D01*
X57758Y-42604D01*
X57820Y-42542D01*
X57820Y-42708D01*
X57758Y-42646D01*
X57585Y-42647D01*
X57493Y-42685D01*
X57423Y-42755D01*
X57385Y-42846D01*
X57385Y-42945D01*
X57384Y-43138D01*
X57446Y-43200D01*
X57820Y-43200D01*
X57820Y-43300D01*
X57446Y-43300D01*
X57384Y-43362D01*
X57385Y-43555D01*
X57385Y-43654D01*
X57423Y-43745D01*
X57493Y-43815D01*
X57585Y-43853D01*
X57758Y-43854D01*
X57820Y-43792D01*
X57820Y-43958D01*
X57758Y-43896D01*
X57585Y-43897D01*
X57493Y-43935D01*
X57423Y-44005D01*
X57385Y-44096D01*
X57385Y-44195D01*
X57384Y-44388D01*
X57446Y-44450D01*
X57820Y-44450D01*
X57820Y-44550D01*
X57446Y-44550D01*
X57384Y-44612D01*
X57385Y-44805D01*
X57385Y-44904D01*
X57423Y-44995D01*
X57493Y-45065D01*
X57585Y-45103D01*
X57758Y-45104D01*
X57820Y-45042D01*
X57820Y-45208D01*
X57758Y-45146D01*
X57585Y-45147D01*
X57493Y-45185D01*
X57423Y-45255D01*
X57385Y-45346D01*
X57385Y-45445D01*
X57384Y-45638D01*
X57446Y-45700D01*
X57820Y-45700D01*
X57820Y-45800D01*
X57446Y-45800D01*
X57384Y-45862D01*
X57385Y-46055D01*
X57385Y-46154D01*
X57423Y-46245D01*
X57493Y-46315D01*
X57585Y-46353D01*
X57758Y-46354D01*
X57820Y-46292D01*
X57820Y-46440D01*
X56099Y-46440D01*
X56115Y-46404D01*
X56115Y-46305D01*
X56116Y-46112D01*
X56116Y-45888D01*
X56115Y-45695D01*
X56115Y-45596D01*
X56077Y-45505D01*
X56007Y-45435D01*
X55915Y-45397D01*
X55742Y-45396D01*
X55680Y-45458D01*
X55680Y-45950D01*
X56054Y-45950D01*
X56116Y-45888D01*
X56116Y-46112D01*
X56054Y-46050D01*
X55730Y-46050D01*
X55680Y-46050D01*
X55580Y-46050D01*
X55530Y-46050D01*
X55206Y-46050D01*
X55144Y-46112D01*
X55145Y-46305D01*
X55145Y-46404D01*
X55160Y-46440D01*
X54839Y-46440D01*
X54855Y-46404D01*
X54855Y-46305D01*
X54855Y-46083D01*
X55144Y-45793D01*
X55144Y-45888D01*
X55206Y-45950D01*
X55580Y-45950D01*
X55580Y-45458D01*
X55518Y-45396D01*
X55345Y-45397D01*
X55310Y-45411D01*
X55310Y-45152D01*
X55371Y-45213D01*
X55462Y-45251D01*
X55561Y-45251D01*
X56111Y-45251D01*
X56203Y-45213D01*
X56273Y-45143D01*
X56311Y-45052D01*
X56311Y-44953D01*
X56311Y-43811D01*
X56284Y-43747D01*
X56309Y-43738D01*
X56471Y-43576D01*
X56559Y-43365D01*
X56559Y-43136D01*
X56472Y-42925D01*
X56310Y-42763D01*
X56284Y-42752D01*
X56311Y-42690D01*
X56311Y-42591D01*
X56311Y-41449D01*
X56273Y-41357D01*
X56203Y-41287D01*
X56112Y-41249D01*
X56013Y-41249D01*
X55563Y-41249D01*
X55937Y-40875D01*
X56795Y-40875D01*
X56915Y-40925D01*
X57084Y-40925D01*
X57205Y-40875D01*
X60000Y-40875D01*
X60143Y-40846D01*
X60144Y-40846D01*
X60265Y-40765D01*
X60765Y-40265D01*
X60846Y-40144D01*
X60846Y-40143D01*
X60875Y-40000D01*
X60875Y-36205D01*
X60897Y-36152D01*
X60897Y-36405D01*
X60935Y-36497D01*
X61005Y-36567D01*
X61096Y-36605D01*
X61195Y-36605D01*
X61903Y-36605D01*
X61995Y-36567D01*
X62065Y-36497D01*
X62103Y-36406D01*
X62103Y-36307D01*
X62103Y-35835D01*
X62065Y-35743D01*
X61995Y-35673D01*
X61904Y-35635D01*
X61810Y-35635D01*
X61810Y-34378D01*
X61849Y-34338D01*
X61875Y-34349D01*
X61974Y-34349D01*
X62424Y-34349D01*
X62516Y-34311D01*
X62586Y-34241D01*
X62624Y-34150D01*
X62624Y-34051D01*
X62624Y-33851D01*
X62586Y-33759D01*
X62577Y-33750D01*
X62586Y-33741D01*
X62624Y-33650D01*
X62624Y-33551D01*
X62624Y-33351D01*
X62586Y-33259D01*
X62577Y-33250D01*
X62586Y-33241D01*
X62624Y-33150D01*
X62624Y-33051D01*
X62624Y-32851D01*
X62586Y-32759D01*
X62577Y-32750D01*
X62586Y-32741D01*
X62624Y-32650D01*
X62624Y-32551D01*
X62624Y-32351D01*
X62586Y-32259D01*
X62577Y-32250D01*
X62586Y-32241D01*
X62624Y-32150D01*
X62624Y-32051D01*
X62624Y-31851D01*
X62586Y-31759D01*
X62577Y-31750D01*
X62586Y-31741D01*
X62624Y-31650D01*
X62624Y-31551D01*
X62624Y-31351D01*
X62607Y-31310D01*
X62621Y-31310D01*
X62690Y-31378D01*
X62690Y-34371D01*
X62531Y-34531D01*
X62464Y-34631D01*
X62440Y-34750D01*
X62440Y-35635D01*
X62347Y-35635D01*
X62255Y-35673D01*
X62185Y-35743D01*
X62147Y-35834D01*
X62147Y-35933D01*
X62147Y-36405D01*
X62185Y-36497D01*
X62255Y-36567D01*
X62346Y-36605D01*
X62445Y-36605D01*
X63153Y-36605D01*
X63245Y-36567D01*
X63315Y-36497D01*
X63353Y-36406D01*
X63353Y-36307D01*
X63353Y-35835D01*
X63315Y-35743D01*
X63245Y-35673D01*
X63154Y-35635D01*
X63060Y-35635D01*
X63060Y-34878D01*
X63219Y-34720D01*
X63219Y-34719D01*
X63250Y-34672D01*
X63281Y-34719D01*
X63440Y-34878D01*
X63440Y-35500D01*
X63464Y-35619D01*
X63502Y-35675D01*
X63435Y-35743D01*
X63397Y-35834D01*
X63397Y-35933D01*
X63397Y-36405D01*
X63435Y-36497D01*
X63505Y-36567D01*
X63596Y-36605D01*
X63695Y-36605D01*
X64403Y-36605D01*
X64495Y-36567D01*
X64565Y-36497D01*
X64603Y-36406D01*
X64603Y-36307D01*
X64603Y-35835D01*
X64565Y-35743D01*
X64495Y-35673D01*
X64404Y-35635D01*
X64305Y-35635D01*
X64286Y-35635D01*
X64286Y-35632D01*
X64286Y-35631D01*
X64252Y-35581D01*
X64219Y-35531D01*
X64219Y-35530D01*
X64060Y-35371D01*
X64060Y-34750D01*
X64036Y-34632D01*
X64036Y-34631D01*
X64002Y-34581D01*
X63969Y-34531D01*
X63969Y-34530D01*
X63810Y-34371D01*
X63810Y-34231D01*
X63814Y-34241D01*
X63884Y-34311D01*
X63975Y-34349D01*
X64074Y-34349D01*
X64524Y-34349D01*
X64616Y-34311D01*
X64617Y-34310D01*
X64871Y-34310D01*
X64940Y-34378D01*
X64940Y-34500D01*
X64940Y-35635D01*
X64847Y-35635D01*
X64755Y-35673D01*
X64685Y-35743D01*
X64647Y-35834D01*
X64647Y-35933D01*
X64647Y-36405D01*
X64685Y-36497D01*
X64755Y-36567D01*
X64846Y-36605D01*
X64945Y-36605D01*
X65653Y-36605D01*
X65745Y-36567D01*
X65815Y-36497D01*
X65853Y-36406D01*
X65853Y-36307D01*
X65853Y-35835D01*
X65815Y-35743D01*
X65745Y-35673D01*
X65654Y-35635D01*
X65560Y-35635D01*
X65560Y-34500D01*
X65560Y-34250D01*
X65536Y-34132D01*
X65536Y-34131D01*
X65502Y-34081D01*
X65469Y-34031D01*
X65469Y-34030D01*
X65248Y-33810D01*
X65622Y-33810D01*
X65901Y-34089D01*
X66001Y-34156D01*
X66002Y-34156D01*
X66120Y-34180D01*
X66157Y-34180D01*
X66185Y-34247D01*
X66255Y-34317D01*
X66346Y-34355D01*
X66445Y-34355D01*
X67153Y-34355D01*
X67245Y-34317D01*
X67315Y-34247D01*
X67353Y-34156D01*
X67353Y-34057D01*
X67353Y-33585D01*
X67315Y-33493D01*
X67245Y-33423D01*
X67154Y-33385D01*
X67060Y-33385D01*
X67060Y-33115D01*
X67153Y-33115D01*
X67245Y-33077D01*
X67315Y-33007D01*
X67353Y-32916D01*
X67353Y-32817D01*
X67353Y-32345D01*
X67331Y-32293D01*
X67368Y-32286D01*
X67369Y-32286D01*
X67469Y-32219D01*
X67719Y-31970D01*
X67719Y-31969D01*
X67752Y-31919D01*
X67786Y-31869D01*
X67786Y-31868D01*
X67809Y-31750D01*
X67810Y-31750D01*
X67810Y-31000D01*
X67786Y-30882D01*
X67786Y-30881D01*
X67752Y-30831D01*
X67719Y-30781D01*
X67719Y-30780D01*
X67469Y-30531D01*
X67416Y-30496D01*
X67416Y-30495D01*
X67444Y-30429D01*
X67445Y-30256D01*
X67383Y-30194D01*
X67059Y-30194D01*
X67009Y-30194D01*
X66909Y-30194D01*
X66859Y-30194D01*
X66535Y-30194D01*
X66473Y-30256D01*
X66474Y-30429D01*
X66478Y-30440D01*
X66250Y-30440D01*
X65989Y-30440D01*
X65989Y-30314D01*
X66023Y-30314D01*
X66115Y-30276D01*
X66185Y-30206D01*
X66223Y-30115D01*
X66223Y-30016D01*
X66223Y-29386D01*
X66185Y-29294D01*
X66179Y-29288D01*
X66302Y-29288D01*
X66423Y-29238D01*
X66474Y-29238D01*
X66474Y-29641D01*
X66512Y-29733D01*
X66529Y-29750D01*
X66512Y-29767D01*
X66474Y-29859D01*
X66473Y-30032D01*
X66535Y-30094D01*
X66859Y-30094D01*
X66909Y-30094D01*
X67009Y-30094D01*
X67059Y-30094D01*
X67383Y-30094D01*
X67445Y-30032D01*
X67444Y-29859D01*
X67406Y-29767D01*
X67389Y-29750D01*
X67406Y-29733D01*
X67444Y-29642D01*
X67444Y-29543D01*
X67444Y-29071D01*
X67406Y-28979D01*
X67336Y-28909D01*
X67317Y-28901D01*
X67316Y-28900D01*
X67305Y-28842D01*
X67305Y-28841D01*
X67264Y-28780D01*
X67224Y-28720D01*
X67224Y-28719D01*
X67102Y-28598D01*
X67067Y-28575D01*
X67217Y-28575D01*
X67506Y-28632D01*
X67722Y-28776D01*
X67867Y-28994D01*
X67925Y-29282D01*
X67925Y-46717D01*
M02*
