G04 (created by PCBNEW-RS274X (2011-05-25)-stable) date Sun 24 Mar 2013 20:47:49 CET*
G01*
G70*
G90*
%MOIN*%
G04 Gerber Fmt 3.4, Leading zero omitted, Abs format*
%FSLAX34Y34*%
G04 APERTURE LIST*
%ADD10C,0.006000*%
%ADD11C,0.015000*%
%ADD12R,0.035000X0.055000*%
%ADD13R,0.047200X0.070900*%
%ADD14R,0.019600X0.100000*%
%ADD15R,0.078700X0.098400*%
%ADD16R,0.017000X0.080000*%
%ADD17C,0.040000*%
%ADD18R,0.137700X0.062900*%
%ADD19R,0.055100X0.114200*%
%ADD20C,0.065000*%
%ADD21R,0.035000X0.024000*%
%ADD22R,0.055000X0.055000*%
%ADD23C,0.055000*%
%ADD24R,0.070900X0.047200*%
%ADD25C,0.035000*%
%ADD26C,0.012000*%
%ADD27C,0.025000*%
%ADD28C,0.010000*%
G04 APERTURE END LIST*
G54D10*
G54D11*
X67250Y-28250D02*
X49750Y-28250D01*
X68250Y-46750D02*
X68250Y-29250D01*
X68250Y-29250D02*
X68246Y-29163D01*
X68234Y-29077D01*
X68215Y-28992D01*
X68189Y-28908D01*
X68156Y-28828D01*
X68116Y-28751D01*
X68069Y-28677D01*
X68016Y-28608D01*
X67957Y-28543D01*
X67892Y-28484D01*
X67823Y-28431D01*
X67750Y-28384D01*
X67672Y-28344D01*
X67592Y-28311D01*
X67508Y-28285D01*
X67423Y-28266D01*
X67337Y-28254D01*
X67250Y-28250D01*
X50000Y-47750D02*
X67250Y-47750D01*
X48750Y-46500D02*
X48750Y-29250D01*
X48750Y-46500D02*
X48755Y-46608D01*
X48769Y-46717D01*
X48793Y-46823D01*
X48826Y-46927D01*
X48868Y-47028D01*
X48918Y-47124D01*
X48977Y-47216D01*
X49043Y-47303D01*
X49117Y-47383D01*
X49197Y-47457D01*
X49284Y-47523D01*
X49376Y-47582D01*
X49472Y-47632D01*
X49573Y-47674D01*
X49677Y-47707D01*
X49783Y-47731D01*
X49892Y-47745D01*
X50000Y-47750D01*
X67250Y-47750D02*
X67337Y-47746D01*
X67423Y-47734D01*
X67508Y-47715D01*
X67592Y-47689D01*
X67672Y-47656D01*
X67750Y-47616D01*
X67823Y-47569D01*
X67892Y-47516D01*
X67957Y-47457D01*
X68016Y-47392D01*
X68069Y-47323D01*
X68116Y-47249D01*
X68156Y-47172D01*
X68189Y-47092D01*
X68215Y-47008D01*
X68234Y-46923D01*
X68246Y-46837D01*
X68250Y-46750D01*
X49750Y-28250D02*
X49663Y-28254D01*
X49577Y-28266D01*
X49492Y-28285D01*
X49408Y-28311D01*
X49328Y-28344D01*
X49251Y-28384D01*
X49177Y-28431D01*
X49108Y-28484D01*
X49043Y-28543D01*
X48984Y-28608D01*
X48931Y-28677D01*
X48884Y-28751D01*
X48844Y-28828D01*
X48811Y-28908D01*
X48785Y-28992D01*
X48766Y-29077D01*
X48754Y-29163D01*
X48750Y-29250D01*
G54D12*
X50625Y-42250D03*
X51375Y-42250D03*
X50625Y-40500D03*
X51375Y-40500D03*
G54D13*
X62630Y-39250D03*
X61370Y-39250D03*
G54D14*
X58500Y-31774D03*
X58814Y-31774D03*
X57871Y-31774D03*
G54D15*
X60271Y-29569D03*
X60271Y-31734D03*
X56729Y-29569D03*
X56768Y-31734D03*
G54D16*
X58186Y-31750D03*
G54D17*
X59189Y-30750D03*
X57811Y-30750D03*
G54D14*
X59129Y-31774D03*
G54D18*
X66352Y-45500D03*
X64148Y-45500D03*
G54D19*
X50213Y-43819D03*
X51787Y-43819D03*
X50213Y-46181D03*
X51787Y-46181D03*
G54D20*
X50016Y-45000D03*
X51984Y-45000D03*
G54D19*
X50213Y-36569D03*
X51787Y-36569D03*
X50213Y-38931D03*
X51787Y-38931D03*
G54D20*
X50016Y-37750D03*
X51984Y-37750D03*
G54D19*
X65213Y-40069D03*
X66787Y-40069D03*
X65213Y-42431D03*
X66787Y-42431D03*
G54D20*
X65016Y-41250D03*
X66984Y-41250D03*
G54D21*
X54000Y-42125D03*
X54000Y-41375D03*
X55000Y-41750D03*
X65500Y-37875D03*
X65500Y-37125D03*
X66500Y-37500D03*
X57000Y-42125D03*
X57000Y-41375D03*
X58000Y-41750D03*
G54D22*
X55600Y-29550D03*
G54D23*
X55600Y-30550D03*
G54D13*
X62630Y-43000D03*
X61370Y-43000D03*
X62630Y-41250D03*
X61370Y-41250D03*
G54D24*
X57000Y-38380D03*
X57000Y-37120D03*
X57000Y-44370D03*
X57000Y-45630D03*
X55000Y-37120D03*
X55000Y-38380D03*
X55000Y-44370D03*
X55000Y-45630D03*
G54D20*
X54016Y-43250D03*
X55984Y-43250D03*
G54D25*
X66218Y-28863D03*
X60500Y-36000D03*
X61250Y-32500D03*
X57000Y-40500D03*
X53450Y-44400D03*
X67300Y-46550D03*
X66250Y-30400D03*
X65250Y-32500D03*
X59750Y-41250D03*
G54D26*
X59129Y-31774D02*
X59129Y-32129D01*
X59129Y-32129D02*
X59250Y-32250D01*
X59250Y-32250D02*
X59250Y-32500D01*
G54D27*
X59000Y-32750D02*
X59000Y-34000D01*
X59000Y-32750D02*
X59250Y-32500D01*
X61250Y-32500D02*
X60500Y-32500D01*
X62250Y-32500D02*
X61250Y-32500D01*
X60500Y-32500D02*
X59000Y-34000D01*
X65250Y-32500D02*
X65900Y-32500D01*
X66250Y-32150D02*
X66250Y-30400D01*
X65900Y-32500D02*
X66250Y-32150D01*
X49750Y-41400D02*
X50050Y-41400D01*
X49900Y-41400D02*
X49900Y-41550D01*
X50050Y-41400D02*
X49900Y-41400D01*
X50150Y-41375D02*
X50075Y-41375D01*
X50075Y-41375D02*
X49900Y-41550D01*
X49900Y-41550D02*
X49750Y-41700D01*
X54000Y-41375D02*
X50150Y-41375D01*
X50075Y-41375D02*
X49750Y-41050D01*
X59750Y-41250D02*
X57125Y-41250D01*
X57125Y-41250D02*
X57000Y-41375D01*
X57000Y-35000D02*
X57500Y-35000D01*
X57500Y-35000D02*
X58000Y-34500D01*
X65500Y-37125D02*
X59875Y-37125D01*
X59875Y-37125D02*
X59750Y-37250D01*
X58000Y-34000D02*
X58000Y-34500D01*
X61000Y-45500D02*
X64148Y-45500D01*
X59750Y-44250D02*
X61000Y-45500D01*
X59750Y-37250D02*
X59750Y-40000D01*
X59750Y-40000D02*
X59750Y-41250D01*
X59750Y-41250D02*
X59750Y-44250D01*
X59000Y-36500D02*
X59750Y-37250D01*
X58000Y-34500D02*
X59000Y-35500D01*
X59000Y-35500D02*
X59000Y-36500D01*
X50213Y-43819D02*
X50213Y-43463D01*
X49750Y-39394D02*
X50213Y-38931D01*
X49750Y-43000D02*
X49750Y-41700D01*
X49750Y-41700D02*
X49750Y-41400D01*
X49750Y-41400D02*
X49750Y-41250D01*
X49750Y-41250D02*
X49750Y-41050D01*
X49750Y-41050D02*
X49750Y-39394D01*
X50213Y-43463D02*
X49750Y-43000D01*
X58000Y-34000D02*
X58000Y-33250D01*
X57750Y-31895D02*
X57871Y-31774D01*
X57750Y-33000D02*
X57750Y-31895D01*
X58000Y-33250D02*
X57750Y-33000D01*
X50213Y-36569D02*
X50213Y-36037D01*
X51250Y-35000D02*
X57000Y-35000D01*
X50213Y-36037D02*
X51250Y-35000D01*
X50213Y-38931D02*
X50213Y-37947D01*
X50213Y-37947D02*
X50213Y-36569D01*
X50213Y-46181D02*
X50213Y-45197D01*
X50213Y-45197D02*
X50213Y-43819D01*
G54D26*
X51375Y-42250D02*
X52250Y-42250D01*
X52250Y-42250D02*
X52500Y-42500D01*
X51750Y-44750D02*
X51750Y-43856D01*
X51984Y-44984D02*
X51750Y-44750D01*
X51984Y-45000D02*
X51984Y-44984D01*
X51750Y-43856D02*
X51787Y-43819D01*
X51787Y-46181D02*
X51787Y-45197D01*
X51787Y-45197D02*
X51984Y-45000D01*
X52500Y-42500D02*
X52750Y-42250D01*
X53875Y-42125D02*
X54000Y-42125D01*
X53750Y-42250D02*
X53875Y-42125D01*
X52750Y-42250D02*
X53750Y-42250D01*
X51787Y-43819D02*
X52181Y-43819D01*
X52181Y-43819D02*
X52500Y-43500D01*
X52500Y-43500D02*
X52500Y-42500D01*
X57000Y-45630D02*
X57000Y-45250D01*
X55000Y-44750D02*
X55000Y-44370D01*
X55250Y-45000D02*
X55000Y-44750D01*
X56750Y-45000D02*
X55250Y-45000D01*
X57000Y-45250D02*
X56750Y-45000D01*
X55000Y-37120D02*
X57000Y-37120D01*
X62630Y-43000D02*
X62250Y-43000D01*
X61750Y-41250D02*
X61370Y-41250D01*
X62000Y-41500D02*
X61750Y-41250D01*
X62000Y-42750D02*
X62000Y-41500D01*
X62250Y-43000D02*
X62000Y-42750D01*
X66500Y-37500D02*
X60750Y-37500D01*
X60750Y-43000D02*
X61370Y-43000D01*
X60500Y-42750D02*
X60750Y-43000D01*
X60500Y-37750D02*
X60500Y-42750D01*
X60750Y-37500D02*
X60500Y-37750D01*
X62630Y-39250D02*
X64500Y-39250D01*
X65500Y-38250D02*
X65500Y-37875D01*
X65000Y-38750D02*
X65500Y-38250D01*
X64500Y-39250D02*
X65000Y-38750D01*
X50625Y-40500D02*
X50625Y-39875D01*
X50968Y-39750D02*
X51787Y-38931D01*
X50750Y-39750D02*
X50968Y-39750D01*
X50625Y-39875D02*
X50750Y-39750D01*
X51787Y-36569D02*
X54181Y-36569D01*
X56250Y-41375D02*
X57000Y-42125D01*
X56250Y-38000D02*
X56250Y-41375D01*
X56500Y-37750D02*
X56250Y-38000D01*
X57500Y-37750D02*
X56500Y-37750D01*
X57750Y-37500D02*
X57500Y-37750D01*
X57750Y-36500D02*
X57750Y-37500D01*
X57500Y-36250D02*
X57750Y-36500D01*
X54500Y-36250D02*
X57500Y-36250D01*
X54181Y-36569D02*
X54500Y-36250D01*
X51984Y-37750D02*
X51984Y-37734D01*
X51787Y-37537D02*
X51787Y-36569D01*
X51984Y-37734D02*
X51787Y-37537D01*
X51787Y-38931D02*
X51787Y-37947D01*
X51787Y-37947D02*
X51984Y-37750D01*
X53250Y-40250D02*
X53000Y-40500D01*
X53000Y-40500D02*
X51375Y-40500D01*
X54120Y-37750D02*
X54750Y-37750D01*
X53500Y-37750D02*
X53250Y-38000D01*
X53250Y-40250D02*
X53250Y-38000D01*
X54120Y-37750D02*
X53500Y-37750D01*
X55000Y-38000D02*
X55000Y-38380D01*
X54750Y-37750D02*
X55000Y-38000D01*
X53250Y-40250D02*
X53500Y-40500D01*
X55250Y-41750D02*
X55000Y-41750D01*
X55500Y-41500D02*
X55250Y-41750D01*
X55500Y-40750D02*
X55500Y-41500D01*
X55250Y-40500D02*
X55500Y-40750D01*
X53500Y-40500D02*
X55250Y-40500D01*
X55250Y-46500D02*
X54500Y-47250D01*
X50750Y-42375D02*
X50625Y-42250D01*
X50750Y-46500D02*
X50750Y-42375D01*
X51500Y-47250D02*
X50750Y-46500D01*
X54500Y-47250D02*
X51500Y-47250D01*
X55000Y-45630D02*
X55000Y-46250D01*
X58000Y-46250D02*
X58000Y-41750D01*
X57750Y-46500D02*
X58000Y-46250D01*
X55250Y-46500D02*
X57750Y-46500D01*
X55000Y-46250D02*
X55250Y-46500D01*
X66352Y-45500D02*
X66352Y-45102D01*
X65681Y-42431D02*
X65213Y-42431D01*
X66000Y-42750D02*
X65681Y-42431D01*
X66000Y-44750D02*
X66000Y-42750D01*
X66352Y-45102D02*
X66000Y-44750D01*
X65016Y-41250D02*
X65016Y-41234D01*
X65213Y-41037D02*
X65213Y-40069D01*
X65016Y-41234D02*
X65213Y-41037D01*
X65213Y-42431D02*
X65213Y-41447D01*
X65213Y-41447D02*
X65016Y-41250D01*
X61370Y-39250D02*
X61370Y-39870D01*
X61370Y-39870D02*
X61569Y-40069D01*
X61569Y-40069D02*
X65213Y-40069D01*
G54D10*
G36*
X57690Y-46121D02*
X57621Y-46190D01*
X57604Y-46190D01*
X55378Y-46190D01*
X55310Y-46121D01*
X55310Y-46115D01*
X55403Y-46115D01*
X55495Y-46077D01*
X55565Y-46007D01*
X55603Y-45916D01*
X55603Y-45817D01*
X55603Y-45345D01*
X55588Y-45310D01*
X56411Y-45310D01*
X56397Y-45344D01*
X56397Y-45443D01*
X56397Y-45915D01*
X56435Y-46007D01*
X56505Y-46077D01*
X56596Y-46115D01*
X56695Y-46115D01*
X57403Y-46115D01*
X57495Y-46077D01*
X57565Y-46007D01*
X57603Y-45916D01*
X57603Y-45817D01*
X57603Y-45345D01*
X57565Y-45253D01*
X57495Y-45183D01*
X57404Y-45145D01*
X57305Y-45145D01*
X57288Y-45145D01*
X57286Y-45132D01*
X57286Y-45131D01*
X57252Y-45081D01*
X57219Y-45031D01*
X57219Y-45030D01*
X57044Y-44856D01*
X57100Y-44856D01*
X57100Y-44844D01*
X57112Y-44856D01*
X57305Y-44855D01*
X57404Y-44855D01*
X57495Y-44817D01*
X57565Y-44747D01*
X57603Y-44655D01*
X57604Y-44482D01*
X57604Y-44258D01*
X57603Y-44085D01*
X57565Y-43993D01*
X57495Y-43923D01*
X57404Y-43885D01*
X57305Y-43885D01*
X57112Y-43884D01*
X57050Y-43946D01*
X57050Y-44320D01*
X57542Y-44320D01*
X57604Y-44258D01*
X57604Y-44482D01*
X57542Y-44420D01*
X57100Y-44420D01*
X57050Y-44420D01*
X56950Y-44420D01*
X56950Y-44320D01*
X56950Y-43946D01*
X56888Y-43884D01*
X56695Y-43885D01*
X56596Y-43885D01*
X56559Y-43900D01*
X56559Y-43365D01*
X56559Y-43136D01*
X56472Y-42925D01*
X56310Y-42763D01*
X56099Y-42675D01*
X55870Y-42675D01*
X55659Y-42762D01*
X55497Y-42924D01*
X55409Y-43135D01*
X55409Y-43364D01*
X55496Y-43575D01*
X55658Y-43737D01*
X55869Y-43825D01*
X56098Y-43825D01*
X56309Y-43738D01*
X56471Y-43576D01*
X56559Y-43365D01*
X56559Y-43900D01*
X56505Y-43923D01*
X56435Y-43993D01*
X56397Y-44085D01*
X56396Y-44258D01*
X56458Y-44320D01*
X56950Y-44320D01*
X56950Y-44420D01*
X56900Y-44420D01*
X56458Y-44420D01*
X56396Y-44482D01*
X56397Y-44655D01*
X56411Y-44690D01*
X55588Y-44690D01*
X55603Y-44656D01*
X55603Y-44557D01*
X55603Y-44085D01*
X55565Y-43993D01*
X55495Y-43923D01*
X55404Y-43885D01*
X55305Y-43885D01*
X54597Y-43885D01*
X54584Y-43890D01*
X54584Y-43334D01*
X54572Y-43111D01*
X54508Y-42954D01*
X54412Y-42925D01*
X54341Y-42996D01*
X54341Y-42854D01*
X54312Y-42758D01*
X54100Y-42682D01*
X53877Y-42694D01*
X53720Y-42758D01*
X53691Y-42854D01*
X54016Y-43179D01*
X54341Y-42854D01*
X54341Y-42996D01*
X54087Y-43250D01*
X54412Y-43575D01*
X54508Y-43546D01*
X54584Y-43334D01*
X54584Y-43890D01*
X54505Y-43923D01*
X54435Y-43993D01*
X54397Y-44084D01*
X54397Y-44183D01*
X54397Y-44655D01*
X54435Y-44747D01*
X54505Y-44817D01*
X54596Y-44855D01*
X54695Y-44855D01*
X54711Y-44855D01*
X54714Y-44869D01*
X54781Y-44969D01*
X54956Y-45145D01*
X54597Y-45145D01*
X54505Y-45183D01*
X54435Y-45253D01*
X54397Y-45344D01*
X54397Y-45443D01*
X54397Y-45915D01*
X54435Y-46007D01*
X54505Y-46077D01*
X54596Y-46115D01*
X54690Y-46115D01*
X54690Y-46250D01*
X54714Y-46369D01*
X54781Y-46469D01*
X54811Y-46499D01*
X54371Y-46940D01*
X54341Y-46940D01*
X54341Y-43646D01*
X54016Y-43321D01*
X53945Y-43392D01*
X53945Y-43250D01*
X53620Y-42925D01*
X53524Y-42954D01*
X53448Y-43166D01*
X53460Y-43389D01*
X53524Y-43546D01*
X53620Y-43575D01*
X53945Y-43250D01*
X53945Y-43392D01*
X53691Y-43646D01*
X53720Y-43742D01*
X53932Y-43818D01*
X54155Y-43806D01*
X54312Y-43742D01*
X54341Y-43646D01*
X54341Y-46940D01*
X52226Y-46940D01*
X52273Y-46893D01*
X52311Y-46802D01*
X52311Y-46703D01*
X52311Y-45561D01*
X52284Y-45497D01*
X52309Y-45488D01*
X52471Y-45326D01*
X52559Y-45115D01*
X52559Y-44886D01*
X52472Y-44675D01*
X52310Y-44513D01*
X52284Y-44502D01*
X52311Y-44440D01*
X52311Y-44341D01*
X52311Y-44097D01*
X52400Y-44038D01*
X52719Y-43719D01*
X52786Y-43619D01*
X52786Y-43618D01*
X52810Y-43500D01*
X52810Y-42628D01*
X52878Y-42560D01*
X53750Y-42560D01*
X53868Y-42536D01*
X53869Y-42536D01*
X53931Y-42494D01*
X54224Y-42494D01*
X54316Y-42456D01*
X54386Y-42386D01*
X54424Y-42295D01*
X54424Y-42196D01*
X54424Y-41956D01*
X54386Y-41864D01*
X54316Y-41794D01*
X54225Y-41756D01*
X54126Y-41756D01*
X53776Y-41756D01*
X53684Y-41794D01*
X53614Y-41864D01*
X53582Y-41940D01*
X52750Y-41940D01*
X52631Y-41964D01*
X52581Y-41997D01*
X52530Y-42031D01*
X52499Y-42061D01*
X52469Y-42031D01*
X52369Y-41964D01*
X52250Y-41940D01*
X51799Y-41940D01*
X51799Y-41926D01*
X51761Y-41834D01*
X51691Y-41764D01*
X51657Y-41750D01*
X54000Y-41750D01*
X54029Y-41744D01*
X54224Y-41744D01*
X54316Y-41706D01*
X54386Y-41636D01*
X54424Y-41545D01*
X54424Y-41446D01*
X54424Y-41206D01*
X54386Y-41114D01*
X54316Y-41044D01*
X54225Y-41006D01*
X54126Y-41006D01*
X54029Y-41006D01*
X54000Y-41000D01*
X51657Y-41000D01*
X51691Y-40986D01*
X51761Y-40916D01*
X51799Y-40825D01*
X51799Y-40810D01*
X53000Y-40810D01*
X53118Y-40786D01*
X53119Y-40786D01*
X53219Y-40719D01*
X53249Y-40688D01*
X53280Y-40719D01*
X53281Y-40719D01*
X53331Y-40752D01*
X53381Y-40786D01*
X53382Y-40786D01*
X53500Y-40810D01*
X55121Y-40810D01*
X55190Y-40878D01*
X55190Y-41371D01*
X55180Y-41381D01*
X55126Y-41381D01*
X54776Y-41381D01*
X54684Y-41419D01*
X54614Y-41489D01*
X54576Y-41580D01*
X54576Y-41679D01*
X54576Y-41919D01*
X54614Y-42011D01*
X54684Y-42081D01*
X54775Y-42119D01*
X54874Y-42119D01*
X55224Y-42119D01*
X55316Y-42081D01*
X55358Y-42038D01*
X55359Y-42037D01*
X55368Y-42036D01*
X55369Y-42036D01*
X55469Y-41969D01*
X55719Y-41720D01*
X55719Y-41719D01*
X55752Y-41669D01*
X55786Y-41619D01*
X55786Y-41618D01*
X55809Y-41500D01*
X55810Y-41500D01*
X55810Y-40750D01*
X55786Y-40632D01*
X55786Y-40631D01*
X55752Y-40581D01*
X55719Y-40531D01*
X55719Y-40530D01*
X55469Y-40281D01*
X55369Y-40214D01*
X55250Y-40190D01*
X53628Y-40190D01*
X53560Y-40121D01*
X53560Y-38128D01*
X53628Y-38060D01*
X54120Y-38060D01*
X54411Y-38060D01*
X54397Y-38094D01*
X54397Y-38193D01*
X54397Y-38665D01*
X54435Y-38757D01*
X54505Y-38827D01*
X54596Y-38865D01*
X54695Y-38865D01*
X55403Y-38865D01*
X55495Y-38827D01*
X55565Y-38757D01*
X55603Y-38666D01*
X55603Y-38567D01*
X55603Y-38095D01*
X55565Y-38003D01*
X55495Y-37933D01*
X55404Y-37895D01*
X55305Y-37895D01*
X55288Y-37895D01*
X55286Y-37882D01*
X55286Y-37881D01*
X55252Y-37831D01*
X55219Y-37781D01*
X55219Y-37780D01*
X55043Y-37605D01*
X55403Y-37605D01*
X55495Y-37567D01*
X55565Y-37497D01*
X55592Y-37430D01*
X56407Y-37430D01*
X56418Y-37456D01*
X56381Y-37464D01*
X56331Y-37497D01*
X56280Y-37531D01*
X56031Y-37781D01*
X55964Y-37881D01*
X55940Y-38000D01*
X55940Y-41375D01*
X55964Y-41494D01*
X56031Y-41594D01*
X56576Y-42139D01*
X56576Y-42294D01*
X56614Y-42386D01*
X56684Y-42456D01*
X56775Y-42494D01*
X56874Y-42494D01*
X57224Y-42494D01*
X57316Y-42456D01*
X57386Y-42386D01*
X57424Y-42295D01*
X57424Y-42196D01*
X57424Y-41956D01*
X57386Y-41864D01*
X57316Y-41794D01*
X57225Y-41756D01*
X57126Y-41756D01*
X57069Y-41756D01*
X57057Y-41744D01*
X57224Y-41744D01*
X57316Y-41706D01*
X57386Y-41636D01*
X57390Y-41625D01*
X57576Y-41625D01*
X57576Y-41679D01*
X57576Y-41919D01*
X57614Y-42011D01*
X57684Y-42081D01*
X57690Y-42083D01*
X57690Y-46121D01*
X57690Y-46121D01*
G37*
G54D28*
X57690Y-46121D02*
X57621Y-46190D01*
X57604Y-46190D01*
X55378Y-46190D01*
X55310Y-46121D01*
X55310Y-46115D01*
X55403Y-46115D01*
X55495Y-46077D01*
X55565Y-46007D01*
X55603Y-45916D01*
X55603Y-45817D01*
X55603Y-45345D01*
X55588Y-45310D01*
X56411Y-45310D01*
X56397Y-45344D01*
X56397Y-45443D01*
X56397Y-45915D01*
X56435Y-46007D01*
X56505Y-46077D01*
X56596Y-46115D01*
X56695Y-46115D01*
X57403Y-46115D01*
X57495Y-46077D01*
X57565Y-46007D01*
X57603Y-45916D01*
X57603Y-45817D01*
X57603Y-45345D01*
X57565Y-45253D01*
X57495Y-45183D01*
X57404Y-45145D01*
X57305Y-45145D01*
X57288Y-45145D01*
X57286Y-45132D01*
X57286Y-45131D01*
X57252Y-45081D01*
X57219Y-45031D01*
X57219Y-45030D01*
X57044Y-44856D01*
X57100Y-44856D01*
X57100Y-44844D01*
X57112Y-44856D01*
X57305Y-44855D01*
X57404Y-44855D01*
X57495Y-44817D01*
X57565Y-44747D01*
X57603Y-44655D01*
X57604Y-44482D01*
X57604Y-44258D01*
X57603Y-44085D01*
X57565Y-43993D01*
X57495Y-43923D01*
X57404Y-43885D01*
X57305Y-43885D01*
X57112Y-43884D01*
X57050Y-43946D01*
X57050Y-44320D01*
X57542Y-44320D01*
X57604Y-44258D01*
X57604Y-44482D01*
X57542Y-44420D01*
X57100Y-44420D01*
X57050Y-44420D01*
X56950Y-44420D01*
X56950Y-44320D01*
X56950Y-43946D01*
X56888Y-43884D01*
X56695Y-43885D01*
X56596Y-43885D01*
X56559Y-43900D01*
X56559Y-43365D01*
X56559Y-43136D01*
X56472Y-42925D01*
X56310Y-42763D01*
X56099Y-42675D01*
X55870Y-42675D01*
X55659Y-42762D01*
X55497Y-42924D01*
X55409Y-43135D01*
X55409Y-43364D01*
X55496Y-43575D01*
X55658Y-43737D01*
X55869Y-43825D01*
X56098Y-43825D01*
X56309Y-43738D01*
X56471Y-43576D01*
X56559Y-43365D01*
X56559Y-43900D01*
X56505Y-43923D01*
X56435Y-43993D01*
X56397Y-44085D01*
X56396Y-44258D01*
X56458Y-44320D01*
X56950Y-44320D01*
X56950Y-44420D01*
X56900Y-44420D01*
X56458Y-44420D01*
X56396Y-44482D01*
X56397Y-44655D01*
X56411Y-44690D01*
X55588Y-44690D01*
X55603Y-44656D01*
X55603Y-44557D01*
X55603Y-44085D01*
X55565Y-43993D01*
X55495Y-43923D01*
X55404Y-43885D01*
X55305Y-43885D01*
X54597Y-43885D01*
X54584Y-43890D01*
X54584Y-43334D01*
X54572Y-43111D01*
X54508Y-42954D01*
X54412Y-42925D01*
X54341Y-42996D01*
X54341Y-42854D01*
X54312Y-42758D01*
X54100Y-42682D01*
X53877Y-42694D01*
X53720Y-42758D01*
X53691Y-42854D01*
X54016Y-43179D01*
X54341Y-42854D01*
X54341Y-42996D01*
X54087Y-43250D01*
X54412Y-43575D01*
X54508Y-43546D01*
X54584Y-43334D01*
X54584Y-43890D01*
X54505Y-43923D01*
X54435Y-43993D01*
X54397Y-44084D01*
X54397Y-44183D01*
X54397Y-44655D01*
X54435Y-44747D01*
X54505Y-44817D01*
X54596Y-44855D01*
X54695Y-44855D01*
X54711Y-44855D01*
X54714Y-44869D01*
X54781Y-44969D01*
X54956Y-45145D01*
X54597Y-45145D01*
X54505Y-45183D01*
X54435Y-45253D01*
X54397Y-45344D01*
X54397Y-45443D01*
X54397Y-45915D01*
X54435Y-46007D01*
X54505Y-46077D01*
X54596Y-46115D01*
X54690Y-46115D01*
X54690Y-46250D01*
X54714Y-46369D01*
X54781Y-46469D01*
X54811Y-46499D01*
X54371Y-46940D01*
X54341Y-46940D01*
X54341Y-43646D01*
X54016Y-43321D01*
X53945Y-43392D01*
X53945Y-43250D01*
X53620Y-42925D01*
X53524Y-42954D01*
X53448Y-43166D01*
X53460Y-43389D01*
X53524Y-43546D01*
X53620Y-43575D01*
X53945Y-43250D01*
X53945Y-43392D01*
X53691Y-43646D01*
X53720Y-43742D01*
X53932Y-43818D01*
X54155Y-43806D01*
X54312Y-43742D01*
X54341Y-43646D01*
X54341Y-46940D01*
X52226Y-46940D01*
X52273Y-46893D01*
X52311Y-46802D01*
X52311Y-46703D01*
X52311Y-45561D01*
X52284Y-45497D01*
X52309Y-45488D01*
X52471Y-45326D01*
X52559Y-45115D01*
X52559Y-44886D01*
X52472Y-44675D01*
X52310Y-44513D01*
X52284Y-44502D01*
X52311Y-44440D01*
X52311Y-44341D01*
X52311Y-44097D01*
X52400Y-44038D01*
X52719Y-43719D01*
X52786Y-43619D01*
X52786Y-43618D01*
X52810Y-43500D01*
X52810Y-42628D01*
X52878Y-42560D01*
X53750Y-42560D01*
X53868Y-42536D01*
X53869Y-42536D01*
X53931Y-42494D01*
X54224Y-42494D01*
X54316Y-42456D01*
X54386Y-42386D01*
X54424Y-42295D01*
X54424Y-42196D01*
X54424Y-41956D01*
X54386Y-41864D01*
X54316Y-41794D01*
X54225Y-41756D01*
X54126Y-41756D01*
X53776Y-41756D01*
X53684Y-41794D01*
X53614Y-41864D01*
X53582Y-41940D01*
X52750Y-41940D01*
X52631Y-41964D01*
X52581Y-41997D01*
X52530Y-42031D01*
X52499Y-42061D01*
X52469Y-42031D01*
X52369Y-41964D01*
X52250Y-41940D01*
X51799Y-41940D01*
X51799Y-41926D01*
X51761Y-41834D01*
X51691Y-41764D01*
X51657Y-41750D01*
X54000Y-41750D01*
X54029Y-41744D01*
X54224Y-41744D01*
X54316Y-41706D01*
X54386Y-41636D01*
X54424Y-41545D01*
X54424Y-41446D01*
X54424Y-41206D01*
X54386Y-41114D01*
X54316Y-41044D01*
X54225Y-41006D01*
X54126Y-41006D01*
X54029Y-41006D01*
X54000Y-41000D01*
X51657Y-41000D01*
X51691Y-40986D01*
X51761Y-40916D01*
X51799Y-40825D01*
X51799Y-40810D01*
X53000Y-40810D01*
X53118Y-40786D01*
X53119Y-40786D01*
X53219Y-40719D01*
X53249Y-40688D01*
X53280Y-40719D01*
X53281Y-40719D01*
X53331Y-40752D01*
X53381Y-40786D01*
X53382Y-40786D01*
X53500Y-40810D01*
X55121Y-40810D01*
X55190Y-40878D01*
X55190Y-41371D01*
X55180Y-41381D01*
X55126Y-41381D01*
X54776Y-41381D01*
X54684Y-41419D01*
X54614Y-41489D01*
X54576Y-41580D01*
X54576Y-41679D01*
X54576Y-41919D01*
X54614Y-42011D01*
X54684Y-42081D01*
X54775Y-42119D01*
X54874Y-42119D01*
X55224Y-42119D01*
X55316Y-42081D01*
X55358Y-42038D01*
X55359Y-42037D01*
X55368Y-42036D01*
X55369Y-42036D01*
X55469Y-41969D01*
X55719Y-41720D01*
X55719Y-41719D01*
X55752Y-41669D01*
X55786Y-41619D01*
X55786Y-41618D01*
X55809Y-41500D01*
X55810Y-41500D01*
X55810Y-40750D01*
X55786Y-40632D01*
X55786Y-40631D01*
X55752Y-40581D01*
X55719Y-40531D01*
X55719Y-40530D01*
X55469Y-40281D01*
X55369Y-40214D01*
X55250Y-40190D01*
X53628Y-40190D01*
X53560Y-40121D01*
X53560Y-38128D01*
X53628Y-38060D01*
X54120Y-38060D01*
X54411Y-38060D01*
X54397Y-38094D01*
X54397Y-38193D01*
X54397Y-38665D01*
X54435Y-38757D01*
X54505Y-38827D01*
X54596Y-38865D01*
X54695Y-38865D01*
X55403Y-38865D01*
X55495Y-38827D01*
X55565Y-38757D01*
X55603Y-38666D01*
X55603Y-38567D01*
X55603Y-38095D01*
X55565Y-38003D01*
X55495Y-37933D01*
X55404Y-37895D01*
X55305Y-37895D01*
X55288Y-37895D01*
X55286Y-37882D01*
X55286Y-37881D01*
X55252Y-37831D01*
X55219Y-37781D01*
X55219Y-37780D01*
X55043Y-37605D01*
X55403Y-37605D01*
X55495Y-37567D01*
X55565Y-37497D01*
X55592Y-37430D01*
X56407Y-37430D01*
X56418Y-37456D01*
X56381Y-37464D01*
X56331Y-37497D01*
X56280Y-37531D01*
X56031Y-37781D01*
X55964Y-37881D01*
X55940Y-38000D01*
X55940Y-41375D01*
X55964Y-41494D01*
X56031Y-41594D01*
X56576Y-42139D01*
X56576Y-42294D01*
X56614Y-42386D01*
X56684Y-42456D01*
X56775Y-42494D01*
X56874Y-42494D01*
X57224Y-42494D01*
X57316Y-42456D01*
X57386Y-42386D01*
X57424Y-42295D01*
X57424Y-42196D01*
X57424Y-41956D01*
X57386Y-41864D01*
X57316Y-41794D01*
X57225Y-41756D01*
X57126Y-41756D01*
X57069Y-41756D01*
X57057Y-41744D01*
X57224Y-41744D01*
X57316Y-41706D01*
X57386Y-41636D01*
X57390Y-41625D01*
X57576Y-41625D01*
X57576Y-41679D01*
X57576Y-41919D01*
X57614Y-42011D01*
X57684Y-42081D01*
X57690Y-42083D01*
X57690Y-46121D01*
G54D10*
G36*
X59375Y-40875D02*
X57604Y-40875D01*
X57604Y-38492D01*
X57542Y-38430D01*
X57050Y-38430D01*
X57050Y-38804D01*
X57112Y-38866D01*
X57305Y-38865D01*
X57404Y-38865D01*
X57495Y-38827D01*
X57565Y-38757D01*
X57603Y-38665D01*
X57604Y-38492D01*
X57604Y-40875D01*
X57125Y-40875D01*
X56981Y-40904D01*
X56920Y-40944D01*
X56859Y-40985D01*
X56838Y-41006D01*
X56776Y-41006D01*
X56684Y-41044D01*
X56614Y-41114D01*
X56576Y-41205D01*
X56576Y-41262D01*
X56560Y-41246D01*
X56560Y-38849D01*
X56596Y-38865D01*
X56695Y-38865D01*
X56888Y-38866D01*
X56950Y-38804D01*
X56950Y-38480D01*
X56950Y-38430D01*
X56950Y-38330D01*
X57050Y-38330D01*
X57100Y-38330D01*
X57542Y-38330D01*
X57604Y-38268D01*
X57603Y-38095D01*
X57581Y-38043D01*
X57618Y-38036D01*
X57619Y-38036D01*
X57719Y-37969D01*
X57969Y-37720D01*
X57969Y-37719D01*
X58002Y-37669D01*
X58036Y-37619D01*
X58036Y-37618D01*
X58059Y-37500D01*
X58060Y-37500D01*
X58060Y-36500D01*
X58036Y-36382D01*
X58036Y-36381D01*
X58002Y-36331D01*
X57969Y-36281D01*
X57969Y-36280D01*
X57719Y-36031D01*
X57619Y-35964D01*
X57500Y-35940D01*
X54500Y-35940D01*
X54381Y-35964D01*
X54281Y-36031D01*
X54053Y-36259D01*
X52311Y-36259D01*
X52311Y-35949D01*
X52273Y-35857D01*
X52203Y-35787D01*
X52112Y-35749D01*
X52013Y-35749D01*
X51463Y-35749D01*
X51371Y-35787D01*
X51301Y-35857D01*
X51263Y-35948D01*
X51263Y-36047D01*
X51263Y-37189D01*
X51301Y-37281D01*
X51371Y-37351D01*
X51462Y-37389D01*
X51477Y-37389D01*
X51477Y-37471D01*
X51409Y-37635D01*
X51409Y-37864D01*
X51477Y-38028D01*
X51477Y-38111D01*
X51463Y-38111D01*
X51371Y-38149D01*
X51301Y-38219D01*
X51263Y-38310D01*
X51263Y-38409D01*
X51263Y-39017D01*
X50840Y-39440D01*
X50750Y-39440D01*
X50737Y-39442D01*
X50737Y-38311D01*
X50699Y-38219D01*
X50629Y-38149D01*
X50588Y-38131D01*
X50588Y-37947D01*
X50588Y-37872D01*
X50591Y-37865D01*
X50591Y-37636D01*
X50588Y-37628D01*
X50588Y-37367D01*
X50629Y-37351D01*
X50699Y-37281D01*
X50737Y-37190D01*
X50737Y-37091D01*
X50737Y-36043D01*
X51405Y-35375D01*
X57000Y-35375D01*
X57500Y-35375D01*
X57643Y-35346D01*
X57644Y-35346D01*
X57765Y-35265D01*
X58000Y-35030D01*
X58625Y-35655D01*
X58625Y-36500D01*
X58654Y-36644D01*
X58735Y-36765D01*
X59375Y-37405D01*
X59375Y-40000D01*
X59375Y-40875D01*
X59375Y-40875D01*
G37*
G54D28*
X59375Y-40875D02*
X57604Y-40875D01*
X57604Y-38492D01*
X57542Y-38430D01*
X57050Y-38430D01*
X57050Y-38804D01*
X57112Y-38866D01*
X57305Y-38865D01*
X57404Y-38865D01*
X57495Y-38827D01*
X57565Y-38757D01*
X57603Y-38665D01*
X57604Y-38492D01*
X57604Y-40875D01*
X57125Y-40875D01*
X56981Y-40904D01*
X56920Y-40944D01*
X56859Y-40985D01*
X56838Y-41006D01*
X56776Y-41006D01*
X56684Y-41044D01*
X56614Y-41114D01*
X56576Y-41205D01*
X56576Y-41262D01*
X56560Y-41246D01*
X56560Y-38849D01*
X56596Y-38865D01*
X56695Y-38865D01*
X56888Y-38866D01*
X56950Y-38804D01*
X56950Y-38480D01*
X56950Y-38430D01*
X56950Y-38330D01*
X57050Y-38330D01*
X57100Y-38330D01*
X57542Y-38330D01*
X57604Y-38268D01*
X57603Y-38095D01*
X57581Y-38043D01*
X57618Y-38036D01*
X57619Y-38036D01*
X57719Y-37969D01*
X57969Y-37720D01*
X57969Y-37719D01*
X58002Y-37669D01*
X58036Y-37619D01*
X58036Y-37618D01*
X58059Y-37500D01*
X58060Y-37500D01*
X58060Y-36500D01*
X58036Y-36382D01*
X58036Y-36381D01*
X58002Y-36331D01*
X57969Y-36281D01*
X57969Y-36280D01*
X57719Y-36031D01*
X57619Y-35964D01*
X57500Y-35940D01*
X54500Y-35940D01*
X54381Y-35964D01*
X54281Y-36031D01*
X54053Y-36259D01*
X52311Y-36259D01*
X52311Y-35949D01*
X52273Y-35857D01*
X52203Y-35787D01*
X52112Y-35749D01*
X52013Y-35749D01*
X51463Y-35749D01*
X51371Y-35787D01*
X51301Y-35857D01*
X51263Y-35948D01*
X51263Y-36047D01*
X51263Y-37189D01*
X51301Y-37281D01*
X51371Y-37351D01*
X51462Y-37389D01*
X51477Y-37389D01*
X51477Y-37471D01*
X51409Y-37635D01*
X51409Y-37864D01*
X51477Y-38028D01*
X51477Y-38111D01*
X51463Y-38111D01*
X51371Y-38149D01*
X51301Y-38219D01*
X51263Y-38310D01*
X51263Y-38409D01*
X51263Y-39017D01*
X50840Y-39440D01*
X50750Y-39440D01*
X50737Y-39442D01*
X50737Y-38311D01*
X50699Y-38219D01*
X50629Y-38149D01*
X50588Y-38131D01*
X50588Y-37947D01*
X50588Y-37872D01*
X50591Y-37865D01*
X50591Y-37636D01*
X50588Y-37628D01*
X50588Y-37367D01*
X50629Y-37351D01*
X50699Y-37281D01*
X50737Y-37190D01*
X50737Y-37091D01*
X50737Y-36043D01*
X51405Y-35375D01*
X57000Y-35375D01*
X57500Y-35375D01*
X57643Y-35346D01*
X57644Y-35346D01*
X57765Y-35265D01*
X58000Y-35030D01*
X58625Y-35655D01*
X58625Y-36500D01*
X58654Y-36644D01*
X58735Y-36765D01*
X59375Y-37405D01*
X59375Y-40000D01*
X59375Y-40875D01*
G54D10*
G36*
X67925Y-46717D02*
X67867Y-47005D01*
X67722Y-47223D01*
X67552Y-47336D01*
X67552Y-41334D01*
X67540Y-41111D01*
X67476Y-40954D01*
X67380Y-40925D01*
X67312Y-40993D01*
X67055Y-41250D01*
X67380Y-41575D01*
X67476Y-41546D01*
X67552Y-41334D01*
X67552Y-47336D01*
X67506Y-47367D01*
X67312Y-47405D01*
X67312Y-42543D01*
X67312Y-42319D01*
X67311Y-41811D01*
X67281Y-41738D01*
X67309Y-41646D01*
X67019Y-41356D01*
X66984Y-41321D01*
X66913Y-41250D01*
X66984Y-41179D01*
X67019Y-41144D01*
X67309Y-40854D01*
X67281Y-40761D01*
X67311Y-40689D01*
X67312Y-40181D01*
X67312Y-39957D01*
X67311Y-39449D01*
X67273Y-39357D01*
X67203Y-39287D01*
X67112Y-39249D01*
X67013Y-39249D01*
X66899Y-39248D01*
X66837Y-39310D01*
X66837Y-40019D01*
X67250Y-40019D01*
X67312Y-39957D01*
X67312Y-40181D01*
X67250Y-40119D01*
X66887Y-40119D01*
X66837Y-40119D01*
X66737Y-40119D01*
X66737Y-40019D01*
X66737Y-39310D01*
X66675Y-39248D01*
X66561Y-39249D01*
X66462Y-39249D01*
X66371Y-39287D01*
X66301Y-39357D01*
X66263Y-39449D01*
X66262Y-39957D01*
X66324Y-40019D01*
X66737Y-40019D01*
X66737Y-40119D01*
X66687Y-40119D01*
X66324Y-40119D01*
X66262Y-40181D01*
X66263Y-40689D01*
X66301Y-40781D01*
X66371Y-40851D01*
X66462Y-40889D01*
X66518Y-40889D01*
X66500Y-40907D01*
X66534Y-40941D01*
X66492Y-40954D01*
X66416Y-41166D01*
X66428Y-41389D01*
X66492Y-41546D01*
X66534Y-41558D01*
X66500Y-41593D01*
X66518Y-41611D01*
X66462Y-41611D01*
X66371Y-41649D01*
X66301Y-41719D01*
X66263Y-41811D01*
X66262Y-42319D01*
X66324Y-42381D01*
X66687Y-42381D01*
X66737Y-42381D01*
X66837Y-42381D01*
X66887Y-42381D01*
X67250Y-42381D01*
X67312Y-42319D01*
X67312Y-42543D01*
X67250Y-42481D01*
X66837Y-42481D01*
X66837Y-43190D01*
X66899Y-43252D01*
X67013Y-43251D01*
X67112Y-43251D01*
X67203Y-43213D01*
X67273Y-43143D01*
X67311Y-43051D01*
X67312Y-42543D01*
X67312Y-47405D01*
X67217Y-47425D01*
X54763Y-47425D01*
X55378Y-46810D01*
X57750Y-46810D01*
X57868Y-46786D01*
X57869Y-46786D01*
X57969Y-46719D01*
X58219Y-46470D01*
X58219Y-46469D01*
X58252Y-46419D01*
X58286Y-46369D01*
X58286Y-46368D01*
X58309Y-46250D01*
X58310Y-46250D01*
X58310Y-42083D01*
X58316Y-42081D01*
X58386Y-42011D01*
X58424Y-41920D01*
X58424Y-41821D01*
X58424Y-41625D01*
X59375Y-41625D01*
X59375Y-44250D01*
X59404Y-44394D01*
X59485Y-44515D01*
X60734Y-45765D01*
X60735Y-45765D01*
X60795Y-45805D01*
X60856Y-45846D01*
X60857Y-45846D01*
X60999Y-45874D01*
X61000Y-45875D01*
X63215Y-45875D01*
X63249Y-45955D01*
X63319Y-46025D01*
X63410Y-46063D01*
X63509Y-46063D01*
X64885Y-46063D01*
X64977Y-46025D01*
X65047Y-45955D01*
X65085Y-45864D01*
X65085Y-45765D01*
X65085Y-45137D01*
X65047Y-45045D01*
X64977Y-44975D01*
X64886Y-44937D01*
X64787Y-44937D01*
X63411Y-44937D01*
X63319Y-44975D01*
X63249Y-45045D01*
X63215Y-45125D01*
X63116Y-45125D01*
X63116Y-41362D01*
X63116Y-41138D01*
X63115Y-40945D01*
X63115Y-40846D01*
X63077Y-40755D01*
X63007Y-40685D01*
X62915Y-40647D01*
X62742Y-40646D01*
X62680Y-40708D01*
X62680Y-41200D01*
X63054Y-41200D01*
X63116Y-41138D01*
X63116Y-41362D01*
X63054Y-41300D01*
X62680Y-41300D01*
X62680Y-41792D01*
X62742Y-41854D01*
X62915Y-41853D01*
X63007Y-41815D01*
X63077Y-41745D01*
X63115Y-41654D01*
X63115Y-41555D01*
X63116Y-41362D01*
X63116Y-45125D01*
X61155Y-45125D01*
X60125Y-44094D01*
X60125Y-41455D01*
X60175Y-41335D01*
X60175Y-41166D01*
X60125Y-41044D01*
X60125Y-40000D01*
X60125Y-37500D01*
X60311Y-37500D01*
X60281Y-37531D01*
X60214Y-37631D01*
X60190Y-37750D01*
X60190Y-42750D01*
X60214Y-42869D01*
X60281Y-42969D01*
X60530Y-43219D01*
X60531Y-43219D01*
X60581Y-43252D01*
X60631Y-43286D01*
X60632Y-43286D01*
X60750Y-43310D01*
X60885Y-43310D01*
X60885Y-43403D01*
X60923Y-43495D01*
X60993Y-43565D01*
X61084Y-43603D01*
X61183Y-43603D01*
X61655Y-43603D01*
X61747Y-43565D01*
X61817Y-43495D01*
X61855Y-43404D01*
X61855Y-43305D01*
X61855Y-43043D01*
X62030Y-43219D01*
X62031Y-43219D01*
X62081Y-43252D01*
X62131Y-43286D01*
X62132Y-43286D01*
X62145Y-43288D01*
X62145Y-43403D01*
X62183Y-43495D01*
X62253Y-43565D01*
X62344Y-43603D01*
X62443Y-43603D01*
X62915Y-43603D01*
X63007Y-43565D01*
X63077Y-43495D01*
X63115Y-43404D01*
X63115Y-43305D01*
X63115Y-42597D01*
X63077Y-42505D01*
X63007Y-42435D01*
X62916Y-42397D01*
X62817Y-42397D01*
X62345Y-42397D01*
X62310Y-42411D01*
X62310Y-41838D01*
X62345Y-41853D01*
X62518Y-41854D01*
X62580Y-41792D01*
X62580Y-41350D01*
X62580Y-41300D01*
X62580Y-41200D01*
X62580Y-41150D01*
X62580Y-40708D01*
X62518Y-40646D01*
X62345Y-40647D01*
X62253Y-40685D01*
X62183Y-40755D01*
X62145Y-40846D01*
X62145Y-40945D01*
X62144Y-41138D01*
X62156Y-41150D01*
X62144Y-41150D01*
X62144Y-41205D01*
X61969Y-41031D01*
X61869Y-40964D01*
X61855Y-40961D01*
X61855Y-40847D01*
X61817Y-40755D01*
X61747Y-40685D01*
X61656Y-40647D01*
X61557Y-40647D01*
X61085Y-40647D01*
X60993Y-40685D01*
X60923Y-40755D01*
X60885Y-40846D01*
X60885Y-40945D01*
X60885Y-41653D01*
X60923Y-41745D01*
X60993Y-41815D01*
X61084Y-41853D01*
X61183Y-41853D01*
X61655Y-41853D01*
X61690Y-41838D01*
X61690Y-42411D01*
X61656Y-42397D01*
X61557Y-42397D01*
X61085Y-42397D01*
X60993Y-42435D01*
X60923Y-42505D01*
X60885Y-42596D01*
X60885Y-42690D01*
X60878Y-42690D01*
X60810Y-42621D01*
X60810Y-37878D01*
X60878Y-37810D01*
X65076Y-37810D01*
X65076Y-38044D01*
X65114Y-38136D01*
X65145Y-38167D01*
X64781Y-38531D01*
X64372Y-38940D01*
X63115Y-38940D01*
X63115Y-38847D01*
X63077Y-38755D01*
X63007Y-38685D01*
X62916Y-38647D01*
X62817Y-38647D01*
X62345Y-38647D01*
X62253Y-38685D01*
X62183Y-38755D01*
X62145Y-38846D01*
X62145Y-38945D01*
X62145Y-39653D01*
X62183Y-39745D01*
X62197Y-39759D01*
X61803Y-39759D01*
X61817Y-39745D01*
X61855Y-39654D01*
X61855Y-39555D01*
X61855Y-38847D01*
X61817Y-38755D01*
X61747Y-38685D01*
X61656Y-38647D01*
X61557Y-38647D01*
X61085Y-38647D01*
X60993Y-38685D01*
X60923Y-38755D01*
X60885Y-38846D01*
X60885Y-38945D01*
X60885Y-39653D01*
X60923Y-39745D01*
X60993Y-39815D01*
X61060Y-39842D01*
X61060Y-39870D01*
X61084Y-39989D01*
X61151Y-40089D01*
X61349Y-40288D01*
X61350Y-40288D01*
X61400Y-40321D01*
X61450Y-40355D01*
X61451Y-40355D01*
X61569Y-40379D01*
X64689Y-40379D01*
X64689Y-40689D01*
X64715Y-40752D01*
X64691Y-40762D01*
X64529Y-40924D01*
X64441Y-41135D01*
X64441Y-41364D01*
X64528Y-41575D01*
X64690Y-41737D01*
X64715Y-41747D01*
X64689Y-41810D01*
X64689Y-41909D01*
X64689Y-43051D01*
X64727Y-43143D01*
X64797Y-43213D01*
X64888Y-43251D01*
X64987Y-43251D01*
X65537Y-43251D01*
X65629Y-43213D01*
X65690Y-43152D01*
X65690Y-44750D01*
X65714Y-44869D01*
X65759Y-44937D01*
X65615Y-44937D01*
X65523Y-44975D01*
X65453Y-45045D01*
X65415Y-45136D01*
X65415Y-45235D01*
X65415Y-45863D01*
X65453Y-45955D01*
X65523Y-46025D01*
X65614Y-46063D01*
X65713Y-46063D01*
X67089Y-46063D01*
X67181Y-46025D01*
X67251Y-45955D01*
X67289Y-45864D01*
X67289Y-45765D01*
X67289Y-45137D01*
X67251Y-45045D01*
X67181Y-44975D01*
X67090Y-44937D01*
X66991Y-44937D01*
X66607Y-44937D01*
X66571Y-44883D01*
X66571Y-44882D01*
X66310Y-44621D01*
X66310Y-43152D01*
X66371Y-43213D01*
X66462Y-43251D01*
X66561Y-43251D01*
X66675Y-43252D01*
X66737Y-43190D01*
X66737Y-42481D01*
X66324Y-42481D01*
X66262Y-42543D01*
X66262Y-42595D01*
X66219Y-42531D01*
X65900Y-42212D01*
X65800Y-42145D01*
X65737Y-42132D01*
X65737Y-41811D01*
X65699Y-41719D01*
X65629Y-41649D01*
X65538Y-41611D01*
X65523Y-41611D01*
X65523Y-41528D01*
X65591Y-41365D01*
X65591Y-41136D01*
X65523Y-40971D01*
X65523Y-40889D01*
X65537Y-40889D01*
X65629Y-40851D01*
X65699Y-40781D01*
X65737Y-40690D01*
X65737Y-40591D01*
X65737Y-39449D01*
X65699Y-39357D01*
X65629Y-39287D01*
X65538Y-39249D01*
X65439Y-39249D01*
X64939Y-39249D01*
X65219Y-38969D01*
X65719Y-38469D01*
X65786Y-38369D01*
X65786Y-38368D01*
X65810Y-38250D01*
X65810Y-38208D01*
X65816Y-38206D01*
X65886Y-38136D01*
X65924Y-38045D01*
X65924Y-37946D01*
X65924Y-37810D01*
X66163Y-37810D01*
X66184Y-37831D01*
X66275Y-37869D01*
X66374Y-37869D01*
X66724Y-37869D01*
X66816Y-37831D01*
X66886Y-37761D01*
X66924Y-37670D01*
X66924Y-37571D01*
X66924Y-37331D01*
X66886Y-37239D01*
X66816Y-37169D01*
X66725Y-37131D01*
X66675Y-37131D01*
X66675Y-30485D01*
X66675Y-30316D01*
X66611Y-30160D01*
X66491Y-30040D01*
X66335Y-29975D01*
X66166Y-29975D01*
X66010Y-30039D01*
X65890Y-30159D01*
X65825Y-30315D01*
X65825Y-30484D01*
X65875Y-30605D01*
X65875Y-31995D01*
X65745Y-32125D01*
X65455Y-32125D01*
X65335Y-32075D01*
X65166Y-32075D01*
X65010Y-32139D01*
X64890Y-32259D01*
X64825Y-32415D01*
X64825Y-32584D01*
X64889Y-32740D01*
X65009Y-32860D01*
X65165Y-32925D01*
X65334Y-32925D01*
X65455Y-32875D01*
X65900Y-32875D01*
X66043Y-32846D01*
X66044Y-32846D01*
X66165Y-32765D01*
X66514Y-32416D01*
X66514Y-32415D01*
X66515Y-32415D01*
X66596Y-32294D01*
X66624Y-32151D01*
X66625Y-32150D01*
X66625Y-30605D01*
X66675Y-30485D01*
X66675Y-37131D01*
X66626Y-37131D01*
X66276Y-37131D01*
X66184Y-37169D01*
X66163Y-37190D01*
X65924Y-37190D01*
X65924Y-36956D01*
X65886Y-36864D01*
X65816Y-36794D01*
X65725Y-36756D01*
X65626Y-36756D01*
X65529Y-36756D01*
X65500Y-36750D01*
X60913Y-36750D01*
X60913Y-32276D01*
X60913Y-32177D01*
X60913Y-31193D01*
X60913Y-30111D01*
X60913Y-30012D01*
X60913Y-29028D01*
X60875Y-28936D01*
X60805Y-28866D01*
X60714Y-28828D01*
X60615Y-28828D01*
X59829Y-28828D01*
X59737Y-28866D01*
X59667Y-28936D01*
X59629Y-29027D01*
X59629Y-29126D01*
X59629Y-30110D01*
X59667Y-30202D01*
X59737Y-30272D01*
X59828Y-30310D01*
X59927Y-30310D01*
X60713Y-30310D01*
X60805Y-30272D01*
X60875Y-30202D01*
X60913Y-30111D01*
X60913Y-31193D01*
X60875Y-31101D01*
X60805Y-31031D01*
X60714Y-30993D01*
X60615Y-30993D01*
X59829Y-30993D01*
X59737Y-31031D01*
X59667Y-31101D01*
X59629Y-31192D01*
X59629Y-31291D01*
X59629Y-32275D01*
X59667Y-32367D01*
X59737Y-32437D01*
X59828Y-32475D01*
X59927Y-32475D01*
X60713Y-32475D01*
X60805Y-32437D01*
X60875Y-32367D01*
X60913Y-32276D01*
X60913Y-36750D01*
X59875Y-36750D01*
X59796Y-36765D01*
X59477Y-36446D01*
X59477Y-31886D01*
X59415Y-31824D01*
X59178Y-31824D01*
X59178Y-32462D01*
X59239Y-32523D01*
X59277Y-32523D01*
X59368Y-32485D01*
X59438Y-32415D01*
X59476Y-32323D01*
X59477Y-31886D01*
X59477Y-36446D01*
X59375Y-36344D01*
X59375Y-35500D01*
X59346Y-35357D01*
X59346Y-35356D01*
X59265Y-35235D01*
X58375Y-34345D01*
X58375Y-34000D01*
X58375Y-33250D01*
X58346Y-33107D01*
X58346Y-33106D01*
X58305Y-33045D01*
X58265Y-32985D01*
X58265Y-32984D01*
X58125Y-32844D01*
X58125Y-32470D01*
X58180Y-32415D01*
X58185Y-32401D01*
X58191Y-32415D01*
X58261Y-32485D01*
X58352Y-32523D01*
X58451Y-32523D01*
X58647Y-32523D01*
X58656Y-32519D01*
X58666Y-32523D01*
X58765Y-32523D01*
X58961Y-32523D01*
X58971Y-32518D01*
X58981Y-32523D01*
X59019Y-32523D01*
X59080Y-32462D01*
X59080Y-32458D01*
X59123Y-32415D01*
X59161Y-32324D01*
X59161Y-32225D01*
X59161Y-31724D01*
X59178Y-31724D01*
X59229Y-31724D01*
X59415Y-31724D01*
X59477Y-31662D01*
X59476Y-31225D01*
X59438Y-31133D01*
X59443Y-31131D01*
X59569Y-31005D01*
X59638Y-30840D01*
X59638Y-30661D01*
X59570Y-30496D01*
X59444Y-30370D01*
X59279Y-30301D01*
X59100Y-30301D01*
X58935Y-30369D01*
X58809Y-30495D01*
X58740Y-30660D01*
X58740Y-30839D01*
X58808Y-31004D01*
X58829Y-31025D01*
X58667Y-31025D01*
X58657Y-31028D01*
X58648Y-31025D01*
X58549Y-31025D01*
X58353Y-31025D01*
X58261Y-31063D01*
X58223Y-31101D01*
X58222Y-31101D01*
X58148Y-31101D01*
X58121Y-31074D01*
X58191Y-31005D01*
X58260Y-30840D01*
X58260Y-30661D01*
X58192Y-30496D01*
X58066Y-30370D01*
X57901Y-30301D01*
X57722Y-30301D01*
X57557Y-30369D01*
X57431Y-30495D01*
X57371Y-30638D01*
X57371Y-30111D01*
X57371Y-30012D01*
X57371Y-29028D01*
X57333Y-28936D01*
X57263Y-28866D01*
X57172Y-28828D01*
X57073Y-28828D01*
X56287Y-28828D01*
X56195Y-28866D01*
X56125Y-28936D01*
X56087Y-29027D01*
X56087Y-29126D01*
X56087Y-29136D01*
X56086Y-29134D01*
X56016Y-29064D01*
X55925Y-29026D01*
X55826Y-29026D01*
X55712Y-29025D01*
X55650Y-29087D01*
X55650Y-29450D01*
X55650Y-29500D01*
X55650Y-29600D01*
X55550Y-29600D01*
X55550Y-29500D01*
X55550Y-29087D01*
X55488Y-29025D01*
X55374Y-29026D01*
X55275Y-29026D01*
X55184Y-29064D01*
X55114Y-29134D01*
X55076Y-29226D01*
X55075Y-29438D01*
X55137Y-29500D01*
X55550Y-29500D01*
X55550Y-29600D01*
X55500Y-29600D01*
X55137Y-29600D01*
X55075Y-29662D01*
X55076Y-29874D01*
X55114Y-29966D01*
X55184Y-30036D01*
X55275Y-30074D01*
X55374Y-30074D01*
X55303Y-30105D01*
X55155Y-30252D01*
X55075Y-30445D01*
X55075Y-30654D01*
X55155Y-30847D01*
X55302Y-30995D01*
X55495Y-31075D01*
X55704Y-31075D01*
X55897Y-30995D01*
X56045Y-30848D01*
X56125Y-30655D01*
X56125Y-30446D01*
X56045Y-30253D01*
X55898Y-30105D01*
X55823Y-30074D01*
X55826Y-30074D01*
X55925Y-30074D01*
X56016Y-30036D01*
X56086Y-29966D01*
X56087Y-29963D01*
X56087Y-30110D01*
X56125Y-30202D01*
X56195Y-30272D01*
X56286Y-30310D01*
X56385Y-30310D01*
X57171Y-30310D01*
X57263Y-30272D01*
X57333Y-30202D01*
X57371Y-30111D01*
X57371Y-30638D01*
X57362Y-30660D01*
X57362Y-30839D01*
X57430Y-31004D01*
X57556Y-31130D01*
X57562Y-31132D01*
X57562Y-31133D01*
X57524Y-31224D01*
X57524Y-31323D01*
X57524Y-31591D01*
X57485Y-31630D01*
X57410Y-31742D01*
X57410Y-31193D01*
X57372Y-31101D01*
X57302Y-31031D01*
X57211Y-30993D01*
X57112Y-30993D01*
X56326Y-30993D01*
X56234Y-31031D01*
X56164Y-31101D01*
X56126Y-31192D01*
X56126Y-31291D01*
X56126Y-32275D01*
X56164Y-32367D01*
X56234Y-32437D01*
X56325Y-32475D01*
X56424Y-32475D01*
X57210Y-32475D01*
X57302Y-32437D01*
X57372Y-32367D01*
X57375Y-32359D01*
X57375Y-33000D01*
X57404Y-33144D01*
X57485Y-33265D01*
X57625Y-33405D01*
X57625Y-34000D01*
X57625Y-34345D01*
X57345Y-34625D01*
X57000Y-34625D01*
X51250Y-34625D01*
X51106Y-34654D01*
X51045Y-34694D01*
X50984Y-34735D01*
X49970Y-35749D01*
X49889Y-35749D01*
X49797Y-35787D01*
X49727Y-35857D01*
X49689Y-35948D01*
X49689Y-36047D01*
X49689Y-37189D01*
X49715Y-37252D01*
X49691Y-37262D01*
X49529Y-37424D01*
X49441Y-37635D01*
X49441Y-37864D01*
X49528Y-38075D01*
X49690Y-38237D01*
X49715Y-38247D01*
X49689Y-38310D01*
X49689Y-38409D01*
X49689Y-38924D01*
X49485Y-39129D01*
X49404Y-39250D01*
X49375Y-39394D01*
X49375Y-41050D01*
X49375Y-41250D01*
X49375Y-41400D01*
X49375Y-41700D01*
X49375Y-43000D01*
X49404Y-43144D01*
X49485Y-43265D01*
X49689Y-43469D01*
X49689Y-44439D01*
X49715Y-44502D01*
X49691Y-44512D01*
X49529Y-44674D01*
X49441Y-44885D01*
X49441Y-45114D01*
X49528Y-45325D01*
X49690Y-45487D01*
X49715Y-45497D01*
X49689Y-45560D01*
X49689Y-45659D01*
X49689Y-46801D01*
X49727Y-46893D01*
X49797Y-46963D01*
X49888Y-47001D01*
X49987Y-47001D01*
X50537Y-47001D01*
X50629Y-46963D01*
X50699Y-46893D01*
X50700Y-46888D01*
X51236Y-47425D01*
X50032Y-47425D01*
X49648Y-47348D01*
X49349Y-47149D01*
X49150Y-46851D01*
X49075Y-46467D01*
X49075Y-29282D01*
X49132Y-28993D01*
X49276Y-28777D01*
X49494Y-28632D01*
X49782Y-28575D01*
X67217Y-28575D01*
X67506Y-28632D01*
X67722Y-28776D01*
X67867Y-28994D01*
X67925Y-29282D01*
X67925Y-46717D01*
X67925Y-46717D01*
G37*
G54D28*
X67925Y-46717D02*
X67867Y-47005D01*
X67722Y-47223D01*
X67552Y-47336D01*
X67552Y-41334D01*
X67540Y-41111D01*
X67476Y-40954D01*
X67380Y-40925D01*
X67312Y-40993D01*
X67055Y-41250D01*
X67380Y-41575D01*
X67476Y-41546D01*
X67552Y-41334D01*
X67552Y-47336D01*
X67506Y-47367D01*
X67312Y-47405D01*
X67312Y-42543D01*
X67312Y-42319D01*
X67311Y-41811D01*
X67281Y-41738D01*
X67309Y-41646D01*
X67019Y-41356D01*
X66984Y-41321D01*
X66913Y-41250D01*
X66984Y-41179D01*
X67019Y-41144D01*
X67309Y-40854D01*
X67281Y-40761D01*
X67311Y-40689D01*
X67312Y-40181D01*
X67312Y-39957D01*
X67311Y-39449D01*
X67273Y-39357D01*
X67203Y-39287D01*
X67112Y-39249D01*
X67013Y-39249D01*
X66899Y-39248D01*
X66837Y-39310D01*
X66837Y-40019D01*
X67250Y-40019D01*
X67312Y-39957D01*
X67312Y-40181D01*
X67250Y-40119D01*
X66887Y-40119D01*
X66837Y-40119D01*
X66737Y-40119D01*
X66737Y-40019D01*
X66737Y-39310D01*
X66675Y-39248D01*
X66561Y-39249D01*
X66462Y-39249D01*
X66371Y-39287D01*
X66301Y-39357D01*
X66263Y-39449D01*
X66262Y-39957D01*
X66324Y-40019D01*
X66737Y-40019D01*
X66737Y-40119D01*
X66687Y-40119D01*
X66324Y-40119D01*
X66262Y-40181D01*
X66263Y-40689D01*
X66301Y-40781D01*
X66371Y-40851D01*
X66462Y-40889D01*
X66518Y-40889D01*
X66500Y-40907D01*
X66534Y-40941D01*
X66492Y-40954D01*
X66416Y-41166D01*
X66428Y-41389D01*
X66492Y-41546D01*
X66534Y-41558D01*
X66500Y-41593D01*
X66518Y-41611D01*
X66462Y-41611D01*
X66371Y-41649D01*
X66301Y-41719D01*
X66263Y-41811D01*
X66262Y-42319D01*
X66324Y-42381D01*
X66687Y-42381D01*
X66737Y-42381D01*
X66837Y-42381D01*
X66887Y-42381D01*
X67250Y-42381D01*
X67312Y-42319D01*
X67312Y-42543D01*
X67250Y-42481D01*
X66837Y-42481D01*
X66837Y-43190D01*
X66899Y-43252D01*
X67013Y-43251D01*
X67112Y-43251D01*
X67203Y-43213D01*
X67273Y-43143D01*
X67311Y-43051D01*
X67312Y-42543D01*
X67312Y-47405D01*
X67217Y-47425D01*
X54763Y-47425D01*
X55378Y-46810D01*
X57750Y-46810D01*
X57868Y-46786D01*
X57869Y-46786D01*
X57969Y-46719D01*
X58219Y-46470D01*
X58219Y-46469D01*
X58252Y-46419D01*
X58286Y-46369D01*
X58286Y-46368D01*
X58309Y-46250D01*
X58310Y-46250D01*
X58310Y-42083D01*
X58316Y-42081D01*
X58386Y-42011D01*
X58424Y-41920D01*
X58424Y-41821D01*
X58424Y-41625D01*
X59375Y-41625D01*
X59375Y-44250D01*
X59404Y-44394D01*
X59485Y-44515D01*
X60734Y-45765D01*
X60735Y-45765D01*
X60795Y-45805D01*
X60856Y-45846D01*
X60857Y-45846D01*
X60999Y-45874D01*
X61000Y-45875D01*
X63215Y-45875D01*
X63249Y-45955D01*
X63319Y-46025D01*
X63410Y-46063D01*
X63509Y-46063D01*
X64885Y-46063D01*
X64977Y-46025D01*
X65047Y-45955D01*
X65085Y-45864D01*
X65085Y-45765D01*
X65085Y-45137D01*
X65047Y-45045D01*
X64977Y-44975D01*
X64886Y-44937D01*
X64787Y-44937D01*
X63411Y-44937D01*
X63319Y-44975D01*
X63249Y-45045D01*
X63215Y-45125D01*
X63116Y-45125D01*
X63116Y-41362D01*
X63116Y-41138D01*
X63115Y-40945D01*
X63115Y-40846D01*
X63077Y-40755D01*
X63007Y-40685D01*
X62915Y-40647D01*
X62742Y-40646D01*
X62680Y-40708D01*
X62680Y-41200D01*
X63054Y-41200D01*
X63116Y-41138D01*
X63116Y-41362D01*
X63054Y-41300D01*
X62680Y-41300D01*
X62680Y-41792D01*
X62742Y-41854D01*
X62915Y-41853D01*
X63007Y-41815D01*
X63077Y-41745D01*
X63115Y-41654D01*
X63115Y-41555D01*
X63116Y-41362D01*
X63116Y-45125D01*
X61155Y-45125D01*
X60125Y-44094D01*
X60125Y-41455D01*
X60175Y-41335D01*
X60175Y-41166D01*
X60125Y-41044D01*
X60125Y-40000D01*
X60125Y-37500D01*
X60311Y-37500D01*
X60281Y-37531D01*
X60214Y-37631D01*
X60190Y-37750D01*
X60190Y-42750D01*
X60214Y-42869D01*
X60281Y-42969D01*
X60530Y-43219D01*
X60531Y-43219D01*
X60581Y-43252D01*
X60631Y-43286D01*
X60632Y-43286D01*
X60750Y-43310D01*
X60885Y-43310D01*
X60885Y-43403D01*
X60923Y-43495D01*
X60993Y-43565D01*
X61084Y-43603D01*
X61183Y-43603D01*
X61655Y-43603D01*
X61747Y-43565D01*
X61817Y-43495D01*
X61855Y-43404D01*
X61855Y-43305D01*
X61855Y-43043D01*
X62030Y-43219D01*
X62031Y-43219D01*
X62081Y-43252D01*
X62131Y-43286D01*
X62132Y-43286D01*
X62145Y-43288D01*
X62145Y-43403D01*
X62183Y-43495D01*
X62253Y-43565D01*
X62344Y-43603D01*
X62443Y-43603D01*
X62915Y-43603D01*
X63007Y-43565D01*
X63077Y-43495D01*
X63115Y-43404D01*
X63115Y-43305D01*
X63115Y-42597D01*
X63077Y-42505D01*
X63007Y-42435D01*
X62916Y-42397D01*
X62817Y-42397D01*
X62345Y-42397D01*
X62310Y-42411D01*
X62310Y-41838D01*
X62345Y-41853D01*
X62518Y-41854D01*
X62580Y-41792D01*
X62580Y-41350D01*
X62580Y-41300D01*
X62580Y-41200D01*
X62580Y-41150D01*
X62580Y-40708D01*
X62518Y-40646D01*
X62345Y-40647D01*
X62253Y-40685D01*
X62183Y-40755D01*
X62145Y-40846D01*
X62145Y-40945D01*
X62144Y-41138D01*
X62156Y-41150D01*
X62144Y-41150D01*
X62144Y-41205D01*
X61969Y-41031D01*
X61869Y-40964D01*
X61855Y-40961D01*
X61855Y-40847D01*
X61817Y-40755D01*
X61747Y-40685D01*
X61656Y-40647D01*
X61557Y-40647D01*
X61085Y-40647D01*
X60993Y-40685D01*
X60923Y-40755D01*
X60885Y-40846D01*
X60885Y-40945D01*
X60885Y-41653D01*
X60923Y-41745D01*
X60993Y-41815D01*
X61084Y-41853D01*
X61183Y-41853D01*
X61655Y-41853D01*
X61690Y-41838D01*
X61690Y-42411D01*
X61656Y-42397D01*
X61557Y-42397D01*
X61085Y-42397D01*
X60993Y-42435D01*
X60923Y-42505D01*
X60885Y-42596D01*
X60885Y-42690D01*
X60878Y-42690D01*
X60810Y-42621D01*
X60810Y-37878D01*
X60878Y-37810D01*
X65076Y-37810D01*
X65076Y-38044D01*
X65114Y-38136D01*
X65145Y-38167D01*
X64781Y-38531D01*
X64372Y-38940D01*
X63115Y-38940D01*
X63115Y-38847D01*
X63077Y-38755D01*
X63007Y-38685D01*
X62916Y-38647D01*
X62817Y-38647D01*
X62345Y-38647D01*
X62253Y-38685D01*
X62183Y-38755D01*
X62145Y-38846D01*
X62145Y-38945D01*
X62145Y-39653D01*
X62183Y-39745D01*
X62197Y-39759D01*
X61803Y-39759D01*
X61817Y-39745D01*
X61855Y-39654D01*
X61855Y-39555D01*
X61855Y-38847D01*
X61817Y-38755D01*
X61747Y-38685D01*
X61656Y-38647D01*
X61557Y-38647D01*
X61085Y-38647D01*
X60993Y-38685D01*
X60923Y-38755D01*
X60885Y-38846D01*
X60885Y-38945D01*
X60885Y-39653D01*
X60923Y-39745D01*
X60993Y-39815D01*
X61060Y-39842D01*
X61060Y-39870D01*
X61084Y-39989D01*
X61151Y-40089D01*
X61349Y-40288D01*
X61350Y-40288D01*
X61400Y-40321D01*
X61450Y-40355D01*
X61451Y-40355D01*
X61569Y-40379D01*
X64689Y-40379D01*
X64689Y-40689D01*
X64715Y-40752D01*
X64691Y-40762D01*
X64529Y-40924D01*
X64441Y-41135D01*
X64441Y-41364D01*
X64528Y-41575D01*
X64690Y-41737D01*
X64715Y-41747D01*
X64689Y-41810D01*
X64689Y-41909D01*
X64689Y-43051D01*
X64727Y-43143D01*
X64797Y-43213D01*
X64888Y-43251D01*
X64987Y-43251D01*
X65537Y-43251D01*
X65629Y-43213D01*
X65690Y-43152D01*
X65690Y-44750D01*
X65714Y-44869D01*
X65759Y-44937D01*
X65615Y-44937D01*
X65523Y-44975D01*
X65453Y-45045D01*
X65415Y-45136D01*
X65415Y-45235D01*
X65415Y-45863D01*
X65453Y-45955D01*
X65523Y-46025D01*
X65614Y-46063D01*
X65713Y-46063D01*
X67089Y-46063D01*
X67181Y-46025D01*
X67251Y-45955D01*
X67289Y-45864D01*
X67289Y-45765D01*
X67289Y-45137D01*
X67251Y-45045D01*
X67181Y-44975D01*
X67090Y-44937D01*
X66991Y-44937D01*
X66607Y-44937D01*
X66571Y-44883D01*
X66571Y-44882D01*
X66310Y-44621D01*
X66310Y-43152D01*
X66371Y-43213D01*
X66462Y-43251D01*
X66561Y-43251D01*
X66675Y-43252D01*
X66737Y-43190D01*
X66737Y-42481D01*
X66324Y-42481D01*
X66262Y-42543D01*
X66262Y-42595D01*
X66219Y-42531D01*
X65900Y-42212D01*
X65800Y-42145D01*
X65737Y-42132D01*
X65737Y-41811D01*
X65699Y-41719D01*
X65629Y-41649D01*
X65538Y-41611D01*
X65523Y-41611D01*
X65523Y-41528D01*
X65591Y-41365D01*
X65591Y-41136D01*
X65523Y-40971D01*
X65523Y-40889D01*
X65537Y-40889D01*
X65629Y-40851D01*
X65699Y-40781D01*
X65737Y-40690D01*
X65737Y-40591D01*
X65737Y-39449D01*
X65699Y-39357D01*
X65629Y-39287D01*
X65538Y-39249D01*
X65439Y-39249D01*
X64939Y-39249D01*
X65219Y-38969D01*
X65719Y-38469D01*
X65786Y-38369D01*
X65786Y-38368D01*
X65810Y-38250D01*
X65810Y-38208D01*
X65816Y-38206D01*
X65886Y-38136D01*
X65924Y-38045D01*
X65924Y-37946D01*
X65924Y-37810D01*
X66163Y-37810D01*
X66184Y-37831D01*
X66275Y-37869D01*
X66374Y-37869D01*
X66724Y-37869D01*
X66816Y-37831D01*
X66886Y-37761D01*
X66924Y-37670D01*
X66924Y-37571D01*
X66924Y-37331D01*
X66886Y-37239D01*
X66816Y-37169D01*
X66725Y-37131D01*
X66675Y-37131D01*
X66675Y-30485D01*
X66675Y-30316D01*
X66611Y-30160D01*
X66491Y-30040D01*
X66335Y-29975D01*
X66166Y-29975D01*
X66010Y-30039D01*
X65890Y-30159D01*
X65825Y-30315D01*
X65825Y-30484D01*
X65875Y-30605D01*
X65875Y-31995D01*
X65745Y-32125D01*
X65455Y-32125D01*
X65335Y-32075D01*
X65166Y-32075D01*
X65010Y-32139D01*
X64890Y-32259D01*
X64825Y-32415D01*
X64825Y-32584D01*
X64889Y-32740D01*
X65009Y-32860D01*
X65165Y-32925D01*
X65334Y-32925D01*
X65455Y-32875D01*
X65900Y-32875D01*
X66043Y-32846D01*
X66044Y-32846D01*
X66165Y-32765D01*
X66514Y-32416D01*
X66514Y-32415D01*
X66515Y-32415D01*
X66596Y-32294D01*
X66624Y-32151D01*
X66625Y-32150D01*
X66625Y-30605D01*
X66675Y-30485D01*
X66675Y-37131D01*
X66626Y-37131D01*
X66276Y-37131D01*
X66184Y-37169D01*
X66163Y-37190D01*
X65924Y-37190D01*
X65924Y-36956D01*
X65886Y-36864D01*
X65816Y-36794D01*
X65725Y-36756D01*
X65626Y-36756D01*
X65529Y-36756D01*
X65500Y-36750D01*
X60913Y-36750D01*
X60913Y-32276D01*
X60913Y-32177D01*
X60913Y-31193D01*
X60913Y-30111D01*
X60913Y-30012D01*
X60913Y-29028D01*
X60875Y-28936D01*
X60805Y-28866D01*
X60714Y-28828D01*
X60615Y-28828D01*
X59829Y-28828D01*
X59737Y-28866D01*
X59667Y-28936D01*
X59629Y-29027D01*
X59629Y-29126D01*
X59629Y-30110D01*
X59667Y-30202D01*
X59737Y-30272D01*
X59828Y-30310D01*
X59927Y-30310D01*
X60713Y-30310D01*
X60805Y-30272D01*
X60875Y-30202D01*
X60913Y-30111D01*
X60913Y-31193D01*
X60875Y-31101D01*
X60805Y-31031D01*
X60714Y-30993D01*
X60615Y-30993D01*
X59829Y-30993D01*
X59737Y-31031D01*
X59667Y-31101D01*
X59629Y-31192D01*
X59629Y-31291D01*
X59629Y-32275D01*
X59667Y-32367D01*
X59737Y-32437D01*
X59828Y-32475D01*
X59927Y-32475D01*
X60713Y-32475D01*
X60805Y-32437D01*
X60875Y-32367D01*
X60913Y-32276D01*
X60913Y-36750D01*
X59875Y-36750D01*
X59796Y-36765D01*
X59477Y-36446D01*
X59477Y-31886D01*
X59415Y-31824D01*
X59178Y-31824D01*
X59178Y-32462D01*
X59239Y-32523D01*
X59277Y-32523D01*
X59368Y-32485D01*
X59438Y-32415D01*
X59476Y-32323D01*
X59477Y-31886D01*
X59477Y-36446D01*
X59375Y-36344D01*
X59375Y-35500D01*
X59346Y-35357D01*
X59346Y-35356D01*
X59265Y-35235D01*
X58375Y-34345D01*
X58375Y-34000D01*
X58375Y-33250D01*
X58346Y-33107D01*
X58346Y-33106D01*
X58305Y-33045D01*
X58265Y-32985D01*
X58265Y-32984D01*
X58125Y-32844D01*
X58125Y-32470D01*
X58180Y-32415D01*
X58185Y-32401D01*
X58191Y-32415D01*
X58261Y-32485D01*
X58352Y-32523D01*
X58451Y-32523D01*
X58647Y-32523D01*
X58656Y-32519D01*
X58666Y-32523D01*
X58765Y-32523D01*
X58961Y-32523D01*
X58971Y-32518D01*
X58981Y-32523D01*
X59019Y-32523D01*
X59080Y-32462D01*
X59080Y-32458D01*
X59123Y-32415D01*
X59161Y-32324D01*
X59161Y-32225D01*
X59161Y-31724D01*
X59178Y-31724D01*
X59229Y-31724D01*
X59415Y-31724D01*
X59477Y-31662D01*
X59476Y-31225D01*
X59438Y-31133D01*
X59443Y-31131D01*
X59569Y-31005D01*
X59638Y-30840D01*
X59638Y-30661D01*
X59570Y-30496D01*
X59444Y-30370D01*
X59279Y-30301D01*
X59100Y-30301D01*
X58935Y-30369D01*
X58809Y-30495D01*
X58740Y-30660D01*
X58740Y-30839D01*
X58808Y-31004D01*
X58829Y-31025D01*
X58667Y-31025D01*
X58657Y-31028D01*
X58648Y-31025D01*
X58549Y-31025D01*
X58353Y-31025D01*
X58261Y-31063D01*
X58223Y-31101D01*
X58222Y-31101D01*
X58148Y-31101D01*
X58121Y-31074D01*
X58191Y-31005D01*
X58260Y-30840D01*
X58260Y-30661D01*
X58192Y-30496D01*
X58066Y-30370D01*
X57901Y-30301D01*
X57722Y-30301D01*
X57557Y-30369D01*
X57431Y-30495D01*
X57371Y-30638D01*
X57371Y-30111D01*
X57371Y-30012D01*
X57371Y-29028D01*
X57333Y-28936D01*
X57263Y-28866D01*
X57172Y-28828D01*
X57073Y-28828D01*
X56287Y-28828D01*
X56195Y-28866D01*
X56125Y-28936D01*
X56087Y-29027D01*
X56087Y-29126D01*
X56087Y-29136D01*
X56086Y-29134D01*
X56016Y-29064D01*
X55925Y-29026D01*
X55826Y-29026D01*
X55712Y-29025D01*
X55650Y-29087D01*
X55650Y-29450D01*
X55650Y-29500D01*
X55650Y-29600D01*
X55550Y-29600D01*
X55550Y-29500D01*
X55550Y-29087D01*
X55488Y-29025D01*
X55374Y-29026D01*
X55275Y-29026D01*
X55184Y-29064D01*
X55114Y-29134D01*
X55076Y-29226D01*
X55075Y-29438D01*
X55137Y-29500D01*
X55550Y-29500D01*
X55550Y-29600D01*
X55500Y-29600D01*
X55137Y-29600D01*
X55075Y-29662D01*
X55076Y-29874D01*
X55114Y-29966D01*
X55184Y-30036D01*
X55275Y-30074D01*
X55374Y-30074D01*
X55303Y-30105D01*
X55155Y-30252D01*
X55075Y-30445D01*
X55075Y-30654D01*
X55155Y-30847D01*
X55302Y-30995D01*
X55495Y-31075D01*
X55704Y-31075D01*
X55897Y-30995D01*
X56045Y-30848D01*
X56125Y-30655D01*
X56125Y-30446D01*
X56045Y-30253D01*
X55898Y-30105D01*
X55823Y-30074D01*
X55826Y-30074D01*
X55925Y-30074D01*
X56016Y-30036D01*
X56086Y-29966D01*
X56087Y-29963D01*
X56087Y-30110D01*
X56125Y-30202D01*
X56195Y-30272D01*
X56286Y-30310D01*
X56385Y-30310D01*
X57171Y-30310D01*
X57263Y-30272D01*
X57333Y-30202D01*
X57371Y-30111D01*
X57371Y-30638D01*
X57362Y-30660D01*
X57362Y-30839D01*
X57430Y-31004D01*
X57556Y-31130D01*
X57562Y-31132D01*
X57562Y-31133D01*
X57524Y-31224D01*
X57524Y-31323D01*
X57524Y-31591D01*
X57485Y-31630D01*
X57410Y-31742D01*
X57410Y-31193D01*
X57372Y-31101D01*
X57302Y-31031D01*
X57211Y-30993D01*
X57112Y-30993D01*
X56326Y-30993D01*
X56234Y-31031D01*
X56164Y-31101D01*
X56126Y-31192D01*
X56126Y-31291D01*
X56126Y-32275D01*
X56164Y-32367D01*
X56234Y-32437D01*
X56325Y-32475D01*
X56424Y-32475D01*
X57210Y-32475D01*
X57302Y-32437D01*
X57372Y-32367D01*
X57375Y-32359D01*
X57375Y-33000D01*
X57404Y-33144D01*
X57485Y-33265D01*
X57625Y-33405D01*
X57625Y-34000D01*
X57625Y-34345D01*
X57345Y-34625D01*
X57000Y-34625D01*
X51250Y-34625D01*
X51106Y-34654D01*
X51045Y-34694D01*
X50984Y-34735D01*
X49970Y-35749D01*
X49889Y-35749D01*
X49797Y-35787D01*
X49727Y-35857D01*
X49689Y-35948D01*
X49689Y-36047D01*
X49689Y-37189D01*
X49715Y-37252D01*
X49691Y-37262D01*
X49529Y-37424D01*
X49441Y-37635D01*
X49441Y-37864D01*
X49528Y-38075D01*
X49690Y-38237D01*
X49715Y-38247D01*
X49689Y-38310D01*
X49689Y-38409D01*
X49689Y-38924D01*
X49485Y-39129D01*
X49404Y-39250D01*
X49375Y-39394D01*
X49375Y-41050D01*
X49375Y-41250D01*
X49375Y-41400D01*
X49375Y-41700D01*
X49375Y-43000D01*
X49404Y-43144D01*
X49485Y-43265D01*
X49689Y-43469D01*
X49689Y-44439D01*
X49715Y-44502D01*
X49691Y-44512D01*
X49529Y-44674D01*
X49441Y-44885D01*
X49441Y-45114D01*
X49528Y-45325D01*
X49690Y-45487D01*
X49715Y-45497D01*
X49689Y-45560D01*
X49689Y-45659D01*
X49689Y-46801D01*
X49727Y-46893D01*
X49797Y-46963D01*
X49888Y-47001D01*
X49987Y-47001D01*
X50537Y-47001D01*
X50629Y-46963D01*
X50699Y-46893D01*
X50700Y-46888D01*
X51236Y-47425D01*
X50032Y-47425D01*
X49648Y-47348D01*
X49349Y-47149D01*
X49150Y-46851D01*
X49075Y-46467D01*
X49075Y-29282D01*
X49132Y-28993D01*
X49276Y-28777D01*
X49494Y-28632D01*
X49782Y-28575D01*
X67217Y-28575D01*
X67506Y-28632D01*
X67722Y-28776D01*
X67867Y-28994D01*
X67925Y-29282D01*
X67925Y-46717D01*
M02*
