G04 (created by PCBNEW-RS274X (2011-05-25)-stable) date Sun 24 Mar 2013 20:47:49 CET*
G01*
G70*
G90*
%MOIN*%
G04 Gerber Fmt 3.4, Leading zero omitted, Abs format*
%FSLAX34Y34*%
G04 APERTURE LIST*
%ADD10C,0.006000*%
%ADD11C,0.015000*%
%ADD12R,0.055000X0.075000*%
%ADD13R,0.067200X0.090900*%
%ADD14R,0.039600X0.120000*%
%ADD15R,0.098700X0.118400*%
%ADD16R,0.037000X0.100000*%
%ADD17C,0.060000*%
%ADD18R,0.157700X0.082900*%
%ADD19R,0.075100X0.134200*%
%ADD20R,0.055000X0.044000*%
%ADD21R,0.075000X0.075000*%
%ADD22C,0.075000*%
%ADD23R,0.090900X0.067200*%
%ADD24C,0.085000*%
G04 APERTURE END LIST*
G54D10*
G54D11*
X67250Y-28250D02*
X49750Y-28250D01*
X68250Y-46750D02*
X68250Y-29250D01*
X68250Y-29250D02*
X68246Y-29163D01*
X68234Y-29077D01*
X68215Y-28992D01*
X68189Y-28908D01*
X68156Y-28828D01*
X68116Y-28751D01*
X68069Y-28677D01*
X68016Y-28608D01*
X67957Y-28543D01*
X67892Y-28484D01*
X67823Y-28431D01*
X67750Y-28384D01*
X67672Y-28344D01*
X67592Y-28311D01*
X67508Y-28285D01*
X67423Y-28266D01*
X67337Y-28254D01*
X67250Y-28250D01*
X50000Y-47750D02*
X67250Y-47750D01*
X48750Y-46500D02*
X48750Y-29250D01*
X48750Y-46500D02*
X48755Y-46608D01*
X48769Y-46717D01*
X48793Y-46823D01*
X48826Y-46927D01*
X48868Y-47028D01*
X48918Y-47124D01*
X48977Y-47216D01*
X49043Y-47303D01*
X49117Y-47383D01*
X49197Y-47457D01*
X49284Y-47523D01*
X49376Y-47582D01*
X49472Y-47632D01*
X49573Y-47674D01*
X49677Y-47707D01*
X49783Y-47731D01*
X49892Y-47745D01*
X50000Y-47750D01*
X67250Y-47750D02*
X67337Y-47746D01*
X67423Y-47734D01*
X67508Y-47715D01*
X67592Y-47689D01*
X67672Y-47656D01*
X67750Y-47616D01*
X67823Y-47569D01*
X67892Y-47516D01*
X67957Y-47457D01*
X68016Y-47392D01*
X68069Y-47323D01*
X68116Y-47249D01*
X68156Y-47172D01*
X68189Y-47092D01*
X68215Y-47008D01*
X68234Y-46923D01*
X68246Y-46837D01*
X68250Y-46750D01*
X49750Y-28250D02*
X49663Y-28254D01*
X49577Y-28266D01*
X49492Y-28285D01*
X49408Y-28311D01*
X49328Y-28344D01*
X49251Y-28384D01*
X49177Y-28431D01*
X49108Y-28484D01*
X49043Y-28543D01*
X48984Y-28608D01*
X48931Y-28677D01*
X48884Y-28751D01*
X48844Y-28828D01*
X48811Y-28908D01*
X48785Y-28992D01*
X48766Y-29077D01*
X48754Y-29163D01*
X48750Y-29250D01*
G54D12*
X50625Y-42250D03*
X51375Y-42250D03*
X50625Y-40500D03*
X51375Y-40500D03*
G54D13*
X62630Y-39250D03*
X61370Y-39250D03*
G54D14*
X58500Y-31774D03*
X58814Y-31774D03*
X57871Y-31774D03*
G54D15*
X60271Y-29569D03*
X60271Y-31734D03*
X56729Y-29569D03*
X56768Y-31734D03*
G54D16*
X58186Y-31750D03*
G54D17*
X59189Y-30750D03*
X57811Y-30750D03*
G54D14*
X59129Y-31774D03*
G54D18*
X66352Y-45500D03*
X64148Y-45500D03*
G54D19*
X50213Y-43819D03*
X51787Y-43819D03*
X50213Y-46181D03*
X51787Y-46181D03*
X50213Y-36569D03*
X51787Y-36569D03*
X50213Y-38931D03*
X51787Y-38931D03*
X65213Y-40069D03*
X66787Y-40069D03*
X65213Y-42431D03*
X66787Y-42431D03*
G54D20*
X54000Y-42125D03*
X54000Y-41375D03*
X55000Y-41750D03*
X65500Y-37875D03*
X65500Y-37125D03*
X66500Y-37500D03*
X57000Y-42125D03*
X57000Y-41375D03*
X58000Y-41750D03*
G54D21*
X55600Y-29550D03*
G54D22*
X55600Y-30550D03*
G54D13*
X62630Y-43000D03*
X61370Y-43000D03*
X62630Y-41250D03*
X61370Y-41250D03*
G54D23*
X57000Y-38380D03*
X57000Y-37120D03*
X57000Y-44370D03*
X57000Y-45630D03*
X55000Y-37120D03*
X55000Y-38380D03*
X55000Y-44370D03*
X55000Y-45630D03*
G54D24*
X54016Y-43250D03*
X55984Y-43250D03*
M02*
