G04 (created by PCBNEW-RS274X (2011-05-25)-stable) date Sun 24 Mar 2013 20:47:49 CET*
G01*
G70*
G90*
%MOIN*%
G04 Gerber Fmt 3.4, Leading zero omitted, Abs format*
%FSLAX34Y34*%
G04 APERTURE LIST*
%ADD10C,0.006000*%
%ADD11C,0.004900*%
%ADD12C,0.007400*%
%ADD13C,0.004700*%
%ADD14C,0.007900*%
%ADD15C,0.015000*%
%ADD16C,0.005000*%
%ADD17C,0.008000*%
%ADD18C,0.000100*%
%ADD19C,0.004000*%
%ADD20C,0.012000*%
%ADD21C,0.003500*%
%ADD22C,0.010700*%
%ADD23R,0.055000X0.075000*%
%ADD24R,0.067200X0.090900*%
%ADD25R,0.039600X0.120000*%
%ADD26R,0.098700X0.118400*%
%ADD27R,0.037000X0.100000*%
%ADD28C,0.060000*%
%ADD29R,0.157700X0.082900*%
%ADD30R,0.075100X0.134200*%
%ADD31R,0.055000X0.044000*%
%ADD32R,0.075000X0.075000*%
%ADD33C,0.075000*%
%ADD34R,0.090900X0.067200*%
%ADD35C,0.085000*%
G04 APERTURE END LIST*
G54D10*
G54D11*
X54110Y-30334D02*
X54080Y-30315D01*
X54035Y-30315D01*
X53990Y-30334D01*
X53960Y-30372D01*
X53945Y-30409D01*
X53930Y-30484D01*
X53930Y-30541D01*
X53945Y-30616D01*
X53960Y-30653D01*
X53990Y-30691D01*
X54035Y-30709D01*
X54065Y-30709D01*
X54110Y-30691D01*
X54125Y-30672D01*
X54125Y-30541D01*
X54065Y-30541D01*
X54260Y-30709D02*
X54260Y-30315D01*
X54440Y-30709D01*
X54440Y-30315D01*
X54590Y-30709D02*
X54590Y-30315D01*
X54665Y-30315D01*
X54710Y-30334D01*
X54740Y-30372D01*
X54755Y-30409D01*
X54770Y-30484D01*
X54770Y-30541D01*
X54755Y-30616D01*
X54740Y-30653D01*
X54710Y-30691D01*
X54665Y-30709D01*
X54590Y-30709D01*
X53945Y-29509D02*
X54185Y-29509D01*
X54065Y-29659D02*
X54065Y-29359D01*
X54485Y-29265D02*
X54335Y-29265D01*
X54320Y-29453D01*
X54335Y-29434D01*
X54365Y-29416D01*
X54440Y-29416D01*
X54470Y-29434D01*
X54485Y-29453D01*
X54500Y-29491D01*
X54500Y-29584D01*
X54485Y-29622D01*
X54470Y-29641D01*
X54440Y-29659D01*
X54365Y-29659D01*
X54335Y-29641D01*
X54320Y-29622D01*
X54590Y-29265D02*
X54695Y-29659D01*
X54800Y-29265D01*
G54D12*
X53105Y-46797D02*
X53175Y-47059D01*
X53246Y-46797D01*
X53513Y-47059D02*
X53344Y-47059D01*
X53428Y-47059D02*
X53428Y-46665D01*
X53400Y-46722D01*
X53372Y-46759D01*
X53344Y-46778D01*
X53639Y-47022D02*
X53653Y-47041D01*
X53639Y-47059D01*
X53625Y-47041D01*
X53639Y-47022D01*
X53639Y-47059D01*
X53835Y-46665D02*
X53864Y-46665D01*
X53892Y-46684D01*
X53906Y-46703D01*
X53920Y-46741D01*
X53934Y-46816D01*
X53934Y-46909D01*
X53920Y-46984D01*
X53906Y-47022D01*
X53892Y-47041D01*
X53864Y-47059D01*
X53835Y-47059D01*
X53807Y-47041D01*
X53793Y-47022D01*
X53779Y-46984D01*
X53765Y-46909D01*
X53765Y-46816D01*
X53779Y-46741D01*
X53793Y-46703D01*
X53807Y-46684D01*
X53835Y-46665D01*
X54060Y-47059D02*
X54060Y-46665D01*
X54060Y-46816D02*
X54088Y-46797D01*
X54145Y-46797D01*
X54173Y-46816D01*
X54187Y-46834D01*
X54201Y-46872D01*
X54201Y-46984D01*
X54187Y-47022D01*
X54173Y-47041D01*
X54145Y-47059D01*
X54088Y-47059D01*
X54060Y-47041D01*
X54482Y-47059D02*
X54313Y-47059D01*
X54397Y-47059D02*
X54397Y-46665D01*
X54369Y-46722D01*
X54341Y-46759D01*
X54313Y-46778D01*
G54D13*
X50273Y-31759D02*
X50273Y-31365D01*
X50343Y-31365D01*
X50386Y-31384D01*
X50414Y-31422D01*
X50428Y-31459D01*
X50442Y-31534D01*
X50442Y-31591D01*
X50428Y-31666D01*
X50414Y-31703D01*
X50386Y-31741D01*
X50343Y-31759D01*
X50273Y-31759D01*
X50695Y-31759D02*
X50695Y-31553D01*
X50681Y-31516D01*
X50653Y-31497D01*
X50596Y-31497D01*
X50568Y-31516D01*
X50695Y-31741D02*
X50667Y-31759D01*
X50596Y-31759D01*
X50568Y-31741D01*
X50554Y-31703D01*
X50554Y-31666D01*
X50568Y-31628D01*
X50596Y-31609D01*
X50667Y-31609D01*
X50695Y-31591D01*
X50807Y-31497D02*
X50877Y-31759D01*
X50948Y-31497D01*
X51060Y-31759D02*
X51060Y-31497D01*
X51060Y-31365D02*
X51046Y-31384D01*
X51060Y-31403D01*
X51074Y-31384D01*
X51060Y-31365D01*
X51060Y-31403D01*
X51327Y-31759D02*
X51327Y-31365D01*
X51327Y-31741D02*
X51299Y-31759D01*
X51242Y-31759D01*
X51214Y-31741D01*
X51200Y-31722D01*
X51186Y-31684D01*
X51186Y-31572D01*
X51200Y-31534D01*
X51214Y-31516D01*
X51242Y-31497D01*
X51299Y-31497D01*
X51327Y-31516D01*
X51678Y-31647D02*
X51819Y-31647D01*
X51650Y-31759D02*
X51748Y-31365D01*
X51847Y-31759D01*
X51945Y-31497D02*
X51945Y-31759D01*
X51945Y-31534D02*
X51959Y-31516D01*
X51987Y-31497D01*
X52030Y-31497D01*
X52058Y-31516D01*
X52072Y-31553D01*
X52072Y-31759D01*
X52170Y-31497D02*
X52282Y-31497D01*
X52212Y-31365D02*
X52212Y-31703D01*
X52226Y-31741D01*
X52254Y-31759D01*
X52282Y-31759D01*
X52423Y-31759D02*
X52395Y-31741D01*
X52381Y-31722D01*
X52367Y-31684D01*
X52367Y-31572D01*
X52381Y-31534D01*
X52395Y-31516D01*
X52423Y-31497D01*
X52466Y-31497D01*
X52494Y-31516D01*
X52508Y-31534D01*
X52522Y-31572D01*
X52522Y-31684D01*
X52508Y-31722D01*
X52494Y-31741D01*
X52466Y-31759D01*
X52423Y-31759D01*
X52480Y-31347D02*
X52437Y-31403D01*
X52648Y-31497D02*
X52648Y-31759D01*
X52648Y-31534D02*
X52662Y-31516D01*
X52690Y-31497D01*
X52733Y-31497D01*
X52761Y-31516D01*
X52775Y-31553D01*
X52775Y-31759D01*
X53126Y-31741D02*
X53168Y-31759D01*
X53239Y-31759D01*
X53267Y-31741D01*
X53281Y-31722D01*
X53295Y-31684D01*
X53295Y-31647D01*
X53281Y-31609D01*
X53267Y-31591D01*
X53239Y-31572D01*
X53182Y-31553D01*
X53154Y-31534D01*
X53140Y-31516D01*
X53126Y-31478D01*
X53126Y-31441D01*
X53140Y-31403D01*
X53154Y-31384D01*
X53182Y-31365D01*
X53253Y-31365D01*
X53295Y-31384D01*
X53548Y-31759D02*
X53548Y-31553D01*
X53534Y-31516D01*
X53506Y-31497D01*
X53449Y-31497D01*
X53421Y-31516D01*
X53548Y-31741D02*
X53520Y-31759D01*
X53449Y-31759D01*
X53421Y-31741D01*
X53407Y-31703D01*
X53407Y-31666D01*
X53421Y-31628D01*
X53449Y-31609D01*
X53520Y-31609D01*
X53548Y-31591D01*
X53506Y-31347D02*
X53463Y-31403D01*
X53688Y-31497D02*
X53688Y-31759D01*
X53688Y-31534D02*
X53702Y-31516D01*
X53730Y-31497D01*
X53773Y-31497D01*
X53801Y-31516D01*
X53815Y-31553D01*
X53815Y-31759D01*
X54082Y-31741D02*
X54054Y-31759D01*
X53997Y-31759D01*
X53969Y-31741D01*
X53955Y-31722D01*
X53941Y-31684D01*
X53941Y-31572D01*
X53955Y-31534D01*
X53969Y-31516D01*
X53997Y-31497D01*
X54054Y-31497D01*
X54082Y-31516D01*
X54208Y-31759D02*
X54208Y-31365D01*
X54335Y-31759D02*
X54335Y-31553D01*
X54321Y-31516D01*
X54293Y-31497D01*
X54250Y-31497D01*
X54222Y-31516D01*
X54208Y-31534D01*
X54588Y-31741D02*
X54560Y-31759D01*
X54503Y-31759D01*
X54475Y-31741D01*
X54461Y-31703D01*
X54461Y-31553D01*
X54475Y-31516D01*
X54503Y-31497D01*
X54560Y-31497D01*
X54588Y-31516D01*
X54602Y-31553D01*
X54602Y-31591D01*
X54461Y-31628D01*
X54700Y-31497D02*
X54855Y-31497D01*
X54700Y-31759D01*
X54855Y-31759D01*
G54D14*
X55880Y-47057D02*
X55880Y-46545D01*
X55880Y-47033D02*
X55846Y-47057D01*
X55779Y-47057D01*
X55745Y-47033D01*
X55728Y-47008D01*
X55711Y-46960D01*
X55711Y-46813D01*
X55728Y-46765D01*
X55745Y-46740D01*
X55779Y-46716D01*
X55846Y-46716D01*
X55880Y-46740D01*
X56031Y-47033D02*
X56065Y-47057D01*
X56133Y-47057D01*
X56166Y-47033D01*
X56183Y-46984D01*
X56183Y-46960D01*
X56166Y-46911D01*
X56133Y-46887D01*
X56082Y-46887D01*
X56048Y-46862D01*
X56031Y-46813D01*
X56031Y-46789D01*
X56048Y-46740D01*
X56082Y-46716D01*
X56133Y-46716D01*
X56166Y-46740D01*
X56487Y-46716D02*
X56487Y-47228D01*
X56487Y-47033D02*
X56453Y-47057D01*
X56386Y-47057D01*
X56352Y-47033D01*
X56335Y-47008D01*
X56318Y-46960D01*
X56318Y-46813D01*
X56335Y-46765D01*
X56352Y-46740D01*
X56386Y-46716D01*
X56453Y-46716D01*
X56487Y-46740D01*
X56807Y-46716D02*
X56807Y-47057D01*
X56655Y-46716D02*
X56655Y-46984D01*
X56672Y-47033D01*
X56706Y-47057D01*
X56756Y-47057D01*
X56790Y-47033D01*
X56807Y-47008D01*
X57127Y-47057D02*
X57127Y-46789D01*
X57110Y-46740D01*
X57076Y-46716D01*
X57009Y-46716D01*
X56975Y-46740D01*
X57127Y-47033D02*
X57093Y-47057D01*
X57009Y-47057D01*
X56975Y-47033D01*
X56958Y-46984D01*
X56958Y-46935D01*
X56975Y-46887D01*
X57009Y-46862D01*
X57093Y-46862D01*
X57127Y-46838D01*
X57295Y-47057D02*
X57295Y-46716D01*
X57295Y-46813D02*
X57312Y-46765D01*
X57329Y-46740D01*
X57363Y-46716D01*
X57396Y-46716D01*
X57649Y-47033D02*
X57615Y-47057D01*
X57548Y-47057D01*
X57514Y-47033D01*
X57497Y-46984D01*
X57497Y-46789D01*
X57514Y-46740D01*
X57548Y-46716D01*
X57615Y-46716D01*
X57649Y-46740D01*
X57666Y-46789D01*
X57666Y-46838D01*
X57497Y-46887D01*
X57969Y-47057D02*
X57969Y-46545D01*
X57969Y-47033D02*
X57935Y-47057D01*
X57868Y-47057D01*
X57834Y-47033D01*
X57817Y-47008D01*
X57800Y-46960D01*
X57800Y-46813D01*
X57817Y-46765D01*
X57834Y-46740D01*
X57868Y-46716D01*
X57935Y-46716D01*
X57969Y-46740D01*
X58137Y-47057D02*
X58137Y-46716D01*
X58137Y-46813D02*
X58154Y-46765D01*
X58171Y-46740D01*
X58205Y-46716D01*
X58238Y-46716D01*
X58407Y-47057D02*
X58373Y-47033D01*
X58356Y-47008D01*
X58339Y-46960D01*
X58339Y-46813D01*
X58356Y-46765D01*
X58373Y-46740D01*
X58407Y-46716D01*
X58457Y-46716D01*
X58491Y-46740D01*
X58508Y-46765D01*
X58525Y-46813D01*
X58525Y-46960D01*
X58508Y-47008D01*
X58491Y-47033D01*
X58457Y-47057D01*
X58407Y-47057D01*
X58676Y-47057D02*
X58676Y-46545D01*
X58676Y-46740D02*
X58710Y-46716D01*
X58777Y-46716D01*
X58811Y-46740D01*
X58828Y-46765D01*
X58845Y-46813D01*
X58845Y-46960D01*
X58828Y-47008D01*
X58811Y-47033D01*
X58777Y-47057D01*
X58710Y-47057D01*
X58676Y-47033D01*
X59047Y-47057D02*
X59013Y-47033D01*
X58996Y-47008D01*
X58979Y-46960D01*
X58979Y-46813D01*
X58996Y-46765D01*
X59013Y-46740D01*
X59047Y-46716D01*
X59097Y-46716D01*
X59131Y-46740D01*
X59148Y-46765D01*
X59165Y-46813D01*
X59165Y-46960D01*
X59148Y-47008D01*
X59131Y-47033D01*
X59097Y-47057D01*
X59047Y-47057D01*
X59266Y-46716D02*
X59401Y-46716D01*
X59316Y-46545D02*
X59316Y-46984D01*
X59333Y-47033D01*
X59367Y-47057D01*
X59401Y-47057D01*
X59518Y-47057D02*
X59518Y-46716D01*
X59518Y-46545D02*
X59501Y-46570D01*
X59518Y-46594D01*
X59535Y-46570D01*
X59518Y-46545D01*
X59518Y-46594D01*
X59839Y-47033D02*
X59805Y-47057D01*
X59738Y-47057D01*
X59704Y-47033D01*
X59687Y-47008D01*
X59670Y-46960D01*
X59670Y-46813D01*
X59687Y-46765D01*
X59704Y-46740D01*
X59738Y-46716D01*
X59805Y-46716D01*
X59839Y-46740D01*
X59973Y-47033D02*
X60007Y-47057D01*
X60075Y-47057D01*
X60108Y-47033D01*
X60125Y-46984D01*
X60125Y-46960D01*
X60108Y-46911D01*
X60075Y-46887D01*
X60024Y-46887D01*
X59990Y-46862D01*
X59973Y-46813D01*
X59973Y-46789D01*
X59990Y-46740D01*
X60024Y-46716D01*
X60075Y-46716D01*
X60108Y-46740D01*
X60277Y-47008D02*
X60294Y-47033D01*
X60277Y-47057D01*
X60260Y-47033D01*
X60277Y-47008D01*
X60277Y-47057D01*
X60598Y-47033D02*
X60564Y-47057D01*
X60497Y-47057D01*
X60463Y-47033D01*
X60446Y-47008D01*
X60429Y-46960D01*
X60429Y-46813D01*
X60446Y-46765D01*
X60463Y-46740D01*
X60497Y-46716D01*
X60564Y-46716D01*
X60598Y-46740D01*
X60800Y-47057D02*
X60766Y-47033D01*
X60749Y-47008D01*
X60732Y-46960D01*
X60732Y-46813D01*
X60749Y-46765D01*
X60766Y-46740D01*
X60800Y-46716D01*
X60850Y-46716D01*
X60884Y-46740D01*
X60901Y-46765D01*
X60918Y-46813D01*
X60918Y-46960D01*
X60901Y-47008D01*
X60884Y-47033D01*
X60850Y-47057D01*
X60800Y-47057D01*
X61069Y-47057D02*
X61069Y-46716D01*
X61069Y-46765D02*
X61086Y-46740D01*
X61120Y-46716D01*
X61170Y-46716D01*
X61204Y-46740D01*
X61221Y-46789D01*
X61221Y-47057D01*
X61221Y-46789D02*
X61238Y-46740D01*
X61272Y-46716D01*
X61322Y-46716D01*
X61356Y-46740D01*
X61373Y-46789D01*
X61373Y-47057D01*
G54D11*
X50276Y-32409D02*
X50276Y-32015D01*
X50346Y-32015D01*
X50389Y-32034D01*
X50417Y-32072D01*
X50431Y-32109D01*
X50445Y-32184D01*
X50445Y-32241D01*
X50431Y-32316D01*
X50417Y-32353D01*
X50389Y-32391D01*
X50346Y-32409D01*
X50276Y-32409D01*
X50698Y-32409D02*
X50698Y-32203D01*
X50684Y-32166D01*
X50656Y-32147D01*
X50599Y-32147D01*
X50571Y-32166D01*
X50698Y-32391D02*
X50670Y-32409D01*
X50599Y-32409D01*
X50571Y-32391D01*
X50557Y-32353D01*
X50557Y-32316D01*
X50571Y-32278D01*
X50599Y-32259D01*
X50670Y-32259D01*
X50698Y-32241D01*
X50810Y-32147D02*
X50880Y-32409D01*
X50951Y-32147D01*
X51063Y-32409D02*
X51063Y-32147D01*
X51063Y-32015D02*
X51049Y-32034D01*
X51063Y-32053D01*
X51077Y-32034D01*
X51063Y-32015D01*
X51063Y-32053D01*
X51330Y-32409D02*
X51330Y-32015D01*
X51330Y-32391D02*
X51302Y-32409D01*
X51245Y-32409D01*
X51217Y-32391D01*
X51203Y-32372D01*
X51189Y-32334D01*
X51189Y-32222D01*
X51203Y-32184D01*
X51217Y-32166D01*
X51245Y-32147D01*
X51302Y-32147D01*
X51330Y-32166D01*
X51695Y-32203D02*
X51794Y-32203D01*
X51836Y-32409D02*
X51695Y-32409D01*
X51695Y-32015D01*
X51836Y-32015D01*
X51948Y-32391D02*
X51976Y-32409D01*
X52032Y-32409D01*
X52061Y-32391D01*
X52075Y-32353D01*
X52075Y-32334D01*
X52061Y-32297D01*
X52032Y-32278D01*
X51990Y-32278D01*
X51962Y-32259D01*
X51948Y-32222D01*
X51948Y-32203D01*
X51962Y-32166D01*
X51990Y-32147D01*
X52032Y-32147D01*
X52061Y-32166D01*
X52159Y-32147D02*
X52271Y-32147D01*
X52201Y-32015D02*
X52201Y-32353D01*
X52215Y-32391D01*
X52243Y-32409D01*
X52271Y-32409D01*
X52483Y-32391D02*
X52455Y-32409D01*
X52398Y-32409D01*
X52370Y-32391D01*
X52356Y-32353D01*
X52356Y-32203D01*
X52370Y-32166D01*
X52398Y-32147D01*
X52455Y-32147D01*
X52483Y-32166D01*
X52497Y-32203D01*
X52497Y-32241D01*
X52356Y-32278D01*
X52455Y-31997D02*
X52412Y-32053D01*
X52595Y-32147D02*
X52665Y-32409D01*
X52736Y-32147D01*
X52961Y-32391D02*
X52933Y-32409D01*
X52876Y-32409D01*
X52848Y-32391D01*
X52834Y-32353D01*
X52834Y-32203D01*
X52848Y-32166D01*
X52876Y-32147D01*
X52933Y-32147D01*
X52961Y-32166D01*
X52975Y-32203D01*
X52975Y-32241D01*
X52834Y-32278D01*
X53073Y-32147D02*
X53228Y-32147D01*
X53073Y-32409D01*
X53228Y-32409D01*
X53664Y-32203D02*
X53565Y-32203D01*
X53565Y-32409D02*
X53565Y-32015D01*
X53706Y-32015D01*
X53931Y-32391D02*
X53903Y-32409D01*
X53846Y-32409D01*
X53818Y-32391D01*
X53804Y-32353D01*
X53804Y-32203D01*
X53818Y-32166D01*
X53846Y-32147D01*
X53903Y-32147D01*
X53931Y-32166D01*
X53945Y-32203D01*
X53945Y-32241D01*
X53804Y-32278D01*
X54071Y-32409D02*
X54071Y-32147D01*
X54071Y-32222D02*
X54085Y-32184D01*
X54099Y-32166D01*
X54127Y-32147D01*
X54156Y-32147D01*
X54254Y-32147D02*
X54254Y-32409D01*
X54254Y-32184D02*
X54268Y-32166D01*
X54296Y-32147D01*
X54339Y-32147D01*
X54367Y-32166D01*
X54381Y-32203D01*
X54381Y-32409D01*
X54648Y-32409D02*
X54648Y-32203D01*
X54634Y-32166D01*
X54606Y-32147D01*
X54549Y-32147D01*
X54521Y-32166D01*
X54648Y-32391D02*
X54620Y-32409D01*
X54549Y-32409D01*
X54521Y-32391D01*
X54507Y-32353D01*
X54507Y-32316D01*
X54521Y-32278D01*
X54549Y-32259D01*
X54620Y-32259D01*
X54648Y-32241D01*
X54606Y-31997D02*
X54563Y-32053D01*
X54788Y-32147D02*
X54788Y-32409D01*
X54788Y-32184D02*
X54802Y-32166D01*
X54830Y-32147D01*
X54873Y-32147D01*
X54901Y-32166D01*
X54915Y-32203D01*
X54915Y-32409D01*
X55182Y-32409D02*
X55182Y-32015D01*
X55182Y-32391D02*
X55154Y-32409D01*
X55097Y-32409D01*
X55069Y-32391D01*
X55055Y-32372D01*
X55041Y-32334D01*
X55041Y-32222D01*
X55055Y-32184D01*
X55069Y-32166D01*
X55097Y-32147D01*
X55154Y-32147D01*
X55182Y-32166D01*
X55435Y-32391D02*
X55407Y-32409D01*
X55350Y-32409D01*
X55322Y-32391D01*
X55308Y-32353D01*
X55308Y-32203D01*
X55322Y-32166D01*
X55350Y-32147D01*
X55407Y-32147D01*
X55435Y-32166D01*
X55449Y-32203D01*
X55449Y-32241D01*
X55308Y-32278D01*
X55547Y-32147D02*
X55702Y-32147D01*
X55547Y-32409D01*
X55702Y-32409D01*
G54D15*
X67250Y-28250D02*
X49750Y-28250D01*
X68250Y-46750D02*
X68250Y-29250D01*
X68250Y-29250D02*
X68246Y-29163D01*
X68234Y-29077D01*
X68215Y-28992D01*
X68189Y-28908D01*
X68156Y-28828D01*
X68116Y-28751D01*
X68069Y-28677D01*
X68016Y-28608D01*
X67957Y-28543D01*
X67892Y-28484D01*
X67823Y-28431D01*
X67750Y-28384D01*
X67672Y-28344D01*
X67592Y-28311D01*
X67508Y-28285D01*
X67423Y-28266D01*
X67337Y-28254D01*
X67250Y-28250D01*
X50000Y-47750D02*
X67250Y-47750D01*
X48750Y-46500D02*
X48750Y-29250D01*
X48750Y-46500D02*
X48755Y-46608D01*
X48769Y-46717D01*
X48793Y-46823D01*
X48826Y-46927D01*
X48868Y-47028D01*
X48918Y-47124D01*
X48977Y-47216D01*
X49043Y-47303D01*
X49117Y-47383D01*
X49197Y-47457D01*
X49284Y-47523D01*
X49376Y-47582D01*
X49472Y-47632D01*
X49573Y-47674D01*
X49677Y-47707D01*
X49783Y-47731D01*
X49892Y-47745D01*
X50000Y-47750D01*
X67250Y-47750D02*
X67337Y-47746D01*
X67423Y-47734D01*
X67508Y-47715D01*
X67592Y-47689D01*
X67672Y-47656D01*
X67750Y-47616D01*
X67823Y-47569D01*
X67892Y-47516D01*
X67957Y-47457D01*
X68016Y-47392D01*
X68069Y-47323D01*
X68116Y-47249D01*
X68156Y-47172D01*
X68189Y-47092D01*
X68215Y-47008D01*
X68234Y-46923D01*
X68246Y-46837D01*
X68250Y-46750D01*
X49750Y-28250D02*
X49663Y-28254D01*
X49577Y-28266D01*
X49492Y-28285D01*
X49408Y-28311D01*
X49328Y-28344D01*
X49251Y-28384D01*
X49177Y-28431D01*
X49108Y-28484D01*
X49043Y-28543D01*
X48984Y-28608D01*
X48931Y-28677D01*
X48884Y-28751D01*
X48844Y-28828D01*
X48811Y-28908D01*
X48785Y-28992D01*
X48766Y-29077D01*
X48754Y-29163D01*
X48750Y-29250D01*
G54D16*
X50800Y-42550D02*
X50400Y-42550D01*
X50400Y-42550D02*
X50400Y-41950D01*
X50400Y-41950D02*
X50800Y-41950D01*
X51200Y-41950D02*
X51600Y-41950D01*
X51600Y-41950D02*
X51600Y-42550D01*
X51600Y-42550D02*
X51200Y-42550D01*
X50800Y-40800D02*
X50400Y-40800D01*
X50400Y-40800D02*
X50400Y-40200D01*
X50400Y-40200D02*
X50800Y-40200D01*
X51200Y-40200D02*
X51600Y-40200D01*
X51600Y-40200D02*
X51600Y-40800D01*
X51600Y-40800D02*
X51200Y-40800D01*
G54D17*
X63004Y-38856D02*
X62335Y-38856D01*
X63004Y-39644D02*
X62335Y-39644D01*
X61094Y-38856D02*
X61665Y-38856D01*
X61094Y-39644D02*
X61665Y-39644D01*
X63004Y-38856D02*
X63004Y-39644D01*
X62965Y-39644D02*
X62965Y-38856D01*
X61094Y-38856D02*
X61094Y-39644D01*
X62906Y-38856D02*
X62906Y-39644D01*
G54D18*
G36*
X52232Y-35388D02*
X52232Y-35388D01*
X52232Y-35388D01*
X52232Y-35388D01*
X52232Y-35388D01*
X52232Y-35388D01*
X52232Y-35388D01*
X52232Y-35388D01*
X52232Y-35388D01*
X52232Y-35388D01*
X52232Y-35388D01*
X52232Y-35388D01*
X52232Y-35388D01*
X52232Y-35388D01*
X52232Y-35388D01*
G37*
G36*
X60287Y-34983D02*
X60287Y-34983D01*
X60287Y-34983D01*
X60287Y-34983D01*
X60287Y-34983D01*
X60287Y-34983D01*
X60287Y-34983D01*
X60287Y-34983D01*
X60287Y-34983D01*
X60287Y-34983D01*
X60287Y-34983D01*
X60287Y-34983D01*
X60287Y-34983D01*
X60287Y-34983D01*
X60287Y-34983D01*
X60287Y-34983D01*
X60287Y-34983D01*
X60287Y-34983D01*
X60287Y-34983D01*
X60287Y-34983D01*
G37*
G36*
X53831Y-34972D02*
X53831Y-34972D01*
X53831Y-34972D01*
X53831Y-34972D01*
X53831Y-34972D01*
X53831Y-34972D01*
X53831Y-34972D01*
X53831Y-34972D01*
X53831Y-34972D01*
X53831Y-34972D01*
X53831Y-34972D01*
X53831Y-34972D01*
X53831Y-34972D01*
X53831Y-34972D01*
X53831Y-34972D01*
X53831Y-34972D01*
X53831Y-34972D01*
X53831Y-34972D01*
X53831Y-34972D01*
X53831Y-34972D01*
X53831Y-34972D01*
X53831Y-34972D01*
X53831Y-34972D01*
X53831Y-34972D01*
X53831Y-34972D01*
X53831Y-34972D01*
X53831Y-34972D01*
X53831Y-34972D01*
X53831Y-34972D01*
X53831Y-34972D01*
X53831Y-34972D01*
X53831Y-34972D01*
X53831Y-34972D01*
X53831Y-34972D01*
G37*
G36*
X59094Y-34972D02*
X59094Y-34972D01*
X59094Y-34972D01*
X59094Y-34972D01*
X59094Y-34972D01*
X59094Y-34972D01*
X59094Y-34972D01*
X59094Y-34972D01*
X59094Y-34972D01*
X59094Y-34972D01*
X59094Y-34972D01*
X59094Y-34972D01*
X59094Y-34972D01*
X59094Y-34972D01*
X59094Y-34972D01*
X59094Y-34972D01*
X59094Y-34972D01*
X59094Y-34972D01*
X59094Y-34972D01*
X59094Y-34972D01*
X59094Y-34972D01*
X59094Y-34972D01*
X59094Y-34972D01*
X59094Y-34972D01*
X59094Y-34972D01*
X59094Y-34972D01*
X59094Y-34972D01*
X59094Y-34972D01*
X59094Y-34972D01*
X59094Y-34972D01*
X59094Y-34972D01*
X59094Y-34972D01*
X59094Y-34972D01*
X59094Y-34972D01*
G37*
G36*
X54992Y-34956D02*
X54992Y-34956D01*
X54992Y-34956D01*
X54992Y-34956D01*
X54992Y-34956D01*
X54992Y-34956D01*
X54992Y-34956D01*
X54992Y-34956D01*
X54992Y-34956D01*
X54992Y-34956D01*
X54992Y-34956D01*
X54992Y-34956D01*
X54992Y-34956D01*
X54992Y-34956D01*
X54992Y-34956D01*
X54992Y-34956D01*
X54992Y-34956D01*
X54992Y-34956D01*
X54992Y-34956D01*
X54992Y-34956D01*
X54992Y-34956D01*
X54992Y-34956D01*
X54992Y-34956D01*
X54992Y-34956D01*
X54992Y-34956D01*
X54992Y-34956D01*
X54992Y-34956D01*
X54992Y-34956D01*
X54992Y-34956D01*
X54992Y-34956D01*
X54992Y-34956D01*
X54992Y-34956D01*
X54992Y-34956D01*
X54992Y-34956D01*
X54992Y-34956D01*
X54992Y-34956D01*
X54992Y-34956D01*
X54992Y-34956D01*
X54992Y-34956D01*
X54992Y-34956D01*
X54992Y-34956D01*
X54992Y-34956D01*
X54992Y-34956D01*
X54992Y-34956D01*
X54992Y-34956D01*
X54992Y-34956D01*
G37*
G36*
X58200Y-34964D02*
X58200Y-34964D01*
X58200Y-34964D01*
X58200Y-34964D01*
X58200Y-34964D01*
X58200Y-34964D01*
X58200Y-34964D01*
X58200Y-34964D01*
X58200Y-34964D01*
X58200Y-34964D01*
X58200Y-34964D01*
X58200Y-34964D01*
X58200Y-34964D01*
X58200Y-34964D01*
X58200Y-34964D01*
X58200Y-34964D01*
X58200Y-34964D01*
X58200Y-34964D01*
X58200Y-34964D01*
X58200Y-34964D01*
X58200Y-34964D01*
X58200Y-34964D01*
X58200Y-34964D01*
X58200Y-34964D01*
X58200Y-34964D01*
X58200Y-34964D01*
X58200Y-34964D01*
X58200Y-34964D01*
X58200Y-34964D01*
X58200Y-34964D01*
X58200Y-34964D01*
X58200Y-34964D01*
X58200Y-34964D01*
X58200Y-34964D01*
X58200Y-34964D01*
X58200Y-34964D01*
X58200Y-34964D01*
X58200Y-34964D01*
X58200Y-34964D01*
X58200Y-34964D01*
G37*
G36*
X59371Y-34956D02*
X59371Y-34956D01*
X59371Y-34956D01*
X59371Y-34956D01*
X59371Y-34956D01*
X59371Y-34956D01*
X59371Y-34956D01*
X59371Y-34956D01*
X59371Y-34956D01*
X59371Y-34956D01*
X59371Y-34956D01*
X59371Y-34956D01*
X59371Y-34956D01*
X59371Y-34956D01*
X59371Y-34956D01*
X59371Y-34956D01*
X59371Y-34956D01*
X59371Y-34956D01*
X59371Y-34956D01*
X59371Y-34956D01*
X59371Y-34956D01*
X59371Y-34956D01*
X59371Y-34956D01*
X59371Y-34956D01*
X59371Y-34956D01*
X59371Y-34956D01*
X59371Y-34956D01*
X59371Y-34956D01*
X59371Y-34956D01*
X59371Y-34956D01*
X59371Y-34956D01*
X59371Y-34956D01*
X59371Y-34956D01*
X59371Y-34956D01*
X59371Y-34956D01*
X59371Y-34956D01*
X59371Y-34956D01*
X59371Y-34956D01*
X59371Y-34956D01*
X59371Y-34956D01*
X59371Y-34956D01*
X59371Y-34956D01*
X59371Y-34956D01*
X59371Y-34956D01*
X59371Y-34956D01*
X59371Y-34956D01*
G37*
G36*
X53286Y-34953D02*
X53286Y-34953D01*
X53286Y-34953D01*
X53286Y-34953D01*
X53286Y-34953D01*
X53286Y-34953D01*
X53286Y-34953D01*
X53286Y-34953D01*
X53286Y-34953D01*
X53286Y-34953D01*
X53286Y-34953D01*
X53286Y-34953D01*
X53286Y-34953D01*
X53286Y-34953D01*
X53286Y-34953D01*
X53286Y-34953D01*
X53286Y-34953D01*
X53286Y-34953D01*
X53286Y-34953D01*
X53286Y-34953D01*
X53286Y-34953D01*
X53286Y-34953D01*
X53286Y-34953D01*
X53286Y-34953D01*
X53286Y-34953D01*
X53286Y-34953D01*
X53286Y-34953D01*
X53286Y-34953D01*
X53286Y-34953D01*
X53286Y-34953D01*
X53286Y-34953D01*
X53286Y-34953D01*
X53286Y-34953D01*
X53286Y-34953D01*
X53286Y-34953D01*
X53286Y-34953D01*
X53286Y-34953D01*
G37*
G36*
X55819Y-34953D02*
X55819Y-34953D01*
X55819Y-34953D01*
X55819Y-34953D01*
X55819Y-34953D01*
X55819Y-34953D01*
X55819Y-34953D01*
X55819Y-34953D01*
X55819Y-34953D01*
X55819Y-34953D01*
X55819Y-34953D01*
X55819Y-34953D01*
X55819Y-34953D01*
X55819Y-34953D01*
X55819Y-34953D01*
X55819Y-34953D01*
X55819Y-34953D01*
X55819Y-34953D01*
X55819Y-34953D01*
X55819Y-34953D01*
G37*
G36*
X56790Y-34956D02*
X56790Y-34956D01*
X56790Y-34956D01*
X56790Y-34956D01*
X56790Y-34956D01*
X56790Y-34956D01*
X56790Y-34956D01*
X56790Y-34956D01*
X56790Y-34956D01*
X56790Y-34956D01*
X56790Y-34956D01*
X56790Y-34956D01*
X56790Y-34956D01*
X56790Y-34956D01*
X56790Y-34956D01*
X56790Y-34956D01*
X56790Y-34956D01*
X56790Y-34956D01*
X56790Y-34956D01*
X56790Y-34956D01*
X56790Y-34956D01*
X56790Y-34956D01*
X56790Y-34956D01*
X56790Y-34956D01*
X56790Y-34956D01*
X56790Y-34956D01*
X56790Y-34956D01*
X56790Y-34956D01*
X56790Y-34956D01*
X56790Y-34956D01*
X56790Y-34956D01*
X56790Y-34956D01*
X56790Y-34956D01*
X56790Y-34956D01*
X56790Y-34956D01*
X56790Y-34956D01*
X56790Y-34956D01*
X56790Y-34956D01*
G37*
G36*
X58537Y-34953D02*
X58537Y-34953D01*
X58537Y-34953D01*
X58537Y-34953D01*
X58537Y-34953D01*
X58537Y-34953D01*
X58537Y-34953D01*
X58537Y-34953D01*
X58537Y-34953D01*
X58537Y-34953D01*
X58537Y-34953D01*
X58537Y-34953D01*
X58537Y-34953D01*
X58537Y-34953D01*
X58537Y-34953D01*
X58537Y-34953D01*
X58537Y-34953D01*
X58537Y-34953D01*
X58537Y-34953D01*
X58537Y-34953D01*
X58537Y-34953D01*
X58537Y-34953D01*
X58537Y-34953D01*
X58537Y-34953D01*
X58537Y-34953D01*
X58537Y-34953D01*
X58537Y-34953D01*
X58537Y-34953D01*
X58537Y-34953D01*
X58537Y-34953D01*
X58537Y-34953D01*
X58537Y-34953D01*
X58537Y-34953D01*
X58537Y-34953D01*
X58537Y-34953D01*
X58537Y-34953D01*
G37*
G36*
X54496Y-34938D02*
X54496Y-34938D01*
X54496Y-34938D01*
X54496Y-34938D01*
X54496Y-34938D01*
X54496Y-34938D01*
X54496Y-34938D01*
X54496Y-34938D01*
X54496Y-34938D01*
X54496Y-34938D01*
X54496Y-34938D01*
X54496Y-34938D01*
X54496Y-34938D01*
X54496Y-34938D01*
X54496Y-34938D01*
X54496Y-34938D01*
X54496Y-34938D01*
X54496Y-34938D01*
X54496Y-34938D01*
X54496Y-34938D01*
X54496Y-34938D01*
X54496Y-34938D01*
X54496Y-34938D01*
X54496Y-34938D01*
X54496Y-34938D01*
X54496Y-34938D01*
X54496Y-34938D01*
X54496Y-34938D01*
X54496Y-34938D01*
X54496Y-34938D01*
X54496Y-34938D01*
X54496Y-34938D01*
X54496Y-34938D01*
X54496Y-34938D01*
X54496Y-34938D01*
X54496Y-34938D01*
X54496Y-34938D01*
X54496Y-34938D01*
X54496Y-34938D01*
X54496Y-34938D01*
X54496Y-34938D01*
X54496Y-34938D01*
X54496Y-34938D01*
X54496Y-34938D01*
X54496Y-34938D01*
X54496Y-34938D01*
X54496Y-34938D01*
X54496Y-34938D01*
X54496Y-34938D01*
X54496Y-34938D01*
X54496Y-34938D01*
X54496Y-34938D01*
X54496Y-34938D01*
G37*
G36*
X57293Y-34945D02*
X57293Y-34945D01*
X57293Y-34945D01*
X57293Y-34945D01*
X57293Y-34945D01*
X57293Y-34945D01*
X57293Y-34945D01*
X57293Y-34945D01*
X57293Y-34945D01*
X57293Y-34945D01*
G37*
G36*
X57889Y-34945D02*
X57889Y-34945D01*
X57889Y-34945D01*
X57889Y-34945D01*
X57889Y-34945D01*
X57889Y-34945D01*
X57889Y-34945D01*
X57889Y-34945D01*
X57889Y-34945D01*
X57889Y-34945D01*
X57889Y-34945D01*
X57889Y-34945D01*
X57889Y-34945D01*
X57889Y-34945D01*
X57889Y-34945D01*
X57889Y-34945D01*
X57889Y-34945D01*
X57889Y-34945D01*
X57889Y-34945D01*
X57889Y-34945D01*
X57889Y-34945D01*
X57889Y-34945D01*
X57889Y-34945D01*
X57889Y-34945D01*
X57889Y-34945D01*
X57889Y-34945D01*
X57889Y-34945D01*
X57889Y-34945D01*
X57889Y-34945D01*
X57889Y-34945D01*
X57889Y-34945D01*
X57889Y-34945D01*
X57889Y-34945D01*
X57889Y-34945D01*
X57889Y-34945D01*
G37*
G36*
X59750Y-34938D02*
X59750Y-34938D01*
X59750Y-34938D01*
X59750Y-34938D01*
X59750Y-34938D01*
X59750Y-34938D01*
X59750Y-34938D01*
X59750Y-34938D01*
X59750Y-34938D01*
X59750Y-34938D01*
X59750Y-34938D01*
X59750Y-34938D01*
X59750Y-34938D01*
X59750Y-34938D01*
X59750Y-34938D01*
X59750Y-34938D01*
X59750Y-34938D01*
X59750Y-34938D01*
X59750Y-34938D01*
X59750Y-34938D01*
X59750Y-34938D01*
X59750Y-34938D01*
X59750Y-34938D01*
X59750Y-34938D01*
X59750Y-34938D01*
X59750Y-34938D01*
X59750Y-34938D01*
X59750Y-34938D01*
X59750Y-34938D01*
X59750Y-34938D01*
X59750Y-34938D01*
X59750Y-34938D01*
X59750Y-34938D01*
X59750Y-34938D01*
X59750Y-34938D01*
X59750Y-34938D01*
X59750Y-34938D01*
X59750Y-34938D01*
X59750Y-34938D01*
X59750Y-34938D01*
X59750Y-34938D01*
X59750Y-34938D01*
X59750Y-34938D01*
X59750Y-34938D01*
X59750Y-34938D01*
X59750Y-34938D01*
X59750Y-34938D01*
X59750Y-34938D01*
X59750Y-34938D01*
X59750Y-34938D01*
X59750Y-34938D01*
X59750Y-34938D01*
X59750Y-34938D01*
G37*
G36*
X58014Y-34923D02*
X58014Y-34923D01*
X58014Y-34923D01*
X58014Y-34923D01*
X58014Y-34923D01*
X58014Y-34923D01*
X58014Y-34923D01*
X58014Y-34923D01*
X58014Y-34923D01*
X58014Y-34923D01*
X58014Y-34923D01*
X58014Y-34923D01*
X58014Y-34923D01*
X58014Y-34923D01*
X58014Y-34923D01*
X58014Y-34923D01*
X58014Y-34923D01*
X58014Y-34923D01*
G37*
G36*
X58381Y-34921D02*
X58381Y-34921D01*
X58381Y-34921D01*
X58381Y-34921D01*
X58381Y-34921D01*
X58381Y-34921D01*
X58381Y-34921D01*
X58381Y-34921D01*
X58381Y-34921D01*
X58381Y-34921D01*
X58381Y-34921D01*
X58381Y-34921D01*
X58381Y-34921D01*
X58381Y-34921D01*
X58381Y-34921D01*
X58381Y-34921D01*
X58381Y-34921D01*
X58381Y-34921D01*
X58381Y-34921D01*
X58381Y-34921D01*
G37*
G36*
X55535Y-34899D02*
X55535Y-34899D01*
X55535Y-34899D01*
X55535Y-34899D01*
X55535Y-34899D01*
X55535Y-34899D01*
X55535Y-34899D01*
X55535Y-34899D01*
X55535Y-34899D01*
X55535Y-34899D01*
X55535Y-34899D01*
X55535Y-34899D01*
X55535Y-34899D01*
X55535Y-34899D01*
X55535Y-34899D01*
X55535Y-34899D01*
X55535Y-34899D01*
X55535Y-34899D01*
X55535Y-34899D01*
X55535Y-34899D01*
X55535Y-34899D01*
X55535Y-34899D01*
X55535Y-34899D01*
X55535Y-34899D01*
X55535Y-34899D01*
X55535Y-34899D01*
X55535Y-34899D01*
X55535Y-34899D01*
X55535Y-34899D01*
X55535Y-34899D01*
X55535Y-34899D01*
X55535Y-34899D01*
X55535Y-34899D01*
X55535Y-34899D01*
X55535Y-34899D01*
X55535Y-34899D01*
X55535Y-34899D01*
X55535Y-34899D01*
X55535Y-34899D01*
X55535Y-34899D01*
X55535Y-34899D01*
X55535Y-34899D01*
X55535Y-34899D01*
X55535Y-34899D01*
G37*
G36*
X53044Y-34784D02*
X53044Y-34784D01*
X53044Y-34784D01*
X53044Y-34784D01*
X53044Y-34784D01*
X53044Y-34784D01*
X53044Y-34784D01*
X53044Y-34784D01*
X53044Y-34784D01*
X53044Y-34784D01*
X53044Y-34784D01*
X53044Y-34784D01*
X53044Y-34784D01*
X53044Y-34784D01*
X53044Y-34784D01*
X53044Y-34784D01*
X53044Y-34784D01*
X53044Y-34784D01*
X53044Y-34784D01*
G37*
G36*
X54252Y-34776D02*
X54252Y-34776D01*
X54252Y-34776D01*
X54252Y-34776D01*
X54252Y-34776D01*
X54252Y-34776D01*
X54252Y-34776D01*
X54252Y-34776D01*
X54252Y-34776D01*
X54252Y-34776D01*
X54252Y-34776D01*
X54252Y-34776D01*
X54252Y-34776D01*
X54252Y-34776D01*
X54252Y-34776D01*
X54252Y-34776D01*
X54252Y-34776D01*
X54252Y-34776D01*
X54252Y-34776D01*
X54252Y-34776D01*
X54252Y-34776D01*
X54252Y-34776D01*
X54252Y-34776D01*
X54252Y-34776D01*
X54252Y-34776D01*
X54252Y-34776D01*
G37*
G36*
X56423Y-34776D02*
X56423Y-34776D01*
X56423Y-34776D01*
X56423Y-34776D01*
X56423Y-34776D01*
X56423Y-34776D01*
X56423Y-34776D01*
X56423Y-34776D01*
X56423Y-34776D01*
X56423Y-34776D01*
X56423Y-34776D01*
X56423Y-34776D01*
X56423Y-34776D01*
X56423Y-34776D01*
X56423Y-34776D01*
X56423Y-34776D01*
X56423Y-34776D01*
X56423Y-34776D01*
X56423Y-34776D01*
X56423Y-34776D01*
X56423Y-34776D01*
X56423Y-34776D01*
X56423Y-34776D01*
X56423Y-34776D01*
X56423Y-34776D01*
X56423Y-34776D01*
G37*
G36*
X56027Y-34759D02*
X56027Y-34759D01*
X56027Y-34759D01*
X56027Y-34759D01*
X56027Y-34759D01*
X56027Y-34759D01*
X56027Y-34759D01*
X56027Y-34759D01*
X56027Y-34759D01*
X56027Y-34759D01*
X56027Y-34759D01*
X56027Y-34759D01*
X56027Y-34759D01*
X56027Y-34759D01*
X56027Y-34759D01*
X56027Y-34759D01*
X56027Y-34759D01*
X56027Y-34759D01*
X56027Y-34759D01*
X56027Y-34759D01*
X56027Y-34759D01*
X56027Y-34759D01*
X56027Y-34759D01*
X56027Y-34759D01*
X56027Y-34759D01*
X56027Y-34759D01*
X56027Y-34759D01*
X56027Y-34759D01*
X56027Y-34759D01*
X56027Y-34759D01*
X56027Y-34759D01*
X56027Y-34759D01*
X56027Y-34759D01*
G37*
G36*
X57293Y-34719D02*
X57293Y-34719D01*
X57293Y-34719D01*
X57293Y-34719D01*
X57293Y-34719D01*
X57293Y-34719D01*
X57293Y-34719D01*
X57293Y-34719D01*
X57293Y-34719D01*
X57293Y-34719D01*
G37*
G36*
X53575Y-34670D02*
X53575Y-34670D01*
X53575Y-34670D01*
X53575Y-34670D01*
X53575Y-34670D01*
X53575Y-34670D01*
X53575Y-34670D01*
X53575Y-34670D01*
X53575Y-34670D01*
X53575Y-34670D01*
X53575Y-34670D01*
G37*
G36*
X56977Y-34670D02*
X56977Y-34670D01*
X56977Y-34670D01*
X56977Y-34670D01*
X56977Y-34670D01*
X56977Y-34670D01*
X56977Y-34670D01*
X56977Y-34670D01*
X56977Y-34670D01*
X56977Y-34670D01*
X56977Y-34670D01*
G37*
G36*
X57031Y-34646D02*
X57031Y-34646D01*
X57031Y-34646D01*
X57031Y-34646D01*
X57031Y-34646D01*
X57031Y-34646D01*
X57031Y-34646D01*
X57031Y-34646D01*
X57031Y-34646D01*
X57031Y-34646D01*
X57031Y-34646D01*
G37*
G36*
X53632Y-34644D02*
X53632Y-34644D01*
X53632Y-34644D01*
X53632Y-34644D01*
X53632Y-34644D01*
X53632Y-34644D01*
X53632Y-34644D01*
X53632Y-34644D01*
X53632Y-34644D01*
X53632Y-34644D01*
G37*
G36*
X58356Y-34616D02*
X58356Y-34616D01*
X58356Y-34616D01*
X58356Y-34616D01*
X58356Y-34616D01*
X58356Y-34616D01*
X58356Y-34616D01*
X58356Y-34616D01*
X58356Y-34616D01*
X58356Y-34616D01*
X58356Y-34616D01*
X58356Y-34616D01*
G37*
G36*
X58660Y-34616D02*
X58660Y-34616D01*
X58660Y-34616D01*
X58660Y-34616D01*
X58660Y-34616D01*
X58660Y-34616D01*
X58660Y-34616D01*
X58660Y-34616D01*
X58660Y-34616D01*
X58660Y-34616D01*
X58660Y-34616D01*
X58660Y-34616D01*
X58660Y-34616D01*
X58660Y-34616D01*
X58660Y-34616D01*
X58660Y-34616D01*
X58660Y-34616D01*
X58660Y-34616D01*
X58660Y-34616D01*
X58660Y-34616D01*
X58660Y-34616D01*
X58660Y-34616D01*
G37*
G36*
X53388Y-34608D02*
X53388Y-34608D01*
X53388Y-34608D01*
X53388Y-34608D01*
X53388Y-34608D01*
X53388Y-34608D01*
X53388Y-34608D01*
X53388Y-34608D01*
X53388Y-34608D01*
X53388Y-34608D01*
X53388Y-34608D01*
X53388Y-34608D01*
X53388Y-34608D01*
X53388Y-34608D01*
X53388Y-34608D01*
X53388Y-34608D01*
X53388Y-34608D01*
X53388Y-34608D01*
G37*
G36*
X58405Y-34599D02*
X58405Y-34599D01*
X58405Y-34599D01*
X58405Y-34599D01*
X58405Y-34599D01*
X58405Y-34599D01*
X58405Y-34599D01*
X58405Y-34599D01*
X58405Y-34599D01*
X58405Y-34599D01*
X58405Y-34599D01*
G37*
G36*
X55945Y-34467D02*
X55945Y-34467D01*
X55945Y-34467D01*
X55945Y-34467D01*
X55945Y-34467D01*
X55945Y-34467D01*
X55945Y-34467D01*
X55945Y-34467D01*
X55945Y-34467D01*
X55945Y-34467D01*
X55945Y-34467D01*
X55945Y-34467D01*
X55945Y-34467D01*
X55945Y-34467D01*
X55945Y-34467D01*
X55945Y-34467D01*
X55945Y-34467D01*
X55945Y-34467D01*
X55945Y-34467D01*
X55945Y-34467D01*
X55945Y-34467D01*
X55945Y-34467D01*
X55945Y-34467D01*
X55945Y-34467D01*
X55945Y-34467D01*
X55945Y-34467D01*
X55945Y-34467D01*
X55945Y-34467D01*
X55945Y-34467D01*
X55945Y-34467D01*
X55945Y-34467D01*
X55945Y-34467D01*
X55945Y-34467D01*
X55945Y-34467D01*
X55945Y-34467D01*
X55945Y-34467D01*
X55945Y-34467D01*
X55945Y-34467D01*
X55945Y-34467D01*
X55945Y-34467D01*
X55945Y-34467D01*
X55945Y-34467D01*
X55945Y-34467D01*
X55945Y-34467D01*
X55945Y-34467D01*
X55945Y-34467D01*
X55945Y-34467D01*
X55945Y-34467D01*
X55945Y-34467D01*
X55945Y-34467D01*
X55945Y-34467D01*
X55945Y-34467D01*
X55945Y-34467D01*
X55945Y-34467D01*
X55945Y-34467D01*
X55945Y-34467D01*
X55945Y-34467D01*
X55945Y-34467D01*
X55945Y-34467D01*
G37*
G36*
X53377Y-34210D02*
X53377Y-34210D01*
X53377Y-34210D01*
X53377Y-34210D01*
X53377Y-34210D01*
X53377Y-34210D01*
X53377Y-34210D01*
X53377Y-34210D01*
X53377Y-34210D01*
X53377Y-34210D01*
X53377Y-34210D01*
X53377Y-34210D01*
X53377Y-34210D01*
X53377Y-34210D01*
X53377Y-34210D01*
X53377Y-34210D01*
X53377Y-34210D01*
X53377Y-34210D01*
X53377Y-34210D01*
X53377Y-34210D01*
X53377Y-34210D01*
X53377Y-34210D01*
X53377Y-34210D01*
X53377Y-34210D01*
X53377Y-34210D01*
X53377Y-34210D01*
X53377Y-34210D01*
X53377Y-34210D01*
X53377Y-34210D01*
X53377Y-34210D01*
X53377Y-34210D01*
X53377Y-34210D01*
X53377Y-34210D01*
X53377Y-34210D01*
X53377Y-34210D01*
X53377Y-34210D01*
X53377Y-34210D01*
X53377Y-34210D01*
X53377Y-34210D01*
X53377Y-34210D01*
X53377Y-34210D01*
X53377Y-34210D01*
X53377Y-34210D01*
X53377Y-34210D01*
X53377Y-34210D01*
X53377Y-34210D01*
X53377Y-34210D01*
X53377Y-34210D01*
X53377Y-34210D01*
X53377Y-34210D01*
X53377Y-34210D01*
X53377Y-34210D01*
X53377Y-34210D01*
X53377Y-34210D01*
X53377Y-34210D01*
X53377Y-34210D01*
G37*
G36*
X54952Y-34210D02*
X54952Y-34210D01*
X54952Y-34210D01*
X54952Y-34210D01*
X54952Y-34210D01*
X54952Y-34210D01*
X54952Y-34210D01*
X54952Y-34210D01*
X54952Y-34210D01*
X54952Y-34210D01*
X54952Y-34210D01*
X54952Y-34210D01*
X54952Y-34210D01*
X54952Y-34210D01*
X54952Y-34210D01*
X54952Y-34210D01*
X54952Y-34210D01*
X54952Y-34210D01*
X54952Y-34210D01*
X54952Y-34210D01*
X54952Y-34210D01*
X54952Y-34210D01*
X54952Y-34210D01*
X54952Y-34210D01*
X54952Y-34210D01*
X54952Y-34210D01*
X54952Y-34210D01*
X54952Y-34210D01*
X54952Y-34210D01*
X54952Y-34210D01*
X54952Y-34210D01*
X54952Y-34210D01*
X54952Y-34210D01*
X54952Y-34210D01*
X54952Y-34210D01*
X54952Y-34210D01*
X54952Y-34210D01*
X54952Y-34210D01*
X54952Y-34210D01*
X54952Y-34210D01*
X54952Y-34210D01*
X54952Y-34210D01*
X54952Y-34210D01*
X54952Y-34210D01*
X54952Y-34210D01*
X54952Y-34210D01*
X54952Y-34210D01*
X54952Y-34210D01*
X54952Y-34210D01*
X54952Y-34210D01*
X54952Y-34210D01*
X54952Y-34210D01*
X54952Y-34210D01*
X54952Y-34210D01*
X54952Y-34210D01*
X54952Y-34210D01*
X54952Y-34210D01*
X54952Y-34210D01*
X54952Y-34210D01*
X54952Y-34210D01*
X54952Y-34210D01*
X54952Y-34210D01*
X54952Y-34210D01*
X54952Y-34210D01*
X54952Y-34210D01*
X54952Y-34210D01*
X54952Y-34210D01*
X54952Y-34210D01*
X54952Y-34210D01*
X54952Y-34210D01*
X54952Y-34210D01*
X54952Y-34210D01*
X54952Y-34210D01*
X54952Y-34210D01*
X54952Y-34210D01*
X54952Y-34210D01*
G37*
G36*
X56617Y-34210D02*
X56617Y-34210D01*
X56617Y-34210D01*
X56617Y-34210D01*
X56617Y-34210D01*
X56617Y-34210D01*
X56617Y-34210D01*
X56617Y-34210D01*
X56617Y-34210D01*
X56617Y-34210D01*
X56617Y-34210D01*
X56617Y-34210D01*
X56617Y-34210D01*
X56617Y-34210D01*
X56617Y-34210D01*
X56617Y-34210D01*
X56617Y-34210D01*
X56617Y-34210D01*
X56617Y-34210D01*
X56617Y-34210D01*
X56617Y-34210D01*
X56617Y-34210D01*
X56617Y-34210D01*
X56617Y-34210D01*
X56617Y-34210D01*
X56617Y-34210D01*
X56617Y-34210D01*
X56617Y-34210D01*
X56617Y-34210D01*
X56617Y-34210D01*
X56617Y-34210D01*
X56617Y-34210D01*
X56617Y-34210D01*
X56617Y-34210D01*
X56617Y-34210D01*
X56617Y-34210D01*
X56617Y-34210D01*
X56617Y-34210D01*
X56617Y-34210D01*
X56617Y-34210D01*
X56617Y-34210D01*
X56617Y-34210D01*
G37*
G36*
X57442Y-34210D02*
X57442Y-34210D01*
X57442Y-34210D01*
X57442Y-34210D01*
X57442Y-34210D01*
X57442Y-34210D01*
X57442Y-34210D01*
X57442Y-34210D01*
X57442Y-34210D01*
X57442Y-34210D01*
X57442Y-34210D01*
X57442Y-34210D01*
X57442Y-34210D01*
X57442Y-34210D01*
X57442Y-34210D01*
X57442Y-34210D01*
X57442Y-34210D01*
X57442Y-34210D01*
X57442Y-34210D01*
X57442Y-34210D01*
X57442Y-34210D01*
X57442Y-34210D01*
X57442Y-34210D01*
X57442Y-34210D01*
X57442Y-34210D01*
X57442Y-34210D01*
X57442Y-34210D01*
X57442Y-34210D01*
X57442Y-34210D01*
X57442Y-34210D01*
X57442Y-34210D01*
X57442Y-34210D01*
X57442Y-34210D01*
X57442Y-34210D01*
X57442Y-34210D01*
X57442Y-34210D01*
X57442Y-34210D01*
X57442Y-34210D01*
X57442Y-34210D01*
X57442Y-34210D01*
X57442Y-34210D01*
X57442Y-34210D01*
X57442Y-34210D01*
X57442Y-34210D01*
X57442Y-34210D01*
X57442Y-34210D01*
X57442Y-34210D01*
X57442Y-34210D01*
X57442Y-34210D01*
X57442Y-34210D01*
X57442Y-34210D01*
X57442Y-34210D01*
X57442Y-34210D01*
X57442Y-34210D01*
X57442Y-34210D01*
X57442Y-34210D01*
X57442Y-34210D01*
X57442Y-34210D01*
X57442Y-34210D01*
X57442Y-34210D01*
X57442Y-34210D01*
X57442Y-34210D01*
X57442Y-34210D01*
X57442Y-34210D01*
X57442Y-34210D01*
X57442Y-34210D01*
X57442Y-34210D01*
X57442Y-34210D01*
X57442Y-34210D01*
X57442Y-34210D01*
X57442Y-34210D01*
X57442Y-34210D01*
X57442Y-34210D01*
X57442Y-34210D01*
X57442Y-34210D01*
X57442Y-34210D01*
X57442Y-34210D01*
X57442Y-34210D01*
X57442Y-34210D01*
X57442Y-34210D01*
X57442Y-34210D01*
X57442Y-34210D01*
X57442Y-34210D01*
X57442Y-34210D01*
X57442Y-34210D01*
X57442Y-34210D01*
G37*
G36*
X59066Y-34210D02*
X59066Y-34210D01*
X59066Y-34210D01*
X59066Y-34210D01*
X59066Y-34210D01*
X59066Y-34210D01*
X59066Y-34210D01*
X59066Y-34210D01*
X59066Y-34210D01*
X59066Y-34210D01*
X59066Y-34210D01*
X59066Y-34210D01*
X59066Y-34210D01*
X59066Y-34210D01*
X59066Y-34210D01*
X59066Y-34210D01*
X59066Y-34210D01*
X59066Y-34210D01*
X59066Y-34210D01*
X59066Y-34210D01*
X59066Y-34210D01*
X59066Y-34210D01*
X59066Y-34210D01*
X59066Y-34210D01*
X59066Y-34210D01*
X59066Y-34210D01*
X59066Y-34210D01*
X59066Y-34210D01*
X59066Y-34210D01*
X59066Y-34210D01*
X59066Y-34210D01*
X59066Y-34210D01*
X59066Y-34210D01*
X59066Y-34210D01*
X59066Y-34210D01*
X59066Y-34210D01*
X59066Y-34210D01*
X59066Y-34210D01*
X59066Y-34210D01*
X59066Y-34210D01*
X59066Y-34210D01*
X59066Y-34210D01*
X59066Y-34210D01*
X59066Y-34210D01*
X59066Y-34210D01*
X59066Y-34210D01*
X59066Y-34210D01*
X59066Y-34210D01*
X59066Y-34210D01*
X59066Y-34210D01*
X59066Y-34210D01*
X59066Y-34210D01*
X59066Y-34210D01*
X59066Y-34210D01*
X59066Y-34210D01*
X59066Y-34210D01*
X59066Y-34210D01*
X59066Y-34210D01*
X59066Y-34210D01*
X59066Y-34210D01*
X59066Y-34210D01*
G37*
G36*
X59891Y-34210D02*
X59891Y-34210D01*
X59891Y-34210D01*
X59891Y-34210D01*
X59891Y-34210D01*
X59891Y-34210D01*
X59891Y-34210D01*
X59891Y-34210D01*
X59891Y-34210D01*
X59891Y-34210D01*
X59891Y-34210D01*
X59891Y-34210D01*
X59891Y-34210D01*
X59891Y-34210D01*
X59891Y-34210D01*
X59891Y-34210D01*
X59891Y-34210D01*
X59891Y-34210D01*
X59891Y-34210D01*
X59891Y-34210D01*
X59891Y-34210D01*
X59891Y-34210D01*
X59891Y-34210D01*
X59891Y-34210D01*
X59891Y-34210D01*
X59891Y-34210D01*
X59891Y-34210D01*
X59891Y-34210D01*
X59891Y-34210D01*
X59891Y-34210D01*
X59891Y-34210D01*
X59891Y-34210D01*
X59891Y-34210D01*
X59891Y-34210D01*
X59891Y-34210D01*
X59891Y-34210D01*
X59891Y-34210D01*
X59891Y-34210D01*
X59891Y-34210D01*
X59891Y-34210D01*
X59891Y-34210D01*
X59891Y-34210D01*
X59891Y-34210D01*
X59891Y-34210D01*
X59891Y-34210D01*
X59891Y-34210D01*
X59891Y-34210D01*
X59891Y-34210D01*
X59891Y-34210D01*
X59891Y-34210D01*
X59891Y-34210D01*
X59891Y-34210D01*
X59891Y-34210D01*
X59891Y-34210D01*
X59891Y-34210D01*
X59891Y-34210D01*
X59891Y-34210D01*
G37*
G36*
X61924Y-34212D02*
X61924Y-34212D01*
X61924Y-34212D01*
X61924Y-34212D01*
X61924Y-34212D01*
X61924Y-34212D01*
X61924Y-34212D01*
X61924Y-34212D01*
X61924Y-34212D01*
X61924Y-34212D01*
X61924Y-34212D01*
X61924Y-34212D01*
X61924Y-34212D01*
X61924Y-34212D01*
X61924Y-34212D01*
X61924Y-34212D01*
X61924Y-34212D01*
X61924Y-34212D01*
X61924Y-34212D01*
X61924Y-34212D01*
X61924Y-34212D01*
X61924Y-34212D01*
X61924Y-34212D01*
X61924Y-34212D01*
X61924Y-34212D01*
X61924Y-34212D01*
X61924Y-34212D01*
X61924Y-34212D01*
X61924Y-34212D01*
X61924Y-34212D01*
X61924Y-34212D01*
X61924Y-34212D01*
X61924Y-34212D01*
X61924Y-34212D01*
X61924Y-34212D01*
X61924Y-34212D01*
X61924Y-34212D01*
X61924Y-34212D01*
X61924Y-34212D01*
X61924Y-34212D01*
X61924Y-34212D01*
X61924Y-34212D01*
X61924Y-34212D01*
X61924Y-34212D01*
X61924Y-34212D01*
X61924Y-34212D01*
X61924Y-34212D01*
X61924Y-34212D01*
X61924Y-34212D01*
X61924Y-34212D01*
X61924Y-34212D01*
X61924Y-34212D01*
X61924Y-34212D01*
X61924Y-34212D01*
X61924Y-34212D01*
X61924Y-34212D01*
X61924Y-34212D01*
G37*
G36*
X62807Y-34210D02*
X62807Y-34210D01*
X62807Y-34210D01*
X62807Y-34210D01*
X62807Y-34210D01*
X62807Y-34210D01*
X62807Y-34210D01*
X62807Y-34210D01*
X62807Y-34210D01*
X62807Y-34210D01*
X62807Y-34210D01*
X62807Y-34210D01*
X62807Y-34210D01*
X62807Y-34210D01*
X62807Y-34210D01*
X62807Y-34210D01*
X62807Y-34210D01*
X62807Y-34210D01*
X62807Y-34210D01*
X62807Y-34210D01*
X62807Y-34210D01*
X62807Y-34210D01*
X62807Y-34210D01*
X62807Y-34210D01*
X62807Y-34210D01*
X62807Y-34210D01*
X62807Y-34210D01*
X62807Y-34210D01*
X62807Y-34210D01*
X62807Y-34210D01*
X62807Y-34210D01*
X62807Y-34210D01*
X62807Y-34210D01*
X62807Y-34210D01*
X62807Y-34210D01*
X62807Y-34210D01*
X62807Y-34210D01*
X62807Y-34210D01*
X62807Y-34210D01*
X62807Y-34210D01*
X62807Y-34210D01*
X62807Y-34210D01*
X62807Y-34210D01*
X62807Y-34210D01*
X62807Y-34210D01*
X62807Y-34210D01*
X62807Y-34210D01*
X62807Y-34210D01*
X62807Y-34210D01*
X62807Y-34210D01*
X62807Y-34210D01*
X62807Y-34210D01*
X62807Y-34210D01*
X62807Y-34210D01*
X62807Y-34210D01*
X62807Y-34210D01*
X62807Y-34210D01*
X62807Y-34210D01*
X62807Y-34210D01*
X62807Y-34210D01*
X62807Y-34210D01*
X62807Y-34210D01*
X62807Y-34210D01*
X62807Y-34210D01*
X62807Y-34210D01*
X62807Y-34210D01*
X62807Y-34210D01*
X62807Y-34210D01*
X62807Y-34210D01*
X62807Y-34210D01*
X62807Y-34210D01*
G37*
G36*
X63649Y-34210D02*
X63649Y-34210D01*
X63649Y-34210D01*
X63649Y-34210D01*
X63649Y-34210D01*
X63649Y-34210D01*
X63649Y-34210D01*
X63649Y-34210D01*
X63649Y-34210D01*
X63649Y-34210D01*
X63649Y-34210D01*
X63649Y-34210D01*
X63649Y-34210D01*
X63649Y-34210D01*
X63649Y-34210D01*
X63649Y-34210D01*
X63649Y-34210D01*
X63649Y-34210D01*
X63649Y-34210D01*
X63649Y-34210D01*
X63649Y-34210D01*
X63649Y-34210D01*
X63649Y-34210D01*
X63649Y-34210D01*
X63649Y-34210D01*
X63649Y-34210D01*
X63649Y-34210D01*
X63649Y-34210D01*
X63649Y-34210D01*
X63649Y-34210D01*
X63649Y-34210D01*
X63649Y-34210D01*
X63649Y-34210D01*
X63649Y-34210D01*
X63649Y-34210D01*
X63649Y-34210D01*
X63649Y-34210D01*
X63649Y-34210D01*
X63649Y-34210D01*
X63649Y-34210D01*
X63649Y-34210D01*
X63649Y-34210D01*
X63649Y-34210D01*
X63649Y-34210D01*
X63649Y-34210D01*
X63649Y-34210D01*
X63649Y-34210D01*
X63649Y-34210D01*
X63649Y-34210D01*
X63649Y-34210D01*
X63649Y-34210D01*
X63649Y-34210D01*
X63649Y-34210D01*
X63649Y-34210D01*
X63649Y-34210D01*
X63649Y-34210D01*
X63649Y-34210D01*
X63649Y-34210D01*
X63649Y-34210D01*
X63649Y-34210D01*
X63649Y-34210D01*
X63649Y-34210D01*
X63649Y-34210D01*
X63649Y-34210D01*
X63649Y-34210D01*
X63649Y-34210D01*
X63649Y-34210D01*
G37*
G36*
X65190Y-34212D02*
X65190Y-34212D01*
X65190Y-34212D01*
X65190Y-34212D01*
X65190Y-34212D01*
X65190Y-34212D01*
X65190Y-34212D01*
X65190Y-34212D01*
X65190Y-34212D01*
X65190Y-34212D01*
X65190Y-34212D01*
X65190Y-34212D01*
X65190Y-34212D01*
X65190Y-34212D01*
X65190Y-34212D01*
X65190Y-34212D01*
X65190Y-34212D01*
X65190Y-34212D01*
X65190Y-34212D01*
X65190Y-34212D01*
X65190Y-34212D01*
X65190Y-34212D01*
X65190Y-34212D01*
X65190Y-34212D01*
X65190Y-34212D01*
X65190Y-34212D01*
X65190Y-34212D01*
X65190Y-34212D01*
X65190Y-34212D01*
X65190Y-34212D01*
X65190Y-34212D01*
X65190Y-34212D01*
X65190Y-34212D01*
X65190Y-34212D01*
X65190Y-34212D01*
X65190Y-34212D01*
X65190Y-34212D01*
X65190Y-34212D01*
X65190Y-34212D01*
X65190Y-34212D01*
X65190Y-34212D01*
X65190Y-34212D01*
X65190Y-34212D01*
X65190Y-34212D01*
X65190Y-34212D01*
X65190Y-34212D01*
X65190Y-34212D01*
X65190Y-34212D01*
X65190Y-34212D01*
X65190Y-34212D01*
X65190Y-34212D01*
X65190Y-34212D01*
X65190Y-34212D01*
X65190Y-34212D01*
X65190Y-34212D01*
X65190Y-34212D01*
X65190Y-34212D01*
X65190Y-34212D01*
X65190Y-34212D01*
X65190Y-34212D01*
X65190Y-34212D01*
X65190Y-34212D01*
X65190Y-34212D01*
X65190Y-34212D01*
X65190Y-34212D01*
X65190Y-34212D01*
X65190Y-34212D01*
X65190Y-34212D01*
X65190Y-34212D01*
X65190Y-34212D01*
X65190Y-34212D01*
G37*
G36*
X65885Y-34208D02*
X65885Y-34208D01*
X65885Y-34208D01*
X65885Y-34208D01*
X65885Y-34208D01*
X65885Y-34208D01*
X65885Y-34208D01*
X65885Y-34208D01*
X65885Y-34208D01*
X65885Y-34208D01*
X65885Y-34208D01*
X65885Y-34208D01*
X65885Y-34208D01*
X65885Y-34208D01*
X65885Y-34208D01*
X65885Y-34208D01*
X65885Y-34208D01*
X65885Y-34208D01*
X65885Y-34208D01*
X65885Y-34208D01*
X65885Y-34208D01*
X65885Y-34208D01*
X65885Y-34208D01*
X65885Y-34208D01*
X65885Y-34208D01*
X65885Y-34208D01*
X65885Y-34208D01*
X65885Y-34208D01*
X65885Y-34208D01*
X65885Y-34208D01*
X65885Y-34208D01*
X65885Y-34208D01*
X65885Y-34208D01*
X65885Y-34208D01*
X65885Y-34208D01*
X65885Y-34208D01*
X65885Y-34208D01*
X65885Y-34208D01*
X65885Y-34208D01*
X65885Y-34208D01*
X65885Y-34208D01*
X65885Y-34208D01*
X65885Y-34208D01*
X65885Y-34208D01*
X65885Y-34208D01*
X65885Y-34208D01*
X65885Y-34208D01*
X65885Y-34208D01*
X65885Y-34208D01*
X65885Y-34208D01*
X65885Y-34208D01*
X65885Y-34208D01*
X65885Y-34208D01*
X65885Y-34208D01*
X65885Y-34208D01*
X65885Y-34208D01*
X65885Y-34208D01*
X65885Y-34208D01*
X65885Y-34208D01*
X65885Y-34208D01*
X65885Y-34208D01*
X65885Y-34208D01*
X65885Y-34208D01*
X65885Y-34208D01*
X65885Y-34208D01*
X65885Y-34208D01*
X65885Y-34208D01*
X65885Y-34208D01*
X65885Y-34208D01*
X65885Y-34208D01*
X65885Y-34208D01*
X65885Y-34208D01*
X65885Y-34208D01*
X65885Y-34208D01*
X65885Y-34208D01*
X65885Y-34208D01*
X65885Y-34208D01*
X65885Y-34208D01*
X65885Y-34208D01*
G37*
G36*
X64451Y-34203D02*
X64451Y-34203D01*
X64451Y-34203D01*
X64451Y-34203D01*
X64451Y-34203D01*
X64451Y-34203D01*
X64451Y-34203D01*
X64451Y-34203D01*
X64451Y-34203D01*
X64451Y-34203D01*
X64451Y-34203D01*
X64451Y-34203D01*
X64451Y-34203D01*
X64451Y-34203D01*
X64451Y-34203D01*
X64451Y-34203D01*
X64451Y-34203D01*
X64451Y-34203D01*
X64451Y-34203D01*
X64451Y-34203D01*
X64451Y-34203D01*
X64451Y-34203D01*
X64451Y-34203D01*
X64451Y-34203D01*
X64451Y-34203D01*
X64451Y-34203D01*
X64451Y-34203D01*
X64451Y-34203D01*
X64451Y-34203D01*
X64451Y-34203D01*
X64451Y-34203D01*
X64451Y-34203D01*
X64451Y-34203D01*
X64451Y-34203D01*
X64451Y-34203D01*
G37*
G36*
X58324Y-34192D02*
X58324Y-34192D01*
X58324Y-34192D01*
X58324Y-34192D01*
X58324Y-34192D01*
X58324Y-34192D01*
X58324Y-34192D01*
X58324Y-34192D01*
X58324Y-34192D01*
X58324Y-34192D01*
X58324Y-34192D01*
X58324Y-34192D01*
X58324Y-34192D01*
X58324Y-34192D01*
X58324Y-34192D01*
X58324Y-34192D01*
X58324Y-34192D01*
X58324Y-34192D01*
X58324Y-34192D01*
X58324Y-34192D01*
X58324Y-34192D01*
X58324Y-34192D01*
X58324Y-34192D01*
X58324Y-34192D01*
G37*
G36*
X60776Y-34192D02*
X60776Y-34192D01*
X60776Y-34192D01*
X60776Y-34192D01*
X60776Y-34192D01*
X60776Y-34192D01*
G37*
G36*
X61216Y-34192D02*
X61216Y-34192D01*
X61216Y-34192D01*
X61216Y-34192D01*
X61216Y-34192D01*
X61216Y-34192D01*
X61216Y-34192D01*
X61216Y-34192D01*
X61216Y-34192D01*
X61216Y-34192D01*
X61216Y-34192D01*
X61216Y-34192D01*
X61216Y-34192D01*
X61216Y-34192D01*
X61216Y-34192D01*
X61216Y-34192D01*
X61216Y-34192D01*
X61216Y-34192D01*
X61216Y-34192D01*
X61216Y-34192D01*
X61216Y-34192D01*
X61216Y-34192D01*
X61216Y-34192D01*
X61216Y-34192D01*
G37*
G36*
X64675Y-34192D02*
X64675Y-34192D01*
X64675Y-34192D01*
X64675Y-34192D01*
X64675Y-34192D01*
X64675Y-34192D01*
G37*
G36*
X54420Y-33873D02*
X54420Y-33873D01*
X54420Y-33873D01*
X54420Y-33873D01*
X54420Y-33873D01*
X54420Y-33873D01*
G37*
G36*
X60776Y-33592D02*
X60776Y-33592D01*
X60776Y-33592D01*
X60776Y-33592D01*
X60776Y-33592D01*
X60776Y-33592D01*
G37*
G36*
X64675Y-33261D02*
X64675Y-33261D01*
X64675Y-33261D01*
X64675Y-33261D01*
X64675Y-33261D01*
X64675Y-33261D01*
G37*
G36*
X51215Y-34692D02*
X51215Y-34692D01*
X51215Y-34692D01*
X51215Y-34692D01*
X51215Y-34692D01*
X51215Y-34692D01*
X51215Y-34692D01*
X51215Y-34692D01*
G37*
G36*
X51893Y-34692D02*
X51893Y-34692D01*
X51893Y-34692D01*
X51893Y-34692D01*
X51893Y-34692D01*
X51893Y-34692D01*
X51893Y-34692D01*
X51893Y-34692D01*
G37*
G36*
X63897Y-32452D02*
X63897Y-32452D01*
X63897Y-32452D01*
X63897Y-32452D01*
X63897Y-32452D01*
X63897Y-32452D01*
X63897Y-32452D01*
X63897Y-32452D01*
X63897Y-32452D01*
X63897Y-32452D01*
X63897Y-32452D01*
X63897Y-32452D01*
X63897Y-32452D01*
X63897Y-32452D01*
X63897Y-32452D01*
X63897Y-32452D01*
X63897Y-32452D01*
X63897Y-32452D01*
X63897Y-32452D01*
X63897Y-32452D01*
X63897Y-32452D01*
X63897Y-32452D01*
X63897Y-32452D01*
X63897Y-32452D01*
X63897Y-32452D01*
X63897Y-32452D01*
X63897Y-32452D01*
X63897Y-32452D01*
X63897Y-32452D01*
X63897Y-32452D01*
X63897Y-32452D01*
X63897Y-32452D01*
X63897Y-32452D01*
X63897Y-32452D01*
X63897Y-32452D01*
X63897Y-32452D01*
X63897Y-32452D01*
X63897Y-32452D01*
X63897Y-32452D01*
X63897Y-32452D01*
X63897Y-32452D01*
X63897Y-32452D01*
X63897Y-32452D01*
X63897Y-32452D01*
X63897Y-32452D01*
X63897Y-32452D01*
X63897Y-32452D01*
X63897Y-32452D01*
X63897Y-32452D01*
X63897Y-32452D01*
X63897Y-32452D01*
X63897Y-32452D01*
X63897Y-32452D01*
X63897Y-32452D01*
X63897Y-32452D01*
X63897Y-32452D01*
X63897Y-32452D01*
X63897Y-32452D01*
X63897Y-32452D01*
X63897Y-32452D01*
X63897Y-32452D01*
X63897Y-32452D01*
X63897Y-32452D01*
X63897Y-32452D01*
X63897Y-32452D01*
X63897Y-32452D01*
X63897Y-32452D01*
X63897Y-32452D01*
X63897Y-32452D01*
X63897Y-32452D01*
X63897Y-32452D01*
X63897Y-32452D01*
X63897Y-32452D01*
G37*
G36*
X64445Y-32452D02*
X64445Y-32452D01*
X64445Y-32452D01*
X64445Y-32452D01*
X64445Y-32452D01*
X64445Y-32452D01*
X64445Y-32452D01*
X64445Y-32452D01*
X64445Y-32452D01*
X64445Y-32452D01*
X64445Y-32452D01*
X64445Y-32452D01*
X64445Y-32452D01*
X64445Y-32452D01*
X64445Y-32452D01*
X64445Y-32452D01*
X64445Y-32452D01*
X64445Y-32452D01*
X64445Y-32452D01*
X64445Y-32452D01*
X64445Y-32452D01*
X64445Y-32452D01*
X64445Y-32452D01*
X64445Y-32452D01*
X64445Y-32452D01*
X64445Y-32452D01*
X64445Y-32452D01*
X64445Y-32452D01*
X64445Y-32452D01*
X64445Y-32452D01*
X64445Y-32452D01*
X64445Y-32452D01*
X64445Y-32452D01*
X64445Y-32452D01*
X64445Y-32452D01*
X64445Y-32452D01*
X64445Y-32452D01*
X64445Y-32452D01*
X64445Y-32452D01*
X64445Y-32452D01*
X64445Y-32452D01*
X64445Y-32452D01*
X64445Y-32452D01*
X64445Y-32452D01*
X64445Y-32452D01*
X64445Y-32452D01*
X64445Y-32452D01*
X64445Y-32452D01*
X64445Y-32452D01*
X64445Y-32452D01*
X64445Y-32452D01*
X64445Y-32452D01*
X64445Y-32452D01*
X64445Y-32452D01*
X64445Y-32452D01*
X64445Y-32452D01*
X64445Y-32452D01*
X64445Y-32452D01*
X64445Y-32452D01*
X64445Y-32452D01*
X64445Y-32452D01*
X64445Y-32452D01*
X64445Y-32452D01*
X64445Y-32452D01*
X64445Y-32452D01*
X64445Y-32452D01*
X64445Y-32452D01*
X64445Y-32452D01*
X64445Y-32452D01*
X64445Y-32452D01*
G37*
G36*
X65185Y-32452D02*
X65185Y-32452D01*
X65185Y-32452D01*
X65185Y-32452D01*
X65185Y-32452D01*
X65185Y-32452D01*
X65185Y-32452D01*
X65185Y-32452D01*
X65185Y-32452D01*
X65185Y-32452D01*
X65185Y-32452D01*
X65185Y-32452D01*
X65185Y-32452D01*
X65185Y-32452D01*
X65185Y-32452D01*
X65185Y-32452D01*
X65185Y-32452D01*
X65185Y-32452D01*
X65185Y-32452D01*
X65185Y-32452D01*
X65185Y-32452D01*
X65185Y-32452D01*
X65185Y-32452D01*
X65185Y-32452D01*
X65185Y-32452D01*
X65185Y-32452D01*
X65185Y-32452D01*
X65185Y-32452D01*
X65185Y-32452D01*
X65185Y-32452D01*
X65185Y-32452D01*
X65185Y-32452D01*
X65185Y-32452D01*
X65185Y-32452D01*
X65185Y-32452D01*
X65185Y-32452D01*
X65185Y-32452D01*
X65185Y-32452D01*
X65185Y-32452D01*
X65185Y-32452D01*
X65185Y-32452D01*
X65185Y-32452D01*
X65185Y-32452D01*
X65185Y-32452D01*
X65185Y-32452D01*
X65185Y-32452D01*
X65185Y-32452D01*
X65185Y-32452D01*
X65185Y-32452D01*
X65185Y-32452D01*
X65185Y-32452D01*
X65185Y-32452D01*
X65185Y-32452D01*
X65185Y-32452D01*
X65185Y-32452D01*
X65185Y-32452D01*
X65185Y-32452D01*
X65185Y-32452D01*
X65185Y-32452D01*
X65185Y-32452D01*
X65185Y-32452D01*
X65185Y-32452D01*
X65185Y-32452D01*
X65185Y-32452D01*
X65185Y-32452D01*
X65185Y-32452D01*
X65185Y-32452D01*
X65185Y-32452D01*
X65185Y-32452D01*
X65185Y-32452D01*
X65185Y-32452D01*
X65185Y-32452D01*
X65185Y-32452D01*
X65185Y-32452D01*
X65185Y-32452D01*
X65185Y-32452D01*
X65185Y-32452D01*
X65185Y-32452D01*
G37*
G36*
X65771Y-32452D02*
X65771Y-32452D01*
X65771Y-32452D01*
X65771Y-32452D01*
X65771Y-32452D01*
X65771Y-32452D01*
X65771Y-32452D01*
X65771Y-32452D01*
X65771Y-32452D01*
X65771Y-32452D01*
X65771Y-32452D01*
X65771Y-32452D01*
X65771Y-32452D01*
X65771Y-32452D01*
X65771Y-32452D01*
X65771Y-32452D01*
X65771Y-32452D01*
X65771Y-32452D01*
X65771Y-32452D01*
X65771Y-32452D01*
X65771Y-32452D01*
X65771Y-32452D01*
X65771Y-32452D01*
X65771Y-32452D01*
X65771Y-32452D01*
X65771Y-32452D01*
X65771Y-32452D01*
X65771Y-32452D01*
X65771Y-32452D01*
X65771Y-32452D01*
X65771Y-32452D01*
X65771Y-32452D01*
X65771Y-32452D01*
X65771Y-32452D01*
X65771Y-32452D01*
X65771Y-32452D01*
X65771Y-32452D01*
X65771Y-32452D01*
X65771Y-32452D01*
X65771Y-32452D01*
X65771Y-32452D01*
X65771Y-32452D01*
X65771Y-32452D01*
X65771Y-32452D01*
X65771Y-32452D01*
X65771Y-32452D01*
X65771Y-32452D01*
X65771Y-32452D01*
X65771Y-32452D01*
X65771Y-32452D01*
X65771Y-32452D01*
X65771Y-32452D01*
X65771Y-32452D01*
X65771Y-32452D01*
X65771Y-32452D01*
X65771Y-32452D01*
X65771Y-32452D01*
X65771Y-32452D01*
X65771Y-32452D01*
X65771Y-32452D01*
X65771Y-32452D01*
G37*
G36*
X63748Y-32449D02*
X63748Y-32449D01*
X63748Y-32449D01*
X63748Y-32449D01*
X63748Y-32449D01*
X63748Y-32449D01*
X63748Y-32449D01*
X63748Y-32449D01*
X63748Y-32449D01*
X63748Y-32449D01*
X63748Y-32449D01*
X63748Y-32449D01*
X63748Y-32449D01*
X63748Y-32449D01*
X63748Y-32449D01*
X63748Y-32449D01*
X63748Y-32449D01*
X63748Y-32449D01*
X63748Y-32449D01*
X63748Y-32449D01*
X63748Y-32449D01*
X63748Y-32449D01*
X63748Y-32449D01*
X63748Y-32449D01*
X63748Y-32449D01*
X63748Y-32449D01*
X63748Y-32449D01*
X63748Y-32449D01*
X63748Y-32449D01*
X63748Y-32449D01*
X63748Y-32449D01*
X63748Y-32449D01*
X63748Y-32449D01*
X63748Y-32449D01*
X63748Y-32449D01*
X63748Y-32449D01*
X63748Y-32449D01*
X63748Y-32449D01*
X63748Y-32449D01*
X63748Y-32449D01*
X63748Y-32449D01*
X63748Y-32449D01*
X63748Y-32449D01*
X63748Y-32449D01*
X63748Y-32449D01*
X63748Y-32449D01*
X63748Y-32449D01*
X63748Y-32449D01*
X63748Y-32449D01*
X63748Y-32449D01*
X63748Y-32449D01*
X63748Y-32449D01*
X63748Y-32449D01*
X63748Y-32449D01*
X63748Y-32449D01*
X63748Y-32449D01*
X63748Y-32449D01*
X63748Y-32449D01*
X63748Y-32449D01*
X63748Y-32449D01*
X63748Y-32449D01*
X63748Y-32449D01*
X63748Y-32449D01*
X63748Y-32449D01*
X63748Y-32449D01*
X63748Y-32449D01*
X63748Y-32449D01*
X63748Y-32449D01*
X63748Y-32449D01*
X63748Y-32449D01*
X63748Y-32449D01*
X63748Y-32449D01*
X63748Y-32449D01*
X63748Y-32449D01*
X63748Y-32449D01*
X63748Y-32449D01*
X63748Y-32449D01*
X63748Y-32449D01*
X63748Y-32449D01*
X63748Y-32449D01*
X63748Y-32449D01*
X63748Y-32449D01*
X63748Y-32449D01*
X63748Y-32449D01*
X63748Y-32449D01*
X63748Y-32449D01*
X63748Y-32449D01*
X63748Y-32449D01*
X63748Y-32449D01*
X63748Y-32449D01*
X63748Y-32449D01*
X63748Y-32449D01*
X63748Y-32449D01*
X63748Y-32449D01*
X63748Y-32449D01*
X63748Y-32449D01*
X63748Y-32449D01*
X63748Y-32449D01*
X63748Y-32449D01*
X63748Y-32449D01*
X63748Y-32449D01*
X63748Y-32449D01*
X63748Y-32449D01*
G37*
G36*
X64186Y-32449D02*
X64186Y-32449D01*
X64186Y-32449D01*
X64186Y-32449D01*
X64186Y-32449D01*
X64186Y-32449D01*
X64186Y-32449D01*
X64186Y-32449D01*
X64186Y-32449D01*
X64186Y-32449D01*
X64186Y-32449D01*
X64186Y-32449D01*
X64186Y-32449D01*
X64186Y-32449D01*
X64186Y-32449D01*
X64186Y-32449D01*
X64186Y-32449D01*
X64186Y-32449D01*
X64186Y-32449D01*
X64186Y-32449D01*
X64186Y-32449D01*
X64186Y-32449D01*
X64186Y-32449D01*
X64186Y-32449D01*
X64186Y-32449D01*
X64186Y-32449D01*
X64186Y-32449D01*
X64186Y-32449D01*
X64186Y-32449D01*
X64186Y-32449D01*
X64186Y-32449D01*
G37*
G36*
X64977Y-32449D02*
X64977Y-32449D01*
X64977Y-32449D01*
X64977Y-32449D01*
X64977Y-32449D01*
X64977Y-32449D01*
X64977Y-32449D01*
X64977Y-32449D01*
X64977Y-32449D01*
X64977Y-32449D01*
X64977Y-32449D01*
X64977Y-32449D01*
X64977Y-32449D01*
X64977Y-32449D01*
X64977Y-32449D01*
X64977Y-32449D01*
X64977Y-32449D01*
X64977Y-32449D01*
X64977Y-32449D01*
X64977Y-32449D01*
X64977Y-32449D01*
X64977Y-32449D01*
X64977Y-32449D01*
X64977Y-32449D01*
X64977Y-32449D01*
X64977Y-32449D01*
X64977Y-32449D01*
X64977Y-32449D01*
X64977Y-32449D01*
X64977Y-32449D01*
X64977Y-32449D01*
X64977Y-32449D01*
X64977Y-32449D01*
X64977Y-32449D01*
X64977Y-32449D01*
X64977Y-32449D01*
X64977Y-32449D01*
X64977Y-32449D01*
X64977Y-32449D01*
X64977Y-32449D01*
X64977Y-32449D01*
X64977Y-32449D01*
X64977Y-32449D01*
X64977Y-32449D01*
X64977Y-32449D01*
X64977Y-32449D01*
X64977Y-32449D01*
X64977Y-32449D01*
X64977Y-32449D01*
X64977Y-32449D01*
X64977Y-32449D01*
X64977Y-32449D01*
X64977Y-32449D01*
X64977Y-32449D01*
X64977Y-32449D01*
X64977Y-32449D01*
X64977Y-32449D01*
X64977Y-32449D01*
X64977Y-32449D01*
X64977Y-32449D01*
X64977Y-32449D01*
X64977Y-32449D01*
X64977Y-32449D01*
X64977Y-32449D01*
X64977Y-32449D01*
X64977Y-32449D01*
X64977Y-32449D01*
X64977Y-32449D01*
X64977Y-32449D01*
X64977Y-32449D01*
X64977Y-32449D01*
X64977Y-32449D01*
X64977Y-32449D01*
X64977Y-32449D01*
X64977Y-32449D01*
X64977Y-32449D01*
X64977Y-32449D01*
X64977Y-32449D01*
X64977Y-32449D01*
X64977Y-32449D01*
X64977Y-32449D01*
X64977Y-32449D01*
G37*
G36*
X65474Y-32449D02*
X65474Y-32449D01*
X65474Y-32449D01*
X65474Y-32449D01*
X65474Y-32449D01*
X65474Y-32449D01*
X65474Y-32449D01*
X65474Y-32449D01*
X65474Y-32449D01*
X65474Y-32449D01*
X65474Y-32449D01*
X65474Y-32449D01*
X65474Y-32449D01*
X65474Y-32449D01*
X65474Y-32449D01*
X65474Y-32449D01*
X65474Y-32449D01*
X65474Y-32449D01*
X65474Y-32449D01*
X65474Y-32449D01*
X65474Y-32449D01*
X65474Y-32449D01*
X65474Y-32449D01*
X65474Y-32449D01*
X65474Y-32449D01*
X65474Y-32449D01*
X65474Y-32449D01*
X65474Y-32449D01*
X65474Y-32449D01*
X65474Y-32449D01*
X65474Y-32449D01*
X65474Y-32449D01*
X65474Y-32449D01*
G37*
G36*
X63293Y-31950D02*
X63293Y-31950D01*
X63293Y-31950D01*
X63293Y-31950D01*
X63293Y-31950D01*
X63293Y-31950D01*
X63293Y-31950D01*
X63293Y-31950D01*
X63293Y-31950D01*
X63293Y-31950D01*
X63293Y-31950D01*
X63293Y-31950D01*
X63293Y-31950D01*
X63293Y-31950D01*
X63293Y-31950D01*
X63293Y-31950D01*
X63293Y-31950D01*
X63293Y-31950D01*
X63293Y-31950D01*
X63293Y-31950D01*
X63293Y-31950D01*
X63293Y-31950D01*
X63293Y-31950D01*
X63293Y-31950D01*
X63293Y-31950D01*
X63293Y-31950D01*
X63293Y-31950D01*
X63293Y-31950D01*
X63293Y-31950D01*
X63293Y-31950D01*
X63293Y-31950D01*
X63293Y-31950D01*
X63293Y-31950D01*
X63293Y-31950D01*
X63293Y-31950D01*
X63293Y-31950D01*
X63293Y-31950D01*
X63293Y-31950D01*
X63293Y-31950D01*
X63293Y-31950D01*
X63293Y-31950D01*
X63293Y-31950D01*
X63293Y-31950D01*
X63293Y-31950D01*
X63293Y-31950D01*
X63293Y-31950D01*
X63293Y-31950D01*
X63293Y-31950D01*
X63293Y-31950D01*
X63293Y-31950D01*
X63293Y-31950D01*
X63293Y-31950D01*
X63293Y-31950D01*
X63293Y-31950D01*
X63293Y-31950D01*
X63293Y-31950D01*
X63293Y-31950D01*
X63293Y-31950D01*
X63293Y-31950D01*
X63293Y-31950D01*
X63293Y-31950D01*
G37*
G36*
X63926Y-31950D02*
X63926Y-31950D01*
X63926Y-31950D01*
X63926Y-31950D01*
X63926Y-31950D01*
X63926Y-31950D01*
X63926Y-31950D01*
X63926Y-31950D01*
X63926Y-31950D01*
X63926Y-31950D01*
X63926Y-31950D01*
X63926Y-31950D01*
X63926Y-31950D01*
X63926Y-31950D01*
X63926Y-31950D01*
X63926Y-31950D01*
X63926Y-31950D01*
X63926Y-31950D01*
X63926Y-31950D01*
X63926Y-31950D01*
X63926Y-31950D01*
X63926Y-31950D01*
X63926Y-31950D01*
X63926Y-31950D01*
X63926Y-31950D01*
X63926Y-31950D01*
X63926Y-31950D01*
X63926Y-31950D01*
X63926Y-31950D01*
X63926Y-31950D01*
X63926Y-31950D01*
X63926Y-31950D01*
X63926Y-31950D01*
X63926Y-31950D01*
X63926Y-31950D01*
X63926Y-31950D01*
X63926Y-31950D01*
X63926Y-31950D01*
X63926Y-31950D01*
X63926Y-31950D01*
X63926Y-31950D01*
X63926Y-31950D01*
X63926Y-31950D01*
X63926Y-31950D01*
X63926Y-31950D01*
X63926Y-31950D01*
X63926Y-31950D01*
X63926Y-31950D01*
X63926Y-31950D01*
X63926Y-31950D01*
X63926Y-31950D01*
X63926Y-31950D01*
X63926Y-31950D01*
X63926Y-31950D01*
X63926Y-31950D01*
X63926Y-31950D01*
X63926Y-31950D01*
X63926Y-31950D01*
G37*
G36*
X64665Y-31950D02*
X64665Y-31950D01*
X64665Y-31950D01*
X64665Y-31950D01*
X64665Y-31950D01*
X64665Y-31950D01*
X64665Y-31950D01*
X64665Y-31950D01*
X64665Y-31950D01*
X64665Y-31950D01*
X64665Y-31950D01*
X64665Y-31950D01*
X64665Y-31950D01*
X64665Y-31950D01*
X64665Y-31950D01*
X64665Y-31950D01*
X64665Y-31950D01*
X64665Y-31950D01*
X64665Y-31950D01*
X64665Y-31950D01*
X64665Y-31950D01*
X64665Y-31950D01*
X64665Y-31950D01*
X64665Y-31950D01*
X64665Y-31950D01*
X64665Y-31950D01*
X64665Y-31950D01*
X64665Y-31950D01*
X64665Y-31950D01*
X64665Y-31950D01*
X64665Y-31950D01*
X64665Y-31950D01*
X64665Y-31950D01*
X64665Y-31950D01*
X64665Y-31950D01*
X64665Y-31950D01*
X64665Y-31950D01*
X64665Y-31950D01*
X64665Y-31950D01*
X64665Y-31950D01*
X64665Y-31950D01*
X64665Y-31950D01*
X64665Y-31950D01*
X64665Y-31950D01*
X64665Y-31950D01*
X64665Y-31950D01*
X64665Y-31950D01*
X64665Y-31950D01*
X64665Y-31950D01*
X64665Y-31950D01*
X64665Y-31950D01*
X64665Y-31950D01*
X64665Y-31950D01*
X64665Y-31950D01*
X64665Y-31950D01*
X64665Y-31950D01*
X64665Y-31950D01*
X64665Y-31950D01*
X64665Y-31950D01*
X64665Y-31950D01*
X64665Y-31950D01*
X64665Y-31950D01*
X64665Y-31950D01*
X64665Y-31950D01*
X64665Y-31950D01*
G37*
G36*
X64969Y-31950D02*
X64969Y-31950D01*
X64969Y-31950D01*
X64969Y-31950D01*
X64969Y-31950D01*
X64969Y-31950D01*
X64969Y-31950D01*
X64969Y-31950D01*
X64969Y-31950D01*
X64969Y-31950D01*
X64969Y-31950D01*
X64969Y-31950D01*
X64969Y-31950D01*
X64969Y-31950D01*
X64969Y-31950D01*
X64969Y-31950D01*
X64969Y-31950D01*
X64969Y-31950D01*
X64969Y-31950D01*
X64969Y-31950D01*
X64969Y-31950D01*
X64969Y-31950D01*
X64969Y-31950D01*
X64969Y-31950D01*
X64969Y-31950D01*
X64969Y-31950D01*
X64969Y-31950D01*
X64969Y-31950D01*
X64969Y-31950D01*
X64969Y-31950D01*
X64969Y-31950D01*
X64969Y-31950D01*
X64969Y-31950D01*
X64969Y-31950D01*
X64969Y-31950D01*
X64969Y-31950D01*
X64969Y-31950D01*
X64969Y-31950D01*
X64969Y-31950D01*
X64969Y-31950D01*
X64969Y-31950D01*
X64969Y-31950D01*
X64969Y-31950D01*
X64969Y-31950D01*
X64969Y-31950D01*
X64969Y-31950D01*
X64969Y-31950D01*
X64969Y-31950D01*
X64969Y-31950D01*
X64969Y-31950D01*
X64969Y-31950D01*
X64969Y-31950D01*
X64969Y-31950D01*
X64969Y-31950D01*
X64969Y-31950D01*
X64969Y-31950D01*
X64969Y-31950D01*
X64969Y-31950D01*
X64969Y-31950D01*
X64969Y-31950D01*
X64969Y-31950D01*
G37*
G36*
X65271Y-31950D02*
X65271Y-31950D01*
X65271Y-31950D01*
X65271Y-31950D01*
X65271Y-31950D01*
X65271Y-31950D01*
X65271Y-31950D01*
X65271Y-31950D01*
X65271Y-31950D01*
X65271Y-31950D01*
X65271Y-31950D01*
X65271Y-31950D01*
X65271Y-31950D01*
X65271Y-31950D01*
X65271Y-31950D01*
X65271Y-31950D01*
X65271Y-31950D01*
X65271Y-31950D01*
X65271Y-31950D01*
X65271Y-31950D01*
X65271Y-31950D01*
X65271Y-31950D01*
X65271Y-31950D01*
X65271Y-31950D01*
X65271Y-31950D01*
X65271Y-31950D01*
X65271Y-31950D01*
X65271Y-31950D01*
X65271Y-31950D01*
X65271Y-31950D01*
X65271Y-31950D01*
X65271Y-31950D01*
X65271Y-31950D01*
X65271Y-31950D01*
X65271Y-31950D01*
X65271Y-31950D01*
X65271Y-31950D01*
X65271Y-31950D01*
X65271Y-31950D01*
X65271Y-31950D01*
X65271Y-31950D01*
X65271Y-31950D01*
X65271Y-31950D01*
X65271Y-31950D01*
X65271Y-31950D01*
G37*
G36*
X65815Y-31950D02*
X65815Y-31950D01*
X65815Y-31950D01*
X65815Y-31950D01*
X65815Y-31950D01*
X65815Y-31950D01*
X65815Y-31950D01*
X65815Y-31950D01*
X65815Y-31950D01*
X65815Y-31950D01*
X65815Y-31950D01*
X65815Y-31950D01*
X65815Y-31950D01*
X65815Y-31950D01*
X65815Y-31950D01*
X65815Y-31950D01*
X65815Y-31950D01*
X65815Y-31950D01*
X65815Y-31950D01*
X65815Y-31950D01*
X65815Y-31950D01*
X65815Y-31950D01*
X65815Y-31950D01*
X65815Y-31950D01*
X65815Y-31950D01*
X65815Y-31950D01*
X65815Y-31950D01*
X65815Y-31950D01*
X65815Y-31950D01*
X65815Y-31950D01*
X65815Y-31950D01*
X65815Y-31950D01*
X65815Y-31950D01*
X65815Y-31950D01*
X65815Y-31950D01*
X65815Y-31950D01*
X65815Y-31950D01*
X65815Y-31950D01*
X65815Y-31950D01*
X65815Y-31950D01*
X65815Y-31950D01*
X65815Y-31950D01*
X65815Y-31950D01*
X65815Y-31950D01*
X65815Y-31950D01*
X65815Y-31950D01*
X65815Y-31950D01*
X65815Y-31950D01*
X65815Y-31950D01*
X65815Y-31950D01*
X65815Y-31950D01*
X65815Y-31950D01*
X65815Y-31950D01*
X65815Y-31950D01*
X65815Y-31950D01*
X65815Y-31950D01*
X65815Y-31950D01*
X65815Y-31950D01*
X65815Y-31950D01*
X65815Y-31950D01*
X65815Y-31950D01*
X65815Y-31950D01*
X65815Y-31950D01*
G37*
G36*
X66098Y-31950D02*
X66098Y-31950D01*
X66098Y-31950D01*
X66098Y-31950D01*
X66098Y-31950D01*
X66098Y-31950D01*
X66098Y-31950D01*
X66098Y-31950D01*
X66098Y-31950D01*
X66098Y-31950D01*
X66098Y-31950D01*
X66098Y-31950D01*
X66098Y-31950D01*
X66098Y-31950D01*
X66098Y-31950D01*
X66098Y-31950D01*
X66098Y-31950D01*
X66098Y-31950D01*
X66098Y-31950D01*
X66098Y-31950D01*
X66098Y-31950D01*
X66098Y-31950D01*
X66098Y-31950D01*
X66098Y-31950D01*
X66098Y-31950D01*
X66098Y-31950D01*
X66098Y-31950D01*
X66098Y-31950D01*
X66098Y-31950D01*
X66098Y-31950D01*
X66098Y-31950D01*
X66098Y-31950D01*
X66098Y-31950D01*
X66098Y-31950D01*
X66098Y-31950D01*
X66098Y-31950D01*
X66098Y-31950D01*
X66098Y-31950D01*
X66098Y-31950D01*
X66098Y-31950D01*
X66098Y-31950D01*
X66098Y-31950D01*
X66098Y-31950D01*
X66098Y-31950D01*
X66098Y-31950D01*
X66098Y-31950D01*
X66098Y-31950D01*
X66098Y-31950D01*
X66098Y-31950D01*
X66098Y-31950D01*
X66098Y-31950D01*
X66098Y-31950D01*
X66098Y-31950D01*
X66098Y-31950D01*
X66098Y-31950D01*
X66098Y-31950D01*
G37*
G36*
X64363Y-31947D02*
X64363Y-31947D01*
X64363Y-31947D01*
X64363Y-31947D01*
X64363Y-31947D01*
X64363Y-31947D01*
X64363Y-31947D01*
X64363Y-31947D01*
X64363Y-31947D01*
X64363Y-31947D01*
X64363Y-31947D01*
X64363Y-31947D01*
X64363Y-31947D01*
X64363Y-31947D01*
X64363Y-31947D01*
X64363Y-31947D01*
X64363Y-31947D01*
X64363Y-31947D01*
X64363Y-31947D01*
X64363Y-31947D01*
X64363Y-31947D01*
X64363Y-31947D01*
X64363Y-31947D01*
X64363Y-31947D01*
X64363Y-31947D01*
X64363Y-31947D01*
X64363Y-31947D01*
X64363Y-31947D01*
X64363Y-31947D01*
X64363Y-31947D01*
X64363Y-31947D01*
X64363Y-31947D01*
X64363Y-31947D01*
X64363Y-31947D01*
X64363Y-31947D01*
X64363Y-31947D01*
X64363Y-31947D01*
X64363Y-31947D01*
X64363Y-31947D01*
X64363Y-31947D01*
X64363Y-31947D01*
X64363Y-31947D01*
G37*
G36*
X65549Y-31947D02*
X65549Y-31947D01*
X65549Y-31947D01*
X65549Y-31947D01*
X65549Y-31947D01*
X65549Y-31947D01*
X65549Y-31947D01*
X65549Y-31947D01*
X65549Y-31947D01*
X65549Y-31947D01*
X65549Y-31947D01*
X65549Y-31947D01*
X65549Y-31947D01*
X65549Y-31947D01*
X65549Y-31947D01*
X65549Y-31947D01*
X65549Y-31947D01*
X65549Y-31947D01*
X65549Y-31947D01*
X65549Y-31947D01*
X65549Y-31947D01*
X65549Y-31947D01*
X65549Y-31947D01*
X65549Y-31947D01*
X65549Y-31947D01*
X65549Y-31947D01*
X65549Y-31947D01*
X65549Y-31947D01*
X65549Y-31947D01*
X65549Y-31947D01*
X65549Y-31947D01*
X65549Y-31947D01*
X65549Y-31947D01*
X65549Y-31947D01*
X65549Y-31947D01*
X65549Y-31947D01*
G37*
G36*
X63985Y-31384D02*
X63985Y-31384D01*
X63985Y-31384D01*
X63985Y-31384D01*
X63985Y-31384D01*
X63985Y-31384D01*
X63985Y-31384D01*
X63985Y-31384D01*
X63985Y-31384D01*
X63985Y-31384D01*
X63985Y-31384D01*
X63985Y-31384D01*
X63985Y-31384D01*
X63985Y-31384D01*
X63985Y-31384D01*
X63985Y-31384D01*
X63985Y-31384D01*
X63985Y-31384D01*
X63985Y-31384D01*
X63985Y-31384D01*
X63985Y-31384D01*
X63985Y-31384D01*
X63985Y-31384D01*
X63985Y-31384D01*
X63985Y-31384D01*
X63985Y-31384D01*
X63985Y-31384D01*
X63985Y-31384D01*
X63985Y-31384D01*
X63985Y-31384D01*
X63985Y-31384D01*
X63985Y-31384D01*
X63985Y-31384D01*
X63985Y-31384D01*
X63985Y-31384D01*
X63985Y-31384D01*
X63985Y-31384D01*
X63985Y-31384D01*
X63985Y-31384D01*
X63985Y-31384D01*
X63985Y-31384D01*
X63985Y-31384D01*
X63985Y-31384D01*
X63985Y-31384D01*
X63985Y-31384D01*
X63985Y-31384D01*
X63985Y-31384D01*
X63985Y-31384D01*
X63985Y-31384D01*
X63985Y-31384D01*
X63985Y-31384D01*
X63985Y-31384D01*
X63985Y-31384D01*
X63985Y-31384D01*
X63985Y-31384D01*
X63985Y-31384D01*
X63985Y-31384D01*
X63985Y-31384D01*
X63985Y-31384D01*
X63985Y-31384D01*
X63985Y-31384D01*
X63985Y-31384D01*
X63985Y-31384D01*
X63985Y-31384D01*
X63985Y-31384D01*
X63985Y-31384D01*
X63985Y-31384D01*
X63985Y-31384D01*
X63985Y-31384D01*
X63985Y-31384D01*
X63985Y-31384D01*
X63985Y-31384D01*
X63985Y-31384D01*
X63985Y-31384D01*
X63985Y-31384D01*
X63985Y-31384D01*
X63985Y-31384D01*
X63985Y-31384D01*
X63985Y-31384D01*
X63985Y-31384D01*
X63985Y-31384D01*
X63985Y-31384D01*
X63985Y-31384D01*
X63985Y-31384D01*
X63985Y-31384D01*
X63985Y-31384D01*
X63985Y-31384D01*
X63985Y-31384D01*
X63985Y-31384D01*
X63985Y-31384D01*
X63985Y-31384D01*
X63985Y-31384D01*
X63985Y-31384D01*
X63985Y-31384D01*
X63985Y-31384D01*
X63985Y-31384D01*
X63985Y-31384D01*
X63985Y-31384D01*
X63985Y-31384D01*
X63985Y-31384D01*
X63985Y-31384D01*
X63985Y-31384D01*
X63985Y-31384D01*
X63985Y-31384D01*
X63985Y-31384D01*
X63985Y-31384D01*
X63985Y-31384D01*
X63985Y-31384D01*
X63985Y-31384D01*
X63985Y-31384D01*
X63985Y-31384D01*
X63985Y-31384D01*
X63985Y-31384D01*
X63985Y-31384D01*
X63985Y-31384D01*
X63985Y-31384D01*
X63985Y-31384D01*
X63985Y-31384D01*
X63985Y-31384D01*
X63985Y-31384D01*
X63985Y-31384D01*
X63985Y-31384D01*
X63985Y-31384D01*
X63985Y-31384D01*
X63985Y-31384D01*
X63985Y-31384D01*
X63985Y-31384D01*
X63985Y-31384D01*
X63985Y-31384D01*
X63985Y-31384D01*
X63985Y-31384D01*
X63985Y-31384D01*
X63985Y-31384D01*
X63985Y-31384D01*
X63985Y-31384D01*
X63985Y-31384D01*
X63985Y-31384D01*
X63985Y-31384D01*
X63985Y-31384D01*
X63985Y-31384D01*
X63985Y-31384D01*
X63985Y-31384D01*
X63985Y-31384D01*
X63985Y-31384D01*
X63985Y-31384D01*
X63985Y-31384D01*
X63985Y-31384D01*
X63985Y-31384D01*
X63985Y-31384D01*
X63985Y-31384D01*
X63985Y-31384D01*
X63985Y-31384D01*
X63985Y-31384D01*
X63985Y-31384D01*
X63985Y-31384D01*
X63985Y-31384D01*
X63985Y-31384D01*
X63985Y-31384D01*
X63985Y-31384D01*
X63985Y-31384D01*
X63985Y-31384D01*
X63985Y-31384D01*
X63985Y-31384D01*
X63985Y-31384D01*
X63985Y-31384D01*
X63985Y-31384D01*
X63985Y-31384D01*
X63985Y-31384D01*
X63985Y-31384D01*
X63985Y-31384D01*
X63985Y-31384D01*
X63985Y-31384D01*
X63985Y-31384D01*
X63985Y-31384D01*
X63985Y-31384D01*
X63985Y-31384D01*
X63985Y-31384D01*
X63985Y-31384D01*
X63985Y-31384D01*
X63985Y-31384D01*
X63985Y-31384D01*
X63985Y-31384D01*
X63985Y-31384D01*
X63985Y-31384D01*
X63985Y-31384D01*
X63985Y-31384D01*
X63985Y-31384D01*
X63985Y-31384D01*
X63985Y-31384D01*
X63985Y-31384D01*
X63985Y-31384D01*
X63985Y-31384D01*
X63985Y-31384D01*
X63985Y-31384D01*
X63985Y-31384D01*
X63985Y-31384D01*
X63985Y-31384D01*
X63985Y-31384D01*
X63985Y-31384D01*
X63985Y-31384D01*
X63985Y-31384D01*
X63985Y-31384D01*
X63985Y-31384D01*
X63985Y-31384D01*
X63985Y-31384D01*
X63985Y-31384D01*
X63985Y-31384D01*
X63985Y-31384D01*
X63985Y-31384D01*
X63985Y-31384D01*
X63985Y-31384D01*
X63985Y-31384D01*
X63985Y-31384D01*
X63985Y-31384D01*
X63985Y-31384D01*
X63985Y-31384D01*
X63985Y-31384D01*
X63985Y-31384D01*
X63985Y-31384D01*
X63985Y-31384D01*
X63985Y-31384D01*
X63985Y-31384D01*
X63985Y-31384D01*
X63985Y-31384D01*
X63985Y-31384D01*
X63985Y-31384D01*
X63985Y-31384D01*
X63985Y-31384D01*
X63985Y-31384D01*
X63985Y-31384D01*
X63985Y-31384D01*
X63985Y-31384D01*
X63985Y-31384D01*
X63985Y-31384D01*
X63985Y-31384D01*
X63985Y-31384D01*
X63985Y-31384D01*
X63985Y-31384D01*
X63985Y-31384D01*
X63985Y-31384D01*
X63985Y-31384D01*
X63985Y-31384D01*
X63985Y-31384D01*
X63985Y-31384D01*
X63985Y-31384D01*
X63985Y-31384D01*
X63985Y-31384D01*
X63985Y-31384D01*
X63985Y-31384D01*
X63985Y-31384D01*
X63985Y-31384D01*
X63985Y-31384D01*
X63985Y-31384D01*
X63985Y-31384D01*
X63985Y-31384D01*
X63985Y-31384D01*
X63985Y-31384D01*
X63985Y-31384D01*
X63985Y-31384D01*
X63985Y-31384D01*
X63985Y-31384D01*
X63985Y-31384D01*
X63985Y-31384D01*
X63985Y-31384D01*
X63985Y-31384D01*
X63985Y-31384D01*
X63985Y-31384D01*
X63985Y-31384D01*
X63985Y-31384D01*
X63985Y-31384D01*
X63985Y-31384D01*
X63985Y-31384D01*
X63985Y-31384D01*
X63985Y-31384D01*
X63985Y-31384D01*
X63985Y-31384D01*
X63985Y-31384D01*
X63985Y-31384D01*
X63985Y-31384D01*
X63985Y-31384D01*
X63985Y-31384D01*
X63985Y-31384D01*
X63985Y-31384D01*
X63985Y-31384D01*
X63985Y-31384D01*
X63985Y-31384D01*
X63985Y-31384D01*
X63985Y-31384D01*
X63985Y-31384D01*
X63985Y-31384D01*
X63985Y-31384D01*
X63985Y-31384D01*
X63985Y-31384D01*
X63985Y-31384D01*
X63985Y-31384D01*
X63985Y-31384D01*
X63985Y-31384D01*
X63985Y-31384D01*
X63985Y-31384D01*
X63985Y-31384D01*
X63985Y-31384D01*
X63985Y-31384D01*
X63985Y-31384D01*
X63985Y-31384D01*
X63985Y-31384D01*
X63985Y-31384D01*
X63985Y-31384D01*
X63985Y-31384D01*
X63985Y-31384D01*
X63985Y-31384D01*
X63985Y-31384D01*
X63985Y-31384D01*
X63985Y-31384D01*
X63985Y-31384D01*
X63985Y-31384D01*
X63985Y-31384D01*
X63985Y-31384D01*
X63985Y-31384D01*
X63985Y-31384D01*
X63985Y-31384D01*
X63985Y-31384D01*
X63985Y-31384D01*
X63985Y-31384D01*
X63985Y-31384D01*
X63985Y-31384D01*
X63985Y-31384D01*
X63985Y-31384D01*
X63985Y-31384D01*
X63985Y-31384D01*
X63985Y-31384D01*
X63985Y-31384D01*
X63985Y-31384D01*
X63985Y-31384D01*
X63985Y-31384D01*
X63985Y-31384D01*
X63985Y-31384D01*
X63985Y-31384D01*
X63985Y-31384D01*
X63985Y-31384D01*
X63985Y-31384D01*
X63985Y-31384D01*
X63985Y-31384D01*
X63985Y-31384D01*
X63985Y-31384D01*
X63985Y-31384D01*
X63985Y-31384D01*
X63985Y-31384D01*
X63985Y-31384D01*
X63985Y-31384D01*
X63985Y-31384D01*
X63985Y-31384D01*
X63985Y-31384D01*
X63985Y-31384D01*
X63985Y-31384D01*
X63985Y-31384D01*
X63985Y-31384D01*
X63985Y-31384D01*
X63985Y-31384D01*
X63985Y-31384D01*
X63985Y-31384D01*
X63985Y-31384D01*
X63985Y-31384D01*
X63985Y-31384D01*
X63985Y-31384D01*
X63985Y-31384D01*
X63985Y-31384D01*
X63985Y-31384D01*
X63985Y-31384D01*
X63985Y-31384D01*
G37*
G36*
X50960Y-30808D02*
X50960Y-30808D01*
X50960Y-30808D01*
X50960Y-30808D01*
X50960Y-30808D01*
X50960Y-30808D01*
X50960Y-30808D01*
X50960Y-30808D01*
X50960Y-30808D01*
X50960Y-30808D01*
X50960Y-30808D01*
X50960Y-30808D01*
X50960Y-30808D01*
X50960Y-30808D01*
X50960Y-30808D01*
X50960Y-30808D01*
X50960Y-30808D01*
X50960Y-30808D01*
X50960Y-30808D01*
X50960Y-30808D01*
X50960Y-30808D01*
X50960Y-30808D01*
X50960Y-30808D01*
X50960Y-30808D01*
X50960Y-30808D01*
X50960Y-30808D01*
X50960Y-30808D01*
X50960Y-30808D01*
X50960Y-30808D01*
X50960Y-30808D01*
X50960Y-30808D01*
X50960Y-30808D01*
X50960Y-30808D01*
X50960Y-30808D01*
X50960Y-30808D01*
X50960Y-30808D01*
X50960Y-30808D01*
X50960Y-30808D01*
X50960Y-30808D01*
X50960Y-30808D01*
X50960Y-30808D01*
G37*
G36*
X52400Y-30809D02*
X52400Y-30809D01*
X52400Y-30809D01*
X52400Y-30809D01*
X52400Y-30809D01*
X52400Y-30809D01*
X52400Y-30809D01*
X52400Y-30809D01*
X52400Y-30809D01*
X52400Y-30809D01*
X52400Y-30809D01*
X52400Y-30809D01*
X52400Y-30809D01*
X52400Y-30809D01*
X52400Y-30809D01*
X52400Y-30809D01*
X52400Y-30809D01*
X52400Y-30809D01*
X52400Y-30809D01*
X52400Y-30809D01*
X52400Y-30809D01*
X52400Y-30809D01*
X52400Y-30809D01*
X52400Y-30809D01*
X52400Y-30809D01*
X52400Y-30809D01*
X52400Y-30809D01*
X52400Y-30809D01*
X52400Y-30809D01*
X52400Y-30809D01*
X52400Y-30809D01*
X52400Y-30809D01*
X52400Y-30809D01*
X52400Y-30809D01*
X52400Y-30809D01*
X52400Y-30809D01*
X52400Y-30809D01*
X52400Y-30809D01*
X52400Y-30809D01*
X52400Y-30809D01*
X52400Y-30809D01*
X52400Y-30809D01*
X52400Y-30809D01*
X52400Y-30809D01*
X52400Y-30809D01*
X52400Y-30809D01*
X52400Y-30809D01*
X52400Y-30809D01*
X52400Y-30809D01*
X52400Y-30809D01*
X52400Y-30809D01*
X52400Y-30809D01*
X52400Y-30809D01*
X52400Y-30809D01*
X52400Y-30809D01*
X52400Y-30809D01*
X52400Y-30809D01*
X52400Y-30809D01*
X52400Y-30809D01*
X52400Y-30809D01*
X52400Y-30809D01*
X52400Y-30809D01*
X52400Y-30809D01*
X52400Y-30809D01*
X52400Y-30809D01*
X52400Y-30809D01*
X52400Y-30809D01*
X52400Y-30809D01*
X52400Y-30809D01*
G37*
G36*
X50445Y-30805D02*
X50445Y-30805D01*
X50445Y-30805D01*
X50445Y-30805D01*
X50445Y-30805D01*
X50445Y-30805D01*
X50445Y-30805D01*
X50445Y-30805D01*
X50445Y-30805D01*
X50445Y-30805D01*
X50445Y-30805D01*
X50445Y-30805D01*
X50445Y-30805D01*
X50445Y-30805D01*
X50445Y-30805D01*
X50445Y-30805D01*
X50445Y-30805D01*
X50445Y-30805D01*
X50445Y-30805D01*
X50445Y-30805D01*
X50445Y-30805D01*
X50445Y-30805D01*
X50445Y-30805D01*
X50445Y-30805D01*
X50445Y-30805D01*
X50445Y-30805D01*
X50445Y-30805D01*
G37*
G36*
X50594Y-30805D02*
X50594Y-30805D01*
X50594Y-30805D01*
X50594Y-30805D01*
X50594Y-30805D01*
X50594Y-30805D01*
X50594Y-30805D01*
X50594Y-30805D01*
X50594Y-30805D01*
X50594Y-30805D01*
X50594Y-30805D01*
X50594Y-30805D01*
X50594Y-30805D01*
X50594Y-30805D01*
X50594Y-30805D01*
X50594Y-30805D01*
X50594Y-30805D01*
X50594Y-30805D01*
X50594Y-30805D01*
X50594Y-30805D01*
X50594Y-30805D01*
X50594Y-30805D01*
X50594Y-30805D01*
X50594Y-30805D01*
X50594Y-30805D01*
X50594Y-30805D01*
X50594Y-30805D01*
X50594Y-30805D01*
X50594Y-30805D01*
X50594Y-30805D01*
X50594Y-30805D01*
X50594Y-30805D01*
X50594Y-30805D01*
X50594Y-30805D01*
X50594Y-30805D01*
X50594Y-30805D01*
X50594Y-30805D01*
X50594Y-30805D01*
X50594Y-30805D01*
X50594Y-30805D01*
X50594Y-30805D01*
X50594Y-30805D01*
X50594Y-30805D01*
X50594Y-30805D01*
G37*
G36*
X51466Y-30805D02*
X51466Y-30805D01*
X51466Y-30805D01*
X51466Y-30805D01*
X51466Y-30805D01*
X51466Y-30805D01*
X51466Y-30805D01*
X51466Y-30805D01*
X51466Y-30805D01*
X51466Y-30805D01*
X51466Y-30805D01*
X51466Y-30805D01*
X51466Y-30805D01*
X51466Y-30805D01*
X51466Y-30805D01*
X51466Y-30805D01*
X51466Y-30805D01*
X51466Y-30805D01*
X51466Y-30805D01*
X51466Y-30805D01*
X51466Y-30805D01*
X51466Y-30805D01*
X51466Y-30805D01*
X51466Y-30805D01*
X51466Y-30805D01*
X51466Y-30805D01*
X51466Y-30805D01*
X51466Y-30805D01*
G37*
G36*
X51844Y-30805D02*
X51844Y-30805D01*
X51844Y-30805D01*
X51844Y-30805D01*
X51844Y-30805D01*
X51844Y-30805D01*
X51844Y-30805D01*
X51844Y-30805D01*
X51844Y-30805D01*
X51844Y-30805D01*
X51844Y-30805D01*
X51844Y-30805D01*
X51844Y-30805D01*
X51844Y-30805D01*
X51844Y-30805D01*
X51844Y-30805D01*
X51844Y-30805D01*
X51844Y-30805D01*
X51844Y-30805D01*
X51844Y-30805D01*
X51844Y-30805D01*
X51844Y-30805D01*
X51844Y-30805D01*
X51844Y-30805D01*
X51844Y-30805D01*
X51844Y-30805D01*
X51844Y-30805D01*
X51844Y-30805D01*
X51844Y-30805D01*
G37*
G36*
X51972Y-30805D02*
X51972Y-30805D01*
X51972Y-30805D01*
X51972Y-30805D01*
X51972Y-30805D01*
X51972Y-30805D01*
G37*
G36*
X52258Y-30805D02*
X52258Y-30805D01*
X52258Y-30805D01*
X52258Y-30805D01*
X52258Y-30805D01*
X52258Y-30805D01*
X52258Y-30805D01*
X52258Y-30805D01*
X52258Y-30805D01*
X52258Y-30805D01*
X52258Y-30805D01*
X52258Y-30805D01*
X52258Y-30805D01*
X52258Y-30805D01*
G37*
G36*
X52540Y-30383D02*
X52540Y-30383D01*
X52540Y-30383D01*
X52540Y-30383D01*
X52540Y-30383D01*
X52540Y-30383D01*
X52540Y-30383D01*
X52540Y-30383D01*
X52540Y-30383D01*
X52540Y-30383D01*
X52540Y-30383D01*
X52540Y-30383D01*
X52540Y-30383D01*
X52540Y-30383D01*
X52540Y-30383D01*
X52540Y-30383D01*
X52540Y-30383D01*
X52540Y-30383D01*
X52540Y-30383D01*
X52540Y-30383D01*
X52540Y-30383D01*
X52540Y-30383D01*
X52540Y-30383D01*
X52540Y-30383D01*
X52540Y-30383D01*
X52540Y-30383D01*
X52540Y-30383D01*
X52540Y-30383D01*
X52540Y-30383D01*
X52540Y-30383D01*
X52540Y-30383D01*
X52540Y-30383D01*
X52540Y-30383D01*
X52540Y-30383D01*
X52540Y-30383D01*
X52540Y-30383D01*
X52540Y-30383D01*
X52540Y-30383D01*
X52540Y-30383D01*
X52540Y-30383D01*
X52540Y-30383D01*
X52540Y-30383D01*
X52540Y-30383D01*
X52540Y-30383D01*
X52540Y-30383D01*
X52540Y-30383D01*
X52540Y-30383D01*
X52540Y-30383D01*
X52540Y-30383D01*
X52540Y-30383D01*
X52540Y-30383D01*
X52540Y-30383D01*
X52540Y-30383D01*
X52540Y-30383D01*
X52540Y-30383D01*
X52540Y-30383D01*
X52540Y-30383D01*
X52540Y-30383D01*
X52540Y-30383D01*
X52540Y-30383D01*
X52540Y-30383D01*
X52540Y-30383D01*
X52540Y-30383D01*
X52540Y-30383D01*
X52540Y-30383D01*
X52540Y-30383D01*
X52540Y-30383D01*
X52540Y-30383D01*
X52540Y-30383D01*
X52540Y-30383D01*
X52540Y-30383D01*
X52540Y-30383D01*
X52540Y-30383D01*
X52540Y-30383D01*
X52540Y-30383D01*
X52540Y-30383D01*
X52540Y-30383D01*
X52540Y-30383D01*
X52540Y-30383D01*
X52540Y-30383D01*
X52540Y-30383D01*
X52540Y-30383D01*
X52540Y-30383D01*
X52540Y-30383D01*
X52540Y-30383D01*
X52540Y-30383D01*
X52540Y-30383D01*
X52540Y-30383D01*
X52540Y-30383D01*
X52540Y-30383D01*
X52540Y-30383D01*
X52540Y-30383D01*
X52540Y-30383D01*
X52540Y-30383D01*
X52540Y-30383D01*
X52540Y-30383D01*
X52540Y-30383D01*
X52540Y-30383D01*
X52540Y-30383D01*
X52540Y-30383D01*
X52540Y-30383D01*
X52540Y-30383D01*
X52540Y-30383D01*
X52540Y-30383D01*
X52540Y-30383D01*
X52540Y-30383D01*
X52540Y-30383D01*
X52540Y-30383D01*
X52540Y-30383D01*
X52540Y-30383D01*
X52540Y-30383D01*
X52540Y-30383D01*
X52540Y-30383D01*
X52540Y-30383D01*
X52540Y-30383D01*
X52540Y-30383D01*
X52540Y-30383D01*
X52540Y-30383D01*
X52540Y-30383D01*
X52540Y-30383D01*
X52540Y-30383D01*
X52540Y-30383D01*
X52540Y-30383D01*
X52540Y-30383D01*
X52540Y-30383D01*
X52540Y-30383D01*
X52540Y-30383D01*
X52540Y-30383D01*
X52540Y-30383D01*
X52540Y-30383D01*
X52540Y-30383D01*
X52540Y-30383D01*
X52540Y-30383D01*
X52540Y-30383D01*
X52540Y-30383D01*
X52540Y-30383D01*
X52540Y-30383D01*
X52540Y-30383D01*
X52540Y-30383D01*
X52540Y-30383D01*
X52540Y-30383D01*
X52540Y-30383D01*
X52540Y-30383D01*
X52540Y-30383D01*
X52540Y-30383D01*
X52540Y-30383D01*
X52540Y-30383D01*
X52540Y-30383D01*
X52540Y-30383D01*
X52540Y-30383D01*
X52540Y-30383D01*
X52540Y-30383D01*
X52540Y-30383D01*
X52540Y-30383D01*
X52540Y-30383D01*
X52540Y-30383D01*
X52540Y-30383D01*
X52540Y-30383D01*
X52540Y-30383D01*
X52540Y-30383D01*
X52540Y-30383D01*
X52540Y-30383D01*
X52540Y-30383D01*
X52540Y-30383D01*
X52540Y-30383D01*
G37*
G54D17*
X60114Y-28289D02*
X60114Y-29077D01*
X56925Y-29077D02*
X56925Y-28289D01*
X60114Y-28289D02*
X56925Y-28289D01*
X56925Y-30110D02*
X56925Y-31193D01*
X60114Y-31193D02*
X60114Y-30110D01*
X57600Y-32050D02*
X57300Y-32050D01*
X59750Y-32050D02*
X59400Y-32050D01*
G54D16*
X59000Y-28934D02*
X58750Y-30184D01*
X58750Y-30184D02*
X58250Y-30184D01*
X58250Y-30184D02*
X58000Y-28934D01*
X57250Y-29934D02*
X57375Y-28934D01*
X57375Y-28934D02*
X57625Y-28934D01*
X57625Y-28934D02*
X57750Y-29934D01*
X59750Y-29934D02*
X59625Y-28934D01*
X59625Y-28934D02*
X59375Y-28934D01*
X59375Y-28934D02*
X59250Y-29934D01*
G54D17*
X63991Y-44241D02*
X66194Y-44241D01*
X66194Y-44241D02*
X66509Y-44556D01*
X66509Y-44556D02*
X66509Y-46444D01*
X66509Y-46444D02*
X66194Y-46759D01*
X66194Y-46759D02*
X63991Y-46759D01*
X63991Y-46759D02*
X63991Y-44241D01*
X64384Y-44752D02*
X64384Y-46248D01*
X64384Y-46248D02*
X64293Y-46115D01*
X64293Y-46115D02*
X64221Y-45971D01*
X64221Y-45971D02*
X64168Y-45818D01*
X64168Y-45818D02*
X64138Y-45660D01*
X64138Y-45660D02*
X64128Y-45500D01*
X64128Y-45500D02*
X64141Y-45340D01*
X64141Y-45340D02*
X64173Y-45183D01*
X64173Y-45183D02*
X64225Y-45031D01*
X64225Y-45031D02*
X64296Y-44887D01*
X64296Y-44887D02*
X64384Y-44752D01*
G54D19*
X66070Y-45500D02*
X66054Y-45659D01*
X66008Y-45812D01*
X65932Y-45953D01*
X65831Y-46077D01*
X65708Y-46179D01*
X65567Y-46255D01*
X65414Y-46303D01*
X65255Y-46319D01*
X65097Y-46305D01*
X64943Y-46260D01*
X64801Y-46186D01*
X64677Y-46085D01*
X64574Y-45963D01*
X64497Y-45823D01*
X64448Y-45670D01*
X64431Y-45511D01*
X64444Y-45352D01*
X64488Y-45199D01*
X64561Y-45056D01*
X64661Y-44931D01*
X64783Y-44827D01*
X64922Y-44749D01*
X65074Y-44700D01*
X65233Y-44681D01*
X65392Y-44693D01*
X65546Y-44736D01*
X65689Y-44808D01*
X65815Y-44907D01*
X65920Y-45028D01*
X65999Y-45167D01*
X66049Y-45319D01*
X66069Y-45478D01*
X66070Y-45500D01*
G54D17*
X52181Y-43701D02*
X52181Y-44685D01*
X52181Y-43701D02*
X52063Y-43701D01*
X52181Y-46299D02*
X52181Y-45315D01*
X52181Y-46299D02*
X52063Y-46299D01*
X49819Y-46299D02*
X49819Y-45315D01*
X49819Y-46299D02*
X49937Y-46299D01*
X49819Y-43701D02*
X49819Y-44685D01*
X49819Y-43701D02*
X49937Y-43701D01*
X51456Y-45000D02*
X51447Y-45088D01*
X51421Y-45173D01*
X51379Y-45252D01*
X51323Y-45321D01*
X51254Y-45378D01*
X51176Y-45420D01*
X51091Y-45446D01*
X51003Y-45455D01*
X50915Y-45447D01*
X50830Y-45422D01*
X50751Y-45381D01*
X50681Y-45325D01*
X50624Y-45257D01*
X50581Y-45179D01*
X50554Y-45094D01*
X50545Y-45006D01*
X50552Y-44918D01*
X50577Y-44833D01*
X50617Y-44753D01*
X50672Y-44684D01*
X50740Y-44626D01*
X50818Y-44583D01*
X50903Y-44555D01*
X50991Y-44545D01*
X51079Y-44551D01*
X51164Y-44575D01*
X51244Y-44615D01*
X51314Y-44670D01*
X51372Y-44738D01*
X51416Y-44815D01*
X51444Y-44899D01*
X51455Y-44988D01*
X51456Y-45000D01*
X52181Y-36451D02*
X52181Y-37435D01*
X52181Y-36451D02*
X52063Y-36451D01*
X52181Y-39049D02*
X52181Y-38065D01*
X52181Y-39049D02*
X52063Y-39049D01*
X49819Y-39049D02*
X49819Y-38065D01*
X49819Y-39049D02*
X49937Y-39049D01*
X49819Y-36451D02*
X49819Y-37435D01*
X49819Y-36451D02*
X49937Y-36451D01*
X51456Y-37750D02*
X51447Y-37838D01*
X51421Y-37923D01*
X51379Y-38002D01*
X51323Y-38071D01*
X51254Y-38128D01*
X51176Y-38170D01*
X51091Y-38196D01*
X51003Y-38205D01*
X50915Y-38197D01*
X50830Y-38172D01*
X50751Y-38131D01*
X50681Y-38075D01*
X50624Y-38007D01*
X50581Y-37929D01*
X50554Y-37844D01*
X50545Y-37756D01*
X50552Y-37668D01*
X50577Y-37583D01*
X50617Y-37503D01*
X50672Y-37434D01*
X50740Y-37376D01*
X50818Y-37333D01*
X50903Y-37305D01*
X50991Y-37295D01*
X51079Y-37301D01*
X51164Y-37325D01*
X51244Y-37365D01*
X51314Y-37420D01*
X51372Y-37488D01*
X51416Y-37565D01*
X51444Y-37649D01*
X51455Y-37738D01*
X51456Y-37750D01*
X67181Y-39951D02*
X67181Y-40935D01*
X67181Y-39951D02*
X67063Y-39951D01*
X67181Y-42549D02*
X67181Y-41565D01*
X67181Y-42549D02*
X67063Y-42549D01*
X64819Y-42549D02*
X64819Y-41565D01*
X64819Y-42549D02*
X64937Y-42549D01*
X64819Y-39951D02*
X64819Y-40935D01*
X64819Y-39951D02*
X64937Y-39951D01*
X66456Y-41250D02*
X66447Y-41338D01*
X66421Y-41423D01*
X66379Y-41502D01*
X66323Y-41571D01*
X66254Y-41628D01*
X66176Y-41670D01*
X66091Y-41696D01*
X66003Y-41705D01*
X65915Y-41697D01*
X65830Y-41672D01*
X65751Y-41631D01*
X65681Y-41575D01*
X65624Y-41507D01*
X65581Y-41429D01*
X65554Y-41344D01*
X65545Y-41256D01*
X65552Y-41168D01*
X65577Y-41083D01*
X65617Y-41003D01*
X65672Y-40934D01*
X65740Y-40876D01*
X65818Y-40833D01*
X65903Y-40805D01*
X65991Y-40795D01*
X66079Y-40801D01*
X66164Y-40825D01*
X66244Y-40865D01*
X66314Y-40920D01*
X66372Y-40988D01*
X66416Y-41065D01*
X66444Y-41149D01*
X66455Y-41238D01*
X66456Y-41250D01*
G54D10*
X54146Y-41514D02*
X54146Y-41986D01*
X54854Y-41238D02*
X54854Y-41632D01*
X54854Y-42262D02*
X54854Y-41868D01*
X54854Y-41159D02*
X54854Y-41238D01*
X54854Y-41159D02*
X54146Y-41159D01*
X54146Y-41159D02*
X54146Y-41238D01*
X54146Y-42341D02*
X54146Y-42262D01*
X54854Y-42341D02*
X54854Y-42262D01*
X54146Y-42341D02*
X54854Y-42341D01*
X65646Y-37264D02*
X65646Y-37736D01*
X66354Y-36988D02*
X66354Y-37382D01*
X66354Y-38012D02*
X66354Y-37618D01*
X66354Y-36909D02*
X66354Y-36988D01*
X66354Y-36909D02*
X65646Y-36909D01*
X65646Y-36909D02*
X65646Y-36988D01*
X65646Y-38091D02*
X65646Y-38012D01*
X66354Y-38091D02*
X66354Y-38012D01*
X65646Y-38091D02*
X66354Y-38091D01*
X57146Y-41514D02*
X57146Y-41986D01*
X57854Y-41238D02*
X57854Y-41632D01*
X57854Y-42262D02*
X57854Y-41868D01*
X57854Y-41159D02*
X57854Y-41238D01*
X57854Y-41159D02*
X57146Y-41159D01*
X57146Y-41159D02*
X57146Y-41238D01*
X57146Y-42341D02*
X57146Y-42262D01*
X57854Y-42341D02*
X57854Y-42262D01*
X57146Y-42341D02*
X57854Y-42341D01*
G54D20*
X55100Y-29050D02*
X56100Y-29050D01*
X56100Y-29050D02*
X56100Y-31050D01*
X56100Y-31050D02*
X55100Y-31050D01*
X55100Y-31050D02*
X55100Y-29050D01*
G54D17*
X63004Y-42606D02*
X62335Y-42606D01*
X63004Y-43394D02*
X62335Y-43394D01*
X61094Y-42606D02*
X61665Y-42606D01*
X61094Y-43394D02*
X61665Y-43394D01*
X63004Y-42606D02*
X63004Y-43394D01*
X62965Y-43394D02*
X62965Y-42606D01*
X61094Y-42606D02*
X61094Y-43394D01*
X62906Y-42606D02*
X62906Y-43394D01*
X63004Y-40856D02*
X62335Y-40856D01*
X63004Y-41644D02*
X62335Y-41644D01*
X61094Y-40856D02*
X61665Y-40856D01*
X61094Y-41644D02*
X61665Y-41644D01*
X63004Y-40856D02*
X63004Y-41644D01*
X62965Y-41644D02*
X62965Y-40856D01*
X61094Y-40856D02*
X61094Y-41644D01*
X62906Y-40856D02*
X62906Y-41644D01*
X57394Y-38754D02*
X57394Y-38085D01*
X56606Y-38754D02*
X56606Y-38085D01*
X57394Y-36844D02*
X57394Y-37415D01*
X56606Y-36844D02*
X56606Y-37415D01*
X57394Y-38754D02*
X56606Y-38754D01*
X56606Y-38715D02*
X57394Y-38715D01*
X57394Y-36844D02*
X56606Y-36844D01*
X57394Y-38656D02*
X56606Y-38656D01*
X56606Y-43996D02*
X56606Y-44665D01*
X57394Y-43996D02*
X57394Y-44665D01*
X56606Y-45906D02*
X56606Y-45335D01*
X57394Y-45906D02*
X57394Y-45335D01*
X56606Y-43996D02*
X57394Y-43996D01*
X57394Y-44035D02*
X56606Y-44035D01*
X56606Y-45906D02*
X57394Y-45906D01*
X56606Y-44094D02*
X57394Y-44094D01*
X54606Y-36746D02*
X54606Y-37415D01*
X55394Y-36746D02*
X55394Y-37415D01*
X54606Y-38656D02*
X54606Y-38085D01*
X55394Y-38656D02*
X55394Y-38085D01*
X54606Y-36746D02*
X55394Y-36746D01*
X55394Y-36785D02*
X54606Y-36785D01*
X54606Y-38656D02*
X55394Y-38656D01*
X54606Y-36844D02*
X55394Y-36844D01*
X54606Y-43996D02*
X54606Y-44665D01*
X55394Y-43996D02*
X55394Y-44665D01*
X54606Y-45906D02*
X54606Y-45335D01*
X55394Y-45906D02*
X55394Y-45335D01*
X54606Y-43996D02*
X55394Y-43996D01*
X55394Y-44035D02*
X54606Y-44035D01*
X54606Y-45906D02*
X55394Y-45906D01*
X54606Y-44094D02*
X55394Y-44094D01*
G54D16*
X50958Y-42351D02*
X50875Y-42232D01*
X50816Y-42351D02*
X50816Y-42101D01*
X50911Y-42101D01*
X50935Y-42113D01*
X50946Y-42125D01*
X50958Y-42149D01*
X50958Y-42185D01*
X50946Y-42208D01*
X50935Y-42220D01*
X50911Y-42232D01*
X50816Y-42232D01*
X51173Y-42185D02*
X51173Y-42351D01*
X51113Y-42089D02*
X51054Y-42268D01*
X51208Y-42268D01*
X50958Y-40601D02*
X50875Y-40482D01*
X50816Y-40601D02*
X50816Y-40351D01*
X50911Y-40351D01*
X50935Y-40363D01*
X50946Y-40375D01*
X50958Y-40399D01*
X50958Y-40435D01*
X50946Y-40458D01*
X50935Y-40470D01*
X50911Y-40482D01*
X50816Y-40482D01*
X51185Y-40351D02*
X51066Y-40351D01*
X51054Y-40470D01*
X51066Y-40458D01*
X51089Y-40446D01*
X51149Y-40446D01*
X51173Y-40458D01*
X51185Y-40470D01*
X51196Y-40494D01*
X51196Y-40554D01*
X51185Y-40577D01*
X51173Y-40589D01*
X51149Y-40601D01*
X51089Y-40601D01*
X51066Y-40589D01*
X51054Y-40577D01*
G54D10*
X62097Y-39176D02*
X61983Y-39256D01*
X62097Y-39313D02*
X61857Y-39313D01*
X61857Y-39221D01*
X61869Y-39199D01*
X61880Y-39187D01*
X61903Y-39176D01*
X61937Y-39176D01*
X61960Y-39187D01*
X61971Y-39199D01*
X61983Y-39221D01*
X61983Y-39313D01*
G54D21*
X65167Y-43905D02*
X65143Y-43929D01*
X65072Y-43952D01*
X65024Y-43952D01*
X64952Y-43929D01*
X64905Y-43881D01*
X64881Y-43833D01*
X64857Y-43738D01*
X64857Y-43667D01*
X64881Y-43571D01*
X64905Y-43524D01*
X64952Y-43476D01*
X65024Y-43452D01*
X65072Y-43452D01*
X65143Y-43476D01*
X65167Y-43500D01*
X65643Y-43952D02*
X65357Y-43952D01*
X65500Y-43952D02*
X65500Y-43452D01*
X65452Y-43524D01*
X65405Y-43571D01*
X65357Y-43595D01*
X65167Y-47405D02*
X65143Y-47429D01*
X65072Y-47452D01*
X65024Y-47452D01*
X64952Y-47429D01*
X64905Y-47381D01*
X64881Y-47333D01*
X64857Y-47238D01*
X64857Y-47167D01*
X64881Y-47071D01*
X64905Y-47024D01*
X64952Y-46976D01*
X65024Y-46952D01*
X65072Y-46952D01*
X65143Y-46976D01*
X65167Y-47000D01*
X65381Y-47452D02*
X65381Y-46952D01*
X65572Y-46952D01*
X65619Y-46976D01*
X65643Y-47000D01*
X65667Y-47048D01*
X65667Y-47119D01*
X65643Y-47167D01*
X65619Y-47190D01*
X65572Y-47214D01*
X65381Y-47214D01*
X66143Y-47452D02*
X65857Y-47452D01*
X66000Y-47452D02*
X66000Y-46952D01*
X65952Y-47024D01*
X65905Y-47071D01*
X65857Y-47095D01*
G54D17*
X52729Y-46044D02*
X52746Y-45998D01*
X52746Y-45922D01*
X52729Y-45892D01*
X52711Y-45876D01*
X52677Y-45861D01*
X52643Y-45861D01*
X52609Y-45876D01*
X52591Y-45892D01*
X52574Y-45922D01*
X52557Y-45983D01*
X52540Y-46014D01*
X52523Y-46029D01*
X52489Y-46044D01*
X52454Y-46044D01*
X52420Y-46029D01*
X52403Y-46014D01*
X52386Y-45983D01*
X52386Y-45907D01*
X52403Y-45861D01*
X52386Y-45754D02*
X52746Y-45678D01*
X52489Y-45617D01*
X52746Y-45556D01*
X52386Y-45480D01*
X52780Y-45434D02*
X52780Y-45190D01*
X52746Y-45114D02*
X52386Y-45114D01*
X52386Y-44992D01*
X52403Y-44961D01*
X52420Y-44946D01*
X52454Y-44931D01*
X52506Y-44931D01*
X52540Y-44946D01*
X52557Y-44961D01*
X52574Y-44992D01*
X52574Y-45114D01*
X52386Y-44794D02*
X52677Y-44794D01*
X52711Y-44779D01*
X52729Y-44763D01*
X52746Y-44733D01*
X52746Y-44672D01*
X52729Y-44641D01*
X52711Y-44626D01*
X52677Y-44611D01*
X52386Y-44611D01*
X52729Y-44474D02*
X52746Y-44428D01*
X52746Y-44352D01*
X52729Y-44322D01*
X52711Y-44306D01*
X52677Y-44291D01*
X52643Y-44291D01*
X52609Y-44306D01*
X52591Y-44322D01*
X52574Y-44352D01*
X52557Y-44413D01*
X52540Y-44444D01*
X52523Y-44459D01*
X52489Y-44474D01*
X52454Y-44474D01*
X52420Y-44459D01*
X52403Y-44444D01*
X52386Y-44413D01*
X52386Y-44337D01*
X52403Y-44291D01*
X52746Y-44154D02*
X52386Y-44154D01*
X52557Y-44154D02*
X52557Y-43971D01*
X52746Y-43971D02*
X52386Y-43971D01*
X52729Y-38794D02*
X52746Y-38748D01*
X52746Y-38672D01*
X52729Y-38642D01*
X52711Y-38626D01*
X52677Y-38611D01*
X52643Y-38611D01*
X52609Y-38626D01*
X52591Y-38642D01*
X52574Y-38672D01*
X52557Y-38733D01*
X52540Y-38764D01*
X52523Y-38779D01*
X52489Y-38794D01*
X52454Y-38794D01*
X52420Y-38779D01*
X52403Y-38764D01*
X52386Y-38733D01*
X52386Y-38657D01*
X52403Y-38611D01*
X52386Y-38504D02*
X52746Y-38428D01*
X52489Y-38367D01*
X52746Y-38306D01*
X52386Y-38230D01*
X52780Y-38184D02*
X52780Y-37940D01*
X52746Y-37864D02*
X52386Y-37864D01*
X52386Y-37742D01*
X52403Y-37711D01*
X52420Y-37696D01*
X52454Y-37681D01*
X52506Y-37681D01*
X52540Y-37696D01*
X52557Y-37711D01*
X52574Y-37742D01*
X52574Y-37864D01*
X52386Y-37544D02*
X52677Y-37544D01*
X52711Y-37529D01*
X52729Y-37513D01*
X52746Y-37483D01*
X52746Y-37422D01*
X52729Y-37391D01*
X52711Y-37376D01*
X52677Y-37361D01*
X52386Y-37361D01*
X52729Y-37224D02*
X52746Y-37178D01*
X52746Y-37102D01*
X52729Y-37072D01*
X52711Y-37056D01*
X52677Y-37041D01*
X52643Y-37041D01*
X52609Y-37056D01*
X52591Y-37072D01*
X52574Y-37102D01*
X52557Y-37163D01*
X52540Y-37194D01*
X52523Y-37209D01*
X52489Y-37224D01*
X52454Y-37224D01*
X52420Y-37209D01*
X52403Y-37194D01*
X52386Y-37163D01*
X52386Y-37087D01*
X52403Y-37041D01*
X52746Y-36904D02*
X52386Y-36904D01*
X52557Y-36904D02*
X52557Y-36721D01*
X52746Y-36721D02*
X52386Y-36721D01*
X67729Y-42294D02*
X67746Y-42248D01*
X67746Y-42172D01*
X67729Y-42142D01*
X67711Y-42126D01*
X67677Y-42111D01*
X67643Y-42111D01*
X67609Y-42126D01*
X67591Y-42142D01*
X67574Y-42172D01*
X67557Y-42233D01*
X67540Y-42264D01*
X67523Y-42279D01*
X67489Y-42294D01*
X67454Y-42294D01*
X67420Y-42279D01*
X67403Y-42264D01*
X67386Y-42233D01*
X67386Y-42157D01*
X67403Y-42111D01*
X67386Y-42004D02*
X67746Y-41928D01*
X67489Y-41867D01*
X67746Y-41806D01*
X67386Y-41730D01*
X67780Y-41684D02*
X67780Y-41440D01*
X67746Y-41364D02*
X67386Y-41364D01*
X67386Y-41242D01*
X67403Y-41211D01*
X67420Y-41196D01*
X67454Y-41181D01*
X67506Y-41181D01*
X67540Y-41196D01*
X67557Y-41211D01*
X67574Y-41242D01*
X67574Y-41364D01*
X67386Y-41044D02*
X67677Y-41044D01*
X67711Y-41029D01*
X67729Y-41013D01*
X67746Y-40983D01*
X67746Y-40922D01*
X67729Y-40891D01*
X67711Y-40876D01*
X67677Y-40861D01*
X67386Y-40861D01*
X67729Y-40724D02*
X67746Y-40678D01*
X67746Y-40602D01*
X67729Y-40572D01*
X67711Y-40556D01*
X67677Y-40541D01*
X67643Y-40541D01*
X67609Y-40556D01*
X67591Y-40572D01*
X67574Y-40602D01*
X67557Y-40663D01*
X67540Y-40694D01*
X67523Y-40709D01*
X67489Y-40724D01*
X67454Y-40724D01*
X67420Y-40709D01*
X67403Y-40694D01*
X67386Y-40663D01*
X67386Y-40587D01*
X67403Y-40541D01*
X67746Y-40404D02*
X67386Y-40404D01*
X67557Y-40404D02*
X67557Y-40221D01*
X67746Y-40221D02*
X67386Y-40221D01*
G54D10*
X54620Y-41773D02*
X54609Y-41796D01*
X54586Y-41819D01*
X54551Y-41853D01*
X54540Y-41876D01*
X54540Y-41899D01*
X54597Y-41887D02*
X54586Y-41910D01*
X54563Y-41933D01*
X54517Y-41944D01*
X54437Y-41944D01*
X54391Y-41933D01*
X54369Y-41910D01*
X54357Y-41887D01*
X54357Y-41841D01*
X54369Y-41819D01*
X54391Y-41796D01*
X54437Y-41784D01*
X54517Y-41784D01*
X54563Y-41796D01*
X54586Y-41819D01*
X54597Y-41841D01*
X54597Y-41887D01*
X54380Y-41693D02*
X54369Y-41682D01*
X54357Y-41659D01*
X54357Y-41602D01*
X54369Y-41579D01*
X54380Y-41568D01*
X54403Y-41556D01*
X54426Y-41556D01*
X54460Y-41568D01*
X54597Y-41705D01*
X54597Y-41556D01*
X65696Y-37447D02*
X65685Y-37470D01*
X65662Y-37493D01*
X65627Y-37527D01*
X65616Y-37550D01*
X65616Y-37573D01*
X65673Y-37561D02*
X65662Y-37584D01*
X65639Y-37607D01*
X65593Y-37618D01*
X65513Y-37618D01*
X65467Y-37607D01*
X65445Y-37584D01*
X65433Y-37561D01*
X65433Y-37515D01*
X65445Y-37493D01*
X65467Y-37470D01*
X65513Y-37458D01*
X65593Y-37458D01*
X65639Y-37470D01*
X65662Y-37493D01*
X65673Y-37515D01*
X65673Y-37561D01*
X65673Y-37230D02*
X65673Y-37367D01*
X65673Y-37299D02*
X65433Y-37299D01*
X65467Y-37322D01*
X65490Y-37344D01*
X65502Y-37367D01*
X57620Y-41773D02*
X57609Y-41796D01*
X57586Y-41819D01*
X57551Y-41853D01*
X57540Y-41876D01*
X57540Y-41899D01*
X57597Y-41887D02*
X57586Y-41910D01*
X57563Y-41933D01*
X57517Y-41944D01*
X57437Y-41944D01*
X57391Y-41933D01*
X57369Y-41910D01*
X57357Y-41887D01*
X57357Y-41841D01*
X57369Y-41819D01*
X57391Y-41796D01*
X57437Y-41784D01*
X57517Y-41784D01*
X57563Y-41796D01*
X57586Y-41819D01*
X57597Y-41841D01*
X57597Y-41887D01*
X57357Y-41705D02*
X57357Y-41556D01*
X57449Y-41636D01*
X57449Y-41602D01*
X57460Y-41579D01*
X57471Y-41568D01*
X57494Y-41556D01*
X57551Y-41556D01*
X57574Y-41568D01*
X57586Y-41579D01*
X57597Y-41602D01*
X57597Y-41670D01*
X57586Y-41693D01*
X57574Y-41705D01*
G54D22*
X56875Y-30366D02*
X56194Y-30366D01*
X56194Y-30203D01*
X56227Y-30162D01*
X56259Y-30142D01*
X56324Y-30122D01*
X56421Y-30122D01*
X56486Y-30142D01*
X56518Y-30162D01*
X56551Y-30203D01*
X56551Y-30366D01*
X56875Y-29714D02*
X56875Y-29958D01*
X56875Y-29836D02*
X56194Y-29836D01*
X56291Y-29877D01*
X56356Y-29918D01*
X56389Y-29958D01*
G54D10*
X62097Y-42926D02*
X61983Y-43006D01*
X62097Y-43063D02*
X61857Y-43063D01*
X61857Y-42971D01*
X61869Y-42949D01*
X61880Y-42937D01*
X61903Y-42926D01*
X61937Y-42926D01*
X61960Y-42937D01*
X61971Y-42949D01*
X61983Y-42971D01*
X61983Y-43063D01*
X62097Y-41404D02*
X62097Y-41518D01*
X61857Y-41518D01*
X61971Y-41324D02*
X61971Y-41244D01*
X62097Y-41210D02*
X62097Y-41324D01*
X61857Y-41324D01*
X61857Y-41210D01*
X62097Y-41107D02*
X61857Y-41107D01*
X61857Y-41050D01*
X61869Y-41015D01*
X61891Y-40993D01*
X61914Y-40981D01*
X61960Y-40970D01*
X61994Y-40970D01*
X62040Y-40981D01*
X62063Y-40993D01*
X62086Y-41015D01*
X62097Y-41050D01*
X62097Y-41107D01*
X56846Y-37847D02*
X56732Y-37847D01*
X56732Y-37607D01*
X56926Y-37721D02*
X57006Y-37721D01*
X57040Y-37847D02*
X56926Y-37847D01*
X56926Y-37607D01*
X57040Y-37607D01*
X57143Y-37847D02*
X57143Y-37607D01*
X57200Y-37607D01*
X57235Y-37619D01*
X57257Y-37641D01*
X57269Y-37664D01*
X57280Y-37710D01*
X57280Y-37744D01*
X57269Y-37790D01*
X57257Y-37813D01*
X57235Y-37836D01*
X57200Y-37847D01*
X57143Y-37847D01*
X56846Y-45097D02*
X56732Y-45097D01*
X56732Y-44857D01*
X56926Y-44971D02*
X57006Y-44971D01*
X57040Y-45097D02*
X56926Y-45097D01*
X56926Y-44857D01*
X57040Y-44857D01*
X57143Y-45097D02*
X57143Y-44857D01*
X57200Y-44857D01*
X57235Y-44869D01*
X57257Y-44891D01*
X57269Y-44914D01*
X57280Y-44960D01*
X57280Y-44994D01*
X57269Y-45040D01*
X57257Y-45063D01*
X57235Y-45086D01*
X57200Y-45097D01*
X57143Y-45097D01*
X55074Y-37847D02*
X54994Y-37733D01*
X54937Y-37847D02*
X54937Y-37607D01*
X55029Y-37607D01*
X55051Y-37619D01*
X55063Y-37630D01*
X55074Y-37653D01*
X55074Y-37687D01*
X55063Y-37710D01*
X55051Y-37721D01*
X55029Y-37733D01*
X54937Y-37733D01*
X55074Y-45097D02*
X54994Y-44983D01*
X54937Y-45097D02*
X54937Y-44857D01*
X55029Y-44857D01*
X55051Y-44869D01*
X55063Y-44880D01*
X55074Y-44903D01*
X55074Y-44937D01*
X55063Y-44960D01*
X55051Y-44971D01*
X55029Y-44983D01*
X54937Y-44983D01*
%LPC*%
G54D23*
X50625Y-42250D03*
X51375Y-42250D03*
X50625Y-40500D03*
X51375Y-40500D03*
G54D24*
X62630Y-39250D03*
X61370Y-39250D03*
G54D25*
X58500Y-31774D03*
X58814Y-31774D03*
X57871Y-31774D03*
G54D26*
X60271Y-29569D03*
X60271Y-31734D03*
X56729Y-29569D03*
X56768Y-31734D03*
G54D27*
X58186Y-31750D03*
G54D28*
X59189Y-30750D03*
X57811Y-30750D03*
G54D25*
X59129Y-31774D03*
G54D29*
X66352Y-45500D03*
X64148Y-45500D03*
G54D30*
X50213Y-43819D03*
X51787Y-43819D03*
X50213Y-46181D03*
X51787Y-46181D03*
X50213Y-36569D03*
X51787Y-36569D03*
X50213Y-38931D03*
X51787Y-38931D03*
X65213Y-40069D03*
X66787Y-40069D03*
X65213Y-42431D03*
X66787Y-42431D03*
G54D31*
X54000Y-42125D03*
X54000Y-41375D03*
X55000Y-41750D03*
X65500Y-37875D03*
X65500Y-37125D03*
X66500Y-37500D03*
X57000Y-42125D03*
X57000Y-41375D03*
X58000Y-41750D03*
G54D32*
X55600Y-29550D03*
G54D33*
X55600Y-30550D03*
G54D24*
X62630Y-43000D03*
X61370Y-43000D03*
X62630Y-41250D03*
X61370Y-41250D03*
G54D34*
X57000Y-38380D03*
X57000Y-37120D03*
X57000Y-44370D03*
X57000Y-45630D03*
X55000Y-37120D03*
X55000Y-38380D03*
X55000Y-44370D03*
X55000Y-45630D03*
G54D35*
X54016Y-43250D03*
X55984Y-43250D03*
M02*
