G04 (created by PCBNEW-RS274X (2011-05-25)-stable) date Sun 24 Mar 2013 20:47:49 CET*
G01*
G70*
G90*
%MOIN*%
G04 Gerber Fmt 3.4, Leading zero omitted, Abs format*
%FSLAX34Y34*%
G04 APERTURE LIST*
%ADD10C,0.006000*%
%ADD11C,0.004900*%
%ADD12C,0.015000*%
%ADD13C,0.000100*%
%ADD14C,0.008000*%
%ADD15C,0.007000*%
%ADD16C,0.007900*%
%ADD17C,0.005500*%
%ADD18C,0.005000*%
%ADD19R,0.070000X0.036000*%
%ADD20C,0.060000*%
%ADD21C,0.085000*%
%ADD22R,0.075000X0.075000*%
%ADD23C,0.075000*%
%ADD24R,0.075100X0.134200*%
%ADD25R,0.044000X0.055000*%
%ADD26R,0.067200X0.067200*%
%ADD27R,0.065000X0.040000*%
%ADD28R,0.079100X0.083000*%
%ADD29R,0.090900X0.067200*%
%ADD30R,0.067200X0.090900*%
%ADD31R,0.081000X0.044000*%
G04 APERTURE END LIST*
G54D10*
G54D11*
X52776Y-41828D02*
X52851Y-41828D01*
X52460Y-41922D02*
X52471Y-41941D01*
X52501Y-41959D01*
X52520Y-41959D01*
X52546Y-41941D01*
X52560Y-41903D01*
X52565Y-41866D01*
X52564Y-41791D01*
X52557Y-41734D01*
X52539Y-41659D01*
X52525Y-41622D01*
X52501Y-41584D01*
X52471Y-41565D01*
X52452Y-41565D01*
X52426Y-41584D01*
X52420Y-41603D01*
X52351Y-41959D02*
X52368Y-41941D01*
X52375Y-41922D01*
X52379Y-41884D01*
X52365Y-41772D01*
X52351Y-41734D01*
X52340Y-41716D01*
X52318Y-41697D01*
X52290Y-41697D01*
X52274Y-41716D01*
X52267Y-41734D01*
X52262Y-41772D01*
X52276Y-41884D01*
X52291Y-41922D01*
X52302Y-41941D01*
X52323Y-41959D01*
X52351Y-41959D01*
X52168Y-41697D02*
X52201Y-41959D01*
X52173Y-41734D02*
X52162Y-41716D01*
X52140Y-41697D01*
X52112Y-41697D01*
X52096Y-41716D01*
X52091Y-41753D01*
X52117Y-41959D01*
X52018Y-41697D02*
X51943Y-41697D01*
X52023Y-41959D02*
X51981Y-41622D01*
X51967Y-41584D01*
X51946Y-41565D01*
X51927Y-41565D01*
X51793Y-41697D02*
X51826Y-41959D01*
X51877Y-41697D02*
X51903Y-41903D01*
X51899Y-41941D01*
X51882Y-41959D01*
X51854Y-41959D01*
X51833Y-41941D01*
X51822Y-41922D01*
X51646Y-41941D02*
X51666Y-41959D01*
X51704Y-41959D01*
X51721Y-41941D01*
X51728Y-41922D01*
X51732Y-41884D01*
X51718Y-41772D01*
X51704Y-41734D01*
X51693Y-41716D01*
X51671Y-41697D01*
X51633Y-41697D01*
X51618Y-41716D01*
X51563Y-41959D02*
X51530Y-41697D01*
X51514Y-41565D02*
X51525Y-41584D01*
X51519Y-41603D01*
X51507Y-41584D01*
X51514Y-41565D01*
X51519Y-41603D01*
X51352Y-41697D02*
X51385Y-41959D01*
X51436Y-41697D02*
X51462Y-41903D01*
X51458Y-41941D01*
X51441Y-41959D01*
X51413Y-41959D01*
X51392Y-41941D01*
X51381Y-41922D01*
X51298Y-41941D02*
X51282Y-41959D01*
X51244Y-41959D01*
X51223Y-41941D01*
X51209Y-41903D01*
X51207Y-41884D01*
X51211Y-41847D01*
X51228Y-41828D01*
X51256Y-41828D01*
X51272Y-41809D01*
X51277Y-41772D01*
X51274Y-41753D01*
X51261Y-41716D01*
X51239Y-41697D01*
X51211Y-41697D01*
X51195Y-41716D01*
X52912Y-41359D02*
X52863Y-40965D01*
X52584Y-41359D02*
X52535Y-40965D01*
X52582Y-41341D02*
X52602Y-41359D01*
X52640Y-41359D01*
X52657Y-41341D01*
X52664Y-41322D01*
X52668Y-41284D01*
X52654Y-41172D01*
X52640Y-41134D01*
X52629Y-41116D01*
X52607Y-41097D01*
X52569Y-41097D01*
X52554Y-41116D01*
X52462Y-41359D02*
X52479Y-41341D01*
X52486Y-41322D01*
X52490Y-41284D01*
X52476Y-41172D01*
X52462Y-41134D01*
X52451Y-41116D01*
X52429Y-41097D01*
X52401Y-41097D01*
X52385Y-41116D01*
X52378Y-41134D01*
X52373Y-41172D01*
X52387Y-41284D01*
X52402Y-41322D01*
X52413Y-41341D01*
X52434Y-41359D01*
X52462Y-41359D01*
X52078Y-41359D02*
X52052Y-41153D01*
X52057Y-41116D01*
X52073Y-41097D01*
X52110Y-41097D01*
X52132Y-41116D01*
X52076Y-41341D02*
X52096Y-41359D01*
X52143Y-41359D01*
X52160Y-41341D01*
X52164Y-41303D01*
X52160Y-41266D01*
X52146Y-41228D01*
X52124Y-41209D01*
X52077Y-41209D01*
X52057Y-41191D01*
X51951Y-41097D02*
X51984Y-41359D01*
X51956Y-41134D02*
X51945Y-41116D01*
X51923Y-41097D01*
X51895Y-41097D01*
X51879Y-41116D01*
X51874Y-41153D01*
X51900Y-41359D01*
X51722Y-41359D02*
X51673Y-40965D01*
X51720Y-41341D02*
X51740Y-41359D01*
X51778Y-41359D01*
X51795Y-41341D01*
X51802Y-41322D01*
X51806Y-41284D01*
X51792Y-41172D01*
X51778Y-41134D01*
X51767Y-41116D01*
X51745Y-41097D01*
X51707Y-41097D01*
X51692Y-41116D01*
X51478Y-41359D02*
X51429Y-40965D01*
X51117Y-41097D02*
X51150Y-41359D01*
X51201Y-41097D02*
X51227Y-41303D01*
X51223Y-41341D01*
X51206Y-41359D01*
X51178Y-41359D01*
X51157Y-41341D01*
X51146Y-41322D01*
X51023Y-41097D02*
X51056Y-41359D01*
X51028Y-41134D02*
X51017Y-41116D01*
X50995Y-41097D01*
X50967Y-41097D01*
X50951Y-41116D01*
X50946Y-41153D01*
X50972Y-41359D01*
X50794Y-41359D02*
X50745Y-40965D01*
X50792Y-41341D02*
X50812Y-41359D01*
X50850Y-41359D01*
X50867Y-41341D01*
X50874Y-41322D01*
X50878Y-41284D01*
X50864Y-41172D01*
X50850Y-41134D01*
X50839Y-41116D01*
X50817Y-41097D01*
X50779Y-41097D01*
X50764Y-41116D01*
X50623Y-41341D02*
X50644Y-41359D01*
X50681Y-41359D01*
X50698Y-41341D01*
X50702Y-41303D01*
X50683Y-41153D01*
X50670Y-41116D01*
X50648Y-41097D01*
X50611Y-41097D01*
X50595Y-41116D01*
X50590Y-41153D01*
X50595Y-41191D01*
X50693Y-41228D01*
X50531Y-41359D02*
X50498Y-41097D01*
X50508Y-41172D02*
X50494Y-41134D01*
X50482Y-41116D01*
X50461Y-41097D01*
X50442Y-41097D01*
X50416Y-41341D02*
X50400Y-41359D01*
X50362Y-41359D01*
X50341Y-41341D01*
X50327Y-41303D01*
X50325Y-41284D01*
X50329Y-41247D01*
X50346Y-41228D01*
X50374Y-41228D01*
X50390Y-41209D01*
X50395Y-41172D01*
X50392Y-41153D01*
X50379Y-41116D01*
X50357Y-41097D01*
X50329Y-41097D01*
X50313Y-41116D01*
X50245Y-41097D02*
X50170Y-41097D01*
X50201Y-40965D02*
X50243Y-41303D01*
X50239Y-41341D01*
X50222Y-41359D01*
X50203Y-41359D01*
X50053Y-41359D02*
X50027Y-41153D01*
X50032Y-41116D01*
X50048Y-41097D01*
X50085Y-41097D01*
X50107Y-41116D01*
X50051Y-41341D02*
X50071Y-41359D01*
X50118Y-41359D01*
X50135Y-41341D01*
X50139Y-41303D01*
X50135Y-41266D01*
X50121Y-41228D01*
X50099Y-41209D01*
X50052Y-41209D01*
X50032Y-41191D01*
X49926Y-41097D02*
X49959Y-41359D01*
X49931Y-41134D02*
X49920Y-41116D01*
X49898Y-41097D01*
X49870Y-41097D01*
X49854Y-41116D01*
X49849Y-41153D01*
X49875Y-41359D01*
X49697Y-41359D02*
X49648Y-40965D01*
X49695Y-41341D02*
X49715Y-41359D01*
X49753Y-41359D01*
X49770Y-41341D01*
X49777Y-41322D01*
X49781Y-41284D01*
X49767Y-41172D01*
X49753Y-41134D01*
X49742Y-41116D01*
X49720Y-41097D01*
X49682Y-41097D01*
X49667Y-41116D01*
X49599Y-41322D02*
X49592Y-41341D01*
X49603Y-41359D01*
X49610Y-41341D01*
X49599Y-41322D01*
X49603Y-41359D01*
X52903Y-40159D02*
X52854Y-39765D01*
X52659Y-40159D02*
X52610Y-39765D01*
X52575Y-40159D02*
X52549Y-39953D01*
X52554Y-39916D01*
X52570Y-39897D01*
X52598Y-39897D01*
X52620Y-39916D01*
X52631Y-39934D01*
X52404Y-40141D02*
X52425Y-40159D01*
X52462Y-40159D01*
X52479Y-40141D01*
X52483Y-40103D01*
X52464Y-39953D01*
X52451Y-39916D01*
X52429Y-39897D01*
X52392Y-39897D01*
X52376Y-39916D01*
X52371Y-39953D01*
X52376Y-39991D01*
X52474Y-40028D01*
X52228Y-40159D02*
X52202Y-39953D01*
X52207Y-39916D01*
X52223Y-39897D01*
X52260Y-39897D01*
X52282Y-39916D01*
X52226Y-40141D02*
X52246Y-40159D01*
X52293Y-40159D01*
X52310Y-40141D01*
X52314Y-40103D01*
X52310Y-40066D01*
X52296Y-40028D01*
X52274Y-40009D01*
X52227Y-40009D01*
X52207Y-39991D01*
X52134Y-40159D02*
X52101Y-39897D01*
X52111Y-39972D02*
X52097Y-39934D01*
X52085Y-39916D01*
X52064Y-39897D01*
X52045Y-39897D01*
X51778Y-40159D02*
X51752Y-39953D01*
X51757Y-39916D01*
X51773Y-39897D01*
X51810Y-39897D01*
X51832Y-39916D01*
X51776Y-40141D02*
X51796Y-40159D01*
X51843Y-40159D01*
X51860Y-40141D01*
X51864Y-40103D01*
X51860Y-40066D01*
X51846Y-40028D01*
X51824Y-40009D01*
X51777Y-40009D01*
X51757Y-39991D01*
X51651Y-39897D02*
X51684Y-40159D01*
X51656Y-39934D02*
X51645Y-39916D01*
X51623Y-39897D01*
X51595Y-39897D01*
X51579Y-39916D01*
X51574Y-39953D01*
X51600Y-40159D01*
X51422Y-40159D02*
X51373Y-39765D01*
X51420Y-40141D02*
X51440Y-40159D01*
X51478Y-40159D01*
X51495Y-40141D01*
X51502Y-40122D01*
X51506Y-40084D01*
X51492Y-39972D01*
X51478Y-39934D01*
X51467Y-39916D01*
X51445Y-39897D01*
X51407Y-39897D01*
X51392Y-39916D01*
X51178Y-40159D02*
X51129Y-39765D01*
X50929Y-39897D02*
X50854Y-39897D01*
X50934Y-40159D02*
X50892Y-39822D01*
X50878Y-39784D01*
X50857Y-39765D01*
X50838Y-39765D01*
X50793Y-40159D02*
X50810Y-40141D01*
X50817Y-40122D01*
X50821Y-40084D01*
X50807Y-39972D01*
X50793Y-39934D01*
X50782Y-39916D01*
X50760Y-39897D01*
X50732Y-39897D01*
X50716Y-39916D01*
X50709Y-39934D01*
X50704Y-39972D01*
X50718Y-40084D01*
X50733Y-40122D01*
X50744Y-40141D01*
X50765Y-40159D01*
X50793Y-40159D01*
X50643Y-40159D02*
X50610Y-39897D01*
X50620Y-39972D02*
X50606Y-39934D01*
X50594Y-39916D01*
X50573Y-39897D01*
X50554Y-39897D01*
X50404Y-39897D02*
X50444Y-40216D01*
X50458Y-40253D01*
X50469Y-40272D01*
X50491Y-40291D01*
X50519Y-40291D01*
X50535Y-40272D01*
X50435Y-40141D02*
X50455Y-40159D01*
X50493Y-40159D01*
X50510Y-40141D01*
X50517Y-40122D01*
X50521Y-40084D01*
X50507Y-39972D01*
X50493Y-39934D01*
X50482Y-39916D01*
X50460Y-39897D01*
X50422Y-39897D01*
X50407Y-39916D01*
X50266Y-40141D02*
X50287Y-40159D01*
X50324Y-40159D01*
X50341Y-40141D01*
X50345Y-40103D01*
X50326Y-39953D01*
X50313Y-39916D01*
X50291Y-39897D01*
X50254Y-39897D01*
X50238Y-39916D01*
X50233Y-39953D01*
X50238Y-39991D01*
X50336Y-40028D01*
X50169Y-39897D02*
X50094Y-39897D01*
X50125Y-39765D02*
X50167Y-40103D01*
X50163Y-40141D01*
X50146Y-40159D01*
X50127Y-40159D01*
X50057Y-40122D02*
X50050Y-40141D01*
X50061Y-40159D01*
X50068Y-40141D01*
X50057Y-40122D01*
X50061Y-40159D01*
X52919Y-40759D02*
X52870Y-40365D01*
X52682Y-40741D02*
X52666Y-40759D01*
X52628Y-40759D01*
X52607Y-40741D01*
X52593Y-40703D01*
X52591Y-40684D01*
X52595Y-40647D01*
X52612Y-40628D01*
X52640Y-40628D01*
X52656Y-40609D01*
X52661Y-40572D01*
X52658Y-40553D01*
X52645Y-40516D01*
X52623Y-40497D01*
X52595Y-40497D01*
X52579Y-40516D01*
X52439Y-40741D02*
X52460Y-40759D01*
X52497Y-40759D01*
X52514Y-40741D01*
X52518Y-40703D01*
X52499Y-40553D01*
X52486Y-40516D01*
X52464Y-40497D01*
X52427Y-40497D01*
X52411Y-40516D01*
X52406Y-40553D01*
X52411Y-40591D01*
X52509Y-40628D01*
X52270Y-40741D02*
X52291Y-40759D01*
X52328Y-40759D01*
X52345Y-40741D01*
X52349Y-40703D01*
X52330Y-40553D01*
X52317Y-40516D01*
X52295Y-40497D01*
X52258Y-40497D01*
X52242Y-40516D01*
X52237Y-40553D01*
X52242Y-40591D01*
X52340Y-40628D01*
X51944Y-40759D02*
X51918Y-40553D01*
X51923Y-40516D01*
X51939Y-40497D01*
X51976Y-40497D01*
X51998Y-40516D01*
X51942Y-40741D02*
X51962Y-40759D01*
X52009Y-40759D01*
X52026Y-40741D01*
X52030Y-40703D01*
X52026Y-40666D01*
X52012Y-40628D01*
X51990Y-40609D01*
X51943Y-40609D01*
X51923Y-40591D01*
X51817Y-40497D02*
X51850Y-40759D01*
X51822Y-40534D02*
X51811Y-40516D01*
X51789Y-40497D01*
X51761Y-40497D01*
X51745Y-40516D01*
X51740Y-40553D01*
X51766Y-40759D01*
X51588Y-40759D02*
X51539Y-40365D01*
X51586Y-40741D02*
X51606Y-40759D01*
X51644Y-40759D01*
X51661Y-40741D01*
X51668Y-40722D01*
X51672Y-40684D01*
X51658Y-40572D01*
X51644Y-40534D01*
X51633Y-40516D01*
X51611Y-40497D01*
X51573Y-40497D01*
X51558Y-40516D01*
X51344Y-40759D02*
X51295Y-40365D01*
X51100Y-40759D02*
X51067Y-40497D01*
X51077Y-40572D02*
X51063Y-40534D01*
X51051Y-40516D01*
X51030Y-40497D01*
X51011Y-40497D01*
X50901Y-40741D02*
X50922Y-40759D01*
X50959Y-40759D01*
X50976Y-40741D01*
X50980Y-40703D01*
X50961Y-40553D01*
X50948Y-40516D01*
X50926Y-40497D01*
X50889Y-40497D01*
X50873Y-40516D01*
X50868Y-40553D01*
X50873Y-40591D01*
X50971Y-40628D01*
X50809Y-40759D02*
X50776Y-40497D01*
X50781Y-40534D02*
X50770Y-40516D01*
X50748Y-40497D01*
X50720Y-40497D01*
X50704Y-40516D01*
X50699Y-40553D01*
X50725Y-40759D01*
X50699Y-40553D02*
X50685Y-40516D01*
X50664Y-40497D01*
X50635Y-40497D01*
X50620Y-40516D01*
X50614Y-40553D01*
X50640Y-40759D01*
X50469Y-40741D02*
X50490Y-40759D01*
X50527Y-40759D01*
X50544Y-40741D01*
X50548Y-40703D01*
X50529Y-40553D01*
X50516Y-40516D01*
X50494Y-40497D01*
X50457Y-40497D01*
X50441Y-40516D01*
X50436Y-40553D01*
X50441Y-40591D01*
X50539Y-40628D01*
X50377Y-40759D02*
X50344Y-40497D01*
X50349Y-40534D02*
X50338Y-40516D01*
X50316Y-40497D01*
X50288Y-40497D01*
X50272Y-40516D01*
X50267Y-40553D01*
X50293Y-40759D01*
X50267Y-40553D02*
X50253Y-40516D01*
X50232Y-40497D01*
X50203Y-40497D01*
X50188Y-40516D01*
X50182Y-40553D01*
X50208Y-40759D01*
X50114Y-40759D02*
X50065Y-40365D01*
X50084Y-40516D02*
X50062Y-40497D01*
X50025Y-40497D01*
X50009Y-40516D01*
X50002Y-40534D01*
X49997Y-40572D01*
X50011Y-40684D01*
X50026Y-40722D01*
X50037Y-40741D01*
X50058Y-40759D01*
X50095Y-40759D01*
X50112Y-40741D01*
X49859Y-40741D02*
X49880Y-40759D01*
X49917Y-40759D01*
X49934Y-40741D01*
X49938Y-40703D01*
X49919Y-40553D01*
X49906Y-40516D01*
X49884Y-40497D01*
X49847Y-40497D01*
X49831Y-40516D01*
X49826Y-40553D01*
X49831Y-40591D01*
X49929Y-40628D01*
X49767Y-40759D02*
X49734Y-40497D01*
X49744Y-40572D02*
X49730Y-40534D01*
X49718Y-40516D01*
X49697Y-40497D01*
X49678Y-40497D01*
X49641Y-40722D02*
X49634Y-40741D01*
X49645Y-40759D01*
X49652Y-40741D01*
X49641Y-40722D01*
X49645Y-40759D01*
G54D12*
X67250Y-28250D02*
X49750Y-28250D01*
X68250Y-46750D02*
X68250Y-29250D01*
X68250Y-29250D02*
X68246Y-29163D01*
X68234Y-29077D01*
X68215Y-28992D01*
X68189Y-28908D01*
X68156Y-28828D01*
X68116Y-28751D01*
X68069Y-28677D01*
X68016Y-28608D01*
X67957Y-28543D01*
X67892Y-28484D01*
X67823Y-28431D01*
X67750Y-28384D01*
X67672Y-28344D01*
X67592Y-28311D01*
X67508Y-28285D01*
X67423Y-28266D01*
X67337Y-28254D01*
X67250Y-28250D01*
X50000Y-47750D02*
X67250Y-47750D01*
X48750Y-46500D02*
X48750Y-29250D01*
X48750Y-46500D02*
X48755Y-46608D01*
X48769Y-46717D01*
X48793Y-46823D01*
X48826Y-46927D01*
X48868Y-47028D01*
X48918Y-47124D01*
X48977Y-47216D01*
X49043Y-47303D01*
X49117Y-47383D01*
X49197Y-47457D01*
X49284Y-47523D01*
X49376Y-47582D01*
X49472Y-47632D01*
X49573Y-47674D01*
X49677Y-47707D01*
X49783Y-47731D01*
X49892Y-47745D01*
X50000Y-47750D01*
X67250Y-47750D02*
X67337Y-47746D01*
X67423Y-47734D01*
X67508Y-47715D01*
X67592Y-47689D01*
X67672Y-47656D01*
X67750Y-47616D01*
X67823Y-47569D01*
X67892Y-47516D01*
X67957Y-47457D01*
X68016Y-47392D01*
X68069Y-47323D01*
X68116Y-47249D01*
X68156Y-47172D01*
X68189Y-47092D01*
X68215Y-47008D01*
X68234Y-46923D01*
X68246Y-46837D01*
X68250Y-46750D01*
X49750Y-28250D02*
X49663Y-28254D01*
X49577Y-28266D01*
X49492Y-28285D01*
X49408Y-28311D01*
X49328Y-28344D01*
X49251Y-28384D01*
X49177Y-28431D01*
X49108Y-28484D01*
X49043Y-28543D01*
X48984Y-28608D01*
X48931Y-28677D01*
X48884Y-28751D01*
X48844Y-28828D01*
X48811Y-28908D01*
X48785Y-28992D01*
X48766Y-29077D01*
X48754Y-29163D01*
X48750Y-29250D01*
G54D10*
X53600Y-32900D02*
X53598Y-32919D01*
X53592Y-32938D01*
X53583Y-32955D01*
X53570Y-32970D01*
X53555Y-32982D01*
X53538Y-32992D01*
X53520Y-32997D01*
X53500Y-32999D01*
X53482Y-32998D01*
X53463Y-32992D01*
X53446Y-32983D01*
X53431Y-32971D01*
X53418Y-32956D01*
X53409Y-32939D01*
X53403Y-32920D01*
X53401Y-32901D01*
X53402Y-32882D01*
X53408Y-32864D01*
X53416Y-32846D01*
X53429Y-32831D01*
X53443Y-32818D01*
X53460Y-32809D01*
X53479Y-32803D01*
X53498Y-32801D01*
X53517Y-32802D01*
X53536Y-32807D01*
X53553Y-32816D01*
X53568Y-32828D01*
X53581Y-32843D01*
X53591Y-32860D01*
X53597Y-32878D01*
X53599Y-32898D01*
X53600Y-32900D01*
X53700Y-33900D02*
X53700Y-32700D01*
X53700Y-32700D02*
X52500Y-32700D01*
X52500Y-32700D02*
X52500Y-33900D01*
X52500Y-33900D02*
X53700Y-33900D01*
G54D13*
G36*
X56386Y-39550D02*
X56386Y-39550D01*
X56386Y-39550D01*
X56386Y-39550D01*
X56386Y-39550D01*
X56386Y-39550D01*
X56386Y-39550D01*
X56386Y-39550D01*
X56386Y-39550D01*
X56386Y-39550D01*
X56386Y-39550D01*
X56386Y-39550D01*
X56386Y-39550D01*
X56386Y-39550D01*
X56386Y-39550D01*
G37*
G36*
X57985Y-38436D02*
X57985Y-38436D01*
X57985Y-38436D01*
X57985Y-38436D01*
X57985Y-38436D01*
X57985Y-38436D01*
X57985Y-38436D01*
X57985Y-38436D01*
G37*
G36*
X56929Y-38436D02*
X56929Y-38436D01*
X56929Y-38436D01*
X56929Y-38436D01*
X56929Y-38436D01*
X56929Y-38436D01*
X56929Y-38436D01*
X56929Y-38436D01*
G37*
G54D14*
X56181Y-44549D02*
X56181Y-43565D01*
X56181Y-44549D02*
X56063Y-44549D01*
X56181Y-41951D02*
X56181Y-42935D01*
X56181Y-41951D02*
X56063Y-41951D01*
X53819Y-41951D02*
X53819Y-42935D01*
X53819Y-41951D02*
X53937Y-41951D01*
X53819Y-44549D02*
X53819Y-43565D01*
X53819Y-44549D02*
X53937Y-44549D01*
X55456Y-43250D02*
X55447Y-43338D01*
X55421Y-43423D01*
X55379Y-43502D01*
X55323Y-43571D01*
X55254Y-43628D01*
X55176Y-43670D01*
X55091Y-43696D01*
X55003Y-43705D01*
X54915Y-43697D01*
X54830Y-43672D01*
X54751Y-43631D01*
X54681Y-43575D01*
X54624Y-43507D01*
X54581Y-43429D01*
X54554Y-43344D01*
X54545Y-43256D01*
X54552Y-43168D01*
X54577Y-43083D01*
X54617Y-43003D01*
X54672Y-42934D01*
X54740Y-42876D01*
X54818Y-42833D01*
X54903Y-42805D01*
X54991Y-42795D01*
X55079Y-42801D01*
X55164Y-42825D01*
X55244Y-42865D01*
X55314Y-42920D01*
X55372Y-42988D01*
X55416Y-43065D01*
X55444Y-43149D01*
X55455Y-43238D01*
X55456Y-43250D01*
G54D10*
X54764Y-35146D02*
X55236Y-35146D01*
X54488Y-35854D02*
X54882Y-35854D01*
X55512Y-35854D02*
X55118Y-35854D01*
X54409Y-35854D02*
X54488Y-35854D01*
X54409Y-35854D02*
X54409Y-35146D01*
X54409Y-35146D02*
X54488Y-35146D01*
X55591Y-35146D02*
X55512Y-35146D01*
X55591Y-35854D02*
X55512Y-35854D01*
X55591Y-35146D02*
X55591Y-35854D01*
G54D15*
X54236Y-29067D02*
X54236Y-29933D01*
X54276Y-29894D02*
X54591Y-29894D01*
X54591Y-29815D02*
X54276Y-29815D01*
X54276Y-29854D02*
X54591Y-29854D01*
X54591Y-29776D02*
X54276Y-29776D01*
X54591Y-29224D02*
X54276Y-29224D01*
X54276Y-29185D02*
X54591Y-29185D01*
X54591Y-29146D02*
X54276Y-29146D01*
X54276Y-29106D02*
X54591Y-29106D01*
X54276Y-29067D02*
X54276Y-29933D01*
X54591Y-29933D02*
X54591Y-29776D01*
X54591Y-29067D02*
X54591Y-29224D01*
X53409Y-29067D02*
X53409Y-29224D01*
X53409Y-29933D02*
X53409Y-29776D01*
X54591Y-29933D02*
X53409Y-29933D01*
X54591Y-29067D02*
X53409Y-29067D01*
X53764Y-31183D02*
X53764Y-30317D01*
X53724Y-30356D02*
X53409Y-30356D01*
X53409Y-30435D02*
X53724Y-30435D01*
X53724Y-30396D02*
X53409Y-30396D01*
X53409Y-30474D02*
X53724Y-30474D01*
X53409Y-31026D02*
X53724Y-31026D01*
X53724Y-31065D02*
X53409Y-31065D01*
X53409Y-31104D02*
X53724Y-31104D01*
X53724Y-31144D02*
X53409Y-31144D01*
X53724Y-31183D02*
X53724Y-30317D01*
X53409Y-30317D02*
X53409Y-30474D01*
X53409Y-31183D02*
X53409Y-31026D01*
X54591Y-31183D02*
X54591Y-31026D01*
X54591Y-30317D02*
X54591Y-30474D01*
X53409Y-30317D02*
X54591Y-30317D01*
X53409Y-31183D02*
X54591Y-31183D01*
G54D14*
X63950Y-34400D02*
X63950Y-30600D01*
X63950Y-30600D02*
X62450Y-30600D01*
X62450Y-30600D02*
X62450Y-34400D01*
X62450Y-34400D02*
X63950Y-34400D01*
X63450Y-34400D02*
X63450Y-34100D01*
X63450Y-34100D02*
X63050Y-34100D01*
X63050Y-34100D02*
X63050Y-34400D01*
X50350Y-30709D02*
X50350Y-30354D01*
X50350Y-29291D02*
X50350Y-29646D01*
X51846Y-30709D02*
X51846Y-30669D01*
X51846Y-29291D02*
X51846Y-29331D01*
X51846Y-29882D02*
X51846Y-30118D01*
X50350Y-30709D02*
X51846Y-30709D01*
X50350Y-29291D02*
X51846Y-29291D01*
X65600Y-30459D02*
X65600Y-30104D01*
X65600Y-29041D02*
X65600Y-29396D01*
X67096Y-30459D02*
X67096Y-30419D01*
X67096Y-29041D02*
X67096Y-29081D01*
X67096Y-29632D02*
X67096Y-29868D01*
X65600Y-30459D02*
X67096Y-30459D01*
X65600Y-29041D02*
X67096Y-29041D01*
X62356Y-40254D02*
X62356Y-39585D01*
X63144Y-40254D02*
X63144Y-39585D01*
X62356Y-38344D02*
X62356Y-38915D01*
X63144Y-38344D02*
X63144Y-38915D01*
X62356Y-40254D02*
X63144Y-40254D01*
X63144Y-40215D02*
X62356Y-40215D01*
X62356Y-38344D02*
X63144Y-38344D01*
X62356Y-40156D02*
X63144Y-40156D01*
X62254Y-42394D02*
X61585Y-42394D01*
X62254Y-41606D02*
X61585Y-41606D01*
X60344Y-42394D02*
X60915Y-42394D01*
X60344Y-41606D02*
X60915Y-41606D01*
X62254Y-42394D02*
X62254Y-41606D01*
X62215Y-41606D02*
X62215Y-42394D01*
X60344Y-42394D02*
X60344Y-41606D01*
X62156Y-42394D02*
X62156Y-41606D01*
X61106Y-40254D02*
X61106Y-39585D01*
X61894Y-40254D02*
X61894Y-39585D01*
X61106Y-38344D02*
X61106Y-38915D01*
X61894Y-38344D02*
X61894Y-38915D01*
X61106Y-40254D02*
X61894Y-40254D01*
X61894Y-40215D02*
X61106Y-40215D01*
X61106Y-38344D02*
X61894Y-38344D01*
X61106Y-40156D02*
X61894Y-40156D01*
X61894Y-35746D02*
X61894Y-36415D01*
X61106Y-35746D02*
X61106Y-36415D01*
X61894Y-37656D02*
X61894Y-37085D01*
X61106Y-37656D02*
X61106Y-37085D01*
X61894Y-35746D02*
X61106Y-35746D01*
X61106Y-35785D02*
X61894Y-35785D01*
X61894Y-37656D02*
X61106Y-37656D01*
X61894Y-35844D02*
X61106Y-35844D01*
X53996Y-45606D02*
X54665Y-45606D01*
X53996Y-46394D02*
X54665Y-46394D01*
X55906Y-45606D02*
X55335Y-45606D01*
X55906Y-46394D02*
X55335Y-46394D01*
X53996Y-45606D02*
X53996Y-46394D01*
X54035Y-46394D02*
X54035Y-45606D01*
X55906Y-45606D02*
X55906Y-46394D01*
X54094Y-45606D02*
X54094Y-46394D01*
X62254Y-44894D02*
X61585Y-44894D01*
X62254Y-44106D02*
X61585Y-44106D01*
X60344Y-44894D02*
X60915Y-44894D01*
X60344Y-44106D02*
X60915Y-44106D01*
X62254Y-44894D02*
X62254Y-44106D01*
X62215Y-44106D02*
X62215Y-44894D01*
X60344Y-44894D02*
X60344Y-44106D01*
X62156Y-44894D02*
X62156Y-44106D01*
X59504Y-44894D02*
X58835Y-44894D01*
X59504Y-44106D02*
X58835Y-44106D01*
X57594Y-44894D02*
X58165Y-44894D01*
X57594Y-44106D02*
X58165Y-44106D01*
X59504Y-44894D02*
X59504Y-44106D01*
X59465Y-44106D02*
X59465Y-44894D01*
X57594Y-44894D02*
X57594Y-44106D01*
X59406Y-44894D02*
X59406Y-44106D01*
X59504Y-46144D02*
X58835Y-46144D01*
X59504Y-45356D02*
X58835Y-45356D01*
X57594Y-46144D02*
X58165Y-46144D01*
X57594Y-45356D02*
X58165Y-45356D01*
X59504Y-46144D02*
X59504Y-45356D01*
X59465Y-45356D02*
X59465Y-46144D01*
X57594Y-46144D02*
X57594Y-45356D01*
X59406Y-46144D02*
X59406Y-45356D01*
X62254Y-46144D02*
X61585Y-46144D01*
X62254Y-45356D02*
X61585Y-45356D01*
X60344Y-46144D02*
X60915Y-46144D01*
X60344Y-45356D02*
X60915Y-45356D01*
X62254Y-46144D02*
X62254Y-45356D01*
X62215Y-45356D02*
X62215Y-46144D01*
X60344Y-46144D02*
X60344Y-45356D01*
X62156Y-46144D02*
X62156Y-45356D01*
X62254Y-43644D02*
X61585Y-43644D01*
X62254Y-42856D02*
X61585Y-42856D01*
X60344Y-43644D02*
X60915Y-43644D01*
X60344Y-42856D02*
X60915Y-42856D01*
X62254Y-43644D02*
X62254Y-42856D01*
X62215Y-42856D02*
X62215Y-43644D01*
X60344Y-43644D02*
X60344Y-42856D01*
X62156Y-43644D02*
X62156Y-42856D01*
X59504Y-43644D02*
X58835Y-43644D01*
X59504Y-42856D02*
X58835Y-42856D01*
X57594Y-43644D02*
X58165Y-43644D01*
X57594Y-42856D02*
X58165Y-42856D01*
X59504Y-43644D02*
X59504Y-42856D01*
X59465Y-42856D02*
X59465Y-43644D01*
X57594Y-43644D02*
X57594Y-42856D01*
X59406Y-43644D02*
X59406Y-42856D01*
X59504Y-42394D02*
X58835Y-42394D01*
X59504Y-41606D02*
X58835Y-41606D01*
X57594Y-42394D02*
X58165Y-42394D01*
X57594Y-41606D02*
X58165Y-41606D01*
X59504Y-42394D02*
X59504Y-41606D01*
X59465Y-41606D02*
X59465Y-42394D01*
X57594Y-42394D02*
X57594Y-41606D01*
X59406Y-42394D02*
X59406Y-41606D01*
X63144Y-35746D02*
X63144Y-36415D01*
X62356Y-35746D02*
X62356Y-36415D01*
X63144Y-37656D02*
X63144Y-37085D01*
X62356Y-37656D02*
X62356Y-37085D01*
X63144Y-35746D02*
X62356Y-35746D01*
X62356Y-35785D02*
X63144Y-35785D01*
X63144Y-37656D02*
X62356Y-37656D01*
X63144Y-35844D02*
X62356Y-35844D01*
X65644Y-35746D02*
X65644Y-36415D01*
X64856Y-35746D02*
X64856Y-36415D01*
X65644Y-37656D02*
X65644Y-37085D01*
X64856Y-37656D02*
X64856Y-37085D01*
X65644Y-35746D02*
X64856Y-35746D01*
X64856Y-35785D02*
X65644Y-35785D01*
X65644Y-37656D02*
X64856Y-37656D01*
X65644Y-35844D02*
X64856Y-35844D01*
X64856Y-40254D02*
X64856Y-39585D01*
X65644Y-40254D02*
X65644Y-39585D01*
X64856Y-38344D02*
X64856Y-38915D01*
X65644Y-38344D02*
X65644Y-38915D01*
X64856Y-40254D02*
X65644Y-40254D01*
X65644Y-40215D02*
X64856Y-40215D01*
X64856Y-38344D02*
X65644Y-38344D01*
X64856Y-40156D02*
X65644Y-40156D01*
X63606Y-40254D02*
X63606Y-39585D01*
X64394Y-40254D02*
X64394Y-39585D01*
X63606Y-38344D02*
X63606Y-38915D01*
X64394Y-38344D02*
X64394Y-38915D01*
X63606Y-40254D02*
X64394Y-40254D01*
X64394Y-40215D02*
X63606Y-40215D01*
X63606Y-38344D02*
X64394Y-38344D01*
X63606Y-40156D02*
X64394Y-40156D01*
X64394Y-35746D02*
X64394Y-36415D01*
X63606Y-35746D02*
X63606Y-36415D01*
X64394Y-37656D02*
X64394Y-37085D01*
X63606Y-37656D02*
X63606Y-37085D01*
X64394Y-35746D02*
X63606Y-35746D01*
X63606Y-35785D02*
X64394Y-35785D01*
X64394Y-37656D02*
X63606Y-37656D01*
X64394Y-35844D02*
X63606Y-35844D01*
X59606Y-33004D02*
X59606Y-32335D01*
X60394Y-33004D02*
X60394Y-32335D01*
X59606Y-31094D02*
X59606Y-31665D01*
X60394Y-31094D02*
X60394Y-31665D01*
X59606Y-33004D02*
X60394Y-33004D01*
X60394Y-32965D02*
X59606Y-32965D01*
X59606Y-31094D02*
X60394Y-31094D01*
X59606Y-32906D02*
X60394Y-32906D01*
X62246Y-29356D02*
X62915Y-29356D01*
X62246Y-30144D02*
X62915Y-30144D01*
X64156Y-29356D02*
X63585Y-29356D01*
X64156Y-30144D02*
X63585Y-30144D01*
X62246Y-29356D02*
X62246Y-30144D01*
X62285Y-30144D02*
X62285Y-29356D01*
X64156Y-29356D02*
X64156Y-30144D01*
X62344Y-29356D02*
X62344Y-30144D01*
X67144Y-33496D02*
X67144Y-34165D01*
X66356Y-33496D02*
X66356Y-34165D01*
X67144Y-35406D02*
X67144Y-34835D01*
X66356Y-35406D02*
X66356Y-34835D01*
X67144Y-33496D02*
X66356Y-33496D01*
X66356Y-33535D02*
X67144Y-33535D01*
X67144Y-35406D02*
X66356Y-35406D01*
X67144Y-33594D02*
X66356Y-33594D01*
X67144Y-30996D02*
X67144Y-31665D01*
X66356Y-30996D02*
X66356Y-31665D01*
X67144Y-32906D02*
X67144Y-32335D01*
X66356Y-32906D02*
X66356Y-32335D01*
X67144Y-30996D02*
X66356Y-30996D01*
X66356Y-31035D02*
X67144Y-31035D01*
X67144Y-32906D02*
X66356Y-32906D01*
X67144Y-31094D02*
X66356Y-31094D01*
X60106Y-35254D02*
X60106Y-34585D01*
X60894Y-35254D02*
X60894Y-34585D01*
X60106Y-33344D02*
X60106Y-33915D01*
X60894Y-33344D02*
X60894Y-33915D01*
X60106Y-35254D02*
X60894Y-35254D01*
X60894Y-35215D02*
X60106Y-35215D01*
X60106Y-33344D02*
X60894Y-33344D01*
X60106Y-35156D02*
X60894Y-35156D01*
X49996Y-31106D02*
X50665Y-31106D01*
X49996Y-31894D02*
X50665Y-31894D01*
X51906Y-31106D02*
X51335Y-31106D01*
X51906Y-31894D02*
X51335Y-31894D01*
X49996Y-31106D02*
X49996Y-31894D01*
X50035Y-31894D02*
X50035Y-31106D01*
X51906Y-31106D02*
X51906Y-31894D01*
X50094Y-31106D02*
X50094Y-31894D01*
X50394Y-33246D02*
X50394Y-33915D01*
X49606Y-33246D02*
X49606Y-33915D01*
X50394Y-35156D02*
X50394Y-34585D01*
X49606Y-35156D02*
X49606Y-34585D01*
X50394Y-33246D02*
X49606Y-33246D01*
X49606Y-33285D02*
X50394Y-33285D01*
X50394Y-35156D02*
X49606Y-35156D01*
X50394Y-33344D02*
X49606Y-33344D01*
X52394Y-34996D02*
X52394Y-35665D01*
X51606Y-34996D02*
X51606Y-35665D01*
X52394Y-36906D02*
X52394Y-36335D01*
X51606Y-36906D02*
X51606Y-36335D01*
X52394Y-34996D02*
X51606Y-34996D01*
X51606Y-35035D02*
X52394Y-35035D01*
X52394Y-36906D02*
X51606Y-36906D01*
X52394Y-35094D02*
X51606Y-35094D01*
X53644Y-34996D02*
X53644Y-35665D01*
X52856Y-34996D02*
X52856Y-35665D01*
X53644Y-36906D02*
X53644Y-36335D01*
X52856Y-36906D02*
X52856Y-36335D01*
X53644Y-34996D02*
X52856Y-34996D01*
X52856Y-35035D02*
X53644Y-35035D01*
X53644Y-36906D02*
X52856Y-36906D01*
X53644Y-35094D02*
X52856Y-35094D01*
X55606Y-34254D02*
X55606Y-33585D01*
X56394Y-34254D02*
X56394Y-33585D01*
X55606Y-32344D02*
X55606Y-32915D01*
X56394Y-32344D02*
X56394Y-32915D01*
X55606Y-34254D02*
X56394Y-34254D01*
X56394Y-34215D02*
X55606Y-34215D01*
X55606Y-32344D02*
X56394Y-32344D01*
X55606Y-34156D02*
X56394Y-34156D01*
X64934Y-45542D02*
X64933Y-45550D01*
X64930Y-45558D01*
X64926Y-45566D01*
X64921Y-45573D01*
X64914Y-45578D01*
X64907Y-45582D01*
X64898Y-45585D01*
X64890Y-45585D01*
X64882Y-45585D01*
X64874Y-45582D01*
X64866Y-45578D01*
X64860Y-45573D01*
X64854Y-45566D01*
X64850Y-45559D01*
X64847Y-45551D01*
X64847Y-45542D01*
X64847Y-45535D01*
X64850Y-45526D01*
X64854Y-45519D01*
X64859Y-45512D01*
X64865Y-45506D01*
X64873Y-45502D01*
X64881Y-45500D01*
X64890Y-45499D01*
X64897Y-45499D01*
X64905Y-45501D01*
X64913Y-45505D01*
X64920Y-45511D01*
X64925Y-45517D01*
X64930Y-45525D01*
X64932Y-45533D01*
X64933Y-45541D01*
X64934Y-45542D01*
X64651Y-45895D02*
X64648Y-45917D01*
X64642Y-45938D01*
X64631Y-45958D01*
X64617Y-45976D01*
X64600Y-45990D01*
X64580Y-46001D01*
X64559Y-46007D01*
X64536Y-46009D01*
X64515Y-46007D01*
X64493Y-46001D01*
X64474Y-45991D01*
X64456Y-45977D01*
X64442Y-45959D01*
X64431Y-45940D01*
X64424Y-45918D01*
X64422Y-45896D01*
X64423Y-45875D01*
X64430Y-45853D01*
X64440Y-45833D01*
X64454Y-45816D01*
X64471Y-45801D01*
X64490Y-45790D01*
X64512Y-45783D01*
X64534Y-45781D01*
X64555Y-45782D01*
X64577Y-45788D01*
X64597Y-45798D01*
X64615Y-45812D01*
X64629Y-45829D01*
X64641Y-45849D01*
X64648Y-45870D01*
X64650Y-45892D01*
X64651Y-45895D01*
X65894Y-45699D02*
X65894Y-45522D01*
X65894Y-45522D02*
X65106Y-45522D01*
X65106Y-45522D02*
X65106Y-45699D01*
X64732Y-41801D02*
X64732Y-45699D01*
X66268Y-45699D02*
X66268Y-41801D01*
X66268Y-45699D02*
X64732Y-45699D01*
X66268Y-41801D02*
X64732Y-41801D01*
G54D16*
X66750Y-46150D02*
X66200Y-46150D01*
X66750Y-46950D02*
X66200Y-46950D01*
G54D14*
X64944Y-46944D02*
X65515Y-46944D01*
X64944Y-46156D02*
X65515Y-46156D01*
X64944Y-46944D02*
X64944Y-46156D01*
X66756Y-46944D02*
X66756Y-46156D01*
G54D10*
X53462Y-32910D02*
X53062Y-32910D01*
X53424Y-33329D02*
X53443Y-33310D01*
X53462Y-33253D01*
X53462Y-33215D01*
X53443Y-33157D01*
X53405Y-33119D01*
X53367Y-33100D01*
X53290Y-33081D01*
X53233Y-33081D01*
X53157Y-33100D01*
X53119Y-33119D01*
X53081Y-33157D01*
X53062Y-33215D01*
X53062Y-33253D01*
X53081Y-33310D01*
X53100Y-33329D01*
X53062Y-33462D02*
X53062Y-33710D01*
X53214Y-33576D01*
X53214Y-33634D01*
X53233Y-33672D01*
X53252Y-33691D01*
X53290Y-33710D01*
X53386Y-33710D01*
X53424Y-33691D01*
X53443Y-33672D01*
X53462Y-33634D01*
X53462Y-33519D01*
X53443Y-33481D01*
X53424Y-33462D01*
G54D17*
X58426Y-28898D02*
X58426Y-29140D01*
X58416Y-29189D01*
X58395Y-29221D01*
X58363Y-29238D01*
X58342Y-29238D01*
X58647Y-29238D02*
X58521Y-29238D01*
X58584Y-29238D02*
X58584Y-28898D01*
X58563Y-28946D01*
X58542Y-28979D01*
X58521Y-28995D01*
G54D14*
X56729Y-42206D02*
X56746Y-42252D01*
X56746Y-42328D01*
X56729Y-42358D01*
X56711Y-42374D01*
X56677Y-42389D01*
X56643Y-42389D01*
X56609Y-42374D01*
X56591Y-42358D01*
X56574Y-42328D01*
X56557Y-42267D01*
X56540Y-42236D01*
X56523Y-42221D01*
X56489Y-42206D01*
X56454Y-42206D01*
X56420Y-42221D01*
X56403Y-42236D01*
X56386Y-42267D01*
X56386Y-42343D01*
X56403Y-42389D01*
X56386Y-42496D02*
X56746Y-42572D01*
X56489Y-42633D01*
X56746Y-42694D01*
X56386Y-42770D01*
X56780Y-42816D02*
X56780Y-43060D01*
X56746Y-43136D02*
X56386Y-43136D01*
X56386Y-43258D01*
X56403Y-43289D01*
X56420Y-43304D01*
X56454Y-43319D01*
X56506Y-43319D01*
X56540Y-43304D01*
X56557Y-43289D01*
X56574Y-43258D01*
X56574Y-43136D01*
X56386Y-43456D02*
X56677Y-43456D01*
X56711Y-43471D01*
X56729Y-43487D01*
X56746Y-43517D01*
X56746Y-43578D01*
X56729Y-43609D01*
X56711Y-43624D01*
X56677Y-43639D01*
X56386Y-43639D01*
X56729Y-43776D02*
X56746Y-43822D01*
X56746Y-43898D01*
X56729Y-43928D01*
X56711Y-43944D01*
X56677Y-43959D01*
X56643Y-43959D01*
X56609Y-43944D01*
X56591Y-43928D01*
X56574Y-43898D01*
X56557Y-43837D01*
X56540Y-43806D01*
X56523Y-43791D01*
X56489Y-43776D01*
X56454Y-43776D01*
X56420Y-43791D01*
X56403Y-43806D01*
X56386Y-43837D01*
X56386Y-43913D01*
X56403Y-43959D01*
X56746Y-44096D02*
X56386Y-44096D01*
X56557Y-44096D02*
X56557Y-44279D01*
X56746Y-44279D02*
X56386Y-44279D01*
G54D10*
X55023Y-35620D02*
X55046Y-35609D01*
X55069Y-35586D01*
X55103Y-35551D01*
X55126Y-35540D01*
X55149Y-35540D01*
X55137Y-35597D02*
X55160Y-35586D01*
X55183Y-35563D01*
X55194Y-35517D01*
X55194Y-35437D01*
X55183Y-35391D01*
X55160Y-35369D01*
X55137Y-35357D01*
X55091Y-35357D01*
X55069Y-35369D01*
X55046Y-35391D01*
X55034Y-35437D01*
X55034Y-35517D01*
X55046Y-35563D01*
X55069Y-35586D01*
X55091Y-35597D01*
X55137Y-35597D01*
X54829Y-35437D02*
X54829Y-35597D01*
X54886Y-35346D02*
X54943Y-35517D01*
X54795Y-35517D01*
X54105Y-28985D02*
X54105Y-28848D01*
X54105Y-28916D02*
X53845Y-28916D01*
X53882Y-28893D01*
X53907Y-28871D01*
X53920Y-28848D01*
X54105Y-29088D02*
X53845Y-29088D01*
X54105Y-29225D01*
X53845Y-29225D01*
X53932Y-29442D02*
X54105Y-29442D01*
X53833Y-29385D02*
X54019Y-29328D01*
X54019Y-29476D01*
X54105Y-29694D02*
X54105Y-29557D01*
X54105Y-29625D02*
X53845Y-29625D01*
X53882Y-29602D01*
X53907Y-29580D01*
X53920Y-29557D01*
X53932Y-29900D02*
X54105Y-29900D01*
X53833Y-29843D02*
X54019Y-29786D01*
X54019Y-29934D01*
X53957Y-30060D02*
X53944Y-30038D01*
X53932Y-30026D01*
X53907Y-30015D01*
X53895Y-30015D01*
X53870Y-30026D01*
X53858Y-30038D01*
X53845Y-30060D01*
X53845Y-30106D01*
X53858Y-30129D01*
X53870Y-30140D01*
X53895Y-30152D01*
X53907Y-30152D01*
X53932Y-30140D01*
X53944Y-30129D01*
X53957Y-30106D01*
X53957Y-30060D01*
X53969Y-30038D01*
X53981Y-30026D01*
X54006Y-30015D01*
X54056Y-30015D01*
X54080Y-30026D01*
X54093Y-30038D01*
X54105Y-30060D01*
X54105Y-30106D01*
X54093Y-30129D01*
X54080Y-30140D01*
X54056Y-30152D01*
X54006Y-30152D01*
X53981Y-30140D01*
X53969Y-30129D01*
X53957Y-30106D01*
X54105Y-30235D02*
X54105Y-30098D01*
X54105Y-30166D02*
X53845Y-30166D01*
X53882Y-30143D01*
X53907Y-30121D01*
X53920Y-30098D01*
X54105Y-30338D02*
X53845Y-30338D01*
X54105Y-30475D01*
X53845Y-30475D01*
X53932Y-30692D02*
X54105Y-30692D01*
X53833Y-30635D02*
X54019Y-30578D01*
X54019Y-30726D01*
X54105Y-30944D02*
X54105Y-30807D01*
X54105Y-30875D02*
X53845Y-30875D01*
X53882Y-30852D01*
X53907Y-30830D01*
X53920Y-30807D01*
X53932Y-31150D02*
X54105Y-31150D01*
X53833Y-31093D02*
X54019Y-31036D01*
X54019Y-31184D01*
X53957Y-31310D02*
X53944Y-31288D01*
X53932Y-31276D01*
X53907Y-31265D01*
X53895Y-31265D01*
X53870Y-31276D01*
X53858Y-31288D01*
X53845Y-31310D01*
X53845Y-31356D01*
X53858Y-31379D01*
X53870Y-31390D01*
X53895Y-31402D01*
X53907Y-31402D01*
X53932Y-31390D01*
X53944Y-31379D01*
X53957Y-31356D01*
X53957Y-31310D01*
X53969Y-31288D01*
X53981Y-31276D01*
X54006Y-31265D01*
X54056Y-31265D01*
X54080Y-31276D01*
X54093Y-31288D01*
X54105Y-31310D01*
X54105Y-31356D01*
X54093Y-31379D01*
X54080Y-31390D01*
X54056Y-31402D01*
X54006Y-31402D01*
X53981Y-31390D01*
X53969Y-31379D01*
X53957Y-31356D01*
G54D18*
X63712Y-32061D02*
X63312Y-32061D01*
X63674Y-32532D02*
X63693Y-32511D01*
X63712Y-32447D01*
X63712Y-32404D01*
X63693Y-32339D01*
X63655Y-32297D01*
X63617Y-32275D01*
X63540Y-32254D01*
X63483Y-32254D01*
X63407Y-32275D01*
X63369Y-32297D01*
X63331Y-32339D01*
X63312Y-32404D01*
X63312Y-32447D01*
X63331Y-32511D01*
X63350Y-32532D01*
X63350Y-32704D02*
X63331Y-32725D01*
X63312Y-32768D01*
X63312Y-32875D01*
X63331Y-32918D01*
X63350Y-32939D01*
X63388Y-32961D01*
X63426Y-32961D01*
X63483Y-32939D01*
X63712Y-32682D01*
X63712Y-32961D01*
X63012Y-31424D02*
X63012Y-31233D01*
X62612Y-31233D01*
X63012Y-31557D02*
X62612Y-31557D01*
X62898Y-31691D01*
X62612Y-31824D01*
X63012Y-31824D01*
X62650Y-31995D02*
X62631Y-32014D01*
X62612Y-32052D01*
X62612Y-32148D01*
X62631Y-32186D01*
X62650Y-32205D01*
X62688Y-32224D01*
X62726Y-32224D01*
X62783Y-32205D01*
X63012Y-31976D01*
X63012Y-32224D01*
X63012Y-32414D02*
X63012Y-32490D01*
X62993Y-32529D01*
X62974Y-32548D01*
X62917Y-32586D01*
X62840Y-32605D01*
X62688Y-32605D01*
X62650Y-32586D01*
X62631Y-32567D01*
X62612Y-32529D01*
X62612Y-32452D01*
X62631Y-32414D01*
X62650Y-32395D01*
X62688Y-32376D01*
X62783Y-32376D01*
X62821Y-32395D01*
X62840Y-32414D01*
X62860Y-32452D01*
X62860Y-32529D01*
X62840Y-32567D01*
X62821Y-32586D01*
X62783Y-32605D01*
X62612Y-32852D02*
X62612Y-32891D01*
X62631Y-32929D01*
X62650Y-32948D01*
X62688Y-32967D01*
X62764Y-32986D01*
X62860Y-32986D01*
X62936Y-32967D01*
X62974Y-32948D01*
X62993Y-32929D01*
X63012Y-32891D01*
X63012Y-32852D01*
X62993Y-32814D01*
X62974Y-32795D01*
X62936Y-32776D01*
X62860Y-32757D01*
X62764Y-32757D01*
X62688Y-32776D01*
X62650Y-32795D01*
X62631Y-32814D01*
X62612Y-32852D01*
X62650Y-33138D02*
X62631Y-33157D01*
X62612Y-33195D01*
X62612Y-33291D01*
X62631Y-33329D01*
X62650Y-33348D01*
X62688Y-33367D01*
X62726Y-33367D01*
X62783Y-33348D01*
X63012Y-33119D01*
X63012Y-33367D01*
X63012Y-33538D02*
X62612Y-33538D01*
X63012Y-33767D01*
X62612Y-33767D01*
G54D15*
X52363Y-29834D02*
X52230Y-29740D01*
X52363Y-29674D02*
X52083Y-29674D01*
X52083Y-29780D01*
X52097Y-29807D01*
X52110Y-29820D01*
X52137Y-29834D01*
X52177Y-29834D01*
X52203Y-29820D01*
X52217Y-29807D01*
X52230Y-29780D01*
X52230Y-29674D01*
X52083Y-29914D02*
X52363Y-30007D01*
X52083Y-30100D01*
X52110Y-30180D02*
X52097Y-30194D01*
X52083Y-30220D01*
X52083Y-30287D01*
X52097Y-30314D01*
X52110Y-30327D01*
X52137Y-30340D01*
X52163Y-30340D01*
X52203Y-30327D01*
X52363Y-30167D01*
X52363Y-30340D01*
X51213Y-29673D02*
X51213Y-29513D01*
X51213Y-29593D02*
X50933Y-29593D01*
X50973Y-29567D01*
X51000Y-29540D01*
X51013Y-29513D01*
X50933Y-29847D02*
X50933Y-29874D01*
X50947Y-29900D01*
X50960Y-29914D01*
X50987Y-29927D01*
X51040Y-29940D01*
X51107Y-29940D01*
X51160Y-29927D01*
X51187Y-29914D01*
X51200Y-29900D01*
X51213Y-29874D01*
X51213Y-29847D01*
X51200Y-29820D01*
X51187Y-29807D01*
X51160Y-29794D01*
X51107Y-29780D01*
X51040Y-29780D01*
X50987Y-29794D01*
X50960Y-29807D01*
X50947Y-29820D01*
X50933Y-29847D01*
X50933Y-30114D02*
X50933Y-30141D01*
X50947Y-30167D01*
X50960Y-30181D01*
X50987Y-30194D01*
X51040Y-30207D01*
X51107Y-30207D01*
X51160Y-30194D01*
X51187Y-30181D01*
X51200Y-30167D01*
X51213Y-30141D01*
X51213Y-30114D01*
X51200Y-30087D01*
X51187Y-30074D01*
X51160Y-30061D01*
X51107Y-30047D01*
X51040Y-30047D01*
X50987Y-30061D01*
X50960Y-30074D01*
X50947Y-30087D01*
X50933Y-30114D01*
X51213Y-30328D02*
X50933Y-30328D01*
X51213Y-30488D02*
X51053Y-30368D01*
X50933Y-30488D02*
X51093Y-30328D01*
X67613Y-29584D02*
X67480Y-29490D01*
X67613Y-29424D02*
X67333Y-29424D01*
X67333Y-29530D01*
X67347Y-29557D01*
X67360Y-29570D01*
X67387Y-29584D01*
X67427Y-29584D01*
X67453Y-29570D01*
X67467Y-29557D01*
X67480Y-29530D01*
X67480Y-29424D01*
X67333Y-29664D02*
X67613Y-29757D01*
X67333Y-29850D01*
X67613Y-30090D02*
X67613Y-29930D01*
X67613Y-30010D02*
X67333Y-30010D01*
X67373Y-29984D01*
X67400Y-29957D01*
X67413Y-29930D01*
X66463Y-29424D02*
X66183Y-29424D01*
X66183Y-29530D01*
X66197Y-29557D01*
X66210Y-29570D01*
X66237Y-29584D01*
X66277Y-29584D01*
X66303Y-29570D01*
X66317Y-29557D01*
X66330Y-29530D01*
X66330Y-29424D01*
X66183Y-29757D02*
X66183Y-29810D01*
X66197Y-29837D01*
X66223Y-29864D01*
X66277Y-29877D01*
X66370Y-29877D01*
X66423Y-29864D01*
X66450Y-29837D01*
X66463Y-29810D01*
X66463Y-29757D01*
X66450Y-29730D01*
X66423Y-29704D01*
X66370Y-29690D01*
X66277Y-29690D01*
X66223Y-29704D01*
X66197Y-29730D01*
X66183Y-29757D01*
X66183Y-29957D02*
X66183Y-30117D01*
X66463Y-30037D02*
X66183Y-30037D01*
G54D10*
X62676Y-39347D02*
X62756Y-39233D01*
X62813Y-39347D02*
X62813Y-39107D01*
X62721Y-39107D01*
X62699Y-39119D01*
X62687Y-39130D01*
X62676Y-39153D01*
X62676Y-39187D01*
X62687Y-39210D01*
X62699Y-39221D01*
X62721Y-39233D01*
X62813Y-39233D01*
X61347Y-41846D02*
X61347Y-41732D01*
X61107Y-41732D01*
X61221Y-41926D02*
X61221Y-42006D01*
X61347Y-42040D02*
X61347Y-41926D01*
X61107Y-41926D01*
X61107Y-42040D01*
X61347Y-42143D02*
X61107Y-42143D01*
X61107Y-42200D01*
X61119Y-42235D01*
X61141Y-42257D01*
X61164Y-42269D01*
X61210Y-42280D01*
X61244Y-42280D01*
X61290Y-42269D01*
X61313Y-42257D01*
X61336Y-42235D01*
X61347Y-42200D01*
X61347Y-42143D01*
X61426Y-39347D02*
X61506Y-39233D01*
X61563Y-39347D02*
X61563Y-39107D01*
X61471Y-39107D01*
X61449Y-39119D01*
X61437Y-39130D01*
X61426Y-39153D01*
X61426Y-39187D01*
X61437Y-39210D01*
X61449Y-39221D01*
X61471Y-39233D01*
X61563Y-39233D01*
X61654Y-36847D02*
X61768Y-36847D01*
X61768Y-36607D01*
X61574Y-36721D02*
X61494Y-36721D01*
X61460Y-36847D02*
X61574Y-36847D01*
X61574Y-36607D01*
X61460Y-36607D01*
X61357Y-36847D02*
X61357Y-36607D01*
X61300Y-36607D01*
X61265Y-36619D01*
X61243Y-36641D01*
X61231Y-36664D01*
X61220Y-36710D01*
X61220Y-36744D01*
X61231Y-36790D01*
X61243Y-36813D01*
X61265Y-36836D01*
X61300Y-36847D01*
X61357Y-36847D01*
X54937Y-45754D02*
X55097Y-45754D01*
X54846Y-45697D02*
X55017Y-45640D01*
X55017Y-45788D01*
X55074Y-45880D02*
X55086Y-45892D01*
X55097Y-45880D01*
X55086Y-45869D01*
X55074Y-45880D01*
X55097Y-45880D01*
X54857Y-45971D02*
X54857Y-46131D01*
X55097Y-46028D01*
X55097Y-46223D02*
X54857Y-46223D01*
X55097Y-46360D02*
X54960Y-46257D01*
X54857Y-46360D02*
X54994Y-46223D01*
X61347Y-44346D02*
X61347Y-44232D01*
X61107Y-44232D01*
X61221Y-44426D02*
X61221Y-44506D01*
X61347Y-44540D02*
X61347Y-44426D01*
X61107Y-44426D01*
X61107Y-44540D01*
X61347Y-44643D02*
X61107Y-44643D01*
X61107Y-44700D01*
X61119Y-44735D01*
X61141Y-44757D01*
X61164Y-44769D01*
X61210Y-44780D01*
X61244Y-44780D01*
X61290Y-44769D01*
X61313Y-44757D01*
X61336Y-44735D01*
X61347Y-44700D01*
X61347Y-44643D01*
X58597Y-44220D02*
X58597Y-44083D01*
X58597Y-44151D02*
X58357Y-44151D01*
X58391Y-44128D01*
X58414Y-44106D01*
X58426Y-44083D01*
X58357Y-44437D02*
X58357Y-44323D01*
X58471Y-44312D01*
X58460Y-44323D01*
X58449Y-44346D01*
X58449Y-44403D01*
X58460Y-44426D01*
X58471Y-44437D01*
X58494Y-44449D01*
X58551Y-44449D01*
X58574Y-44437D01*
X58586Y-44426D01*
X58597Y-44403D01*
X58597Y-44346D01*
X58586Y-44323D01*
X58574Y-44312D01*
X58357Y-44598D02*
X58357Y-44621D01*
X58369Y-44644D01*
X58380Y-44655D01*
X58403Y-44666D01*
X58449Y-44678D01*
X58506Y-44678D01*
X58551Y-44666D01*
X58574Y-44655D01*
X58586Y-44644D01*
X58597Y-44621D01*
X58597Y-44598D01*
X58586Y-44575D01*
X58574Y-44564D01*
X58551Y-44552D01*
X58506Y-44541D01*
X58449Y-44541D01*
X58403Y-44552D01*
X58380Y-44564D01*
X58369Y-44575D01*
X58357Y-44598D01*
X58597Y-44918D02*
X58483Y-44838D01*
X58597Y-44781D02*
X58357Y-44781D01*
X58357Y-44873D01*
X58369Y-44895D01*
X58380Y-44907D01*
X58403Y-44918D01*
X58437Y-44918D01*
X58460Y-44907D01*
X58471Y-44895D01*
X58483Y-44873D01*
X58483Y-44781D01*
X58597Y-45470D02*
X58597Y-45333D01*
X58597Y-45401D02*
X58357Y-45401D01*
X58391Y-45378D01*
X58414Y-45356D01*
X58426Y-45333D01*
X58357Y-45687D02*
X58357Y-45573D01*
X58471Y-45562D01*
X58460Y-45573D01*
X58449Y-45596D01*
X58449Y-45653D01*
X58460Y-45676D01*
X58471Y-45687D01*
X58494Y-45699D01*
X58551Y-45699D01*
X58574Y-45687D01*
X58586Y-45676D01*
X58597Y-45653D01*
X58597Y-45596D01*
X58586Y-45573D01*
X58574Y-45562D01*
X58357Y-45848D02*
X58357Y-45871D01*
X58369Y-45894D01*
X58380Y-45905D01*
X58403Y-45916D01*
X58449Y-45928D01*
X58506Y-45928D01*
X58551Y-45916D01*
X58574Y-45905D01*
X58586Y-45894D01*
X58597Y-45871D01*
X58597Y-45848D01*
X58586Y-45825D01*
X58574Y-45814D01*
X58551Y-45802D01*
X58506Y-45791D01*
X58449Y-45791D01*
X58403Y-45802D01*
X58380Y-45814D01*
X58369Y-45825D01*
X58357Y-45848D01*
X58597Y-46168D02*
X58483Y-46088D01*
X58597Y-46031D02*
X58357Y-46031D01*
X58357Y-46123D01*
X58369Y-46145D01*
X58380Y-46157D01*
X58403Y-46168D01*
X58437Y-46168D01*
X58460Y-46157D01*
X58471Y-46145D01*
X58483Y-46123D01*
X58483Y-46031D01*
X61347Y-45596D02*
X61347Y-45482D01*
X61107Y-45482D01*
X61221Y-45676D02*
X61221Y-45756D01*
X61347Y-45790D02*
X61347Y-45676D01*
X61107Y-45676D01*
X61107Y-45790D01*
X61347Y-45893D02*
X61107Y-45893D01*
X61107Y-45950D01*
X61119Y-45985D01*
X61141Y-46007D01*
X61164Y-46019D01*
X61210Y-46030D01*
X61244Y-46030D01*
X61290Y-46019D01*
X61313Y-46007D01*
X61336Y-45985D01*
X61347Y-45950D01*
X61347Y-45893D01*
X61347Y-43096D02*
X61347Y-42982D01*
X61107Y-42982D01*
X61221Y-43176D02*
X61221Y-43256D01*
X61347Y-43290D02*
X61347Y-43176D01*
X61107Y-43176D01*
X61107Y-43290D01*
X61347Y-43393D02*
X61107Y-43393D01*
X61107Y-43450D01*
X61119Y-43485D01*
X61141Y-43507D01*
X61164Y-43519D01*
X61210Y-43530D01*
X61244Y-43530D01*
X61290Y-43519D01*
X61313Y-43507D01*
X61336Y-43485D01*
X61347Y-43450D01*
X61347Y-43393D01*
X58597Y-42970D02*
X58597Y-42833D01*
X58597Y-42901D02*
X58357Y-42901D01*
X58391Y-42878D01*
X58414Y-42856D01*
X58426Y-42833D01*
X58357Y-43187D02*
X58357Y-43073D01*
X58471Y-43062D01*
X58460Y-43073D01*
X58449Y-43096D01*
X58449Y-43153D01*
X58460Y-43176D01*
X58471Y-43187D01*
X58494Y-43199D01*
X58551Y-43199D01*
X58574Y-43187D01*
X58586Y-43176D01*
X58597Y-43153D01*
X58597Y-43096D01*
X58586Y-43073D01*
X58574Y-43062D01*
X58357Y-43348D02*
X58357Y-43371D01*
X58369Y-43394D01*
X58380Y-43405D01*
X58403Y-43416D01*
X58449Y-43428D01*
X58506Y-43428D01*
X58551Y-43416D01*
X58574Y-43405D01*
X58586Y-43394D01*
X58597Y-43371D01*
X58597Y-43348D01*
X58586Y-43325D01*
X58574Y-43314D01*
X58551Y-43302D01*
X58506Y-43291D01*
X58449Y-43291D01*
X58403Y-43302D01*
X58380Y-43314D01*
X58369Y-43325D01*
X58357Y-43348D01*
X58597Y-43668D02*
X58483Y-43588D01*
X58597Y-43531D02*
X58357Y-43531D01*
X58357Y-43623D01*
X58369Y-43645D01*
X58380Y-43657D01*
X58403Y-43668D01*
X58437Y-43668D01*
X58460Y-43657D01*
X58471Y-43645D01*
X58483Y-43623D01*
X58483Y-43531D01*
X58597Y-41720D02*
X58597Y-41583D01*
X58597Y-41651D02*
X58357Y-41651D01*
X58391Y-41628D01*
X58414Y-41606D01*
X58426Y-41583D01*
X58357Y-41937D02*
X58357Y-41823D01*
X58471Y-41812D01*
X58460Y-41823D01*
X58449Y-41846D01*
X58449Y-41903D01*
X58460Y-41926D01*
X58471Y-41937D01*
X58494Y-41949D01*
X58551Y-41949D01*
X58574Y-41937D01*
X58586Y-41926D01*
X58597Y-41903D01*
X58597Y-41846D01*
X58586Y-41823D01*
X58574Y-41812D01*
X58357Y-42098D02*
X58357Y-42121D01*
X58369Y-42144D01*
X58380Y-42155D01*
X58403Y-42166D01*
X58449Y-42178D01*
X58506Y-42178D01*
X58551Y-42166D01*
X58574Y-42155D01*
X58586Y-42144D01*
X58597Y-42121D01*
X58597Y-42098D01*
X58586Y-42075D01*
X58574Y-42064D01*
X58551Y-42052D01*
X58506Y-42041D01*
X58449Y-42041D01*
X58403Y-42052D01*
X58380Y-42064D01*
X58369Y-42075D01*
X58357Y-42098D01*
X58597Y-42418D02*
X58483Y-42338D01*
X58597Y-42281D02*
X58357Y-42281D01*
X58357Y-42373D01*
X58369Y-42395D01*
X58380Y-42407D01*
X58403Y-42418D01*
X58437Y-42418D01*
X58460Y-42407D01*
X58471Y-42395D01*
X58483Y-42373D01*
X58483Y-42281D01*
X62904Y-36847D02*
X63018Y-36847D01*
X63018Y-36607D01*
X62824Y-36721D02*
X62744Y-36721D01*
X62710Y-36847D02*
X62824Y-36847D01*
X62824Y-36607D01*
X62710Y-36607D01*
X62607Y-36847D02*
X62607Y-36607D01*
X62550Y-36607D01*
X62515Y-36619D01*
X62493Y-36641D01*
X62481Y-36664D01*
X62470Y-36710D01*
X62470Y-36744D01*
X62481Y-36790D01*
X62493Y-36813D01*
X62515Y-36836D01*
X62550Y-36847D01*
X62607Y-36847D01*
X65404Y-36847D02*
X65518Y-36847D01*
X65518Y-36607D01*
X65324Y-36721D02*
X65244Y-36721D01*
X65210Y-36847D02*
X65324Y-36847D01*
X65324Y-36607D01*
X65210Y-36607D01*
X65107Y-36847D02*
X65107Y-36607D01*
X65050Y-36607D01*
X65015Y-36619D01*
X64993Y-36641D01*
X64981Y-36664D01*
X64970Y-36710D01*
X64970Y-36744D01*
X64981Y-36790D01*
X64993Y-36813D01*
X65015Y-36836D01*
X65050Y-36847D01*
X65107Y-36847D01*
X65176Y-39347D02*
X65256Y-39233D01*
X65313Y-39347D02*
X65313Y-39107D01*
X65221Y-39107D01*
X65199Y-39119D01*
X65187Y-39130D01*
X65176Y-39153D01*
X65176Y-39187D01*
X65187Y-39210D01*
X65199Y-39221D01*
X65221Y-39233D01*
X65313Y-39233D01*
X63926Y-39347D02*
X64006Y-39233D01*
X64063Y-39347D02*
X64063Y-39107D01*
X63971Y-39107D01*
X63949Y-39119D01*
X63937Y-39130D01*
X63926Y-39153D01*
X63926Y-39187D01*
X63937Y-39210D01*
X63949Y-39221D01*
X63971Y-39233D01*
X64063Y-39233D01*
X64154Y-36847D02*
X64268Y-36847D01*
X64268Y-36607D01*
X64074Y-36721D02*
X63994Y-36721D01*
X63960Y-36847D02*
X64074Y-36847D01*
X64074Y-36607D01*
X63960Y-36607D01*
X63857Y-36847D02*
X63857Y-36607D01*
X63800Y-36607D01*
X63765Y-36619D01*
X63743Y-36641D01*
X63731Y-36664D01*
X63720Y-36710D01*
X63720Y-36744D01*
X63731Y-36790D01*
X63743Y-36813D01*
X63765Y-36836D01*
X63800Y-36847D01*
X63857Y-36847D01*
X59926Y-32097D02*
X60006Y-31983D01*
X60063Y-32097D02*
X60063Y-31857D01*
X59971Y-31857D01*
X59949Y-31869D01*
X59937Y-31880D01*
X59926Y-31903D01*
X59926Y-31937D01*
X59937Y-31960D01*
X59949Y-31971D01*
X59971Y-31983D01*
X60063Y-31983D01*
X63347Y-29824D02*
X63233Y-29744D01*
X63347Y-29687D02*
X63107Y-29687D01*
X63107Y-29779D01*
X63119Y-29801D01*
X63130Y-29813D01*
X63153Y-29824D01*
X63187Y-29824D01*
X63210Y-29813D01*
X63221Y-29801D01*
X63233Y-29779D01*
X63233Y-29687D01*
X66676Y-34597D02*
X66756Y-34483D01*
X66813Y-34597D02*
X66813Y-34357D01*
X66721Y-34357D01*
X66699Y-34369D01*
X66687Y-34380D01*
X66676Y-34403D01*
X66676Y-34437D01*
X66687Y-34460D01*
X66699Y-34471D01*
X66721Y-34483D01*
X66813Y-34483D01*
X66676Y-32097D02*
X66756Y-31983D01*
X66813Y-32097D02*
X66813Y-31857D01*
X66721Y-31857D01*
X66699Y-31869D01*
X66687Y-31880D01*
X66676Y-31903D01*
X66676Y-31937D01*
X66687Y-31960D01*
X66699Y-31971D01*
X66721Y-31983D01*
X66813Y-31983D01*
X60426Y-34347D02*
X60506Y-34233D01*
X60563Y-34347D02*
X60563Y-34107D01*
X60471Y-34107D01*
X60449Y-34119D01*
X60437Y-34130D01*
X60426Y-34153D01*
X60426Y-34187D01*
X60437Y-34210D01*
X60449Y-34221D01*
X60471Y-34233D01*
X60563Y-34233D01*
X51097Y-31449D02*
X51097Y-31312D01*
X51097Y-31380D02*
X50857Y-31380D01*
X50891Y-31357D01*
X50914Y-31335D01*
X50926Y-31312D01*
X51097Y-31552D02*
X50857Y-31552D01*
X51097Y-31689D02*
X50960Y-31586D01*
X50857Y-31689D02*
X50994Y-31552D01*
X50394Y-34107D02*
X50371Y-34107D01*
X50348Y-34119D01*
X50337Y-34130D01*
X50326Y-34153D01*
X50314Y-34199D01*
X50314Y-34256D01*
X50326Y-34301D01*
X50337Y-34324D01*
X50348Y-34336D01*
X50371Y-34347D01*
X50394Y-34347D01*
X50417Y-34336D01*
X50428Y-34324D01*
X50440Y-34301D01*
X50451Y-34256D01*
X50451Y-34199D01*
X50440Y-34153D01*
X50428Y-34130D01*
X50417Y-34119D01*
X50394Y-34107D01*
X50211Y-34324D02*
X50199Y-34336D01*
X50211Y-34347D01*
X50222Y-34336D01*
X50211Y-34324D01*
X50211Y-34347D01*
X49971Y-34347D02*
X50108Y-34347D01*
X50040Y-34347D02*
X50040Y-34107D01*
X50063Y-34141D01*
X50085Y-34164D01*
X50108Y-34176D01*
X49765Y-34187D02*
X49765Y-34347D01*
X49868Y-34187D02*
X49868Y-34313D01*
X49856Y-34336D01*
X49834Y-34347D01*
X49799Y-34347D01*
X49776Y-34336D01*
X49765Y-34324D01*
X49571Y-34221D02*
X49651Y-34221D01*
X49651Y-34347D02*
X49651Y-34107D01*
X49537Y-34107D01*
X51926Y-36097D02*
X52006Y-35983D01*
X52063Y-36097D02*
X52063Y-35857D01*
X51971Y-35857D01*
X51949Y-35869D01*
X51937Y-35880D01*
X51926Y-35903D01*
X51926Y-35937D01*
X51937Y-35960D01*
X51949Y-35971D01*
X51971Y-35983D01*
X52063Y-35983D01*
X53404Y-36097D02*
X53518Y-36097D01*
X53518Y-35857D01*
X53324Y-35971D02*
X53244Y-35971D01*
X53210Y-36097D02*
X53324Y-36097D01*
X53324Y-35857D01*
X53210Y-35857D01*
X53107Y-36097D02*
X53107Y-35857D01*
X53050Y-35857D01*
X53015Y-35869D01*
X52993Y-35891D01*
X52981Y-35914D01*
X52970Y-35960D01*
X52970Y-35994D01*
X52981Y-36040D01*
X52993Y-36063D01*
X53015Y-36086D01*
X53050Y-36097D01*
X53107Y-36097D01*
X56051Y-33347D02*
X56188Y-33347D01*
X56120Y-33347D02*
X56120Y-33107D01*
X56143Y-33141D01*
X56165Y-33164D01*
X56188Y-33176D01*
X55948Y-33347D02*
X55948Y-33107D01*
X55811Y-33347D02*
X55914Y-33210D01*
X55811Y-33107D02*
X55948Y-33244D01*
G54D18*
X65839Y-43556D02*
X65619Y-43556D01*
X65818Y-43765D02*
X65829Y-43755D01*
X65839Y-43727D01*
X65839Y-43708D01*
X65829Y-43679D01*
X65808Y-43660D01*
X65787Y-43651D01*
X65745Y-43641D01*
X65713Y-43641D01*
X65671Y-43651D01*
X65650Y-43660D01*
X65630Y-43679D01*
X65619Y-43708D01*
X65619Y-43727D01*
X65630Y-43755D01*
X65640Y-43765D01*
X65839Y-43955D02*
X65839Y-43841D01*
X65839Y-43898D02*
X65619Y-43898D01*
X65650Y-43879D01*
X65671Y-43860D01*
X65682Y-43841D01*
X65192Y-43503D02*
X65339Y-43503D01*
X65109Y-43456D02*
X65266Y-43408D01*
X65266Y-43532D01*
X65119Y-43703D02*
X65119Y-43608D01*
X65224Y-43598D01*
X65213Y-43608D01*
X65203Y-43627D01*
X65203Y-43674D01*
X65213Y-43693D01*
X65224Y-43703D01*
X65245Y-43712D01*
X65297Y-43712D01*
X65318Y-43703D01*
X65329Y-43693D01*
X65339Y-43674D01*
X65339Y-43627D01*
X65329Y-43608D01*
X65318Y-43598D01*
X65140Y-43788D02*
X65130Y-43798D01*
X65119Y-43817D01*
X65119Y-43864D01*
X65130Y-43883D01*
X65140Y-43893D01*
X65161Y-43902D01*
X65182Y-43902D01*
X65213Y-43893D01*
X65339Y-43779D01*
X65339Y-43902D01*
X65119Y-44026D02*
X65119Y-44045D01*
X65130Y-44064D01*
X65140Y-44073D01*
X65161Y-44083D01*
X65203Y-44092D01*
X65255Y-44092D01*
X65297Y-44083D01*
X65318Y-44073D01*
X65329Y-44064D01*
X65339Y-44045D01*
X65339Y-44026D01*
X65329Y-44007D01*
X65318Y-43997D01*
X65297Y-43988D01*
X65255Y-43978D01*
X65203Y-43978D01*
X65161Y-43988D01*
X65140Y-43997D01*
X65130Y-44007D01*
X65119Y-44026D01*
G54D10*
X65787Y-46304D02*
X65947Y-46304D01*
X65696Y-46247D02*
X65867Y-46190D01*
X65867Y-46338D01*
X65924Y-46430D02*
X65936Y-46442D01*
X65947Y-46430D01*
X65936Y-46419D01*
X65924Y-46430D01*
X65947Y-46430D01*
X65707Y-46521D02*
X65707Y-46681D01*
X65947Y-46578D01*
X65947Y-46773D02*
X65707Y-46773D01*
X65947Y-46910D02*
X65810Y-46807D01*
X65707Y-46910D02*
X65844Y-46773D01*
%LPC*%
G54D19*
X53975Y-32915D03*
X53975Y-33170D03*
X53975Y-33430D03*
X53975Y-33685D03*
X52225Y-33685D03*
X52225Y-33430D03*
X52225Y-33170D03*
X52225Y-32915D03*
G54D20*
X59189Y-30750D03*
X57811Y-30750D03*
G54D21*
X50016Y-45000D03*
X51984Y-45000D03*
X50016Y-37750D03*
X51984Y-37750D03*
X65016Y-41250D03*
X66984Y-41250D03*
G54D22*
X55600Y-29550D03*
G54D23*
X55600Y-30550D03*
G54D24*
X54213Y-44431D03*
X55787Y-44431D03*
X54213Y-42069D03*
X55787Y-42069D03*
G54D25*
X55375Y-35000D03*
X54625Y-35000D03*
X55000Y-36000D03*
G54D26*
X54571Y-29500D03*
X53429Y-29500D03*
X53429Y-30750D03*
X54571Y-30750D03*
G54D27*
X62150Y-34000D03*
X62150Y-33500D03*
X62150Y-33000D03*
X62150Y-32500D03*
X62150Y-32000D03*
X62150Y-31500D03*
X62150Y-31000D03*
X64250Y-31000D03*
X64250Y-31500D03*
X64250Y-32000D03*
X64250Y-32500D03*
X64250Y-33000D03*
X64250Y-33500D03*
X64250Y-34000D03*
G54D28*
X50429Y-30000D03*
G54D26*
X51709Y-29606D03*
X51709Y-30394D03*
G54D28*
X65679Y-29750D03*
G54D26*
X66959Y-29356D03*
X66959Y-30144D03*
G54D29*
X62750Y-39880D03*
X62750Y-38620D03*
G54D30*
X61880Y-42000D03*
X60620Y-42000D03*
G54D29*
X61500Y-39880D03*
X61500Y-38620D03*
X61500Y-36120D03*
X61500Y-37380D03*
G54D30*
X54370Y-46000D03*
X55630Y-46000D03*
X61880Y-44500D03*
X60620Y-44500D03*
X59130Y-44500D03*
X57870Y-44500D03*
X59130Y-45750D03*
X57870Y-45750D03*
X61880Y-45750D03*
X60620Y-45750D03*
X61880Y-43250D03*
X60620Y-43250D03*
X59130Y-43250D03*
X57870Y-43250D03*
X59130Y-42000D03*
X57870Y-42000D03*
G54D29*
X62750Y-36120D03*
X62750Y-37380D03*
X65250Y-36120D03*
X65250Y-37380D03*
X65250Y-39880D03*
X65250Y-38620D03*
X64000Y-39880D03*
X64000Y-38620D03*
X64000Y-36120D03*
X64000Y-37380D03*
X60000Y-32630D03*
X60000Y-31370D03*
G54D30*
X62620Y-29750D03*
X63880Y-29750D03*
G54D29*
X66750Y-33870D03*
X66750Y-35130D03*
X66750Y-31370D03*
X66750Y-32630D03*
X60500Y-34880D03*
X60500Y-33620D03*
G54D30*
X50370Y-31500D03*
X51630Y-31500D03*
G54D29*
X50000Y-33620D03*
X50000Y-34880D03*
X52000Y-35370D03*
X52000Y-36630D03*
X53250Y-35370D03*
X53250Y-36630D03*
X56000Y-33880D03*
X56000Y-32620D03*
G54D31*
X64437Y-45500D03*
X66563Y-45500D03*
X64437Y-45000D03*
X66563Y-45000D03*
X64437Y-44500D03*
X66563Y-44500D03*
X64437Y-44000D03*
X66563Y-44000D03*
X64437Y-43500D03*
X66563Y-43500D03*
X64437Y-43000D03*
X66563Y-43000D03*
X64437Y-42500D03*
X66563Y-42500D03*
X64437Y-42000D03*
X66563Y-42000D03*
G54D30*
X66480Y-46550D03*
X65220Y-46550D03*
M02*
