M48
;DRILL file {PCBnew (2011-05-25)-stable} date Sun 24 Mar 2013 20:54:32 CET
;FORMAT={-:-/ absolute / inch / decimal}
FMAT,2
INCH,TZ
T1C0.025
T2C0.032
T3C0.040
%
G90
G05
M72
T1
X5.345Y-4.440
X5.700Y-4.050
X5.975Y-4.125
X6.050Y-3.600
X6.125Y-3.250
X6.525Y-3.250
X6.622Y-2.886
X6.625Y-3.040
X6.730Y-4.655
T2
X5.560Y-2.955
X5.560Y-3.055
T3
X5.002Y-3.775
X5.002Y-4.500
X5.198Y-3.775
X5.198Y-4.500
X5.402Y-4.325
X5.598Y-4.325
X5.781Y-3.075
X5.919Y-3.075
X6.502Y-4.125
X6.698Y-4.125
T0
M30
