G04 (created by PCBNEW (2013-mar-13)-testing) date Mon 25 Mar 2013 01:51:38 PM CET*
%MOIN*%
G04 Gerber Fmt 3.4, Leading zero omitted, Abs format*
%FSLAX34Y34*%
G01*
G70*
G90*
G04 APERTURE LIST*
%ADD10C,2.3622e-06*%
%ADD11C,0.015*%
%ADD12R,0.035X0.055*%
%ADD13R,0.0472X0.0709*%
%ADD14R,0.0196X0.1*%
%ADD15R,0.0787X0.0984*%
%ADD16R,0.017X0.08*%
%ADD17C,0.04*%
%ADD18R,0.1377X0.0629*%
%ADD19R,0.0551X0.1142*%
%ADD20C,0.065*%
%ADD21R,0.035X0.024*%
%ADD22R,0.055X0.055*%
%ADD23C,0.055*%
%ADD24R,0.0709X0.0472*%
%ADD25C,0.035*%
%ADD26C,0.012*%
%ADD27C,0.025*%
%ADD28C,0.01*%
G04 APERTURE END LIST*
G54D10*
G54D11*
X67250Y-28250D02*
X49750Y-28250D01*
X68250Y-46750D02*
X68250Y-29250D01*
X68250Y-29250D02*
G75*
G03X67250Y-28250I-1000J0D01*
G74*
G01*
X50000Y-47750D02*
X67250Y-47750D01*
X48750Y-46500D02*
X48750Y-29250D01*
X48750Y-46500D02*
G75*
G03X50000Y-47750I1250J0D01*
G74*
G01*
X67250Y-47750D02*
G75*
G03X68250Y-46750I0J1000D01*
G74*
G01*
X49750Y-28250D02*
G75*
G03X48750Y-29250I0J-1000D01*
G74*
G01*
G54D12*
X50625Y-42250D03*
X51375Y-42250D03*
X50625Y-40500D03*
X51375Y-40500D03*
G54D13*
X62630Y-39250D03*
X61370Y-39250D03*
G54D14*
X58500Y-31774D03*
X58814Y-31774D03*
X57871Y-31774D03*
G54D15*
X60271Y-29569D03*
X60271Y-31734D03*
X56729Y-29569D03*
X56768Y-31734D03*
G54D16*
X58186Y-31750D03*
G54D17*
X59189Y-30750D03*
X57811Y-30750D03*
G54D14*
X59129Y-31774D03*
G54D18*
X66352Y-45500D03*
X64148Y-45500D03*
G54D19*
X50213Y-43819D03*
X51787Y-43819D03*
X50213Y-46181D03*
X51787Y-46181D03*
G54D20*
X50016Y-45000D03*
X51984Y-45000D03*
G54D19*
X50213Y-36569D03*
X51787Y-36569D03*
X50213Y-38931D03*
X51787Y-38931D03*
G54D20*
X50016Y-37750D03*
X51984Y-37750D03*
G54D19*
X65213Y-40069D03*
X66787Y-40069D03*
X65213Y-42431D03*
X66787Y-42431D03*
G54D20*
X65016Y-41250D03*
X66984Y-41250D03*
G54D21*
X54000Y-42125D03*
X54000Y-41375D03*
X55000Y-41750D03*
X65500Y-37875D03*
X65500Y-37125D03*
X66500Y-37500D03*
X57000Y-42125D03*
X57000Y-41375D03*
X58000Y-41750D03*
G54D22*
X55600Y-29550D03*
G54D23*
X55600Y-30550D03*
G54D13*
X62630Y-43000D03*
X61370Y-43000D03*
X62630Y-41250D03*
X61370Y-41250D03*
G54D24*
X57000Y-38380D03*
X57000Y-37120D03*
X57000Y-44370D03*
X57000Y-45630D03*
X55000Y-37120D03*
X55000Y-38380D03*
X55000Y-44370D03*
X55000Y-45630D03*
G54D20*
X54016Y-43250D03*
X55984Y-43250D03*
G54D25*
X60500Y-36000D03*
X66950Y-29225D03*
X66850Y-46550D03*
X57000Y-40500D03*
X61400Y-32500D03*
X53450Y-44400D03*
X65050Y-32500D03*
X67500Y-32500D03*
X59750Y-41250D03*
G54D26*
X59129Y-31774D02*
X59129Y-32129D01*
X59129Y-32129D02*
X59250Y-32250D01*
X59250Y-32250D02*
X59250Y-32500D01*
G54D27*
X59000Y-32750D02*
X59000Y-34000D01*
X59000Y-32750D02*
X59250Y-32500D01*
X61400Y-32500D02*
X60500Y-32500D01*
X62250Y-32500D02*
X61400Y-32500D01*
X60500Y-32500D02*
X59000Y-34000D01*
X65050Y-32500D02*
X67500Y-32500D01*
X49750Y-41400D02*
X50050Y-41400D01*
X49900Y-41400D02*
X49900Y-41550D01*
X50050Y-41400D02*
X49900Y-41400D01*
X50150Y-41375D02*
X50075Y-41375D01*
X50075Y-41375D02*
X49900Y-41550D01*
X49900Y-41550D02*
X49750Y-41700D01*
X54000Y-41375D02*
X50150Y-41375D01*
X50075Y-41375D02*
X49750Y-41050D01*
X59750Y-41250D02*
X57125Y-41250D01*
X57125Y-41250D02*
X57000Y-41375D01*
X57000Y-35000D02*
X57500Y-35000D01*
X57500Y-35000D02*
X58000Y-34500D01*
X65500Y-37125D02*
X59875Y-37125D01*
X59875Y-37125D02*
X59750Y-37250D01*
X58000Y-34000D02*
X58000Y-34500D01*
X61000Y-45500D02*
X64148Y-45500D01*
X59750Y-44250D02*
X61000Y-45500D01*
X59750Y-37250D02*
X59750Y-40000D01*
X59750Y-40000D02*
X59750Y-41250D01*
X59750Y-41250D02*
X59750Y-44250D01*
X59000Y-36500D02*
X59750Y-37250D01*
X58000Y-34500D02*
X59000Y-35500D01*
X59000Y-35500D02*
X59000Y-36500D01*
X50213Y-43819D02*
X50213Y-43463D01*
X49750Y-39394D02*
X50213Y-38931D01*
X49750Y-43000D02*
X49750Y-41700D01*
X49750Y-41700D02*
X49750Y-41400D01*
X49750Y-41400D02*
X49750Y-41250D01*
X49750Y-41250D02*
X49750Y-41050D01*
X49750Y-41050D02*
X49750Y-39394D01*
X50213Y-43463D02*
X49750Y-43000D01*
X58000Y-34000D02*
X58000Y-33250D01*
X57750Y-31895D02*
X57871Y-31774D01*
X57750Y-33000D02*
X57750Y-31895D01*
X58000Y-33250D02*
X57750Y-33000D01*
X50213Y-36569D02*
X50213Y-36037D01*
X51250Y-35000D02*
X57000Y-35000D01*
X50213Y-36037D02*
X51250Y-35000D01*
X50213Y-38931D02*
X50213Y-37947D01*
X50213Y-37947D02*
X50213Y-36569D01*
X50213Y-46181D02*
X50213Y-45197D01*
X50213Y-45197D02*
X50213Y-43819D01*
G54D26*
X51375Y-42250D02*
X52250Y-42250D01*
X52250Y-42250D02*
X52500Y-42500D01*
X51750Y-44750D02*
X51750Y-43856D01*
X51984Y-44984D02*
X51750Y-44750D01*
X51984Y-45000D02*
X51984Y-44984D01*
X51750Y-43856D02*
X51787Y-43819D01*
X51787Y-46181D02*
X51787Y-45197D01*
X51787Y-45197D02*
X51984Y-45000D01*
X52500Y-42500D02*
X52750Y-42250D01*
X53875Y-42125D02*
X54000Y-42125D01*
X53750Y-42250D02*
X53875Y-42125D01*
X52750Y-42250D02*
X53750Y-42250D01*
X51787Y-43819D02*
X52181Y-43819D01*
X52181Y-43819D02*
X52500Y-43500D01*
X52500Y-43500D02*
X52500Y-42500D01*
X57000Y-45630D02*
X57000Y-45250D01*
X55000Y-44750D02*
X55000Y-44370D01*
X55250Y-45000D02*
X55000Y-44750D01*
X56750Y-45000D02*
X55250Y-45000D01*
X57000Y-45250D02*
X56750Y-45000D01*
X55000Y-37120D02*
X57000Y-37120D01*
X62630Y-43000D02*
X62250Y-43000D01*
X61750Y-41250D02*
X61370Y-41250D01*
X62000Y-41500D02*
X61750Y-41250D01*
X62000Y-42750D02*
X62000Y-41500D01*
X62250Y-43000D02*
X62000Y-42750D01*
X66500Y-37500D02*
X60750Y-37500D01*
X60750Y-43000D02*
X61370Y-43000D01*
X60500Y-42750D02*
X60750Y-43000D01*
X60500Y-37750D02*
X60500Y-42750D01*
X60750Y-37500D02*
X60500Y-37750D01*
X62630Y-39250D02*
X64500Y-39250D01*
X65500Y-38250D02*
X65500Y-37875D01*
X65000Y-38750D02*
X65500Y-38250D01*
X64500Y-39250D02*
X65000Y-38750D01*
X50625Y-40500D02*
X50625Y-39875D01*
X50968Y-39750D02*
X51787Y-38931D01*
X50750Y-39750D02*
X50968Y-39750D01*
X50625Y-39875D02*
X50750Y-39750D01*
X51787Y-36569D02*
X54181Y-36569D01*
X56250Y-41375D02*
X57000Y-42125D01*
X56250Y-38000D02*
X56250Y-41375D01*
X56500Y-37750D02*
X56250Y-38000D01*
X57500Y-37750D02*
X56500Y-37750D01*
X57750Y-37500D02*
X57500Y-37750D01*
X57750Y-36500D02*
X57750Y-37500D01*
X57500Y-36250D02*
X57750Y-36500D01*
X54500Y-36250D02*
X57500Y-36250D01*
X54181Y-36569D02*
X54500Y-36250D01*
X51984Y-37750D02*
X51984Y-37734D01*
X51787Y-37537D02*
X51787Y-36569D01*
X51984Y-37734D02*
X51787Y-37537D01*
X51787Y-38931D02*
X51787Y-37947D01*
X51787Y-37947D02*
X51984Y-37750D01*
X53250Y-40250D02*
X53000Y-40500D01*
X53000Y-40500D02*
X51375Y-40500D01*
X54120Y-37750D02*
X54750Y-37750D01*
X53500Y-37750D02*
X53250Y-38000D01*
X53250Y-40250D02*
X53250Y-38000D01*
X54120Y-37750D02*
X53500Y-37750D01*
X55000Y-38000D02*
X55000Y-38380D01*
X54750Y-37750D02*
X55000Y-38000D01*
X53250Y-40250D02*
X53500Y-40500D01*
X55250Y-41750D02*
X55000Y-41750D01*
X55500Y-41500D02*
X55250Y-41750D01*
X55500Y-40750D02*
X55500Y-41500D01*
X55250Y-40500D02*
X55500Y-40750D01*
X53500Y-40500D02*
X55250Y-40500D01*
X54500Y-47250D02*
X51500Y-47250D01*
X55000Y-46750D02*
X54500Y-47250D01*
X50950Y-46700D02*
X50750Y-46500D01*
X51500Y-47250D02*
X50950Y-46700D01*
X50750Y-46500D02*
X50750Y-42375D01*
X50625Y-42250D02*
X50750Y-42375D01*
X55000Y-46750D02*
X55250Y-46500D01*
X55000Y-45630D02*
X55000Y-46250D01*
X58000Y-46250D02*
X58000Y-41750D01*
X57750Y-46500D02*
X58000Y-46250D01*
X55250Y-46500D02*
X57750Y-46500D01*
X55000Y-46250D02*
X55250Y-46500D01*
X66352Y-45500D02*
X66352Y-45102D01*
X65681Y-42431D02*
X65213Y-42431D01*
X66000Y-42750D02*
X65681Y-42431D01*
X66000Y-44750D02*
X66000Y-42750D01*
X66352Y-45102D02*
X66000Y-44750D01*
X65016Y-41250D02*
X65016Y-41234D01*
X65213Y-41037D02*
X65213Y-40069D01*
X65016Y-41234D02*
X65213Y-41037D01*
X65213Y-42431D02*
X65213Y-41447D01*
X65213Y-41447D02*
X65016Y-41250D01*
X61370Y-39250D02*
X61370Y-39870D01*
X61370Y-39870D02*
X61569Y-40069D01*
X61569Y-40069D02*
X65213Y-40069D01*
G54D10*
G36*
X57690Y-46121D02*
X57621Y-46190D01*
X55378Y-46190D01*
X55310Y-46121D01*
X55310Y-46116D01*
X55404Y-46116D01*
X55495Y-46078D01*
X55566Y-46007D01*
X55604Y-45915D01*
X55604Y-45816D01*
X55604Y-45344D01*
X55590Y-45310D01*
X56409Y-45310D01*
X56395Y-45344D01*
X56395Y-45443D01*
X56395Y-45915D01*
X56433Y-46007D01*
X56503Y-46077D01*
X56595Y-46115D01*
X56695Y-46116D01*
X57404Y-46116D01*
X57495Y-46078D01*
X57566Y-46007D01*
X57604Y-45915D01*
X57604Y-45816D01*
X57604Y-45344D01*
X57566Y-45252D01*
X57496Y-45182D01*
X57404Y-45144D01*
X57304Y-45143D01*
X57288Y-45143D01*
X57286Y-45131D01*
X57286Y-45131D01*
X57259Y-45091D01*
X57219Y-45030D01*
X57219Y-45030D01*
X57044Y-44856D01*
X57050Y-44856D01*
X57050Y-44793D01*
X57112Y-44856D01*
X57304Y-44856D01*
X57404Y-44855D01*
X57496Y-44817D01*
X57566Y-44747D01*
X57604Y-44655D01*
X57604Y-44084D01*
X57566Y-43992D01*
X57496Y-43922D01*
X57404Y-43884D01*
X57304Y-43883D01*
X57112Y-43884D01*
X57050Y-43946D01*
X57050Y-44320D01*
X57542Y-44320D01*
X57604Y-44257D01*
X57604Y-44084D01*
X57604Y-44655D01*
X57604Y-44482D01*
X57542Y-44420D01*
X57050Y-44420D01*
X57050Y-44427D01*
X56950Y-44427D01*
X56950Y-44420D01*
X56950Y-44320D01*
X56950Y-43946D01*
X56887Y-43884D01*
X56695Y-43883D01*
X56595Y-43884D01*
X56559Y-43899D01*
X56559Y-43136D01*
X56471Y-42924D01*
X56310Y-42762D01*
X56098Y-42675D01*
X55870Y-42674D01*
X55658Y-42762D01*
X55496Y-42923D01*
X55409Y-43135D01*
X55408Y-43363D01*
X55496Y-43575D01*
X55657Y-43737D01*
X55869Y-43824D01*
X56097Y-43825D01*
X56309Y-43737D01*
X56471Y-43576D01*
X56558Y-43364D01*
X56559Y-43136D01*
X56559Y-43899D01*
X56503Y-43922D01*
X56433Y-43992D01*
X56395Y-44084D01*
X56395Y-44257D01*
X56458Y-44320D01*
X56950Y-44320D01*
X56950Y-44420D01*
X56458Y-44420D01*
X56395Y-44482D01*
X56395Y-44655D01*
X56409Y-44690D01*
X55590Y-44690D01*
X55604Y-44655D01*
X55604Y-44556D01*
X55604Y-44084D01*
X55566Y-43992D01*
X55496Y-43922D01*
X55404Y-43884D01*
X55304Y-43883D01*
X54595Y-43883D01*
X54595Y-43884D01*
X54595Y-43337D01*
X54585Y-43109D01*
X54517Y-42947D01*
X54420Y-42916D01*
X54349Y-42987D01*
X54349Y-42845D01*
X54318Y-42748D01*
X54103Y-42670D01*
X53875Y-42680D01*
X53713Y-42748D01*
X53682Y-42845D01*
X54016Y-43179D01*
X54349Y-42845D01*
X54349Y-42987D01*
X54086Y-43250D01*
X54420Y-43583D01*
X54517Y-43552D01*
X54595Y-43337D01*
X54595Y-43884D01*
X54504Y-43921D01*
X54433Y-43992D01*
X54395Y-44084D01*
X54395Y-44183D01*
X54395Y-44655D01*
X54433Y-44747D01*
X54503Y-44817D01*
X54595Y-44855D01*
X54695Y-44856D01*
X54711Y-44856D01*
X54713Y-44868D01*
X54780Y-44969D01*
X54955Y-45143D01*
X54595Y-45143D01*
X54504Y-45181D01*
X54433Y-45252D01*
X54395Y-45344D01*
X54395Y-45443D01*
X54395Y-45915D01*
X54433Y-46007D01*
X54503Y-46077D01*
X54595Y-46115D01*
X54690Y-46116D01*
X54690Y-46250D01*
X54713Y-46368D01*
X54780Y-46469D01*
X54811Y-46500D01*
X54780Y-46530D01*
X54371Y-46940D01*
X54349Y-46940D01*
X54349Y-43654D01*
X54016Y-43320D01*
X53945Y-43391D01*
X53945Y-43250D01*
X53611Y-42916D01*
X53514Y-42947D01*
X53436Y-43162D01*
X53446Y-43390D01*
X53514Y-43552D01*
X53611Y-43583D01*
X53945Y-43250D01*
X53945Y-43391D01*
X53682Y-43654D01*
X53713Y-43751D01*
X53928Y-43829D01*
X54156Y-43819D01*
X54318Y-43751D01*
X54349Y-43654D01*
X54349Y-46940D01*
X52228Y-46940D01*
X52274Y-46893D01*
X52312Y-46801D01*
X52312Y-46702D01*
X52312Y-45560D01*
X52286Y-45497D01*
X52309Y-45487D01*
X52471Y-45326D01*
X52558Y-45114D01*
X52559Y-44886D01*
X52471Y-44674D01*
X52310Y-44512D01*
X52286Y-44502D01*
X52312Y-44439D01*
X52312Y-44340D01*
X52312Y-44096D01*
X52400Y-44038D01*
X52719Y-43719D01*
X52719Y-43719D01*
X52719Y-43719D01*
X52786Y-43618D01*
X52786Y-43618D01*
X52810Y-43500D01*
X52810Y-42628D01*
X52878Y-42560D01*
X53750Y-42560D01*
X53868Y-42536D01*
X53930Y-42495D01*
X54224Y-42495D01*
X54316Y-42457D01*
X54386Y-42386D01*
X54424Y-42294D01*
X54425Y-42195D01*
X54425Y-41955D01*
X54387Y-41863D01*
X54316Y-41793D01*
X54224Y-41755D01*
X54125Y-41754D01*
X53775Y-41754D01*
X53683Y-41792D01*
X53613Y-41863D01*
X53581Y-41940D01*
X52750Y-41940D01*
X52631Y-41963D01*
X52591Y-41990D01*
X52530Y-42030D01*
X52530Y-42030D01*
X52500Y-42061D01*
X52469Y-42030D01*
X52368Y-41963D01*
X52250Y-41940D01*
X51800Y-41940D01*
X51800Y-41925D01*
X51762Y-41833D01*
X51691Y-41763D01*
X51660Y-41750D01*
X54000Y-41750D01*
X54024Y-41745D01*
X54224Y-41745D01*
X54316Y-41707D01*
X54386Y-41636D01*
X54424Y-41544D01*
X54425Y-41445D01*
X54425Y-41205D01*
X54387Y-41113D01*
X54316Y-41043D01*
X54224Y-41005D01*
X54125Y-41004D01*
X54024Y-41004D01*
X54000Y-41000D01*
X51660Y-41000D01*
X51691Y-40987D01*
X51761Y-40916D01*
X51799Y-40824D01*
X51799Y-40810D01*
X53000Y-40810D01*
X53118Y-40786D01*
X53219Y-40719D01*
X53250Y-40688D01*
X53280Y-40719D01*
X53280Y-40719D01*
X53341Y-40759D01*
X53381Y-40786D01*
X53381Y-40786D01*
X53500Y-40810D01*
X55121Y-40810D01*
X55190Y-40878D01*
X55190Y-41371D01*
X55181Y-41380D01*
X55125Y-41379D01*
X54775Y-41379D01*
X54683Y-41417D01*
X54613Y-41488D01*
X54575Y-41580D01*
X54574Y-41679D01*
X54574Y-41919D01*
X54612Y-42011D01*
X54683Y-42081D01*
X54775Y-42119D01*
X54874Y-42120D01*
X55224Y-42120D01*
X55316Y-42082D01*
X55360Y-42038D01*
X55368Y-42036D01*
X55469Y-41969D01*
X55719Y-41719D01*
X55719Y-41719D01*
X55719Y-41719D01*
X55759Y-41658D01*
X55786Y-41618D01*
X55786Y-41618D01*
X55810Y-41500D01*
X55810Y-40750D01*
X55786Y-40631D01*
X55786Y-40631D01*
X55759Y-40591D01*
X55719Y-40530D01*
X55719Y-40530D01*
X55469Y-40280D01*
X55368Y-40213D01*
X55250Y-40190D01*
X53628Y-40190D01*
X53560Y-40121D01*
X53560Y-38128D01*
X53628Y-38060D01*
X54120Y-38060D01*
X54409Y-38060D01*
X54395Y-38094D01*
X54395Y-38193D01*
X54395Y-38665D01*
X54433Y-38757D01*
X54503Y-38827D01*
X54595Y-38865D01*
X54695Y-38866D01*
X55404Y-38866D01*
X55495Y-38828D01*
X55566Y-38757D01*
X55604Y-38665D01*
X55604Y-38566D01*
X55604Y-38094D01*
X55566Y-38002D01*
X55496Y-37932D01*
X55404Y-37894D01*
X55304Y-37893D01*
X55288Y-37893D01*
X55286Y-37881D01*
X55286Y-37881D01*
X55259Y-37841D01*
X55219Y-37780D01*
X55219Y-37780D01*
X55044Y-37606D01*
X55404Y-37606D01*
X55495Y-37568D01*
X55566Y-37497D01*
X55594Y-37430D01*
X56405Y-37430D01*
X56416Y-37456D01*
X56381Y-37463D01*
X56341Y-37490D01*
X56280Y-37530D01*
X56280Y-37530D01*
X56030Y-37780D01*
X55963Y-37881D01*
X55940Y-38000D01*
X55940Y-41375D01*
X55963Y-41493D01*
X56030Y-41594D01*
X56574Y-42138D01*
X56574Y-42294D01*
X56612Y-42386D01*
X56683Y-42456D01*
X56775Y-42494D01*
X56874Y-42495D01*
X57224Y-42495D01*
X57316Y-42457D01*
X57386Y-42386D01*
X57424Y-42294D01*
X57425Y-42195D01*
X57425Y-41955D01*
X57387Y-41863D01*
X57316Y-41793D01*
X57224Y-41755D01*
X57125Y-41754D01*
X57068Y-41754D01*
X57058Y-41745D01*
X57224Y-41745D01*
X57316Y-41707D01*
X57386Y-41636D01*
X57391Y-41625D01*
X57575Y-41625D01*
X57574Y-41679D01*
X57574Y-41919D01*
X57612Y-42011D01*
X57683Y-42081D01*
X57690Y-42084D01*
X57690Y-46121D01*
X57690Y-46121D01*
G37*
G54D28*
X57690Y-46121D02*
X57621Y-46190D01*
X55378Y-46190D01*
X55310Y-46121D01*
X55310Y-46116D01*
X55404Y-46116D01*
X55495Y-46078D01*
X55566Y-46007D01*
X55604Y-45915D01*
X55604Y-45816D01*
X55604Y-45344D01*
X55590Y-45310D01*
X56409Y-45310D01*
X56395Y-45344D01*
X56395Y-45443D01*
X56395Y-45915D01*
X56433Y-46007D01*
X56503Y-46077D01*
X56595Y-46115D01*
X56695Y-46116D01*
X57404Y-46116D01*
X57495Y-46078D01*
X57566Y-46007D01*
X57604Y-45915D01*
X57604Y-45816D01*
X57604Y-45344D01*
X57566Y-45252D01*
X57496Y-45182D01*
X57404Y-45144D01*
X57304Y-45143D01*
X57288Y-45143D01*
X57286Y-45131D01*
X57286Y-45131D01*
X57259Y-45091D01*
X57219Y-45030D01*
X57219Y-45030D01*
X57044Y-44856D01*
X57050Y-44856D01*
X57050Y-44793D01*
X57112Y-44856D01*
X57304Y-44856D01*
X57404Y-44855D01*
X57496Y-44817D01*
X57566Y-44747D01*
X57604Y-44655D01*
X57604Y-44084D01*
X57566Y-43992D01*
X57496Y-43922D01*
X57404Y-43884D01*
X57304Y-43883D01*
X57112Y-43884D01*
X57050Y-43946D01*
X57050Y-44320D01*
X57542Y-44320D01*
X57604Y-44257D01*
X57604Y-44084D01*
X57604Y-44655D01*
X57604Y-44482D01*
X57542Y-44420D01*
X57050Y-44420D01*
X57050Y-44427D01*
X56950Y-44427D01*
X56950Y-44420D01*
X56950Y-44320D01*
X56950Y-43946D01*
X56887Y-43884D01*
X56695Y-43883D01*
X56595Y-43884D01*
X56559Y-43899D01*
X56559Y-43136D01*
X56471Y-42924D01*
X56310Y-42762D01*
X56098Y-42675D01*
X55870Y-42674D01*
X55658Y-42762D01*
X55496Y-42923D01*
X55409Y-43135D01*
X55408Y-43363D01*
X55496Y-43575D01*
X55657Y-43737D01*
X55869Y-43824D01*
X56097Y-43825D01*
X56309Y-43737D01*
X56471Y-43576D01*
X56558Y-43364D01*
X56559Y-43136D01*
X56559Y-43899D01*
X56503Y-43922D01*
X56433Y-43992D01*
X56395Y-44084D01*
X56395Y-44257D01*
X56458Y-44320D01*
X56950Y-44320D01*
X56950Y-44420D01*
X56458Y-44420D01*
X56395Y-44482D01*
X56395Y-44655D01*
X56409Y-44690D01*
X55590Y-44690D01*
X55604Y-44655D01*
X55604Y-44556D01*
X55604Y-44084D01*
X55566Y-43992D01*
X55496Y-43922D01*
X55404Y-43884D01*
X55304Y-43883D01*
X54595Y-43883D01*
X54595Y-43884D01*
X54595Y-43337D01*
X54585Y-43109D01*
X54517Y-42947D01*
X54420Y-42916D01*
X54349Y-42987D01*
X54349Y-42845D01*
X54318Y-42748D01*
X54103Y-42670D01*
X53875Y-42680D01*
X53713Y-42748D01*
X53682Y-42845D01*
X54016Y-43179D01*
X54349Y-42845D01*
X54349Y-42987D01*
X54086Y-43250D01*
X54420Y-43583D01*
X54517Y-43552D01*
X54595Y-43337D01*
X54595Y-43884D01*
X54504Y-43921D01*
X54433Y-43992D01*
X54395Y-44084D01*
X54395Y-44183D01*
X54395Y-44655D01*
X54433Y-44747D01*
X54503Y-44817D01*
X54595Y-44855D01*
X54695Y-44856D01*
X54711Y-44856D01*
X54713Y-44868D01*
X54780Y-44969D01*
X54955Y-45143D01*
X54595Y-45143D01*
X54504Y-45181D01*
X54433Y-45252D01*
X54395Y-45344D01*
X54395Y-45443D01*
X54395Y-45915D01*
X54433Y-46007D01*
X54503Y-46077D01*
X54595Y-46115D01*
X54690Y-46116D01*
X54690Y-46250D01*
X54713Y-46368D01*
X54780Y-46469D01*
X54811Y-46500D01*
X54780Y-46530D01*
X54371Y-46940D01*
X54349Y-46940D01*
X54349Y-43654D01*
X54016Y-43320D01*
X53945Y-43391D01*
X53945Y-43250D01*
X53611Y-42916D01*
X53514Y-42947D01*
X53436Y-43162D01*
X53446Y-43390D01*
X53514Y-43552D01*
X53611Y-43583D01*
X53945Y-43250D01*
X53945Y-43391D01*
X53682Y-43654D01*
X53713Y-43751D01*
X53928Y-43829D01*
X54156Y-43819D01*
X54318Y-43751D01*
X54349Y-43654D01*
X54349Y-46940D01*
X52228Y-46940D01*
X52274Y-46893D01*
X52312Y-46801D01*
X52312Y-46702D01*
X52312Y-45560D01*
X52286Y-45497D01*
X52309Y-45487D01*
X52471Y-45326D01*
X52558Y-45114D01*
X52559Y-44886D01*
X52471Y-44674D01*
X52310Y-44512D01*
X52286Y-44502D01*
X52312Y-44439D01*
X52312Y-44340D01*
X52312Y-44096D01*
X52400Y-44038D01*
X52719Y-43719D01*
X52719Y-43719D01*
X52719Y-43719D01*
X52786Y-43618D01*
X52786Y-43618D01*
X52810Y-43500D01*
X52810Y-42628D01*
X52878Y-42560D01*
X53750Y-42560D01*
X53868Y-42536D01*
X53930Y-42495D01*
X54224Y-42495D01*
X54316Y-42457D01*
X54386Y-42386D01*
X54424Y-42294D01*
X54425Y-42195D01*
X54425Y-41955D01*
X54387Y-41863D01*
X54316Y-41793D01*
X54224Y-41755D01*
X54125Y-41754D01*
X53775Y-41754D01*
X53683Y-41792D01*
X53613Y-41863D01*
X53581Y-41940D01*
X52750Y-41940D01*
X52631Y-41963D01*
X52591Y-41990D01*
X52530Y-42030D01*
X52530Y-42030D01*
X52500Y-42061D01*
X52469Y-42030D01*
X52368Y-41963D01*
X52250Y-41940D01*
X51800Y-41940D01*
X51800Y-41925D01*
X51762Y-41833D01*
X51691Y-41763D01*
X51660Y-41750D01*
X54000Y-41750D01*
X54024Y-41745D01*
X54224Y-41745D01*
X54316Y-41707D01*
X54386Y-41636D01*
X54424Y-41544D01*
X54425Y-41445D01*
X54425Y-41205D01*
X54387Y-41113D01*
X54316Y-41043D01*
X54224Y-41005D01*
X54125Y-41004D01*
X54024Y-41004D01*
X54000Y-41000D01*
X51660Y-41000D01*
X51691Y-40987D01*
X51761Y-40916D01*
X51799Y-40824D01*
X51799Y-40810D01*
X53000Y-40810D01*
X53118Y-40786D01*
X53219Y-40719D01*
X53250Y-40688D01*
X53280Y-40719D01*
X53280Y-40719D01*
X53341Y-40759D01*
X53381Y-40786D01*
X53381Y-40786D01*
X53500Y-40810D01*
X55121Y-40810D01*
X55190Y-40878D01*
X55190Y-41371D01*
X55181Y-41380D01*
X55125Y-41379D01*
X54775Y-41379D01*
X54683Y-41417D01*
X54613Y-41488D01*
X54575Y-41580D01*
X54574Y-41679D01*
X54574Y-41919D01*
X54612Y-42011D01*
X54683Y-42081D01*
X54775Y-42119D01*
X54874Y-42120D01*
X55224Y-42120D01*
X55316Y-42082D01*
X55360Y-42038D01*
X55368Y-42036D01*
X55469Y-41969D01*
X55719Y-41719D01*
X55719Y-41719D01*
X55719Y-41719D01*
X55759Y-41658D01*
X55786Y-41618D01*
X55786Y-41618D01*
X55810Y-41500D01*
X55810Y-40750D01*
X55786Y-40631D01*
X55786Y-40631D01*
X55759Y-40591D01*
X55719Y-40530D01*
X55719Y-40530D01*
X55469Y-40280D01*
X55368Y-40213D01*
X55250Y-40190D01*
X53628Y-40190D01*
X53560Y-40121D01*
X53560Y-38128D01*
X53628Y-38060D01*
X54120Y-38060D01*
X54409Y-38060D01*
X54395Y-38094D01*
X54395Y-38193D01*
X54395Y-38665D01*
X54433Y-38757D01*
X54503Y-38827D01*
X54595Y-38865D01*
X54695Y-38866D01*
X55404Y-38866D01*
X55495Y-38828D01*
X55566Y-38757D01*
X55604Y-38665D01*
X55604Y-38566D01*
X55604Y-38094D01*
X55566Y-38002D01*
X55496Y-37932D01*
X55404Y-37894D01*
X55304Y-37893D01*
X55288Y-37893D01*
X55286Y-37881D01*
X55286Y-37881D01*
X55259Y-37841D01*
X55219Y-37780D01*
X55219Y-37780D01*
X55044Y-37606D01*
X55404Y-37606D01*
X55495Y-37568D01*
X55566Y-37497D01*
X55594Y-37430D01*
X56405Y-37430D01*
X56416Y-37456D01*
X56381Y-37463D01*
X56341Y-37490D01*
X56280Y-37530D01*
X56280Y-37530D01*
X56030Y-37780D01*
X55963Y-37881D01*
X55940Y-38000D01*
X55940Y-41375D01*
X55963Y-41493D01*
X56030Y-41594D01*
X56574Y-42138D01*
X56574Y-42294D01*
X56612Y-42386D01*
X56683Y-42456D01*
X56775Y-42494D01*
X56874Y-42495D01*
X57224Y-42495D01*
X57316Y-42457D01*
X57386Y-42386D01*
X57424Y-42294D01*
X57425Y-42195D01*
X57425Y-41955D01*
X57387Y-41863D01*
X57316Y-41793D01*
X57224Y-41755D01*
X57125Y-41754D01*
X57068Y-41754D01*
X57058Y-41745D01*
X57224Y-41745D01*
X57316Y-41707D01*
X57386Y-41636D01*
X57391Y-41625D01*
X57575Y-41625D01*
X57574Y-41679D01*
X57574Y-41919D01*
X57612Y-42011D01*
X57683Y-42081D01*
X57690Y-42084D01*
X57690Y-46121D01*
G54D10*
G36*
X59375Y-40875D02*
X57604Y-40875D01*
X57604Y-38665D01*
X57604Y-38492D01*
X57542Y-38430D01*
X57050Y-38430D01*
X57050Y-38803D01*
X57112Y-38866D01*
X57304Y-38866D01*
X57404Y-38865D01*
X57496Y-38827D01*
X57566Y-38757D01*
X57604Y-38665D01*
X57604Y-40875D01*
X57125Y-40875D01*
X56981Y-40903D01*
X56859Y-40984D01*
X56839Y-41004D01*
X56775Y-41004D01*
X56683Y-41042D01*
X56613Y-41113D01*
X56575Y-41205D01*
X56574Y-41261D01*
X56560Y-41246D01*
X56560Y-38851D01*
X56595Y-38865D01*
X56695Y-38866D01*
X56887Y-38866D01*
X56950Y-38803D01*
X56950Y-38430D01*
X56942Y-38430D01*
X56942Y-38330D01*
X56950Y-38330D01*
X56950Y-38322D01*
X57050Y-38322D01*
X57050Y-38330D01*
X57542Y-38330D01*
X57604Y-38267D01*
X57604Y-38094D01*
X57583Y-38043D01*
X57618Y-38036D01*
X57719Y-37969D01*
X57969Y-37719D01*
X57969Y-37719D01*
X57969Y-37719D01*
X58009Y-37658D01*
X58036Y-37618D01*
X58036Y-37618D01*
X58060Y-37500D01*
X58060Y-36500D01*
X58036Y-36381D01*
X58036Y-36381D01*
X58009Y-36341D01*
X57969Y-36280D01*
X57969Y-36280D01*
X57719Y-36030D01*
X57618Y-35963D01*
X57500Y-35940D01*
X54500Y-35940D01*
X54381Y-35963D01*
X54280Y-36030D01*
X54280Y-36030D01*
X54052Y-36259D01*
X52312Y-36259D01*
X52312Y-35948D01*
X52274Y-35856D01*
X52204Y-35786D01*
X52112Y-35748D01*
X52012Y-35747D01*
X51461Y-35747D01*
X51370Y-35785D01*
X51299Y-35856D01*
X51261Y-35948D01*
X51261Y-36047D01*
X51261Y-37189D01*
X51299Y-37281D01*
X51369Y-37351D01*
X51461Y-37389D01*
X51477Y-37389D01*
X51477Y-37471D01*
X51409Y-37635D01*
X51408Y-37863D01*
X51477Y-38028D01*
X51477Y-38109D01*
X51461Y-38109D01*
X51370Y-38147D01*
X51299Y-38218D01*
X51261Y-38310D01*
X51261Y-38409D01*
X51261Y-39018D01*
X50839Y-39440D01*
X50750Y-39440D01*
X50749Y-39440D01*
X50738Y-39442D01*
X50738Y-38310D01*
X50700Y-38218D01*
X50630Y-38148D01*
X50588Y-38130D01*
X50588Y-37947D01*
X50588Y-37871D01*
X50590Y-37864D01*
X50591Y-37636D01*
X50588Y-37628D01*
X50588Y-37369D01*
X50629Y-37352D01*
X50700Y-37281D01*
X50738Y-37189D01*
X50738Y-37090D01*
X50738Y-36041D01*
X51405Y-35375D01*
X57000Y-35375D01*
X57500Y-35375D01*
X57643Y-35346D01*
X57765Y-35265D01*
X57999Y-35030D01*
X58625Y-35655D01*
X58625Y-36500D01*
X58653Y-36643D01*
X58734Y-36765D01*
X59375Y-37405D01*
X59375Y-40000D01*
X59375Y-40875D01*
X59375Y-40875D01*
G37*
G54D28*
X59375Y-40875D02*
X57604Y-40875D01*
X57604Y-38665D01*
X57604Y-38492D01*
X57542Y-38430D01*
X57050Y-38430D01*
X57050Y-38803D01*
X57112Y-38866D01*
X57304Y-38866D01*
X57404Y-38865D01*
X57496Y-38827D01*
X57566Y-38757D01*
X57604Y-38665D01*
X57604Y-40875D01*
X57125Y-40875D01*
X56981Y-40903D01*
X56859Y-40984D01*
X56839Y-41004D01*
X56775Y-41004D01*
X56683Y-41042D01*
X56613Y-41113D01*
X56575Y-41205D01*
X56574Y-41261D01*
X56560Y-41246D01*
X56560Y-38851D01*
X56595Y-38865D01*
X56695Y-38866D01*
X56887Y-38866D01*
X56950Y-38803D01*
X56950Y-38430D01*
X56942Y-38430D01*
X56942Y-38330D01*
X56950Y-38330D01*
X56950Y-38322D01*
X57050Y-38322D01*
X57050Y-38330D01*
X57542Y-38330D01*
X57604Y-38267D01*
X57604Y-38094D01*
X57583Y-38043D01*
X57618Y-38036D01*
X57719Y-37969D01*
X57969Y-37719D01*
X57969Y-37719D01*
X57969Y-37719D01*
X58009Y-37658D01*
X58036Y-37618D01*
X58036Y-37618D01*
X58060Y-37500D01*
X58060Y-36500D01*
X58036Y-36381D01*
X58036Y-36381D01*
X58009Y-36341D01*
X57969Y-36280D01*
X57969Y-36280D01*
X57719Y-36030D01*
X57618Y-35963D01*
X57500Y-35940D01*
X54500Y-35940D01*
X54381Y-35963D01*
X54280Y-36030D01*
X54280Y-36030D01*
X54052Y-36259D01*
X52312Y-36259D01*
X52312Y-35948D01*
X52274Y-35856D01*
X52204Y-35786D01*
X52112Y-35748D01*
X52012Y-35747D01*
X51461Y-35747D01*
X51370Y-35785D01*
X51299Y-35856D01*
X51261Y-35948D01*
X51261Y-36047D01*
X51261Y-37189D01*
X51299Y-37281D01*
X51369Y-37351D01*
X51461Y-37389D01*
X51477Y-37389D01*
X51477Y-37471D01*
X51409Y-37635D01*
X51408Y-37863D01*
X51477Y-38028D01*
X51477Y-38109D01*
X51461Y-38109D01*
X51370Y-38147D01*
X51299Y-38218D01*
X51261Y-38310D01*
X51261Y-38409D01*
X51261Y-39018D01*
X50839Y-39440D01*
X50750Y-39440D01*
X50749Y-39440D01*
X50738Y-39442D01*
X50738Y-38310D01*
X50700Y-38218D01*
X50630Y-38148D01*
X50588Y-38130D01*
X50588Y-37947D01*
X50588Y-37871D01*
X50590Y-37864D01*
X50591Y-37636D01*
X50588Y-37628D01*
X50588Y-37369D01*
X50629Y-37352D01*
X50700Y-37281D01*
X50738Y-37189D01*
X50738Y-37090D01*
X50738Y-36041D01*
X51405Y-35375D01*
X57000Y-35375D01*
X57500Y-35375D01*
X57643Y-35346D01*
X57765Y-35265D01*
X57999Y-35030D01*
X58625Y-35655D01*
X58625Y-36500D01*
X58653Y-36643D01*
X58734Y-36765D01*
X59375Y-37405D01*
X59375Y-40000D01*
X59375Y-40875D01*
G54D10*
G36*
X67925Y-46716D02*
X67867Y-47006D01*
X67723Y-47222D01*
X67563Y-47328D01*
X67563Y-41337D01*
X67553Y-41109D01*
X67485Y-40947D01*
X67388Y-40916D01*
X67317Y-40987D01*
X67054Y-41250D01*
X67388Y-41583D01*
X67485Y-41552D01*
X67563Y-41337D01*
X67563Y-47328D01*
X67505Y-47368D01*
X67317Y-47405D01*
X67317Y-41654D01*
X66984Y-41320D01*
X66978Y-41326D01*
X66913Y-41261D01*
X66907Y-41255D01*
X66913Y-41250D01*
X66907Y-41244D01*
X66978Y-41173D01*
X66984Y-41179D01*
X67317Y-40845D01*
X67287Y-40750D01*
X67312Y-40689D01*
X67312Y-39448D01*
X67274Y-39356D01*
X67204Y-39286D01*
X67112Y-39248D01*
X67012Y-39247D01*
X66899Y-39248D01*
X66837Y-39310D01*
X66837Y-40019D01*
X67250Y-40019D01*
X67312Y-39956D01*
X67312Y-39448D01*
X67312Y-40689D01*
X67312Y-40181D01*
X67250Y-40119D01*
X66837Y-40119D01*
X66837Y-40126D01*
X66737Y-40126D01*
X66737Y-40119D01*
X66737Y-40019D01*
X66737Y-39310D01*
X66674Y-39248D01*
X66561Y-39247D01*
X66461Y-39248D01*
X66369Y-39286D01*
X66299Y-39356D01*
X66261Y-39448D01*
X66261Y-39956D01*
X66324Y-40019D01*
X66737Y-40019D01*
X66737Y-40119D01*
X66324Y-40119D01*
X66261Y-40181D01*
X66261Y-40689D01*
X66299Y-40781D01*
X66369Y-40851D01*
X66461Y-40889D01*
X66553Y-40890D01*
X66579Y-40916D01*
X66482Y-40947D01*
X66404Y-41162D01*
X66414Y-41390D01*
X66482Y-41552D01*
X66579Y-41583D01*
X66553Y-41609D01*
X66461Y-41610D01*
X66369Y-41648D01*
X66299Y-41718D01*
X66261Y-41810D01*
X66261Y-42318D01*
X66324Y-42381D01*
X66737Y-42381D01*
X66737Y-42373D01*
X66837Y-42373D01*
X66837Y-42381D01*
X67250Y-42381D01*
X67312Y-42318D01*
X67312Y-41810D01*
X67287Y-41749D01*
X67317Y-41654D01*
X67317Y-47405D01*
X67312Y-47406D01*
X67312Y-43051D01*
X67312Y-42543D01*
X67250Y-42481D01*
X66837Y-42481D01*
X66837Y-43189D01*
X66899Y-43252D01*
X67012Y-43252D01*
X67112Y-43251D01*
X67204Y-43213D01*
X67274Y-43143D01*
X67312Y-43051D01*
X67312Y-47406D01*
X67218Y-47425D01*
X54763Y-47425D01*
X55219Y-46969D01*
X55378Y-46810D01*
X57750Y-46810D01*
X57868Y-46786D01*
X57969Y-46719D01*
X58219Y-46469D01*
X58219Y-46469D01*
X58219Y-46469D01*
X58259Y-46408D01*
X58286Y-46368D01*
X58286Y-46368D01*
X58310Y-46250D01*
X58310Y-42084D01*
X58316Y-42082D01*
X58386Y-42011D01*
X58424Y-41919D01*
X58425Y-41820D01*
X58425Y-41625D01*
X59375Y-41625D01*
X59375Y-44250D01*
X59403Y-44393D01*
X59484Y-44515D01*
X60734Y-45765D01*
X60856Y-45846D01*
X61000Y-45875D01*
X63213Y-45875D01*
X63247Y-45955D01*
X63317Y-46026D01*
X63409Y-46064D01*
X63509Y-46064D01*
X64886Y-46064D01*
X64977Y-46026D01*
X65048Y-45956D01*
X65086Y-45864D01*
X65086Y-45764D01*
X65086Y-45135D01*
X65048Y-45044D01*
X64978Y-44973D01*
X64886Y-44935D01*
X64786Y-44935D01*
X63409Y-44935D01*
X63318Y-44973D01*
X63247Y-45043D01*
X63213Y-45125D01*
X61155Y-45125D01*
X60125Y-44094D01*
X60125Y-41455D01*
X60174Y-41334D01*
X60175Y-41165D01*
X60125Y-41044D01*
X60125Y-40000D01*
X60125Y-37500D01*
X60311Y-37500D01*
X60280Y-37530D01*
X60213Y-37631D01*
X60190Y-37750D01*
X60190Y-42750D01*
X60213Y-42868D01*
X60280Y-42969D01*
X60530Y-43219D01*
X60530Y-43219D01*
X60591Y-43259D01*
X60631Y-43286D01*
X60631Y-43286D01*
X60750Y-43310D01*
X60883Y-43310D01*
X60883Y-43404D01*
X60921Y-43495D01*
X60992Y-43566D01*
X61084Y-43604D01*
X61183Y-43604D01*
X61655Y-43604D01*
X61747Y-43566D01*
X61817Y-43496D01*
X61855Y-43404D01*
X61856Y-43304D01*
X61856Y-43044D01*
X62030Y-43219D01*
X62030Y-43219D01*
X62091Y-43259D01*
X62131Y-43286D01*
X62131Y-43286D01*
X62143Y-43288D01*
X62143Y-43404D01*
X62181Y-43495D01*
X62252Y-43566D01*
X62344Y-43604D01*
X62443Y-43604D01*
X62915Y-43604D01*
X63007Y-43566D01*
X63077Y-43496D01*
X63115Y-43404D01*
X63116Y-43304D01*
X63116Y-42595D01*
X63116Y-41554D01*
X63116Y-40945D01*
X63115Y-40845D01*
X63077Y-40753D01*
X63007Y-40683D01*
X62915Y-40645D01*
X62742Y-40645D01*
X62680Y-40708D01*
X62680Y-41200D01*
X63053Y-41200D01*
X63116Y-41137D01*
X63116Y-40945D01*
X63116Y-41554D01*
X63116Y-41362D01*
X63053Y-41300D01*
X62680Y-41300D01*
X62680Y-41792D01*
X62742Y-41854D01*
X62915Y-41854D01*
X63007Y-41816D01*
X63077Y-41746D01*
X63115Y-41654D01*
X63116Y-41554D01*
X63116Y-42595D01*
X63078Y-42504D01*
X63007Y-42433D01*
X62915Y-42395D01*
X62816Y-42395D01*
X62344Y-42395D01*
X62310Y-42409D01*
X62310Y-41840D01*
X62344Y-41854D01*
X62517Y-41854D01*
X62580Y-41792D01*
X62580Y-41300D01*
X62572Y-41300D01*
X62572Y-41200D01*
X62580Y-41200D01*
X62580Y-40708D01*
X62517Y-40645D01*
X62344Y-40645D01*
X62252Y-40683D01*
X62182Y-40753D01*
X62144Y-40845D01*
X62143Y-40945D01*
X62144Y-41137D01*
X62206Y-41199D01*
X62144Y-41199D01*
X62144Y-41205D01*
X61969Y-41030D01*
X61868Y-40963D01*
X61856Y-40961D01*
X61856Y-40845D01*
X61818Y-40754D01*
X61747Y-40683D01*
X61655Y-40645D01*
X61556Y-40645D01*
X61084Y-40645D01*
X60992Y-40683D01*
X60922Y-40753D01*
X60884Y-40845D01*
X60883Y-40945D01*
X60883Y-41654D01*
X60921Y-41745D01*
X60992Y-41816D01*
X61084Y-41854D01*
X61183Y-41854D01*
X61655Y-41854D01*
X61690Y-41840D01*
X61690Y-42409D01*
X61655Y-42395D01*
X61556Y-42395D01*
X61084Y-42395D01*
X60992Y-42433D01*
X60922Y-42503D01*
X60884Y-42595D01*
X60883Y-42690D01*
X60878Y-42690D01*
X60810Y-42621D01*
X60810Y-37878D01*
X60878Y-37810D01*
X65074Y-37810D01*
X65074Y-38044D01*
X65112Y-38136D01*
X65144Y-38167D01*
X64780Y-38530D01*
X64371Y-38940D01*
X63116Y-38940D01*
X63116Y-38845D01*
X63078Y-38754D01*
X63007Y-38683D01*
X62915Y-38645D01*
X62816Y-38645D01*
X62344Y-38645D01*
X62252Y-38683D01*
X62182Y-38753D01*
X62144Y-38845D01*
X62143Y-38945D01*
X62143Y-39654D01*
X62181Y-39745D01*
X62194Y-39759D01*
X61805Y-39759D01*
X61817Y-39746D01*
X61855Y-39654D01*
X61856Y-39554D01*
X61856Y-38845D01*
X61818Y-38754D01*
X61747Y-38683D01*
X61655Y-38645D01*
X61556Y-38645D01*
X61084Y-38645D01*
X60992Y-38683D01*
X60922Y-38753D01*
X60884Y-38845D01*
X60883Y-38945D01*
X60883Y-39654D01*
X60921Y-39745D01*
X60992Y-39816D01*
X61060Y-39844D01*
X61060Y-39870D01*
X61083Y-39988D01*
X61150Y-40089D01*
X61349Y-40288D01*
X61450Y-40355D01*
X61569Y-40379D01*
X64687Y-40379D01*
X64687Y-40689D01*
X64713Y-40752D01*
X64690Y-40762D01*
X64528Y-40923D01*
X64441Y-41135D01*
X64440Y-41363D01*
X64528Y-41575D01*
X64689Y-41737D01*
X64713Y-41747D01*
X64687Y-41810D01*
X64687Y-41909D01*
X64687Y-43051D01*
X64725Y-43143D01*
X64795Y-43213D01*
X64887Y-43251D01*
X64987Y-43252D01*
X65538Y-43252D01*
X65629Y-43214D01*
X65690Y-43154D01*
X65690Y-44750D01*
X65713Y-44868D01*
X65758Y-44935D01*
X65613Y-44935D01*
X65522Y-44973D01*
X65451Y-45043D01*
X65413Y-45135D01*
X65413Y-45235D01*
X65413Y-45864D01*
X65451Y-45955D01*
X65521Y-46026D01*
X65613Y-46064D01*
X65713Y-46064D01*
X67090Y-46064D01*
X67181Y-46026D01*
X67252Y-45956D01*
X67290Y-45864D01*
X67290Y-45764D01*
X67290Y-45135D01*
X67252Y-45044D01*
X67182Y-44973D01*
X67090Y-44935D01*
X66990Y-44935D01*
X66606Y-44935D01*
X66571Y-44882D01*
X66310Y-44621D01*
X66310Y-43154D01*
X66369Y-43213D01*
X66461Y-43251D01*
X66561Y-43252D01*
X66674Y-43252D01*
X66737Y-43189D01*
X66737Y-42481D01*
X66324Y-42481D01*
X66261Y-42543D01*
X66261Y-42594D01*
X66219Y-42530D01*
X66219Y-42530D01*
X65900Y-42211D01*
X65799Y-42144D01*
X65738Y-42132D01*
X65738Y-41810D01*
X65700Y-41718D01*
X65630Y-41648D01*
X65538Y-41610D01*
X65523Y-41610D01*
X65523Y-41528D01*
X65590Y-41364D01*
X65591Y-41136D01*
X65523Y-40971D01*
X65523Y-40890D01*
X65538Y-40890D01*
X65629Y-40852D01*
X65700Y-40781D01*
X65738Y-40689D01*
X65738Y-40590D01*
X65738Y-39448D01*
X65700Y-39356D01*
X65630Y-39286D01*
X65538Y-39248D01*
X65438Y-39247D01*
X64940Y-39247D01*
X65219Y-38969D01*
X65719Y-38469D01*
X65786Y-38368D01*
X65810Y-38250D01*
X65810Y-38209D01*
X65816Y-38207D01*
X65886Y-38136D01*
X65924Y-38044D01*
X65925Y-37945D01*
X65925Y-37810D01*
X66161Y-37810D01*
X66183Y-37831D01*
X66275Y-37869D01*
X66374Y-37870D01*
X66724Y-37870D01*
X66816Y-37832D01*
X66886Y-37761D01*
X66924Y-37669D01*
X66925Y-37570D01*
X66925Y-37330D01*
X66887Y-37238D01*
X66816Y-37168D01*
X66724Y-37130D01*
X66625Y-37129D01*
X66275Y-37129D01*
X66183Y-37167D01*
X66161Y-37190D01*
X65925Y-37190D01*
X65925Y-36955D01*
X65887Y-36863D01*
X65816Y-36793D01*
X65724Y-36755D01*
X65625Y-36754D01*
X65524Y-36754D01*
X65500Y-36750D01*
X60914Y-36750D01*
X60914Y-32176D01*
X60914Y-31192D01*
X60914Y-30011D01*
X60914Y-29027D01*
X60876Y-28935D01*
X60806Y-28865D01*
X60714Y-28827D01*
X60614Y-28826D01*
X59827Y-28826D01*
X59736Y-28864D01*
X59665Y-28935D01*
X59627Y-29027D01*
X59627Y-29126D01*
X59627Y-30110D01*
X59665Y-30202D01*
X59735Y-30272D01*
X59827Y-30310D01*
X59927Y-30311D01*
X60714Y-30311D01*
X60805Y-30273D01*
X60876Y-30202D01*
X60914Y-30110D01*
X60914Y-30011D01*
X60914Y-31192D01*
X60876Y-31100D01*
X60806Y-31030D01*
X60714Y-30992D01*
X60614Y-30991D01*
X59827Y-30991D01*
X59736Y-31029D01*
X59665Y-31100D01*
X59627Y-31192D01*
X59627Y-31291D01*
X59627Y-32275D01*
X59665Y-32367D01*
X59735Y-32437D01*
X59827Y-32475D01*
X59927Y-32476D01*
X60714Y-32476D01*
X60805Y-32438D01*
X60876Y-32367D01*
X60914Y-32275D01*
X60914Y-32176D01*
X60914Y-36750D01*
X59875Y-36750D01*
X59796Y-36765D01*
X59796Y-36765D01*
X59477Y-36446D01*
X59477Y-32323D01*
X59477Y-31886D01*
X59414Y-31824D01*
X59178Y-31824D01*
X59178Y-32461D01*
X59240Y-32523D01*
X59276Y-32523D01*
X59368Y-32485D01*
X59439Y-32415D01*
X59477Y-32323D01*
X59477Y-36446D01*
X59375Y-36344D01*
X59375Y-35500D01*
X59346Y-35356D01*
X59265Y-35234D01*
X59265Y-35234D01*
X58375Y-34344D01*
X58375Y-34000D01*
X58375Y-33250D01*
X58346Y-33106D01*
X58265Y-32984D01*
X58265Y-32984D01*
X58125Y-32844D01*
X58125Y-32471D01*
X58180Y-32415D01*
X58185Y-32404D01*
X58189Y-32415D01*
X58260Y-32485D01*
X58352Y-32523D01*
X58451Y-32524D01*
X58647Y-32524D01*
X58656Y-32520D01*
X58666Y-32523D01*
X58765Y-32524D01*
X58961Y-32524D01*
X58971Y-32519D01*
X58981Y-32523D01*
X59017Y-32523D01*
X59080Y-32461D01*
X59080Y-32459D01*
X59123Y-32415D01*
X59161Y-32323D01*
X59162Y-32224D01*
X59162Y-31716D01*
X59178Y-31716D01*
X59178Y-31724D01*
X59414Y-31724D01*
X59477Y-31661D01*
X59477Y-31224D01*
X59439Y-31133D01*
X59443Y-31131D01*
X59570Y-31005D01*
X59638Y-30839D01*
X59639Y-30660D01*
X59570Y-30495D01*
X59444Y-30368D01*
X59278Y-30300D01*
X59099Y-30299D01*
X58934Y-30368D01*
X58807Y-30494D01*
X58739Y-30660D01*
X58738Y-30839D01*
X58807Y-31004D01*
X58826Y-31023D01*
X58666Y-31023D01*
X58657Y-31027D01*
X58647Y-31024D01*
X58548Y-31023D01*
X58352Y-31023D01*
X58260Y-31061D01*
X58222Y-31099D01*
X58221Y-31099D01*
X58148Y-31099D01*
X58122Y-31074D01*
X58192Y-31005D01*
X58260Y-30839D01*
X58261Y-30660D01*
X58192Y-30495D01*
X58066Y-30368D01*
X57900Y-30300D01*
X57721Y-30299D01*
X57556Y-30368D01*
X57429Y-30494D01*
X57372Y-30632D01*
X57372Y-30011D01*
X57372Y-29027D01*
X57334Y-28935D01*
X57264Y-28865D01*
X57172Y-28827D01*
X57072Y-28826D01*
X56285Y-28826D01*
X56194Y-28864D01*
X56123Y-28935D01*
X56085Y-29027D01*
X56085Y-29126D01*
X56085Y-29131D01*
X56016Y-29063D01*
X55924Y-29025D01*
X55825Y-29024D01*
X55712Y-29025D01*
X55650Y-29087D01*
X55650Y-29500D01*
X55657Y-29500D01*
X55657Y-29600D01*
X55650Y-29600D01*
X55650Y-29607D01*
X55550Y-29607D01*
X55550Y-29600D01*
X55550Y-29500D01*
X55550Y-29087D01*
X55487Y-29025D01*
X55374Y-29024D01*
X55275Y-29025D01*
X55183Y-29063D01*
X55112Y-29133D01*
X55074Y-29225D01*
X55075Y-29437D01*
X55137Y-29500D01*
X55550Y-29500D01*
X55550Y-29600D01*
X55137Y-29600D01*
X55075Y-29662D01*
X55074Y-29874D01*
X55112Y-29966D01*
X55183Y-30036D01*
X55275Y-30074D01*
X55374Y-30075D01*
X55374Y-30075D01*
X55303Y-30104D01*
X55155Y-30252D01*
X55075Y-30445D01*
X55074Y-30653D01*
X55154Y-30847D01*
X55302Y-30994D01*
X55495Y-31074D01*
X55703Y-31075D01*
X55897Y-30995D01*
X56044Y-30847D01*
X56124Y-30654D01*
X56125Y-30446D01*
X56045Y-30253D01*
X55897Y-30105D01*
X55825Y-30075D01*
X55825Y-30075D01*
X55924Y-30074D01*
X56016Y-30036D01*
X56085Y-29968D01*
X56085Y-30110D01*
X56123Y-30202D01*
X56193Y-30272D01*
X56285Y-30310D01*
X56385Y-30311D01*
X57172Y-30311D01*
X57263Y-30273D01*
X57334Y-30202D01*
X57372Y-30110D01*
X57372Y-30011D01*
X57372Y-30632D01*
X57361Y-30660D01*
X57360Y-30839D01*
X57429Y-31004D01*
X57555Y-31131D01*
X57560Y-31133D01*
X57523Y-31224D01*
X57522Y-31323D01*
X57522Y-31591D01*
X57484Y-31629D01*
X57411Y-31739D01*
X57411Y-31192D01*
X57373Y-31100D01*
X57303Y-31030D01*
X57211Y-30992D01*
X57111Y-30991D01*
X56324Y-30991D01*
X56233Y-31029D01*
X56162Y-31100D01*
X56124Y-31192D01*
X56124Y-31291D01*
X56124Y-32275D01*
X56162Y-32367D01*
X56232Y-32437D01*
X56324Y-32475D01*
X56424Y-32476D01*
X57211Y-32476D01*
X57302Y-32438D01*
X57373Y-32367D01*
X57375Y-32363D01*
X57375Y-33000D01*
X57403Y-33143D01*
X57484Y-33265D01*
X57625Y-33405D01*
X57625Y-34000D01*
X57625Y-34344D01*
X57344Y-34625D01*
X57000Y-34625D01*
X51250Y-34625D01*
X51106Y-34653D01*
X50984Y-34734D01*
X49971Y-35747D01*
X49887Y-35747D01*
X49796Y-35785D01*
X49725Y-35856D01*
X49687Y-35948D01*
X49687Y-36047D01*
X49687Y-37189D01*
X49713Y-37252D01*
X49690Y-37262D01*
X49528Y-37423D01*
X49441Y-37635D01*
X49440Y-37863D01*
X49528Y-38075D01*
X49689Y-38237D01*
X49713Y-38247D01*
X49687Y-38310D01*
X49687Y-38409D01*
X49687Y-38926D01*
X49484Y-39128D01*
X49403Y-39250D01*
X49375Y-39394D01*
X49375Y-41050D01*
X49375Y-41250D01*
X49375Y-41400D01*
X49375Y-41700D01*
X49375Y-43000D01*
X49403Y-43143D01*
X49484Y-43265D01*
X49687Y-43467D01*
X49687Y-44439D01*
X49713Y-44502D01*
X49690Y-44512D01*
X49528Y-44673D01*
X49441Y-44885D01*
X49440Y-45113D01*
X49528Y-45325D01*
X49689Y-45487D01*
X49713Y-45497D01*
X49687Y-45560D01*
X49687Y-45659D01*
X49687Y-46801D01*
X49725Y-46893D01*
X49795Y-46963D01*
X49887Y-47001D01*
X49987Y-47002D01*
X50538Y-47002D01*
X50629Y-46964D01*
X50700Y-46893D01*
X50701Y-46890D01*
X50730Y-46919D01*
X51236Y-47425D01*
X50034Y-47425D01*
X49647Y-47348D01*
X49351Y-47150D01*
X49150Y-46850D01*
X49075Y-46468D01*
X49075Y-29281D01*
X49131Y-28994D01*
X49277Y-28776D01*
X49493Y-28632D01*
X49783Y-28575D01*
X67218Y-28575D01*
X67505Y-28631D01*
X67723Y-28777D01*
X67867Y-28993D01*
X67925Y-29283D01*
X67925Y-32415D01*
X67860Y-32259D01*
X67741Y-32139D01*
X67584Y-32075D01*
X67415Y-32074D01*
X67294Y-32125D01*
X65255Y-32125D01*
X65134Y-32075D01*
X64965Y-32074D01*
X64809Y-32139D01*
X64689Y-32258D01*
X64625Y-32415D01*
X64624Y-32584D01*
X64689Y-32740D01*
X64808Y-32860D01*
X64965Y-32924D01*
X65134Y-32925D01*
X65255Y-32875D01*
X67294Y-32875D01*
X67415Y-32924D01*
X67584Y-32925D01*
X67740Y-32860D01*
X67860Y-32741D01*
X67924Y-32584D01*
X67925Y-32500D01*
X67925Y-46716D01*
X67925Y-46716D01*
G37*
G54D28*
X67925Y-46716D02*
X67867Y-47006D01*
X67723Y-47222D01*
X67563Y-47328D01*
X67563Y-41337D01*
X67553Y-41109D01*
X67485Y-40947D01*
X67388Y-40916D01*
X67317Y-40987D01*
X67054Y-41250D01*
X67388Y-41583D01*
X67485Y-41552D01*
X67563Y-41337D01*
X67563Y-47328D01*
X67505Y-47368D01*
X67317Y-47405D01*
X67317Y-41654D01*
X66984Y-41320D01*
X66978Y-41326D01*
X66913Y-41261D01*
X66907Y-41255D01*
X66913Y-41250D01*
X66907Y-41244D01*
X66978Y-41173D01*
X66984Y-41179D01*
X67317Y-40845D01*
X67287Y-40750D01*
X67312Y-40689D01*
X67312Y-39448D01*
X67274Y-39356D01*
X67204Y-39286D01*
X67112Y-39248D01*
X67012Y-39247D01*
X66899Y-39248D01*
X66837Y-39310D01*
X66837Y-40019D01*
X67250Y-40019D01*
X67312Y-39956D01*
X67312Y-39448D01*
X67312Y-40689D01*
X67312Y-40181D01*
X67250Y-40119D01*
X66837Y-40119D01*
X66837Y-40126D01*
X66737Y-40126D01*
X66737Y-40119D01*
X66737Y-40019D01*
X66737Y-39310D01*
X66674Y-39248D01*
X66561Y-39247D01*
X66461Y-39248D01*
X66369Y-39286D01*
X66299Y-39356D01*
X66261Y-39448D01*
X66261Y-39956D01*
X66324Y-40019D01*
X66737Y-40019D01*
X66737Y-40119D01*
X66324Y-40119D01*
X66261Y-40181D01*
X66261Y-40689D01*
X66299Y-40781D01*
X66369Y-40851D01*
X66461Y-40889D01*
X66553Y-40890D01*
X66579Y-40916D01*
X66482Y-40947D01*
X66404Y-41162D01*
X66414Y-41390D01*
X66482Y-41552D01*
X66579Y-41583D01*
X66553Y-41609D01*
X66461Y-41610D01*
X66369Y-41648D01*
X66299Y-41718D01*
X66261Y-41810D01*
X66261Y-42318D01*
X66324Y-42381D01*
X66737Y-42381D01*
X66737Y-42373D01*
X66837Y-42373D01*
X66837Y-42381D01*
X67250Y-42381D01*
X67312Y-42318D01*
X67312Y-41810D01*
X67287Y-41749D01*
X67317Y-41654D01*
X67317Y-47405D01*
X67312Y-47406D01*
X67312Y-43051D01*
X67312Y-42543D01*
X67250Y-42481D01*
X66837Y-42481D01*
X66837Y-43189D01*
X66899Y-43252D01*
X67012Y-43252D01*
X67112Y-43251D01*
X67204Y-43213D01*
X67274Y-43143D01*
X67312Y-43051D01*
X67312Y-47406D01*
X67218Y-47425D01*
X54763Y-47425D01*
X55219Y-46969D01*
X55378Y-46810D01*
X57750Y-46810D01*
X57868Y-46786D01*
X57969Y-46719D01*
X58219Y-46469D01*
X58219Y-46469D01*
X58219Y-46469D01*
X58259Y-46408D01*
X58286Y-46368D01*
X58286Y-46368D01*
X58310Y-46250D01*
X58310Y-42084D01*
X58316Y-42082D01*
X58386Y-42011D01*
X58424Y-41919D01*
X58425Y-41820D01*
X58425Y-41625D01*
X59375Y-41625D01*
X59375Y-44250D01*
X59403Y-44393D01*
X59484Y-44515D01*
X60734Y-45765D01*
X60856Y-45846D01*
X61000Y-45875D01*
X63213Y-45875D01*
X63247Y-45955D01*
X63317Y-46026D01*
X63409Y-46064D01*
X63509Y-46064D01*
X64886Y-46064D01*
X64977Y-46026D01*
X65048Y-45956D01*
X65086Y-45864D01*
X65086Y-45764D01*
X65086Y-45135D01*
X65048Y-45044D01*
X64978Y-44973D01*
X64886Y-44935D01*
X64786Y-44935D01*
X63409Y-44935D01*
X63318Y-44973D01*
X63247Y-45043D01*
X63213Y-45125D01*
X61155Y-45125D01*
X60125Y-44094D01*
X60125Y-41455D01*
X60174Y-41334D01*
X60175Y-41165D01*
X60125Y-41044D01*
X60125Y-40000D01*
X60125Y-37500D01*
X60311Y-37500D01*
X60280Y-37530D01*
X60213Y-37631D01*
X60190Y-37750D01*
X60190Y-42750D01*
X60213Y-42868D01*
X60280Y-42969D01*
X60530Y-43219D01*
X60530Y-43219D01*
X60591Y-43259D01*
X60631Y-43286D01*
X60631Y-43286D01*
X60750Y-43310D01*
X60883Y-43310D01*
X60883Y-43404D01*
X60921Y-43495D01*
X60992Y-43566D01*
X61084Y-43604D01*
X61183Y-43604D01*
X61655Y-43604D01*
X61747Y-43566D01*
X61817Y-43496D01*
X61855Y-43404D01*
X61856Y-43304D01*
X61856Y-43044D01*
X62030Y-43219D01*
X62030Y-43219D01*
X62091Y-43259D01*
X62131Y-43286D01*
X62131Y-43286D01*
X62143Y-43288D01*
X62143Y-43404D01*
X62181Y-43495D01*
X62252Y-43566D01*
X62344Y-43604D01*
X62443Y-43604D01*
X62915Y-43604D01*
X63007Y-43566D01*
X63077Y-43496D01*
X63115Y-43404D01*
X63116Y-43304D01*
X63116Y-42595D01*
X63116Y-41554D01*
X63116Y-40945D01*
X63115Y-40845D01*
X63077Y-40753D01*
X63007Y-40683D01*
X62915Y-40645D01*
X62742Y-40645D01*
X62680Y-40708D01*
X62680Y-41200D01*
X63053Y-41200D01*
X63116Y-41137D01*
X63116Y-40945D01*
X63116Y-41554D01*
X63116Y-41362D01*
X63053Y-41300D01*
X62680Y-41300D01*
X62680Y-41792D01*
X62742Y-41854D01*
X62915Y-41854D01*
X63007Y-41816D01*
X63077Y-41746D01*
X63115Y-41654D01*
X63116Y-41554D01*
X63116Y-42595D01*
X63078Y-42504D01*
X63007Y-42433D01*
X62915Y-42395D01*
X62816Y-42395D01*
X62344Y-42395D01*
X62310Y-42409D01*
X62310Y-41840D01*
X62344Y-41854D01*
X62517Y-41854D01*
X62580Y-41792D01*
X62580Y-41300D01*
X62572Y-41300D01*
X62572Y-41200D01*
X62580Y-41200D01*
X62580Y-40708D01*
X62517Y-40645D01*
X62344Y-40645D01*
X62252Y-40683D01*
X62182Y-40753D01*
X62144Y-40845D01*
X62143Y-40945D01*
X62144Y-41137D01*
X62206Y-41199D01*
X62144Y-41199D01*
X62144Y-41205D01*
X61969Y-41030D01*
X61868Y-40963D01*
X61856Y-40961D01*
X61856Y-40845D01*
X61818Y-40754D01*
X61747Y-40683D01*
X61655Y-40645D01*
X61556Y-40645D01*
X61084Y-40645D01*
X60992Y-40683D01*
X60922Y-40753D01*
X60884Y-40845D01*
X60883Y-40945D01*
X60883Y-41654D01*
X60921Y-41745D01*
X60992Y-41816D01*
X61084Y-41854D01*
X61183Y-41854D01*
X61655Y-41854D01*
X61690Y-41840D01*
X61690Y-42409D01*
X61655Y-42395D01*
X61556Y-42395D01*
X61084Y-42395D01*
X60992Y-42433D01*
X60922Y-42503D01*
X60884Y-42595D01*
X60883Y-42690D01*
X60878Y-42690D01*
X60810Y-42621D01*
X60810Y-37878D01*
X60878Y-37810D01*
X65074Y-37810D01*
X65074Y-38044D01*
X65112Y-38136D01*
X65144Y-38167D01*
X64780Y-38530D01*
X64371Y-38940D01*
X63116Y-38940D01*
X63116Y-38845D01*
X63078Y-38754D01*
X63007Y-38683D01*
X62915Y-38645D01*
X62816Y-38645D01*
X62344Y-38645D01*
X62252Y-38683D01*
X62182Y-38753D01*
X62144Y-38845D01*
X62143Y-38945D01*
X62143Y-39654D01*
X62181Y-39745D01*
X62194Y-39759D01*
X61805Y-39759D01*
X61817Y-39746D01*
X61855Y-39654D01*
X61856Y-39554D01*
X61856Y-38845D01*
X61818Y-38754D01*
X61747Y-38683D01*
X61655Y-38645D01*
X61556Y-38645D01*
X61084Y-38645D01*
X60992Y-38683D01*
X60922Y-38753D01*
X60884Y-38845D01*
X60883Y-38945D01*
X60883Y-39654D01*
X60921Y-39745D01*
X60992Y-39816D01*
X61060Y-39844D01*
X61060Y-39870D01*
X61083Y-39988D01*
X61150Y-40089D01*
X61349Y-40288D01*
X61450Y-40355D01*
X61569Y-40379D01*
X64687Y-40379D01*
X64687Y-40689D01*
X64713Y-40752D01*
X64690Y-40762D01*
X64528Y-40923D01*
X64441Y-41135D01*
X64440Y-41363D01*
X64528Y-41575D01*
X64689Y-41737D01*
X64713Y-41747D01*
X64687Y-41810D01*
X64687Y-41909D01*
X64687Y-43051D01*
X64725Y-43143D01*
X64795Y-43213D01*
X64887Y-43251D01*
X64987Y-43252D01*
X65538Y-43252D01*
X65629Y-43214D01*
X65690Y-43154D01*
X65690Y-44750D01*
X65713Y-44868D01*
X65758Y-44935D01*
X65613Y-44935D01*
X65522Y-44973D01*
X65451Y-45043D01*
X65413Y-45135D01*
X65413Y-45235D01*
X65413Y-45864D01*
X65451Y-45955D01*
X65521Y-46026D01*
X65613Y-46064D01*
X65713Y-46064D01*
X67090Y-46064D01*
X67181Y-46026D01*
X67252Y-45956D01*
X67290Y-45864D01*
X67290Y-45764D01*
X67290Y-45135D01*
X67252Y-45044D01*
X67182Y-44973D01*
X67090Y-44935D01*
X66990Y-44935D01*
X66606Y-44935D01*
X66571Y-44882D01*
X66310Y-44621D01*
X66310Y-43154D01*
X66369Y-43213D01*
X66461Y-43251D01*
X66561Y-43252D01*
X66674Y-43252D01*
X66737Y-43189D01*
X66737Y-42481D01*
X66324Y-42481D01*
X66261Y-42543D01*
X66261Y-42594D01*
X66219Y-42530D01*
X66219Y-42530D01*
X65900Y-42211D01*
X65799Y-42144D01*
X65738Y-42132D01*
X65738Y-41810D01*
X65700Y-41718D01*
X65630Y-41648D01*
X65538Y-41610D01*
X65523Y-41610D01*
X65523Y-41528D01*
X65590Y-41364D01*
X65591Y-41136D01*
X65523Y-40971D01*
X65523Y-40890D01*
X65538Y-40890D01*
X65629Y-40852D01*
X65700Y-40781D01*
X65738Y-40689D01*
X65738Y-40590D01*
X65738Y-39448D01*
X65700Y-39356D01*
X65630Y-39286D01*
X65538Y-39248D01*
X65438Y-39247D01*
X64940Y-39247D01*
X65219Y-38969D01*
X65719Y-38469D01*
X65786Y-38368D01*
X65810Y-38250D01*
X65810Y-38209D01*
X65816Y-38207D01*
X65886Y-38136D01*
X65924Y-38044D01*
X65925Y-37945D01*
X65925Y-37810D01*
X66161Y-37810D01*
X66183Y-37831D01*
X66275Y-37869D01*
X66374Y-37870D01*
X66724Y-37870D01*
X66816Y-37832D01*
X66886Y-37761D01*
X66924Y-37669D01*
X66925Y-37570D01*
X66925Y-37330D01*
X66887Y-37238D01*
X66816Y-37168D01*
X66724Y-37130D01*
X66625Y-37129D01*
X66275Y-37129D01*
X66183Y-37167D01*
X66161Y-37190D01*
X65925Y-37190D01*
X65925Y-36955D01*
X65887Y-36863D01*
X65816Y-36793D01*
X65724Y-36755D01*
X65625Y-36754D01*
X65524Y-36754D01*
X65500Y-36750D01*
X60914Y-36750D01*
X60914Y-32176D01*
X60914Y-31192D01*
X60914Y-30011D01*
X60914Y-29027D01*
X60876Y-28935D01*
X60806Y-28865D01*
X60714Y-28827D01*
X60614Y-28826D01*
X59827Y-28826D01*
X59736Y-28864D01*
X59665Y-28935D01*
X59627Y-29027D01*
X59627Y-29126D01*
X59627Y-30110D01*
X59665Y-30202D01*
X59735Y-30272D01*
X59827Y-30310D01*
X59927Y-30311D01*
X60714Y-30311D01*
X60805Y-30273D01*
X60876Y-30202D01*
X60914Y-30110D01*
X60914Y-30011D01*
X60914Y-31192D01*
X60876Y-31100D01*
X60806Y-31030D01*
X60714Y-30992D01*
X60614Y-30991D01*
X59827Y-30991D01*
X59736Y-31029D01*
X59665Y-31100D01*
X59627Y-31192D01*
X59627Y-31291D01*
X59627Y-32275D01*
X59665Y-32367D01*
X59735Y-32437D01*
X59827Y-32475D01*
X59927Y-32476D01*
X60714Y-32476D01*
X60805Y-32438D01*
X60876Y-32367D01*
X60914Y-32275D01*
X60914Y-32176D01*
X60914Y-36750D01*
X59875Y-36750D01*
X59796Y-36765D01*
X59796Y-36765D01*
X59477Y-36446D01*
X59477Y-32323D01*
X59477Y-31886D01*
X59414Y-31824D01*
X59178Y-31824D01*
X59178Y-32461D01*
X59240Y-32523D01*
X59276Y-32523D01*
X59368Y-32485D01*
X59439Y-32415D01*
X59477Y-32323D01*
X59477Y-36446D01*
X59375Y-36344D01*
X59375Y-35500D01*
X59346Y-35356D01*
X59265Y-35234D01*
X59265Y-35234D01*
X58375Y-34344D01*
X58375Y-34000D01*
X58375Y-33250D01*
X58346Y-33106D01*
X58265Y-32984D01*
X58265Y-32984D01*
X58125Y-32844D01*
X58125Y-32471D01*
X58180Y-32415D01*
X58185Y-32404D01*
X58189Y-32415D01*
X58260Y-32485D01*
X58352Y-32523D01*
X58451Y-32524D01*
X58647Y-32524D01*
X58656Y-32520D01*
X58666Y-32523D01*
X58765Y-32524D01*
X58961Y-32524D01*
X58971Y-32519D01*
X58981Y-32523D01*
X59017Y-32523D01*
X59080Y-32461D01*
X59080Y-32459D01*
X59123Y-32415D01*
X59161Y-32323D01*
X59162Y-32224D01*
X59162Y-31716D01*
X59178Y-31716D01*
X59178Y-31724D01*
X59414Y-31724D01*
X59477Y-31661D01*
X59477Y-31224D01*
X59439Y-31133D01*
X59443Y-31131D01*
X59570Y-31005D01*
X59638Y-30839D01*
X59639Y-30660D01*
X59570Y-30495D01*
X59444Y-30368D01*
X59278Y-30300D01*
X59099Y-30299D01*
X58934Y-30368D01*
X58807Y-30494D01*
X58739Y-30660D01*
X58738Y-30839D01*
X58807Y-31004D01*
X58826Y-31023D01*
X58666Y-31023D01*
X58657Y-31027D01*
X58647Y-31024D01*
X58548Y-31023D01*
X58352Y-31023D01*
X58260Y-31061D01*
X58222Y-31099D01*
X58221Y-31099D01*
X58148Y-31099D01*
X58122Y-31074D01*
X58192Y-31005D01*
X58260Y-30839D01*
X58261Y-30660D01*
X58192Y-30495D01*
X58066Y-30368D01*
X57900Y-30300D01*
X57721Y-30299D01*
X57556Y-30368D01*
X57429Y-30494D01*
X57372Y-30632D01*
X57372Y-30011D01*
X57372Y-29027D01*
X57334Y-28935D01*
X57264Y-28865D01*
X57172Y-28827D01*
X57072Y-28826D01*
X56285Y-28826D01*
X56194Y-28864D01*
X56123Y-28935D01*
X56085Y-29027D01*
X56085Y-29126D01*
X56085Y-29131D01*
X56016Y-29063D01*
X55924Y-29025D01*
X55825Y-29024D01*
X55712Y-29025D01*
X55650Y-29087D01*
X55650Y-29500D01*
X55657Y-29500D01*
X55657Y-29600D01*
X55650Y-29600D01*
X55650Y-29607D01*
X55550Y-29607D01*
X55550Y-29600D01*
X55550Y-29500D01*
X55550Y-29087D01*
X55487Y-29025D01*
X55374Y-29024D01*
X55275Y-29025D01*
X55183Y-29063D01*
X55112Y-29133D01*
X55074Y-29225D01*
X55075Y-29437D01*
X55137Y-29500D01*
X55550Y-29500D01*
X55550Y-29600D01*
X55137Y-29600D01*
X55075Y-29662D01*
X55074Y-29874D01*
X55112Y-29966D01*
X55183Y-30036D01*
X55275Y-30074D01*
X55374Y-30075D01*
X55374Y-30075D01*
X55303Y-30104D01*
X55155Y-30252D01*
X55075Y-30445D01*
X55074Y-30653D01*
X55154Y-30847D01*
X55302Y-30994D01*
X55495Y-31074D01*
X55703Y-31075D01*
X55897Y-30995D01*
X56044Y-30847D01*
X56124Y-30654D01*
X56125Y-30446D01*
X56045Y-30253D01*
X55897Y-30105D01*
X55825Y-30075D01*
X55825Y-30075D01*
X55924Y-30074D01*
X56016Y-30036D01*
X56085Y-29968D01*
X56085Y-30110D01*
X56123Y-30202D01*
X56193Y-30272D01*
X56285Y-30310D01*
X56385Y-30311D01*
X57172Y-30311D01*
X57263Y-30273D01*
X57334Y-30202D01*
X57372Y-30110D01*
X57372Y-30011D01*
X57372Y-30632D01*
X57361Y-30660D01*
X57360Y-30839D01*
X57429Y-31004D01*
X57555Y-31131D01*
X57560Y-31133D01*
X57523Y-31224D01*
X57522Y-31323D01*
X57522Y-31591D01*
X57484Y-31629D01*
X57411Y-31739D01*
X57411Y-31192D01*
X57373Y-31100D01*
X57303Y-31030D01*
X57211Y-30992D01*
X57111Y-30991D01*
X56324Y-30991D01*
X56233Y-31029D01*
X56162Y-31100D01*
X56124Y-31192D01*
X56124Y-31291D01*
X56124Y-32275D01*
X56162Y-32367D01*
X56232Y-32437D01*
X56324Y-32475D01*
X56424Y-32476D01*
X57211Y-32476D01*
X57302Y-32438D01*
X57373Y-32367D01*
X57375Y-32363D01*
X57375Y-33000D01*
X57403Y-33143D01*
X57484Y-33265D01*
X57625Y-33405D01*
X57625Y-34000D01*
X57625Y-34344D01*
X57344Y-34625D01*
X57000Y-34625D01*
X51250Y-34625D01*
X51106Y-34653D01*
X50984Y-34734D01*
X49971Y-35747D01*
X49887Y-35747D01*
X49796Y-35785D01*
X49725Y-35856D01*
X49687Y-35948D01*
X49687Y-36047D01*
X49687Y-37189D01*
X49713Y-37252D01*
X49690Y-37262D01*
X49528Y-37423D01*
X49441Y-37635D01*
X49440Y-37863D01*
X49528Y-38075D01*
X49689Y-38237D01*
X49713Y-38247D01*
X49687Y-38310D01*
X49687Y-38409D01*
X49687Y-38926D01*
X49484Y-39128D01*
X49403Y-39250D01*
X49375Y-39394D01*
X49375Y-41050D01*
X49375Y-41250D01*
X49375Y-41400D01*
X49375Y-41700D01*
X49375Y-43000D01*
X49403Y-43143D01*
X49484Y-43265D01*
X49687Y-43467D01*
X49687Y-44439D01*
X49713Y-44502D01*
X49690Y-44512D01*
X49528Y-44673D01*
X49441Y-44885D01*
X49440Y-45113D01*
X49528Y-45325D01*
X49689Y-45487D01*
X49713Y-45497D01*
X49687Y-45560D01*
X49687Y-45659D01*
X49687Y-46801D01*
X49725Y-46893D01*
X49795Y-46963D01*
X49887Y-47001D01*
X49987Y-47002D01*
X50538Y-47002D01*
X50629Y-46964D01*
X50700Y-46893D01*
X50701Y-46890D01*
X50730Y-46919D01*
X51236Y-47425D01*
X50034Y-47425D01*
X49647Y-47348D01*
X49351Y-47150D01*
X49150Y-46850D01*
X49075Y-46468D01*
X49075Y-29281D01*
X49131Y-28994D01*
X49277Y-28776D01*
X49493Y-28632D01*
X49783Y-28575D01*
X67218Y-28575D01*
X67505Y-28631D01*
X67723Y-28777D01*
X67867Y-28993D01*
X67925Y-29283D01*
X67925Y-32415D01*
X67860Y-32259D01*
X67741Y-32139D01*
X67584Y-32075D01*
X67415Y-32074D01*
X67294Y-32125D01*
X65255Y-32125D01*
X65134Y-32075D01*
X64965Y-32074D01*
X64809Y-32139D01*
X64689Y-32258D01*
X64625Y-32415D01*
X64624Y-32584D01*
X64689Y-32740D01*
X64808Y-32860D01*
X64965Y-32924D01*
X65134Y-32925D01*
X65255Y-32875D01*
X67294Y-32875D01*
X67415Y-32924D01*
X67584Y-32925D01*
X67740Y-32860D01*
X67860Y-32741D01*
X67924Y-32584D01*
X67925Y-32500D01*
X67925Y-46716D01*
M02*
