G04 (created by PCBNEW (2013-mar-13)-testing) date Mon 19 Aug 2013 04:09:37 PM CEST*
%MOIN*%
G04 Gerber Fmt 3.4, Leading zero omitted, Abs format*
%FSLAX34Y34*%
G01*
G70*
G90*
G04 APERTURE LIST*
%ADD10C,0.000787402*%
%ADD11C,0.0049*%
%ADD12C,0.015*%
%ADD13R,0.045X0.025*%
%ADD14R,0.061X0.024*%
%ADD15R,0.064937X0.024*%
%ADD16R,0.05X0.014*%
%ADD17R,0.055X0.055*%
%ADD18C,0.055*%
%ADD19R,0.024X0.035*%
%ADD20R,0.063X0.0591*%
%ADD21R,0.0472X0.0472*%
%ADD22R,0.0551X0.1142*%
%ADD23R,0.035X0.055*%
%ADD24R,0.055X0.035*%
%ADD25R,0.08X0.06*%
%ADD26R,0.025X0.045*%
%ADD27C,0.035*%
%ADD28C,0.025*%
%ADD29C,0.012*%
%ADD30C,0.01*%
G04 APERTURE END LIST*
G54D10*
G54D11*
X58402Y-34059D02*
X58402Y-33665D01*
X58402Y-34040D02*
X58432Y-34059D01*
X58492Y-34059D01*
X58522Y-34040D01*
X58537Y-34021D01*
X58552Y-33984D01*
X58552Y-33871D01*
X58537Y-33834D01*
X58522Y-33815D01*
X58492Y-33796D01*
X58432Y-33796D01*
X58402Y-33815D01*
X58267Y-33571D02*
X58237Y-33552D01*
X58192Y-33552D01*
X58162Y-33571D01*
X58147Y-33609D01*
X58147Y-33646D01*
X58162Y-33684D01*
X58267Y-33815D01*
X58147Y-33815D01*
G54D12*
X67250Y-28250D02*
X49750Y-28250D01*
X68250Y-46750D02*
X68250Y-29250D01*
X68250Y-29250D02*
G75*
G03X67250Y-28250I-1000J0D01*
G74*
G01*
X50000Y-47750D02*
X67250Y-47750D01*
X48750Y-46500D02*
X48750Y-29250D01*
X48750Y-46500D02*
G75*
G03X50000Y-47750I1250J0D01*
G74*
G01*
X67250Y-47750D02*
G75*
G03X68250Y-46750I0J1000D01*
G74*
G01*
X49750Y-28250D02*
G75*
G03X48750Y-29250I0J-1000D01*
G74*
G01*
G54D13*
X64000Y-39550D03*
X64000Y-38950D03*
G54D14*
X61392Y-34000D03*
X61392Y-33500D03*
X61392Y-33000D03*
X61392Y-32500D03*
G54D15*
X61392Y-32000D03*
G54D14*
X61392Y-31500D03*
X61392Y-31000D03*
X64207Y-31000D03*
X64207Y-31500D03*
X64207Y-32000D03*
X64207Y-32500D03*
X64207Y-33000D03*
X64207Y-33500D03*
X64207Y-34000D03*
G54D16*
X52218Y-33684D03*
X52218Y-33428D03*
X52218Y-33172D03*
X52218Y-32916D03*
X54581Y-32916D03*
X54581Y-33172D03*
X54581Y-33428D03*
X54581Y-33684D03*
G54D14*
X63542Y-45500D03*
X66357Y-45500D03*
X63542Y-45000D03*
X66357Y-45000D03*
X63542Y-44500D03*
X66357Y-44500D03*
X63542Y-44000D03*
X66357Y-44000D03*
X63542Y-43500D03*
X66357Y-43500D03*
X63542Y-43000D03*
X66357Y-43000D03*
X63542Y-42500D03*
X66357Y-42500D03*
X63542Y-42000D03*
X66357Y-42000D03*
G54D17*
X55600Y-29550D03*
G54D18*
X55600Y-30550D03*
G54D19*
X55125Y-35350D03*
X54375Y-35350D03*
X54750Y-36350D03*
G54D20*
X50800Y-30971D03*
G54D21*
X50406Y-29691D03*
X51194Y-29691D03*
G54D20*
X66500Y-30921D03*
G54D21*
X66106Y-29641D03*
X66894Y-29641D03*
X54488Y-29850D03*
X53111Y-29850D03*
X53111Y-31450D03*
X54488Y-31450D03*
G54D22*
X50663Y-45081D03*
X52237Y-45081D03*
X50663Y-42719D03*
X52237Y-42719D03*
G54D23*
X55025Y-42000D03*
X54275Y-42000D03*
X55025Y-43250D03*
X54275Y-43250D03*
X55025Y-44500D03*
X54275Y-44500D03*
X55025Y-45750D03*
X54275Y-45750D03*
X58425Y-42000D03*
X57675Y-42000D03*
X58425Y-43250D03*
X57675Y-43250D03*
X58425Y-44500D03*
X57675Y-44500D03*
X58425Y-45750D03*
X57675Y-45750D03*
G54D24*
X59550Y-34875D03*
X59550Y-34125D03*
G54D23*
X52475Y-36400D03*
X53225Y-36400D03*
X53225Y-35100D03*
X52475Y-35100D03*
G54D25*
X66250Y-32600D03*
X66250Y-33900D03*
X59550Y-32650D03*
X59550Y-31350D03*
X56400Y-33900D03*
X56400Y-32600D03*
X50850Y-35100D03*
X50850Y-36400D03*
G54D26*
X51750Y-46500D03*
X51150Y-46500D03*
X65250Y-46500D03*
X64650Y-46500D03*
X50500Y-32200D03*
X51100Y-32200D03*
X62600Y-29850D03*
X63200Y-29850D03*
G54D13*
X66750Y-36450D03*
X66750Y-37050D03*
X65250Y-39550D03*
X65250Y-38950D03*
X62750Y-39550D03*
X62750Y-38950D03*
X61500Y-39550D03*
X61500Y-38950D03*
X65250Y-36450D03*
X65250Y-37050D03*
X64000Y-36450D03*
X64000Y-37050D03*
X62750Y-36450D03*
X62750Y-37050D03*
X61500Y-36450D03*
X61500Y-37050D03*
G54D27*
X67300Y-46800D03*
X53350Y-33450D03*
X67400Y-31850D03*
X55850Y-40250D03*
X58550Y-40250D03*
X60500Y-36000D03*
X60650Y-32500D03*
X64950Y-30250D03*
X64950Y-32500D03*
X64600Y-38050D03*
G54D28*
X67300Y-46800D02*
X66650Y-46800D01*
X66650Y-46800D02*
X66125Y-46275D01*
X65250Y-46500D02*
X65900Y-46500D01*
X65900Y-46500D02*
X66125Y-46275D01*
X66125Y-46275D02*
X66357Y-46042D01*
X66357Y-45500D02*
X66357Y-46042D01*
G54D29*
X52264Y-32916D02*
X53166Y-32916D01*
X53350Y-33100D02*
X53350Y-33450D01*
X53166Y-32916D02*
X53350Y-33100D01*
G54D28*
X67100Y-30250D02*
X67400Y-30550D01*
X66106Y-30156D02*
X66200Y-30250D01*
X66200Y-30250D02*
X67100Y-30250D01*
X66106Y-29641D02*
X66106Y-30156D01*
X67400Y-30550D02*
X67400Y-31850D01*
X50663Y-45081D02*
X50663Y-42719D01*
X50675Y-40875D02*
X50675Y-42707D01*
X50675Y-42707D02*
X50663Y-42719D01*
X53800Y-40250D02*
X51300Y-40250D01*
X60125Y-34875D02*
X59550Y-34875D01*
X60500Y-39500D02*
X60500Y-39800D01*
X58550Y-40250D02*
X55850Y-40250D01*
X55850Y-40250D02*
X55800Y-40250D01*
X60050Y-40250D02*
X58550Y-40250D01*
X60500Y-36000D02*
X60500Y-39500D01*
X60500Y-39800D02*
X60050Y-40250D01*
X55800Y-40250D02*
X54750Y-40250D01*
X60500Y-35250D02*
X60500Y-36000D01*
X60125Y-34875D02*
X60500Y-35250D01*
X54750Y-40250D02*
X53800Y-40250D01*
X51300Y-40250D02*
X50675Y-40875D01*
X50675Y-40875D02*
X50663Y-40887D01*
G54D29*
X56050Y-33250D02*
X55900Y-33250D01*
X55900Y-33250D02*
X55466Y-33684D01*
X55466Y-33684D02*
X54535Y-33684D01*
X59550Y-34875D02*
X57575Y-34875D01*
X57000Y-33250D02*
X56050Y-33250D01*
X57300Y-33550D02*
X57000Y-33250D01*
X57300Y-34600D02*
X57300Y-33550D01*
X57575Y-34875D02*
X57300Y-34600D01*
X54535Y-33684D02*
X54116Y-33684D01*
X54116Y-33684D02*
X53900Y-33900D01*
X53900Y-33900D02*
X53900Y-34950D01*
X53900Y-34950D02*
X53750Y-35100D01*
X53750Y-35100D02*
X53225Y-35100D01*
X52264Y-32916D02*
X51816Y-32916D01*
X51816Y-32916D02*
X51600Y-32700D01*
X51600Y-32700D02*
X51600Y-32400D01*
X51600Y-32400D02*
X51400Y-32200D01*
X51400Y-32200D02*
X51100Y-32200D01*
G54D28*
X61572Y-32500D02*
X60650Y-32500D01*
G54D29*
X64700Y-33000D02*
X64207Y-33000D01*
X64600Y-32000D02*
X64207Y-32000D01*
X66221Y-30921D02*
X66500Y-30921D01*
X65600Y-30300D02*
X66221Y-30921D01*
X65600Y-29900D02*
X65600Y-30300D01*
X65000Y-29300D02*
X65600Y-29900D01*
X64950Y-29300D02*
X65000Y-29300D01*
X61000Y-29900D02*
X61600Y-29300D01*
X60250Y-32250D02*
X60000Y-32000D01*
X60000Y-32000D02*
X59000Y-32000D01*
X59000Y-32000D02*
X58800Y-31800D01*
X58800Y-31800D02*
X58800Y-30850D01*
X58800Y-30850D02*
X59750Y-29900D01*
X59750Y-29900D02*
X61000Y-29900D01*
X60300Y-32250D02*
X60250Y-32250D01*
X61600Y-29300D02*
X64950Y-29300D01*
X66950Y-31550D02*
X66950Y-31371D01*
X66950Y-31371D02*
X66500Y-30921D01*
X65400Y-33000D02*
X65450Y-33000D01*
X66950Y-33100D02*
X66950Y-31750D01*
X66950Y-31750D02*
X66950Y-31550D01*
X66950Y-31550D02*
X66950Y-31521D01*
X66800Y-33250D02*
X66950Y-33100D01*
X65700Y-33250D02*
X66800Y-33250D01*
X65450Y-33000D02*
X65700Y-33250D01*
X66500Y-30821D02*
X66471Y-30821D01*
X64227Y-33000D02*
X64700Y-33000D01*
X64700Y-33000D02*
X65400Y-33000D01*
X65400Y-32000D02*
X64600Y-32000D01*
X64600Y-32000D02*
X64250Y-32000D01*
X65550Y-32150D02*
X65400Y-32000D01*
X65550Y-32600D02*
X65550Y-32150D01*
X65550Y-32850D02*
X65550Y-32600D01*
X65400Y-33000D02*
X65550Y-32850D01*
X60300Y-32750D02*
X60550Y-33000D01*
X60300Y-32250D02*
X60300Y-32750D01*
X60750Y-33000D02*
X61572Y-33000D01*
X60550Y-33000D02*
X60750Y-33000D01*
X61572Y-32000D02*
X61250Y-32000D01*
X61372Y-32000D02*
X61250Y-32000D01*
X61250Y-32000D02*
X60550Y-32000D01*
X60550Y-32000D02*
X60300Y-32250D01*
X52050Y-46500D02*
X60800Y-46500D01*
X61800Y-45500D02*
X63542Y-45500D01*
X60800Y-46500D02*
X61800Y-45500D01*
X52237Y-45081D02*
X52237Y-46313D01*
X52050Y-46500D02*
X51750Y-46500D01*
X52237Y-46313D02*
X52050Y-46500D01*
X52237Y-42719D02*
X52237Y-45081D01*
X50800Y-30971D02*
X50800Y-31350D01*
X50500Y-31650D02*
X50500Y-32200D01*
X50800Y-31350D02*
X50500Y-31650D01*
X50529Y-32171D02*
X50500Y-32200D01*
X50820Y-33170D02*
X52262Y-33170D01*
X50820Y-33170D02*
X50500Y-32850D01*
X50500Y-32200D02*
X50500Y-32850D01*
X52262Y-33170D02*
X52264Y-33172D01*
X54022Y-33172D02*
X54022Y-33178D01*
X52928Y-33428D02*
X52264Y-33428D01*
X52950Y-33450D02*
X52928Y-33428D01*
X52950Y-33600D02*
X52950Y-33450D01*
X53200Y-33850D02*
X52950Y-33600D01*
X53550Y-33850D02*
X53200Y-33850D01*
X53800Y-33600D02*
X53550Y-33850D01*
X53800Y-33400D02*
X53800Y-33600D01*
X54022Y-33178D02*
X53800Y-33400D01*
X54488Y-32211D02*
X54488Y-31450D01*
X54350Y-32350D02*
X54488Y-32211D01*
X54000Y-32350D02*
X54350Y-32350D01*
X53800Y-32550D02*
X54000Y-32350D01*
X53800Y-32950D02*
X53800Y-32550D01*
X54022Y-33172D02*
X53800Y-32950D01*
X54535Y-33172D02*
X54022Y-33172D01*
X52264Y-33428D02*
X51172Y-33428D01*
X51172Y-33428D02*
X51170Y-33430D01*
X50850Y-33750D02*
X51170Y-33430D01*
X50850Y-35100D02*
X50850Y-33750D01*
X51170Y-33430D02*
X51180Y-33430D01*
X54488Y-29850D02*
X54488Y-31450D01*
X54581Y-32916D02*
X54884Y-32916D01*
X54884Y-32916D02*
X55000Y-32800D01*
X54581Y-32916D02*
X54581Y-32718D01*
X54650Y-32650D02*
X54700Y-32650D01*
X54581Y-32718D02*
X54650Y-32650D01*
X55125Y-35350D02*
X55125Y-35075D01*
X55125Y-35075D02*
X55150Y-35050D01*
G54D28*
X64950Y-30250D02*
X64900Y-30250D01*
X64950Y-32500D02*
X64250Y-32500D01*
G54D29*
X51194Y-29691D02*
X52291Y-29691D01*
X52500Y-30838D02*
X53111Y-31450D01*
X52500Y-29900D02*
X52500Y-30838D01*
X52291Y-29691D02*
X52500Y-29900D01*
X54750Y-36350D02*
X54600Y-36500D01*
X53325Y-36500D02*
X53225Y-36400D01*
X54600Y-36500D02*
X53325Y-36500D01*
X63542Y-45000D02*
X64400Y-45000D01*
X64650Y-45250D02*
X64650Y-46500D01*
X64400Y-45000D02*
X64650Y-45250D01*
X61500Y-36450D02*
X61500Y-34650D01*
X61392Y-34542D02*
X61392Y-34000D01*
X61500Y-34650D02*
X61392Y-34542D01*
X61392Y-31000D02*
X61750Y-31000D01*
X62150Y-34050D02*
X62150Y-31250D01*
X62750Y-34650D02*
X62150Y-34050D01*
X62750Y-36450D02*
X62750Y-34650D01*
X61900Y-31000D02*
X61750Y-31000D01*
X61750Y-31000D02*
X61572Y-31000D01*
X62150Y-31250D02*
X61900Y-31000D01*
X61572Y-31500D02*
X61050Y-31500D01*
X61050Y-30250D02*
X61150Y-30250D01*
X59550Y-31370D02*
X59550Y-30500D01*
X59800Y-30250D02*
X59550Y-30500D01*
X61050Y-30250D02*
X59800Y-30250D01*
X61150Y-30250D02*
X61550Y-29850D01*
X59680Y-31500D02*
X61050Y-31500D01*
X59680Y-31500D02*
X59550Y-31370D01*
X61550Y-29850D02*
X62600Y-29850D01*
X62750Y-37050D02*
X62750Y-38950D01*
X52475Y-35100D02*
X52475Y-36400D01*
X65250Y-37050D02*
X65250Y-38950D01*
X64250Y-34000D02*
X64950Y-34000D01*
X65250Y-34300D02*
X65250Y-36100D01*
X64950Y-34000D02*
X65250Y-34300D01*
X65250Y-36120D02*
X65250Y-36100D01*
X65250Y-36100D02*
X65250Y-36450D01*
X64207Y-31000D02*
X63750Y-31000D01*
X64000Y-34600D02*
X64000Y-36450D01*
X63500Y-34100D02*
X64000Y-34600D01*
X63500Y-31250D02*
X63500Y-34100D01*
X63750Y-31000D02*
X63500Y-31250D01*
X64000Y-37050D02*
X64000Y-38950D01*
X50406Y-29691D02*
X50406Y-29394D01*
X52461Y-29200D02*
X53111Y-29850D01*
X50600Y-29200D02*
X52461Y-29200D01*
X50406Y-29394D02*
X50600Y-29200D01*
X64700Y-31500D02*
X64207Y-31500D01*
X64950Y-29850D02*
X65050Y-29850D01*
X63500Y-29850D02*
X64950Y-29850D01*
X65850Y-31500D02*
X65400Y-31050D01*
X63500Y-29850D02*
X63200Y-29850D01*
X65300Y-30950D02*
X65400Y-31050D01*
X65300Y-30100D02*
X65300Y-30950D01*
X65050Y-29850D02*
X65300Y-30100D01*
X66250Y-31900D02*
X66250Y-32600D01*
X65850Y-31500D02*
X66250Y-31900D01*
X65150Y-31500D02*
X65850Y-31500D01*
X64250Y-31500D02*
X64700Y-31500D01*
X64700Y-31500D02*
X65150Y-31500D01*
X56400Y-32600D02*
X55800Y-32600D01*
X55322Y-33428D02*
X54535Y-33428D01*
X55550Y-33200D02*
X55322Y-33428D01*
X55550Y-32850D02*
X55550Y-33200D01*
X55800Y-32600D02*
X55550Y-32850D01*
X58425Y-44500D02*
X60800Y-44500D01*
X61300Y-44000D02*
X63542Y-44000D01*
X60800Y-44500D02*
X61300Y-44000D01*
X63542Y-43000D02*
X61800Y-43000D01*
X60800Y-42000D02*
X61800Y-43000D01*
X60800Y-42000D02*
X58425Y-42000D01*
X58425Y-45750D02*
X60800Y-45750D01*
X62050Y-44500D02*
X63542Y-44500D01*
X60800Y-45750D02*
X62050Y-44500D01*
X54375Y-34875D02*
X54375Y-35350D01*
X54600Y-34650D02*
X54375Y-34875D01*
X56100Y-34650D02*
X54600Y-34650D01*
X56400Y-34350D02*
X56100Y-34650D01*
X56400Y-33900D02*
X56400Y-34350D01*
X54400Y-35325D02*
X54375Y-35350D01*
X58425Y-43250D02*
X60800Y-43250D01*
X61050Y-43500D02*
X63542Y-43500D01*
X60800Y-43250D02*
X61050Y-43500D01*
X55700Y-44500D02*
X55025Y-44500D01*
X57675Y-44500D02*
X55700Y-44500D01*
X55700Y-44500D02*
X55675Y-44500D01*
X55025Y-42000D02*
X55675Y-42000D01*
X55675Y-42000D02*
X57675Y-42000D01*
X55025Y-45750D02*
X55675Y-45750D01*
X55675Y-45750D02*
X57675Y-45750D01*
X55025Y-43250D02*
X55675Y-43250D01*
X55675Y-43250D02*
X57675Y-43250D01*
X59550Y-34125D02*
X59550Y-33750D01*
X59550Y-33750D02*
X59800Y-33500D01*
X59550Y-32650D02*
X59550Y-33250D01*
X59800Y-33500D02*
X61572Y-33500D01*
X59550Y-33250D02*
X59800Y-33500D01*
X66250Y-34900D02*
X66750Y-35400D01*
X66750Y-35400D02*
X66750Y-36450D01*
X66250Y-34900D02*
X66250Y-33900D01*
X64850Y-33500D02*
X64207Y-33500D01*
X64250Y-33500D02*
X64850Y-33500D01*
X64850Y-33500D02*
X65150Y-33500D01*
X65150Y-33500D02*
X65550Y-33900D01*
X65550Y-33900D02*
X66250Y-33900D01*
X61500Y-37050D02*
X61500Y-38950D01*
G54D10*
G36*
X65240Y-32690D02*
X64753Y-32690D01*
X64762Y-32669D01*
X64762Y-32612D01*
X64699Y-32550D01*
X64257Y-32550D01*
X64257Y-32557D01*
X64157Y-32557D01*
X64157Y-32550D01*
X64149Y-32550D01*
X64149Y-32450D01*
X64157Y-32450D01*
X64157Y-32442D01*
X64257Y-32442D01*
X64257Y-32450D01*
X64699Y-32450D01*
X64762Y-32387D01*
X64762Y-32330D01*
X64753Y-32310D01*
X65240Y-32310D01*
X65240Y-32600D01*
X65240Y-32690D01*
X65240Y-32690D01*
G37*
G54D30*
X65240Y-32690D02*
X64753Y-32690D01*
X64762Y-32669D01*
X64762Y-32612D01*
X64699Y-32550D01*
X64257Y-32550D01*
X64257Y-32557D01*
X64157Y-32557D01*
X64157Y-32550D01*
X64149Y-32550D01*
X64149Y-32450D01*
X64157Y-32450D01*
X64157Y-32442D01*
X64257Y-32442D01*
X64257Y-32450D01*
X64699Y-32450D01*
X64762Y-32387D01*
X64762Y-32330D01*
X64753Y-32310D01*
X65240Y-32310D01*
X65240Y-32600D01*
X65240Y-32690D01*
G54D10*
G36*
X67925Y-46716D02*
X67867Y-47006D01*
X67825Y-47070D01*
X67825Y-31765D01*
X67775Y-31644D01*
X67775Y-30550D01*
X67774Y-30549D01*
X67746Y-30406D01*
X67665Y-30284D01*
X67665Y-30284D01*
X67365Y-29984D01*
X67357Y-29979D01*
X67379Y-29926D01*
X67380Y-29827D01*
X67380Y-29454D01*
X67379Y-29355D01*
X67341Y-29263D01*
X67271Y-29192D01*
X67179Y-29154D01*
X67006Y-29155D01*
X66944Y-29217D01*
X66944Y-29591D01*
X67317Y-29591D01*
X67380Y-29528D01*
X67380Y-29454D01*
X67380Y-29827D01*
X67380Y-29753D01*
X67317Y-29691D01*
X66944Y-29691D01*
X66944Y-29698D01*
X66844Y-29698D01*
X66844Y-29691D01*
X66836Y-29691D01*
X66836Y-29591D01*
X66844Y-29591D01*
X66844Y-29217D01*
X66781Y-29155D01*
X66608Y-29154D01*
X66516Y-29192D01*
X66500Y-29209D01*
X66483Y-29193D01*
X66391Y-29155D01*
X66292Y-29154D01*
X65820Y-29154D01*
X65728Y-29192D01*
X65658Y-29263D01*
X65620Y-29355D01*
X65619Y-29454D01*
X65619Y-29481D01*
X65219Y-29080D01*
X65118Y-29013D01*
X65000Y-28990D01*
X64950Y-28990D01*
X61600Y-28990D01*
X61481Y-29013D01*
X61380Y-29080D01*
X60871Y-29590D01*
X59750Y-29590D01*
X59631Y-29613D01*
X59530Y-29680D01*
X58580Y-30630D01*
X58513Y-30731D01*
X58490Y-30850D01*
X58490Y-31800D01*
X58513Y-31918D01*
X58580Y-32019D01*
X58780Y-32219D01*
X58881Y-32286D01*
X58903Y-32290D01*
X58900Y-32300D01*
X58899Y-32399D01*
X58899Y-32999D01*
X58937Y-33091D01*
X59008Y-33161D01*
X59100Y-33199D01*
X59199Y-33200D01*
X59240Y-33200D01*
X59240Y-33250D01*
X59263Y-33368D01*
X59330Y-33469D01*
X59361Y-33500D01*
X59330Y-33530D01*
X59263Y-33631D01*
X59249Y-33699D01*
X59225Y-33699D01*
X59133Y-33737D01*
X59063Y-33808D01*
X59025Y-33900D01*
X59024Y-33999D01*
X59024Y-34349D01*
X59062Y-34441D01*
X59121Y-34500D01*
X59063Y-34558D01*
X59060Y-34565D01*
X58887Y-34565D01*
X58887Y-34450D01*
X58887Y-33300D01*
X57813Y-33300D01*
X57813Y-34450D01*
X58887Y-34450D01*
X58887Y-34565D01*
X57703Y-34565D01*
X57610Y-34471D01*
X57610Y-33550D01*
X57609Y-33549D01*
X57610Y-33549D01*
X57605Y-33526D01*
X57586Y-33431D01*
X57586Y-33431D01*
X57519Y-33330D01*
X57519Y-33330D01*
X57219Y-33030D01*
X57118Y-32963D01*
X57049Y-32949D01*
X57050Y-32850D01*
X57050Y-32250D01*
X57012Y-32158D01*
X56941Y-32088D01*
X56849Y-32050D01*
X56750Y-32049D01*
X56129Y-32049D01*
X56129Y-30625D01*
X56125Y-30536D01*
X56125Y-29775D01*
X56125Y-29225D01*
X56087Y-29133D01*
X56016Y-29063D01*
X55924Y-29025D01*
X55825Y-29024D01*
X55275Y-29024D01*
X55183Y-29062D01*
X55113Y-29133D01*
X55075Y-29225D01*
X55074Y-29324D01*
X55074Y-29874D01*
X55112Y-29966D01*
X55183Y-30036D01*
X55275Y-30074D01*
X55362Y-30075D01*
X55327Y-30089D01*
X55302Y-30182D01*
X55600Y-30479D01*
X55897Y-30182D01*
X55872Y-30089D01*
X55831Y-30075D01*
X55924Y-30075D01*
X56016Y-30037D01*
X56086Y-29966D01*
X56124Y-29874D01*
X56125Y-29775D01*
X56125Y-30536D01*
X56118Y-30417D01*
X56060Y-30277D01*
X55967Y-30252D01*
X55670Y-30550D01*
X55967Y-30847D01*
X56060Y-30822D01*
X56129Y-30625D01*
X56129Y-32049D01*
X55950Y-32049D01*
X55897Y-32072D01*
X55897Y-30917D01*
X55600Y-30620D01*
X55529Y-30691D01*
X55529Y-30550D01*
X55232Y-30252D01*
X55139Y-30277D01*
X55070Y-30474D01*
X55081Y-30682D01*
X55139Y-30822D01*
X55232Y-30847D01*
X55529Y-30550D01*
X55529Y-30691D01*
X55302Y-30917D01*
X55327Y-31010D01*
X55524Y-31079D01*
X55732Y-31068D01*
X55872Y-31010D01*
X55897Y-30917D01*
X55897Y-32072D01*
X55858Y-32087D01*
X55788Y-32158D01*
X55750Y-32250D01*
X55750Y-32299D01*
X55681Y-32313D01*
X55641Y-32340D01*
X55580Y-32380D01*
X55580Y-32380D01*
X55330Y-32630D01*
X55263Y-32731D01*
X55240Y-32850D01*
X55240Y-33071D01*
X55193Y-33118D01*
X55081Y-33118D01*
X55081Y-33052D01*
X55077Y-33044D01*
X55081Y-33035D01*
X55081Y-33013D01*
X55053Y-32986D01*
X55043Y-32960D01*
X54972Y-32890D01*
X54950Y-32881D01*
X55018Y-32881D01*
X55081Y-32818D01*
X55081Y-32796D01*
X55043Y-32704D01*
X54972Y-32634D01*
X54881Y-32596D01*
X54781Y-32595D01*
X54693Y-32596D01*
X54631Y-32658D01*
X54631Y-32851D01*
X54531Y-32851D01*
X54531Y-32658D01*
X54492Y-32620D01*
X54569Y-32569D01*
X54708Y-32430D01*
X54775Y-32329D01*
X54798Y-32211D01*
X54798Y-31925D01*
X54866Y-31898D01*
X54936Y-31827D01*
X54974Y-31735D01*
X54975Y-31636D01*
X54975Y-31164D01*
X54937Y-31072D01*
X54866Y-31002D01*
X54798Y-30974D01*
X54798Y-30325D01*
X54866Y-30298D01*
X54936Y-30227D01*
X54974Y-30135D01*
X54975Y-30036D01*
X54975Y-29564D01*
X54937Y-29472D01*
X54866Y-29402D01*
X54774Y-29364D01*
X54675Y-29363D01*
X54203Y-29363D01*
X54111Y-29401D01*
X54041Y-29472D01*
X54003Y-29564D01*
X54002Y-29663D01*
X54002Y-30135D01*
X54040Y-30227D01*
X54111Y-30297D01*
X54178Y-30325D01*
X54178Y-30974D01*
X54111Y-31001D01*
X54041Y-31072D01*
X54003Y-31164D01*
X54002Y-31263D01*
X54002Y-31735D01*
X54040Y-31827D01*
X54111Y-31897D01*
X54178Y-31925D01*
X54178Y-32040D01*
X54000Y-32040D01*
X53881Y-32063D01*
X53780Y-32130D01*
X53597Y-32314D01*
X53597Y-31636D01*
X53597Y-31164D01*
X53559Y-31072D01*
X53488Y-31002D01*
X53396Y-30964D01*
X53297Y-30963D01*
X53063Y-30963D01*
X52810Y-30710D01*
X52810Y-30329D01*
X52825Y-30335D01*
X52924Y-30336D01*
X53396Y-30336D01*
X53488Y-30298D01*
X53558Y-30227D01*
X53596Y-30135D01*
X53597Y-30036D01*
X53597Y-29564D01*
X53559Y-29472D01*
X53488Y-29402D01*
X53396Y-29364D01*
X53297Y-29363D01*
X53063Y-29363D01*
X52680Y-28980D01*
X52579Y-28913D01*
X52461Y-28890D01*
X50600Y-28890D01*
X50599Y-28890D01*
X50576Y-28894D01*
X50481Y-28913D01*
X50380Y-28980D01*
X50380Y-28980D01*
X50186Y-29174D01*
X50166Y-29204D01*
X50120Y-29204D01*
X50028Y-29242D01*
X49958Y-29313D01*
X49920Y-29405D01*
X49919Y-29504D01*
X49919Y-29976D01*
X49957Y-30068D01*
X50028Y-30138D01*
X50120Y-30176D01*
X50219Y-30177D01*
X50691Y-30177D01*
X50783Y-30139D01*
X50799Y-30122D01*
X50816Y-30138D01*
X50908Y-30176D01*
X51007Y-30177D01*
X51479Y-30177D01*
X51571Y-30139D01*
X51641Y-30068D01*
X51669Y-30001D01*
X52162Y-30001D01*
X52190Y-30028D01*
X52190Y-30838D01*
X52213Y-30957D01*
X52280Y-31058D01*
X52624Y-31402D01*
X52624Y-31735D01*
X52662Y-31827D01*
X52733Y-31897D01*
X52825Y-31935D01*
X52924Y-31936D01*
X53396Y-31936D01*
X53488Y-31898D01*
X53558Y-31827D01*
X53596Y-31735D01*
X53597Y-31636D01*
X53597Y-32314D01*
X53580Y-32330D01*
X53513Y-32431D01*
X53490Y-32550D01*
X53490Y-32801D01*
X53385Y-32696D01*
X53284Y-32629D01*
X53166Y-32606D01*
X52542Y-32606D01*
X52518Y-32596D01*
X52419Y-32595D01*
X51934Y-32595D01*
X51910Y-32571D01*
X51910Y-32400D01*
X51886Y-32281D01*
X51819Y-32180D01*
X51619Y-31980D01*
X51518Y-31913D01*
X51465Y-31903D01*
X51437Y-31833D01*
X51366Y-31763D01*
X51274Y-31725D01*
X51175Y-31724D01*
X50925Y-31724D01*
X50833Y-31762D01*
X50810Y-31786D01*
X50810Y-31778D01*
X51019Y-31569D01*
X51019Y-31569D01*
X51019Y-31569D01*
X51054Y-31516D01*
X51164Y-31516D01*
X51256Y-31478D01*
X51326Y-31408D01*
X51364Y-31316D01*
X51365Y-31216D01*
X51365Y-30625D01*
X51327Y-30534D01*
X51256Y-30463D01*
X51164Y-30425D01*
X51065Y-30425D01*
X50435Y-30425D01*
X50343Y-30463D01*
X50273Y-30533D01*
X50235Y-30625D01*
X50234Y-30725D01*
X50234Y-31316D01*
X50272Y-31407D01*
X50288Y-31423D01*
X50280Y-31430D01*
X50213Y-31531D01*
X50190Y-31650D01*
X50190Y-31806D01*
X50163Y-31833D01*
X50125Y-31925D01*
X50124Y-32024D01*
X50124Y-32474D01*
X50162Y-32566D01*
X50190Y-32593D01*
X50190Y-32850D01*
X50213Y-32968D01*
X50280Y-33069D01*
X50600Y-33389D01*
X50600Y-33389D01*
X50701Y-33456D01*
X50701Y-33456D01*
X50704Y-33457D01*
X50704Y-33457D01*
X50630Y-33530D01*
X50563Y-33631D01*
X50540Y-33750D01*
X50540Y-34549D01*
X50400Y-34549D01*
X50308Y-34587D01*
X50238Y-34658D01*
X50200Y-34750D01*
X50199Y-34849D01*
X50199Y-35449D01*
X50237Y-35541D01*
X50308Y-35611D01*
X50400Y-35649D01*
X50499Y-35650D01*
X51299Y-35650D01*
X51391Y-35612D01*
X51461Y-35541D01*
X51499Y-35449D01*
X51500Y-35350D01*
X51500Y-34750D01*
X51462Y-34658D01*
X51391Y-34588D01*
X51299Y-34550D01*
X51200Y-34549D01*
X51160Y-34549D01*
X51160Y-33878D01*
X51300Y-33738D01*
X51718Y-33738D01*
X51718Y-33803D01*
X51756Y-33895D01*
X51827Y-33965D01*
X51918Y-34003D01*
X52018Y-34004D01*
X52518Y-34004D01*
X52610Y-33966D01*
X52680Y-33895D01*
X52718Y-33803D01*
X52718Y-33801D01*
X52730Y-33819D01*
X52980Y-34069D01*
X52980Y-34069D01*
X53041Y-34109D01*
X53081Y-34136D01*
X53081Y-34136D01*
X53200Y-34160D01*
X53550Y-34160D01*
X53590Y-34152D01*
X53590Y-34661D01*
X53541Y-34613D01*
X53449Y-34575D01*
X53350Y-34574D01*
X53000Y-34574D01*
X52908Y-34612D01*
X52849Y-34671D01*
X52791Y-34613D01*
X52699Y-34575D01*
X52600Y-34574D01*
X52250Y-34574D01*
X52158Y-34612D01*
X52088Y-34683D01*
X52050Y-34775D01*
X52049Y-34874D01*
X52049Y-35424D01*
X52087Y-35516D01*
X52158Y-35586D01*
X52165Y-35589D01*
X52165Y-35910D01*
X52158Y-35912D01*
X52088Y-35983D01*
X52050Y-36075D01*
X52049Y-36174D01*
X52049Y-36724D01*
X52087Y-36816D01*
X52158Y-36886D01*
X52250Y-36924D01*
X52349Y-36925D01*
X52699Y-36925D01*
X52791Y-36887D01*
X52850Y-36828D01*
X52908Y-36886D01*
X53000Y-36924D01*
X53099Y-36925D01*
X53449Y-36925D01*
X53541Y-36887D01*
X53611Y-36816D01*
X53614Y-36810D01*
X54600Y-36810D01*
X54718Y-36786D01*
X54735Y-36775D01*
X54919Y-36775D01*
X55011Y-36737D01*
X55081Y-36666D01*
X55119Y-36574D01*
X55120Y-36475D01*
X55120Y-36125D01*
X55082Y-36033D01*
X55075Y-36026D01*
X55075Y-35712D01*
X55075Y-35400D01*
X54817Y-35400D01*
X54755Y-35462D01*
X54754Y-35475D01*
X54755Y-35574D01*
X54793Y-35666D01*
X54863Y-35737D01*
X54955Y-35775D01*
X55012Y-35775D01*
X55075Y-35712D01*
X55075Y-36026D01*
X55011Y-35963D01*
X54919Y-35925D01*
X54820Y-35924D01*
X54580Y-35924D01*
X54488Y-35962D01*
X54418Y-36033D01*
X54380Y-36125D01*
X54379Y-36190D01*
X53650Y-36190D01*
X53650Y-36075D01*
X53612Y-35983D01*
X53541Y-35913D01*
X53449Y-35875D01*
X53350Y-35874D01*
X53000Y-35874D01*
X52908Y-35912D01*
X52849Y-35971D01*
X52791Y-35913D01*
X52785Y-35910D01*
X52785Y-35589D01*
X52791Y-35587D01*
X52850Y-35528D01*
X52908Y-35586D01*
X53000Y-35624D01*
X53099Y-35625D01*
X53449Y-35625D01*
X53541Y-35587D01*
X53611Y-35516D01*
X53649Y-35424D01*
X53649Y-35410D01*
X53750Y-35410D01*
X53868Y-35386D01*
X53969Y-35319D01*
X54004Y-35283D01*
X54004Y-35574D01*
X54042Y-35666D01*
X54113Y-35736D01*
X54205Y-35774D01*
X54304Y-35775D01*
X54544Y-35775D01*
X54636Y-35737D01*
X54706Y-35666D01*
X54744Y-35574D01*
X54745Y-35475D01*
X54745Y-35125D01*
X54707Y-35033D01*
X54685Y-35011D01*
X54685Y-35003D01*
X54728Y-34960D01*
X54870Y-34960D01*
X54863Y-34962D01*
X54793Y-35033D01*
X54755Y-35125D01*
X54754Y-35224D01*
X54755Y-35237D01*
X54817Y-35300D01*
X55075Y-35300D01*
X55075Y-35292D01*
X55175Y-35292D01*
X55175Y-35300D01*
X55432Y-35300D01*
X55495Y-35237D01*
X55495Y-35224D01*
X55494Y-35125D01*
X55456Y-35033D01*
X55386Y-34962D01*
X55379Y-34960D01*
X56100Y-34960D01*
X56218Y-34936D01*
X56319Y-34869D01*
X56619Y-34569D01*
X56619Y-34569D01*
X56619Y-34569D01*
X56686Y-34468D01*
X56686Y-34468D01*
X56690Y-34450D01*
X56849Y-34450D01*
X56941Y-34412D01*
X56990Y-34363D01*
X56990Y-34600D01*
X57013Y-34718D01*
X57080Y-34819D01*
X57355Y-35094D01*
X57456Y-35161D01*
X57575Y-35185D01*
X59060Y-35185D01*
X59062Y-35191D01*
X59133Y-35261D01*
X59225Y-35299D01*
X59324Y-35300D01*
X59874Y-35300D01*
X59966Y-35262D01*
X59974Y-35254D01*
X60125Y-35405D01*
X60125Y-35794D01*
X60075Y-35915D01*
X60074Y-36084D01*
X60125Y-36205D01*
X60125Y-39500D01*
X60125Y-39644D01*
X59894Y-39875D01*
X58755Y-39875D01*
X58634Y-39825D01*
X58465Y-39824D01*
X58344Y-39875D01*
X56055Y-39875D01*
X55934Y-39825D01*
X55765Y-39824D01*
X55644Y-39875D01*
X55495Y-39875D01*
X55495Y-35475D01*
X55495Y-35462D01*
X55432Y-35400D01*
X55175Y-35400D01*
X55175Y-35712D01*
X55237Y-35775D01*
X55294Y-35775D01*
X55386Y-35737D01*
X55456Y-35666D01*
X55494Y-35574D01*
X55495Y-35475D01*
X55495Y-39875D01*
X54750Y-39875D01*
X53800Y-39875D01*
X51500Y-39875D01*
X51500Y-36749D01*
X51500Y-36050D01*
X51462Y-35958D01*
X51391Y-35888D01*
X51299Y-35850D01*
X51200Y-35849D01*
X50962Y-35850D01*
X50900Y-35912D01*
X50900Y-36350D01*
X51437Y-36350D01*
X51500Y-36287D01*
X51500Y-36050D01*
X51500Y-36749D01*
X51500Y-36512D01*
X51437Y-36450D01*
X50900Y-36450D01*
X50900Y-36887D01*
X50962Y-36950D01*
X51200Y-36950D01*
X51299Y-36949D01*
X51391Y-36911D01*
X51462Y-36841D01*
X51500Y-36749D01*
X51500Y-39875D01*
X51300Y-39875D01*
X51156Y-39903D01*
X51034Y-39984D01*
X50800Y-40219D01*
X50800Y-36887D01*
X50800Y-36450D01*
X50800Y-36350D01*
X50800Y-35912D01*
X50737Y-35850D01*
X50499Y-35849D01*
X50400Y-35850D01*
X50308Y-35888D01*
X50237Y-35958D01*
X50199Y-36050D01*
X50200Y-36287D01*
X50262Y-36350D01*
X50800Y-36350D01*
X50800Y-36450D01*
X50262Y-36450D01*
X50200Y-36512D01*
X50199Y-36749D01*
X50237Y-36841D01*
X50308Y-36911D01*
X50400Y-36949D01*
X50499Y-36950D01*
X50737Y-36950D01*
X50800Y-36887D01*
X50800Y-40219D01*
X50409Y-40609D01*
X50397Y-40621D01*
X50316Y-40743D01*
X50288Y-40887D01*
X50300Y-40947D01*
X50300Y-41913D01*
X50246Y-41935D01*
X50175Y-42006D01*
X50137Y-42098D01*
X50137Y-42197D01*
X50137Y-43339D01*
X50175Y-43431D01*
X50245Y-43501D01*
X50288Y-43519D01*
X50288Y-44280D01*
X50246Y-44297D01*
X50175Y-44368D01*
X50137Y-44460D01*
X50137Y-44559D01*
X50137Y-45701D01*
X50175Y-45793D01*
X50245Y-45863D01*
X50337Y-45901D01*
X50437Y-45902D01*
X50988Y-45902D01*
X51079Y-45864D01*
X51150Y-45793D01*
X51188Y-45701D01*
X51188Y-45602D01*
X51188Y-44460D01*
X51150Y-44368D01*
X51080Y-44298D01*
X51038Y-44280D01*
X51038Y-43519D01*
X51079Y-43502D01*
X51150Y-43431D01*
X51188Y-43339D01*
X51188Y-43240D01*
X51188Y-42098D01*
X51150Y-42006D01*
X51080Y-41936D01*
X51050Y-41923D01*
X51050Y-41030D01*
X51455Y-40625D01*
X53800Y-40625D01*
X54750Y-40625D01*
X55644Y-40625D01*
X55765Y-40674D01*
X55934Y-40675D01*
X56055Y-40625D01*
X58344Y-40625D01*
X58465Y-40674D01*
X58634Y-40675D01*
X58755Y-40625D01*
X60050Y-40625D01*
X60193Y-40596D01*
X60315Y-40515D01*
X60765Y-40065D01*
X60846Y-39943D01*
X60875Y-39800D01*
X60875Y-39500D01*
X60875Y-36205D01*
X60924Y-36084D01*
X60925Y-35915D01*
X60875Y-35794D01*
X60875Y-35250D01*
X60846Y-35106D01*
X60765Y-34984D01*
X60765Y-34984D01*
X60390Y-34609D01*
X60268Y-34528D01*
X60125Y-34500D01*
X59978Y-34500D01*
X59978Y-34499D01*
X60036Y-34441D01*
X60074Y-34349D01*
X60075Y-34250D01*
X60075Y-33900D01*
X60037Y-33810D01*
X60846Y-33810D01*
X60837Y-33830D01*
X60837Y-33929D01*
X60837Y-34169D01*
X60875Y-34261D01*
X60945Y-34331D01*
X61037Y-34369D01*
X61082Y-34369D01*
X61082Y-34542D01*
X61106Y-34661D01*
X61173Y-34761D01*
X61190Y-34778D01*
X61190Y-36089D01*
X61133Y-36112D01*
X61063Y-36183D01*
X61025Y-36275D01*
X61024Y-36374D01*
X61024Y-36624D01*
X61062Y-36716D01*
X61096Y-36749D01*
X61063Y-36783D01*
X61025Y-36875D01*
X61024Y-36974D01*
X61024Y-37224D01*
X61062Y-37316D01*
X61133Y-37386D01*
X61190Y-37410D01*
X61190Y-38589D01*
X61133Y-38612D01*
X61063Y-38683D01*
X61025Y-38775D01*
X61024Y-38874D01*
X61024Y-39124D01*
X61062Y-39216D01*
X61096Y-39250D01*
X61062Y-39283D01*
X61024Y-39375D01*
X61025Y-39437D01*
X61087Y-39500D01*
X61450Y-39500D01*
X61450Y-39492D01*
X61550Y-39492D01*
X61550Y-39500D01*
X61912Y-39500D01*
X61975Y-39437D01*
X61975Y-39375D01*
X61937Y-39283D01*
X61903Y-39250D01*
X61936Y-39216D01*
X61974Y-39124D01*
X61975Y-39025D01*
X61975Y-38775D01*
X61937Y-38683D01*
X61866Y-38613D01*
X61810Y-38589D01*
X61810Y-37410D01*
X61866Y-37387D01*
X61936Y-37316D01*
X61974Y-37224D01*
X61975Y-37125D01*
X61975Y-36875D01*
X61937Y-36783D01*
X61903Y-36750D01*
X61936Y-36716D01*
X61974Y-36624D01*
X61975Y-36525D01*
X61975Y-36275D01*
X61937Y-36183D01*
X61866Y-36113D01*
X61810Y-36089D01*
X61810Y-34650D01*
X61786Y-34531D01*
X61719Y-34430D01*
X61702Y-34414D01*
X61702Y-34370D01*
X61747Y-34370D01*
X61839Y-34332D01*
X61909Y-34261D01*
X61915Y-34246D01*
X61930Y-34269D01*
X62440Y-34778D01*
X62440Y-36089D01*
X62383Y-36112D01*
X62313Y-36183D01*
X62275Y-36275D01*
X62274Y-36374D01*
X62274Y-36624D01*
X62312Y-36716D01*
X62346Y-36749D01*
X62313Y-36783D01*
X62275Y-36875D01*
X62274Y-36974D01*
X62274Y-37224D01*
X62312Y-37316D01*
X62383Y-37386D01*
X62440Y-37410D01*
X62440Y-38589D01*
X62383Y-38612D01*
X62313Y-38683D01*
X62275Y-38775D01*
X62274Y-38874D01*
X62274Y-39124D01*
X62312Y-39216D01*
X62346Y-39250D01*
X62312Y-39283D01*
X62274Y-39375D01*
X62275Y-39437D01*
X62337Y-39500D01*
X62700Y-39500D01*
X62700Y-39492D01*
X62800Y-39492D01*
X62800Y-39500D01*
X63162Y-39500D01*
X63225Y-39437D01*
X63225Y-39375D01*
X63187Y-39283D01*
X63153Y-39250D01*
X63186Y-39216D01*
X63224Y-39124D01*
X63225Y-39025D01*
X63225Y-38775D01*
X63187Y-38683D01*
X63116Y-38613D01*
X63060Y-38589D01*
X63060Y-37410D01*
X63116Y-37387D01*
X63186Y-37316D01*
X63224Y-37224D01*
X63225Y-37125D01*
X63225Y-36875D01*
X63187Y-36783D01*
X63153Y-36750D01*
X63186Y-36716D01*
X63224Y-36624D01*
X63225Y-36525D01*
X63225Y-36275D01*
X63187Y-36183D01*
X63116Y-36113D01*
X63060Y-36089D01*
X63060Y-34650D01*
X63036Y-34531D01*
X62969Y-34430D01*
X62460Y-33921D01*
X62460Y-31250D01*
X62436Y-31131D01*
X62436Y-31131D01*
X62409Y-31091D01*
X62369Y-31030D01*
X62369Y-31030D01*
X62119Y-30780D01*
X62018Y-30713D01*
X61900Y-30690D01*
X61861Y-30690D01*
X61839Y-30668D01*
X61747Y-30630D01*
X61648Y-30629D01*
X61038Y-30629D01*
X60946Y-30667D01*
X60875Y-30738D01*
X60837Y-30830D01*
X60837Y-30929D01*
X60837Y-31169D01*
X60846Y-31190D01*
X60200Y-31190D01*
X60200Y-31000D01*
X60162Y-30908D01*
X60091Y-30838D01*
X59999Y-30800D01*
X59900Y-30799D01*
X59860Y-30799D01*
X59860Y-30628D01*
X59928Y-30560D01*
X61050Y-30560D01*
X61150Y-30560D01*
X61268Y-30536D01*
X61369Y-30469D01*
X61678Y-30160D01*
X62239Y-30160D01*
X62262Y-30216D01*
X62333Y-30286D01*
X62425Y-30324D01*
X62524Y-30325D01*
X62774Y-30325D01*
X62866Y-30287D01*
X62899Y-30253D01*
X62933Y-30286D01*
X63025Y-30324D01*
X63124Y-30325D01*
X63374Y-30325D01*
X63466Y-30287D01*
X63536Y-30216D01*
X63560Y-30160D01*
X64921Y-30160D01*
X64990Y-30228D01*
X64990Y-30950D01*
X65013Y-31068D01*
X65080Y-31169D01*
X65101Y-31190D01*
X64753Y-31190D01*
X64762Y-31169D01*
X64762Y-31070D01*
X64762Y-30830D01*
X64724Y-30738D01*
X64654Y-30668D01*
X64562Y-30630D01*
X64462Y-30629D01*
X63852Y-30629D01*
X63760Y-30667D01*
X63736Y-30692D01*
X63631Y-30713D01*
X63591Y-30740D01*
X63530Y-30780D01*
X63530Y-30780D01*
X63280Y-31030D01*
X63213Y-31131D01*
X63190Y-31250D01*
X63190Y-34100D01*
X63213Y-34218D01*
X63280Y-34319D01*
X63690Y-34728D01*
X63690Y-36089D01*
X63633Y-36112D01*
X63563Y-36183D01*
X63525Y-36275D01*
X63524Y-36374D01*
X63524Y-36624D01*
X63562Y-36716D01*
X63596Y-36749D01*
X63563Y-36783D01*
X63525Y-36875D01*
X63524Y-36974D01*
X63524Y-37224D01*
X63562Y-37316D01*
X63633Y-37386D01*
X63690Y-37410D01*
X63690Y-38589D01*
X63633Y-38612D01*
X63563Y-38683D01*
X63525Y-38775D01*
X63524Y-38874D01*
X63524Y-39124D01*
X63562Y-39216D01*
X63596Y-39250D01*
X63562Y-39283D01*
X63524Y-39375D01*
X63525Y-39437D01*
X63587Y-39500D01*
X63950Y-39500D01*
X63950Y-39492D01*
X64050Y-39492D01*
X64050Y-39500D01*
X64412Y-39500D01*
X64475Y-39437D01*
X64475Y-39375D01*
X64437Y-39283D01*
X64403Y-39250D01*
X64436Y-39216D01*
X64474Y-39124D01*
X64475Y-39025D01*
X64475Y-38775D01*
X64437Y-38683D01*
X64366Y-38613D01*
X64310Y-38589D01*
X64310Y-37410D01*
X64366Y-37387D01*
X64436Y-37316D01*
X64474Y-37224D01*
X64475Y-37125D01*
X64475Y-36875D01*
X64437Y-36783D01*
X64403Y-36750D01*
X64436Y-36716D01*
X64474Y-36624D01*
X64475Y-36525D01*
X64475Y-36275D01*
X64437Y-36183D01*
X64366Y-36113D01*
X64310Y-36089D01*
X64310Y-34600D01*
X64286Y-34481D01*
X64219Y-34380D01*
X64208Y-34370D01*
X64561Y-34370D01*
X64653Y-34332D01*
X64675Y-34310D01*
X64821Y-34310D01*
X64940Y-34428D01*
X64940Y-36089D01*
X64883Y-36112D01*
X64813Y-36183D01*
X64775Y-36275D01*
X64774Y-36374D01*
X64774Y-36624D01*
X64812Y-36716D01*
X64846Y-36749D01*
X64813Y-36783D01*
X64775Y-36875D01*
X64774Y-36974D01*
X64774Y-37224D01*
X64812Y-37316D01*
X64883Y-37386D01*
X64940Y-37410D01*
X64940Y-38589D01*
X64883Y-38612D01*
X64813Y-38683D01*
X64775Y-38775D01*
X64774Y-38874D01*
X64774Y-39124D01*
X64812Y-39216D01*
X64846Y-39250D01*
X64812Y-39283D01*
X64774Y-39375D01*
X64775Y-39437D01*
X64837Y-39500D01*
X65200Y-39500D01*
X65200Y-39492D01*
X65300Y-39492D01*
X65300Y-39500D01*
X65662Y-39500D01*
X65725Y-39437D01*
X65725Y-39375D01*
X65687Y-39283D01*
X65653Y-39250D01*
X65686Y-39216D01*
X65724Y-39124D01*
X65725Y-39025D01*
X65725Y-38775D01*
X65687Y-38683D01*
X65616Y-38613D01*
X65560Y-38589D01*
X65560Y-37410D01*
X65616Y-37387D01*
X65686Y-37316D01*
X65724Y-37224D01*
X65725Y-37125D01*
X65725Y-36875D01*
X65687Y-36783D01*
X65653Y-36750D01*
X65686Y-36716D01*
X65724Y-36624D01*
X65725Y-36525D01*
X65725Y-36275D01*
X65687Y-36183D01*
X65616Y-36113D01*
X65560Y-36089D01*
X65560Y-34300D01*
X65559Y-34299D01*
X65560Y-34299D01*
X65555Y-34276D01*
X65541Y-34208D01*
X65549Y-34209D01*
X65550Y-34210D01*
X65599Y-34210D01*
X65599Y-34249D01*
X65637Y-34341D01*
X65708Y-34411D01*
X65800Y-34449D01*
X65899Y-34450D01*
X65940Y-34450D01*
X65940Y-34900D01*
X65963Y-35018D01*
X66030Y-35119D01*
X66440Y-35528D01*
X66440Y-36089D01*
X66383Y-36112D01*
X66313Y-36183D01*
X66275Y-36275D01*
X66274Y-36374D01*
X66274Y-36624D01*
X66312Y-36716D01*
X66346Y-36750D01*
X66312Y-36783D01*
X66274Y-36875D01*
X66275Y-36937D01*
X66337Y-37000D01*
X66700Y-37000D01*
X66700Y-36992D01*
X66800Y-36992D01*
X66800Y-37000D01*
X67162Y-37000D01*
X67225Y-36937D01*
X67225Y-36875D01*
X67187Y-36783D01*
X67153Y-36750D01*
X67186Y-36716D01*
X67224Y-36624D01*
X67225Y-36525D01*
X67225Y-36275D01*
X67187Y-36183D01*
X67116Y-36113D01*
X67060Y-36089D01*
X67060Y-35400D01*
X67036Y-35281D01*
X66969Y-35180D01*
X66560Y-34771D01*
X66560Y-34450D01*
X66699Y-34450D01*
X66791Y-34412D01*
X66861Y-34341D01*
X66899Y-34249D01*
X66900Y-34150D01*
X66900Y-33550D01*
X66896Y-33540D01*
X66918Y-33536D01*
X67019Y-33469D01*
X67169Y-33319D01*
X67236Y-33218D01*
X67260Y-33100D01*
X67260Y-32252D01*
X67315Y-32274D01*
X67484Y-32275D01*
X67640Y-32210D01*
X67760Y-32091D01*
X67824Y-31934D01*
X67825Y-31765D01*
X67825Y-47070D01*
X67725Y-47219D01*
X67725Y-46715D01*
X67660Y-46559D01*
X67541Y-46439D01*
X67384Y-46375D01*
X67225Y-46374D01*
X67225Y-37224D01*
X67225Y-37162D01*
X67162Y-37100D01*
X66800Y-37100D01*
X66800Y-37362D01*
X66862Y-37425D01*
X66925Y-37425D01*
X67024Y-37424D01*
X67116Y-37386D01*
X67187Y-37316D01*
X67225Y-37224D01*
X67225Y-46374D01*
X67215Y-46374D01*
X67094Y-46425D01*
X66805Y-46425D01*
X66648Y-46268D01*
X66655Y-46259D01*
X66703Y-46186D01*
X66703Y-46186D01*
X66732Y-46042D01*
X66732Y-46042D01*
X66732Y-45861D01*
X66803Y-45832D01*
X66874Y-45761D01*
X66912Y-45669D01*
X66912Y-45570D01*
X66912Y-45330D01*
X66879Y-45250D01*
X66912Y-45169D01*
X66912Y-44830D01*
X66879Y-44749D01*
X66912Y-44669D01*
X66912Y-44570D01*
X66912Y-44330D01*
X66879Y-44249D01*
X66912Y-44169D01*
X66912Y-44070D01*
X66912Y-43830D01*
X66879Y-43749D01*
X66912Y-43669D01*
X66912Y-43570D01*
X66912Y-43330D01*
X66879Y-43249D01*
X66912Y-43169D01*
X66912Y-43070D01*
X66912Y-42830D01*
X66879Y-42750D01*
X66912Y-42669D01*
X66912Y-42330D01*
X66879Y-42250D01*
X66912Y-42169D01*
X66912Y-41830D01*
X66874Y-41738D01*
X66804Y-41668D01*
X66712Y-41630D01*
X66700Y-41630D01*
X66700Y-37362D01*
X66700Y-37100D01*
X66337Y-37100D01*
X66275Y-37162D01*
X66274Y-37224D01*
X66312Y-37316D01*
X66383Y-37386D01*
X66475Y-37424D01*
X66574Y-37425D01*
X66637Y-37425D01*
X66700Y-37362D01*
X66700Y-41630D01*
X66612Y-41629D01*
X66469Y-41630D01*
X66407Y-41692D01*
X66407Y-41950D01*
X66849Y-41950D01*
X66912Y-41887D01*
X66912Y-41830D01*
X66912Y-42169D01*
X66912Y-42112D01*
X66849Y-42050D01*
X66407Y-42050D01*
X66407Y-42192D01*
X66407Y-42307D01*
X66407Y-42450D01*
X66849Y-42450D01*
X66912Y-42387D01*
X66912Y-42330D01*
X66912Y-42669D01*
X66912Y-42612D01*
X66849Y-42550D01*
X66407Y-42550D01*
X66407Y-42557D01*
X66307Y-42557D01*
X66307Y-42550D01*
X66307Y-42450D01*
X66307Y-42307D01*
X66307Y-42192D01*
X66307Y-42050D01*
X66307Y-41950D01*
X66307Y-41692D01*
X66244Y-41630D01*
X66101Y-41629D01*
X66002Y-41630D01*
X65910Y-41668D01*
X65840Y-41738D01*
X65802Y-41830D01*
X65802Y-41887D01*
X65864Y-41950D01*
X66307Y-41950D01*
X66307Y-42050D01*
X65864Y-42050D01*
X65802Y-42112D01*
X65802Y-42169D01*
X65835Y-42250D01*
X65802Y-42330D01*
X65802Y-42387D01*
X65864Y-42450D01*
X66307Y-42450D01*
X66307Y-42550D01*
X65864Y-42550D01*
X65802Y-42612D01*
X65802Y-42669D01*
X65835Y-42750D01*
X65802Y-42830D01*
X65802Y-42929D01*
X65802Y-43169D01*
X65835Y-43250D01*
X65802Y-43330D01*
X65802Y-43429D01*
X65802Y-43669D01*
X65835Y-43750D01*
X65802Y-43830D01*
X65802Y-43929D01*
X65802Y-44169D01*
X65835Y-44250D01*
X65802Y-44330D01*
X65802Y-44429D01*
X65802Y-44669D01*
X65835Y-44750D01*
X65802Y-44830D01*
X65802Y-44887D01*
X65864Y-44950D01*
X66307Y-44950D01*
X66307Y-44942D01*
X66407Y-44942D01*
X66407Y-44950D01*
X66849Y-44950D01*
X66912Y-44887D01*
X66912Y-44830D01*
X66912Y-45169D01*
X66912Y-45112D01*
X66849Y-45050D01*
X66407Y-45050D01*
X66407Y-45057D01*
X66307Y-45057D01*
X66307Y-45050D01*
X65864Y-45050D01*
X65802Y-45112D01*
X65802Y-45169D01*
X65835Y-45250D01*
X65802Y-45330D01*
X65802Y-45429D01*
X65802Y-45669D01*
X65840Y-45761D01*
X65910Y-45831D01*
X65982Y-45861D01*
X65982Y-45887D01*
X65859Y-46009D01*
X65744Y-46125D01*
X65725Y-46125D01*
X65725Y-39724D01*
X65725Y-39662D01*
X65662Y-39600D01*
X65300Y-39600D01*
X65300Y-39862D01*
X65362Y-39925D01*
X65425Y-39925D01*
X65524Y-39924D01*
X65616Y-39886D01*
X65687Y-39816D01*
X65725Y-39724D01*
X65725Y-46125D01*
X65578Y-46125D01*
X65516Y-46063D01*
X65424Y-46025D01*
X65325Y-46024D01*
X65200Y-46024D01*
X65200Y-39862D01*
X65200Y-39600D01*
X64837Y-39600D01*
X64775Y-39662D01*
X64774Y-39724D01*
X64812Y-39816D01*
X64883Y-39886D01*
X64975Y-39924D01*
X65074Y-39925D01*
X65137Y-39925D01*
X65200Y-39862D01*
X65200Y-46024D01*
X65075Y-46024D01*
X64983Y-46062D01*
X64960Y-46086D01*
X64960Y-45250D01*
X64936Y-45131D01*
X64936Y-45131D01*
X64909Y-45091D01*
X64869Y-45030D01*
X64869Y-45030D01*
X64619Y-44780D01*
X64518Y-44713D01*
X64475Y-44704D01*
X64475Y-39724D01*
X64475Y-39662D01*
X64412Y-39600D01*
X64050Y-39600D01*
X64050Y-39862D01*
X64112Y-39925D01*
X64175Y-39925D01*
X64274Y-39924D01*
X64366Y-39886D01*
X64437Y-39816D01*
X64475Y-39724D01*
X64475Y-44704D01*
X64400Y-44690D01*
X64089Y-44690D01*
X64097Y-44669D01*
X64097Y-44570D01*
X64097Y-44330D01*
X64064Y-44249D01*
X64097Y-44169D01*
X64097Y-44070D01*
X64097Y-43830D01*
X64064Y-43749D01*
X64097Y-43669D01*
X64097Y-43570D01*
X64097Y-43330D01*
X64064Y-43249D01*
X64097Y-43169D01*
X64097Y-43070D01*
X64097Y-42830D01*
X64064Y-42750D01*
X64097Y-42669D01*
X64097Y-42330D01*
X64064Y-42250D01*
X64097Y-42169D01*
X64097Y-41830D01*
X64059Y-41738D01*
X63989Y-41668D01*
X63950Y-41651D01*
X63950Y-39862D01*
X63950Y-39600D01*
X63587Y-39600D01*
X63525Y-39662D01*
X63524Y-39724D01*
X63562Y-39816D01*
X63633Y-39886D01*
X63725Y-39924D01*
X63824Y-39925D01*
X63887Y-39925D01*
X63950Y-39862D01*
X63950Y-41651D01*
X63897Y-41630D01*
X63798Y-41629D01*
X63655Y-41630D01*
X63592Y-41692D01*
X63592Y-41950D01*
X64035Y-41950D01*
X64097Y-41887D01*
X64097Y-41830D01*
X64097Y-42169D01*
X64097Y-42112D01*
X64035Y-42050D01*
X63592Y-42050D01*
X63592Y-42192D01*
X63592Y-42307D01*
X63592Y-42450D01*
X64035Y-42450D01*
X64097Y-42387D01*
X64097Y-42330D01*
X64097Y-42669D01*
X64097Y-42612D01*
X64035Y-42550D01*
X63592Y-42550D01*
X63592Y-42557D01*
X63492Y-42557D01*
X63492Y-42550D01*
X63492Y-42450D01*
X63492Y-42307D01*
X63492Y-42192D01*
X63492Y-42050D01*
X63492Y-41950D01*
X63492Y-41692D01*
X63430Y-41630D01*
X63287Y-41629D01*
X63225Y-41630D01*
X63225Y-39724D01*
X63225Y-39662D01*
X63162Y-39600D01*
X62800Y-39600D01*
X62800Y-39862D01*
X62862Y-39925D01*
X62925Y-39925D01*
X63024Y-39924D01*
X63116Y-39886D01*
X63187Y-39816D01*
X63225Y-39724D01*
X63225Y-41630D01*
X63187Y-41630D01*
X63095Y-41668D01*
X63025Y-41738D01*
X62987Y-41830D01*
X62987Y-41887D01*
X63050Y-41950D01*
X63492Y-41950D01*
X63492Y-42050D01*
X63050Y-42050D01*
X62987Y-42112D01*
X62987Y-42169D01*
X63020Y-42250D01*
X62987Y-42330D01*
X62987Y-42387D01*
X63050Y-42450D01*
X63492Y-42450D01*
X63492Y-42550D01*
X63050Y-42550D01*
X62987Y-42612D01*
X62987Y-42669D01*
X62996Y-42690D01*
X62700Y-42690D01*
X62700Y-39862D01*
X62700Y-39600D01*
X62337Y-39600D01*
X62275Y-39662D01*
X62274Y-39724D01*
X62312Y-39816D01*
X62383Y-39886D01*
X62475Y-39924D01*
X62574Y-39925D01*
X62637Y-39925D01*
X62700Y-39862D01*
X62700Y-42690D01*
X61975Y-42690D01*
X61975Y-39724D01*
X61975Y-39662D01*
X61912Y-39600D01*
X61550Y-39600D01*
X61550Y-39862D01*
X61612Y-39925D01*
X61675Y-39925D01*
X61774Y-39924D01*
X61866Y-39886D01*
X61937Y-39816D01*
X61975Y-39724D01*
X61975Y-42690D01*
X61928Y-42690D01*
X61450Y-42211D01*
X61450Y-39862D01*
X61450Y-39600D01*
X61087Y-39600D01*
X61025Y-39662D01*
X61024Y-39724D01*
X61062Y-39816D01*
X61133Y-39886D01*
X61225Y-39924D01*
X61324Y-39925D01*
X61387Y-39925D01*
X61450Y-39862D01*
X61450Y-42211D01*
X61019Y-41780D01*
X60918Y-41713D01*
X60800Y-41690D01*
X58850Y-41690D01*
X58850Y-41675D01*
X58812Y-41583D01*
X58741Y-41513D01*
X58649Y-41475D01*
X58550Y-41474D01*
X58200Y-41474D01*
X58108Y-41512D01*
X58049Y-41571D01*
X57991Y-41513D01*
X57899Y-41475D01*
X57800Y-41474D01*
X57450Y-41474D01*
X57358Y-41512D01*
X57288Y-41583D01*
X57250Y-41675D01*
X57250Y-41690D01*
X55675Y-41690D01*
X55450Y-41690D01*
X55450Y-41675D01*
X55412Y-41583D01*
X55341Y-41513D01*
X55249Y-41475D01*
X55150Y-41474D01*
X54800Y-41474D01*
X54708Y-41512D01*
X54650Y-41571D01*
X54591Y-41512D01*
X54499Y-41474D01*
X54387Y-41475D01*
X54325Y-41537D01*
X54325Y-41950D01*
X54332Y-41950D01*
X54332Y-42050D01*
X54325Y-42050D01*
X54325Y-42462D01*
X54387Y-42525D01*
X54499Y-42525D01*
X54591Y-42487D01*
X54650Y-42428D01*
X54708Y-42486D01*
X54800Y-42524D01*
X54899Y-42525D01*
X55249Y-42525D01*
X55341Y-42487D01*
X55411Y-42416D01*
X55449Y-42324D01*
X55449Y-42310D01*
X55675Y-42310D01*
X57249Y-42310D01*
X57249Y-42324D01*
X57287Y-42416D01*
X57358Y-42486D01*
X57450Y-42524D01*
X57549Y-42525D01*
X57899Y-42525D01*
X57991Y-42487D01*
X58050Y-42428D01*
X58108Y-42486D01*
X58200Y-42524D01*
X58299Y-42525D01*
X58649Y-42525D01*
X58741Y-42487D01*
X58811Y-42416D01*
X58849Y-42324D01*
X58849Y-42310D01*
X60671Y-42310D01*
X61551Y-43190D01*
X61178Y-43190D01*
X61019Y-43030D01*
X60918Y-42963D01*
X60800Y-42940D01*
X58850Y-42940D01*
X58850Y-42925D01*
X58812Y-42833D01*
X58741Y-42763D01*
X58649Y-42725D01*
X58550Y-42724D01*
X58200Y-42724D01*
X58108Y-42762D01*
X58049Y-42821D01*
X57991Y-42763D01*
X57899Y-42725D01*
X57800Y-42724D01*
X57450Y-42724D01*
X57358Y-42762D01*
X57288Y-42833D01*
X57250Y-42925D01*
X57250Y-42940D01*
X55675Y-42940D01*
X55450Y-42940D01*
X55450Y-42925D01*
X55412Y-42833D01*
X55341Y-42763D01*
X55249Y-42725D01*
X55150Y-42724D01*
X54800Y-42724D01*
X54708Y-42762D01*
X54650Y-42821D01*
X54591Y-42762D01*
X54499Y-42724D01*
X54387Y-42725D01*
X54325Y-42787D01*
X54325Y-43200D01*
X54332Y-43200D01*
X54332Y-43300D01*
X54325Y-43300D01*
X54325Y-43712D01*
X54387Y-43775D01*
X54499Y-43775D01*
X54591Y-43737D01*
X54650Y-43678D01*
X54708Y-43736D01*
X54800Y-43774D01*
X54899Y-43775D01*
X55249Y-43775D01*
X55341Y-43737D01*
X55411Y-43666D01*
X55449Y-43574D01*
X55449Y-43560D01*
X55675Y-43560D01*
X57249Y-43560D01*
X57249Y-43574D01*
X57287Y-43666D01*
X57358Y-43736D01*
X57450Y-43774D01*
X57549Y-43775D01*
X57899Y-43775D01*
X57991Y-43737D01*
X58050Y-43678D01*
X58108Y-43736D01*
X58200Y-43774D01*
X58299Y-43775D01*
X58649Y-43775D01*
X58741Y-43737D01*
X58811Y-43666D01*
X58849Y-43574D01*
X58849Y-43560D01*
X60671Y-43560D01*
X60830Y-43719D01*
X60830Y-43719D01*
X60891Y-43759D01*
X60931Y-43786D01*
X60931Y-43786D01*
X61050Y-43810D01*
X61051Y-43810D01*
X60671Y-44190D01*
X58850Y-44190D01*
X58850Y-44175D01*
X58812Y-44083D01*
X58741Y-44013D01*
X58649Y-43975D01*
X58550Y-43974D01*
X58200Y-43974D01*
X58108Y-44012D01*
X58049Y-44071D01*
X57991Y-44013D01*
X57899Y-43975D01*
X57800Y-43974D01*
X57450Y-43974D01*
X57358Y-44012D01*
X57288Y-44083D01*
X57250Y-44175D01*
X57250Y-44190D01*
X55700Y-44190D01*
X55675Y-44190D01*
X55450Y-44190D01*
X55450Y-44175D01*
X55412Y-44083D01*
X55341Y-44013D01*
X55249Y-43975D01*
X55150Y-43974D01*
X54800Y-43974D01*
X54708Y-44012D01*
X54650Y-44071D01*
X54591Y-44012D01*
X54499Y-43974D01*
X54387Y-43975D01*
X54325Y-44037D01*
X54325Y-44450D01*
X54332Y-44450D01*
X54332Y-44550D01*
X54325Y-44550D01*
X54325Y-44962D01*
X54387Y-45025D01*
X54499Y-45025D01*
X54591Y-44987D01*
X54650Y-44928D01*
X54708Y-44986D01*
X54800Y-45024D01*
X54899Y-45025D01*
X55249Y-45025D01*
X55341Y-44987D01*
X55411Y-44916D01*
X55449Y-44824D01*
X55449Y-44810D01*
X55675Y-44810D01*
X55700Y-44810D01*
X57249Y-44810D01*
X57249Y-44824D01*
X57287Y-44916D01*
X57358Y-44986D01*
X57450Y-45024D01*
X57549Y-45025D01*
X57899Y-45025D01*
X57991Y-44987D01*
X58050Y-44928D01*
X58108Y-44986D01*
X58200Y-45024D01*
X58299Y-45025D01*
X58649Y-45025D01*
X58741Y-44987D01*
X58811Y-44916D01*
X58849Y-44824D01*
X58849Y-44810D01*
X60800Y-44810D01*
X60918Y-44786D01*
X61019Y-44719D01*
X61428Y-44310D01*
X61801Y-44310D01*
X60671Y-45440D01*
X58850Y-45440D01*
X58850Y-45425D01*
X58812Y-45333D01*
X58741Y-45263D01*
X58649Y-45225D01*
X58550Y-45224D01*
X58200Y-45224D01*
X58108Y-45262D01*
X58049Y-45321D01*
X57991Y-45263D01*
X57899Y-45225D01*
X57800Y-45224D01*
X57450Y-45224D01*
X57358Y-45262D01*
X57288Y-45333D01*
X57250Y-45425D01*
X57250Y-45440D01*
X55675Y-45440D01*
X55450Y-45440D01*
X55450Y-45425D01*
X55412Y-45333D01*
X55341Y-45263D01*
X55249Y-45225D01*
X55150Y-45224D01*
X54800Y-45224D01*
X54708Y-45262D01*
X54650Y-45321D01*
X54591Y-45262D01*
X54499Y-45224D01*
X54387Y-45225D01*
X54325Y-45287D01*
X54325Y-45700D01*
X54332Y-45700D01*
X54332Y-45800D01*
X54325Y-45800D01*
X54325Y-45807D01*
X54225Y-45807D01*
X54225Y-45800D01*
X54225Y-45700D01*
X54225Y-45287D01*
X54225Y-44962D01*
X54225Y-44550D01*
X54225Y-44450D01*
X54225Y-44037D01*
X54225Y-43712D01*
X54225Y-43300D01*
X54225Y-43200D01*
X54225Y-42787D01*
X54225Y-42462D01*
X54225Y-42050D01*
X54225Y-41950D01*
X54225Y-41537D01*
X54162Y-41475D01*
X54050Y-41474D01*
X53958Y-41512D01*
X53888Y-41583D01*
X53850Y-41675D01*
X53849Y-41774D01*
X53850Y-41887D01*
X53912Y-41950D01*
X54225Y-41950D01*
X54225Y-42050D01*
X53912Y-42050D01*
X53850Y-42112D01*
X53849Y-42225D01*
X53850Y-42324D01*
X53888Y-42416D01*
X53958Y-42487D01*
X54050Y-42525D01*
X54162Y-42525D01*
X54225Y-42462D01*
X54225Y-42787D01*
X54162Y-42725D01*
X54050Y-42724D01*
X53958Y-42762D01*
X53888Y-42833D01*
X53850Y-42925D01*
X53849Y-43024D01*
X53850Y-43137D01*
X53912Y-43200D01*
X54225Y-43200D01*
X54225Y-43300D01*
X53912Y-43300D01*
X53850Y-43362D01*
X53849Y-43475D01*
X53850Y-43574D01*
X53888Y-43666D01*
X53958Y-43737D01*
X54050Y-43775D01*
X54162Y-43775D01*
X54225Y-43712D01*
X54225Y-44037D01*
X54162Y-43975D01*
X54050Y-43974D01*
X53958Y-44012D01*
X53888Y-44083D01*
X53850Y-44175D01*
X53849Y-44274D01*
X53850Y-44387D01*
X53912Y-44450D01*
X54225Y-44450D01*
X54225Y-44550D01*
X53912Y-44550D01*
X53850Y-44612D01*
X53849Y-44725D01*
X53850Y-44824D01*
X53888Y-44916D01*
X53958Y-44987D01*
X54050Y-45025D01*
X54162Y-45025D01*
X54225Y-44962D01*
X54225Y-45287D01*
X54162Y-45225D01*
X54050Y-45224D01*
X53958Y-45262D01*
X53888Y-45333D01*
X53850Y-45425D01*
X53849Y-45524D01*
X53850Y-45637D01*
X53912Y-45700D01*
X54225Y-45700D01*
X54225Y-45800D01*
X53912Y-45800D01*
X53850Y-45862D01*
X53849Y-45975D01*
X53850Y-46074D01*
X53888Y-46166D01*
X53911Y-46190D01*
X52547Y-46190D01*
X52547Y-45902D01*
X52562Y-45902D01*
X52653Y-45864D01*
X52724Y-45793D01*
X52762Y-45701D01*
X52762Y-45602D01*
X52762Y-44460D01*
X52724Y-44368D01*
X52654Y-44298D01*
X52562Y-44260D01*
X52547Y-44260D01*
X52547Y-43540D01*
X52562Y-43540D01*
X52653Y-43502D01*
X52724Y-43431D01*
X52762Y-43339D01*
X52762Y-43240D01*
X52762Y-42098D01*
X52724Y-42006D01*
X52654Y-41936D01*
X52562Y-41898D01*
X52462Y-41897D01*
X51911Y-41897D01*
X51820Y-41935D01*
X51749Y-42006D01*
X51711Y-42098D01*
X51711Y-42197D01*
X51711Y-43339D01*
X51749Y-43431D01*
X51819Y-43501D01*
X51911Y-43539D01*
X51927Y-43539D01*
X51927Y-44259D01*
X51911Y-44259D01*
X51820Y-44297D01*
X51749Y-44368D01*
X51711Y-44460D01*
X51711Y-44559D01*
X51711Y-45701D01*
X51749Y-45793D01*
X51819Y-45863D01*
X51911Y-45901D01*
X51927Y-45901D01*
X51927Y-46025D01*
X51924Y-46025D01*
X51825Y-46024D01*
X51575Y-46024D01*
X51483Y-46062D01*
X51450Y-46096D01*
X51416Y-46062D01*
X51324Y-46024D01*
X51262Y-46025D01*
X51200Y-46087D01*
X51200Y-46450D01*
X51207Y-46450D01*
X51207Y-46550D01*
X51200Y-46550D01*
X51200Y-46912D01*
X51262Y-46975D01*
X51324Y-46975D01*
X51416Y-46937D01*
X51449Y-46903D01*
X51483Y-46936D01*
X51575Y-46974D01*
X51674Y-46975D01*
X51924Y-46975D01*
X52016Y-46937D01*
X52086Y-46866D01*
X52110Y-46810D01*
X60800Y-46810D01*
X60918Y-46786D01*
X61019Y-46719D01*
X61928Y-45810D01*
X63074Y-45810D01*
X63095Y-45831D01*
X63187Y-45869D01*
X63287Y-45870D01*
X63897Y-45870D01*
X63989Y-45832D01*
X64059Y-45761D01*
X64097Y-45669D01*
X64097Y-45570D01*
X64097Y-45330D01*
X64089Y-45310D01*
X64271Y-45310D01*
X64340Y-45378D01*
X64340Y-46106D01*
X64313Y-46133D01*
X64275Y-46225D01*
X64274Y-46324D01*
X64274Y-46774D01*
X64312Y-46866D01*
X64383Y-46936D01*
X64475Y-46974D01*
X64574Y-46975D01*
X64824Y-46975D01*
X64916Y-46937D01*
X64949Y-46903D01*
X64983Y-46936D01*
X65075Y-46974D01*
X65174Y-46975D01*
X65424Y-46975D01*
X65516Y-46937D01*
X65578Y-46875D01*
X65900Y-46875D01*
X66043Y-46846D01*
X66117Y-46797D01*
X66384Y-47065D01*
X66384Y-47065D01*
X66506Y-47146D01*
X66649Y-47174D01*
X66650Y-47175D01*
X67094Y-47175D01*
X67215Y-47224D01*
X67384Y-47225D01*
X67540Y-47160D01*
X67660Y-47041D01*
X67724Y-46884D01*
X67725Y-46715D01*
X67725Y-47219D01*
X67723Y-47222D01*
X67505Y-47368D01*
X67218Y-47425D01*
X51100Y-47425D01*
X51100Y-46912D01*
X51100Y-46550D01*
X51100Y-46450D01*
X51100Y-46087D01*
X51037Y-46025D01*
X50975Y-46024D01*
X50883Y-46062D01*
X50813Y-46133D01*
X50775Y-46225D01*
X50774Y-46324D01*
X50775Y-46387D01*
X50837Y-46450D01*
X51100Y-46450D01*
X51100Y-46550D01*
X50837Y-46550D01*
X50775Y-46612D01*
X50774Y-46675D01*
X50775Y-46774D01*
X50813Y-46866D01*
X50883Y-46937D01*
X50975Y-46975D01*
X51037Y-46975D01*
X51100Y-46912D01*
X51100Y-47425D01*
X50034Y-47425D01*
X49647Y-47348D01*
X49351Y-47150D01*
X49150Y-46850D01*
X49075Y-46468D01*
X49075Y-29281D01*
X49131Y-28994D01*
X49277Y-28776D01*
X49493Y-28632D01*
X49783Y-28575D01*
X67218Y-28575D01*
X67505Y-28631D01*
X67723Y-28777D01*
X67867Y-28993D01*
X67925Y-29283D01*
X67925Y-46716D01*
X67925Y-46716D01*
G37*
G54D30*
X67925Y-46716D02*
X67867Y-47006D01*
X67825Y-47070D01*
X67825Y-31765D01*
X67775Y-31644D01*
X67775Y-30550D01*
X67774Y-30549D01*
X67746Y-30406D01*
X67665Y-30284D01*
X67665Y-30284D01*
X67365Y-29984D01*
X67357Y-29979D01*
X67379Y-29926D01*
X67380Y-29827D01*
X67380Y-29454D01*
X67379Y-29355D01*
X67341Y-29263D01*
X67271Y-29192D01*
X67179Y-29154D01*
X67006Y-29155D01*
X66944Y-29217D01*
X66944Y-29591D01*
X67317Y-29591D01*
X67380Y-29528D01*
X67380Y-29454D01*
X67380Y-29827D01*
X67380Y-29753D01*
X67317Y-29691D01*
X66944Y-29691D01*
X66944Y-29698D01*
X66844Y-29698D01*
X66844Y-29691D01*
X66836Y-29691D01*
X66836Y-29591D01*
X66844Y-29591D01*
X66844Y-29217D01*
X66781Y-29155D01*
X66608Y-29154D01*
X66516Y-29192D01*
X66500Y-29209D01*
X66483Y-29193D01*
X66391Y-29155D01*
X66292Y-29154D01*
X65820Y-29154D01*
X65728Y-29192D01*
X65658Y-29263D01*
X65620Y-29355D01*
X65619Y-29454D01*
X65619Y-29481D01*
X65219Y-29080D01*
X65118Y-29013D01*
X65000Y-28990D01*
X64950Y-28990D01*
X61600Y-28990D01*
X61481Y-29013D01*
X61380Y-29080D01*
X60871Y-29590D01*
X59750Y-29590D01*
X59631Y-29613D01*
X59530Y-29680D01*
X58580Y-30630D01*
X58513Y-30731D01*
X58490Y-30850D01*
X58490Y-31800D01*
X58513Y-31918D01*
X58580Y-32019D01*
X58780Y-32219D01*
X58881Y-32286D01*
X58903Y-32290D01*
X58900Y-32300D01*
X58899Y-32399D01*
X58899Y-32999D01*
X58937Y-33091D01*
X59008Y-33161D01*
X59100Y-33199D01*
X59199Y-33200D01*
X59240Y-33200D01*
X59240Y-33250D01*
X59263Y-33368D01*
X59330Y-33469D01*
X59361Y-33500D01*
X59330Y-33530D01*
X59263Y-33631D01*
X59249Y-33699D01*
X59225Y-33699D01*
X59133Y-33737D01*
X59063Y-33808D01*
X59025Y-33900D01*
X59024Y-33999D01*
X59024Y-34349D01*
X59062Y-34441D01*
X59121Y-34500D01*
X59063Y-34558D01*
X59060Y-34565D01*
X58887Y-34565D01*
X58887Y-34450D01*
X58887Y-33300D01*
X57813Y-33300D01*
X57813Y-34450D01*
X58887Y-34450D01*
X58887Y-34565D01*
X57703Y-34565D01*
X57610Y-34471D01*
X57610Y-33550D01*
X57609Y-33549D01*
X57610Y-33549D01*
X57605Y-33526D01*
X57586Y-33431D01*
X57586Y-33431D01*
X57519Y-33330D01*
X57519Y-33330D01*
X57219Y-33030D01*
X57118Y-32963D01*
X57049Y-32949D01*
X57050Y-32850D01*
X57050Y-32250D01*
X57012Y-32158D01*
X56941Y-32088D01*
X56849Y-32050D01*
X56750Y-32049D01*
X56129Y-32049D01*
X56129Y-30625D01*
X56125Y-30536D01*
X56125Y-29775D01*
X56125Y-29225D01*
X56087Y-29133D01*
X56016Y-29063D01*
X55924Y-29025D01*
X55825Y-29024D01*
X55275Y-29024D01*
X55183Y-29062D01*
X55113Y-29133D01*
X55075Y-29225D01*
X55074Y-29324D01*
X55074Y-29874D01*
X55112Y-29966D01*
X55183Y-30036D01*
X55275Y-30074D01*
X55362Y-30075D01*
X55327Y-30089D01*
X55302Y-30182D01*
X55600Y-30479D01*
X55897Y-30182D01*
X55872Y-30089D01*
X55831Y-30075D01*
X55924Y-30075D01*
X56016Y-30037D01*
X56086Y-29966D01*
X56124Y-29874D01*
X56125Y-29775D01*
X56125Y-30536D01*
X56118Y-30417D01*
X56060Y-30277D01*
X55967Y-30252D01*
X55670Y-30550D01*
X55967Y-30847D01*
X56060Y-30822D01*
X56129Y-30625D01*
X56129Y-32049D01*
X55950Y-32049D01*
X55897Y-32072D01*
X55897Y-30917D01*
X55600Y-30620D01*
X55529Y-30691D01*
X55529Y-30550D01*
X55232Y-30252D01*
X55139Y-30277D01*
X55070Y-30474D01*
X55081Y-30682D01*
X55139Y-30822D01*
X55232Y-30847D01*
X55529Y-30550D01*
X55529Y-30691D01*
X55302Y-30917D01*
X55327Y-31010D01*
X55524Y-31079D01*
X55732Y-31068D01*
X55872Y-31010D01*
X55897Y-30917D01*
X55897Y-32072D01*
X55858Y-32087D01*
X55788Y-32158D01*
X55750Y-32250D01*
X55750Y-32299D01*
X55681Y-32313D01*
X55641Y-32340D01*
X55580Y-32380D01*
X55580Y-32380D01*
X55330Y-32630D01*
X55263Y-32731D01*
X55240Y-32850D01*
X55240Y-33071D01*
X55193Y-33118D01*
X55081Y-33118D01*
X55081Y-33052D01*
X55077Y-33044D01*
X55081Y-33035D01*
X55081Y-33013D01*
X55053Y-32986D01*
X55043Y-32960D01*
X54972Y-32890D01*
X54950Y-32881D01*
X55018Y-32881D01*
X55081Y-32818D01*
X55081Y-32796D01*
X55043Y-32704D01*
X54972Y-32634D01*
X54881Y-32596D01*
X54781Y-32595D01*
X54693Y-32596D01*
X54631Y-32658D01*
X54631Y-32851D01*
X54531Y-32851D01*
X54531Y-32658D01*
X54492Y-32620D01*
X54569Y-32569D01*
X54708Y-32430D01*
X54775Y-32329D01*
X54798Y-32211D01*
X54798Y-31925D01*
X54866Y-31898D01*
X54936Y-31827D01*
X54974Y-31735D01*
X54975Y-31636D01*
X54975Y-31164D01*
X54937Y-31072D01*
X54866Y-31002D01*
X54798Y-30974D01*
X54798Y-30325D01*
X54866Y-30298D01*
X54936Y-30227D01*
X54974Y-30135D01*
X54975Y-30036D01*
X54975Y-29564D01*
X54937Y-29472D01*
X54866Y-29402D01*
X54774Y-29364D01*
X54675Y-29363D01*
X54203Y-29363D01*
X54111Y-29401D01*
X54041Y-29472D01*
X54003Y-29564D01*
X54002Y-29663D01*
X54002Y-30135D01*
X54040Y-30227D01*
X54111Y-30297D01*
X54178Y-30325D01*
X54178Y-30974D01*
X54111Y-31001D01*
X54041Y-31072D01*
X54003Y-31164D01*
X54002Y-31263D01*
X54002Y-31735D01*
X54040Y-31827D01*
X54111Y-31897D01*
X54178Y-31925D01*
X54178Y-32040D01*
X54000Y-32040D01*
X53881Y-32063D01*
X53780Y-32130D01*
X53597Y-32314D01*
X53597Y-31636D01*
X53597Y-31164D01*
X53559Y-31072D01*
X53488Y-31002D01*
X53396Y-30964D01*
X53297Y-30963D01*
X53063Y-30963D01*
X52810Y-30710D01*
X52810Y-30329D01*
X52825Y-30335D01*
X52924Y-30336D01*
X53396Y-30336D01*
X53488Y-30298D01*
X53558Y-30227D01*
X53596Y-30135D01*
X53597Y-30036D01*
X53597Y-29564D01*
X53559Y-29472D01*
X53488Y-29402D01*
X53396Y-29364D01*
X53297Y-29363D01*
X53063Y-29363D01*
X52680Y-28980D01*
X52579Y-28913D01*
X52461Y-28890D01*
X50600Y-28890D01*
X50599Y-28890D01*
X50576Y-28894D01*
X50481Y-28913D01*
X50380Y-28980D01*
X50380Y-28980D01*
X50186Y-29174D01*
X50166Y-29204D01*
X50120Y-29204D01*
X50028Y-29242D01*
X49958Y-29313D01*
X49920Y-29405D01*
X49919Y-29504D01*
X49919Y-29976D01*
X49957Y-30068D01*
X50028Y-30138D01*
X50120Y-30176D01*
X50219Y-30177D01*
X50691Y-30177D01*
X50783Y-30139D01*
X50799Y-30122D01*
X50816Y-30138D01*
X50908Y-30176D01*
X51007Y-30177D01*
X51479Y-30177D01*
X51571Y-30139D01*
X51641Y-30068D01*
X51669Y-30001D01*
X52162Y-30001D01*
X52190Y-30028D01*
X52190Y-30838D01*
X52213Y-30957D01*
X52280Y-31058D01*
X52624Y-31402D01*
X52624Y-31735D01*
X52662Y-31827D01*
X52733Y-31897D01*
X52825Y-31935D01*
X52924Y-31936D01*
X53396Y-31936D01*
X53488Y-31898D01*
X53558Y-31827D01*
X53596Y-31735D01*
X53597Y-31636D01*
X53597Y-32314D01*
X53580Y-32330D01*
X53513Y-32431D01*
X53490Y-32550D01*
X53490Y-32801D01*
X53385Y-32696D01*
X53284Y-32629D01*
X53166Y-32606D01*
X52542Y-32606D01*
X52518Y-32596D01*
X52419Y-32595D01*
X51934Y-32595D01*
X51910Y-32571D01*
X51910Y-32400D01*
X51886Y-32281D01*
X51819Y-32180D01*
X51619Y-31980D01*
X51518Y-31913D01*
X51465Y-31903D01*
X51437Y-31833D01*
X51366Y-31763D01*
X51274Y-31725D01*
X51175Y-31724D01*
X50925Y-31724D01*
X50833Y-31762D01*
X50810Y-31786D01*
X50810Y-31778D01*
X51019Y-31569D01*
X51019Y-31569D01*
X51019Y-31569D01*
X51054Y-31516D01*
X51164Y-31516D01*
X51256Y-31478D01*
X51326Y-31408D01*
X51364Y-31316D01*
X51365Y-31216D01*
X51365Y-30625D01*
X51327Y-30534D01*
X51256Y-30463D01*
X51164Y-30425D01*
X51065Y-30425D01*
X50435Y-30425D01*
X50343Y-30463D01*
X50273Y-30533D01*
X50235Y-30625D01*
X50234Y-30725D01*
X50234Y-31316D01*
X50272Y-31407D01*
X50288Y-31423D01*
X50280Y-31430D01*
X50213Y-31531D01*
X50190Y-31650D01*
X50190Y-31806D01*
X50163Y-31833D01*
X50125Y-31925D01*
X50124Y-32024D01*
X50124Y-32474D01*
X50162Y-32566D01*
X50190Y-32593D01*
X50190Y-32850D01*
X50213Y-32968D01*
X50280Y-33069D01*
X50600Y-33389D01*
X50600Y-33389D01*
X50701Y-33456D01*
X50701Y-33456D01*
X50704Y-33457D01*
X50704Y-33457D01*
X50630Y-33530D01*
X50563Y-33631D01*
X50540Y-33750D01*
X50540Y-34549D01*
X50400Y-34549D01*
X50308Y-34587D01*
X50238Y-34658D01*
X50200Y-34750D01*
X50199Y-34849D01*
X50199Y-35449D01*
X50237Y-35541D01*
X50308Y-35611D01*
X50400Y-35649D01*
X50499Y-35650D01*
X51299Y-35650D01*
X51391Y-35612D01*
X51461Y-35541D01*
X51499Y-35449D01*
X51500Y-35350D01*
X51500Y-34750D01*
X51462Y-34658D01*
X51391Y-34588D01*
X51299Y-34550D01*
X51200Y-34549D01*
X51160Y-34549D01*
X51160Y-33878D01*
X51300Y-33738D01*
X51718Y-33738D01*
X51718Y-33803D01*
X51756Y-33895D01*
X51827Y-33965D01*
X51918Y-34003D01*
X52018Y-34004D01*
X52518Y-34004D01*
X52610Y-33966D01*
X52680Y-33895D01*
X52718Y-33803D01*
X52718Y-33801D01*
X52730Y-33819D01*
X52980Y-34069D01*
X52980Y-34069D01*
X53041Y-34109D01*
X53081Y-34136D01*
X53081Y-34136D01*
X53200Y-34160D01*
X53550Y-34160D01*
X53590Y-34152D01*
X53590Y-34661D01*
X53541Y-34613D01*
X53449Y-34575D01*
X53350Y-34574D01*
X53000Y-34574D01*
X52908Y-34612D01*
X52849Y-34671D01*
X52791Y-34613D01*
X52699Y-34575D01*
X52600Y-34574D01*
X52250Y-34574D01*
X52158Y-34612D01*
X52088Y-34683D01*
X52050Y-34775D01*
X52049Y-34874D01*
X52049Y-35424D01*
X52087Y-35516D01*
X52158Y-35586D01*
X52165Y-35589D01*
X52165Y-35910D01*
X52158Y-35912D01*
X52088Y-35983D01*
X52050Y-36075D01*
X52049Y-36174D01*
X52049Y-36724D01*
X52087Y-36816D01*
X52158Y-36886D01*
X52250Y-36924D01*
X52349Y-36925D01*
X52699Y-36925D01*
X52791Y-36887D01*
X52850Y-36828D01*
X52908Y-36886D01*
X53000Y-36924D01*
X53099Y-36925D01*
X53449Y-36925D01*
X53541Y-36887D01*
X53611Y-36816D01*
X53614Y-36810D01*
X54600Y-36810D01*
X54718Y-36786D01*
X54735Y-36775D01*
X54919Y-36775D01*
X55011Y-36737D01*
X55081Y-36666D01*
X55119Y-36574D01*
X55120Y-36475D01*
X55120Y-36125D01*
X55082Y-36033D01*
X55075Y-36026D01*
X55075Y-35712D01*
X55075Y-35400D01*
X54817Y-35400D01*
X54755Y-35462D01*
X54754Y-35475D01*
X54755Y-35574D01*
X54793Y-35666D01*
X54863Y-35737D01*
X54955Y-35775D01*
X55012Y-35775D01*
X55075Y-35712D01*
X55075Y-36026D01*
X55011Y-35963D01*
X54919Y-35925D01*
X54820Y-35924D01*
X54580Y-35924D01*
X54488Y-35962D01*
X54418Y-36033D01*
X54380Y-36125D01*
X54379Y-36190D01*
X53650Y-36190D01*
X53650Y-36075D01*
X53612Y-35983D01*
X53541Y-35913D01*
X53449Y-35875D01*
X53350Y-35874D01*
X53000Y-35874D01*
X52908Y-35912D01*
X52849Y-35971D01*
X52791Y-35913D01*
X52785Y-35910D01*
X52785Y-35589D01*
X52791Y-35587D01*
X52850Y-35528D01*
X52908Y-35586D01*
X53000Y-35624D01*
X53099Y-35625D01*
X53449Y-35625D01*
X53541Y-35587D01*
X53611Y-35516D01*
X53649Y-35424D01*
X53649Y-35410D01*
X53750Y-35410D01*
X53868Y-35386D01*
X53969Y-35319D01*
X54004Y-35283D01*
X54004Y-35574D01*
X54042Y-35666D01*
X54113Y-35736D01*
X54205Y-35774D01*
X54304Y-35775D01*
X54544Y-35775D01*
X54636Y-35737D01*
X54706Y-35666D01*
X54744Y-35574D01*
X54745Y-35475D01*
X54745Y-35125D01*
X54707Y-35033D01*
X54685Y-35011D01*
X54685Y-35003D01*
X54728Y-34960D01*
X54870Y-34960D01*
X54863Y-34962D01*
X54793Y-35033D01*
X54755Y-35125D01*
X54754Y-35224D01*
X54755Y-35237D01*
X54817Y-35300D01*
X55075Y-35300D01*
X55075Y-35292D01*
X55175Y-35292D01*
X55175Y-35300D01*
X55432Y-35300D01*
X55495Y-35237D01*
X55495Y-35224D01*
X55494Y-35125D01*
X55456Y-35033D01*
X55386Y-34962D01*
X55379Y-34960D01*
X56100Y-34960D01*
X56218Y-34936D01*
X56319Y-34869D01*
X56619Y-34569D01*
X56619Y-34569D01*
X56619Y-34569D01*
X56686Y-34468D01*
X56686Y-34468D01*
X56690Y-34450D01*
X56849Y-34450D01*
X56941Y-34412D01*
X56990Y-34363D01*
X56990Y-34600D01*
X57013Y-34718D01*
X57080Y-34819D01*
X57355Y-35094D01*
X57456Y-35161D01*
X57575Y-35185D01*
X59060Y-35185D01*
X59062Y-35191D01*
X59133Y-35261D01*
X59225Y-35299D01*
X59324Y-35300D01*
X59874Y-35300D01*
X59966Y-35262D01*
X59974Y-35254D01*
X60125Y-35405D01*
X60125Y-35794D01*
X60075Y-35915D01*
X60074Y-36084D01*
X60125Y-36205D01*
X60125Y-39500D01*
X60125Y-39644D01*
X59894Y-39875D01*
X58755Y-39875D01*
X58634Y-39825D01*
X58465Y-39824D01*
X58344Y-39875D01*
X56055Y-39875D01*
X55934Y-39825D01*
X55765Y-39824D01*
X55644Y-39875D01*
X55495Y-39875D01*
X55495Y-35475D01*
X55495Y-35462D01*
X55432Y-35400D01*
X55175Y-35400D01*
X55175Y-35712D01*
X55237Y-35775D01*
X55294Y-35775D01*
X55386Y-35737D01*
X55456Y-35666D01*
X55494Y-35574D01*
X55495Y-35475D01*
X55495Y-39875D01*
X54750Y-39875D01*
X53800Y-39875D01*
X51500Y-39875D01*
X51500Y-36749D01*
X51500Y-36050D01*
X51462Y-35958D01*
X51391Y-35888D01*
X51299Y-35850D01*
X51200Y-35849D01*
X50962Y-35850D01*
X50900Y-35912D01*
X50900Y-36350D01*
X51437Y-36350D01*
X51500Y-36287D01*
X51500Y-36050D01*
X51500Y-36749D01*
X51500Y-36512D01*
X51437Y-36450D01*
X50900Y-36450D01*
X50900Y-36887D01*
X50962Y-36950D01*
X51200Y-36950D01*
X51299Y-36949D01*
X51391Y-36911D01*
X51462Y-36841D01*
X51500Y-36749D01*
X51500Y-39875D01*
X51300Y-39875D01*
X51156Y-39903D01*
X51034Y-39984D01*
X50800Y-40219D01*
X50800Y-36887D01*
X50800Y-36450D01*
X50800Y-36350D01*
X50800Y-35912D01*
X50737Y-35850D01*
X50499Y-35849D01*
X50400Y-35850D01*
X50308Y-35888D01*
X50237Y-35958D01*
X50199Y-36050D01*
X50200Y-36287D01*
X50262Y-36350D01*
X50800Y-36350D01*
X50800Y-36450D01*
X50262Y-36450D01*
X50200Y-36512D01*
X50199Y-36749D01*
X50237Y-36841D01*
X50308Y-36911D01*
X50400Y-36949D01*
X50499Y-36950D01*
X50737Y-36950D01*
X50800Y-36887D01*
X50800Y-40219D01*
X50409Y-40609D01*
X50397Y-40621D01*
X50316Y-40743D01*
X50288Y-40887D01*
X50300Y-40947D01*
X50300Y-41913D01*
X50246Y-41935D01*
X50175Y-42006D01*
X50137Y-42098D01*
X50137Y-42197D01*
X50137Y-43339D01*
X50175Y-43431D01*
X50245Y-43501D01*
X50288Y-43519D01*
X50288Y-44280D01*
X50246Y-44297D01*
X50175Y-44368D01*
X50137Y-44460D01*
X50137Y-44559D01*
X50137Y-45701D01*
X50175Y-45793D01*
X50245Y-45863D01*
X50337Y-45901D01*
X50437Y-45902D01*
X50988Y-45902D01*
X51079Y-45864D01*
X51150Y-45793D01*
X51188Y-45701D01*
X51188Y-45602D01*
X51188Y-44460D01*
X51150Y-44368D01*
X51080Y-44298D01*
X51038Y-44280D01*
X51038Y-43519D01*
X51079Y-43502D01*
X51150Y-43431D01*
X51188Y-43339D01*
X51188Y-43240D01*
X51188Y-42098D01*
X51150Y-42006D01*
X51080Y-41936D01*
X51050Y-41923D01*
X51050Y-41030D01*
X51455Y-40625D01*
X53800Y-40625D01*
X54750Y-40625D01*
X55644Y-40625D01*
X55765Y-40674D01*
X55934Y-40675D01*
X56055Y-40625D01*
X58344Y-40625D01*
X58465Y-40674D01*
X58634Y-40675D01*
X58755Y-40625D01*
X60050Y-40625D01*
X60193Y-40596D01*
X60315Y-40515D01*
X60765Y-40065D01*
X60846Y-39943D01*
X60875Y-39800D01*
X60875Y-39500D01*
X60875Y-36205D01*
X60924Y-36084D01*
X60925Y-35915D01*
X60875Y-35794D01*
X60875Y-35250D01*
X60846Y-35106D01*
X60765Y-34984D01*
X60765Y-34984D01*
X60390Y-34609D01*
X60268Y-34528D01*
X60125Y-34500D01*
X59978Y-34500D01*
X59978Y-34499D01*
X60036Y-34441D01*
X60074Y-34349D01*
X60075Y-34250D01*
X60075Y-33900D01*
X60037Y-33810D01*
X60846Y-33810D01*
X60837Y-33830D01*
X60837Y-33929D01*
X60837Y-34169D01*
X60875Y-34261D01*
X60945Y-34331D01*
X61037Y-34369D01*
X61082Y-34369D01*
X61082Y-34542D01*
X61106Y-34661D01*
X61173Y-34761D01*
X61190Y-34778D01*
X61190Y-36089D01*
X61133Y-36112D01*
X61063Y-36183D01*
X61025Y-36275D01*
X61024Y-36374D01*
X61024Y-36624D01*
X61062Y-36716D01*
X61096Y-36749D01*
X61063Y-36783D01*
X61025Y-36875D01*
X61024Y-36974D01*
X61024Y-37224D01*
X61062Y-37316D01*
X61133Y-37386D01*
X61190Y-37410D01*
X61190Y-38589D01*
X61133Y-38612D01*
X61063Y-38683D01*
X61025Y-38775D01*
X61024Y-38874D01*
X61024Y-39124D01*
X61062Y-39216D01*
X61096Y-39250D01*
X61062Y-39283D01*
X61024Y-39375D01*
X61025Y-39437D01*
X61087Y-39500D01*
X61450Y-39500D01*
X61450Y-39492D01*
X61550Y-39492D01*
X61550Y-39500D01*
X61912Y-39500D01*
X61975Y-39437D01*
X61975Y-39375D01*
X61937Y-39283D01*
X61903Y-39250D01*
X61936Y-39216D01*
X61974Y-39124D01*
X61975Y-39025D01*
X61975Y-38775D01*
X61937Y-38683D01*
X61866Y-38613D01*
X61810Y-38589D01*
X61810Y-37410D01*
X61866Y-37387D01*
X61936Y-37316D01*
X61974Y-37224D01*
X61975Y-37125D01*
X61975Y-36875D01*
X61937Y-36783D01*
X61903Y-36750D01*
X61936Y-36716D01*
X61974Y-36624D01*
X61975Y-36525D01*
X61975Y-36275D01*
X61937Y-36183D01*
X61866Y-36113D01*
X61810Y-36089D01*
X61810Y-34650D01*
X61786Y-34531D01*
X61719Y-34430D01*
X61702Y-34414D01*
X61702Y-34370D01*
X61747Y-34370D01*
X61839Y-34332D01*
X61909Y-34261D01*
X61915Y-34246D01*
X61930Y-34269D01*
X62440Y-34778D01*
X62440Y-36089D01*
X62383Y-36112D01*
X62313Y-36183D01*
X62275Y-36275D01*
X62274Y-36374D01*
X62274Y-36624D01*
X62312Y-36716D01*
X62346Y-36749D01*
X62313Y-36783D01*
X62275Y-36875D01*
X62274Y-36974D01*
X62274Y-37224D01*
X62312Y-37316D01*
X62383Y-37386D01*
X62440Y-37410D01*
X62440Y-38589D01*
X62383Y-38612D01*
X62313Y-38683D01*
X62275Y-38775D01*
X62274Y-38874D01*
X62274Y-39124D01*
X62312Y-39216D01*
X62346Y-39250D01*
X62312Y-39283D01*
X62274Y-39375D01*
X62275Y-39437D01*
X62337Y-39500D01*
X62700Y-39500D01*
X62700Y-39492D01*
X62800Y-39492D01*
X62800Y-39500D01*
X63162Y-39500D01*
X63225Y-39437D01*
X63225Y-39375D01*
X63187Y-39283D01*
X63153Y-39250D01*
X63186Y-39216D01*
X63224Y-39124D01*
X63225Y-39025D01*
X63225Y-38775D01*
X63187Y-38683D01*
X63116Y-38613D01*
X63060Y-38589D01*
X63060Y-37410D01*
X63116Y-37387D01*
X63186Y-37316D01*
X63224Y-37224D01*
X63225Y-37125D01*
X63225Y-36875D01*
X63187Y-36783D01*
X63153Y-36750D01*
X63186Y-36716D01*
X63224Y-36624D01*
X63225Y-36525D01*
X63225Y-36275D01*
X63187Y-36183D01*
X63116Y-36113D01*
X63060Y-36089D01*
X63060Y-34650D01*
X63036Y-34531D01*
X62969Y-34430D01*
X62460Y-33921D01*
X62460Y-31250D01*
X62436Y-31131D01*
X62436Y-31131D01*
X62409Y-31091D01*
X62369Y-31030D01*
X62369Y-31030D01*
X62119Y-30780D01*
X62018Y-30713D01*
X61900Y-30690D01*
X61861Y-30690D01*
X61839Y-30668D01*
X61747Y-30630D01*
X61648Y-30629D01*
X61038Y-30629D01*
X60946Y-30667D01*
X60875Y-30738D01*
X60837Y-30830D01*
X60837Y-30929D01*
X60837Y-31169D01*
X60846Y-31190D01*
X60200Y-31190D01*
X60200Y-31000D01*
X60162Y-30908D01*
X60091Y-30838D01*
X59999Y-30800D01*
X59900Y-30799D01*
X59860Y-30799D01*
X59860Y-30628D01*
X59928Y-30560D01*
X61050Y-30560D01*
X61150Y-30560D01*
X61268Y-30536D01*
X61369Y-30469D01*
X61678Y-30160D01*
X62239Y-30160D01*
X62262Y-30216D01*
X62333Y-30286D01*
X62425Y-30324D01*
X62524Y-30325D01*
X62774Y-30325D01*
X62866Y-30287D01*
X62899Y-30253D01*
X62933Y-30286D01*
X63025Y-30324D01*
X63124Y-30325D01*
X63374Y-30325D01*
X63466Y-30287D01*
X63536Y-30216D01*
X63560Y-30160D01*
X64921Y-30160D01*
X64990Y-30228D01*
X64990Y-30950D01*
X65013Y-31068D01*
X65080Y-31169D01*
X65101Y-31190D01*
X64753Y-31190D01*
X64762Y-31169D01*
X64762Y-31070D01*
X64762Y-30830D01*
X64724Y-30738D01*
X64654Y-30668D01*
X64562Y-30630D01*
X64462Y-30629D01*
X63852Y-30629D01*
X63760Y-30667D01*
X63736Y-30692D01*
X63631Y-30713D01*
X63591Y-30740D01*
X63530Y-30780D01*
X63530Y-30780D01*
X63280Y-31030D01*
X63213Y-31131D01*
X63190Y-31250D01*
X63190Y-34100D01*
X63213Y-34218D01*
X63280Y-34319D01*
X63690Y-34728D01*
X63690Y-36089D01*
X63633Y-36112D01*
X63563Y-36183D01*
X63525Y-36275D01*
X63524Y-36374D01*
X63524Y-36624D01*
X63562Y-36716D01*
X63596Y-36749D01*
X63563Y-36783D01*
X63525Y-36875D01*
X63524Y-36974D01*
X63524Y-37224D01*
X63562Y-37316D01*
X63633Y-37386D01*
X63690Y-37410D01*
X63690Y-38589D01*
X63633Y-38612D01*
X63563Y-38683D01*
X63525Y-38775D01*
X63524Y-38874D01*
X63524Y-39124D01*
X63562Y-39216D01*
X63596Y-39250D01*
X63562Y-39283D01*
X63524Y-39375D01*
X63525Y-39437D01*
X63587Y-39500D01*
X63950Y-39500D01*
X63950Y-39492D01*
X64050Y-39492D01*
X64050Y-39500D01*
X64412Y-39500D01*
X64475Y-39437D01*
X64475Y-39375D01*
X64437Y-39283D01*
X64403Y-39250D01*
X64436Y-39216D01*
X64474Y-39124D01*
X64475Y-39025D01*
X64475Y-38775D01*
X64437Y-38683D01*
X64366Y-38613D01*
X64310Y-38589D01*
X64310Y-37410D01*
X64366Y-37387D01*
X64436Y-37316D01*
X64474Y-37224D01*
X64475Y-37125D01*
X64475Y-36875D01*
X64437Y-36783D01*
X64403Y-36750D01*
X64436Y-36716D01*
X64474Y-36624D01*
X64475Y-36525D01*
X64475Y-36275D01*
X64437Y-36183D01*
X64366Y-36113D01*
X64310Y-36089D01*
X64310Y-34600D01*
X64286Y-34481D01*
X64219Y-34380D01*
X64208Y-34370D01*
X64561Y-34370D01*
X64653Y-34332D01*
X64675Y-34310D01*
X64821Y-34310D01*
X64940Y-34428D01*
X64940Y-36089D01*
X64883Y-36112D01*
X64813Y-36183D01*
X64775Y-36275D01*
X64774Y-36374D01*
X64774Y-36624D01*
X64812Y-36716D01*
X64846Y-36749D01*
X64813Y-36783D01*
X64775Y-36875D01*
X64774Y-36974D01*
X64774Y-37224D01*
X64812Y-37316D01*
X64883Y-37386D01*
X64940Y-37410D01*
X64940Y-38589D01*
X64883Y-38612D01*
X64813Y-38683D01*
X64775Y-38775D01*
X64774Y-38874D01*
X64774Y-39124D01*
X64812Y-39216D01*
X64846Y-39250D01*
X64812Y-39283D01*
X64774Y-39375D01*
X64775Y-39437D01*
X64837Y-39500D01*
X65200Y-39500D01*
X65200Y-39492D01*
X65300Y-39492D01*
X65300Y-39500D01*
X65662Y-39500D01*
X65725Y-39437D01*
X65725Y-39375D01*
X65687Y-39283D01*
X65653Y-39250D01*
X65686Y-39216D01*
X65724Y-39124D01*
X65725Y-39025D01*
X65725Y-38775D01*
X65687Y-38683D01*
X65616Y-38613D01*
X65560Y-38589D01*
X65560Y-37410D01*
X65616Y-37387D01*
X65686Y-37316D01*
X65724Y-37224D01*
X65725Y-37125D01*
X65725Y-36875D01*
X65687Y-36783D01*
X65653Y-36750D01*
X65686Y-36716D01*
X65724Y-36624D01*
X65725Y-36525D01*
X65725Y-36275D01*
X65687Y-36183D01*
X65616Y-36113D01*
X65560Y-36089D01*
X65560Y-34300D01*
X65559Y-34299D01*
X65560Y-34299D01*
X65555Y-34276D01*
X65541Y-34208D01*
X65549Y-34209D01*
X65550Y-34210D01*
X65599Y-34210D01*
X65599Y-34249D01*
X65637Y-34341D01*
X65708Y-34411D01*
X65800Y-34449D01*
X65899Y-34450D01*
X65940Y-34450D01*
X65940Y-34900D01*
X65963Y-35018D01*
X66030Y-35119D01*
X66440Y-35528D01*
X66440Y-36089D01*
X66383Y-36112D01*
X66313Y-36183D01*
X66275Y-36275D01*
X66274Y-36374D01*
X66274Y-36624D01*
X66312Y-36716D01*
X66346Y-36750D01*
X66312Y-36783D01*
X66274Y-36875D01*
X66275Y-36937D01*
X66337Y-37000D01*
X66700Y-37000D01*
X66700Y-36992D01*
X66800Y-36992D01*
X66800Y-37000D01*
X67162Y-37000D01*
X67225Y-36937D01*
X67225Y-36875D01*
X67187Y-36783D01*
X67153Y-36750D01*
X67186Y-36716D01*
X67224Y-36624D01*
X67225Y-36525D01*
X67225Y-36275D01*
X67187Y-36183D01*
X67116Y-36113D01*
X67060Y-36089D01*
X67060Y-35400D01*
X67036Y-35281D01*
X66969Y-35180D01*
X66560Y-34771D01*
X66560Y-34450D01*
X66699Y-34450D01*
X66791Y-34412D01*
X66861Y-34341D01*
X66899Y-34249D01*
X66900Y-34150D01*
X66900Y-33550D01*
X66896Y-33540D01*
X66918Y-33536D01*
X67019Y-33469D01*
X67169Y-33319D01*
X67236Y-33218D01*
X67260Y-33100D01*
X67260Y-32252D01*
X67315Y-32274D01*
X67484Y-32275D01*
X67640Y-32210D01*
X67760Y-32091D01*
X67824Y-31934D01*
X67825Y-31765D01*
X67825Y-47070D01*
X67725Y-47219D01*
X67725Y-46715D01*
X67660Y-46559D01*
X67541Y-46439D01*
X67384Y-46375D01*
X67225Y-46374D01*
X67225Y-37224D01*
X67225Y-37162D01*
X67162Y-37100D01*
X66800Y-37100D01*
X66800Y-37362D01*
X66862Y-37425D01*
X66925Y-37425D01*
X67024Y-37424D01*
X67116Y-37386D01*
X67187Y-37316D01*
X67225Y-37224D01*
X67225Y-46374D01*
X67215Y-46374D01*
X67094Y-46425D01*
X66805Y-46425D01*
X66648Y-46268D01*
X66655Y-46259D01*
X66703Y-46186D01*
X66703Y-46186D01*
X66732Y-46042D01*
X66732Y-46042D01*
X66732Y-45861D01*
X66803Y-45832D01*
X66874Y-45761D01*
X66912Y-45669D01*
X66912Y-45570D01*
X66912Y-45330D01*
X66879Y-45250D01*
X66912Y-45169D01*
X66912Y-44830D01*
X66879Y-44749D01*
X66912Y-44669D01*
X66912Y-44570D01*
X66912Y-44330D01*
X66879Y-44249D01*
X66912Y-44169D01*
X66912Y-44070D01*
X66912Y-43830D01*
X66879Y-43749D01*
X66912Y-43669D01*
X66912Y-43570D01*
X66912Y-43330D01*
X66879Y-43249D01*
X66912Y-43169D01*
X66912Y-43070D01*
X66912Y-42830D01*
X66879Y-42750D01*
X66912Y-42669D01*
X66912Y-42330D01*
X66879Y-42250D01*
X66912Y-42169D01*
X66912Y-41830D01*
X66874Y-41738D01*
X66804Y-41668D01*
X66712Y-41630D01*
X66700Y-41630D01*
X66700Y-37362D01*
X66700Y-37100D01*
X66337Y-37100D01*
X66275Y-37162D01*
X66274Y-37224D01*
X66312Y-37316D01*
X66383Y-37386D01*
X66475Y-37424D01*
X66574Y-37425D01*
X66637Y-37425D01*
X66700Y-37362D01*
X66700Y-41630D01*
X66612Y-41629D01*
X66469Y-41630D01*
X66407Y-41692D01*
X66407Y-41950D01*
X66849Y-41950D01*
X66912Y-41887D01*
X66912Y-41830D01*
X66912Y-42169D01*
X66912Y-42112D01*
X66849Y-42050D01*
X66407Y-42050D01*
X66407Y-42192D01*
X66407Y-42307D01*
X66407Y-42450D01*
X66849Y-42450D01*
X66912Y-42387D01*
X66912Y-42330D01*
X66912Y-42669D01*
X66912Y-42612D01*
X66849Y-42550D01*
X66407Y-42550D01*
X66407Y-42557D01*
X66307Y-42557D01*
X66307Y-42550D01*
X66307Y-42450D01*
X66307Y-42307D01*
X66307Y-42192D01*
X66307Y-42050D01*
X66307Y-41950D01*
X66307Y-41692D01*
X66244Y-41630D01*
X66101Y-41629D01*
X66002Y-41630D01*
X65910Y-41668D01*
X65840Y-41738D01*
X65802Y-41830D01*
X65802Y-41887D01*
X65864Y-41950D01*
X66307Y-41950D01*
X66307Y-42050D01*
X65864Y-42050D01*
X65802Y-42112D01*
X65802Y-42169D01*
X65835Y-42250D01*
X65802Y-42330D01*
X65802Y-42387D01*
X65864Y-42450D01*
X66307Y-42450D01*
X66307Y-42550D01*
X65864Y-42550D01*
X65802Y-42612D01*
X65802Y-42669D01*
X65835Y-42750D01*
X65802Y-42830D01*
X65802Y-42929D01*
X65802Y-43169D01*
X65835Y-43250D01*
X65802Y-43330D01*
X65802Y-43429D01*
X65802Y-43669D01*
X65835Y-43750D01*
X65802Y-43830D01*
X65802Y-43929D01*
X65802Y-44169D01*
X65835Y-44250D01*
X65802Y-44330D01*
X65802Y-44429D01*
X65802Y-44669D01*
X65835Y-44750D01*
X65802Y-44830D01*
X65802Y-44887D01*
X65864Y-44950D01*
X66307Y-44950D01*
X66307Y-44942D01*
X66407Y-44942D01*
X66407Y-44950D01*
X66849Y-44950D01*
X66912Y-44887D01*
X66912Y-44830D01*
X66912Y-45169D01*
X66912Y-45112D01*
X66849Y-45050D01*
X66407Y-45050D01*
X66407Y-45057D01*
X66307Y-45057D01*
X66307Y-45050D01*
X65864Y-45050D01*
X65802Y-45112D01*
X65802Y-45169D01*
X65835Y-45250D01*
X65802Y-45330D01*
X65802Y-45429D01*
X65802Y-45669D01*
X65840Y-45761D01*
X65910Y-45831D01*
X65982Y-45861D01*
X65982Y-45887D01*
X65859Y-46009D01*
X65744Y-46125D01*
X65725Y-46125D01*
X65725Y-39724D01*
X65725Y-39662D01*
X65662Y-39600D01*
X65300Y-39600D01*
X65300Y-39862D01*
X65362Y-39925D01*
X65425Y-39925D01*
X65524Y-39924D01*
X65616Y-39886D01*
X65687Y-39816D01*
X65725Y-39724D01*
X65725Y-46125D01*
X65578Y-46125D01*
X65516Y-46063D01*
X65424Y-46025D01*
X65325Y-46024D01*
X65200Y-46024D01*
X65200Y-39862D01*
X65200Y-39600D01*
X64837Y-39600D01*
X64775Y-39662D01*
X64774Y-39724D01*
X64812Y-39816D01*
X64883Y-39886D01*
X64975Y-39924D01*
X65074Y-39925D01*
X65137Y-39925D01*
X65200Y-39862D01*
X65200Y-46024D01*
X65075Y-46024D01*
X64983Y-46062D01*
X64960Y-46086D01*
X64960Y-45250D01*
X64936Y-45131D01*
X64936Y-45131D01*
X64909Y-45091D01*
X64869Y-45030D01*
X64869Y-45030D01*
X64619Y-44780D01*
X64518Y-44713D01*
X64475Y-44704D01*
X64475Y-39724D01*
X64475Y-39662D01*
X64412Y-39600D01*
X64050Y-39600D01*
X64050Y-39862D01*
X64112Y-39925D01*
X64175Y-39925D01*
X64274Y-39924D01*
X64366Y-39886D01*
X64437Y-39816D01*
X64475Y-39724D01*
X64475Y-44704D01*
X64400Y-44690D01*
X64089Y-44690D01*
X64097Y-44669D01*
X64097Y-44570D01*
X64097Y-44330D01*
X64064Y-44249D01*
X64097Y-44169D01*
X64097Y-44070D01*
X64097Y-43830D01*
X64064Y-43749D01*
X64097Y-43669D01*
X64097Y-43570D01*
X64097Y-43330D01*
X64064Y-43249D01*
X64097Y-43169D01*
X64097Y-43070D01*
X64097Y-42830D01*
X64064Y-42750D01*
X64097Y-42669D01*
X64097Y-42330D01*
X64064Y-42250D01*
X64097Y-42169D01*
X64097Y-41830D01*
X64059Y-41738D01*
X63989Y-41668D01*
X63950Y-41651D01*
X63950Y-39862D01*
X63950Y-39600D01*
X63587Y-39600D01*
X63525Y-39662D01*
X63524Y-39724D01*
X63562Y-39816D01*
X63633Y-39886D01*
X63725Y-39924D01*
X63824Y-39925D01*
X63887Y-39925D01*
X63950Y-39862D01*
X63950Y-41651D01*
X63897Y-41630D01*
X63798Y-41629D01*
X63655Y-41630D01*
X63592Y-41692D01*
X63592Y-41950D01*
X64035Y-41950D01*
X64097Y-41887D01*
X64097Y-41830D01*
X64097Y-42169D01*
X64097Y-42112D01*
X64035Y-42050D01*
X63592Y-42050D01*
X63592Y-42192D01*
X63592Y-42307D01*
X63592Y-42450D01*
X64035Y-42450D01*
X64097Y-42387D01*
X64097Y-42330D01*
X64097Y-42669D01*
X64097Y-42612D01*
X64035Y-42550D01*
X63592Y-42550D01*
X63592Y-42557D01*
X63492Y-42557D01*
X63492Y-42550D01*
X63492Y-42450D01*
X63492Y-42307D01*
X63492Y-42192D01*
X63492Y-42050D01*
X63492Y-41950D01*
X63492Y-41692D01*
X63430Y-41630D01*
X63287Y-41629D01*
X63225Y-41630D01*
X63225Y-39724D01*
X63225Y-39662D01*
X63162Y-39600D01*
X62800Y-39600D01*
X62800Y-39862D01*
X62862Y-39925D01*
X62925Y-39925D01*
X63024Y-39924D01*
X63116Y-39886D01*
X63187Y-39816D01*
X63225Y-39724D01*
X63225Y-41630D01*
X63187Y-41630D01*
X63095Y-41668D01*
X63025Y-41738D01*
X62987Y-41830D01*
X62987Y-41887D01*
X63050Y-41950D01*
X63492Y-41950D01*
X63492Y-42050D01*
X63050Y-42050D01*
X62987Y-42112D01*
X62987Y-42169D01*
X63020Y-42250D01*
X62987Y-42330D01*
X62987Y-42387D01*
X63050Y-42450D01*
X63492Y-42450D01*
X63492Y-42550D01*
X63050Y-42550D01*
X62987Y-42612D01*
X62987Y-42669D01*
X62996Y-42690D01*
X62700Y-42690D01*
X62700Y-39862D01*
X62700Y-39600D01*
X62337Y-39600D01*
X62275Y-39662D01*
X62274Y-39724D01*
X62312Y-39816D01*
X62383Y-39886D01*
X62475Y-39924D01*
X62574Y-39925D01*
X62637Y-39925D01*
X62700Y-39862D01*
X62700Y-42690D01*
X61975Y-42690D01*
X61975Y-39724D01*
X61975Y-39662D01*
X61912Y-39600D01*
X61550Y-39600D01*
X61550Y-39862D01*
X61612Y-39925D01*
X61675Y-39925D01*
X61774Y-39924D01*
X61866Y-39886D01*
X61937Y-39816D01*
X61975Y-39724D01*
X61975Y-42690D01*
X61928Y-42690D01*
X61450Y-42211D01*
X61450Y-39862D01*
X61450Y-39600D01*
X61087Y-39600D01*
X61025Y-39662D01*
X61024Y-39724D01*
X61062Y-39816D01*
X61133Y-39886D01*
X61225Y-39924D01*
X61324Y-39925D01*
X61387Y-39925D01*
X61450Y-39862D01*
X61450Y-42211D01*
X61019Y-41780D01*
X60918Y-41713D01*
X60800Y-41690D01*
X58850Y-41690D01*
X58850Y-41675D01*
X58812Y-41583D01*
X58741Y-41513D01*
X58649Y-41475D01*
X58550Y-41474D01*
X58200Y-41474D01*
X58108Y-41512D01*
X58049Y-41571D01*
X57991Y-41513D01*
X57899Y-41475D01*
X57800Y-41474D01*
X57450Y-41474D01*
X57358Y-41512D01*
X57288Y-41583D01*
X57250Y-41675D01*
X57250Y-41690D01*
X55675Y-41690D01*
X55450Y-41690D01*
X55450Y-41675D01*
X55412Y-41583D01*
X55341Y-41513D01*
X55249Y-41475D01*
X55150Y-41474D01*
X54800Y-41474D01*
X54708Y-41512D01*
X54650Y-41571D01*
X54591Y-41512D01*
X54499Y-41474D01*
X54387Y-41475D01*
X54325Y-41537D01*
X54325Y-41950D01*
X54332Y-41950D01*
X54332Y-42050D01*
X54325Y-42050D01*
X54325Y-42462D01*
X54387Y-42525D01*
X54499Y-42525D01*
X54591Y-42487D01*
X54650Y-42428D01*
X54708Y-42486D01*
X54800Y-42524D01*
X54899Y-42525D01*
X55249Y-42525D01*
X55341Y-42487D01*
X55411Y-42416D01*
X55449Y-42324D01*
X55449Y-42310D01*
X55675Y-42310D01*
X57249Y-42310D01*
X57249Y-42324D01*
X57287Y-42416D01*
X57358Y-42486D01*
X57450Y-42524D01*
X57549Y-42525D01*
X57899Y-42525D01*
X57991Y-42487D01*
X58050Y-42428D01*
X58108Y-42486D01*
X58200Y-42524D01*
X58299Y-42525D01*
X58649Y-42525D01*
X58741Y-42487D01*
X58811Y-42416D01*
X58849Y-42324D01*
X58849Y-42310D01*
X60671Y-42310D01*
X61551Y-43190D01*
X61178Y-43190D01*
X61019Y-43030D01*
X60918Y-42963D01*
X60800Y-42940D01*
X58850Y-42940D01*
X58850Y-42925D01*
X58812Y-42833D01*
X58741Y-42763D01*
X58649Y-42725D01*
X58550Y-42724D01*
X58200Y-42724D01*
X58108Y-42762D01*
X58049Y-42821D01*
X57991Y-42763D01*
X57899Y-42725D01*
X57800Y-42724D01*
X57450Y-42724D01*
X57358Y-42762D01*
X57288Y-42833D01*
X57250Y-42925D01*
X57250Y-42940D01*
X55675Y-42940D01*
X55450Y-42940D01*
X55450Y-42925D01*
X55412Y-42833D01*
X55341Y-42763D01*
X55249Y-42725D01*
X55150Y-42724D01*
X54800Y-42724D01*
X54708Y-42762D01*
X54650Y-42821D01*
X54591Y-42762D01*
X54499Y-42724D01*
X54387Y-42725D01*
X54325Y-42787D01*
X54325Y-43200D01*
X54332Y-43200D01*
X54332Y-43300D01*
X54325Y-43300D01*
X54325Y-43712D01*
X54387Y-43775D01*
X54499Y-43775D01*
X54591Y-43737D01*
X54650Y-43678D01*
X54708Y-43736D01*
X54800Y-43774D01*
X54899Y-43775D01*
X55249Y-43775D01*
X55341Y-43737D01*
X55411Y-43666D01*
X55449Y-43574D01*
X55449Y-43560D01*
X55675Y-43560D01*
X57249Y-43560D01*
X57249Y-43574D01*
X57287Y-43666D01*
X57358Y-43736D01*
X57450Y-43774D01*
X57549Y-43775D01*
X57899Y-43775D01*
X57991Y-43737D01*
X58050Y-43678D01*
X58108Y-43736D01*
X58200Y-43774D01*
X58299Y-43775D01*
X58649Y-43775D01*
X58741Y-43737D01*
X58811Y-43666D01*
X58849Y-43574D01*
X58849Y-43560D01*
X60671Y-43560D01*
X60830Y-43719D01*
X60830Y-43719D01*
X60891Y-43759D01*
X60931Y-43786D01*
X60931Y-43786D01*
X61050Y-43810D01*
X61051Y-43810D01*
X60671Y-44190D01*
X58850Y-44190D01*
X58850Y-44175D01*
X58812Y-44083D01*
X58741Y-44013D01*
X58649Y-43975D01*
X58550Y-43974D01*
X58200Y-43974D01*
X58108Y-44012D01*
X58049Y-44071D01*
X57991Y-44013D01*
X57899Y-43975D01*
X57800Y-43974D01*
X57450Y-43974D01*
X57358Y-44012D01*
X57288Y-44083D01*
X57250Y-44175D01*
X57250Y-44190D01*
X55700Y-44190D01*
X55675Y-44190D01*
X55450Y-44190D01*
X55450Y-44175D01*
X55412Y-44083D01*
X55341Y-44013D01*
X55249Y-43975D01*
X55150Y-43974D01*
X54800Y-43974D01*
X54708Y-44012D01*
X54650Y-44071D01*
X54591Y-44012D01*
X54499Y-43974D01*
X54387Y-43975D01*
X54325Y-44037D01*
X54325Y-44450D01*
X54332Y-44450D01*
X54332Y-44550D01*
X54325Y-44550D01*
X54325Y-44962D01*
X54387Y-45025D01*
X54499Y-45025D01*
X54591Y-44987D01*
X54650Y-44928D01*
X54708Y-44986D01*
X54800Y-45024D01*
X54899Y-45025D01*
X55249Y-45025D01*
X55341Y-44987D01*
X55411Y-44916D01*
X55449Y-44824D01*
X55449Y-44810D01*
X55675Y-44810D01*
X55700Y-44810D01*
X57249Y-44810D01*
X57249Y-44824D01*
X57287Y-44916D01*
X57358Y-44986D01*
X57450Y-45024D01*
X57549Y-45025D01*
X57899Y-45025D01*
X57991Y-44987D01*
X58050Y-44928D01*
X58108Y-44986D01*
X58200Y-45024D01*
X58299Y-45025D01*
X58649Y-45025D01*
X58741Y-44987D01*
X58811Y-44916D01*
X58849Y-44824D01*
X58849Y-44810D01*
X60800Y-44810D01*
X60918Y-44786D01*
X61019Y-44719D01*
X61428Y-44310D01*
X61801Y-44310D01*
X60671Y-45440D01*
X58850Y-45440D01*
X58850Y-45425D01*
X58812Y-45333D01*
X58741Y-45263D01*
X58649Y-45225D01*
X58550Y-45224D01*
X58200Y-45224D01*
X58108Y-45262D01*
X58049Y-45321D01*
X57991Y-45263D01*
X57899Y-45225D01*
X57800Y-45224D01*
X57450Y-45224D01*
X57358Y-45262D01*
X57288Y-45333D01*
X57250Y-45425D01*
X57250Y-45440D01*
X55675Y-45440D01*
X55450Y-45440D01*
X55450Y-45425D01*
X55412Y-45333D01*
X55341Y-45263D01*
X55249Y-45225D01*
X55150Y-45224D01*
X54800Y-45224D01*
X54708Y-45262D01*
X54650Y-45321D01*
X54591Y-45262D01*
X54499Y-45224D01*
X54387Y-45225D01*
X54325Y-45287D01*
X54325Y-45700D01*
X54332Y-45700D01*
X54332Y-45800D01*
X54325Y-45800D01*
X54325Y-45807D01*
X54225Y-45807D01*
X54225Y-45800D01*
X54225Y-45700D01*
X54225Y-45287D01*
X54225Y-44962D01*
X54225Y-44550D01*
X54225Y-44450D01*
X54225Y-44037D01*
X54225Y-43712D01*
X54225Y-43300D01*
X54225Y-43200D01*
X54225Y-42787D01*
X54225Y-42462D01*
X54225Y-42050D01*
X54225Y-41950D01*
X54225Y-41537D01*
X54162Y-41475D01*
X54050Y-41474D01*
X53958Y-41512D01*
X53888Y-41583D01*
X53850Y-41675D01*
X53849Y-41774D01*
X53850Y-41887D01*
X53912Y-41950D01*
X54225Y-41950D01*
X54225Y-42050D01*
X53912Y-42050D01*
X53850Y-42112D01*
X53849Y-42225D01*
X53850Y-42324D01*
X53888Y-42416D01*
X53958Y-42487D01*
X54050Y-42525D01*
X54162Y-42525D01*
X54225Y-42462D01*
X54225Y-42787D01*
X54162Y-42725D01*
X54050Y-42724D01*
X53958Y-42762D01*
X53888Y-42833D01*
X53850Y-42925D01*
X53849Y-43024D01*
X53850Y-43137D01*
X53912Y-43200D01*
X54225Y-43200D01*
X54225Y-43300D01*
X53912Y-43300D01*
X53850Y-43362D01*
X53849Y-43475D01*
X53850Y-43574D01*
X53888Y-43666D01*
X53958Y-43737D01*
X54050Y-43775D01*
X54162Y-43775D01*
X54225Y-43712D01*
X54225Y-44037D01*
X54162Y-43975D01*
X54050Y-43974D01*
X53958Y-44012D01*
X53888Y-44083D01*
X53850Y-44175D01*
X53849Y-44274D01*
X53850Y-44387D01*
X53912Y-44450D01*
X54225Y-44450D01*
X54225Y-44550D01*
X53912Y-44550D01*
X53850Y-44612D01*
X53849Y-44725D01*
X53850Y-44824D01*
X53888Y-44916D01*
X53958Y-44987D01*
X54050Y-45025D01*
X54162Y-45025D01*
X54225Y-44962D01*
X54225Y-45287D01*
X54162Y-45225D01*
X54050Y-45224D01*
X53958Y-45262D01*
X53888Y-45333D01*
X53850Y-45425D01*
X53849Y-45524D01*
X53850Y-45637D01*
X53912Y-45700D01*
X54225Y-45700D01*
X54225Y-45800D01*
X53912Y-45800D01*
X53850Y-45862D01*
X53849Y-45975D01*
X53850Y-46074D01*
X53888Y-46166D01*
X53911Y-46190D01*
X52547Y-46190D01*
X52547Y-45902D01*
X52562Y-45902D01*
X52653Y-45864D01*
X52724Y-45793D01*
X52762Y-45701D01*
X52762Y-45602D01*
X52762Y-44460D01*
X52724Y-44368D01*
X52654Y-44298D01*
X52562Y-44260D01*
X52547Y-44260D01*
X52547Y-43540D01*
X52562Y-43540D01*
X52653Y-43502D01*
X52724Y-43431D01*
X52762Y-43339D01*
X52762Y-43240D01*
X52762Y-42098D01*
X52724Y-42006D01*
X52654Y-41936D01*
X52562Y-41898D01*
X52462Y-41897D01*
X51911Y-41897D01*
X51820Y-41935D01*
X51749Y-42006D01*
X51711Y-42098D01*
X51711Y-42197D01*
X51711Y-43339D01*
X51749Y-43431D01*
X51819Y-43501D01*
X51911Y-43539D01*
X51927Y-43539D01*
X51927Y-44259D01*
X51911Y-44259D01*
X51820Y-44297D01*
X51749Y-44368D01*
X51711Y-44460D01*
X51711Y-44559D01*
X51711Y-45701D01*
X51749Y-45793D01*
X51819Y-45863D01*
X51911Y-45901D01*
X51927Y-45901D01*
X51927Y-46025D01*
X51924Y-46025D01*
X51825Y-46024D01*
X51575Y-46024D01*
X51483Y-46062D01*
X51450Y-46096D01*
X51416Y-46062D01*
X51324Y-46024D01*
X51262Y-46025D01*
X51200Y-46087D01*
X51200Y-46450D01*
X51207Y-46450D01*
X51207Y-46550D01*
X51200Y-46550D01*
X51200Y-46912D01*
X51262Y-46975D01*
X51324Y-46975D01*
X51416Y-46937D01*
X51449Y-46903D01*
X51483Y-46936D01*
X51575Y-46974D01*
X51674Y-46975D01*
X51924Y-46975D01*
X52016Y-46937D01*
X52086Y-46866D01*
X52110Y-46810D01*
X60800Y-46810D01*
X60918Y-46786D01*
X61019Y-46719D01*
X61928Y-45810D01*
X63074Y-45810D01*
X63095Y-45831D01*
X63187Y-45869D01*
X63287Y-45870D01*
X63897Y-45870D01*
X63989Y-45832D01*
X64059Y-45761D01*
X64097Y-45669D01*
X64097Y-45570D01*
X64097Y-45330D01*
X64089Y-45310D01*
X64271Y-45310D01*
X64340Y-45378D01*
X64340Y-46106D01*
X64313Y-46133D01*
X64275Y-46225D01*
X64274Y-46324D01*
X64274Y-46774D01*
X64312Y-46866D01*
X64383Y-46936D01*
X64475Y-46974D01*
X64574Y-46975D01*
X64824Y-46975D01*
X64916Y-46937D01*
X64949Y-46903D01*
X64983Y-46936D01*
X65075Y-46974D01*
X65174Y-46975D01*
X65424Y-46975D01*
X65516Y-46937D01*
X65578Y-46875D01*
X65900Y-46875D01*
X66043Y-46846D01*
X66117Y-46797D01*
X66384Y-47065D01*
X66384Y-47065D01*
X66506Y-47146D01*
X66649Y-47174D01*
X66650Y-47175D01*
X67094Y-47175D01*
X67215Y-47224D01*
X67384Y-47225D01*
X67540Y-47160D01*
X67660Y-47041D01*
X67724Y-46884D01*
X67725Y-46715D01*
X67725Y-47219D01*
X67723Y-47222D01*
X67505Y-47368D01*
X67218Y-47425D01*
X51100Y-47425D01*
X51100Y-46912D01*
X51100Y-46550D01*
X51100Y-46450D01*
X51100Y-46087D01*
X51037Y-46025D01*
X50975Y-46024D01*
X50883Y-46062D01*
X50813Y-46133D01*
X50775Y-46225D01*
X50774Y-46324D01*
X50775Y-46387D01*
X50837Y-46450D01*
X51100Y-46450D01*
X51100Y-46550D01*
X50837Y-46550D01*
X50775Y-46612D01*
X50774Y-46675D01*
X50775Y-46774D01*
X50813Y-46866D01*
X50883Y-46937D01*
X50975Y-46975D01*
X51037Y-46975D01*
X51100Y-46912D01*
X51100Y-47425D01*
X50034Y-47425D01*
X49647Y-47348D01*
X49351Y-47150D01*
X49150Y-46850D01*
X49075Y-46468D01*
X49075Y-29281D01*
X49131Y-28994D01*
X49277Y-28776D01*
X49493Y-28632D01*
X49783Y-28575D01*
X67218Y-28575D01*
X67505Y-28631D01*
X67723Y-28777D01*
X67867Y-28993D01*
X67925Y-29283D01*
X67925Y-46716D01*
M02*
