G04 (created by PCBNEW (2013-mar-13)-testing) date Mon 25 Mar 2013 01:51:38 PM CET*
%MOIN*%
G04 Gerber Fmt 3.4, Leading zero omitted, Abs format*
%FSLAX34Y34*%
G01*
G70*
G90*
G04 APERTURE LIST*
%ADD10C,2.3622e-06*%
%ADD11C,0.0049*%
%ADD12C,0.007375*%
%ADD13C,0.0074*%
%ADD14C,0.0047*%
%ADD15C,0.0079*%
%ADD16C,0.015*%
%ADD17C,0.005*%
%ADD18C,0.008*%
%ADD19C,0.0001*%
%ADD20C,0.004*%
%ADD21C,0.006*%
%ADD22C,0.012*%
%ADD23C,0.0035*%
%ADD24C,0.0107*%
%ADD25R,0.042874X0.062874*%
%ADD26R,0.055074X0.078774*%
%ADD27R,0.027474X0.107874*%
%ADD28R,0.086574X0.106274*%
%ADD29R,0.024874X0.087874*%
%ADD30C,0.047874*%
%ADD31R,0.145574X0.070774*%
%ADD32R,0.062974X0.122074*%
%ADD33R,0.042874X0.031874*%
%ADD34R,0.062874X0.062874*%
%ADD35C,0.062874*%
%ADD36R,0.078774X0.055074*%
%ADD37C,0.072874*%
G04 APERTURE END LIST*
G54D10*
G54D11*
X54110Y-30334D02*
X54080Y-30315D01*
X54035Y-30315D01*
X53990Y-30334D01*
X53960Y-30371D01*
X53945Y-30409D01*
X53930Y-30484D01*
X53930Y-30540D01*
X53945Y-30615D01*
X53960Y-30653D01*
X53990Y-30690D01*
X54035Y-30709D01*
X54065Y-30709D01*
X54110Y-30690D01*
X54125Y-30671D01*
X54125Y-30540D01*
X54065Y-30540D01*
X54260Y-30709D02*
X54260Y-30315D01*
X54440Y-30709D01*
X54440Y-30315D01*
X54590Y-30709D02*
X54590Y-30315D01*
X54665Y-30315D01*
X54710Y-30334D01*
X54740Y-30371D01*
X54755Y-30409D01*
X54770Y-30484D01*
X54770Y-30540D01*
X54755Y-30615D01*
X54740Y-30653D01*
X54710Y-30690D01*
X54665Y-30709D01*
X54590Y-30709D01*
X53945Y-29509D02*
X54185Y-29509D01*
X54065Y-29659D02*
X54065Y-29359D01*
X54485Y-29265D02*
X54335Y-29265D01*
X54320Y-29453D01*
X54335Y-29434D01*
X54365Y-29415D01*
X54440Y-29415D01*
X54470Y-29434D01*
X54485Y-29453D01*
X54500Y-29490D01*
X54500Y-29584D01*
X54485Y-29621D01*
X54470Y-29640D01*
X54440Y-29659D01*
X54365Y-29659D01*
X54335Y-29640D01*
X54320Y-29621D01*
X54590Y-29265D02*
X54695Y-29659D01*
X54800Y-29265D01*
G54D12*
X53104Y-46796D02*
X53174Y-47059D01*
X53245Y-46796D01*
X53512Y-47059D02*
X53343Y-47059D01*
X53427Y-47059D02*
X53427Y-46665D01*
X53399Y-46721D01*
X53371Y-46759D01*
X53343Y-46778D01*
X53638Y-47021D02*
X53652Y-47040D01*
X53638Y-47059D01*
X53624Y-47040D01*
X53638Y-47021D01*
X53638Y-47059D01*
X53835Y-46665D02*
X53863Y-46665D01*
X53891Y-46684D01*
X53905Y-46703D01*
X53919Y-46740D01*
X53933Y-46815D01*
X53933Y-46909D01*
X53919Y-46984D01*
X53905Y-47021D01*
X53891Y-47040D01*
X53863Y-47059D01*
X53835Y-47059D01*
X53807Y-47040D01*
X53792Y-47021D01*
X53778Y-46984D01*
X53764Y-46909D01*
X53764Y-46815D01*
X53778Y-46740D01*
X53792Y-46703D01*
X53807Y-46684D01*
X53835Y-46665D01*
X54059Y-47059D02*
X54059Y-46665D01*
X54059Y-46815D02*
X54087Y-46796D01*
X54144Y-46796D01*
X54172Y-46815D01*
X54186Y-46834D01*
X54200Y-46871D01*
X54200Y-46984D01*
X54186Y-47021D01*
X54172Y-47040D01*
X54144Y-47059D01*
X54087Y-47059D01*
X54059Y-47040D01*
X54481Y-47059D02*
X54312Y-47059D01*
X54397Y-47059D02*
X54397Y-46665D01*
X54368Y-46721D01*
X54340Y-46759D01*
X54312Y-46778D01*
G54D13*
G54D14*
X50274Y-31759D02*
X50274Y-31365D01*
X50344Y-31365D01*
X50386Y-31384D01*
X50414Y-31421D01*
X50428Y-31459D01*
X50442Y-31534D01*
X50442Y-31590D01*
X50428Y-31665D01*
X50414Y-31703D01*
X50386Y-31740D01*
X50344Y-31759D01*
X50274Y-31759D01*
X50695Y-31759D02*
X50695Y-31553D01*
X50681Y-31515D01*
X50653Y-31496D01*
X50597Y-31496D01*
X50569Y-31515D01*
X50695Y-31740D02*
X50667Y-31759D01*
X50597Y-31759D01*
X50569Y-31740D01*
X50555Y-31703D01*
X50555Y-31665D01*
X50569Y-31628D01*
X50597Y-31609D01*
X50667Y-31609D01*
X50695Y-31590D01*
X50808Y-31496D02*
X50878Y-31759D01*
X50948Y-31496D01*
X51060Y-31759D02*
X51060Y-31496D01*
X51060Y-31365D02*
X51046Y-31384D01*
X51060Y-31403D01*
X51075Y-31384D01*
X51060Y-31365D01*
X51060Y-31403D01*
X51327Y-31759D02*
X51327Y-31365D01*
X51327Y-31740D02*
X51299Y-31759D01*
X51243Y-31759D01*
X51215Y-31740D01*
X51201Y-31721D01*
X51187Y-31684D01*
X51187Y-31571D01*
X51201Y-31534D01*
X51215Y-31515D01*
X51243Y-31496D01*
X51299Y-31496D01*
X51327Y-31515D01*
X51679Y-31646D02*
X51819Y-31646D01*
X51650Y-31759D02*
X51749Y-31365D01*
X51847Y-31759D01*
X51945Y-31496D02*
X51945Y-31759D01*
X51945Y-31534D02*
X51960Y-31515D01*
X51988Y-31496D01*
X52030Y-31496D01*
X52058Y-31515D01*
X52072Y-31553D01*
X52072Y-31759D01*
X52170Y-31496D02*
X52283Y-31496D01*
X52212Y-31365D02*
X52212Y-31703D01*
X52226Y-31740D01*
X52255Y-31759D01*
X52283Y-31759D01*
X52423Y-31759D02*
X52395Y-31740D01*
X52381Y-31721D01*
X52367Y-31684D01*
X52367Y-31571D01*
X52381Y-31534D01*
X52395Y-31515D01*
X52423Y-31496D01*
X52465Y-31496D01*
X52493Y-31515D01*
X52507Y-31534D01*
X52521Y-31571D01*
X52521Y-31684D01*
X52507Y-31721D01*
X52493Y-31740D01*
X52465Y-31759D01*
X52423Y-31759D01*
X52479Y-31346D02*
X52437Y-31403D01*
X52648Y-31496D02*
X52648Y-31759D01*
X52648Y-31534D02*
X52662Y-31515D01*
X52690Y-31496D01*
X52732Y-31496D01*
X52760Y-31515D01*
X52774Y-31553D01*
X52774Y-31759D01*
X53125Y-31740D02*
X53168Y-31759D01*
X53238Y-31759D01*
X53266Y-31740D01*
X53280Y-31721D01*
X53294Y-31684D01*
X53294Y-31646D01*
X53280Y-31609D01*
X53266Y-31590D01*
X53238Y-31571D01*
X53182Y-31553D01*
X53154Y-31534D01*
X53140Y-31515D01*
X53125Y-31478D01*
X53125Y-31440D01*
X53140Y-31403D01*
X53154Y-31384D01*
X53182Y-31365D01*
X53252Y-31365D01*
X53294Y-31384D01*
X53547Y-31759D02*
X53547Y-31553D01*
X53533Y-31515D01*
X53505Y-31496D01*
X53449Y-31496D01*
X53420Y-31515D01*
X53547Y-31740D02*
X53519Y-31759D01*
X53449Y-31759D01*
X53420Y-31740D01*
X53406Y-31703D01*
X53406Y-31665D01*
X53420Y-31628D01*
X53449Y-31609D01*
X53519Y-31609D01*
X53547Y-31590D01*
X53505Y-31346D02*
X53463Y-31403D01*
X53687Y-31496D02*
X53687Y-31759D01*
X53687Y-31534D02*
X53701Y-31515D01*
X53730Y-31496D01*
X53772Y-31496D01*
X53800Y-31515D01*
X53814Y-31553D01*
X53814Y-31759D01*
X54081Y-31740D02*
X54053Y-31759D01*
X53996Y-31759D01*
X53968Y-31740D01*
X53954Y-31721D01*
X53940Y-31684D01*
X53940Y-31571D01*
X53954Y-31534D01*
X53968Y-31515D01*
X53996Y-31496D01*
X54053Y-31496D01*
X54081Y-31515D01*
X54207Y-31759D02*
X54207Y-31365D01*
X54334Y-31759D02*
X54334Y-31553D01*
X54319Y-31515D01*
X54291Y-31496D01*
X54249Y-31496D01*
X54221Y-31515D01*
X54207Y-31534D01*
X54586Y-31740D02*
X54558Y-31759D01*
X54502Y-31759D01*
X54474Y-31740D01*
X54460Y-31703D01*
X54460Y-31553D01*
X54474Y-31515D01*
X54502Y-31496D01*
X54558Y-31496D01*
X54586Y-31515D01*
X54600Y-31553D01*
X54600Y-31590D01*
X54460Y-31628D01*
X54699Y-31496D02*
X54853Y-31496D01*
X54699Y-31759D01*
X54853Y-31759D01*
G54D15*
X55878Y-47057D02*
X55878Y-46545D01*
X55878Y-47032D02*
X55844Y-47057D01*
X55776Y-47057D01*
X55743Y-47032D01*
X55726Y-47008D01*
X55709Y-46959D01*
X55709Y-46813D01*
X55726Y-46764D01*
X55743Y-46740D01*
X55776Y-46715D01*
X55844Y-46715D01*
X55878Y-46740D01*
X56029Y-47032D02*
X56063Y-47057D01*
X56130Y-47057D01*
X56164Y-47032D01*
X56181Y-46984D01*
X56181Y-46959D01*
X56164Y-46910D01*
X56130Y-46886D01*
X56080Y-46886D01*
X56046Y-46862D01*
X56029Y-46813D01*
X56029Y-46789D01*
X56046Y-46740D01*
X56080Y-46715D01*
X56130Y-46715D01*
X56164Y-46740D01*
X56484Y-46715D02*
X56484Y-47227D01*
X56484Y-47032D02*
X56451Y-47057D01*
X56383Y-47057D01*
X56350Y-47032D01*
X56333Y-47008D01*
X56316Y-46959D01*
X56316Y-46813D01*
X56333Y-46764D01*
X56350Y-46740D01*
X56383Y-46715D01*
X56451Y-46715D01*
X56484Y-46740D01*
X56805Y-46715D02*
X56805Y-47057D01*
X56653Y-46715D02*
X56653Y-46984D01*
X56670Y-47032D01*
X56704Y-47057D01*
X56754Y-47057D01*
X56788Y-47032D01*
X56805Y-47008D01*
X57125Y-47057D02*
X57125Y-46789D01*
X57108Y-46740D01*
X57075Y-46715D01*
X57007Y-46715D01*
X56973Y-46740D01*
X57125Y-47032D02*
X57091Y-47057D01*
X57007Y-47057D01*
X56973Y-47032D01*
X56957Y-46984D01*
X56957Y-46935D01*
X56973Y-46886D01*
X57007Y-46862D01*
X57091Y-46862D01*
X57125Y-46837D01*
X57294Y-47057D02*
X57294Y-46715D01*
X57294Y-46813D02*
X57311Y-46764D01*
X57327Y-46740D01*
X57361Y-46715D01*
X57395Y-46715D01*
X57648Y-47032D02*
X57614Y-47057D01*
X57547Y-47057D01*
X57513Y-47032D01*
X57496Y-46984D01*
X57496Y-46789D01*
X57513Y-46740D01*
X57547Y-46715D01*
X57614Y-46715D01*
X57648Y-46740D01*
X57665Y-46789D01*
X57665Y-46837D01*
X57496Y-46886D01*
X57968Y-47057D02*
X57968Y-46545D01*
X57968Y-47032D02*
X57934Y-47057D01*
X57867Y-47057D01*
X57833Y-47032D01*
X57816Y-47008D01*
X57799Y-46959D01*
X57799Y-46813D01*
X57816Y-46764D01*
X57833Y-46740D01*
X57867Y-46715D01*
X57934Y-46715D01*
X57968Y-46740D01*
X58137Y-47057D02*
X58137Y-46715D01*
X58137Y-46813D02*
X58153Y-46764D01*
X58170Y-46740D01*
X58204Y-46715D01*
X58238Y-46715D01*
X58406Y-47057D02*
X58373Y-47032D01*
X58356Y-47008D01*
X58339Y-46959D01*
X58339Y-46813D01*
X58356Y-46764D01*
X58373Y-46740D01*
X58406Y-46715D01*
X58457Y-46715D01*
X58491Y-46740D01*
X58507Y-46764D01*
X58524Y-46813D01*
X58524Y-46959D01*
X58507Y-47008D01*
X58491Y-47032D01*
X58457Y-47057D01*
X58406Y-47057D01*
X58676Y-47057D02*
X58676Y-46545D01*
X58676Y-46740D02*
X58710Y-46715D01*
X58777Y-46715D01*
X58811Y-46740D01*
X58828Y-46764D01*
X58845Y-46813D01*
X58845Y-46959D01*
X58828Y-47008D01*
X58811Y-47032D01*
X58777Y-47057D01*
X58710Y-47057D01*
X58676Y-47032D01*
X59047Y-47057D02*
X59013Y-47032D01*
X58996Y-47008D01*
X58979Y-46959D01*
X58979Y-46813D01*
X58996Y-46764D01*
X59013Y-46740D01*
X59047Y-46715D01*
X59097Y-46715D01*
X59131Y-46740D01*
X59148Y-46764D01*
X59165Y-46813D01*
X59165Y-46959D01*
X59148Y-47008D01*
X59131Y-47032D01*
X59097Y-47057D01*
X59047Y-47057D01*
X59266Y-46715D02*
X59401Y-46715D01*
X59317Y-46545D02*
X59317Y-46984D01*
X59333Y-47032D01*
X59367Y-47057D01*
X59401Y-47057D01*
X59519Y-47057D02*
X59519Y-46715D01*
X59519Y-46545D02*
X59502Y-46569D01*
X59519Y-46594D01*
X59536Y-46569D01*
X59519Y-46545D01*
X59519Y-46594D01*
X59839Y-47032D02*
X59805Y-47057D01*
X59738Y-47057D01*
X59704Y-47032D01*
X59687Y-47008D01*
X59671Y-46959D01*
X59671Y-46813D01*
X59687Y-46764D01*
X59704Y-46740D01*
X59738Y-46715D01*
X59805Y-46715D01*
X59839Y-46740D01*
X59974Y-47032D02*
X60008Y-47057D01*
X60075Y-47057D01*
X60109Y-47032D01*
X60126Y-46984D01*
X60126Y-46959D01*
X60109Y-46910D01*
X60075Y-46886D01*
X60025Y-46886D01*
X59991Y-46862D01*
X59974Y-46813D01*
X59974Y-46789D01*
X59991Y-46740D01*
X60025Y-46715D01*
X60075Y-46715D01*
X60109Y-46740D01*
X60277Y-47008D02*
X60294Y-47032D01*
X60277Y-47057D01*
X60261Y-47032D01*
X60277Y-47008D01*
X60277Y-47057D01*
X60598Y-47032D02*
X60564Y-47057D01*
X60497Y-47057D01*
X60463Y-47032D01*
X60446Y-47008D01*
X60429Y-46959D01*
X60429Y-46813D01*
X60446Y-46764D01*
X60463Y-46740D01*
X60497Y-46715D01*
X60564Y-46715D01*
X60598Y-46740D01*
X60800Y-47057D02*
X60766Y-47032D01*
X60749Y-47008D01*
X60733Y-46959D01*
X60733Y-46813D01*
X60749Y-46764D01*
X60766Y-46740D01*
X60800Y-46715D01*
X60851Y-46715D01*
X60884Y-46740D01*
X60901Y-46764D01*
X60918Y-46813D01*
X60918Y-46959D01*
X60901Y-47008D01*
X60884Y-47032D01*
X60851Y-47057D01*
X60800Y-47057D01*
X61070Y-47057D02*
X61070Y-46715D01*
X61070Y-46764D02*
X61087Y-46740D01*
X61120Y-46715D01*
X61171Y-46715D01*
X61205Y-46740D01*
X61221Y-46789D01*
X61221Y-47057D01*
X61221Y-46789D02*
X61238Y-46740D01*
X61272Y-46715D01*
X61323Y-46715D01*
X61356Y-46740D01*
X61373Y-46789D01*
X61373Y-47057D01*
G54D11*
X50277Y-32409D02*
X50277Y-32015D01*
X50348Y-32015D01*
X50390Y-32034D01*
X50418Y-32071D01*
X50432Y-32109D01*
X50446Y-32184D01*
X50446Y-32240D01*
X50432Y-32315D01*
X50418Y-32353D01*
X50390Y-32390D01*
X50348Y-32409D01*
X50277Y-32409D01*
X50699Y-32409D02*
X50699Y-32203D01*
X50685Y-32165D01*
X50657Y-32146D01*
X50600Y-32146D01*
X50572Y-32165D01*
X50699Y-32390D02*
X50671Y-32409D01*
X50600Y-32409D01*
X50572Y-32390D01*
X50558Y-32353D01*
X50558Y-32315D01*
X50572Y-32278D01*
X50600Y-32259D01*
X50671Y-32259D01*
X50699Y-32240D01*
X50811Y-32146D02*
X50881Y-32409D01*
X50952Y-32146D01*
X51064Y-32409D02*
X51064Y-32146D01*
X51064Y-32015D02*
X51050Y-32034D01*
X51064Y-32053D01*
X51078Y-32034D01*
X51064Y-32015D01*
X51064Y-32053D01*
X51331Y-32409D02*
X51331Y-32015D01*
X51331Y-32390D02*
X51303Y-32409D01*
X51247Y-32409D01*
X51219Y-32390D01*
X51205Y-32371D01*
X51190Y-32334D01*
X51190Y-32221D01*
X51205Y-32184D01*
X51219Y-32165D01*
X51247Y-32146D01*
X51303Y-32146D01*
X51331Y-32165D01*
X51696Y-32203D02*
X51795Y-32203D01*
X51837Y-32409D02*
X51696Y-32409D01*
X51696Y-32015D01*
X51837Y-32015D01*
X51949Y-32390D02*
X51977Y-32409D01*
X52033Y-32409D01*
X52061Y-32390D01*
X52075Y-32353D01*
X52075Y-32334D01*
X52061Y-32296D01*
X52033Y-32278D01*
X51991Y-32278D01*
X51963Y-32259D01*
X51949Y-32221D01*
X51949Y-32203D01*
X51963Y-32165D01*
X51991Y-32146D01*
X52033Y-32146D01*
X52061Y-32165D01*
X52160Y-32146D02*
X52272Y-32146D01*
X52202Y-32015D02*
X52202Y-32353D01*
X52216Y-32390D01*
X52244Y-32409D01*
X52272Y-32409D01*
X52483Y-32390D02*
X52455Y-32409D01*
X52399Y-32409D01*
X52370Y-32390D01*
X52356Y-32353D01*
X52356Y-32203D01*
X52370Y-32165D01*
X52399Y-32146D01*
X52455Y-32146D01*
X52483Y-32165D01*
X52497Y-32203D01*
X52497Y-32240D01*
X52356Y-32278D01*
X52455Y-31996D02*
X52413Y-32053D01*
X52595Y-32146D02*
X52665Y-32409D01*
X52736Y-32146D01*
X52960Y-32390D02*
X52932Y-32409D01*
X52876Y-32409D01*
X52848Y-32390D01*
X52834Y-32353D01*
X52834Y-32203D01*
X52848Y-32165D01*
X52876Y-32146D01*
X52932Y-32146D01*
X52960Y-32165D01*
X52975Y-32203D01*
X52975Y-32240D01*
X52834Y-32278D01*
X53073Y-32146D02*
X53227Y-32146D01*
X53073Y-32409D01*
X53227Y-32409D01*
X53663Y-32203D02*
X53565Y-32203D01*
X53565Y-32409D02*
X53565Y-32015D01*
X53705Y-32015D01*
X53930Y-32390D02*
X53902Y-32409D01*
X53845Y-32409D01*
X53817Y-32390D01*
X53803Y-32353D01*
X53803Y-32203D01*
X53817Y-32165D01*
X53845Y-32146D01*
X53902Y-32146D01*
X53930Y-32165D01*
X53944Y-32203D01*
X53944Y-32240D01*
X53803Y-32278D01*
X54070Y-32409D02*
X54070Y-32146D01*
X54070Y-32221D02*
X54084Y-32184D01*
X54098Y-32165D01*
X54126Y-32146D01*
X54154Y-32146D01*
X54253Y-32146D02*
X54253Y-32409D01*
X54253Y-32184D02*
X54267Y-32165D01*
X54295Y-32146D01*
X54337Y-32146D01*
X54365Y-32165D01*
X54379Y-32203D01*
X54379Y-32409D01*
X54646Y-32409D02*
X54646Y-32203D01*
X54632Y-32165D01*
X54604Y-32146D01*
X54548Y-32146D01*
X54520Y-32165D01*
X54646Y-32390D02*
X54618Y-32409D01*
X54548Y-32409D01*
X54520Y-32390D01*
X54506Y-32353D01*
X54506Y-32315D01*
X54520Y-32278D01*
X54548Y-32259D01*
X54618Y-32259D01*
X54646Y-32240D01*
X54604Y-31996D02*
X54562Y-32053D01*
X54787Y-32146D02*
X54787Y-32409D01*
X54787Y-32184D02*
X54801Y-32165D01*
X54829Y-32146D01*
X54871Y-32146D01*
X54899Y-32165D01*
X54913Y-32203D01*
X54913Y-32409D01*
X55180Y-32409D02*
X55180Y-32015D01*
X55180Y-32390D02*
X55152Y-32409D01*
X55096Y-32409D01*
X55068Y-32390D01*
X55054Y-32371D01*
X55039Y-32334D01*
X55039Y-32221D01*
X55054Y-32184D01*
X55068Y-32165D01*
X55096Y-32146D01*
X55152Y-32146D01*
X55180Y-32165D01*
X55433Y-32390D02*
X55405Y-32409D01*
X55349Y-32409D01*
X55320Y-32390D01*
X55306Y-32353D01*
X55306Y-32203D01*
X55320Y-32165D01*
X55349Y-32146D01*
X55405Y-32146D01*
X55433Y-32165D01*
X55447Y-32203D01*
X55447Y-32240D01*
X55306Y-32278D01*
X55545Y-32146D02*
X55700Y-32146D01*
X55545Y-32409D01*
X55700Y-32409D01*
G54D16*
X67250Y-28250D02*
X49750Y-28250D01*
X68250Y-46750D02*
X68250Y-29250D01*
X68250Y-29250D02*
G75*
G03X67250Y-28250I-1000J0D01*
G74*
G01*
X50000Y-47750D02*
X67250Y-47750D01*
X48750Y-46500D02*
X48750Y-29250D01*
X48750Y-46500D02*
G75*
G03X50000Y-47750I1250J0D01*
G74*
G01*
X67250Y-47750D02*
G75*
G03X68250Y-46750I0J1000D01*
G74*
G01*
X49750Y-28250D02*
G75*
G03X48750Y-29250I0J-1000D01*
G74*
G01*
G54D17*
X50800Y-42550D02*
X50400Y-42550D01*
X50400Y-42550D02*
X50400Y-41950D01*
X50400Y-41950D02*
X50800Y-41950D01*
X51200Y-41950D02*
X51600Y-41950D01*
X51600Y-41950D02*
X51600Y-42550D01*
X51600Y-42550D02*
X51200Y-42550D01*
X50800Y-40800D02*
X50400Y-40800D01*
X50400Y-40800D02*
X50400Y-40200D01*
X50400Y-40200D02*
X50800Y-40200D01*
X51200Y-40200D02*
X51600Y-40200D01*
X51600Y-40200D02*
X51600Y-40800D01*
X51600Y-40800D02*
X51200Y-40800D01*
G54D18*
X63004Y-38856D02*
X62335Y-38856D01*
X63004Y-39644D02*
X62335Y-39644D01*
X61094Y-38856D02*
X61665Y-38856D01*
X61094Y-39644D02*
X61665Y-39644D01*
X63004Y-38856D02*
X63004Y-39644D01*
X62965Y-39644D02*
X62965Y-38856D01*
X61094Y-38856D02*
X61094Y-39644D01*
X62906Y-38856D02*
X62906Y-39644D01*
G54D19*
G36*
X52232Y-35388D02*
X52232Y-35048D01*
X50594Y-35048D01*
X50594Y-33412D01*
X52232Y-33412D01*
X52232Y-35048D01*
X52541Y-35048D01*
X52541Y-33085D01*
X50275Y-33085D01*
X50275Y-35388D01*
X50594Y-35388D01*
X50594Y-35048D01*
X50594Y-35388D01*
X52232Y-35388D01*
X52232Y-35388D01*
G37*
G36*
X60287Y-34983D02*
X60287Y-34856D01*
X60287Y-34804D01*
X60284Y-34756D01*
X60280Y-34735D01*
X60271Y-34729D01*
X60269Y-34730D01*
X60263Y-34743D01*
X60258Y-34778D01*
X60258Y-34840D01*
X60258Y-34956D01*
X60206Y-34956D01*
X60200Y-34956D01*
X60166Y-34957D01*
X60155Y-34968D01*
X60157Y-34975D01*
X60174Y-34981D01*
X60222Y-34983D01*
X60287Y-34983D01*
X60287Y-34983D01*
G37*
G36*
X53831Y-34972D02*
X53837Y-34972D01*
X53843Y-34959D01*
X53848Y-34929D01*
X53848Y-34869D01*
X53848Y-34765D01*
X53902Y-34716D01*
X53929Y-34687D01*
X53945Y-34665D01*
X53942Y-34654D01*
X53936Y-34653D01*
X53912Y-34664D01*
X53874Y-34696D01*
X53864Y-34705D01*
X53804Y-34750D01*
X53734Y-34791D01*
X53670Y-34816D01*
X53664Y-34819D01*
X53656Y-34837D01*
X53659Y-34840D01*
X53672Y-34848D01*
X53702Y-34838D01*
X53756Y-34813D01*
X53761Y-34810D01*
X53798Y-34794D01*
X53818Y-34784D01*
X53818Y-34791D01*
X53820Y-34826D01*
X53818Y-34880D01*
X53818Y-34910D01*
X53818Y-34951D01*
X53821Y-34970D01*
X53831Y-34972D01*
X53831Y-34972D01*
G37*
G36*
X59094Y-34972D02*
X59101Y-34972D01*
X59107Y-34959D01*
X59112Y-34929D01*
X59112Y-34869D01*
X59112Y-34765D01*
X59166Y-34716D01*
X59194Y-34687D01*
X59210Y-34665D01*
X59207Y-34654D01*
X59200Y-34653D01*
X59178Y-34664D01*
X59140Y-34696D01*
X59129Y-34705D01*
X59066Y-34750D01*
X58997Y-34791D01*
X58934Y-34816D01*
X58928Y-34819D01*
X58919Y-34837D01*
X58924Y-34840D01*
X58937Y-34848D01*
X58967Y-34838D01*
X59021Y-34813D01*
X59026Y-34810D01*
X59062Y-34794D01*
X59081Y-34784D01*
X59081Y-34791D01*
X59083Y-34826D01*
X59081Y-34880D01*
X59081Y-34910D01*
X59081Y-34951D01*
X59086Y-34970D01*
X59094Y-34972D01*
X59094Y-34972D01*
G37*
G36*
X54992Y-34956D02*
X55008Y-34956D01*
X55044Y-34938D01*
X55073Y-34921D01*
X55139Y-34862D01*
X55198Y-34789D01*
X55241Y-34716D01*
X55260Y-34648D01*
X55262Y-34621D01*
X55171Y-34621D01*
X55139Y-34621D01*
X55096Y-34621D01*
X55079Y-34618D01*
X55081Y-34614D01*
X55092Y-34588D01*
X55098Y-34575D01*
X55100Y-34556D01*
X55094Y-34551D01*
X55074Y-34557D01*
X55051Y-34599D01*
X55046Y-34605D01*
X55016Y-34654D01*
X54976Y-34702D01*
X54943Y-34737D01*
X54930Y-34756D01*
X54936Y-34770D01*
X54936Y-34770D01*
X54952Y-34772D01*
X54971Y-34756D01*
X55009Y-34716D01*
X55068Y-34653D01*
X55144Y-34646D01*
X55192Y-34644D01*
X55217Y-34653D01*
X55217Y-34676D01*
X55195Y-34726D01*
X55181Y-34754D01*
X55133Y-34816D01*
X55073Y-34873D01*
X55019Y-34912D01*
X54995Y-34924D01*
X54977Y-34934D01*
X54977Y-34934D01*
X54986Y-34948D01*
X54992Y-34956D01*
X54992Y-34956D01*
G37*
G36*
X58200Y-34964D02*
X58206Y-34964D01*
X58213Y-34956D01*
X58217Y-34935D01*
X58217Y-34892D01*
X58219Y-34819D01*
X58219Y-34672D01*
X58310Y-34672D01*
X58364Y-34672D01*
X58390Y-34668D01*
X58397Y-34659D01*
X58397Y-34659D01*
X58390Y-34651D01*
X58364Y-34646D01*
X58308Y-34644D01*
X58219Y-34644D01*
X58219Y-34600D01*
X58219Y-34594D01*
X58216Y-34567D01*
X58200Y-34560D01*
X58195Y-34560D01*
X58184Y-34568D01*
X58181Y-34600D01*
X58181Y-34644D01*
X58090Y-34644D01*
X58036Y-34646D01*
X58010Y-34651D01*
X58003Y-34659D01*
X58003Y-34659D01*
X58010Y-34668D01*
X58036Y-34672D01*
X58092Y-34672D01*
X58181Y-34672D01*
X58181Y-34819D01*
X58181Y-34867D01*
X58183Y-34921D01*
X58184Y-34951D01*
X58192Y-34962D01*
X58200Y-34964D01*
X58200Y-34964D01*
G37*
G36*
X59371Y-34956D02*
X59388Y-34956D01*
X59425Y-34938D01*
X59453Y-34921D01*
X59520Y-34862D01*
X59578Y-34789D01*
X59621Y-34716D01*
X59641Y-34648D01*
X59642Y-34621D01*
X59552Y-34621D01*
X59520Y-34621D01*
X59477Y-34621D01*
X59459Y-34618D01*
X59461Y-34614D01*
X59472Y-34588D01*
X59479Y-34575D01*
X59480Y-34556D01*
X59474Y-34551D01*
X59455Y-34557D01*
X59431Y-34599D01*
X59426Y-34605D01*
X59396Y-34654D01*
X59356Y-34702D01*
X59323Y-34737D01*
X59310Y-34756D01*
X59317Y-34770D01*
X59317Y-34770D01*
X59329Y-34772D01*
X59351Y-34756D01*
X59390Y-34716D01*
X59448Y-34653D01*
X59524Y-34646D01*
X59572Y-34644D01*
X59598Y-34653D01*
X59598Y-34676D01*
X59576Y-34726D01*
X59561Y-34754D01*
X59513Y-34816D01*
X59453Y-34873D01*
X59399Y-34912D01*
X59375Y-34924D01*
X59358Y-34934D01*
X59356Y-34934D01*
X59364Y-34948D01*
X59371Y-34956D01*
X59371Y-34956D01*
G37*
G36*
X53286Y-34953D02*
X53324Y-34934D01*
X53340Y-34924D01*
X53394Y-34864D01*
X53422Y-34784D01*
X53431Y-34732D01*
X53518Y-34730D01*
X53564Y-34729D01*
X53594Y-34724D01*
X53604Y-34716D01*
X53602Y-34708D01*
X53586Y-34705D01*
X53554Y-34702D01*
X53496Y-34700D01*
X53405Y-34700D01*
X53335Y-34700D01*
X53270Y-34702D01*
X53232Y-34705D01*
X53213Y-34708D01*
X53208Y-34716D01*
X53208Y-34716D01*
X53215Y-34724D01*
X53243Y-34729D01*
X53297Y-34729D01*
X53327Y-34729D01*
X53370Y-34732D01*
X53392Y-34737D01*
X53392Y-34754D01*
X53383Y-34794D01*
X53381Y-34800D01*
X53345Y-34869D01*
X53286Y-34914D01*
X53270Y-34921D01*
X53262Y-34940D01*
X53267Y-34948D01*
X53286Y-34953D01*
X53286Y-34953D01*
G37*
G36*
X55819Y-34953D02*
X55840Y-34946D01*
X55878Y-34924D01*
X55910Y-34899D01*
X55962Y-34827D01*
X55986Y-34730D01*
X55988Y-34696D01*
X55984Y-34676D01*
X55973Y-34672D01*
X55958Y-34678D01*
X55954Y-34708D01*
X55938Y-34794D01*
X55895Y-34864D01*
X55829Y-34912D01*
X55826Y-34914D01*
X55800Y-34927D01*
X55802Y-34940D01*
X55807Y-34945D01*
X55819Y-34953D01*
X55819Y-34953D01*
G37*
G36*
X56790Y-34956D02*
X56801Y-34953D01*
X56807Y-34940D01*
X56809Y-34908D01*
X56809Y-34848D01*
X56809Y-34800D01*
X56812Y-34756D01*
X56813Y-34740D01*
X56834Y-34746D01*
X56876Y-34762D01*
X56921Y-34786D01*
X56958Y-34808D01*
X56963Y-34810D01*
X56995Y-34826D01*
X57012Y-34821D01*
X57014Y-34821D01*
X57025Y-34804D01*
X57012Y-34795D01*
X56974Y-34773D01*
X56917Y-34748D01*
X56809Y-34696D01*
X56809Y-34627D01*
X56809Y-34584D01*
X56802Y-34564D01*
X56790Y-34560D01*
X56785Y-34560D01*
X56779Y-34564D01*
X56774Y-34579D01*
X56772Y-34611D01*
X56772Y-34670D01*
X56772Y-34756D01*
X56772Y-34800D01*
X56772Y-34873D01*
X56772Y-34918D01*
X56777Y-34942D01*
X56780Y-34953D01*
X56790Y-34956D01*
X56790Y-34956D01*
G37*
G36*
X58537Y-34953D02*
X58573Y-34935D01*
X58616Y-34905D01*
X58662Y-34848D01*
X58680Y-34783D01*
X58680Y-34759D01*
X58691Y-34740D01*
X58718Y-34730D01*
X58775Y-34729D01*
X58824Y-34729D01*
X58850Y-34724D01*
X58859Y-34716D01*
X58854Y-34708D01*
X58842Y-34705D01*
X58807Y-34702D01*
X58748Y-34700D01*
X58660Y-34700D01*
X58591Y-34700D01*
X58526Y-34702D01*
X58487Y-34705D01*
X58468Y-34708D01*
X58464Y-34716D01*
X58464Y-34716D01*
X58472Y-34724D01*
X58500Y-34729D01*
X58559Y-34729D01*
X58654Y-34729D01*
X58648Y-34770D01*
X58643Y-34784D01*
X58610Y-34858D01*
X58554Y-34908D01*
X58529Y-34924D01*
X58518Y-34942D01*
X58519Y-34948D01*
X58537Y-34953D01*
X58537Y-34953D01*
G37*
G36*
X54496Y-34938D02*
X54526Y-34924D01*
X54530Y-34921D01*
X54574Y-34892D01*
X54619Y-34854D01*
X54630Y-34845D01*
X54664Y-34815D01*
X54682Y-34804D01*
X54690Y-34810D01*
X54720Y-34837D01*
X54761Y-34875D01*
X54779Y-34892D01*
X54822Y-34929D01*
X54846Y-34938D01*
X54854Y-34923D01*
X54847Y-34910D01*
X54820Y-34880D01*
X54776Y-34838D01*
X54701Y-34770D01*
X54720Y-34741D01*
X54738Y-34716D01*
X54761Y-34668D01*
X54779Y-34629D01*
X54782Y-34608D01*
X54782Y-34605D01*
X54761Y-34600D01*
X54714Y-34599D01*
X54647Y-34597D01*
X54636Y-34597D01*
X54571Y-34599D01*
X54534Y-34600D01*
X54520Y-34605D01*
X54515Y-34614D01*
X54517Y-34622D01*
X54533Y-34627D01*
X54565Y-34629D01*
X54628Y-34627D01*
X54679Y-34627D01*
X54725Y-34627D01*
X54739Y-34632D01*
X54739Y-34632D01*
X54731Y-34653D01*
X54712Y-34692D01*
X54706Y-34702D01*
X54652Y-34772D01*
X54584Y-34837D01*
X54520Y-34886D01*
X54500Y-34897D01*
X54479Y-34914D01*
X54479Y-34929D01*
X54482Y-34935D01*
X54496Y-34938D01*
X54496Y-34938D01*
G37*
G36*
X57293Y-34945D02*
X57308Y-34942D01*
X57317Y-34921D01*
X57314Y-34905D01*
X57293Y-34899D01*
X57277Y-34902D01*
X57269Y-34921D01*
X57271Y-34935D01*
X57293Y-34945D01*
X57293Y-34945D01*
G37*
G36*
X57889Y-34945D02*
X57900Y-34942D01*
X57904Y-34932D01*
X57906Y-34905D01*
X57908Y-34856D01*
X57908Y-34776D01*
X57908Y-34608D01*
X57569Y-34600D01*
X57569Y-34778D01*
X57571Y-34858D01*
X57571Y-34905D01*
X57576Y-34932D01*
X57580Y-34942D01*
X57589Y-34945D01*
X57595Y-34945D01*
X57608Y-34927D01*
X57608Y-34880D01*
X57608Y-34635D01*
X57871Y-34635D01*
X57871Y-34880D01*
X57608Y-34880D01*
X57608Y-34927D01*
X57608Y-34923D01*
X57612Y-34914D01*
X57632Y-34910D01*
X57671Y-34908D01*
X57740Y-34908D01*
X57768Y-34908D01*
X57827Y-34908D01*
X57857Y-34910D01*
X57870Y-34916D01*
X57871Y-34927D01*
X57871Y-34932D01*
X57889Y-34945D01*
X57889Y-34945D01*
G37*
G36*
X59750Y-34938D02*
X59782Y-34924D01*
X59785Y-34921D01*
X59826Y-34892D01*
X59874Y-34854D01*
X59885Y-34845D01*
X59917Y-34815D01*
X59936Y-34804D01*
X59945Y-34810D01*
X59976Y-34837D01*
X60017Y-34875D01*
X60034Y-34892D01*
X60077Y-34929D01*
X60101Y-34938D01*
X60107Y-34923D01*
X60101Y-34910D01*
X60073Y-34880D01*
X60031Y-34838D01*
X59956Y-34770D01*
X59974Y-34741D01*
X59990Y-34716D01*
X60017Y-34668D01*
X60034Y-34629D01*
X60038Y-34608D01*
X60038Y-34605D01*
X60017Y-34600D01*
X59969Y-34599D01*
X59900Y-34597D01*
X59891Y-34597D01*
X59826Y-34599D01*
X59790Y-34600D01*
X59772Y-34605D01*
X59771Y-34614D01*
X59772Y-34622D01*
X59785Y-34627D01*
X59820Y-34629D01*
X59882Y-34627D01*
X59934Y-34627D01*
X59977Y-34627D01*
X59995Y-34632D01*
X59995Y-34632D01*
X59987Y-34653D01*
X59965Y-34692D01*
X59958Y-34702D01*
X59906Y-34772D01*
X59839Y-34837D01*
X59772Y-34886D01*
X59755Y-34897D01*
X59734Y-34914D01*
X59734Y-34929D01*
X59738Y-34935D01*
X59750Y-34938D01*
X59750Y-34938D01*
G37*
G36*
X58014Y-34923D02*
X58030Y-34912D01*
X58054Y-34873D01*
X58060Y-34864D01*
X58079Y-34824D01*
X58097Y-34780D01*
X58109Y-34743D01*
X58111Y-34729D01*
X58094Y-34724D01*
X58092Y-34722D01*
X58076Y-34735D01*
X58060Y-34776D01*
X58040Y-34826D01*
X58016Y-34867D01*
X58000Y-34894D01*
X58003Y-34912D01*
X58014Y-34923D01*
X58014Y-34923D01*
G37*
G36*
X58381Y-34921D02*
X58394Y-34914D01*
X58405Y-34902D01*
X58394Y-34881D01*
X58392Y-34878D01*
X58373Y-34845D01*
X58349Y-34800D01*
X58330Y-34756D01*
X58324Y-34730D01*
X58324Y-34730D01*
X58308Y-34719D01*
X58291Y-34726D01*
X58291Y-34730D01*
X58297Y-34759D01*
X58314Y-34802D01*
X58338Y-34851D01*
X58360Y-34892D01*
X58367Y-34903D01*
X58381Y-34921D01*
X58381Y-34921D01*
G37*
G36*
X55535Y-34899D02*
X55559Y-34899D01*
X55640Y-34897D01*
X55692Y-34897D01*
X55721Y-34892D01*
X55735Y-34888D01*
X55738Y-34881D01*
X55738Y-34878D01*
X55727Y-34869D01*
X55699Y-34867D01*
X55643Y-34869D01*
X55549Y-34870D01*
X55549Y-34642D01*
X55627Y-34646D01*
X55675Y-34646D01*
X55694Y-34644D01*
X55699Y-34633D01*
X55699Y-34627D01*
X55688Y-34621D01*
X55662Y-34618D01*
X55614Y-34616D01*
X55535Y-34616D01*
X55476Y-34616D01*
X55420Y-34618D01*
X55387Y-34621D01*
X55375Y-34624D01*
X55370Y-34633D01*
X55375Y-34644D01*
X55394Y-34646D01*
X55441Y-34646D01*
X55511Y-34642D01*
X55511Y-34870D01*
X55422Y-34869D01*
X55398Y-34867D01*
X55355Y-34867D01*
X55338Y-34870D01*
X55333Y-34881D01*
X55333Y-34884D01*
X55338Y-34891D01*
X55354Y-34894D01*
X55387Y-34897D01*
X55446Y-34897D01*
X55535Y-34899D01*
X55535Y-34899D01*
G37*
G36*
X53044Y-34784D02*
X53048Y-34784D01*
X53054Y-34772D01*
X53057Y-34737D01*
X53057Y-34672D01*
X53057Y-34560D01*
X53105Y-34560D01*
X53141Y-34557D01*
X53152Y-34545D01*
X53152Y-34540D01*
X53135Y-34534D01*
X53092Y-34532D01*
X53029Y-34532D01*
X53029Y-34659D01*
X53032Y-34711D01*
X53032Y-34756D01*
X53035Y-34780D01*
X53044Y-34784D01*
X53044Y-34784D01*
G37*
G36*
X54252Y-34776D02*
X54295Y-34776D01*
X54368Y-34776D01*
X54414Y-34773D01*
X54437Y-34772D01*
X54448Y-34765D01*
X54450Y-34756D01*
X54450Y-34752D01*
X54444Y-34746D01*
X54428Y-34741D01*
X54396Y-34740D01*
X54340Y-34740D01*
X54252Y-34740D01*
X54210Y-34740D01*
X54137Y-34740D01*
X54090Y-34740D01*
X54066Y-34743D01*
X54058Y-34748D01*
X54055Y-34756D01*
X54055Y-34761D01*
X54059Y-34767D01*
X54074Y-34772D01*
X54107Y-34776D01*
X54166Y-34776D01*
X54252Y-34776D01*
X54252Y-34776D01*
G37*
G36*
X56423Y-34776D02*
X56466Y-34776D01*
X56539Y-34776D01*
X56585Y-34773D01*
X56610Y-34772D01*
X56618Y-34765D01*
X56621Y-34756D01*
X56621Y-34752D01*
X56617Y-34746D01*
X56602Y-34741D01*
X56569Y-34740D01*
X56510Y-34740D01*
X56423Y-34740D01*
X56381Y-34740D01*
X56308Y-34740D01*
X56262Y-34740D01*
X56237Y-34743D01*
X56228Y-34748D01*
X56226Y-34756D01*
X56226Y-34761D01*
X56230Y-34767D01*
X56245Y-34772D01*
X56278Y-34776D01*
X56336Y-34776D01*
X56423Y-34776D01*
X56423Y-34776D01*
G37*
G36*
X56027Y-34759D02*
X56057Y-34750D01*
X56107Y-34711D01*
X56122Y-34696D01*
X56150Y-34657D01*
X56170Y-34621D01*
X56174Y-34597D01*
X56172Y-34597D01*
X56142Y-34592D01*
X56078Y-34588D01*
X55986Y-34588D01*
X55934Y-34588D01*
X55867Y-34588D01*
X55826Y-34592D01*
X55808Y-34594D01*
X55802Y-34600D01*
X55802Y-34605D01*
X55813Y-34610D01*
X55837Y-34614D01*
X55886Y-34616D01*
X55967Y-34616D01*
X56057Y-34618D01*
X56113Y-34621D01*
X56132Y-34627D01*
X56131Y-34632D01*
X56111Y-34654D01*
X56078Y-34687D01*
X56046Y-34718D01*
X56024Y-34729D01*
X56012Y-34735D01*
X56021Y-34754D01*
X56027Y-34759D01*
X56027Y-34759D01*
G37*
G36*
X57293Y-34719D02*
X57308Y-34718D01*
X57317Y-34696D01*
X57314Y-34681D01*
X57293Y-34672D01*
X57277Y-34675D01*
X57269Y-34696D01*
X57271Y-34711D01*
X57293Y-34719D01*
X57293Y-34719D01*
G37*
G36*
X53575Y-34670D02*
X53588Y-34664D01*
X53586Y-34642D01*
X53572Y-34611D01*
X53551Y-34597D01*
X53543Y-34599D01*
X53539Y-34608D01*
X53554Y-34640D01*
X53556Y-34644D01*
X53575Y-34670D01*
X53575Y-34670D01*
G37*
G36*
X56977Y-34670D02*
X56990Y-34665D01*
X56990Y-34653D01*
X56975Y-34624D01*
X56956Y-34599D01*
X56941Y-34592D01*
X56936Y-34608D01*
X56952Y-34638D01*
X56960Y-34651D01*
X56977Y-34670D01*
X56977Y-34670D01*
G37*
G36*
X57031Y-34646D02*
X57040Y-34638D01*
X57025Y-34603D01*
X57012Y-34584D01*
X56996Y-34568D01*
X56995Y-34568D01*
X56986Y-34581D01*
X57004Y-34618D01*
X57007Y-34624D01*
X57031Y-34646D01*
X57031Y-34646D01*
G37*
G36*
X53632Y-34644D02*
X53640Y-34633D01*
X53632Y-34610D01*
X53608Y-34570D01*
X53594Y-34573D01*
X53591Y-34579D01*
X53602Y-34611D01*
X53615Y-34632D01*
X53632Y-34644D01*
X53632Y-34644D01*
G37*
G36*
X58356Y-34616D02*
X58364Y-34616D01*
X58367Y-34605D01*
X58349Y-34575D01*
X58338Y-34557D01*
X58316Y-34546D01*
X58310Y-34551D01*
X58310Y-34564D01*
X58330Y-34594D01*
X58336Y-34603D01*
X58356Y-34616D01*
X58356Y-34616D01*
G37*
G36*
X58660Y-34616D02*
X58669Y-34616D01*
X58742Y-34616D01*
X58786Y-34614D01*
X58805Y-34610D01*
X58811Y-34600D01*
X58811Y-34600D01*
X58805Y-34594D01*
X58781Y-34590D01*
X58735Y-34588D01*
X58660Y-34588D01*
X58654Y-34588D01*
X58580Y-34588D01*
X58537Y-34590D01*
X58516Y-34594D01*
X58508Y-34600D01*
X58511Y-34603D01*
X58516Y-34610D01*
X58540Y-34614D01*
X58584Y-34616D01*
X58660Y-34616D01*
X58660Y-34616D01*
G37*
G36*
X53388Y-34608D02*
X53446Y-34608D01*
X53491Y-34605D01*
X53513Y-34600D01*
X53519Y-34592D01*
X53515Y-34586D01*
X53497Y-34581D01*
X53456Y-34579D01*
X53388Y-34579D01*
X53329Y-34579D01*
X53284Y-34581D01*
X53260Y-34586D01*
X53256Y-34592D01*
X53258Y-34599D01*
X53278Y-34603D01*
X53316Y-34605D01*
X53388Y-34608D01*
X53388Y-34608D01*
G37*
G36*
X58405Y-34599D02*
X58416Y-34592D01*
X58410Y-34573D01*
X58392Y-34545D01*
X58373Y-34532D01*
X58367Y-34532D01*
X58362Y-34540D01*
X58375Y-34570D01*
X58386Y-34584D01*
X58405Y-34599D01*
X58405Y-34599D01*
G37*
G36*
X55945Y-34467D02*
X56165Y-34460D01*
X56170Y-33404D01*
X55951Y-33404D01*
X55954Y-33439D01*
X55954Y-33458D01*
X55954Y-33482D01*
X55954Y-33482D01*
X55940Y-33477D01*
X55913Y-33452D01*
X55876Y-33426D01*
X55794Y-33393D01*
X55690Y-33387D01*
X55668Y-33390D01*
X55565Y-33417D01*
X55481Y-33477D01*
X55416Y-33564D01*
X55375Y-33674D01*
X55362Y-33806D01*
X55362Y-33812D01*
X55376Y-33940D01*
X55418Y-34048D01*
X55483Y-34130D01*
X55570Y-34186D01*
X55675Y-34210D01*
X55721Y-34210D01*
X55787Y-34200D01*
X55787Y-34048D01*
X55711Y-34041D01*
X55649Y-34006D01*
X55630Y-33984D01*
X55597Y-33914D01*
X55584Y-33825D01*
X55586Y-33735D01*
X55603Y-33670D01*
X55646Y-33598D01*
X55708Y-33558D01*
X55783Y-33549D01*
X55816Y-33553D01*
X55878Y-33590D01*
X55924Y-33657D01*
X55927Y-33663D01*
X55940Y-33700D01*
X55948Y-33741D01*
X55949Y-33804D01*
X55949Y-33823D01*
X55948Y-33876D01*
X55938Y-33912D01*
X55924Y-33949D01*
X55902Y-33985D01*
X55865Y-34022D01*
X55856Y-34028D01*
X55787Y-34048D01*
X55787Y-34200D01*
X55819Y-34192D01*
X55902Y-34146D01*
X55945Y-34106D01*
X55945Y-34467D01*
X55945Y-34467D01*
G37*
G36*
X53377Y-34210D02*
X53405Y-34206D01*
X53405Y-34048D01*
X53346Y-34044D01*
X53314Y-34028D01*
X53262Y-33974D01*
X53227Y-33897D01*
X53215Y-33804D01*
X53215Y-33789D01*
X53227Y-33685D01*
X53264Y-33609D01*
X53323Y-33564D01*
X53402Y-33549D01*
X53453Y-33555D01*
X53510Y-33585D01*
X53554Y-33649D01*
X53562Y-33663D01*
X53573Y-33698D01*
X53578Y-33736D01*
X53580Y-33800D01*
X53580Y-33830D01*
X53578Y-33879D01*
X53569Y-33914D01*
X53554Y-33951D01*
X53537Y-33981D01*
X53496Y-34024D01*
X53470Y-34038D01*
X53405Y-34048D01*
X53405Y-34206D01*
X53453Y-34197D01*
X53474Y-34190D01*
X53543Y-34146D01*
X53584Y-34106D01*
X53584Y-34192D01*
X53800Y-34192D01*
X53800Y-33102D01*
X53575Y-33102D01*
X53575Y-33490D01*
X53532Y-33452D01*
X53489Y-33422D01*
X53399Y-33391D01*
X53302Y-33387D01*
X53206Y-33411D01*
X53156Y-33441D01*
X53092Y-33501D01*
X53044Y-33566D01*
X53016Y-33638D01*
X52994Y-33757D01*
X52999Y-33873D01*
X53027Y-33984D01*
X53076Y-34078D01*
X53150Y-34152D01*
X53240Y-34200D01*
X53292Y-34208D01*
X53377Y-34210D01*
X53377Y-34210D01*
G37*
G36*
X54952Y-34210D02*
X55046Y-34197D01*
X55124Y-34173D01*
X55202Y-34117D01*
X55252Y-34041D01*
X55268Y-33949D01*
X55267Y-33909D01*
X55243Y-33836D01*
X55189Y-33782D01*
X55154Y-33760D01*
X55109Y-33741D01*
X55044Y-33722D01*
X54952Y-33700D01*
X54914Y-33692D01*
X54839Y-33666D01*
X54796Y-33639D01*
X54781Y-33609D01*
X54781Y-33603D01*
X54792Y-33560D01*
X54836Y-33534D01*
X54889Y-33528D01*
X54958Y-33538D01*
X55009Y-33566D01*
X55038Y-33612D01*
X55044Y-33638D01*
X55146Y-33638D01*
X55171Y-33638D01*
X55224Y-33638D01*
X55246Y-33627D01*
X55247Y-33603D01*
X55235Y-33560D01*
X55214Y-33523D01*
X55159Y-33458D01*
X55084Y-33412D01*
X55062Y-33404D01*
X55025Y-33396D01*
X54977Y-33391D01*
X54906Y-33390D01*
X54830Y-33391D01*
X54749Y-33402D01*
X54685Y-33423D01*
X54634Y-33463D01*
X54623Y-33471D01*
X54576Y-33544D01*
X54558Y-33638D01*
X54560Y-33655D01*
X54571Y-33711D01*
X54599Y-33757D01*
X54652Y-33793D01*
X54731Y-33825D01*
X54844Y-33858D01*
X54863Y-33862D01*
X54944Y-33886D01*
X54998Y-33908D01*
X55031Y-33927D01*
X55046Y-33952D01*
X55051Y-33970D01*
X55040Y-34014D01*
X55006Y-34046D01*
X54954Y-34065D01*
X54893Y-34068D01*
X54833Y-34054D01*
X54781Y-34020D01*
X54766Y-34000D01*
X54750Y-33963D01*
X54750Y-33940D01*
X54536Y-33940D01*
X54544Y-33979D01*
X54547Y-34000D01*
X54566Y-34057D01*
X54601Y-34104D01*
X54664Y-34156D01*
X54766Y-34197D01*
X54850Y-34208D01*
X54952Y-34210D01*
X54952Y-34210D01*
G37*
G36*
X56617Y-34210D02*
X56680Y-34203D01*
X56761Y-34176D01*
X56826Y-34124D01*
X56856Y-34089D01*
X56856Y-34192D01*
X57072Y-34192D01*
X57072Y-33404D01*
X56848Y-33404D01*
X56845Y-33663D01*
X56844Y-33754D01*
X56842Y-33834D01*
X56839Y-33888D01*
X56834Y-33922D01*
X56831Y-33944D01*
X56822Y-33963D01*
X56812Y-33981D01*
X56761Y-34024D01*
X56686Y-34038D01*
X56642Y-34035D01*
X56606Y-34017D01*
X56591Y-34006D01*
X56574Y-33990D01*
X56563Y-33963D01*
X56556Y-33927D01*
X56552Y-33871D01*
X56550Y-33787D01*
X56548Y-33674D01*
X56545Y-33404D01*
X56321Y-33404D01*
X56321Y-33631D01*
X56321Y-33703D01*
X56323Y-33843D01*
X56332Y-33952D01*
X56347Y-34038D01*
X56366Y-34098D01*
X56396Y-34143D01*
X56437Y-34173D01*
X56489Y-34197D01*
X56542Y-34208D01*
X56617Y-34210D01*
X56617Y-34210D01*
G37*
G36*
X57442Y-34210D02*
X57522Y-34206D01*
X57522Y-34068D01*
X57470Y-34057D01*
X57446Y-34044D01*
X57418Y-33996D01*
X57418Y-33938D01*
X57427Y-33916D01*
X57446Y-33895D01*
X57481Y-33876D01*
X57536Y-33860D01*
X57622Y-33843D01*
X57628Y-33841D01*
X57677Y-33830D01*
X57706Y-33822D01*
X57709Y-33822D01*
X57719Y-33822D01*
X57720Y-33838D01*
X57719Y-33886D01*
X57714Y-33922D01*
X57690Y-34000D01*
X57644Y-34046D01*
X57641Y-34048D01*
X57587Y-34065D01*
X57522Y-34068D01*
X57522Y-34206D01*
X57539Y-34206D01*
X57630Y-34184D01*
X57698Y-34147D01*
X57725Y-34125D01*
X57742Y-34192D01*
X57965Y-34192D01*
X57954Y-34167D01*
X57949Y-34141D01*
X57946Y-34076D01*
X57941Y-33976D01*
X57936Y-33841D01*
X57936Y-33801D01*
X57935Y-33692D01*
X57932Y-33612D01*
X57925Y-33555D01*
X57919Y-33519D01*
X57906Y-33493D01*
X57889Y-33474D01*
X57865Y-33452D01*
X57828Y-33428D01*
X57749Y-33402D01*
X57641Y-33387D01*
X57598Y-33387D01*
X57463Y-33398D01*
X57360Y-33433D01*
X57282Y-33493D01*
X57277Y-33498D01*
X57239Y-33562D01*
X57222Y-33628D01*
X57223Y-33639D01*
X57236Y-33646D01*
X57269Y-33649D01*
X57330Y-33649D01*
X57436Y-33649D01*
X57449Y-33609D01*
X57472Y-33564D01*
X57515Y-33538D01*
X57582Y-33530D01*
X57649Y-33536D01*
X57690Y-33558D01*
X57712Y-33601D01*
X57719Y-33631D01*
X57712Y-33666D01*
X57679Y-33692D01*
X57622Y-33711D01*
X57528Y-33726D01*
X57485Y-33733D01*
X57392Y-33750D01*
X57328Y-33769D01*
X57282Y-33795D01*
X57244Y-33830D01*
X57212Y-33882D01*
X57193Y-33966D01*
X57204Y-34057D01*
X57228Y-34104D01*
X57280Y-34158D01*
X57344Y-34195D01*
X57355Y-34200D01*
X57442Y-34210D01*
X57442Y-34210D01*
G37*
G36*
X59066Y-34210D02*
X59153Y-34197D01*
X59239Y-34165D01*
X59317Y-34104D01*
X59375Y-34011D01*
X59404Y-33952D01*
X59218Y-33949D01*
X59177Y-33990D01*
X59161Y-34003D01*
X59090Y-34044D01*
X59004Y-34048D01*
X58930Y-34024D01*
X58878Y-33970D01*
X58850Y-33890D01*
X58846Y-33855D01*
X59023Y-33855D01*
X59023Y-33714D01*
X58961Y-33714D01*
X58897Y-33714D01*
X58861Y-33706D01*
X58848Y-33696D01*
X58853Y-33674D01*
X58867Y-33642D01*
X58907Y-33588D01*
X58973Y-33553D01*
X59053Y-33549D01*
X59102Y-33562D01*
X59156Y-33612D01*
X59191Y-33687D01*
X59196Y-33714D01*
X59023Y-33714D01*
X59023Y-33855D01*
X59129Y-33855D01*
X59189Y-33855D01*
X59285Y-33855D01*
X59350Y-33854D01*
X59390Y-33847D01*
X59412Y-33836D01*
X59418Y-33819D01*
X59418Y-33790D01*
X59412Y-33752D01*
X59390Y-33655D01*
X59340Y-33544D01*
X59267Y-33463D01*
X59170Y-33409D01*
X59056Y-33387D01*
X58972Y-33390D01*
X58865Y-33417D01*
X58768Y-33477D01*
X58697Y-33558D01*
X58651Y-33660D01*
X58630Y-33771D01*
X58634Y-33886D01*
X58669Y-33994D01*
X58729Y-34084D01*
X58742Y-34100D01*
X58818Y-34162D01*
X58904Y-34197D01*
X58969Y-34208D01*
X59066Y-34210D01*
X59066Y-34210D01*
G37*
G36*
X59891Y-34210D02*
X59920Y-34206D01*
X59920Y-34048D01*
X59858Y-34044D01*
X59828Y-34028D01*
X59777Y-33974D01*
X59742Y-33897D01*
X59729Y-33804D01*
X59729Y-33790D01*
X59742Y-33685D01*
X59777Y-33609D01*
X59836Y-33564D01*
X59915Y-33549D01*
X59966Y-33555D01*
X60025Y-33585D01*
X60068Y-33649D01*
X60074Y-33663D01*
X60088Y-33698D01*
X60092Y-33736D01*
X60095Y-33800D01*
X60095Y-33830D01*
X60092Y-33879D01*
X60084Y-33914D01*
X60068Y-33951D01*
X60049Y-33981D01*
X60010Y-34024D01*
X59982Y-34038D01*
X59920Y-34048D01*
X59920Y-34206D01*
X59966Y-34197D01*
X59988Y-34190D01*
X60058Y-34146D01*
X60098Y-34106D01*
X60098Y-34192D01*
X60314Y-34192D01*
X60314Y-33102D01*
X60090Y-33102D01*
X60090Y-33490D01*
X60044Y-33452D01*
X60019Y-33430D01*
X59934Y-33393D01*
X59831Y-33387D01*
X59803Y-33390D01*
X59710Y-33417D01*
X59630Y-33476D01*
X59626Y-33477D01*
X59561Y-33566D01*
X59522Y-33672D01*
X59507Y-33787D01*
X59518Y-33906D01*
X59555Y-34016D01*
X59617Y-34108D01*
X59663Y-34152D01*
X59753Y-34200D01*
X59807Y-34208D01*
X59891Y-34210D01*
X59891Y-34210D01*
G37*
G36*
X61924Y-34212D02*
X62018Y-34195D01*
X62101Y-34160D01*
X62144Y-34128D01*
X62196Y-34068D01*
X62233Y-34009D01*
X62266Y-33914D01*
X62278Y-33789D01*
X62261Y-33670D01*
X62218Y-33564D01*
X62148Y-33477D01*
X62056Y-33415D01*
X62042Y-33409D01*
X62006Y-33396D01*
X61967Y-33391D01*
X61904Y-33390D01*
X61861Y-33390D01*
X61816Y-33393D01*
X61783Y-33402D01*
X61742Y-33420D01*
X61715Y-33436D01*
X61630Y-33508D01*
X61570Y-33606D01*
X61537Y-33722D01*
X61532Y-33847D01*
X61556Y-33963D01*
X61610Y-34070D01*
X61691Y-34147D01*
X61796Y-34200D01*
X61829Y-34208D01*
X61900Y-34210D01*
X61900Y-34132D01*
X61842Y-34128D01*
X61775Y-34100D01*
X61704Y-34035D01*
X61656Y-33946D01*
X61634Y-33838D01*
X61634Y-33747D01*
X61662Y-33642D01*
X61712Y-33560D01*
X61786Y-33501D01*
X61877Y-33474D01*
X61894Y-33471D01*
X61982Y-33484D01*
X62060Y-33528D01*
X62123Y-33598D01*
X62161Y-33690D01*
X62177Y-33795D01*
X62172Y-33854D01*
X62147Y-33963D01*
X62093Y-34050D01*
X62015Y-34111D01*
X61967Y-34125D01*
X61900Y-34132D01*
X61900Y-34210D01*
X61924Y-34212D01*
X61924Y-34212D01*
G37*
G36*
X62807Y-34210D02*
X62855Y-34206D01*
X62903Y-34197D01*
X62950Y-34176D01*
X62969Y-34165D01*
X63049Y-34098D01*
X63106Y-34003D01*
X63138Y-33888D01*
X63142Y-33757D01*
X63131Y-33681D01*
X63092Y-33564D01*
X63028Y-33476D01*
X62939Y-33415D01*
X62881Y-33396D01*
X62790Y-33385D01*
X62706Y-33393D01*
X62671Y-33406D01*
X62596Y-33450D01*
X62542Y-33506D01*
X62514Y-33549D01*
X62514Y-33102D01*
X62412Y-33102D01*
X62412Y-33657D01*
X62412Y-33793D01*
X62412Y-33916D01*
X62414Y-34020D01*
X62414Y-34104D01*
X62417Y-34158D01*
X62417Y-34179D01*
X62425Y-34186D01*
X62464Y-34192D01*
X62504Y-34192D01*
X62504Y-34122D01*
X62504Y-34102D01*
X62507Y-34068D01*
X62512Y-34059D01*
X62520Y-34071D01*
X62533Y-34089D01*
X62600Y-34156D01*
X62688Y-34200D01*
X62736Y-34208D01*
X62801Y-34210D01*
X62801Y-34132D01*
X62714Y-34124D01*
X62639Y-34092D01*
X62634Y-34087D01*
X62579Y-34027D01*
X62537Y-33946D01*
X62525Y-33892D01*
X62520Y-33806D01*
X62525Y-33717D01*
X62542Y-33649D01*
X62555Y-33616D01*
X62612Y-33538D01*
X62688Y-33490D01*
X62788Y-33474D01*
X62825Y-33476D01*
X62866Y-33482D01*
X62903Y-33501D01*
X62958Y-33547D01*
X63012Y-33628D01*
X63038Y-33736D01*
X63038Y-33862D01*
X63022Y-33952D01*
X62976Y-34041D01*
X62906Y-34104D01*
X62885Y-34114D01*
X62801Y-34132D01*
X62801Y-34210D01*
X62807Y-34210D01*
X62807Y-34210D01*
G37*
G36*
X63649Y-34210D02*
X63743Y-34195D01*
X63818Y-34162D01*
X63848Y-34141D01*
X63924Y-34059D01*
X63973Y-33951D01*
X63995Y-33822D01*
X63995Y-33817D01*
X63984Y-33690D01*
X63946Y-33577D01*
X63876Y-33487D01*
X63786Y-33420D01*
X63757Y-33409D01*
X63724Y-33396D01*
X63684Y-33391D01*
X63624Y-33390D01*
X63583Y-33390D01*
X63538Y-33393D01*
X63503Y-33402D01*
X63462Y-33420D01*
X63412Y-33450D01*
X63360Y-33493D01*
X63354Y-33501D01*
X63293Y-33598D01*
X63259Y-33714D01*
X63254Y-33838D01*
X63278Y-33962D01*
X63278Y-33963D01*
X63330Y-34068D01*
X63410Y-34147D01*
X63516Y-34200D01*
X63557Y-34208D01*
X63628Y-34210D01*
X63628Y-34136D01*
X63608Y-34135D01*
X63516Y-34111D01*
X63443Y-34057D01*
X63384Y-33968D01*
X63373Y-33940D01*
X63362Y-33906D01*
X63356Y-33866D01*
X63356Y-33804D01*
X63356Y-33758D01*
X63360Y-33714D01*
X63368Y-33679D01*
X63384Y-33638D01*
X63401Y-33609D01*
X63460Y-33534D01*
X63530Y-33488D01*
X63624Y-33476D01*
X63635Y-33476D01*
X63691Y-33480D01*
X63734Y-33495D01*
X63749Y-33504D01*
X63822Y-33571D01*
X63872Y-33661D01*
X63894Y-33774D01*
X63894Y-33780D01*
X63886Y-33898D01*
X63848Y-33998D01*
X63788Y-34074D01*
X63702Y-34124D01*
X63680Y-34130D01*
X63628Y-34136D01*
X63628Y-34210D01*
X63649Y-34210D01*
X63649Y-34210D01*
G37*
G36*
X65190Y-34212D02*
X65226Y-34210D01*
X65330Y-34189D01*
X65414Y-34135D01*
X65474Y-34052D01*
X65518Y-33938D01*
X65520Y-33920D01*
X65509Y-33912D01*
X65473Y-33912D01*
X65420Y-33912D01*
X65414Y-33949D01*
X65401Y-33992D01*
X65363Y-34052D01*
X65317Y-34098D01*
X65263Y-34124D01*
X65177Y-34135D01*
X65090Y-34113D01*
X65015Y-34060D01*
X65012Y-34059D01*
X64985Y-34017D01*
X64955Y-33968D01*
X64942Y-33940D01*
X64931Y-33906D01*
X64926Y-33866D01*
X64926Y-33804D01*
X64926Y-33758D01*
X64928Y-33714D01*
X64937Y-33679D01*
X64955Y-33638D01*
X64956Y-33636D01*
X65012Y-33552D01*
X65084Y-33495D01*
X65095Y-33490D01*
X65161Y-33476D01*
X65239Y-33476D01*
X65302Y-33493D01*
X65345Y-33528D01*
X65384Y-33582D01*
X65408Y-33631D01*
X65412Y-33646D01*
X65425Y-33655D01*
X65462Y-33657D01*
X65484Y-33657D01*
X65507Y-33650D01*
X65509Y-33631D01*
X65496Y-33584D01*
X65473Y-33530D01*
X65414Y-33460D01*
X65341Y-33412D01*
X65336Y-33409D01*
X65300Y-33398D01*
X65257Y-33391D01*
X65194Y-33390D01*
X65153Y-33390D01*
X65107Y-33393D01*
X65074Y-33402D01*
X65032Y-33420D01*
X65023Y-33426D01*
X64933Y-33493D01*
X64868Y-33585D01*
X64831Y-33703D01*
X64823Y-33834D01*
X64825Y-33843D01*
X64848Y-33966D01*
X64902Y-34070D01*
X64982Y-34147D01*
X65086Y-34200D01*
X65086Y-34200D01*
X65134Y-34208D01*
X65190Y-34212D01*
X65190Y-34212D01*
G37*
G36*
X65885Y-34208D02*
X65960Y-34208D01*
X66035Y-34201D01*
X66089Y-34189D01*
X66125Y-34171D01*
X66173Y-34138D01*
X66224Y-34074D01*
X66246Y-33998D01*
X66238Y-33920D01*
X66198Y-33852D01*
X66132Y-33798D01*
X66101Y-33787D01*
X66043Y-33769D01*
X65974Y-33752D01*
X65879Y-33728D01*
X65812Y-33704D01*
X65768Y-33676D01*
X65744Y-33644D01*
X65732Y-33609D01*
X65738Y-33573D01*
X65755Y-33536D01*
X65808Y-33495D01*
X65881Y-33474D01*
X65968Y-33477D01*
X66028Y-33495D01*
X66086Y-33542D01*
X66114Y-33609D01*
X66119Y-33631D01*
X66133Y-33642D01*
X66170Y-33644D01*
X66220Y-33646D01*
X66216Y-33606D01*
X66197Y-33541D01*
X66144Y-33463D01*
X66068Y-33411D01*
X65989Y-33390D01*
X65896Y-33387D01*
X65808Y-33402D01*
X65762Y-33420D01*
X65689Y-33469D01*
X65646Y-33541D01*
X65636Y-33628D01*
X65636Y-33628D01*
X65650Y-33687D01*
X65678Y-33733D01*
X65730Y-33769D01*
X65809Y-33801D01*
X65922Y-33834D01*
X66000Y-33854D01*
X66071Y-33879D01*
X66114Y-33908D01*
X66138Y-33942D01*
X66143Y-33985D01*
X66143Y-34009D01*
X66119Y-34063D01*
X66065Y-34106D01*
X66030Y-34122D01*
X65993Y-34130D01*
X65938Y-34132D01*
X65903Y-34130D01*
X65855Y-34125D01*
X65819Y-34111D01*
X65777Y-34084D01*
X65728Y-34027D01*
X65711Y-33962D01*
X65708Y-33949D01*
X65695Y-33940D01*
X65658Y-33940D01*
X65604Y-33940D01*
X65611Y-33979D01*
X65620Y-34011D01*
X65644Y-34076D01*
X65676Y-34125D01*
X65684Y-34135D01*
X65738Y-34168D01*
X65809Y-34200D01*
X65825Y-34203D01*
X65885Y-34208D01*
X65885Y-34208D01*
G37*
G36*
X64451Y-34203D02*
X64451Y-34130D01*
X64391Y-34125D01*
X64367Y-34124D01*
X64339Y-34122D01*
X64319Y-34113D01*
X64307Y-34092D01*
X64300Y-34054D01*
X64296Y-33994D01*
X64294Y-33908D01*
X64294Y-33789D01*
X64291Y-33488D01*
X64451Y-33488D01*
X64451Y-33404D01*
X64291Y-33404D01*
X64291Y-33169D01*
X64188Y-33169D01*
X64188Y-33404D01*
X64056Y-33404D01*
X64056Y-33488D01*
X64188Y-33488D01*
X64189Y-33795D01*
X64189Y-33865D01*
X64192Y-33960D01*
X64194Y-34028D01*
X64196Y-34074D01*
X64200Y-34104D01*
X64205Y-34124D01*
X64211Y-34136D01*
X64226Y-34156D01*
X64264Y-34186D01*
X64304Y-34200D01*
X64373Y-34203D01*
X64451Y-34203D01*
X64451Y-34203D01*
G37*
G36*
X58324Y-34192D02*
X58324Y-33984D01*
X58324Y-33962D01*
X58324Y-33866D01*
X58325Y-33801D01*
X58330Y-33757D01*
X58336Y-33722D01*
X58354Y-33685D01*
X58405Y-33625D01*
X58478Y-33590D01*
X58567Y-33585D01*
X58615Y-33592D01*
X58608Y-33390D01*
X58562Y-33387D01*
X58552Y-33387D01*
X58468Y-33402D01*
X58388Y-33447D01*
X58330Y-33510D01*
X58313Y-33541D01*
X58313Y-33404D01*
X58097Y-33404D01*
X58097Y-34192D01*
X58324Y-34192D01*
X58324Y-34192D01*
G37*
G36*
X60776Y-34192D02*
X60770Y-34038D01*
X60635Y-34033D01*
X60635Y-34192D01*
X60776Y-34192D01*
X60776Y-34192D01*
G37*
G36*
X61216Y-34192D02*
X61219Y-33940D01*
X61219Y-33838D01*
X61222Y-33768D01*
X61224Y-33720D01*
X61229Y-33687D01*
X61235Y-33666D01*
X61243Y-33646D01*
X61284Y-33584D01*
X61362Y-33523D01*
X61459Y-33493D01*
X61510Y-33487D01*
X61510Y-33393D01*
X61472Y-33393D01*
X61456Y-33396D01*
X61369Y-33420D01*
X61289Y-33469D01*
X61232Y-33538D01*
X61213Y-33577D01*
X61207Y-33404D01*
X61114Y-33404D01*
X61114Y-34192D01*
X61216Y-34192D01*
X61216Y-34192D01*
G37*
G36*
X64675Y-34192D02*
X64675Y-33404D01*
X64583Y-33404D01*
X64583Y-34192D01*
X64675Y-34192D01*
X64675Y-34192D01*
G37*
G36*
X54420Y-33873D02*
X54420Y-33685D01*
X53953Y-33685D01*
X53953Y-33873D01*
X54420Y-33873D01*
X54420Y-33873D01*
G37*
G36*
X60776Y-33592D02*
X60770Y-33436D01*
X60635Y-33430D01*
X60635Y-33592D01*
X60776Y-33592D01*
X60776Y-33592D01*
G37*
G36*
X64675Y-33261D02*
X64675Y-33102D01*
X64583Y-33102D01*
X64583Y-33261D01*
X64675Y-33261D01*
X64675Y-33261D01*
G37*
G36*
X51215Y-34692D02*
X51221Y-34200D01*
X51534Y-34192D01*
X51534Y-33769D01*
X50934Y-33769D01*
X50934Y-34692D01*
X51215Y-34692D01*
X51215Y-34692D01*
G37*
G36*
X51893Y-34692D02*
X51893Y-33769D01*
X51593Y-33769D01*
X51593Y-34249D01*
X51282Y-34249D01*
X51282Y-34692D01*
X51893Y-34692D01*
X51893Y-34692D01*
G37*
G36*
X63897Y-32452D02*
X63911Y-32452D01*
X63911Y-32394D01*
X63882Y-32389D01*
X63863Y-32375D01*
X63856Y-32355D01*
X63856Y-32346D01*
X63871Y-32329D01*
X63872Y-32327D01*
X63878Y-32322D01*
X63889Y-32316D01*
X63907Y-32316D01*
X63936Y-32315D01*
X63991Y-32315D01*
X63989Y-32342D01*
X63989Y-32346D01*
X63985Y-32371D01*
X63975Y-32383D01*
X63955Y-32393D01*
X63947Y-32393D01*
X63911Y-32394D01*
X63911Y-32452D01*
X63926Y-32452D01*
X63951Y-32448D01*
X63960Y-32444D01*
X63977Y-32432D01*
X63984Y-32427D01*
X63989Y-32427D01*
X63991Y-32437D01*
X63991Y-32449D01*
X64051Y-32449D01*
X64051Y-32329D01*
X64051Y-32296D01*
X64049Y-32251D01*
X64049Y-32224D01*
X64046Y-32202D01*
X64042Y-32185D01*
X64036Y-32175D01*
X64028Y-32167D01*
X64024Y-32162D01*
X64003Y-32146D01*
X63969Y-32136D01*
X63930Y-32133D01*
X63913Y-32133D01*
X63878Y-32136D01*
X63851Y-32145D01*
X63828Y-32158D01*
X63815Y-32175D01*
X63863Y-32212D01*
X63872Y-32202D01*
X63878Y-32198D01*
X63897Y-32190D01*
X63926Y-32190D01*
X63941Y-32190D01*
X63969Y-32196D01*
X63985Y-32212D01*
X63991Y-32241D01*
X63991Y-32264D01*
X63923Y-32264D01*
X63893Y-32268D01*
X63872Y-32268D01*
X63856Y-32270D01*
X63850Y-32276D01*
X63828Y-32290D01*
X63806Y-32316D01*
X63798Y-32355D01*
X63798Y-32365D01*
X63808Y-32400D01*
X63828Y-32427D01*
X63865Y-32448D01*
X63872Y-32449D01*
X63897Y-32452D01*
X63897Y-32452D01*
G37*
G36*
X64445Y-32452D02*
X64465Y-32452D01*
X64469Y-32449D01*
X64469Y-32389D01*
X64445Y-32389D01*
X64435Y-32387D01*
X64417Y-32371D01*
X64407Y-32350D01*
X64406Y-32342D01*
X64402Y-32315D01*
X64402Y-32287D01*
X64402Y-32276D01*
X64402Y-32251D01*
X64406Y-32236D01*
X64413Y-32224D01*
X64420Y-32212D01*
X64441Y-32196D01*
X64469Y-32192D01*
X64479Y-32196D01*
X64502Y-32202D01*
X64518Y-32220D01*
X64526Y-32249D01*
X64530Y-32293D01*
X64530Y-32309D01*
X64526Y-32344D01*
X64518Y-32366D01*
X64502Y-32381D01*
X64491Y-32387D01*
X64469Y-32389D01*
X64469Y-32449D01*
X64485Y-32448D01*
X64509Y-32432D01*
X64522Y-32423D01*
X64530Y-32422D01*
X64531Y-32422D01*
X64531Y-32437D01*
X64531Y-32449D01*
X64592Y-32449D01*
X64592Y-32004D01*
X64531Y-32004D01*
X64531Y-32085D01*
X64531Y-32107D01*
X64531Y-32136D01*
X64531Y-32155D01*
X64530Y-32163D01*
X64530Y-32163D01*
X64519Y-32158D01*
X64502Y-32151D01*
X64491Y-32141D01*
X64474Y-32136D01*
X64452Y-32133D01*
X64428Y-32133D01*
X64406Y-32138D01*
X64406Y-32138D01*
X64379Y-32153D01*
X64358Y-32175D01*
X64346Y-32202D01*
X64346Y-32207D01*
X64341Y-32232D01*
X64341Y-32264D01*
X64340Y-32300D01*
X64341Y-32336D01*
X64341Y-32365D01*
X64346Y-32383D01*
X64350Y-32394D01*
X64370Y-32422D01*
X64400Y-32440D01*
X64417Y-32449D01*
X64445Y-32452D01*
X64445Y-32452D01*
G37*
G36*
X65185Y-32452D02*
X65197Y-32452D01*
X65197Y-32394D01*
X65177Y-32393D01*
X65168Y-32389D01*
X65151Y-32375D01*
X65151Y-32375D01*
X65145Y-32365D01*
X65145Y-32350D01*
X65146Y-32337D01*
X65151Y-32329D01*
X65163Y-32322D01*
X65168Y-32322D01*
X65191Y-32316D01*
X65229Y-32315D01*
X65279Y-32315D01*
X65273Y-32342D01*
X65273Y-32365D01*
X65264Y-32380D01*
X65254Y-32389D01*
X65245Y-32389D01*
X65223Y-32394D01*
X65197Y-32394D01*
X65197Y-32452D01*
X65214Y-32452D01*
X65236Y-32449D01*
X65245Y-32444D01*
X65263Y-32437D01*
X65269Y-32431D01*
X65273Y-32427D01*
X65279Y-32437D01*
X65279Y-32449D01*
X65337Y-32449D01*
X65336Y-32198D01*
X65321Y-32180D01*
X65308Y-32162D01*
X65288Y-32146D01*
X65284Y-32145D01*
X65271Y-32138D01*
X65258Y-32136D01*
X65241Y-32133D01*
X65207Y-32133D01*
X65203Y-32133D01*
X65168Y-32136D01*
X65146Y-32141D01*
X65129Y-32151D01*
X65111Y-32163D01*
X65100Y-32175D01*
X65126Y-32192D01*
X65132Y-32198D01*
X65145Y-32207D01*
X65149Y-32211D01*
X65155Y-32203D01*
X65167Y-32196D01*
X65191Y-32190D01*
X65220Y-32190D01*
X65250Y-32192D01*
X65264Y-32203D01*
X65271Y-32212D01*
X65279Y-32240D01*
X65279Y-32264D01*
X65220Y-32264D01*
X65197Y-32264D01*
X65156Y-32270D01*
X65129Y-32279D01*
X65110Y-32293D01*
X65094Y-32315D01*
X65090Y-32324D01*
X65087Y-32342D01*
X65087Y-32365D01*
X65087Y-32372D01*
X65090Y-32393D01*
X65100Y-32410D01*
X65119Y-32431D01*
X65151Y-32448D01*
X65160Y-32449D01*
X65185Y-32452D01*
X65185Y-32452D01*
G37*
G36*
X65771Y-32452D02*
X65793Y-32449D01*
X65832Y-32439D01*
X65865Y-32415D01*
X65879Y-32404D01*
X65860Y-32387D01*
X65858Y-32383D01*
X65841Y-32372D01*
X65832Y-32371D01*
X65821Y-32375D01*
X65792Y-32389D01*
X65757Y-32394D01*
X65726Y-32387D01*
X65718Y-32380D01*
X65701Y-32365D01*
X65691Y-32346D01*
X65691Y-32344D01*
X65689Y-32327D01*
X65687Y-32315D01*
X65687Y-32264D01*
X65689Y-32251D01*
X65697Y-32224D01*
X65709Y-32207D01*
X65727Y-32196D01*
X65740Y-32190D01*
X65769Y-32190D01*
X65793Y-32202D01*
X65804Y-32207D01*
X65815Y-32229D01*
X65822Y-32251D01*
X65822Y-32264D01*
X65687Y-32264D01*
X65687Y-32315D01*
X65887Y-32315D01*
X65887Y-32280D01*
X65879Y-32232D01*
X65865Y-32190D01*
X65836Y-32158D01*
X65800Y-32138D01*
X65754Y-32133D01*
X65737Y-32133D01*
X65718Y-32136D01*
X65697Y-32145D01*
X65689Y-32151D01*
X65659Y-32175D01*
X65636Y-32214D01*
X65635Y-32228D01*
X65631Y-32241D01*
X65630Y-32262D01*
X65630Y-32293D01*
X65630Y-32315D01*
X65630Y-32337D01*
X65631Y-32355D01*
X65636Y-32371D01*
X65653Y-32401D01*
X65687Y-32431D01*
X65723Y-32449D01*
X65727Y-32449D01*
X65748Y-32452D01*
X65771Y-32452D01*
X65771Y-32452D01*
G37*
G36*
X63748Y-32449D02*
X63748Y-32336D01*
X63748Y-32324D01*
X63748Y-32280D01*
X63748Y-32248D01*
X63748Y-32228D01*
X63747Y-32212D01*
X63742Y-32202D01*
X63741Y-32190D01*
X63718Y-32158D01*
X63685Y-32138D01*
X63646Y-32133D01*
X63617Y-32136D01*
X63595Y-32141D01*
X63579Y-32153D01*
X63579Y-32153D01*
X63568Y-32162D01*
X63568Y-32162D01*
X63566Y-32162D01*
X63564Y-32155D01*
X63564Y-32141D01*
X63564Y-32123D01*
X63564Y-32088D01*
X63564Y-32042D01*
X63564Y-31916D01*
X63585Y-31928D01*
X63608Y-31943D01*
X63614Y-31947D01*
X63614Y-31887D01*
X63596Y-31885D01*
X63588Y-31881D01*
X63574Y-31865D01*
X63566Y-31837D01*
X63564Y-31793D01*
X63564Y-31774D01*
X63566Y-31744D01*
X63572Y-31724D01*
X63585Y-31707D01*
X63588Y-31699D01*
X63600Y-31696D01*
X63622Y-31694D01*
X63629Y-31694D01*
X63646Y-31694D01*
X63660Y-31699D01*
X63674Y-31708D01*
X63682Y-31728D01*
X63685Y-31751D01*
X63690Y-31786D01*
X63690Y-31812D01*
X63682Y-31847D01*
X63674Y-31869D01*
X63656Y-31881D01*
X63640Y-31887D01*
X63614Y-31887D01*
X63614Y-31947D01*
X63640Y-31954D01*
X63677Y-31947D01*
X63694Y-31938D01*
X63721Y-31916D01*
X63741Y-31890D01*
X63742Y-31885D01*
X63747Y-31869D01*
X63748Y-31852D01*
X63748Y-31829D01*
X63748Y-31786D01*
X63748Y-31780D01*
X63748Y-31744D01*
X63748Y-31722D01*
X63747Y-31707D01*
X63742Y-31696D01*
X63741Y-31687D01*
X63735Y-31678D01*
X63709Y-31650D01*
X63677Y-31633D01*
X63640Y-31631D01*
X63603Y-31637D01*
X63572Y-31656D01*
X63564Y-31665D01*
X63564Y-31631D01*
X63499Y-31631D01*
X63499Y-32449D01*
X63564Y-32449D01*
X63564Y-32344D01*
X63564Y-32309D01*
X63564Y-32276D01*
X63564Y-32257D01*
X63566Y-32241D01*
X63566Y-32232D01*
X63572Y-32224D01*
X63574Y-32219D01*
X63595Y-32202D01*
X63622Y-32192D01*
X63651Y-32198D01*
X63673Y-32212D01*
X63674Y-32214D01*
X63681Y-32228D01*
X63685Y-32242D01*
X63690Y-32270D01*
X63690Y-32305D01*
X63691Y-32353D01*
X63691Y-32449D01*
X63748Y-32449D01*
X63748Y-32449D01*
G37*
G36*
X64186Y-32449D02*
X64186Y-32344D01*
X64186Y-32327D01*
X64186Y-32285D01*
X64188Y-32257D01*
X64193Y-32236D01*
X64194Y-32220D01*
X64203Y-32212D01*
X64211Y-32203D01*
X64225Y-32198D01*
X64251Y-32192D01*
X64277Y-32198D01*
X64290Y-32207D01*
X64311Y-32181D01*
X64318Y-32175D01*
X64328Y-32158D01*
X64332Y-32153D01*
X64327Y-32146D01*
X64311Y-32141D01*
X64289Y-32133D01*
X64254Y-32133D01*
X64223Y-32141D01*
X64199Y-32155D01*
X64194Y-32162D01*
X64188Y-32162D01*
X64186Y-32146D01*
X64186Y-32133D01*
X64121Y-32133D01*
X64121Y-32449D01*
X64186Y-32449D01*
X64186Y-32449D01*
G37*
G36*
X64977Y-32449D02*
X64980Y-32437D01*
X64980Y-32432D01*
X64986Y-32415D01*
X64994Y-32389D01*
X65006Y-32358D01*
X65008Y-32350D01*
X65021Y-32307D01*
X65034Y-32262D01*
X65050Y-32220D01*
X65054Y-32202D01*
X65065Y-32170D01*
X65072Y-32151D01*
X65073Y-32138D01*
X65073Y-32138D01*
X65073Y-32133D01*
X65065Y-32133D01*
X65045Y-32133D01*
X65013Y-32133D01*
X64993Y-32203D01*
X64980Y-32248D01*
X64969Y-32290D01*
X64959Y-32315D01*
X64955Y-32336D01*
X64950Y-32346D01*
X64950Y-32353D01*
X64948Y-32353D01*
X64947Y-32350D01*
X64943Y-32337D01*
X64935Y-32316D01*
X64926Y-32287D01*
X64912Y-32242D01*
X64891Y-32185D01*
X64874Y-32133D01*
X64831Y-32133D01*
X64803Y-32214D01*
X64795Y-32241D01*
X64783Y-32279D01*
X64774Y-32307D01*
X64768Y-32327D01*
X64766Y-32333D01*
X64760Y-32350D01*
X64757Y-32353D01*
X64757Y-32353D01*
X64751Y-32337D01*
X64746Y-32315D01*
X64735Y-32280D01*
X64727Y-32241D01*
X64693Y-32133D01*
X64661Y-32133D01*
X64649Y-32133D01*
X64632Y-32133D01*
X64627Y-32138D01*
X64632Y-32146D01*
X64640Y-32167D01*
X64649Y-32196D01*
X64670Y-32262D01*
X64683Y-32307D01*
X64699Y-32350D01*
X64709Y-32383D01*
X64729Y-32449D01*
X64786Y-32448D01*
X64794Y-32431D01*
X64795Y-32415D01*
X64803Y-32389D01*
X64814Y-32355D01*
X64825Y-32316D01*
X64834Y-32280D01*
X64844Y-32257D01*
X64852Y-32236D01*
X64853Y-32229D01*
X64859Y-32240D01*
X64863Y-32258D01*
X64870Y-32290D01*
X64882Y-32324D01*
X64891Y-32358D01*
X64903Y-32393D01*
X64912Y-32415D01*
X64915Y-32431D01*
X64920Y-32448D01*
X64977Y-32449D01*
X64977Y-32449D01*
G37*
G36*
X65474Y-32449D02*
X65474Y-32333D01*
X65474Y-32290D01*
X65474Y-32264D01*
X65474Y-32242D01*
X65477Y-32232D01*
X65481Y-32228D01*
X65483Y-32220D01*
X65487Y-32212D01*
X65511Y-32198D01*
X65537Y-32192D01*
X65566Y-32202D01*
X65578Y-32207D01*
X65585Y-32196D01*
X65594Y-32185D01*
X65607Y-32167D01*
X65614Y-32162D01*
X65622Y-32155D01*
X65614Y-32151D01*
X65606Y-32145D01*
X65574Y-32133D01*
X65540Y-32133D01*
X65507Y-32141D01*
X65493Y-32151D01*
X65483Y-32158D01*
X65481Y-32162D01*
X65477Y-32162D01*
X65474Y-32151D01*
X65474Y-32133D01*
X65409Y-32133D01*
X65409Y-32449D01*
X65474Y-32449D01*
X65474Y-32449D01*
G37*
G36*
X63293Y-31950D02*
X63302Y-31950D01*
X63302Y-31887D01*
X63279Y-31877D01*
X63270Y-31876D01*
X63257Y-31865D01*
X63252Y-31847D01*
X63250Y-31824D01*
X63250Y-31790D01*
X63250Y-31767D01*
X63250Y-31742D01*
X63254Y-31724D01*
X63263Y-31713D01*
X63279Y-31700D01*
X63282Y-31699D01*
X63299Y-31694D01*
X63314Y-31694D01*
X63330Y-31694D01*
X63354Y-31705D01*
X63370Y-31728D01*
X63377Y-31738D01*
X63380Y-31757D01*
X63380Y-31786D01*
X63380Y-31815D01*
X63375Y-31843D01*
X63369Y-31860D01*
X63354Y-31876D01*
X63336Y-31885D01*
X63302Y-31887D01*
X63302Y-31950D01*
X63339Y-31950D01*
X63380Y-31933D01*
X63412Y-31904D01*
X63423Y-31894D01*
X63432Y-31876D01*
X63436Y-31852D01*
X63440Y-31824D01*
X63440Y-31786D01*
X63440Y-31757D01*
X63440Y-31735D01*
X63436Y-31722D01*
X63434Y-31708D01*
X63427Y-31699D01*
X63405Y-31665D01*
X63369Y-31640D01*
X63326Y-31631D01*
X63326Y-31631D01*
X63280Y-31633D01*
X63241Y-31650D01*
X63208Y-31678D01*
X63192Y-31716D01*
X63185Y-31738D01*
X63184Y-31773D01*
X63184Y-31812D01*
X63185Y-31847D01*
X63192Y-31873D01*
X63206Y-31898D01*
X63236Y-31926D01*
X63271Y-31947D01*
X63293Y-31950D01*
X63293Y-31950D01*
G37*
G36*
X63926Y-31950D02*
X63977Y-31947D01*
X63977Y-31943D01*
X63997Y-31938D01*
X64020Y-31926D01*
X64034Y-31916D01*
X64042Y-31907D01*
X64046Y-31899D01*
X64046Y-31899D01*
X64036Y-31894D01*
X64025Y-31881D01*
X64006Y-31865D01*
X63985Y-31876D01*
X63969Y-31885D01*
X63939Y-31894D01*
X63910Y-31890D01*
X63882Y-31876D01*
X63872Y-31860D01*
X63860Y-31830D01*
X63856Y-31812D01*
X63856Y-31812D01*
X63856Y-31764D01*
X63856Y-31752D01*
X63863Y-31735D01*
X63873Y-31713D01*
X63889Y-31696D01*
X63910Y-31690D01*
X63938Y-31687D01*
X63963Y-31696D01*
X63963Y-31699D01*
X63984Y-31718D01*
X63991Y-31746D01*
X63991Y-31763D01*
X63856Y-31764D01*
X63856Y-31812D01*
X64054Y-31812D01*
X64054Y-31773D01*
X64054Y-31757D01*
X64051Y-31729D01*
X64046Y-31708D01*
X64042Y-31700D01*
X64017Y-31668D01*
X63984Y-31640D01*
X63977Y-31639D01*
X63941Y-31631D01*
X63907Y-31631D01*
X63873Y-31639D01*
X63860Y-31648D01*
X63828Y-31678D01*
X63808Y-31718D01*
X63798Y-31767D01*
X63798Y-31822D01*
X63806Y-31856D01*
X63822Y-31898D01*
X63851Y-31926D01*
X63893Y-31947D01*
X63926Y-31950D01*
X63926Y-31950D01*
G37*
G36*
X64665Y-31950D02*
X64712Y-31950D01*
X64751Y-31938D01*
X64783Y-31916D01*
X64803Y-31890D01*
X64803Y-31890D01*
X64808Y-31865D01*
X64805Y-31837D01*
X64801Y-31809D01*
X64794Y-31795D01*
X64773Y-31774D01*
X64738Y-31764D01*
X64688Y-31757D01*
X64665Y-31756D01*
X64640Y-31751D01*
X64627Y-31742D01*
X64622Y-31724D01*
X64626Y-31713D01*
X64634Y-31699D01*
X64636Y-31699D01*
X64644Y-31694D01*
X64656Y-31690D01*
X64679Y-31690D01*
X64688Y-31690D01*
X64712Y-31690D01*
X64727Y-31696D01*
X64744Y-31700D01*
X64766Y-31716D01*
X64803Y-31670D01*
X64794Y-31665D01*
X64774Y-31650D01*
X64735Y-31637D01*
X64688Y-31631D01*
X64644Y-31631D01*
X64640Y-31633D01*
X64599Y-31650D01*
X64575Y-31677D01*
X64569Y-31685D01*
X64560Y-31718D01*
X64566Y-31752D01*
X64578Y-31781D01*
X64606Y-31803D01*
X64612Y-31803D01*
X64636Y-31809D01*
X64679Y-31819D01*
X64707Y-31822D01*
X64727Y-31824D01*
X64735Y-31829D01*
X64739Y-31832D01*
X64744Y-31832D01*
X64749Y-31852D01*
X64739Y-31873D01*
X64722Y-31887D01*
X64722Y-31887D01*
X64701Y-31890D01*
X64679Y-31894D01*
X64636Y-31887D01*
X64597Y-31868D01*
X64583Y-31856D01*
X64539Y-31894D01*
X64552Y-31904D01*
X64578Y-31925D01*
X64627Y-31943D01*
X64665Y-31950D01*
X64665Y-31950D01*
G37*
G36*
X64969Y-31950D02*
X64976Y-31950D01*
X64976Y-31887D01*
X64947Y-31881D01*
X64921Y-31865D01*
X64920Y-31851D01*
X64912Y-31822D01*
X64912Y-31786D01*
X64915Y-31752D01*
X64920Y-31724D01*
X64935Y-31707D01*
X64957Y-31696D01*
X64986Y-31694D01*
X65015Y-31700D01*
X65015Y-31700D01*
X65032Y-31713D01*
X65042Y-31729D01*
X65043Y-31756D01*
X65045Y-31790D01*
X65045Y-31808D01*
X65043Y-31830D01*
X65042Y-31843D01*
X65034Y-31856D01*
X65030Y-31865D01*
X65013Y-31881D01*
X65003Y-31885D01*
X64976Y-31887D01*
X64976Y-31950D01*
X65003Y-31950D01*
X65034Y-31938D01*
X65045Y-31936D01*
X65078Y-31907D01*
X65098Y-31873D01*
X65102Y-31859D01*
X65107Y-31843D01*
X65107Y-31824D01*
X65107Y-31793D01*
X65107Y-31781D01*
X65107Y-31746D01*
X65102Y-31722D01*
X65094Y-31700D01*
X65087Y-31679D01*
X65082Y-31679D01*
X65054Y-31653D01*
X65016Y-31633D01*
X64977Y-31627D01*
X64937Y-31637D01*
X64898Y-31653D01*
X64874Y-31677D01*
X64861Y-31707D01*
X64852Y-31751D01*
X64848Y-31802D01*
X64852Y-31812D01*
X64852Y-31843D01*
X64859Y-31869D01*
X64865Y-31887D01*
X64878Y-31904D01*
X64903Y-31928D01*
X64941Y-31947D01*
X64969Y-31950D01*
X64969Y-31950D01*
G37*
G36*
X65271Y-31950D02*
X65298Y-31947D01*
X65315Y-31943D01*
X65321Y-31938D01*
X65337Y-31926D01*
X65354Y-31916D01*
X65354Y-31947D01*
X65416Y-31947D01*
X65416Y-31631D01*
X65354Y-31631D01*
X65354Y-31735D01*
X65354Y-31751D01*
X65354Y-31793D01*
X65351Y-31822D01*
X65349Y-31843D01*
X65346Y-31859D01*
X65338Y-31868D01*
X65331Y-31876D01*
X65329Y-31877D01*
X65308Y-31887D01*
X65280Y-31887D01*
X65258Y-31877D01*
X65250Y-31873D01*
X65234Y-31856D01*
X65233Y-31851D01*
X65229Y-31841D01*
X65229Y-31830D01*
X65229Y-31809D01*
X65225Y-31780D01*
X65225Y-31735D01*
X65225Y-31631D01*
X65167Y-31631D01*
X65167Y-31744D01*
X65167Y-31764D01*
X65167Y-31809D01*
X65167Y-31843D01*
X65168Y-31869D01*
X65175Y-31887D01*
X65178Y-31899D01*
X65189Y-31913D01*
X65212Y-31933D01*
X65242Y-31947D01*
X65250Y-31950D01*
X65271Y-31950D01*
X65271Y-31950D01*
G37*
G36*
X65815Y-31950D02*
X65858Y-31950D01*
X65892Y-31942D01*
X65892Y-31942D01*
X65910Y-31928D01*
X65929Y-31919D01*
X65944Y-31907D01*
X65951Y-31898D01*
X65947Y-31897D01*
X65938Y-31885D01*
X65922Y-31869D01*
X65910Y-31865D01*
X65901Y-31865D01*
X65887Y-31873D01*
X65878Y-31877D01*
X65862Y-31887D01*
X65843Y-31887D01*
X65812Y-31885D01*
X65788Y-31869D01*
X65769Y-31847D01*
X65763Y-31832D01*
X65760Y-31815D01*
X65760Y-31790D01*
X65760Y-31781D01*
X65760Y-31757D01*
X65763Y-31744D01*
X65771Y-31729D01*
X65783Y-31708D01*
X65808Y-31696D01*
X65843Y-31694D01*
X65854Y-31694D01*
X65871Y-31699D01*
X65888Y-31707D01*
X65901Y-31716D01*
X65910Y-31718D01*
X65910Y-31718D01*
X65917Y-31713D01*
X65930Y-31700D01*
X65944Y-31687D01*
X65947Y-31678D01*
X65939Y-31670D01*
X65921Y-31656D01*
X65893Y-31640D01*
X65879Y-31633D01*
X65862Y-31631D01*
X65836Y-31631D01*
X65814Y-31631D01*
X65771Y-31643D01*
X65737Y-31670D01*
X65710Y-31707D01*
X65709Y-31718D01*
X65702Y-31734D01*
X65701Y-31752D01*
X65697Y-31780D01*
X65697Y-31802D01*
X65702Y-31843D01*
X65715Y-31877D01*
X65735Y-31907D01*
X65748Y-31921D01*
X65775Y-31936D01*
X65797Y-31947D01*
X65815Y-31950D01*
X65815Y-31950D01*
G37*
G36*
X66098Y-31950D02*
X66143Y-31947D01*
X66183Y-31933D01*
X66216Y-31910D01*
X66216Y-31907D01*
X66221Y-31899D01*
X66215Y-31897D01*
X66200Y-31881D01*
X66177Y-31865D01*
X66166Y-31869D01*
X66164Y-31876D01*
X66135Y-31890D01*
X66099Y-31894D01*
X66070Y-31885D01*
X66064Y-31881D01*
X66046Y-31860D01*
X66034Y-31832D01*
X66034Y-31812D01*
X66034Y-31812D01*
X66034Y-31764D01*
X66034Y-31751D01*
X66034Y-31742D01*
X66046Y-31716D01*
X66064Y-31696D01*
X66078Y-31694D01*
X66107Y-31687D01*
X66135Y-31696D01*
X66146Y-31705D01*
X66159Y-31728D01*
X66165Y-31751D01*
X66165Y-31764D01*
X66034Y-31764D01*
X66034Y-31812D01*
X66225Y-31812D01*
X66225Y-31764D01*
X66225Y-31738D01*
X66225Y-31722D01*
X66221Y-31708D01*
X66215Y-31696D01*
X66211Y-31690D01*
X66183Y-31656D01*
X66146Y-31637D01*
X66099Y-31631D01*
X66090Y-31631D01*
X66046Y-31640D01*
X66012Y-31665D01*
X65988Y-31700D01*
X65974Y-31751D01*
X65973Y-31785D01*
X65974Y-31824D01*
X65979Y-31860D01*
X65996Y-31898D01*
X66030Y-31926D01*
X66064Y-31947D01*
X66098Y-31950D01*
X66098Y-31950D01*
G37*
G36*
X64363Y-31947D02*
X64363Y-31832D01*
X64363Y-31800D01*
X64363Y-31746D01*
X64358Y-31716D01*
X64357Y-31699D01*
X64349Y-31678D01*
X64328Y-31656D01*
X64306Y-31639D01*
X64284Y-31633D01*
X64251Y-31631D01*
X64216Y-31637D01*
X64193Y-31653D01*
X64186Y-31657D01*
X64177Y-31665D01*
X64177Y-31661D01*
X64175Y-31648D01*
X64175Y-31631D01*
X64114Y-31631D01*
X64114Y-31947D01*
X64175Y-31947D01*
X64175Y-31843D01*
X64175Y-31803D01*
X64175Y-31773D01*
X64177Y-31752D01*
X64177Y-31742D01*
X64180Y-31734D01*
X64183Y-31724D01*
X64197Y-31705D01*
X64223Y-31694D01*
X64249Y-31694D01*
X64274Y-31700D01*
X64293Y-31724D01*
X64298Y-31734D01*
X64300Y-31742D01*
X64302Y-31752D01*
X64302Y-31773D01*
X64302Y-31802D01*
X64302Y-31843D01*
X64302Y-31947D01*
X64363Y-31947D01*
X64363Y-31947D01*
G37*
G36*
X65549Y-31947D02*
X65550Y-31841D01*
X65550Y-31808D01*
X65550Y-31773D01*
X65550Y-31751D01*
X65555Y-31735D01*
X65557Y-31728D01*
X65558Y-31722D01*
X65563Y-31716D01*
X65572Y-31705D01*
X65574Y-31705D01*
X65594Y-31694D01*
X65622Y-31694D01*
X65643Y-31699D01*
X65652Y-31700D01*
X65659Y-31699D01*
X65672Y-31690D01*
X65682Y-31672D01*
X65693Y-31657D01*
X65697Y-31653D01*
X65693Y-31648D01*
X65680Y-31639D01*
X65680Y-31639D01*
X65650Y-31631D01*
X65614Y-31631D01*
X65585Y-31640D01*
X65572Y-31650D01*
X65563Y-31657D01*
X65558Y-31661D01*
X65550Y-31661D01*
X65549Y-31648D01*
X65549Y-31631D01*
X65489Y-31631D01*
X65489Y-31947D01*
X65549Y-31947D01*
X65549Y-31947D01*
G37*
G36*
X63985Y-31384D02*
X63991Y-31379D01*
X64012Y-31367D01*
X64034Y-31353D01*
X64099Y-31306D01*
X64138Y-31279D01*
X64167Y-31261D01*
X64193Y-31244D01*
X64209Y-31232D01*
X64223Y-31223D01*
X64237Y-31218D01*
X64237Y-31218D01*
X64249Y-31223D01*
X64268Y-31232D01*
X64298Y-31248D01*
X64300Y-31250D01*
X64327Y-31261D01*
X64346Y-31273D01*
X64355Y-31276D01*
X64355Y-31276D01*
X64357Y-31276D01*
X64363Y-31273D01*
X64366Y-31266D01*
X64370Y-31252D01*
X64379Y-31231D01*
X64394Y-31200D01*
X64424Y-31126D01*
X64441Y-31087D01*
X64452Y-31059D01*
X64459Y-31037D01*
X64474Y-31002D01*
X64497Y-30953D01*
X64518Y-30901D01*
X64535Y-30857D01*
X64552Y-30815D01*
X64563Y-30784D01*
X64570Y-30764D01*
X64575Y-30755D01*
X64575Y-30755D01*
X64569Y-30747D01*
X64552Y-30736D01*
X64530Y-30719D01*
X64518Y-30710D01*
X64465Y-30663D01*
X64424Y-30615D01*
X64397Y-30557D01*
X64385Y-30518D01*
X64378Y-30452D01*
X64378Y-30387D01*
X64392Y-30325D01*
X64394Y-30321D01*
X64424Y-30258D01*
X64469Y-30204D01*
X64491Y-30184D01*
X64548Y-30145D01*
X64612Y-30118D01*
X64678Y-30105D01*
X64746Y-30108D01*
X64812Y-30119D01*
X64870Y-30147D01*
X64929Y-30186D01*
X64976Y-30242D01*
X64993Y-30266D01*
X65022Y-30330D01*
X65037Y-30399D01*
X65037Y-30469D01*
X65032Y-30499D01*
X65013Y-30567D01*
X64976Y-30630D01*
X64926Y-30687D01*
X64863Y-30733D01*
X64846Y-30745D01*
X64840Y-30749D01*
X64840Y-30754D01*
X64840Y-30756D01*
X64844Y-30767D01*
X64848Y-30784D01*
X64859Y-30806D01*
X64870Y-30838D01*
X64887Y-30879D01*
X64909Y-30929D01*
X64935Y-30996D01*
X64965Y-31071D01*
X65030Y-31223D01*
X65034Y-31237D01*
X65045Y-31261D01*
X65051Y-31273D01*
X65059Y-31276D01*
X65060Y-31276D01*
X65072Y-31269D01*
X65090Y-31261D01*
X65116Y-31250D01*
X65139Y-31232D01*
X65160Y-31223D01*
X65173Y-31222D01*
X65177Y-31218D01*
X65178Y-31218D01*
X65191Y-31223D01*
X65207Y-31237D01*
X65233Y-31252D01*
X65269Y-31276D01*
X65315Y-31306D01*
X65372Y-31347D01*
X65376Y-31353D01*
X65403Y-31367D01*
X65420Y-31379D01*
X65431Y-31384D01*
X65432Y-31383D01*
X65445Y-31367D01*
X65464Y-31347D01*
X65493Y-31323D01*
X65522Y-31295D01*
X65555Y-31261D01*
X65585Y-31231D01*
X65613Y-31201D01*
X65635Y-31180D01*
X65650Y-31165D01*
X65653Y-31156D01*
X65653Y-31156D01*
X65652Y-31150D01*
X65643Y-31136D01*
X65630Y-31114D01*
X65606Y-31081D01*
X65578Y-31040D01*
X65537Y-30981D01*
X65527Y-30964D01*
X65507Y-30938D01*
X65493Y-30918D01*
X65489Y-30907D01*
X65489Y-30907D01*
X65489Y-30899D01*
X65493Y-30885D01*
X65503Y-30862D01*
X65515Y-30828D01*
X65529Y-30782D01*
X65544Y-30755D01*
X65557Y-30719D01*
X65572Y-30687D01*
X65579Y-30668D01*
X65584Y-30659D01*
X65592Y-30658D01*
X65614Y-30651D01*
X65650Y-30641D01*
X65689Y-30635D01*
X65735Y-30629D01*
X65778Y-30619D01*
X65822Y-30609D01*
X65854Y-30602D01*
X65878Y-30600D01*
X65887Y-30595D01*
X65887Y-30591D01*
X65888Y-30573D01*
X65888Y-30542D01*
X65892Y-30505D01*
X65892Y-30463D01*
X65892Y-30418D01*
X65892Y-30375D01*
X65888Y-30336D01*
X65888Y-30305D01*
X65887Y-30281D01*
X65887Y-30271D01*
X65882Y-30271D01*
X65870Y-30270D01*
X65836Y-30262D01*
X65793Y-30257D01*
X65744Y-30243D01*
X65680Y-30232D01*
X65607Y-30219D01*
X65606Y-30219D01*
X65588Y-30214D01*
X65578Y-30212D01*
X65574Y-30206D01*
X65568Y-30196D01*
X65558Y-30174D01*
X65546Y-30145D01*
X65529Y-30108D01*
X65515Y-30073D01*
X65500Y-30039D01*
X65489Y-30010D01*
X65481Y-29992D01*
X65477Y-29982D01*
X65477Y-29982D01*
X65483Y-29972D01*
X65493Y-29954D01*
X65515Y-29920D01*
X65544Y-29878D01*
X65584Y-29824D01*
X65630Y-29757D01*
X65640Y-29742D01*
X65650Y-29724D01*
X65653Y-29714D01*
X65653Y-29714D01*
X65650Y-29706D01*
X65631Y-29688D01*
X65607Y-29662D01*
X65578Y-29629D01*
X65544Y-29595D01*
X65522Y-29576D01*
X65490Y-29542D01*
X65464Y-29519D01*
X65449Y-29504D01*
X65437Y-29493D01*
X65432Y-29489D01*
X65425Y-29489D01*
X65423Y-29489D01*
X65411Y-29497D01*
X65394Y-29508D01*
X65393Y-29510D01*
X65372Y-29520D01*
X65349Y-29538D01*
X65320Y-29559D01*
X65284Y-29584D01*
X65245Y-29611D01*
X65214Y-29629D01*
X65191Y-29649D01*
X65168Y-29658D01*
X65155Y-29663D01*
X65149Y-29662D01*
X65129Y-29657D01*
X65102Y-29649D01*
X65068Y-29633D01*
X65032Y-29620D01*
X64998Y-29605D01*
X64965Y-29590D01*
X64947Y-29577D01*
X64935Y-29573D01*
X64935Y-29573D01*
X64931Y-29564D01*
X64926Y-29538D01*
X64918Y-29504D01*
X64909Y-29464D01*
X64899Y-29415D01*
X64899Y-29410D01*
X64891Y-29363D01*
X64882Y-29320D01*
X64874Y-29289D01*
X64870Y-29263D01*
X64869Y-29256D01*
X64865Y-29256D01*
X64853Y-29252D01*
X64837Y-29252D01*
X64805Y-29252D01*
X64764Y-29251D01*
X64707Y-29251D01*
X64548Y-29251D01*
X64541Y-29261D01*
X64541Y-29268D01*
X64537Y-29289D01*
X64531Y-29319D01*
X64522Y-29358D01*
X64513Y-29404D01*
X64509Y-29436D01*
X64501Y-29480D01*
X64493Y-29516D01*
X64488Y-29542D01*
X64485Y-29555D01*
X64482Y-29576D01*
X64450Y-29590D01*
X64407Y-29606D01*
X64363Y-29624D01*
X64327Y-29641D01*
X64290Y-29651D01*
X64268Y-29662D01*
X64255Y-29663D01*
X64254Y-29662D01*
X64237Y-29651D01*
X64209Y-29634D01*
X64167Y-29611D01*
X64120Y-29576D01*
X64114Y-29573D01*
X64073Y-29547D01*
X64041Y-29520D01*
X64012Y-29504D01*
X63991Y-29493D01*
X63984Y-29488D01*
X63980Y-29489D01*
X63967Y-29502D01*
X63946Y-29520D01*
X63919Y-29545D01*
X63889Y-29576D01*
X63856Y-29606D01*
X63828Y-29634D01*
X63799Y-29663D01*
X63777Y-29688D01*
X63764Y-29706D01*
X63757Y-29714D01*
X63760Y-29714D01*
X63765Y-29728D01*
X63778Y-29746D01*
X63798Y-29774D01*
X63821Y-29810D01*
X63850Y-29848D01*
X63889Y-29910D01*
X63910Y-29936D01*
X63919Y-29954D01*
X63930Y-29971D01*
X63936Y-29982D01*
X63936Y-29982D01*
X63930Y-29993D01*
X63923Y-30015D01*
X63910Y-30044D01*
X63894Y-30079D01*
X63880Y-30117D01*
X63863Y-30148D01*
X63851Y-30178D01*
X63842Y-30199D01*
X63834Y-30212D01*
X63832Y-30212D01*
X63816Y-30214D01*
X63786Y-30221D01*
X63741Y-30230D01*
X63681Y-30242D01*
X63646Y-30249D01*
X63595Y-30258D01*
X63557Y-30266D01*
X63535Y-30271D01*
X63527Y-30277D01*
X63527Y-30279D01*
X63522Y-30287D01*
X63522Y-30308D01*
X63522Y-30338D01*
X63522Y-30382D01*
X63522Y-30439D01*
X63522Y-30593D01*
X63530Y-30595D01*
X63538Y-30600D01*
X63559Y-30603D01*
X63592Y-30609D01*
X63631Y-30615D01*
X63677Y-30624D01*
X63711Y-30632D01*
X63755Y-30638D01*
X63787Y-30647D01*
X63812Y-30652D01*
X63822Y-30658D01*
X63826Y-30658D01*
X63828Y-30663D01*
X63837Y-30676D01*
X63845Y-30698D01*
X63860Y-30733D01*
X63880Y-30777D01*
X63889Y-30801D01*
X63907Y-30841D01*
X63913Y-30871D01*
X63919Y-30889D01*
X63923Y-30901D01*
X63923Y-30907D01*
X63919Y-30914D01*
X63910Y-30933D01*
X63889Y-30958D01*
X63865Y-30994D01*
X63842Y-31032D01*
X63821Y-31065D01*
X63798Y-31098D01*
X63777Y-31127D01*
X63765Y-31144D01*
X63760Y-31153D01*
X63764Y-31158D01*
X63776Y-31172D01*
X63794Y-31195D01*
X63826Y-31231D01*
X63871Y-31273D01*
X63873Y-31276D01*
X63910Y-31310D01*
X63938Y-31339D01*
X63963Y-31362D01*
X63977Y-31379D01*
X63985Y-31384D01*
X63985Y-31384D01*
G37*
G36*
X50960Y-30808D02*
X50996Y-30804D01*
X51025Y-30796D01*
X51026Y-30796D01*
X51056Y-30778D01*
X51076Y-30750D01*
X51079Y-30744D01*
X51082Y-30734D01*
X51084Y-30721D01*
X51085Y-30699D01*
X51086Y-30666D01*
X51087Y-30619D01*
X51088Y-30506D01*
X51022Y-30506D01*
X51019Y-30730D01*
X51007Y-30742D01*
X51005Y-30745D01*
X50981Y-30755D01*
X50952Y-30757D01*
X50926Y-30750D01*
X50915Y-30743D01*
X50908Y-30734D01*
X50903Y-30718D01*
X50900Y-30695D01*
X50899Y-30660D01*
X50898Y-30610D01*
X50898Y-30506D01*
X50831Y-30506D01*
X50833Y-30623D01*
X50834Y-30671D01*
X50836Y-30705D01*
X50839Y-30729D01*
X50843Y-30746D01*
X50849Y-30759D01*
X50859Y-30771D01*
X50863Y-30776D01*
X50889Y-30794D01*
X50922Y-30805D01*
X50926Y-30806D01*
X50960Y-30808D01*
X50960Y-30808D01*
G37*
G36*
X52400Y-30809D02*
X52457Y-30804D01*
X52463Y-30802D01*
X52501Y-30785D01*
X52525Y-30758D01*
X52535Y-30720D01*
X52535Y-30704D01*
X52528Y-30677D01*
X52510Y-30657D01*
X52479Y-30640D01*
X52432Y-30625D01*
X52417Y-30621D01*
X52387Y-30612D01*
X52369Y-30604D01*
X52361Y-30595D01*
X52359Y-30583D01*
X52363Y-30567D01*
X52380Y-30554D01*
X52411Y-30551D01*
X52423Y-30552D01*
X52449Y-30563D01*
X52463Y-30583D01*
X52463Y-30584D01*
X52466Y-30591D01*
X52475Y-30594D01*
X52496Y-30594D01*
X52497Y-30594D01*
X52517Y-30594D01*
X52525Y-30591D01*
X52527Y-30584D01*
X52525Y-30573D01*
X52512Y-30545D01*
X52489Y-30521D01*
X52462Y-30506D01*
X52447Y-30503D01*
X52401Y-30499D01*
X52360Y-30507D01*
X52327Y-30525D01*
X52306Y-30552D01*
X52298Y-30587D01*
X52299Y-30602D01*
X52310Y-30631D01*
X52335Y-30653D01*
X52375Y-30669D01*
X52397Y-30676D01*
X52429Y-30686D01*
X52450Y-30694D01*
X52462Y-30700D01*
X52468Y-30706D01*
X52474Y-30724D01*
X52467Y-30743D01*
X52447Y-30756D01*
X52418Y-30761D01*
X52412Y-30761D01*
X52380Y-30754D01*
X52359Y-30740D01*
X52351Y-30719D01*
X52351Y-30717D01*
X52348Y-30711D01*
X52339Y-30709D01*
X52318Y-30709D01*
X52284Y-30709D01*
X52287Y-30721D01*
X52288Y-30725D01*
X52305Y-30764D01*
X52333Y-30790D01*
X52374Y-30805D01*
X52400Y-30809D01*
X52400Y-30809D01*
G37*
G36*
X50445Y-30805D02*
X50445Y-30739D01*
X50485Y-30739D01*
X50485Y-30691D01*
X50445Y-30691D01*
X50445Y-30510D01*
X50394Y-30511D01*
X50269Y-30682D01*
X50269Y-30739D01*
X50313Y-30739D01*
X50313Y-30691D01*
X50325Y-30674D01*
X50332Y-30665D01*
X50353Y-30637D01*
X50371Y-30613D01*
X50385Y-30596D01*
X50391Y-30590D01*
X50391Y-30595D01*
X50392Y-30613D01*
X50392Y-30640D01*
X50392Y-30691D01*
X50313Y-30691D01*
X50313Y-30739D01*
X50392Y-30739D01*
X50392Y-30805D01*
X50445Y-30805D01*
X50445Y-30805D01*
G37*
G36*
X50594Y-30805D02*
X50600Y-30805D01*
X50637Y-30805D01*
X50667Y-30803D01*
X50687Y-30801D01*
X50703Y-30796D01*
X50739Y-30774D01*
X50766Y-30737D01*
X50768Y-30734D01*
X50776Y-30718D01*
X50780Y-30703D01*
X50781Y-30684D01*
X50782Y-30654D01*
X50781Y-30627D01*
X50780Y-30606D01*
X50776Y-30591D01*
X50769Y-30576D01*
X50745Y-30542D01*
X50706Y-30516D01*
X50695Y-30513D01*
X50677Y-30510D01*
X50649Y-30508D01*
X50607Y-30507D01*
X50524Y-30505D01*
X50524Y-30805D01*
X50586Y-30805D01*
X50586Y-30748D01*
X50586Y-30563D01*
X50625Y-30563D01*
X50658Y-30565D01*
X50680Y-30572D01*
X50697Y-30584D01*
X50704Y-30593D01*
X50717Y-30622D01*
X50721Y-30657D01*
X50716Y-30692D01*
X50702Y-30722D01*
X50681Y-30741D01*
X50660Y-30746D01*
X50626Y-30748D01*
X50586Y-30748D01*
X50586Y-30805D01*
X50594Y-30805D01*
X50594Y-30805D01*
G37*
G36*
X51466Y-30805D02*
X51466Y-30506D01*
X51377Y-30508D01*
X51309Y-30715D01*
X51239Y-30506D01*
X51149Y-30506D01*
X51149Y-30805D01*
X51206Y-30805D01*
X51206Y-30700D01*
X51207Y-30660D01*
X51207Y-30628D01*
X51209Y-30608D01*
X51210Y-30601D01*
X51210Y-30601D01*
X51214Y-30611D01*
X51223Y-30633D01*
X51235Y-30666D01*
X51249Y-30705D01*
X51283Y-30805D01*
X51332Y-30805D01*
X51362Y-30721D01*
X51375Y-30683D01*
X51387Y-30649D01*
X51395Y-30625D01*
X51406Y-30592D01*
X51409Y-30805D01*
X51466Y-30805D01*
X51466Y-30805D01*
G37*
G36*
X51844Y-30805D02*
X51844Y-30506D01*
X51755Y-30508D01*
X51688Y-30715D01*
X51618Y-30506D01*
X51528Y-30506D01*
X51528Y-30805D01*
X51585Y-30805D01*
X51585Y-30700D01*
X51585Y-30660D01*
X51586Y-30628D01*
X51587Y-30608D01*
X51589Y-30601D01*
X51589Y-30601D01*
X51593Y-30611D01*
X51601Y-30633D01*
X51613Y-30666D01*
X51627Y-30705D01*
X51662Y-30805D01*
X51711Y-30805D01*
X51736Y-30732D01*
X51740Y-30721D01*
X51753Y-30683D01*
X51765Y-30649D01*
X51773Y-30625D01*
X51785Y-30592D01*
X51787Y-30805D01*
X51844Y-30805D01*
X51844Y-30805D01*
G37*
G36*
X51972Y-30805D02*
X51972Y-30506D01*
X51910Y-30506D01*
X51910Y-30805D01*
X51972Y-30805D01*
X51972Y-30805D01*
G37*
G36*
X52258Y-30805D02*
X52258Y-30748D01*
X52095Y-30748D01*
X52095Y-30678D01*
X52241Y-30678D01*
X52241Y-30625D01*
X52095Y-30625D01*
X52095Y-30563D01*
X52254Y-30563D01*
X52254Y-30506D01*
X52034Y-30506D01*
X52034Y-30805D01*
X52258Y-30805D01*
X52258Y-30805D01*
G37*
G36*
X52540Y-30383D02*
X52540Y-29287D01*
X50260Y-29287D01*
X50260Y-30383D01*
X50366Y-30383D01*
X50366Y-30277D01*
X50366Y-29393D01*
X50537Y-29393D01*
X50537Y-30277D01*
X50366Y-30277D01*
X50366Y-30383D01*
X50922Y-30383D01*
X50922Y-30082D01*
X50880Y-30082D01*
X50844Y-30077D01*
X50802Y-30061D01*
X50760Y-30031D01*
X50732Y-29992D01*
X50719Y-29945D01*
X50717Y-29921D01*
X50796Y-29921D01*
X50799Y-29937D01*
X50801Y-29946D01*
X50817Y-29979D01*
X50847Y-30002D01*
X50851Y-30004D01*
X50869Y-30011D01*
X50887Y-30015D01*
X50913Y-30015D01*
X50932Y-30015D01*
X50954Y-30012D01*
X50971Y-30006D01*
X50987Y-29996D01*
X51002Y-29978D01*
X51007Y-29952D01*
X51008Y-29941D01*
X51006Y-29926D01*
X50997Y-29913D01*
X50996Y-29912D01*
X50987Y-29904D01*
X50972Y-29896D01*
X50950Y-29888D01*
X50916Y-29878D01*
X50867Y-29865D01*
X50834Y-29856D01*
X50811Y-29849D01*
X50793Y-29840D01*
X50776Y-29828D01*
X50774Y-29827D01*
X50750Y-29798D01*
X50737Y-29761D01*
X50736Y-29721D01*
X50748Y-29682D01*
X50771Y-29649D01*
X50807Y-29625D01*
X50856Y-29609D01*
X50908Y-29604D01*
X50960Y-29610D01*
X51007Y-29628D01*
X51022Y-29638D01*
X51051Y-29669D01*
X51071Y-29705D01*
X51079Y-29741D01*
X51079Y-29754D01*
X50998Y-29751D01*
X50993Y-29731D01*
X50990Y-29721D01*
X50973Y-29694D01*
X50943Y-29678D01*
X50900Y-29673D01*
X50887Y-29673D01*
X50864Y-29675D01*
X50846Y-29683D01*
X50841Y-29686D01*
X50821Y-29707D01*
X50816Y-29733D01*
X50824Y-29758D01*
X50846Y-29778D01*
X50851Y-29780D01*
X50872Y-29787D01*
X50903Y-29797D01*
X50940Y-29807D01*
X50957Y-29812D01*
X50992Y-29822D01*
X51019Y-29831D01*
X51033Y-29837D01*
X51056Y-29856D01*
X51080Y-29891D01*
X51090Y-29931D01*
X51088Y-29973D01*
X51071Y-30012D01*
X51041Y-30045D01*
X51020Y-30058D01*
X50993Y-30071D01*
X50964Y-30078D01*
X50922Y-30082D01*
X50922Y-30383D01*
X51558Y-30383D01*
X51558Y-30075D01*
X51556Y-29732D01*
X51433Y-30075D01*
X51399Y-30075D01*
X51392Y-30075D01*
X51373Y-30074D01*
X51365Y-30073D01*
X51365Y-30073D01*
X51362Y-30064D01*
X51354Y-30041D01*
X51342Y-30007D01*
X51327Y-29967D01*
X51311Y-29922D01*
X51294Y-29876D01*
X51278Y-29831D01*
X51263Y-29791D01*
X51251Y-29758D01*
X51243Y-29736D01*
X51240Y-29728D01*
X51239Y-29728D01*
X51239Y-29739D01*
X51238Y-29764D01*
X51238Y-29801D01*
X51237Y-29847D01*
X51237Y-29900D01*
X51237Y-30075D01*
X51162Y-30075D01*
X51162Y-29617D01*
X51275Y-29617D01*
X51329Y-29770D01*
X51345Y-29815D01*
X51362Y-29862D01*
X51376Y-29902D01*
X51386Y-29932D01*
X51392Y-29949D01*
X51401Y-29974D01*
X51413Y-29942D01*
X51418Y-29929D01*
X51428Y-29900D01*
X51441Y-29860D01*
X51458Y-29814D01*
X51475Y-29764D01*
X51525Y-29617D01*
X51638Y-29617D01*
X51638Y-30075D01*
X51558Y-30075D01*
X51558Y-30383D01*
X51836Y-30383D01*
X51836Y-30075D01*
X51836Y-29688D01*
X51690Y-29688D01*
X51690Y-29617D01*
X52065Y-29617D01*
X52065Y-29688D01*
X51919Y-29688D01*
X51919Y-30075D01*
X51836Y-30075D01*
X51836Y-30383D01*
X52263Y-30383D01*
X52263Y-30277D01*
X52263Y-29393D01*
X52434Y-29393D01*
X52434Y-30277D01*
X52263Y-30277D01*
X52263Y-30383D01*
X52540Y-30383D01*
X52540Y-30383D01*
G37*
G54D18*
X60114Y-28289D02*
X60114Y-29077D01*
X56925Y-29077D02*
X56925Y-28289D01*
X60114Y-28289D02*
X56925Y-28289D01*
X56925Y-30110D02*
X56925Y-31193D01*
X60114Y-31193D02*
X60114Y-30110D01*
X57600Y-32050D02*
X57300Y-32050D01*
X59750Y-32050D02*
X59400Y-32050D01*
G54D17*
X59000Y-28934D02*
X58750Y-30184D01*
X58750Y-30184D02*
X58250Y-30184D01*
X58250Y-30184D02*
X58000Y-28934D01*
X57250Y-29934D02*
X57375Y-28934D01*
X57375Y-28934D02*
X57625Y-28934D01*
X57625Y-28934D02*
X57750Y-29934D01*
X59750Y-29934D02*
X59625Y-28934D01*
X59625Y-28934D02*
X59375Y-28934D01*
X59375Y-28934D02*
X59250Y-29934D01*
G54D18*
X63991Y-44241D02*
X66194Y-44241D01*
X66194Y-44241D02*
X66509Y-44556D01*
X66509Y-44556D02*
X66509Y-46444D01*
X66509Y-46444D02*
X66194Y-46759D01*
X66194Y-46759D02*
X63991Y-46759D01*
X63991Y-46759D02*
X63991Y-44241D01*
X64384Y-44752D02*
X64384Y-46248D01*
X64384Y-46248D02*
X64293Y-46115D01*
X64293Y-46115D02*
X64221Y-45971D01*
X64221Y-45971D02*
X64168Y-45818D01*
X64168Y-45818D02*
X64138Y-45660D01*
X64138Y-45660D02*
X64128Y-45500D01*
X64128Y-45500D02*
X64141Y-45340D01*
X64141Y-45340D02*
X64173Y-45183D01*
X64173Y-45183D02*
X64225Y-45031D01*
X64225Y-45031D02*
X64296Y-44887D01*
X64296Y-44887D02*
X64384Y-44752D01*
G54D20*
X66070Y-45500D02*
G75*
G03X66070Y-45500I-820J0D01*
G74*
G01*
G54D18*
X52181Y-43701D02*
X52181Y-44685D01*
X52181Y-43701D02*
X52063Y-43701D01*
X52181Y-46299D02*
X52181Y-45315D01*
X52181Y-46299D02*
X52063Y-46299D01*
X49819Y-46299D02*
X49819Y-45315D01*
X49819Y-46299D02*
X49937Y-46299D01*
X49819Y-43701D02*
X49819Y-44685D01*
X49819Y-43701D02*
X49937Y-43701D01*
X51456Y-45000D02*
G75*
G03X51456Y-45000I-456J0D01*
G74*
G01*
X52181Y-36451D02*
X52181Y-37435D01*
X52181Y-36451D02*
X52063Y-36451D01*
X52181Y-39049D02*
X52181Y-38065D01*
X52181Y-39049D02*
X52063Y-39049D01*
X49819Y-39049D02*
X49819Y-38065D01*
X49819Y-39049D02*
X49937Y-39049D01*
X49819Y-36451D02*
X49819Y-37435D01*
X49819Y-36451D02*
X49937Y-36451D01*
X51456Y-37750D02*
G75*
G03X51456Y-37750I-456J0D01*
G74*
G01*
X67181Y-39951D02*
X67181Y-40935D01*
X67181Y-39951D02*
X67063Y-39951D01*
X67181Y-42549D02*
X67181Y-41565D01*
X67181Y-42549D02*
X67063Y-42549D01*
X64819Y-42549D02*
X64819Y-41565D01*
X64819Y-42549D02*
X64937Y-42549D01*
X64819Y-39951D02*
X64819Y-40935D01*
X64819Y-39951D02*
X64937Y-39951D01*
X66456Y-41250D02*
G75*
G03X66456Y-41250I-456J0D01*
G74*
G01*
G54D21*
X54146Y-41514D02*
X54146Y-41986D01*
X54854Y-41238D02*
X54854Y-41632D01*
X54854Y-42262D02*
X54854Y-41868D01*
X54854Y-41159D02*
X54854Y-41238D01*
X54854Y-41159D02*
X54146Y-41159D01*
X54146Y-41159D02*
X54146Y-41238D01*
X54146Y-42341D02*
X54146Y-42262D01*
X54854Y-42341D02*
X54854Y-42262D01*
X54146Y-42341D02*
X54854Y-42341D01*
X65646Y-37264D02*
X65646Y-37736D01*
X66354Y-36988D02*
X66354Y-37382D01*
X66354Y-38012D02*
X66354Y-37618D01*
X66354Y-36909D02*
X66354Y-36988D01*
X66354Y-36909D02*
X65646Y-36909D01*
X65646Y-36909D02*
X65646Y-36988D01*
X65646Y-38091D02*
X65646Y-38012D01*
X66354Y-38091D02*
X66354Y-38012D01*
X65646Y-38091D02*
X66354Y-38091D01*
X57146Y-41514D02*
X57146Y-41986D01*
X57854Y-41238D02*
X57854Y-41632D01*
X57854Y-42262D02*
X57854Y-41868D01*
X57854Y-41159D02*
X57854Y-41238D01*
X57854Y-41159D02*
X57146Y-41159D01*
X57146Y-41159D02*
X57146Y-41238D01*
X57146Y-42341D02*
X57146Y-42262D01*
X57854Y-42341D02*
X57854Y-42262D01*
X57146Y-42341D02*
X57854Y-42341D01*
G54D22*
X55100Y-29050D02*
X56100Y-29050D01*
X56100Y-29050D02*
X56100Y-31050D01*
X56100Y-31050D02*
X55100Y-31050D01*
X55100Y-31050D02*
X55100Y-29050D01*
G54D18*
X63004Y-42606D02*
X62335Y-42606D01*
X63004Y-43394D02*
X62335Y-43394D01*
X61094Y-42606D02*
X61665Y-42606D01*
X61094Y-43394D02*
X61665Y-43394D01*
X63004Y-42606D02*
X63004Y-43394D01*
X62965Y-43394D02*
X62965Y-42606D01*
X61094Y-42606D02*
X61094Y-43394D01*
X62906Y-42606D02*
X62906Y-43394D01*
X63004Y-40856D02*
X62335Y-40856D01*
X63004Y-41644D02*
X62335Y-41644D01*
X61094Y-40856D02*
X61665Y-40856D01*
X61094Y-41644D02*
X61665Y-41644D01*
X63004Y-40856D02*
X63004Y-41644D01*
X62965Y-41644D02*
X62965Y-40856D01*
X61094Y-40856D02*
X61094Y-41644D01*
X62906Y-40856D02*
X62906Y-41644D01*
X57394Y-38754D02*
X57394Y-38085D01*
X56606Y-38754D02*
X56606Y-38085D01*
X57394Y-36844D02*
X57394Y-37415D01*
X56606Y-36844D02*
X56606Y-37415D01*
X57394Y-38754D02*
X56606Y-38754D01*
X56606Y-38715D02*
X57394Y-38715D01*
X57394Y-36844D02*
X56606Y-36844D01*
X57394Y-38656D02*
X56606Y-38656D01*
X56606Y-43996D02*
X56606Y-44665D01*
X57394Y-43996D02*
X57394Y-44665D01*
X56606Y-45906D02*
X56606Y-45335D01*
X57394Y-45906D02*
X57394Y-45335D01*
X56606Y-43996D02*
X57394Y-43996D01*
X57394Y-44035D02*
X56606Y-44035D01*
X56606Y-45906D02*
X57394Y-45906D01*
X56606Y-44094D02*
X57394Y-44094D01*
X54606Y-36746D02*
X54606Y-37415D01*
X55394Y-36746D02*
X55394Y-37415D01*
X54606Y-38656D02*
X54606Y-38085D01*
X55394Y-38656D02*
X55394Y-38085D01*
X54606Y-36746D02*
X55394Y-36746D01*
X55394Y-36785D02*
X54606Y-36785D01*
X54606Y-38656D02*
X55394Y-38656D01*
X54606Y-36844D02*
X55394Y-36844D01*
X54606Y-43996D02*
X54606Y-44665D01*
X55394Y-43996D02*
X55394Y-44665D01*
X54606Y-45906D02*
X54606Y-45335D01*
X55394Y-45906D02*
X55394Y-45335D01*
X54606Y-43996D02*
X55394Y-43996D01*
X55394Y-44035D02*
X54606Y-44035D01*
X54606Y-45906D02*
X55394Y-45906D01*
X54606Y-44094D02*
X55394Y-44094D01*
G54D17*
X50958Y-42351D02*
X50875Y-42232D01*
X50815Y-42351D02*
X50815Y-42101D01*
X50910Y-42101D01*
X50934Y-42113D01*
X50946Y-42125D01*
X50958Y-42148D01*
X50958Y-42184D01*
X50946Y-42208D01*
X50934Y-42220D01*
X50910Y-42232D01*
X50815Y-42232D01*
X51172Y-42184D02*
X51172Y-42351D01*
X51113Y-42089D02*
X51053Y-42267D01*
X51208Y-42267D01*
X50958Y-40601D02*
X50875Y-40482D01*
X50815Y-40601D02*
X50815Y-40351D01*
X50910Y-40351D01*
X50934Y-40363D01*
X50946Y-40375D01*
X50958Y-40398D01*
X50958Y-40434D01*
X50946Y-40458D01*
X50934Y-40470D01*
X50910Y-40482D01*
X50815Y-40482D01*
X51184Y-40351D02*
X51065Y-40351D01*
X51053Y-40470D01*
X51065Y-40458D01*
X51089Y-40446D01*
X51148Y-40446D01*
X51172Y-40458D01*
X51184Y-40470D01*
X51196Y-40494D01*
X51196Y-40553D01*
X51184Y-40577D01*
X51172Y-40589D01*
X51148Y-40601D01*
X51089Y-40601D01*
X51065Y-40589D01*
X51053Y-40577D01*
G54D21*
X62097Y-39175D02*
X61982Y-39255D01*
X62097Y-39312D02*
X61857Y-39312D01*
X61857Y-39221D01*
X61868Y-39198D01*
X61880Y-39187D01*
X61902Y-39175D01*
X61937Y-39175D01*
X61960Y-39187D01*
X61971Y-39198D01*
X61982Y-39221D01*
X61982Y-39312D01*
G54D23*
X65166Y-43904D02*
X65142Y-43928D01*
X65071Y-43952D01*
X65023Y-43952D01*
X64952Y-43928D01*
X64904Y-43880D01*
X64880Y-43833D01*
X64857Y-43738D01*
X64857Y-43666D01*
X64880Y-43571D01*
X64904Y-43523D01*
X64952Y-43476D01*
X65023Y-43452D01*
X65071Y-43452D01*
X65142Y-43476D01*
X65166Y-43500D01*
X65642Y-43952D02*
X65357Y-43952D01*
X65500Y-43952D02*
X65500Y-43452D01*
X65452Y-43523D01*
X65404Y-43571D01*
X65357Y-43595D01*
X65166Y-47404D02*
X65142Y-47428D01*
X65071Y-47452D01*
X65023Y-47452D01*
X64952Y-47428D01*
X64904Y-47380D01*
X64880Y-47333D01*
X64857Y-47238D01*
X64857Y-47166D01*
X64880Y-47071D01*
X64904Y-47023D01*
X64952Y-46976D01*
X65023Y-46952D01*
X65071Y-46952D01*
X65142Y-46976D01*
X65166Y-47000D01*
X65380Y-47452D02*
X65380Y-46952D01*
X65571Y-46952D01*
X65619Y-46976D01*
X65642Y-47000D01*
X65666Y-47047D01*
X65666Y-47119D01*
X65642Y-47166D01*
X65619Y-47190D01*
X65571Y-47214D01*
X65380Y-47214D01*
X66142Y-47452D02*
X65857Y-47452D01*
X66000Y-47452D02*
X66000Y-46952D01*
X65952Y-47023D01*
X65904Y-47071D01*
X65857Y-47095D01*
G54D18*
X52728Y-46043D02*
X52745Y-45998D01*
X52745Y-45921D01*
X52728Y-45891D01*
X52711Y-45876D01*
X52677Y-45860D01*
X52642Y-45860D01*
X52608Y-45876D01*
X52591Y-45891D01*
X52574Y-45921D01*
X52557Y-45982D01*
X52540Y-46013D01*
X52522Y-46028D01*
X52488Y-46043D01*
X52454Y-46043D01*
X52420Y-46028D01*
X52402Y-46013D01*
X52385Y-45982D01*
X52385Y-45906D01*
X52402Y-45860D01*
X52385Y-45754D02*
X52745Y-45678D01*
X52488Y-45617D01*
X52745Y-45556D01*
X52385Y-45480D01*
X52780Y-45434D02*
X52780Y-45190D01*
X52745Y-45114D02*
X52385Y-45114D01*
X52385Y-44992D01*
X52402Y-44961D01*
X52420Y-44946D01*
X52454Y-44931D01*
X52505Y-44931D01*
X52540Y-44946D01*
X52557Y-44961D01*
X52574Y-44992D01*
X52574Y-45114D01*
X52385Y-44794D02*
X52677Y-44794D01*
X52711Y-44779D01*
X52728Y-44763D01*
X52745Y-44733D01*
X52745Y-44672D01*
X52728Y-44641D01*
X52711Y-44626D01*
X52677Y-44611D01*
X52385Y-44611D01*
X52728Y-44474D02*
X52745Y-44428D01*
X52745Y-44352D01*
X52728Y-44321D01*
X52711Y-44306D01*
X52677Y-44291D01*
X52642Y-44291D01*
X52608Y-44306D01*
X52591Y-44321D01*
X52574Y-44352D01*
X52557Y-44413D01*
X52540Y-44443D01*
X52522Y-44459D01*
X52488Y-44474D01*
X52454Y-44474D01*
X52420Y-44459D01*
X52402Y-44443D01*
X52385Y-44413D01*
X52385Y-44337D01*
X52402Y-44291D01*
X52745Y-44154D02*
X52385Y-44154D01*
X52557Y-44154D02*
X52557Y-43971D01*
X52745Y-43971D02*
X52385Y-43971D01*
X52728Y-38793D02*
X52745Y-38748D01*
X52745Y-38671D01*
X52728Y-38641D01*
X52711Y-38626D01*
X52677Y-38610D01*
X52642Y-38610D01*
X52608Y-38626D01*
X52591Y-38641D01*
X52574Y-38671D01*
X52557Y-38732D01*
X52540Y-38763D01*
X52522Y-38778D01*
X52488Y-38793D01*
X52454Y-38793D01*
X52420Y-38778D01*
X52402Y-38763D01*
X52385Y-38732D01*
X52385Y-38656D01*
X52402Y-38610D01*
X52385Y-38504D02*
X52745Y-38428D01*
X52488Y-38367D01*
X52745Y-38306D01*
X52385Y-38230D01*
X52780Y-38184D02*
X52780Y-37940D01*
X52745Y-37864D02*
X52385Y-37864D01*
X52385Y-37742D01*
X52402Y-37711D01*
X52420Y-37696D01*
X52454Y-37681D01*
X52505Y-37681D01*
X52540Y-37696D01*
X52557Y-37711D01*
X52574Y-37742D01*
X52574Y-37864D01*
X52385Y-37544D02*
X52677Y-37544D01*
X52711Y-37529D01*
X52728Y-37513D01*
X52745Y-37483D01*
X52745Y-37422D01*
X52728Y-37391D01*
X52711Y-37376D01*
X52677Y-37361D01*
X52385Y-37361D01*
X52728Y-37224D02*
X52745Y-37178D01*
X52745Y-37102D01*
X52728Y-37071D01*
X52711Y-37056D01*
X52677Y-37041D01*
X52642Y-37041D01*
X52608Y-37056D01*
X52591Y-37071D01*
X52574Y-37102D01*
X52557Y-37163D01*
X52540Y-37193D01*
X52522Y-37209D01*
X52488Y-37224D01*
X52454Y-37224D01*
X52420Y-37209D01*
X52402Y-37193D01*
X52385Y-37163D01*
X52385Y-37087D01*
X52402Y-37041D01*
X52745Y-36904D02*
X52385Y-36904D01*
X52557Y-36904D02*
X52557Y-36721D01*
X52745Y-36721D02*
X52385Y-36721D01*
X67728Y-42293D02*
X67745Y-42248D01*
X67745Y-42171D01*
X67728Y-42141D01*
X67711Y-42126D01*
X67677Y-42110D01*
X67642Y-42110D01*
X67608Y-42126D01*
X67591Y-42141D01*
X67574Y-42171D01*
X67557Y-42232D01*
X67540Y-42263D01*
X67522Y-42278D01*
X67488Y-42293D01*
X67454Y-42293D01*
X67420Y-42278D01*
X67402Y-42263D01*
X67385Y-42232D01*
X67385Y-42156D01*
X67402Y-42110D01*
X67385Y-42004D02*
X67745Y-41928D01*
X67488Y-41867D01*
X67745Y-41806D01*
X67385Y-41730D01*
X67780Y-41684D02*
X67780Y-41440D01*
X67745Y-41364D02*
X67385Y-41364D01*
X67385Y-41242D01*
X67402Y-41211D01*
X67420Y-41196D01*
X67454Y-41181D01*
X67505Y-41181D01*
X67540Y-41196D01*
X67557Y-41211D01*
X67574Y-41242D01*
X67574Y-41364D01*
X67385Y-41044D02*
X67677Y-41044D01*
X67711Y-41029D01*
X67728Y-41013D01*
X67745Y-40983D01*
X67745Y-40922D01*
X67728Y-40891D01*
X67711Y-40876D01*
X67677Y-40861D01*
X67385Y-40861D01*
X67728Y-40724D02*
X67745Y-40678D01*
X67745Y-40602D01*
X67728Y-40571D01*
X67711Y-40556D01*
X67677Y-40541D01*
X67642Y-40541D01*
X67608Y-40556D01*
X67591Y-40571D01*
X67574Y-40602D01*
X67557Y-40663D01*
X67540Y-40693D01*
X67522Y-40709D01*
X67488Y-40724D01*
X67454Y-40724D01*
X67420Y-40709D01*
X67402Y-40693D01*
X67385Y-40663D01*
X67385Y-40587D01*
X67402Y-40541D01*
X67745Y-40404D02*
X67385Y-40404D01*
X67557Y-40404D02*
X67557Y-40221D01*
X67745Y-40221D02*
X67385Y-40221D01*
G54D21*
X54620Y-41772D02*
X54608Y-41795D01*
X54585Y-41818D01*
X54551Y-41852D01*
X54540Y-41875D01*
X54540Y-41898D01*
X54597Y-41887D02*
X54585Y-41910D01*
X54562Y-41932D01*
X54517Y-41944D01*
X54437Y-41944D01*
X54391Y-41932D01*
X54368Y-41910D01*
X54357Y-41887D01*
X54357Y-41841D01*
X54368Y-41818D01*
X54391Y-41795D01*
X54437Y-41784D01*
X54517Y-41784D01*
X54562Y-41795D01*
X54585Y-41818D01*
X54597Y-41841D01*
X54597Y-41887D01*
X54380Y-41692D02*
X54368Y-41681D01*
X54357Y-41658D01*
X54357Y-41601D01*
X54368Y-41578D01*
X54380Y-41567D01*
X54402Y-41555D01*
X54425Y-41555D01*
X54460Y-41567D01*
X54597Y-41704D01*
X54597Y-41555D01*
X65696Y-37446D02*
X65684Y-37469D01*
X65661Y-37492D01*
X65627Y-37526D01*
X65616Y-37549D01*
X65616Y-37572D01*
X65673Y-37561D02*
X65661Y-37584D01*
X65638Y-37606D01*
X65593Y-37618D01*
X65513Y-37618D01*
X65467Y-37606D01*
X65444Y-37584D01*
X65433Y-37561D01*
X65433Y-37515D01*
X65444Y-37492D01*
X65467Y-37469D01*
X65513Y-37458D01*
X65593Y-37458D01*
X65638Y-37469D01*
X65661Y-37492D01*
X65673Y-37515D01*
X65673Y-37561D01*
X65673Y-37229D02*
X65673Y-37366D01*
X65673Y-37298D02*
X65433Y-37298D01*
X65467Y-37321D01*
X65490Y-37344D01*
X65501Y-37366D01*
X57620Y-41772D02*
X57608Y-41795D01*
X57585Y-41818D01*
X57551Y-41852D01*
X57540Y-41875D01*
X57540Y-41898D01*
X57597Y-41887D02*
X57585Y-41910D01*
X57562Y-41932D01*
X57517Y-41944D01*
X57437Y-41944D01*
X57391Y-41932D01*
X57368Y-41910D01*
X57357Y-41887D01*
X57357Y-41841D01*
X57368Y-41818D01*
X57391Y-41795D01*
X57437Y-41784D01*
X57517Y-41784D01*
X57562Y-41795D01*
X57585Y-41818D01*
X57597Y-41841D01*
X57597Y-41887D01*
X57357Y-41704D02*
X57357Y-41555D01*
X57448Y-41635D01*
X57448Y-41601D01*
X57460Y-41578D01*
X57471Y-41567D01*
X57494Y-41555D01*
X57551Y-41555D01*
X57574Y-41567D01*
X57585Y-41578D01*
X57597Y-41601D01*
X57597Y-41670D01*
X57585Y-41692D01*
X57574Y-41704D01*
G54D24*
X56875Y-30365D02*
X56194Y-30365D01*
X56194Y-30202D01*
X56227Y-30162D01*
X56259Y-30141D01*
X56324Y-30121D01*
X56421Y-30121D01*
X56486Y-30141D01*
X56518Y-30162D01*
X56551Y-30202D01*
X56551Y-30365D01*
X56875Y-29713D02*
X56875Y-29958D01*
X56875Y-29836D02*
X56194Y-29836D01*
X56291Y-29876D01*
X56356Y-29917D01*
X56389Y-29958D01*
G54D21*
X62097Y-42925D02*
X61982Y-43005D01*
X62097Y-43062D02*
X61857Y-43062D01*
X61857Y-42971D01*
X61868Y-42948D01*
X61880Y-42937D01*
X61902Y-42925D01*
X61937Y-42925D01*
X61960Y-42937D01*
X61971Y-42948D01*
X61982Y-42971D01*
X61982Y-43062D01*
X62097Y-41404D02*
X62097Y-41518D01*
X61857Y-41518D01*
X61971Y-41324D02*
X61971Y-41244D01*
X62097Y-41209D02*
X62097Y-41324D01*
X61857Y-41324D01*
X61857Y-41209D01*
X62097Y-41107D02*
X61857Y-41107D01*
X61857Y-41049D01*
X61868Y-41015D01*
X61891Y-40992D01*
X61914Y-40981D01*
X61960Y-40969D01*
X61994Y-40969D01*
X62040Y-40981D01*
X62062Y-40992D01*
X62085Y-41015D01*
X62097Y-41049D01*
X62097Y-41107D01*
X56845Y-37847D02*
X56731Y-37847D01*
X56731Y-37607D01*
X56925Y-37721D02*
X57005Y-37721D01*
X57040Y-37847D02*
X56925Y-37847D01*
X56925Y-37607D01*
X57040Y-37607D01*
X57142Y-37847D02*
X57142Y-37607D01*
X57200Y-37607D01*
X57234Y-37618D01*
X57257Y-37641D01*
X57268Y-37664D01*
X57280Y-37710D01*
X57280Y-37744D01*
X57268Y-37790D01*
X57257Y-37812D01*
X57234Y-37835D01*
X57200Y-37847D01*
X57142Y-37847D01*
X56845Y-45097D02*
X56731Y-45097D01*
X56731Y-44857D01*
X56925Y-44971D02*
X57005Y-44971D01*
X57040Y-45097D02*
X56925Y-45097D01*
X56925Y-44857D01*
X57040Y-44857D01*
X57142Y-45097D02*
X57142Y-44857D01*
X57200Y-44857D01*
X57234Y-44868D01*
X57257Y-44891D01*
X57268Y-44914D01*
X57280Y-44960D01*
X57280Y-44994D01*
X57268Y-45040D01*
X57257Y-45062D01*
X57234Y-45085D01*
X57200Y-45097D01*
X57142Y-45097D01*
X55074Y-37847D02*
X54994Y-37732D01*
X54937Y-37847D02*
X54937Y-37607D01*
X55028Y-37607D01*
X55051Y-37618D01*
X55062Y-37630D01*
X55074Y-37652D01*
X55074Y-37687D01*
X55062Y-37710D01*
X55051Y-37721D01*
X55028Y-37732D01*
X54937Y-37732D01*
X55074Y-45097D02*
X54994Y-44982D01*
X54937Y-45097D02*
X54937Y-44857D01*
X55028Y-44857D01*
X55051Y-44868D01*
X55062Y-44880D01*
X55074Y-44902D01*
X55074Y-44937D01*
X55062Y-44960D01*
X55051Y-44971D01*
X55028Y-44982D01*
X54937Y-44982D01*
%LPC*%
G54D25*
X50625Y-42250D03*
X51375Y-42250D03*
X50625Y-40500D03*
X51375Y-40500D03*
G54D26*
X62630Y-39250D03*
X61370Y-39250D03*
G54D27*
X58500Y-31774D03*
X58814Y-31774D03*
X57871Y-31774D03*
G54D28*
X60271Y-29569D03*
X60271Y-31734D03*
X56729Y-29569D03*
X56768Y-31734D03*
G54D29*
X58186Y-31750D03*
G54D30*
X59189Y-30750D03*
X57811Y-30750D03*
G54D27*
X59129Y-31774D03*
G54D31*
X66352Y-45500D03*
X64148Y-45500D03*
G54D32*
X50213Y-43819D03*
X51787Y-43819D03*
X50213Y-46181D03*
X51787Y-46181D03*
X50213Y-36569D03*
X51787Y-36569D03*
X50213Y-38931D03*
X51787Y-38931D03*
X65213Y-40069D03*
X66787Y-40069D03*
X65213Y-42431D03*
X66787Y-42431D03*
G54D33*
X54000Y-42125D03*
X54000Y-41375D03*
X55000Y-41750D03*
X65500Y-37875D03*
X65500Y-37125D03*
X66500Y-37500D03*
X57000Y-42125D03*
X57000Y-41375D03*
X58000Y-41750D03*
G54D34*
X55600Y-29550D03*
G54D35*
X55600Y-30550D03*
G54D26*
X62630Y-43000D03*
X61370Y-43000D03*
X62630Y-41250D03*
X61370Y-41250D03*
G54D36*
X57000Y-38380D03*
X57000Y-37120D03*
X57000Y-44370D03*
X57000Y-45630D03*
X55000Y-37120D03*
X55000Y-38380D03*
X55000Y-44370D03*
X55000Y-45630D03*
G54D37*
X54016Y-43250D03*
X55984Y-43250D03*
M02*
