G04 (created by PCBNEW (2013-mar-13)-testing) date Mon 19 Aug 2013 04:09:37 PM CEST*
%MOIN*%
G04 Gerber Fmt 3.4, Leading zero omitted, Abs format*
%FSLAX34Y34*%
G01*
G70*
G90*
G04 APERTURE LIST*
%ADD10C,0.000787402*%
%ADD11C,0.015*%
%ADD12R,0.052874X0.032874*%
%ADD13R,0.068874X0.031874*%
%ADD14R,0.072811X0.031874*%
%ADD15R,0.057874X0.021874*%
%ADD16R,0.062874X0.062874*%
%ADD17C,0.062874*%
%ADD18R,0.031874X0.042874*%
%ADD19R,0.070874X0.066974*%
%ADD20R,0.055074X0.055074*%
%ADD21R,0.062974X0.122074*%
%ADD22R,0.042874X0.062874*%
%ADD23R,0.062874X0.042874*%
%ADD24R,0.087874X0.067874*%
%ADD25R,0.032874X0.052874*%
G04 APERTURE END LIST*
G54D10*
G54D11*
X67250Y-28250D02*
X49750Y-28250D01*
X68250Y-46750D02*
X68250Y-29250D01*
X68250Y-29250D02*
G75*
G03X67250Y-28250I-1000J0D01*
G74*
G01*
X50000Y-47750D02*
X67250Y-47750D01*
X48750Y-46500D02*
X48750Y-29250D01*
X48750Y-46500D02*
G75*
G03X50000Y-47750I1250J0D01*
G74*
G01*
X67250Y-47750D02*
G75*
G03X68250Y-46750I0J1000D01*
G74*
G01*
X49750Y-28250D02*
G75*
G03X48750Y-29250I0J-1000D01*
G74*
G01*
G54D12*
X64000Y-39550D03*
X64000Y-38950D03*
G54D13*
X61392Y-34000D03*
X61392Y-33500D03*
X61392Y-33000D03*
X61392Y-32500D03*
G54D14*
X61392Y-32000D03*
G54D13*
X61392Y-31500D03*
X61392Y-31000D03*
X64207Y-31000D03*
X64207Y-31500D03*
X64207Y-32000D03*
X64207Y-32500D03*
X64207Y-33000D03*
X64207Y-33500D03*
X64207Y-34000D03*
G54D15*
X52218Y-33684D03*
X52218Y-33428D03*
X52218Y-33172D03*
X52218Y-32916D03*
X54581Y-32916D03*
X54581Y-33172D03*
X54581Y-33428D03*
X54581Y-33684D03*
G54D13*
X63542Y-45500D03*
X66357Y-45500D03*
X63542Y-45000D03*
X66357Y-45000D03*
X63542Y-44500D03*
X66357Y-44500D03*
X63542Y-44000D03*
X66357Y-44000D03*
X63542Y-43500D03*
X66357Y-43500D03*
X63542Y-43000D03*
X66357Y-43000D03*
X63542Y-42500D03*
X66357Y-42500D03*
X63542Y-42000D03*
X66357Y-42000D03*
G54D16*
X55600Y-29550D03*
G54D17*
X55600Y-30550D03*
G54D18*
X55125Y-35350D03*
X54375Y-35350D03*
X54750Y-36350D03*
G54D19*
X50800Y-30971D03*
G54D20*
X50406Y-29691D03*
X51194Y-29691D03*
G54D19*
X66500Y-30921D03*
G54D20*
X66106Y-29641D03*
X66894Y-29641D03*
X54488Y-29850D03*
X53111Y-29850D03*
X53111Y-31450D03*
X54488Y-31450D03*
G54D21*
X50663Y-45081D03*
X52237Y-45081D03*
X50663Y-42719D03*
X52237Y-42719D03*
G54D22*
X55025Y-42000D03*
X54275Y-42000D03*
X55025Y-43250D03*
X54275Y-43250D03*
X55025Y-44500D03*
X54275Y-44500D03*
X55025Y-45750D03*
X54275Y-45750D03*
X58425Y-42000D03*
X57675Y-42000D03*
X58425Y-43250D03*
X57675Y-43250D03*
X58425Y-44500D03*
X57675Y-44500D03*
X58425Y-45750D03*
X57675Y-45750D03*
G54D23*
X59550Y-34875D03*
X59550Y-34125D03*
G54D22*
X52475Y-36400D03*
X53225Y-36400D03*
X53225Y-35100D03*
X52475Y-35100D03*
G54D24*
X66250Y-32600D03*
X66250Y-33900D03*
X59550Y-32650D03*
X59550Y-31350D03*
X56400Y-33900D03*
X56400Y-32600D03*
X50850Y-35100D03*
X50850Y-36400D03*
G54D25*
X51750Y-46500D03*
X51150Y-46500D03*
X65250Y-46500D03*
X64650Y-46500D03*
X50500Y-32200D03*
X51100Y-32200D03*
X62600Y-29850D03*
X63200Y-29850D03*
G54D12*
X66750Y-36450D03*
X66750Y-37050D03*
X65250Y-39550D03*
X65250Y-38950D03*
X62750Y-39550D03*
X62750Y-38950D03*
X61500Y-39550D03*
X61500Y-38950D03*
X65250Y-36450D03*
X65250Y-37050D03*
X64000Y-36450D03*
X64000Y-37050D03*
X62750Y-36450D03*
X62750Y-37050D03*
X61500Y-36450D03*
X61500Y-37050D03*
M02*
