G04 (created by PCBNEW (2013-mar-13)-testing) date Mon 19 Aug 2013 04:09:37 PM CEST*
%MOIN*%
G04 Gerber Fmt 3.4, Leading zero omitted, Abs format*
%FSLAX34Y34*%
G01*
G70*
G90*
G04 APERTURE LIST*
%ADD10C,0.000787402*%
%ADD11C,0.0049*%
%ADD12C,0.015*%
%ADD13C,0.006*%
%ADD14C,0.008*%
%ADD15C,0.0001*%
%ADD16C,0.007*%
%ADD17C,0.005*%
%ADD18R,0.052874X0.032874*%
%ADD19R,0.068874X0.031874*%
%ADD20R,0.072811X0.031874*%
%ADD21R,0.057874X0.021874*%
%ADD22R,0.062874X0.062874*%
%ADD23C,0.062874*%
%ADD24R,0.031874X0.042874*%
%ADD25R,0.070874X0.066974*%
%ADD26R,0.055074X0.055074*%
%ADD27R,0.062974X0.122074*%
%ADD28R,0.042874X0.062874*%
%ADD29R,0.062874X0.042874*%
%ADD30R,0.087874X0.067874*%
%ADD31R,0.032874X0.052874*%
G04 APERTURE END LIST*
G54D10*
G54D11*
X54034Y-39278D02*
X54109Y-39278D01*
X53706Y-39371D02*
X53715Y-39390D01*
X53744Y-39409D01*
X53762Y-39409D01*
X53791Y-39390D01*
X53809Y-39353D01*
X53819Y-39315D01*
X53828Y-39240D01*
X53828Y-39184D01*
X53819Y-39109D01*
X53809Y-39071D01*
X53791Y-39034D01*
X53762Y-39015D01*
X53744Y-39015D01*
X53715Y-39034D01*
X53706Y-39053D01*
X53594Y-39409D02*
X53612Y-39390D01*
X53622Y-39371D01*
X53631Y-39334D01*
X53631Y-39221D01*
X53622Y-39184D01*
X53612Y-39165D01*
X53594Y-39146D01*
X53565Y-39146D01*
X53547Y-39165D01*
X53537Y-39184D01*
X53528Y-39221D01*
X53528Y-39334D01*
X53537Y-39371D01*
X53547Y-39390D01*
X53565Y-39409D01*
X53594Y-39409D01*
X53443Y-39146D02*
X53443Y-39409D01*
X53443Y-39184D02*
X53434Y-39165D01*
X53415Y-39146D01*
X53387Y-39146D01*
X53368Y-39165D01*
X53359Y-39203D01*
X53359Y-39409D01*
X53293Y-39146D02*
X53218Y-39146D01*
X53265Y-39409D02*
X53265Y-39071D01*
X53256Y-39034D01*
X53237Y-39015D01*
X53218Y-39015D01*
X53068Y-39146D02*
X53068Y-39409D01*
X53153Y-39146D02*
X53153Y-39353D01*
X53143Y-39390D01*
X53124Y-39409D01*
X53096Y-39409D01*
X53078Y-39390D01*
X53068Y-39371D01*
X52890Y-39390D02*
X52909Y-39409D01*
X52946Y-39409D01*
X52965Y-39390D01*
X52974Y-39371D01*
X52984Y-39334D01*
X52984Y-39221D01*
X52974Y-39184D01*
X52965Y-39165D01*
X52946Y-39146D01*
X52909Y-39146D01*
X52890Y-39165D01*
X52806Y-39409D02*
X52806Y-39146D01*
X52806Y-39015D02*
X52815Y-39034D01*
X52806Y-39053D01*
X52796Y-39034D01*
X52806Y-39015D01*
X52806Y-39053D01*
X52627Y-39146D02*
X52627Y-39409D01*
X52712Y-39146D02*
X52712Y-39353D01*
X52702Y-39390D01*
X52684Y-39409D01*
X52655Y-39409D01*
X52637Y-39390D01*
X52627Y-39371D01*
X52543Y-39390D02*
X52524Y-39409D01*
X52487Y-39409D01*
X52468Y-39390D01*
X52458Y-39353D01*
X52458Y-39334D01*
X52468Y-39296D01*
X52487Y-39278D01*
X52515Y-39278D01*
X52533Y-39259D01*
X52543Y-39221D01*
X52543Y-39203D01*
X52533Y-39165D01*
X52515Y-39146D01*
X52487Y-39146D01*
X52468Y-39165D01*
X54155Y-38809D02*
X54155Y-38415D01*
X53827Y-38809D02*
X53827Y-38415D01*
X53827Y-38790D02*
X53846Y-38809D01*
X53883Y-38809D01*
X53902Y-38790D01*
X53911Y-38771D01*
X53921Y-38734D01*
X53921Y-38621D01*
X53911Y-38584D01*
X53902Y-38565D01*
X53883Y-38546D01*
X53846Y-38546D01*
X53827Y-38565D01*
X53705Y-38809D02*
X53724Y-38790D01*
X53733Y-38771D01*
X53742Y-38734D01*
X53742Y-38621D01*
X53733Y-38584D01*
X53724Y-38565D01*
X53705Y-38546D01*
X53677Y-38546D01*
X53658Y-38565D01*
X53649Y-38584D01*
X53639Y-38621D01*
X53639Y-38734D01*
X53649Y-38771D01*
X53658Y-38790D01*
X53677Y-38809D01*
X53705Y-38809D01*
X53320Y-38809D02*
X53320Y-38603D01*
X53330Y-38565D01*
X53348Y-38546D01*
X53386Y-38546D01*
X53405Y-38565D01*
X53320Y-38790D02*
X53339Y-38809D01*
X53386Y-38809D01*
X53405Y-38790D01*
X53414Y-38753D01*
X53414Y-38715D01*
X53405Y-38678D01*
X53386Y-38659D01*
X53339Y-38659D01*
X53320Y-38640D01*
X53227Y-38546D02*
X53227Y-38809D01*
X53227Y-38584D02*
X53217Y-38565D01*
X53198Y-38546D01*
X53170Y-38546D01*
X53151Y-38565D01*
X53142Y-38603D01*
X53142Y-38809D01*
X52964Y-38809D02*
X52964Y-38415D01*
X52964Y-38790D02*
X52983Y-38809D01*
X53020Y-38809D01*
X53039Y-38790D01*
X53048Y-38771D01*
X53058Y-38734D01*
X53058Y-38621D01*
X53048Y-38584D01*
X53039Y-38565D01*
X53020Y-38546D01*
X52983Y-38546D01*
X52964Y-38565D01*
X52720Y-38809D02*
X52720Y-38415D01*
X52392Y-38546D02*
X52392Y-38809D01*
X52476Y-38546D02*
X52476Y-38753D01*
X52467Y-38790D01*
X52448Y-38809D01*
X52420Y-38809D01*
X52401Y-38790D01*
X52392Y-38771D01*
X52298Y-38546D02*
X52298Y-38809D01*
X52298Y-38584D02*
X52288Y-38565D01*
X52270Y-38546D01*
X52242Y-38546D01*
X52223Y-38565D01*
X52213Y-38603D01*
X52213Y-38809D01*
X52035Y-38809D02*
X52035Y-38415D01*
X52035Y-38790D02*
X52054Y-38809D01*
X52091Y-38809D01*
X52110Y-38790D01*
X52120Y-38771D01*
X52129Y-38734D01*
X52129Y-38621D01*
X52120Y-38584D01*
X52110Y-38565D01*
X52091Y-38546D01*
X52054Y-38546D01*
X52035Y-38565D01*
X51866Y-38790D02*
X51885Y-38809D01*
X51923Y-38809D01*
X51941Y-38790D01*
X51951Y-38753D01*
X51951Y-38603D01*
X51941Y-38565D01*
X51923Y-38546D01*
X51885Y-38546D01*
X51866Y-38565D01*
X51857Y-38603D01*
X51857Y-38640D01*
X51951Y-38678D01*
X51772Y-38809D02*
X51772Y-38546D01*
X51772Y-38621D02*
X51763Y-38584D01*
X51754Y-38565D01*
X51735Y-38546D01*
X51716Y-38546D01*
X51660Y-38790D02*
X51641Y-38809D01*
X51604Y-38809D01*
X51585Y-38790D01*
X51575Y-38753D01*
X51575Y-38734D01*
X51585Y-38696D01*
X51604Y-38678D01*
X51632Y-38678D01*
X51651Y-38659D01*
X51660Y-38621D01*
X51660Y-38603D01*
X51651Y-38565D01*
X51632Y-38546D01*
X51604Y-38546D01*
X51585Y-38565D01*
X51519Y-38546D02*
X51444Y-38546D01*
X51491Y-38415D02*
X51491Y-38753D01*
X51482Y-38790D01*
X51463Y-38809D01*
X51444Y-38809D01*
X51294Y-38809D02*
X51294Y-38603D01*
X51303Y-38565D01*
X51322Y-38546D01*
X51360Y-38546D01*
X51378Y-38565D01*
X51294Y-38790D02*
X51313Y-38809D01*
X51360Y-38809D01*
X51378Y-38790D01*
X51388Y-38753D01*
X51388Y-38715D01*
X51378Y-38678D01*
X51360Y-38659D01*
X51313Y-38659D01*
X51294Y-38640D01*
X51200Y-38546D02*
X51200Y-38809D01*
X51200Y-38584D02*
X51191Y-38565D01*
X51172Y-38546D01*
X51144Y-38546D01*
X51125Y-38565D01*
X51116Y-38603D01*
X51116Y-38809D01*
X50938Y-38809D02*
X50938Y-38415D01*
X50938Y-38790D02*
X50956Y-38809D01*
X50994Y-38809D01*
X51013Y-38790D01*
X51022Y-38771D01*
X51031Y-38734D01*
X51031Y-38621D01*
X51022Y-38584D01*
X51013Y-38565D01*
X50994Y-38546D01*
X50956Y-38546D01*
X50938Y-38565D01*
X50844Y-38771D02*
X50834Y-38790D01*
X50844Y-38809D01*
X50853Y-38790D01*
X50844Y-38771D01*
X50844Y-38809D01*
X54146Y-37609D02*
X54146Y-37215D01*
X53902Y-37609D02*
X53902Y-37215D01*
X53817Y-37609D02*
X53817Y-37403D01*
X53827Y-37365D01*
X53846Y-37346D01*
X53874Y-37346D01*
X53892Y-37365D01*
X53902Y-37384D01*
X53649Y-37590D02*
X53667Y-37609D01*
X53705Y-37609D01*
X53724Y-37590D01*
X53733Y-37553D01*
X53733Y-37403D01*
X53724Y-37365D01*
X53705Y-37346D01*
X53667Y-37346D01*
X53649Y-37365D01*
X53639Y-37403D01*
X53639Y-37440D01*
X53733Y-37478D01*
X53470Y-37609D02*
X53470Y-37403D01*
X53480Y-37365D01*
X53498Y-37346D01*
X53536Y-37346D01*
X53555Y-37365D01*
X53470Y-37590D02*
X53489Y-37609D01*
X53536Y-37609D01*
X53555Y-37590D01*
X53564Y-37553D01*
X53564Y-37515D01*
X53555Y-37478D01*
X53536Y-37459D01*
X53489Y-37459D01*
X53470Y-37440D01*
X53377Y-37609D02*
X53377Y-37346D01*
X53377Y-37421D02*
X53367Y-37384D01*
X53358Y-37365D01*
X53339Y-37346D01*
X53320Y-37346D01*
X53020Y-37609D02*
X53020Y-37403D01*
X53029Y-37365D01*
X53048Y-37346D01*
X53086Y-37346D01*
X53104Y-37365D01*
X53020Y-37590D02*
X53039Y-37609D01*
X53086Y-37609D01*
X53104Y-37590D01*
X53114Y-37553D01*
X53114Y-37515D01*
X53104Y-37478D01*
X53086Y-37459D01*
X53039Y-37459D01*
X53020Y-37440D01*
X52926Y-37346D02*
X52926Y-37609D01*
X52926Y-37384D02*
X52917Y-37365D01*
X52898Y-37346D01*
X52870Y-37346D01*
X52851Y-37365D01*
X52842Y-37403D01*
X52842Y-37609D01*
X52664Y-37609D02*
X52664Y-37215D01*
X52664Y-37590D02*
X52682Y-37609D01*
X52720Y-37609D01*
X52739Y-37590D01*
X52748Y-37571D01*
X52757Y-37534D01*
X52757Y-37421D01*
X52748Y-37384D01*
X52739Y-37365D01*
X52720Y-37346D01*
X52682Y-37346D01*
X52664Y-37365D01*
X52420Y-37609D02*
X52420Y-37215D01*
X52204Y-37346D02*
X52129Y-37346D01*
X52176Y-37609D02*
X52176Y-37271D01*
X52166Y-37234D01*
X52148Y-37215D01*
X52129Y-37215D01*
X52035Y-37609D02*
X52054Y-37590D01*
X52063Y-37571D01*
X52073Y-37534D01*
X52073Y-37421D01*
X52063Y-37384D01*
X52054Y-37365D01*
X52035Y-37346D01*
X52007Y-37346D01*
X51988Y-37365D01*
X51979Y-37384D01*
X51969Y-37421D01*
X51969Y-37534D01*
X51979Y-37571D01*
X51988Y-37590D01*
X52007Y-37609D01*
X52035Y-37609D01*
X51885Y-37609D02*
X51885Y-37346D01*
X51885Y-37421D02*
X51876Y-37384D01*
X51866Y-37365D01*
X51847Y-37346D01*
X51829Y-37346D01*
X51679Y-37346D02*
X51679Y-37665D01*
X51688Y-37703D01*
X51697Y-37722D01*
X51716Y-37740D01*
X51744Y-37740D01*
X51763Y-37722D01*
X51679Y-37590D02*
X51697Y-37609D01*
X51735Y-37609D01*
X51754Y-37590D01*
X51763Y-37571D01*
X51772Y-37534D01*
X51772Y-37421D01*
X51763Y-37384D01*
X51754Y-37365D01*
X51735Y-37346D01*
X51697Y-37346D01*
X51679Y-37365D01*
X51510Y-37590D02*
X51528Y-37609D01*
X51566Y-37609D01*
X51585Y-37590D01*
X51594Y-37553D01*
X51594Y-37403D01*
X51585Y-37365D01*
X51566Y-37346D01*
X51528Y-37346D01*
X51510Y-37365D01*
X51500Y-37403D01*
X51500Y-37440D01*
X51594Y-37478D01*
X51444Y-37346D02*
X51369Y-37346D01*
X51416Y-37215D02*
X51416Y-37553D01*
X51407Y-37590D01*
X51388Y-37609D01*
X51369Y-37609D01*
X51303Y-37571D02*
X51294Y-37590D01*
X51303Y-37609D01*
X51313Y-37590D01*
X51303Y-37571D01*
X51303Y-37609D01*
X54162Y-38209D02*
X54162Y-37815D01*
X53927Y-38190D02*
X53908Y-38209D01*
X53871Y-38209D01*
X53852Y-38190D01*
X53843Y-38153D01*
X53843Y-38134D01*
X53852Y-38096D01*
X53871Y-38078D01*
X53899Y-38078D01*
X53918Y-38059D01*
X53927Y-38021D01*
X53927Y-38003D01*
X53918Y-37965D01*
X53899Y-37946D01*
X53871Y-37946D01*
X53852Y-37965D01*
X53683Y-38190D02*
X53702Y-38209D01*
X53739Y-38209D01*
X53758Y-38190D01*
X53768Y-38153D01*
X53768Y-38003D01*
X53758Y-37965D01*
X53739Y-37946D01*
X53702Y-37946D01*
X53683Y-37965D01*
X53674Y-38003D01*
X53674Y-38040D01*
X53768Y-38078D01*
X53514Y-38190D02*
X53533Y-38209D01*
X53571Y-38209D01*
X53589Y-38190D01*
X53599Y-38153D01*
X53599Y-38003D01*
X53589Y-37965D01*
X53571Y-37946D01*
X53533Y-37946D01*
X53514Y-37965D01*
X53505Y-38003D01*
X53505Y-38040D01*
X53599Y-38078D01*
X53186Y-38209D02*
X53186Y-38003D01*
X53195Y-37965D01*
X53214Y-37946D01*
X53252Y-37946D01*
X53270Y-37965D01*
X53186Y-38190D02*
X53205Y-38209D01*
X53252Y-38209D01*
X53270Y-38190D01*
X53280Y-38153D01*
X53280Y-38115D01*
X53270Y-38078D01*
X53252Y-38059D01*
X53205Y-38059D01*
X53186Y-38040D01*
X53092Y-37946D02*
X53092Y-38209D01*
X53092Y-37984D02*
X53083Y-37965D01*
X53064Y-37946D01*
X53036Y-37946D01*
X53017Y-37965D01*
X53008Y-38003D01*
X53008Y-38209D01*
X52829Y-38209D02*
X52829Y-37815D01*
X52829Y-38190D02*
X52848Y-38209D01*
X52886Y-38209D01*
X52904Y-38190D01*
X52914Y-38171D01*
X52923Y-38134D01*
X52923Y-38021D01*
X52914Y-37984D01*
X52904Y-37965D01*
X52886Y-37946D01*
X52848Y-37946D01*
X52829Y-37965D01*
X52586Y-38209D02*
X52586Y-37815D01*
X52342Y-38209D02*
X52342Y-37946D01*
X52342Y-38021D02*
X52332Y-37984D01*
X52323Y-37965D01*
X52304Y-37946D01*
X52285Y-37946D01*
X52145Y-38190D02*
X52163Y-38209D01*
X52201Y-38209D01*
X52220Y-38190D01*
X52229Y-38153D01*
X52229Y-38003D01*
X52220Y-37965D01*
X52201Y-37946D01*
X52163Y-37946D01*
X52145Y-37965D01*
X52135Y-38003D01*
X52135Y-38040D01*
X52229Y-38078D01*
X52051Y-38209D02*
X52051Y-37946D01*
X52051Y-37984D02*
X52041Y-37965D01*
X52023Y-37946D01*
X51995Y-37946D01*
X51976Y-37965D01*
X51966Y-38003D01*
X51966Y-38209D01*
X51966Y-38003D02*
X51957Y-37965D01*
X51938Y-37946D01*
X51910Y-37946D01*
X51891Y-37965D01*
X51882Y-38003D01*
X51882Y-38209D01*
X51713Y-38190D02*
X51732Y-38209D01*
X51769Y-38209D01*
X51788Y-38190D01*
X51798Y-38153D01*
X51798Y-38003D01*
X51788Y-37965D01*
X51769Y-37946D01*
X51732Y-37946D01*
X51713Y-37965D01*
X51704Y-38003D01*
X51704Y-38040D01*
X51798Y-38078D01*
X51619Y-38209D02*
X51619Y-37946D01*
X51619Y-37984D02*
X51610Y-37965D01*
X51591Y-37946D01*
X51563Y-37946D01*
X51544Y-37965D01*
X51535Y-38003D01*
X51535Y-38209D01*
X51535Y-38003D02*
X51525Y-37965D01*
X51507Y-37946D01*
X51479Y-37946D01*
X51460Y-37965D01*
X51450Y-38003D01*
X51450Y-38209D01*
X51357Y-38209D02*
X51357Y-37815D01*
X51357Y-37965D02*
X51338Y-37946D01*
X51300Y-37946D01*
X51282Y-37965D01*
X51272Y-37984D01*
X51263Y-38021D01*
X51263Y-38134D01*
X51272Y-38171D01*
X51282Y-38190D01*
X51300Y-38209D01*
X51338Y-38209D01*
X51357Y-38190D01*
X51103Y-38190D02*
X51122Y-38209D01*
X51160Y-38209D01*
X51178Y-38190D01*
X51188Y-38153D01*
X51188Y-38003D01*
X51178Y-37965D01*
X51160Y-37946D01*
X51122Y-37946D01*
X51103Y-37965D01*
X51094Y-38003D01*
X51094Y-38040D01*
X51188Y-38078D01*
X51010Y-38209D02*
X51010Y-37946D01*
X51010Y-38021D02*
X51000Y-37984D01*
X50991Y-37965D01*
X50972Y-37946D01*
X50953Y-37946D01*
X50888Y-38171D02*
X50878Y-38190D01*
X50888Y-38209D01*
X50897Y-38190D01*
X50888Y-38171D01*
X50888Y-38209D01*
G54D12*
X67250Y-28250D02*
X49750Y-28250D01*
X68250Y-46750D02*
X68250Y-29250D01*
X68250Y-29250D02*
G75*
G03X67250Y-28250I-1000J0D01*
G74*
G01*
X50000Y-47750D02*
X67250Y-47750D01*
X48750Y-46500D02*
X48750Y-29250D01*
X48750Y-46500D02*
G75*
G03X50000Y-47750I1250J0D01*
G74*
G01*
X67250Y-47750D02*
G75*
G03X68250Y-46750I0J1000D01*
G74*
G01*
X49750Y-28250D02*
G75*
G03X48750Y-29250I0J-1000D01*
G74*
G01*
G54D13*
X63671Y-38721D02*
X63671Y-39050D01*
X63671Y-39778D02*
X63671Y-39450D01*
X64328Y-39778D02*
X63671Y-39778D01*
X64328Y-38721D02*
X63671Y-38721D01*
X64328Y-39778D02*
X64328Y-39450D01*
X64328Y-38721D02*
X64328Y-39050D01*
G54D12*
X62314Y-34048D02*
G75*
G03X62314Y-34048I-146J0D01*
G74*
G01*
G54D14*
X63803Y-34400D02*
X63803Y-30600D01*
X63803Y-30600D02*
X61796Y-30600D01*
X61796Y-30600D02*
X61796Y-34400D01*
X61796Y-34400D02*
X63803Y-34400D01*
X63000Y-34400D02*
X63000Y-34100D01*
X63000Y-34100D02*
X62600Y-34100D01*
X62600Y-34100D02*
X62600Y-34400D01*
X54052Y-32941D02*
G75*
G03X54052Y-32941I-111J0D01*
G74*
G01*
X52376Y-32828D02*
X52376Y-32631D01*
X52376Y-32631D02*
X54423Y-32631D01*
X54423Y-32631D02*
X54423Y-32828D01*
X53557Y-32788D02*
X53243Y-32788D01*
X53243Y-32749D02*
X53557Y-32749D01*
X53557Y-32709D02*
X53557Y-32828D01*
X53557Y-32828D02*
X53243Y-32828D01*
X53243Y-32828D02*
X53243Y-32709D01*
X52376Y-32709D02*
X52376Y-32828D01*
X52376Y-32709D02*
X54423Y-32709D01*
X54423Y-32709D02*
X54423Y-32828D01*
X52376Y-33891D02*
X54423Y-33891D01*
X54423Y-33891D02*
X54423Y-33772D01*
X52376Y-33891D02*
X52376Y-33772D01*
G54D15*
G36*
X56066Y-36930D02*
X56066Y-37051D01*
X56066Y-37178D01*
X56066Y-37316D01*
X56066Y-37336D01*
X56066Y-38828D01*
X56311Y-38828D01*
X56556Y-38828D01*
X56556Y-37537D01*
X56556Y-36246D01*
X57848Y-36246D01*
X59139Y-36246D01*
X59139Y-37537D01*
X59139Y-38828D01*
X57849Y-38828D01*
X56560Y-38828D01*
X56560Y-39096D01*
X56560Y-39362D01*
X58047Y-39362D01*
X58183Y-39362D01*
X58311Y-39362D01*
X58431Y-39362D01*
X58543Y-39362D01*
X58646Y-39362D01*
X58742Y-39362D01*
X58831Y-39362D01*
X58914Y-39362D01*
X58989Y-39362D01*
X59059Y-39362D01*
X59121Y-39362D01*
X59179Y-39362D01*
X59232Y-39361D01*
X59277Y-39361D01*
X59319Y-39361D01*
X59356Y-39361D01*
X59390Y-39361D01*
X59419Y-39360D01*
X59444Y-39360D01*
X59464Y-39360D01*
X59484Y-39360D01*
X59499Y-39358D01*
X59512Y-39358D01*
X59522Y-39357D01*
X59532Y-39357D01*
X59538Y-39357D01*
X59544Y-39356D01*
X59547Y-39355D01*
X59551Y-39355D01*
X59553Y-39354D01*
X59556Y-39354D01*
X59556Y-39352D01*
X59582Y-39339D01*
X59606Y-39319D01*
X59626Y-39296D01*
X59640Y-39271D01*
X59642Y-39264D01*
X59642Y-39258D01*
X59643Y-39243D01*
X59643Y-39220D01*
X59643Y-39189D01*
X59644Y-39150D01*
X59644Y-39102D01*
X59644Y-39046D01*
X59644Y-38983D01*
X59644Y-38913D01*
X59646Y-38835D01*
X59646Y-38750D01*
X59646Y-38658D01*
X59646Y-38559D01*
X59646Y-38454D01*
X59646Y-38342D01*
X59647Y-38224D01*
X59647Y-38100D01*
X59647Y-37970D01*
X59647Y-37834D01*
X59647Y-37693D01*
X59647Y-37546D01*
X59647Y-37544D01*
X59647Y-37398D01*
X59647Y-37260D01*
X59647Y-37130D01*
X59647Y-37009D01*
X59647Y-36895D01*
X59647Y-36789D01*
X59647Y-36691D01*
X59647Y-36598D01*
X59647Y-36514D01*
X59647Y-36435D01*
X59647Y-36363D01*
X59646Y-36297D01*
X59646Y-36237D01*
X59646Y-36182D01*
X59646Y-36132D01*
X59646Y-36087D01*
X59646Y-36048D01*
X59646Y-36012D01*
X59644Y-35980D01*
X59644Y-35952D01*
X59644Y-35928D01*
X59644Y-35907D01*
X59643Y-35889D01*
X59643Y-35874D01*
X59643Y-35862D01*
X59642Y-35851D01*
X59642Y-35842D01*
X59642Y-35836D01*
X59641Y-35832D01*
X59640Y-35827D01*
X59640Y-35824D01*
X59638Y-35822D01*
X59638Y-35821D01*
X59638Y-35820D01*
X59625Y-35798D01*
X59606Y-35775D01*
X59583Y-35757D01*
X59569Y-35748D01*
X59546Y-35736D01*
X57856Y-35736D01*
X56167Y-35736D01*
X56144Y-35748D01*
X56128Y-35757D01*
X56112Y-35772D01*
X56101Y-35782D01*
X56097Y-35785D01*
X56095Y-35787D01*
X56092Y-35790D01*
X56090Y-35792D01*
X56088Y-35793D01*
X56085Y-35796D01*
X56083Y-35799D01*
X56080Y-35803D01*
X56079Y-35809D01*
X56078Y-35816D01*
X56076Y-35824D01*
X56074Y-35835D01*
X56073Y-35848D01*
X56072Y-35865D01*
X56071Y-35884D01*
X56071Y-35906D01*
X56070Y-35931D01*
X56070Y-35961D01*
X56068Y-35995D01*
X56068Y-36032D01*
X56068Y-36075D01*
X56067Y-36122D01*
X56067Y-36175D01*
X56067Y-36234D01*
X56066Y-36297D01*
X56066Y-36367D01*
X56066Y-36444D01*
X56066Y-36526D01*
X56066Y-36616D01*
X56066Y-36714D01*
X56066Y-36818D01*
X56066Y-36930D01*
X56066Y-36930D01*
X56066Y-36930D01*
G37*
G36*
X57661Y-37488D02*
X57908Y-37488D01*
X58155Y-37488D01*
X58156Y-37874D01*
X58156Y-38260D01*
X58304Y-38260D01*
X58341Y-38260D01*
X58376Y-38260D01*
X58408Y-38260D01*
X58437Y-38260D01*
X58459Y-38259D01*
X58474Y-38258D01*
X58480Y-38258D01*
X58514Y-38251D01*
X58544Y-38235D01*
X58570Y-38212D01*
X58591Y-38181D01*
X58593Y-38175D01*
X58606Y-38149D01*
X58605Y-37533D01*
X58605Y-36916D01*
X58594Y-36894D01*
X58579Y-36867D01*
X58557Y-36844D01*
X58533Y-36826D01*
X58525Y-36823D01*
X58521Y-36820D01*
X58518Y-36820D01*
X58514Y-36818D01*
X58508Y-36818D01*
X58501Y-36817D01*
X58490Y-36816D01*
X58478Y-36816D01*
X58461Y-36814D01*
X58442Y-36813D01*
X58417Y-36813D01*
X58387Y-36813D01*
X58351Y-36813D01*
X58310Y-36813D01*
X58261Y-36813D01*
X58206Y-36812D01*
X58142Y-36812D01*
X58082Y-36812D01*
X57661Y-36811D01*
X57661Y-37149D01*
X57661Y-37488D01*
X57661Y-37488D01*
X57661Y-37488D01*
G37*
G36*
X57097Y-38154D02*
X57108Y-38174D01*
X57127Y-38205D01*
X57152Y-38229D01*
X57178Y-38246D01*
X57208Y-38260D01*
X57631Y-38262D01*
X58052Y-38263D01*
X58052Y-37915D01*
X58052Y-37568D01*
X57806Y-37567D01*
X57560Y-37566D01*
X57559Y-37188D01*
X57558Y-36811D01*
X57376Y-36812D01*
X57195Y-36813D01*
X57171Y-36826D01*
X57142Y-36847D01*
X57118Y-36876D01*
X57108Y-36895D01*
X57097Y-36915D01*
X57097Y-37534D01*
X57097Y-38154D01*
X57097Y-38154D01*
X57097Y-38154D01*
G37*
G54D14*
X64401Y-45385D02*
G75*
G03X64401Y-45385I-115J0D01*
G74*
G01*
X65344Y-45699D02*
X65344Y-45522D01*
X65344Y-45522D02*
X64556Y-45522D01*
X64556Y-45522D02*
X64556Y-45699D01*
X63945Y-41801D02*
X63945Y-45699D01*
X65954Y-45699D02*
X65954Y-41801D01*
X65954Y-45699D02*
X63945Y-45699D01*
X65954Y-41801D02*
X63945Y-41801D01*
G54D13*
X54514Y-35496D02*
X54986Y-35496D01*
X54238Y-36204D02*
X54632Y-36204D01*
X55262Y-36204D02*
X54868Y-36204D01*
X54159Y-36204D02*
X54238Y-36204D01*
X54159Y-36204D02*
X54159Y-35496D01*
X54159Y-35496D02*
X54238Y-35496D01*
X55341Y-35496D02*
X55262Y-35496D01*
X55341Y-36204D02*
X55262Y-36204D01*
X55341Y-35496D02*
X55341Y-36204D01*
G54D14*
X51509Y-31050D02*
X51154Y-31050D01*
X50091Y-31050D02*
X50446Y-31050D01*
X51509Y-29554D02*
X51469Y-29554D01*
X50091Y-29554D02*
X50131Y-29554D01*
X50682Y-29554D02*
X50918Y-29554D01*
X51509Y-31050D02*
X51509Y-29554D01*
X50091Y-31050D02*
X50091Y-29554D01*
X67209Y-31000D02*
X66854Y-31000D01*
X65791Y-31000D02*
X66146Y-31000D01*
X67209Y-29504D02*
X67169Y-29504D01*
X65791Y-29504D02*
X65831Y-29504D01*
X66382Y-29504D02*
X66618Y-29504D01*
X67209Y-31000D02*
X67209Y-29504D01*
X65791Y-31000D02*
X65791Y-29504D01*
G54D16*
X54547Y-30283D02*
X54547Y-30126D01*
X54547Y-29417D02*
X54547Y-29574D01*
X54173Y-29417D02*
X54173Y-30283D01*
X54213Y-30244D02*
X54528Y-30244D01*
X54528Y-30165D02*
X54213Y-30165D01*
X54213Y-30204D02*
X54528Y-30204D01*
X54528Y-30126D02*
X54213Y-30126D01*
X54528Y-29574D02*
X54213Y-29574D01*
X54213Y-29535D02*
X54528Y-29535D01*
X54528Y-29496D02*
X54213Y-29496D01*
X54213Y-29456D02*
X54528Y-29456D01*
X54213Y-29417D02*
X54213Y-30283D01*
X54391Y-30283D02*
X54391Y-30126D01*
X54391Y-29417D02*
X54391Y-29574D01*
X53090Y-29417D02*
X53090Y-29574D01*
X53090Y-30283D02*
X53090Y-30126D01*
X54528Y-30283D02*
X53091Y-30283D01*
X54528Y-29417D02*
X53091Y-29417D01*
X53052Y-31017D02*
X53052Y-31174D01*
X53052Y-31883D02*
X53052Y-31726D01*
X53426Y-31883D02*
X53426Y-31017D01*
X53386Y-31056D02*
X53071Y-31056D01*
X53071Y-31135D02*
X53386Y-31135D01*
X53386Y-31096D02*
X53071Y-31096D01*
X53071Y-31174D02*
X53386Y-31174D01*
X53071Y-31726D02*
X53386Y-31726D01*
X53386Y-31765D02*
X53071Y-31765D01*
X53071Y-31804D02*
X53386Y-31804D01*
X53386Y-31844D02*
X53071Y-31844D01*
X53386Y-31883D02*
X53386Y-31017D01*
X53209Y-31017D02*
X53209Y-31174D01*
X53209Y-31883D02*
X53209Y-31726D01*
X54509Y-31883D02*
X54509Y-31726D01*
X54509Y-31017D02*
X54509Y-31174D01*
X53071Y-31017D02*
X54508Y-31017D01*
X53071Y-31883D02*
X54508Y-31883D01*
G54D14*
X52631Y-45199D02*
X52631Y-44215D01*
X52631Y-45199D02*
X52513Y-45199D01*
X52631Y-42601D02*
X52631Y-43585D01*
X52631Y-42601D02*
X52513Y-42601D01*
X50269Y-42601D02*
X50269Y-43585D01*
X50269Y-42601D02*
X50387Y-42601D01*
X50269Y-45199D02*
X50269Y-44215D01*
X50269Y-45199D02*
X50387Y-45199D01*
X51906Y-43900D02*
G75*
G03X51906Y-43900I-456J0D01*
G74*
G01*
G54D17*
X54850Y-42378D02*
X55307Y-42378D01*
X55309Y-42374D02*
X55309Y-41621D01*
X55307Y-41621D02*
X54850Y-41621D01*
X54450Y-41621D02*
X53992Y-41621D01*
X53990Y-41621D02*
X53990Y-42374D01*
X53992Y-42378D02*
X54450Y-42378D01*
X54850Y-43628D02*
X55307Y-43628D01*
X55309Y-43624D02*
X55309Y-42871D01*
X55307Y-42871D02*
X54850Y-42871D01*
X54450Y-42871D02*
X53992Y-42871D01*
X53990Y-42871D02*
X53990Y-43624D01*
X53992Y-43628D02*
X54450Y-43628D01*
X54850Y-44878D02*
X55307Y-44878D01*
X55309Y-44874D02*
X55309Y-44121D01*
X55307Y-44121D02*
X54850Y-44121D01*
X54450Y-44121D02*
X53992Y-44121D01*
X53990Y-44121D02*
X53990Y-44874D01*
X53992Y-44878D02*
X54450Y-44878D01*
X54850Y-46128D02*
X55307Y-46128D01*
X55309Y-46124D02*
X55309Y-45371D01*
X55307Y-45371D02*
X54850Y-45371D01*
X54450Y-45371D02*
X53992Y-45371D01*
X53990Y-45371D02*
X53990Y-46124D01*
X53992Y-46128D02*
X54450Y-46128D01*
X58728Y-42374D02*
X58728Y-41621D01*
X58768Y-42374D02*
X58768Y-41621D01*
X58787Y-42374D02*
X58787Y-41621D01*
X58250Y-42378D02*
X58786Y-42378D01*
X58709Y-42374D02*
X58709Y-41621D01*
X58786Y-41621D02*
X58250Y-41621D01*
X57850Y-41621D02*
X57392Y-41621D01*
X57390Y-41621D02*
X57390Y-42374D01*
X57392Y-42378D02*
X57850Y-42378D01*
X58728Y-43624D02*
X58728Y-42871D01*
X58768Y-43624D02*
X58768Y-42871D01*
X58787Y-43624D02*
X58787Y-42871D01*
X58250Y-43628D02*
X58786Y-43628D01*
X58709Y-43624D02*
X58709Y-42871D01*
X58786Y-42871D02*
X58250Y-42871D01*
X57850Y-42871D02*
X57392Y-42871D01*
X57390Y-42871D02*
X57390Y-43624D01*
X57392Y-43628D02*
X57850Y-43628D01*
X58728Y-44874D02*
X58728Y-44121D01*
X58768Y-44874D02*
X58768Y-44121D01*
X58787Y-44874D02*
X58787Y-44121D01*
X58250Y-44878D02*
X58786Y-44878D01*
X58709Y-44874D02*
X58709Y-44121D01*
X58786Y-44121D02*
X58250Y-44121D01*
X57850Y-44121D02*
X57392Y-44121D01*
X57390Y-44121D02*
X57390Y-44874D01*
X57392Y-44878D02*
X57850Y-44878D01*
X58728Y-46124D02*
X58728Y-45371D01*
X58768Y-46124D02*
X58768Y-45371D01*
X58787Y-46124D02*
X58787Y-45371D01*
X58250Y-46128D02*
X58786Y-46128D01*
X58709Y-46124D02*
X58709Y-45371D01*
X58786Y-45371D02*
X58250Y-45371D01*
X57850Y-45371D02*
X57392Y-45371D01*
X57390Y-45371D02*
X57390Y-46124D01*
X57392Y-46128D02*
X57850Y-46128D01*
X59171Y-34700D02*
X59171Y-35157D01*
X59175Y-35159D02*
X59928Y-35159D01*
X59928Y-35157D02*
X59928Y-34700D01*
X59928Y-34300D02*
X59928Y-33842D01*
X59928Y-33840D02*
X59175Y-33840D01*
X59171Y-33842D02*
X59171Y-34300D01*
X52650Y-36021D02*
X52192Y-36021D01*
X52190Y-36025D02*
X52190Y-36778D01*
X52192Y-36778D02*
X52650Y-36778D01*
X53050Y-36778D02*
X53507Y-36778D01*
X53509Y-36778D02*
X53509Y-36025D01*
X53507Y-36021D02*
X53050Y-36021D01*
X53528Y-35474D02*
X53528Y-34721D01*
X53568Y-35474D02*
X53568Y-34721D01*
X53587Y-35474D02*
X53587Y-34721D01*
X53050Y-35478D02*
X53586Y-35478D01*
X53509Y-35474D02*
X53509Y-34721D01*
X53586Y-34721D02*
X53050Y-34721D01*
X52650Y-34721D02*
X52192Y-34721D01*
X52190Y-34721D02*
X52190Y-35474D01*
X52192Y-35478D02*
X52650Y-35478D01*
X65760Y-32210D02*
X66739Y-32210D01*
X66739Y-32210D02*
X66739Y-32880D01*
X65760Y-33600D02*
X65760Y-34289D01*
X65760Y-34289D02*
X66739Y-34289D01*
X66739Y-34289D02*
X66739Y-33600D01*
X65760Y-32900D02*
X65760Y-32210D01*
X60039Y-33039D02*
X59060Y-33039D01*
X59060Y-33039D02*
X59060Y-32369D01*
X60039Y-31650D02*
X60039Y-30960D01*
X60039Y-30960D02*
X59060Y-30960D01*
X59060Y-30960D02*
X59060Y-31650D01*
X60039Y-32350D02*
X60039Y-33039D01*
X56889Y-34289D02*
X55910Y-34289D01*
X55910Y-34289D02*
X55910Y-33619D01*
X56889Y-32900D02*
X56889Y-32210D01*
X56889Y-32210D02*
X55910Y-32210D01*
X55910Y-32210D02*
X55910Y-32900D01*
X56889Y-33600D02*
X56889Y-34289D01*
X50360Y-34671D02*
X51339Y-34671D01*
X50360Y-34631D02*
X51339Y-34631D01*
X50360Y-34592D02*
X51339Y-34592D01*
X50360Y-34710D02*
X51339Y-34710D01*
X51339Y-34592D02*
X51339Y-35380D01*
X50360Y-36100D02*
X50360Y-36789D01*
X50360Y-36789D02*
X51339Y-36789D01*
X51339Y-36789D02*
X51339Y-36100D01*
X50360Y-35400D02*
X50360Y-34592D01*
G54D13*
X50921Y-46828D02*
X51250Y-46828D01*
X51978Y-46828D02*
X51650Y-46828D01*
X51978Y-46171D02*
X51978Y-46828D01*
X50921Y-46171D02*
X50921Y-46828D01*
X51978Y-46171D02*
X51650Y-46171D01*
X50921Y-46171D02*
X51250Y-46171D01*
X64421Y-46828D02*
X64750Y-46828D01*
X65478Y-46828D02*
X65150Y-46828D01*
X65478Y-46171D02*
X65478Y-46828D01*
X64421Y-46171D02*
X64421Y-46828D01*
X65478Y-46171D02*
X65150Y-46171D01*
X64421Y-46171D02*
X64750Y-46171D01*
X51328Y-31871D02*
X51000Y-31871D01*
X50271Y-31871D02*
X50600Y-31871D01*
X50271Y-32528D02*
X50271Y-31871D01*
X51328Y-32528D02*
X51328Y-31871D01*
X50271Y-32528D02*
X50600Y-32528D01*
X51328Y-32528D02*
X51000Y-32528D01*
X63428Y-29521D02*
X63100Y-29521D01*
X62371Y-29521D02*
X62700Y-29521D01*
X62371Y-30178D02*
X62371Y-29521D01*
X63428Y-30178D02*
X63428Y-29521D01*
X62371Y-30178D02*
X62700Y-30178D01*
X63428Y-30178D02*
X63100Y-30178D01*
X67078Y-37278D02*
X67078Y-36950D01*
X67078Y-36221D02*
X67078Y-36550D01*
X66421Y-36221D02*
X67078Y-36221D01*
X66421Y-37278D02*
X67078Y-37278D01*
X66421Y-36221D02*
X66421Y-36550D01*
X66421Y-37278D02*
X66421Y-36950D01*
X64921Y-38721D02*
X64921Y-39050D01*
X64921Y-39778D02*
X64921Y-39450D01*
X65578Y-39778D02*
X64921Y-39778D01*
X65578Y-38721D02*
X64921Y-38721D01*
X65578Y-39778D02*
X65578Y-39450D01*
X65578Y-38721D02*
X65578Y-39050D01*
X62421Y-38721D02*
X62421Y-39050D01*
X62421Y-39778D02*
X62421Y-39450D01*
X63078Y-39778D02*
X62421Y-39778D01*
X63078Y-38721D02*
X62421Y-38721D01*
X63078Y-39778D02*
X63078Y-39450D01*
X63078Y-38721D02*
X63078Y-39050D01*
X61171Y-38721D02*
X61171Y-39050D01*
X61171Y-39778D02*
X61171Y-39450D01*
X61828Y-39778D02*
X61171Y-39778D01*
X61828Y-38721D02*
X61171Y-38721D01*
X61828Y-39778D02*
X61828Y-39450D01*
X61828Y-38721D02*
X61828Y-39050D01*
X64921Y-36142D02*
X65578Y-36142D01*
X64921Y-36181D02*
X65578Y-36181D01*
X65578Y-37278D02*
X65578Y-36950D01*
X65578Y-36142D02*
X65578Y-36550D01*
X64921Y-36221D02*
X65578Y-36221D01*
X64921Y-37278D02*
X65578Y-37278D01*
X64921Y-36142D02*
X64921Y-36550D01*
X64921Y-37278D02*
X64921Y-36950D01*
X63671Y-36142D02*
X64328Y-36142D01*
X63671Y-36181D02*
X64328Y-36181D01*
X64328Y-37278D02*
X64328Y-36950D01*
X64328Y-36142D02*
X64328Y-36550D01*
X63671Y-36221D02*
X64328Y-36221D01*
X63671Y-37278D02*
X64328Y-37278D01*
X63671Y-36142D02*
X63671Y-36550D01*
X63671Y-37278D02*
X63671Y-36950D01*
X62421Y-36142D02*
X63078Y-36142D01*
X62421Y-36181D02*
X63078Y-36181D01*
X63078Y-37278D02*
X63078Y-36950D01*
X63078Y-36142D02*
X63078Y-36550D01*
X62421Y-36221D02*
X63078Y-36221D01*
X62421Y-37278D02*
X63078Y-37278D01*
X62421Y-36142D02*
X62421Y-36550D01*
X62421Y-37278D02*
X62421Y-36950D01*
X61171Y-36142D02*
X61828Y-36142D01*
X61171Y-36181D02*
X61828Y-36181D01*
X61828Y-37278D02*
X61828Y-36950D01*
X61828Y-36142D02*
X61828Y-36550D01*
X61171Y-36221D02*
X61828Y-36221D01*
X61171Y-37278D02*
X61828Y-37278D01*
X61171Y-36142D02*
X61171Y-36550D01*
X61171Y-37278D02*
X61171Y-36950D01*
G54D17*
X63545Y-38548D02*
X63433Y-38469D01*
X63545Y-38413D02*
X63309Y-38413D01*
X63309Y-38503D01*
X63320Y-38525D01*
X63331Y-38536D01*
X63354Y-38548D01*
X63388Y-38548D01*
X63410Y-38536D01*
X63421Y-38525D01*
X63433Y-38503D01*
X63433Y-38413D01*
X63331Y-38638D02*
X63320Y-38649D01*
X63309Y-38671D01*
X63309Y-38728D01*
X63320Y-38750D01*
X63331Y-38761D01*
X63354Y-38773D01*
X63376Y-38773D01*
X63410Y-38761D01*
X63545Y-38626D01*
X63545Y-38773D01*
X63545Y-38998D02*
X63545Y-38863D01*
X63545Y-38930D02*
X63309Y-38930D01*
X63343Y-38908D01*
X63365Y-38885D01*
X63376Y-38863D01*
X63545Y-39374D02*
X63545Y-39239D01*
X63545Y-39306D02*
X63309Y-39306D01*
X63343Y-39284D01*
X63365Y-39261D01*
X63376Y-39239D01*
X63309Y-39588D02*
X63309Y-39475D01*
X63421Y-39464D01*
X63410Y-39475D01*
X63399Y-39498D01*
X63399Y-39554D01*
X63410Y-39576D01*
X63421Y-39588D01*
X63444Y-39599D01*
X63500Y-39599D01*
X63523Y-39588D01*
X63534Y-39576D01*
X63545Y-39554D01*
X63545Y-39498D01*
X63534Y-39475D01*
X63523Y-39464D01*
X63309Y-39745D02*
X63309Y-39768D01*
X63320Y-39790D01*
X63331Y-39801D01*
X63354Y-39813D01*
X63399Y-39824D01*
X63455Y-39824D01*
X63500Y-39813D01*
X63523Y-39801D01*
X63534Y-39790D01*
X63545Y-39768D01*
X63545Y-39745D01*
X63534Y-39723D01*
X63523Y-39711D01*
X63500Y-39700D01*
X63455Y-39689D01*
X63399Y-39689D01*
X63354Y-39700D01*
X63331Y-39711D01*
X63320Y-39723D01*
X63309Y-39745D01*
X63545Y-40060D02*
X63433Y-39981D01*
X63545Y-39925D02*
X63309Y-39925D01*
X63309Y-40015D01*
X63320Y-40038D01*
X63331Y-40049D01*
X63354Y-40060D01*
X63388Y-40060D01*
X63410Y-40049D01*
X63421Y-40038D01*
X63433Y-40015D01*
X63433Y-39925D01*
X62561Y-32060D02*
X62161Y-32060D01*
X62523Y-32532D02*
X62542Y-32510D01*
X62561Y-32446D01*
X62561Y-32403D01*
X62542Y-32339D01*
X62504Y-32296D01*
X62466Y-32275D01*
X62390Y-32253D01*
X62333Y-32253D01*
X62257Y-32275D01*
X62219Y-32296D01*
X62180Y-32339D01*
X62161Y-32403D01*
X62161Y-32446D01*
X62180Y-32510D01*
X62200Y-32532D01*
X62200Y-32703D02*
X62180Y-32725D01*
X62161Y-32767D01*
X62161Y-32875D01*
X62180Y-32917D01*
X62200Y-32939D01*
X62238Y-32960D01*
X62276Y-32960D01*
X62333Y-32939D01*
X62561Y-32682D01*
X62561Y-32960D01*
X63261Y-31423D02*
X63261Y-31233D01*
X62861Y-31233D01*
X63261Y-31557D02*
X62861Y-31557D01*
X63147Y-31690D01*
X62861Y-31823D01*
X63261Y-31823D01*
X62900Y-31995D02*
X62880Y-32014D01*
X62861Y-32052D01*
X62861Y-32147D01*
X62880Y-32185D01*
X62900Y-32204D01*
X62938Y-32223D01*
X62976Y-32223D01*
X63033Y-32204D01*
X63261Y-31976D01*
X63261Y-32223D01*
X63261Y-32414D02*
X63261Y-32490D01*
X63242Y-32528D01*
X63223Y-32547D01*
X63166Y-32585D01*
X63090Y-32604D01*
X62938Y-32604D01*
X62900Y-32585D01*
X62880Y-32566D01*
X62861Y-32528D01*
X62861Y-32452D01*
X62880Y-32414D01*
X62900Y-32395D01*
X62938Y-32376D01*
X63033Y-32376D01*
X63071Y-32395D01*
X63090Y-32414D01*
X63109Y-32452D01*
X63109Y-32528D01*
X63090Y-32566D01*
X63071Y-32585D01*
X63033Y-32604D01*
X62861Y-32852D02*
X62861Y-32890D01*
X62880Y-32928D01*
X62900Y-32947D01*
X62938Y-32966D01*
X63014Y-32985D01*
X63109Y-32985D01*
X63185Y-32966D01*
X63223Y-32947D01*
X63242Y-32928D01*
X63261Y-32890D01*
X63261Y-32852D01*
X63242Y-32814D01*
X63223Y-32795D01*
X63185Y-32776D01*
X63109Y-32757D01*
X63014Y-32757D01*
X62938Y-32776D01*
X62900Y-32795D01*
X62880Y-32814D01*
X62861Y-32852D01*
X62900Y-33138D02*
X62880Y-33157D01*
X62861Y-33195D01*
X62861Y-33290D01*
X62880Y-33328D01*
X62900Y-33347D01*
X62938Y-33366D01*
X62976Y-33366D01*
X63033Y-33347D01*
X63261Y-33119D01*
X63261Y-33366D01*
X63261Y-33538D02*
X62861Y-33538D01*
X63261Y-33766D01*
X62861Y-33766D01*
X53045Y-33080D02*
X53045Y-32880D01*
X52835Y-33061D02*
X52845Y-33071D01*
X52873Y-33080D01*
X52892Y-33080D01*
X52921Y-33071D01*
X52940Y-33052D01*
X52950Y-33033D01*
X52959Y-32995D01*
X52959Y-32966D01*
X52950Y-32928D01*
X52940Y-32909D01*
X52921Y-32890D01*
X52892Y-32880D01*
X52873Y-32880D01*
X52845Y-32890D01*
X52835Y-32900D01*
X52769Y-32880D02*
X52645Y-32880D01*
X52711Y-32957D01*
X52683Y-32957D01*
X52664Y-32966D01*
X52654Y-32976D01*
X52645Y-32995D01*
X52645Y-33042D01*
X52654Y-33061D01*
X52664Y-33071D01*
X52683Y-33080D01*
X52740Y-33080D01*
X52759Y-33071D01*
X52769Y-33061D01*
X54292Y-34230D02*
X54388Y-34230D01*
X54388Y-34030D01*
X54226Y-34230D02*
X54226Y-34030D01*
X54159Y-34173D01*
X54092Y-34030D01*
X54092Y-34230D01*
X53902Y-34030D02*
X53997Y-34030D01*
X54007Y-34126D01*
X53997Y-34116D01*
X53978Y-34107D01*
X53930Y-34107D01*
X53911Y-34116D01*
X53902Y-34126D01*
X53892Y-34145D01*
X53892Y-34192D01*
X53902Y-34211D01*
X53911Y-34221D01*
X53930Y-34230D01*
X53978Y-34230D01*
X53997Y-34221D01*
X54007Y-34211D01*
X53711Y-34030D02*
X53807Y-34030D01*
X53816Y-34126D01*
X53807Y-34116D01*
X53788Y-34107D01*
X53740Y-34107D01*
X53721Y-34116D01*
X53711Y-34126D01*
X53702Y-34145D01*
X53702Y-34192D01*
X53711Y-34211D01*
X53721Y-34221D01*
X53740Y-34230D01*
X53788Y-34230D01*
X53807Y-34221D01*
X53816Y-34211D01*
X53521Y-34030D02*
X53616Y-34030D01*
X53626Y-34126D01*
X53616Y-34116D01*
X53597Y-34107D01*
X53549Y-34107D01*
X53530Y-34116D01*
X53521Y-34126D01*
X53511Y-34145D01*
X53511Y-34192D01*
X53521Y-34211D01*
X53530Y-34221D01*
X53549Y-34230D01*
X53597Y-34230D01*
X53616Y-34221D01*
X53626Y-34211D01*
X53426Y-34230D02*
X53426Y-34030D01*
X53311Y-34230D01*
X53311Y-34030D01*
X64711Y-43310D02*
X64311Y-43310D01*
X64673Y-43782D02*
X64692Y-43760D01*
X64711Y-43696D01*
X64711Y-43653D01*
X64692Y-43589D01*
X64654Y-43546D01*
X64616Y-43525D01*
X64540Y-43503D01*
X64483Y-43503D01*
X64407Y-43525D01*
X64369Y-43546D01*
X64330Y-43589D01*
X64311Y-43653D01*
X64311Y-43696D01*
X64330Y-43760D01*
X64350Y-43782D01*
X64711Y-44210D02*
X64711Y-43953D01*
X64711Y-44082D02*
X64311Y-44082D01*
X64369Y-44039D01*
X64407Y-43996D01*
X64426Y-43953D01*
X65523Y-42911D02*
X65542Y-42892D01*
X65561Y-42835D01*
X65561Y-42797D01*
X65542Y-42740D01*
X65504Y-42702D01*
X65466Y-42683D01*
X65390Y-42664D01*
X65333Y-42664D01*
X65257Y-42683D01*
X65219Y-42702D01*
X65180Y-42740D01*
X65161Y-42797D01*
X65161Y-42835D01*
X65180Y-42892D01*
X65200Y-42911D01*
X65561Y-43083D02*
X65161Y-43083D01*
X65161Y-43178D01*
X65180Y-43235D01*
X65219Y-43273D01*
X65257Y-43292D01*
X65333Y-43311D01*
X65390Y-43311D01*
X65466Y-43292D01*
X65504Y-43273D01*
X65542Y-43235D01*
X65561Y-43178D01*
X65561Y-43083D01*
X65295Y-43654D02*
X65561Y-43654D01*
X65142Y-43559D02*
X65428Y-43464D01*
X65428Y-43711D01*
X65161Y-44054D02*
X65161Y-43864D01*
X65352Y-43845D01*
X65333Y-43864D01*
X65314Y-43902D01*
X65314Y-43997D01*
X65333Y-44035D01*
X65352Y-44054D01*
X65390Y-44073D01*
X65485Y-44073D01*
X65523Y-44054D01*
X65542Y-44035D01*
X65561Y-43997D01*
X65561Y-43902D01*
X65542Y-43864D01*
X65523Y-43845D01*
X65200Y-44226D02*
X65180Y-44245D01*
X65161Y-44283D01*
X65161Y-44378D01*
X65180Y-44416D01*
X65200Y-44435D01*
X65238Y-44454D01*
X65276Y-44454D01*
X65333Y-44435D01*
X65561Y-44207D01*
X65561Y-44454D01*
X65161Y-44702D02*
X65161Y-44740D01*
X65180Y-44778D01*
X65200Y-44797D01*
X65238Y-44816D01*
X65314Y-44835D01*
X65409Y-44835D01*
X65485Y-44816D01*
X65523Y-44797D01*
X65542Y-44778D01*
X65561Y-44740D01*
X65561Y-44702D01*
X65542Y-44664D01*
X65523Y-44645D01*
X65485Y-44626D01*
X65409Y-44607D01*
X65314Y-44607D01*
X65238Y-44626D01*
X65200Y-44645D01*
X65180Y-44664D01*
X65161Y-44702D01*
X54772Y-35968D02*
X54794Y-35956D01*
X54817Y-35934D01*
X54851Y-35900D01*
X54873Y-35889D01*
X54896Y-35889D01*
X54884Y-35945D02*
X54907Y-35934D01*
X54929Y-35911D01*
X54941Y-35866D01*
X54941Y-35788D01*
X54929Y-35743D01*
X54907Y-35720D01*
X54884Y-35709D01*
X54839Y-35709D01*
X54817Y-35720D01*
X54794Y-35743D01*
X54783Y-35788D01*
X54783Y-35866D01*
X54794Y-35911D01*
X54817Y-35934D01*
X54839Y-35945D01*
X54884Y-35945D01*
X54581Y-35788D02*
X54581Y-35945D01*
X54637Y-35698D02*
X54693Y-35866D01*
X54547Y-35866D01*
X55188Y-34821D02*
X55154Y-34833D01*
X55143Y-34844D01*
X55132Y-34866D01*
X55132Y-34900D01*
X55143Y-34923D01*
X55154Y-34934D01*
X55177Y-34945D01*
X55267Y-34945D01*
X55267Y-34709D01*
X55188Y-34709D01*
X55166Y-34720D01*
X55154Y-34731D01*
X55143Y-34754D01*
X55143Y-34776D01*
X55154Y-34799D01*
X55166Y-34810D01*
X55188Y-34821D01*
X55267Y-34821D01*
X54896Y-34923D02*
X54907Y-34934D01*
X54941Y-34945D01*
X54963Y-34945D01*
X54997Y-34934D01*
X55019Y-34911D01*
X55031Y-34889D01*
X55042Y-34844D01*
X55042Y-34810D01*
X55031Y-34765D01*
X55019Y-34743D01*
X54997Y-34720D01*
X54963Y-34709D01*
X54941Y-34709D01*
X54907Y-34720D01*
X54896Y-34731D01*
X54761Y-34810D02*
X54783Y-34799D01*
X54794Y-34788D01*
X54806Y-34765D01*
X54806Y-34754D01*
X54794Y-34731D01*
X54783Y-34720D01*
X54761Y-34709D01*
X54716Y-34709D01*
X54693Y-34720D01*
X54682Y-34731D01*
X54671Y-34754D01*
X54671Y-34765D01*
X54682Y-34788D01*
X54693Y-34799D01*
X54716Y-34810D01*
X54761Y-34810D01*
X54783Y-34821D01*
X54794Y-34833D01*
X54806Y-34855D01*
X54806Y-34900D01*
X54794Y-34923D01*
X54783Y-34934D01*
X54761Y-34945D01*
X54716Y-34945D01*
X54693Y-34934D01*
X54682Y-34923D01*
X54671Y-34900D01*
X54671Y-34855D01*
X54682Y-34833D01*
X54693Y-34821D01*
X54716Y-34810D01*
X54468Y-34788D02*
X54468Y-34945D01*
X54525Y-34698D02*
X54581Y-34866D01*
X54435Y-34866D01*
X54367Y-34709D02*
X54210Y-34709D01*
X54311Y-34945D01*
X50940Y-29195D02*
X51019Y-29083D01*
X51075Y-29195D02*
X51075Y-28959D01*
X50985Y-28959D01*
X50963Y-28970D01*
X50951Y-28981D01*
X50940Y-29004D01*
X50940Y-29038D01*
X50951Y-29060D01*
X50963Y-29071D01*
X50985Y-29083D01*
X51075Y-29083D01*
X50873Y-28959D02*
X50794Y-29195D01*
X50715Y-28959D01*
X50648Y-28981D02*
X50636Y-28970D01*
X50614Y-28959D01*
X50558Y-28959D01*
X50535Y-28970D01*
X50524Y-28981D01*
X50513Y-29004D01*
X50513Y-29026D01*
X50524Y-29060D01*
X50659Y-29195D01*
X50513Y-29195D01*
X51075Y-30395D02*
X51210Y-30395D01*
X51143Y-30395D02*
X51143Y-30159D01*
X51165Y-30193D01*
X51188Y-30215D01*
X51210Y-30226D01*
X50929Y-30159D02*
X50906Y-30159D01*
X50884Y-30170D01*
X50873Y-30181D01*
X50861Y-30204D01*
X50850Y-30249D01*
X50850Y-30305D01*
X50861Y-30350D01*
X50873Y-30373D01*
X50884Y-30384D01*
X50906Y-30395D01*
X50929Y-30395D01*
X50951Y-30384D01*
X50963Y-30373D01*
X50974Y-30350D01*
X50985Y-30305D01*
X50985Y-30249D01*
X50974Y-30204D01*
X50963Y-30181D01*
X50951Y-30170D01*
X50929Y-30159D01*
X50704Y-30159D02*
X50681Y-30159D01*
X50659Y-30170D01*
X50648Y-30181D01*
X50636Y-30204D01*
X50625Y-30249D01*
X50625Y-30305D01*
X50636Y-30350D01*
X50648Y-30373D01*
X50659Y-30384D01*
X50681Y-30395D01*
X50704Y-30395D01*
X50726Y-30384D01*
X50738Y-30373D01*
X50749Y-30350D01*
X50760Y-30305D01*
X50760Y-30249D01*
X50749Y-30204D01*
X50738Y-30181D01*
X50726Y-30170D01*
X50704Y-30159D01*
X50524Y-30395D02*
X50524Y-30159D01*
X50389Y-30395D02*
X50490Y-30260D01*
X50389Y-30159D02*
X50524Y-30294D01*
X66640Y-29145D02*
X66719Y-29033D01*
X66775Y-29145D02*
X66775Y-28909D01*
X66685Y-28909D01*
X66663Y-28920D01*
X66651Y-28931D01*
X66640Y-28954D01*
X66640Y-28988D01*
X66651Y-29010D01*
X66663Y-29021D01*
X66685Y-29033D01*
X66775Y-29033D01*
X66573Y-28909D02*
X66494Y-29145D01*
X66415Y-28909D01*
X66213Y-29145D02*
X66348Y-29145D01*
X66280Y-29145D02*
X66280Y-28909D01*
X66303Y-28943D01*
X66325Y-28965D01*
X66348Y-28976D01*
X66775Y-30345D02*
X66910Y-30345D01*
X66843Y-30345D02*
X66843Y-30109D01*
X66865Y-30143D01*
X66888Y-30165D01*
X66910Y-30176D01*
X66629Y-30109D02*
X66606Y-30109D01*
X66584Y-30120D01*
X66573Y-30131D01*
X66561Y-30154D01*
X66550Y-30199D01*
X66550Y-30255D01*
X66561Y-30300D01*
X66573Y-30323D01*
X66584Y-30334D01*
X66606Y-30345D01*
X66629Y-30345D01*
X66651Y-30334D01*
X66663Y-30323D01*
X66674Y-30300D01*
X66685Y-30255D01*
X66685Y-30199D01*
X66674Y-30154D01*
X66663Y-30131D01*
X66651Y-30120D01*
X66629Y-30109D01*
X66404Y-30109D02*
X66381Y-30109D01*
X66359Y-30120D01*
X66348Y-30131D01*
X66336Y-30154D01*
X66325Y-30199D01*
X66325Y-30255D01*
X66336Y-30300D01*
X66348Y-30323D01*
X66359Y-30334D01*
X66381Y-30345D01*
X66404Y-30345D01*
X66426Y-30334D01*
X66438Y-30323D01*
X66449Y-30300D01*
X66460Y-30255D01*
X66460Y-30199D01*
X66449Y-30154D01*
X66438Y-30131D01*
X66426Y-30120D01*
X66404Y-30109D01*
X66224Y-30345D02*
X66224Y-30109D01*
X66089Y-30345D02*
X66190Y-30210D01*
X66089Y-30109D02*
X66224Y-30244D01*
X54836Y-30695D02*
X54836Y-30459D01*
X54780Y-30459D01*
X54746Y-30470D01*
X54724Y-30493D01*
X54713Y-30515D01*
X54701Y-30560D01*
X54701Y-30594D01*
X54713Y-30639D01*
X54724Y-30661D01*
X54746Y-30684D01*
X54780Y-30695D01*
X54836Y-30695D01*
X54476Y-30695D02*
X54611Y-30695D01*
X54544Y-30695D02*
X54544Y-30459D01*
X54566Y-30493D01*
X54589Y-30515D01*
X54611Y-30526D01*
X54398Y-30459D02*
X54251Y-30459D01*
X54330Y-30549D01*
X54296Y-30549D01*
X54274Y-30560D01*
X54263Y-30571D01*
X54251Y-30594D01*
X54251Y-30650D01*
X54263Y-30673D01*
X54274Y-30684D01*
X54296Y-30695D01*
X54364Y-30695D01*
X54386Y-30684D01*
X54398Y-30673D01*
X53856Y-30695D02*
X53991Y-30695D01*
X53923Y-30695D02*
X53923Y-30459D01*
X53946Y-30493D01*
X53968Y-30515D01*
X53991Y-30526D01*
X53754Y-30695D02*
X53754Y-30459D01*
X53619Y-30695D01*
X53619Y-30459D01*
X53406Y-30538D02*
X53406Y-30695D01*
X53462Y-30448D02*
X53518Y-30616D01*
X53372Y-30616D01*
X53158Y-30695D02*
X53293Y-30695D01*
X53226Y-30695D02*
X53226Y-30459D01*
X53248Y-30493D01*
X53271Y-30515D01*
X53293Y-30526D01*
X52956Y-30538D02*
X52956Y-30695D01*
X53012Y-30448D02*
X53068Y-30616D01*
X52922Y-30616D01*
X52798Y-30560D02*
X52821Y-30549D01*
X52832Y-30538D01*
X52843Y-30515D01*
X52843Y-30504D01*
X52832Y-30481D01*
X52821Y-30470D01*
X52798Y-30459D01*
X52753Y-30459D01*
X52731Y-30470D01*
X52720Y-30481D01*
X52708Y-30504D01*
X52708Y-30515D01*
X52720Y-30538D01*
X52731Y-30549D01*
X52753Y-30560D01*
X52798Y-30560D01*
X52821Y-30571D01*
X52832Y-30583D01*
X52843Y-30605D01*
X52843Y-30650D01*
X52832Y-30673D01*
X52821Y-30684D01*
X52798Y-30695D01*
X52753Y-30695D01*
X52731Y-30684D01*
X52720Y-30673D01*
X52708Y-30650D01*
X52708Y-30605D01*
X52720Y-30583D01*
X52731Y-30571D01*
X52753Y-30560D01*
X54836Y-32295D02*
X54836Y-32059D01*
X54780Y-32059D01*
X54746Y-32070D01*
X54724Y-32093D01*
X54713Y-32115D01*
X54701Y-32160D01*
X54701Y-32194D01*
X54713Y-32239D01*
X54724Y-32261D01*
X54746Y-32284D01*
X54780Y-32295D01*
X54836Y-32295D01*
X54476Y-32295D02*
X54611Y-32295D01*
X54544Y-32295D02*
X54544Y-32059D01*
X54566Y-32093D01*
X54589Y-32115D01*
X54611Y-32126D01*
X54274Y-32138D02*
X54274Y-32295D01*
X54330Y-32048D02*
X54386Y-32216D01*
X54240Y-32216D01*
X53856Y-32295D02*
X53991Y-32295D01*
X53923Y-32295D02*
X53923Y-32059D01*
X53946Y-32093D01*
X53968Y-32115D01*
X53991Y-32126D01*
X53754Y-32295D02*
X53754Y-32059D01*
X53619Y-32295D01*
X53619Y-32059D01*
X53406Y-32138D02*
X53406Y-32295D01*
X53462Y-32048D02*
X53518Y-32216D01*
X53372Y-32216D01*
X53158Y-32295D02*
X53293Y-32295D01*
X53226Y-32295D02*
X53226Y-32059D01*
X53248Y-32093D01*
X53271Y-32115D01*
X53293Y-32126D01*
X52956Y-32138D02*
X52956Y-32295D01*
X53012Y-32048D02*
X53068Y-32216D01*
X52922Y-32216D01*
X52798Y-32160D02*
X52821Y-32149D01*
X52832Y-32138D01*
X52843Y-32115D01*
X52843Y-32104D01*
X52832Y-32081D01*
X52821Y-32070D01*
X52798Y-32059D01*
X52753Y-32059D01*
X52731Y-32070D01*
X52720Y-32081D01*
X52708Y-32104D01*
X52708Y-32115D01*
X52720Y-32138D01*
X52731Y-32149D01*
X52753Y-32160D01*
X52798Y-32160D01*
X52821Y-32171D01*
X52832Y-32183D01*
X52843Y-32205D01*
X52843Y-32250D01*
X52832Y-32273D01*
X52821Y-32284D01*
X52798Y-32295D01*
X52753Y-32295D01*
X52731Y-32284D01*
X52720Y-32273D01*
X52708Y-32250D01*
X52708Y-32205D01*
X52720Y-32183D01*
X52731Y-32171D01*
X52753Y-32160D01*
X51716Y-43985D02*
X51688Y-43997D01*
X51640Y-43997D01*
X51621Y-43985D01*
X51611Y-43974D01*
X51602Y-43951D01*
X51602Y-43928D01*
X51611Y-43905D01*
X51621Y-43894D01*
X51640Y-43882D01*
X51678Y-43871D01*
X51697Y-43860D01*
X51707Y-43848D01*
X51716Y-43825D01*
X51716Y-43802D01*
X51707Y-43780D01*
X51697Y-43768D01*
X51678Y-43757D01*
X51630Y-43757D01*
X51602Y-43768D01*
X51535Y-43757D02*
X51488Y-43997D01*
X51449Y-43825D01*
X51411Y-43997D01*
X51364Y-43757D01*
X51202Y-43837D02*
X51202Y-43997D01*
X51250Y-43745D02*
X51297Y-43917D01*
X51173Y-43917D01*
G54D14*
G54D17*
X55251Y-42745D02*
X55330Y-42633D01*
X55386Y-42745D02*
X55386Y-42509D01*
X55296Y-42509D01*
X55274Y-42520D01*
X55263Y-42531D01*
X55251Y-42554D01*
X55251Y-42588D01*
X55263Y-42610D01*
X55274Y-42621D01*
X55296Y-42633D01*
X55386Y-42633D01*
X55026Y-42745D02*
X55161Y-42745D01*
X55094Y-42745D02*
X55094Y-42509D01*
X55116Y-42543D01*
X55139Y-42565D01*
X55161Y-42576D01*
X54880Y-42509D02*
X54858Y-42509D01*
X54835Y-42520D01*
X54824Y-42531D01*
X54813Y-42554D01*
X54801Y-42599D01*
X54801Y-42655D01*
X54813Y-42700D01*
X54824Y-42723D01*
X54835Y-42734D01*
X54858Y-42745D01*
X54880Y-42745D01*
X54903Y-42734D01*
X54914Y-42723D01*
X54925Y-42700D01*
X54936Y-42655D01*
X54936Y-42599D01*
X54925Y-42554D01*
X54914Y-42531D01*
X54903Y-42520D01*
X54880Y-42509D01*
X54475Y-42745D02*
X54610Y-42745D01*
X54543Y-42745D02*
X54543Y-42509D01*
X54565Y-42543D01*
X54588Y-42565D01*
X54610Y-42576D01*
X54261Y-42509D02*
X54374Y-42509D01*
X54385Y-42621D01*
X54374Y-42610D01*
X54351Y-42599D01*
X54295Y-42599D01*
X54273Y-42610D01*
X54261Y-42621D01*
X54250Y-42644D01*
X54250Y-42700D01*
X54261Y-42723D01*
X54273Y-42734D01*
X54295Y-42745D01*
X54351Y-42745D01*
X54374Y-42734D01*
X54385Y-42723D01*
X54104Y-42509D02*
X54081Y-42509D01*
X54059Y-42520D01*
X54048Y-42531D01*
X54036Y-42554D01*
X54025Y-42599D01*
X54025Y-42655D01*
X54036Y-42700D01*
X54048Y-42723D01*
X54059Y-42734D01*
X54081Y-42745D01*
X54104Y-42745D01*
X54126Y-42734D01*
X54138Y-42723D01*
X54149Y-42700D01*
X54160Y-42655D01*
X54160Y-42599D01*
X54149Y-42554D01*
X54138Y-42531D01*
X54126Y-42520D01*
X54104Y-42509D01*
X53789Y-42745D02*
X53868Y-42633D01*
X53924Y-42745D02*
X53924Y-42509D01*
X53834Y-42509D01*
X53811Y-42520D01*
X53800Y-42531D01*
X53789Y-42554D01*
X53789Y-42588D01*
X53800Y-42610D01*
X53811Y-42621D01*
X53834Y-42633D01*
X53924Y-42633D01*
X55251Y-43995D02*
X55330Y-43883D01*
X55386Y-43995D02*
X55386Y-43759D01*
X55296Y-43759D01*
X55274Y-43770D01*
X55263Y-43781D01*
X55251Y-43804D01*
X55251Y-43838D01*
X55263Y-43860D01*
X55274Y-43871D01*
X55296Y-43883D01*
X55386Y-43883D01*
X55026Y-43995D02*
X55161Y-43995D01*
X55094Y-43995D02*
X55094Y-43759D01*
X55116Y-43793D01*
X55139Y-43815D01*
X55161Y-43826D01*
X54801Y-43995D02*
X54936Y-43995D01*
X54869Y-43995D02*
X54869Y-43759D01*
X54891Y-43793D01*
X54914Y-43815D01*
X54936Y-43826D01*
X54475Y-43995D02*
X54610Y-43995D01*
X54543Y-43995D02*
X54543Y-43759D01*
X54565Y-43793D01*
X54588Y-43815D01*
X54610Y-43826D01*
X54261Y-43759D02*
X54374Y-43759D01*
X54385Y-43871D01*
X54374Y-43860D01*
X54351Y-43849D01*
X54295Y-43849D01*
X54273Y-43860D01*
X54261Y-43871D01*
X54250Y-43894D01*
X54250Y-43950D01*
X54261Y-43973D01*
X54273Y-43984D01*
X54295Y-43995D01*
X54351Y-43995D01*
X54374Y-43984D01*
X54385Y-43973D01*
X54104Y-43759D02*
X54081Y-43759D01*
X54059Y-43770D01*
X54048Y-43781D01*
X54036Y-43804D01*
X54025Y-43849D01*
X54025Y-43905D01*
X54036Y-43950D01*
X54048Y-43973D01*
X54059Y-43984D01*
X54081Y-43995D01*
X54104Y-43995D01*
X54126Y-43984D01*
X54138Y-43973D01*
X54149Y-43950D01*
X54160Y-43905D01*
X54160Y-43849D01*
X54149Y-43804D01*
X54138Y-43781D01*
X54126Y-43770D01*
X54104Y-43759D01*
X53789Y-43995D02*
X53868Y-43883D01*
X53924Y-43995D02*
X53924Y-43759D01*
X53834Y-43759D01*
X53811Y-43770D01*
X53800Y-43781D01*
X53789Y-43804D01*
X53789Y-43838D01*
X53800Y-43860D01*
X53811Y-43871D01*
X53834Y-43883D01*
X53924Y-43883D01*
X55251Y-45245D02*
X55330Y-45133D01*
X55386Y-45245D02*
X55386Y-45009D01*
X55296Y-45009D01*
X55274Y-45020D01*
X55263Y-45031D01*
X55251Y-45054D01*
X55251Y-45088D01*
X55263Y-45110D01*
X55274Y-45121D01*
X55296Y-45133D01*
X55386Y-45133D01*
X55026Y-45245D02*
X55161Y-45245D01*
X55094Y-45245D02*
X55094Y-45009D01*
X55116Y-45043D01*
X55139Y-45065D01*
X55161Y-45076D01*
X54936Y-45031D02*
X54925Y-45020D01*
X54903Y-45009D01*
X54846Y-45009D01*
X54824Y-45020D01*
X54813Y-45031D01*
X54801Y-45054D01*
X54801Y-45076D01*
X54813Y-45110D01*
X54948Y-45245D01*
X54801Y-45245D01*
X54475Y-45245D02*
X54610Y-45245D01*
X54543Y-45245D02*
X54543Y-45009D01*
X54565Y-45043D01*
X54588Y-45065D01*
X54610Y-45076D01*
X54261Y-45009D02*
X54374Y-45009D01*
X54385Y-45121D01*
X54374Y-45110D01*
X54351Y-45099D01*
X54295Y-45099D01*
X54273Y-45110D01*
X54261Y-45121D01*
X54250Y-45144D01*
X54250Y-45200D01*
X54261Y-45223D01*
X54273Y-45234D01*
X54295Y-45245D01*
X54351Y-45245D01*
X54374Y-45234D01*
X54385Y-45223D01*
X54104Y-45009D02*
X54081Y-45009D01*
X54059Y-45020D01*
X54048Y-45031D01*
X54036Y-45054D01*
X54025Y-45099D01*
X54025Y-45155D01*
X54036Y-45200D01*
X54048Y-45223D01*
X54059Y-45234D01*
X54081Y-45245D01*
X54104Y-45245D01*
X54126Y-45234D01*
X54138Y-45223D01*
X54149Y-45200D01*
X54160Y-45155D01*
X54160Y-45099D01*
X54149Y-45054D01*
X54138Y-45031D01*
X54126Y-45020D01*
X54104Y-45009D01*
X53789Y-45245D02*
X53868Y-45133D01*
X53924Y-45245D02*
X53924Y-45009D01*
X53834Y-45009D01*
X53811Y-45020D01*
X53800Y-45031D01*
X53789Y-45054D01*
X53789Y-45088D01*
X53800Y-45110D01*
X53811Y-45121D01*
X53834Y-45133D01*
X53924Y-45133D01*
X55251Y-46495D02*
X55330Y-46383D01*
X55386Y-46495D02*
X55386Y-46259D01*
X55296Y-46259D01*
X55274Y-46270D01*
X55263Y-46281D01*
X55251Y-46304D01*
X55251Y-46338D01*
X55263Y-46360D01*
X55274Y-46371D01*
X55296Y-46383D01*
X55386Y-46383D01*
X55026Y-46495D02*
X55161Y-46495D01*
X55094Y-46495D02*
X55094Y-46259D01*
X55116Y-46293D01*
X55139Y-46315D01*
X55161Y-46326D01*
X54948Y-46259D02*
X54801Y-46259D01*
X54880Y-46349D01*
X54846Y-46349D01*
X54824Y-46360D01*
X54813Y-46371D01*
X54801Y-46394D01*
X54801Y-46450D01*
X54813Y-46473D01*
X54824Y-46484D01*
X54846Y-46495D01*
X54914Y-46495D01*
X54936Y-46484D01*
X54948Y-46473D01*
X54475Y-46495D02*
X54610Y-46495D01*
X54543Y-46495D02*
X54543Y-46259D01*
X54565Y-46293D01*
X54588Y-46315D01*
X54610Y-46326D01*
X54261Y-46259D02*
X54374Y-46259D01*
X54385Y-46371D01*
X54374Y-46360D01*
X54351Y-46349D01*
X54295Y-46349D01*
X54273Y-46360D01*
X54261Y-46371D01*
X54250Y-46394D01*
X54250Y-46450D01*
X54261Y-46473D01*
X54273Y-46484D01*
X54295Y-46495D01*
X54351Y-46495D01*
X54374Y-46484D01*
X54385Y-46473D01*
X54104Y-46259D02*
X54081Y-46259D01*
X54059Y-46270D01*
X54048Y-46281D01*
X54036Y-46304D01*
X54025Y-46349D01*
X54025Y-46405D01*
X54036Y-46450D01*
X54048Y-46473D01*
X54059Y-46484D01*
X54081Y-46495D01*
X54104Y-46495D01*
X54126Y-46484D01*
X54138Y-46473D01*
X54149Y-46450D01*
X54160Y-46405D01*
X54160Y-46349D01*
X54149Y-46304D01*
X54138Y-46281D01*
X54126Y-46270D01*
X54104Y-46259D01*
X53789Y-46495D02*
X53868Y-46383D01*
X53924Y-46495D02*
X53924Y-46259D01*
X53834Y-46259D01*
X53811Y-46270D01*
X53800Y-46281D01*
X53789Y-46304D01*
X53789Y-46338D01*
X53800Y-46360D01*
X53811Y-46371D01*
X53834Y-46383D01*
X53924Y-46383D01*
X58974Y-42745D02*
X58974Y-42509D01*
X58918Y-42509D01*
X58884Y-42520D01*
X58861Y-42543D01*
X58850Y-42565D01*
X58839Y-42610D01*
X58839Y-42644D01*
X58850Y-42689D01*
X58861Y-42711D01*
X58884Y-42734D01*
X58918Y-42745D01*
X58974Y-42745D01*
X58636Y-42588D02*
X58636Y-42745D01*
X58693Y-42498D02*
X58749Y-42666D01*
X58603Y-42666D01*
X58340Y-42509D02*
X58295Y-42509D01*
X58273Y-42520D01*
X58250Y-42543D01*
X58239Y-42588D01*
X58239Y-42666D01*
X58250Y-42711D01*
X58273Y-42734D01*
X58295Y-42745D01*
X58340Y-42745D01*
X58363Y-42734D01*
X58385Y-42711D01*
X58396Y-42666D01*
X58396Y-42588D01*
X58385Y-42543D01*
X58363Y-42520D01*
X58340Y-42509D01*
X58003Y-42745D02*
X58081Y-42633D01*
X58138Y-42745D02*
X58138Y-42509D01*
X58048Y-42509D01*
X58025Y-42520D01*
X58014Y-42531D01*
X58003Y-42554D01*
X58003Y-42588D01*
X58014Y-42610D01*
X58025Y-42621D01*
X58048Y-42633D01*
X58138Y-42633D01*
X57913Y-42678D02*
X57800Y-42678D01*
X57935Y-42745D02*
X57856Y-42509D01*
X57778Y-42745D01*
X57699Y-42745D02*
X57699Y-42509D01*
X57564Y-42745D01*
X57564Y-42509D01*
X57328Y-42520D02*
X57350Y-42509D01*
X57384Y-42509D01*
X57418Y-42520D01*
X57440Y-42543D01*
X57451Y-42565D01*
X57463Y-42610D01*
X57463Y-42644D01*
X57451Y-42689D01*
X57440Y-42711D01*
X57418Y-42734D01*
X57384Y-42745D01*
X57361Y-42745D01*
X57328Y-42734D01*
X57316Y-42723D01*
X57316Y-42644D01*
X57361Y-42644D01*
X57215Y-42621D02*
X57136Y-42621D01*
X57103Y-42745D02*
X57215Y-42745D01*
X57215Y-42509D01*
X57103Y-42509D01*
X58974Y-43995D02*
X58974Y-43759D01*
X58918Y-43759D01*
X58884Y-43770D01*
X58861Y-43793D01*
X58850Y-43815D01*
X58839Y-43860D01*
X58839Y-43894D01*
X58850Y-43939D01*
X58861Y-43961D01*
X58884Y-43984D01*
X58918Y-43995D01*
X58974Y-43995D01*
X58625Y-43759D02*
X58738Y-43759D01*
X58749Y-43871D01*
X58738Y-43860D01*
X58715Y-43849D01*
X58659Y-43849D01*
X58636Y-43860D01*
X58625Y-43871D01*
X58614Y-43894D01*
X58614Y-43950D01*
X58625Y-43973D01*
X58636Y-43984D01*
X58659Y-43995D01*
X58715Y-43995D01*
X58738Y-43984D01*
X58749Y-43973D01*
X58340Y-43759D02*
X58295Y-43759D01*
X58273Y-43770D01*
X58250Y-43793D01*
X58239Y-43838D01*
X58239Y-43916D01*
X58250Y-43961D01*
X58273Y-43984D01*
X58295Y-43995D01*
X58340Y-43995D01*
X58363Y-43984D01*
X58385Y-43961D01*
X58396Y-43916D01*
X58396Y-43838D01*
X58385Y-43793D01*
X58363Y-43770D01*
X58340Y-43759D01*
X58003Y-43995D02*
X58081Y-43883D01*
X58138Y-43995D02*
X58138Y-43759D01*
X58048Y-43759D01*
X58025Y-43770D01*
X58014Y-43781D01*
X58003Y-43804D01*
X58003Y-43838D01*
X58014Y-43860D01*
X58025Y-43871D01*
X58048Y-43883D01*
X58138Y-43883D01*
X57913Y-43928D02*
X57800Y-43928D01*
X57935Y-43995D02*
X57856Y-43759D01*
X57778Y-43995D01*
X57699Y-43995D02*
X57699Y-43759D01*
X57564Y-43995D01*
X57564Y-43759D01*
X57328Y-43770D02*
X57350Y-43759D01*
X57384Y-43759D01*
X57418Y-43770D01*
X57440Y-43793D01*
X57451Y-43815D01*
X57463Y-43860D01*
X57463Y-43894D01*
X57451Y-43939D01*
X57440Y-43961D01*
X57418Y-43984D01*
X57384Y-43995D01*
X57361Y-43995D01*
X57328Y-43984D01*
X57316Y-43973D01*
X57316Y-43894D01*
X57361Y-43894D01*
X57215Y-43871D02*
X57136Y-43871D01*
X57103Y-43995D02*
X57215Y-43995D01*
X57215Y-43759D01*
X57103Y-43759D01*
X58974Y-45245D02*
X58974Y-45009D01*
X58918Y-45009D01*
X58884Y-45020D01*
X58861Y-45043D01*
X58850Y-45065D01*
X58839Y-45110D01*
X58839Y-45144D01*
X58850Y-45189D01*
X58861Y-45211D01*
X58884Y-45234D01*
X58918Y-45245D01*
X58974Y-45245D01*
X58636Y-45009D02*
X58681Y-45009D01*
X58704Y-45020D01*
X58715Y-45031D01*
X58738Y-45065D01*
X58749Y-45110D01*
X58749Y-45200D01*
X58738Y-45223D01*
X58726Y-45234D01*
X58704Y-45245D01*
X58659Y-45245D01*
X58636Y-45234D01*
X58625Y-45223D01*
X58614Y-45200D01*
X58614Y-45144D01*
X58625Y-45121D01*
X58636Y-45110D01*
X58659Y-45099D01*
X58704Y-45099D01*
X58726Y-45110D01*
X58738Y-45121D01*
X58749Y-45144D01*
X58340Y-45009D02*
X58295Y-45009D01*
X58273Y-45020D01*
X58250Y-45043D01*
X58239Y-45088D01*
X58239Y-45166D01*
X58250Y-45211D01*
X58273Y-45234D01*
X58295Y-45245D01*
X58340Y-45245D01*
X58363Y-45234D01*
X58385Y-45211D01*
X58396Y-45166D01*
X58396Y-45088D01*
X58385Y-45043D01*
X58363Y-45020D01*
X58340Y-45009D01*
X58003Y-45245D02*
X58081Y-45133D01*
X58138Y-45245D02*
X58138Y-45009D01*
X58048Y-45009D01*
X58025Y-45020D01*
X58014Y-45031D01*
X58003Y-45054D01*
X58003Y-45088D01*
X58014Y-45110D01*
X58025Y-45121D01*
X58048Y-45133D01*
X58138Y-45133D01*
X57913Y-45178D02*
X57800Y-45178D01*
X57935Y-45245D02*
X57856Y-45009D01*
X57778Y-45245D01*
X57699Y-45245D02*
X57699Y-45009D01*
X57564Y-45245D01*
X57564Y-45009D01*
X57328Y-45020D02*
X57350Y-45009D01*
X57384Y-45009D01*
X57418Y-45020D01*
X57440Y-45043D01*
X57451Y-45065D01*
X57463Y-45110D01*
X57463Y-45144D01*
X57451Y-45189D01*
X57440Y-45211D01*
X57418Y-45234D01*
X57384Y-45245D01*
X57361Y-45245D01*
X57328Y-45234D01*
X57316Y-45223D01*
X57316Y-45144D01*
X57361Y-45144D01*
X57215Y-45121D02*
X57136Y-45121D01*
X57103Y-45245D02*
X57215Y-45245D01*
X57215Y-45009D01*
X57103Y-45009D01*
X58974Y-46495D02*
X58974Y-46259D01*
X58918Y-46259D01*
X58884Y-46270D01*
X58861Y-46293D01*
X58850Y-46315D01*
X58839Y-46360D01*
X58839Y-46394D01*
X58850Y-46439D01*
X58861Y-46461D01*
X58884Y-46484D01*
X58918Y-46495D01*
X58974Y-46495D01*
X58760Y-46259D02*
X58603Y-46259D01*
X58704Y-46495D01*
X58340Y-46259D02*
X58295Y-46259D01*
X58273Y-46270D01*
X58250Y-46293D01*
X58239Y-46338D01*
X58239Y-46416D01*
X58250Y-46461D01*
X58273Y-46484D01*
X58295Y-46495D01*
X58340Y-46495D01*
X58363Y-46484D01*
X58385Y-46461D01*
X58396Y-46416D01*
X58396Y-46338D01*
X58385Y-46293D01*
X58363Y-46270D01*
X58340Y-46259D01*
X58003Y-46495D02*
X58081Y-46383D01*
X58138Y-46495D02*
X58138Y-46259D01*
X58048Y-46259D01*
X58025Y-46270D01*
X58014Y-46281D01*
X58003Y-46304D01*
X58003Y-46338D01*
X58014Y-46360D01*
X58025Y-46371D01*
X58048Y-46383D01*
X58138Y-46383D01*
X57913Y-46428D02*
X57800Y-46428D01*
X57935Y-46495D02*
X57856Y-46259D01*
X57778Y-46495D01*
X57699Y-46495D02*
X57699Y-46259D01*
X57564Y-46495D01*
X57564Y-46259D01*
X57328Y-46270D02*
X57350Y-46259D01*
X57384Y-46259D01*
X57418Y-46270D01*
X57440Y-46293D01*
X57451Y-46315D01*
X57463Y-46360D01*
X57463Y-46394D01*
X57451Y-46439D01*
X57440Y-46461D01*
X57418Y-46484D01*
X57384Y-46495D01*
X57361Y-46495D01*
X57328Y-46484D01*
X57316Y-46473D01*
X57316Y-46394D01*
X57361Y-46394D01*
X57215Y-46371D02*
X57136Y-46371D01*
X57103Y-46495D02*
X57215Y-46495D01*
X57215Y-46259D01*
X57103Y-46259D01*
X60345Y-34048D02*
X60233Y-33969D01*
X60345Y-33913D02*
X60109Y-33913D01*
X60109Y-34003D01*
X60120Y-34025D01*
X60131Y-34036D01*
X60154Y-34048D01*
X60188Y-34048D01*
X60210Y-34036D01*
X60221Y-34025D01*
X60233Y-34003D01*
X60233Y-33913D01*
X60345Y-34273D02*
X60345Y-34138D01*
X60345Y-34205D02*
X60109Y-34205D01*
X60143Y-34183D01*
X60165Y-34160D01*
X60176Y-34138D01*
X60188Y-34475D02*
X60345Y-34475D01*
X60098Y-34419D02*
X60266Y-34363D01*
X60266Y-34509D01*
X60345Y-34849D02*
X60345Y-34714D01*
X60345Y-34781D02*
X60109Y-34781D01*
X60143Y-34759D01*
X60165Y-34736D01*
X60176Y-34714D01*
X60345Y-34950D02*
X60109Y-34950D01*
X60345Y-35085D02*
X60210Y-34984D01*
X60109Y-35085D02*
X60244Y-34950D01*
X53551Y-35895D02*
X53630Y-35783D01*
X53686Y-35895D02*
X53686Y-35659D01*
X53596Y-35659D01*
X53574Y-35670D01*
X53563Y-35681D01*
X53551Y-35704D01*
X53551Y-35738D01*
X53563Y-35760D01*
X53574Y-35771D01*
X53596Y-35783D01*
X53686Y-35783D01*
X53461Y-35681D02*
X53450Y-35670D01*
X53428Y-35659D01*
X53371Y-35659D01*
X53349Y-35670D01*
X53338Y-35681D01*
X53326Y-35704D01*
X53326Y-35726D01*
X53338Y-35760D01*
X53473Y-35895D01*
X53326Y-35895D01*
X53248Y-35659D02*
X53101Y-35659D01*
X53180Y-35749D01*
X53146Y-35749D01*
X53124Y-35760D01*
X53113Y-35771D01*
X53101Y-35794D01*
X53101Y-35850D01*
X53113Y-35873D01*
X53124Y-35884D01*
X53146Y-35895D01*
X53214Y-35895D01*
X53236Y-35884D01*
X53248Y-35873D01*
X52725Y-35895D02*
X52860Y-35895D01*
X52793Y-35895D02*
X52793Y-35659D01*
X52815Y-35693D01*
X52838Y-35715D01*
X52860Y-35726D01*
X52511Y-35659D02*
X52624Y-35659D01*
X52635Y-35771D01*
X52624Y-35760D01*
X52601Y-35749D01*
X52545Y-35749D01*
X52523Y-35760D01*
X52511Y-35771D01*
X52500Y-35794D01*
X52500Y-35850D01*
X52511Y-35873D01*
X52523Y-35884D01*
X52545Y-35895D01*
X52601Y-35895D01*
X52624Y-35884D01*
X52635Y-35873D01*
X52354Y-35659D02*
X52331Y-35659D01*
X52309Y-35670D01*
X52298Y-35681D01*
X52286Y-35704D01*
X52275Y-35749D01*
X52275Y-35805D01*
X52286Y-35850D01*
X52298Y-35873D01*
X52309Y-35884D01*
X52331Y-35895D01*
X52354Y-35895D01*
X52376Y-35884D01*
X52388Y-35873D01*
X52399Y-35850D01*
X52410Y-35805D01*
X52410Y-35749D01*
X52399Y-35704D01*
X52388Y-35681D01*
X52376Y-35670D01*
X52354Y-35659D01*
X52039Y-35895D02*
X52118Y-35783D01*
X52174Y-35895D02*
X52174Y-35659D01*
X52084Y-35659D01*
X52061Y-35670D01*
X52050Y-35681D01*
X52039Y-35704D01*
X52039Y-35738D01*
X52050Y-35760D01*
X52061Y-35771D01*
X52084Y-35783D01*
X52174Y-35783D01*
X53936Y-34595D02*
X53936Y-34359D01*
X53880Y-34359D01*
X53846Y-34370D01*
X53824Y-34393D01*
X53813Y-34415D01*
X53801Y-34460D01*
X53801Y-34494D01*
X53813Y-34539D01*
X53824Y-34561D01*
X53846Y-34584D01*
X53880Y-34595D01*
X53936Y-34595D01*
X53576Y-34595D02*
X53711Y-34595D01*
X53644Y-34595D02*
X53644Y-34359D01*
X53666Y-34393D01*
X53689Y-34415D01*
X53711Y-34426D01*
X53486Y-34381D02*
X53475Y-34370D01*
X53453Y-34359D01*
X53396Y-34359D01*
X53374Y-34370D01*
X53363Y-34381D01*
X53351Y-34404D01*
X53351Y-34426D01*
X53363Y-34460D01*
X53498Y-34595D01*
X53351Y-34595D01*
X53040Y-34359D02*
X52995Y-34359D01*
X52973Y-34370D01*
X52950Y-34393D01*
X52939Y-34438D01*
X52939Y-34516D01*
X52950Y-34561D01*
X52973Y-34584D01*
X52995Y-34595D01*
X53040Y-34595D01*
X53063Y-34584D01*
X53085Y-34561D01*
X53096Y-34516D01*
X53096Y-34438D01*
X53085Y-34393D01*
X53063Y-34370D01*
X53040Y-34359D01*
X52703Y-34595D02*
X52781Y-34483D01*
X52838Y-34595D02*
X52838Y-34359D01*
X52748Y-34359D01*
X52725Y-34370D01*
X52714Y-34381D01*
X52703Y-34404D01*
X52703Y-34438D01*
X52714Y-34460D01*
X52725Y-34471D01*
X52748Y-34483D01*
X52838Y-34483D01*
X52613Y-34528D02*
X52500Y-34528D01*
X52635Y-34595D02*
X52556Y-34359D01*
X52478Y-34595D01*
X52399Y-34595D02*
X52399Y-34359D01*
X52264Y-34595D01*
X52264Y-34359D01*
X52028Y-34370D02*
X52050Y-34359D01*
X52084Y-34359D01*
X52118Y-34370D01*
X52140Y-34393D01*
X52151Y-34415D01*
X52163Y-34460D01*
X52163Y-34494D01*
X52151Y-34539D01*
X52140Y-34561D01*
X52118Y-34584D01*
X52084Y-34595D01*
X52061Y-34595D01*
X52028Y-34584D01*
X52016Y-34573D01*
X52016Y-34494D01*
X52061Y-34494D01*
X51915Y-34471D02*
X51836Y-34471D01*
X51803Y-34595D02*
X51915Y-34595D01*
X51915Y-34359D01*
X51803Y-34359D01*
X65595Y-32748D02*
X65483Y-32669D01*
X65595Y-32613D02*
X65359Y-32613D01*
X65359Y-32703D01*
X65370Y-32725D01*
X65381Y-32736D01*
X65404Y-32748D01*
X65438Y-32748D01*
X65460Y-32736D01*
X65471Y-32725D01*
X65483Y-32703D01*
X65483Y-32613D01*
X65595Y-32973D02*
X65595Y-32838D01*
X65595Y-32905D02*
X65359Y-32905D01*
X65393Y-32883D01*
X65415Y-32860D01*
X65426Y-32838D01*
X65359Y-33051D02*
X65359Y-33209D01*
X65595Y-33108D01*
X65595Y-33599D02*
X65595Y-33464D01*
X65595Y-33531D02*
X65359Y-33531D01*
X65393Y-33509D01*
X65415Y-33486D01*
X65426Y-33464D01*
X65595Y-33700D02*
X65359Y-33700D01*
X65595Y-33835D02*
X65460Y-33734D01*
X65359Y-33835D02*
X65494Y-33700D01*
X58895Y-31498D02*
X58783Y-31419D01*
X58895Y-31363D02*
X58659Y-31363D01*
X58659Y-31453D01*
X58670Y-31475D01*
X58681Y-31486D01*
X58704Y-31498D01*
X58738Y-31498D01*
X58760Y-31486D01*
X58771Y-31475D01*
X58783Y-31453D01*
X58783Y-31363D01*
X58895Y-31723D02*
X58895Y-31588D01*
X58895Y-31655D02*
X58659Y-31655D01*
X58693Y-31633D01*
X58715Y-31610D01*
X58726Y-31588D01*
X58659Y-31936D02*
X58659Y-31824D01*
X58771Y-31813D01*
X58760Y-31824D01*
X58749Y-31846D01*
X58749Y-31903D01*
X58760Y-31925D01*
X58771Y-31936D01*
X58794Y-31948D01*
X58850Y-31948D01*
X58873Y-31936D01*
X58884Y-31925D01*
X58895Y-31903D01*
X58895Y-31846D01*
X58884Y-31824D01*
X58873Y-31813D01*
X58895Y-32349D02*
X58895Y-32214D01*
X58895Y-32281D02*
X58659Y-32281D01*
X58693Y-32259D01*
X58715Y-32236D01*
X58726Y-32214D01*
X58895Y-32450D02*
X58659Y-32450D01*
X58895Y-32585D02*
X58760Y-32484D01*
X58659Y-32585D02*
X58794Y-32450D01*
X55745Y-32748D02*
X55633Y-32669D01*
X55745Y-32613D02*
X55509Y-32613D01*
X55509Y-32703D01*
X55520Y-32725D01*
X55531Y-32736D01*
X55554Y-32748D01*
X55588Y-32748D01*
X55610Y-32736D01*
X55621Y-32725D01*
X55633Y-32703D01*
X55633Y-32613D01*
X55531Y-32838D02*
X55520Y-32849D01*
X55509Y-32871D01*
X55509Y-32928D01*
X55520Y-32950D01*
X55531Y-32961D01*
X55554Y-32973D01*
X55576Y-32973D01*
X55610Y-32961D01*
X55745Y-32826D01*
X55745Y-32973D01*
X55509Y-33186D02*
X55509Y-33074D01*
X55621Y-33063D01*
X55610Y-33074D01*
X55599Y-33096D01*
X55599Y-33153D01*
X55610Y-33175D01*
X55621Y-33186D01*
X55644Y-33198D01*
X55700Y-33198D01*
X55723Y-33186D01*
X55734Y-33175D01*
X55745Y-33153D01*
X55745Y-33096D01*
X55734Y-33074D01*
X55723Y-33063D01*
X55745Y-33599D02*
X55745Y-33464D01*
X55745Y-33531D02*
X55509Y-33531D01*
X55543Y-33509D01*
X55565Y-33486D01*
X55576Y-33464D01*
X55745Y-33700D02*
X55509Y-33700D01*
X55745Y-33835D02*
X55610Y-33734D01*
X55509Y-33835D02*
X55644Y-33700D01*
X50173Y-35110D02*
X50184Y-35099D01*
X50195Y-35065D01*
X50195Y-35043D01*
X50184Y-35009D01*
X50161Y-34986D01*
X50139Y-34975D01*
X50094Y-34964D01*
X50060Y-34964D01*
X50015Y-34975D01*
X49993Y-34986D01*
X49970Y-35009D01*
X49959Y-35043D01*
X49959Y-35065D01*
X49970Y-35099D01*
X49981Y-35110D01*
X49981Y-35200D02*
X49970Y-35211D01*
X49959Y-35234D01*
X49959Y-35290D01*
X49970Y-35313D01*
X49981Y-35324D01*
X50004Y-35335D01*
X50026Y-35335D01*
X50060Y-35324D01*
X50195Y-35189D01*
X50195Y-35335D01*
X49959Y-35661D02*
X49959Y-35684D01*
X49970Y-35706D01*
X49981Y-35718D01*
X50004Y-35729D01*
X50049Y-35740D01*
X50105Y-35740D01*
X50150Y-35729D01*
X50173Y-35718D01*
X50184Y-35706D01*
X50195Y-35684D01*
X50195Y-35661D01*
X50184Y-35639D01*
X50173Y-35628D01*
X50150Y-35616D01*
X50105Y-35605D01*
X50049Y-35605D01*
X50004Y-35616D01*
X49981Y-35628D01*
X49970Y-35639D01*
X49959Y-35661D01*
X50173Y-35841D02*
X50184Y-35853D01*
X50195Y-35841D01*
X50184Y-35830D01*
X50173Y-35841D01*
X50195Y-35841D01*
X50195Y-36078D02*
X50195Y-35943D01*
X50195Y-36010D02*
X49959Y-36010D01*
X49993Y-35988D01*
X50015Y-35965D01*
X50026Y-35943D01*
X50038Y-36280D02*
X50195Y-36280D01*
X50038Y-36179D02*
X50161Y-36179D01*
X50184Y-36190D01*
X50195Y-36213D01*
X50195Y-36246D01*
X50184Y-36269D01*
X50173Y-36280D01*
X50071Y-36471D02*
X50071Y-36393D01*
X50195Y-36393D02*
X49959Y-36393D01*
X49959Y-36505D01*
X51939Y-47195D02*
X52018Y-47083D01*
X52074Y-47195D02*
X52074Y-46959D01*
X51984Y-46959D01*
X51961Y-46970D01*
X51950Y-46981D01*
X51939Y-47004D01*
X51939Y-47038D01*
X51950Y-47060D01*
X51961Y-47071D01*
X51984Y-47083D01*
X52074Y-47083D01*
X51826Y-47195D02*
X51781Y-47195D01*
X51759Y-47184D01*
X51748Y-47173D01*
X51725Y-47139D01*
X51714Y-47094D01*
X51714Y-47004D01*
X51725Y-46981D01*
X51736Y-46970D01*
X51759Y-46959D01*
X51804Y-46959D01*
X51826Y-46970D01*
X51838Y-46981D01*
X51849Y-47004D01*
X51849Y-47060D01*
X51838Y-47083D01*
X51826Y-47094D01*
X51804Y-47105D01*
X51759Y-47105D01*
X51736Y-47094D01*
X51725Y-47083D01*
X51714Y-47060D01*
X51341Y-47038D02*
X51341Y-47195D01*
X51398Y-46948D02*
X51454Y-47116D01*
X51308Y-47116D01*
X51218Y-47173D02*
X51206Y-47184D01*
X51218Y-47195D01*
X51229Y-47184D01*
X51218Y-47173D01*
X51218Y-47195D01*
X51128Y-46959D02*
X50970Y-46959D01*
X51071Y-47195D01*
X50880Y-47195D02*
X50880Y-46959D01*
X50745Y-47195D02*
X50846Y-47060D01*
X50745Y-46959D02*
X50880Y-47094D01*
X65489Y-47195D02*
X65568Y-47083D01*
X65624Y-47195D02*
X65624Y-46959D01*
X65534Y-46959D01*
X65511Y-46970D01*
X65500Y-46981D01*
X65489Y-47004D01*
X65489Y-47038D01*
X65500Y-47060D01*
X65511Y-47071D01*
X65534Y-47083D01*
X65624Y-47083D01*
X65354Y-47060D02*
X65376Y-47049D01*
X65388Y-47038D01*
X65399Y-47015D01*
X65399Y-47004D01*
X65388Y-46981D01*
X65376Y-46970D01*
X65354Y-46959D01*
X65309Y-46959D01*
X65286Y-46970D01*
X65275Y-46981D01*
X65264Y-47004D01*
X65264Y-47015D01*
X65275Y-47038D01*
X65286Y-47049D01*
X65309Y-47060D01*
X65354Y-47060D01*
X65376Y-47071D01*
X65388Y-47083D01*
X65399Y-47105D01*
X65399Y-47150D01*
X65388Y-47173D01*
X65376Y-47184D01*
X65354Y-47195D01*
X65309Y-47195D01*
X65286Y-47184D01*
X65275Y-47173D01*
X65264Y-47150D01*
X65264Y-47105D01*
X65275Y-47083D01*
X65286Y-47071D01*
X65309Y-47060D01*
X64891Y-47038D02*
X64891Y-47195D01*
X64948Y-46948D02*
X65004Y-47116D01*
X64858Y-47116D01*
X64768Y-47173D02*
X64756Y-47184D01*
X64768Y-47195D01*
X64779Y-47184D01*
X64768Y-47173D01*
X64768Y-47195D01*
X64678Y-46959D02*
X64520Y-46959D01*
X64621Y-47195D01*
X64430Y-47195D02*
X64430Y-46959D01*
X64295Y-47195D02*
X64396Y-47060D01*
X64295Y-46959D02*
X64430Y-47094D01*
X51251Y-32895D02*
X51330Y-32783D01*
X51386Y-32895D02*
X51386Y-32659D01*
X51296Y-32659D01*
X51274Y-32670D01*
X51263Y-32681D01*
X51251Y-32704D01*
X51251Y-32738D01*
X51263Y-32760D01*
X51274Y-32771D01*
X51296Y-32783D01*
X51386Y-32783D01*
X51161Y-32681D02*
X51150Y-32670D01*
X51128Y-32659D01*
X51071Y-32659D01*
X51049Y-32670D01*
X51038Y-32681D01*
X51026Y-32704D01*
X51026Y-32726D01*
X51038Y-32760D01*
X51173Y-32895D01*
X51026Y-32895D01*
X50824Y-32738D02*
X50824Y-32895D01*
X50880Y-32648D02*
X50936Y-32816D01*
X50790Y-32816D01*
X50450Y-32895D02*
X50585Y-32895D01*
X50518Y-32895D02*
X50518Y-32659D01*
X50540Y-32693D01*
X50563Y-32715D01*
X50585Y-32726D01*
X50349Y-32895D02*
X50349Y-32659D01*
X50214Y-32895D02*
X50315Y-32760D01*
X50214Y-32659D02*
X50349Y-32794D01*
X63351Y-29345D02*
X63430Y-29233D01*
X63486Y-29345D02*
X63486Y-29109D01*
X63396Y-29109D01*
X63374Y-29120D01*
X63363Y-29131D01*
X63351Y-29154D01*
X63351Y-29188D01*
X63363Y-29210D01*
X63374Y-29221D01*
X63396Y-29233D01*
X63486Y-29233D01*
X63126Y-29345D02*
X63261Y-29345D01*
X63194Y-29345D02*
X63194Y-29109D01*
X63216Y-29143D01*
X63239Y-29165D01*
X63261Y-29176D01*
X62924Y-29109D02*
X62969Y-29109D01*
X62991Y-29120D01*
X63003Y-29131D01*
X63025Y-29165D01*
X63036Y-29210D01*
X63036Y-29300D01*
X63025Y-29323D01*
X63014Y-29334D01*
X62991Y-29345D01*
X62946Y-29345D01*
X62924Y-29334D01*
X62913Y-29323D01*
X62901Y-29300D01*
X62901Y-29244D01*
X62913Y-29221D01*
X62924Y-29210D01*
X62946Y-29199D01*
X62991Y-29199D01*
X63014Y-29210D01*
X63025Y-29221D01*
X63036Y-29244D01*
X62550Y-29345D02*
X62685Y-29345D01*
X62618Y-29345D02*
X62618Y-29109D01*
X62640Y-29143D01*
X62663Y-29165D01*
X62685Y-29176D01*
X62449Y-29345D02*
X62449Y-29109D01*
X62314Y-29345D02*
X62415Y-29210D01*
X62314Y-29109D02*
X62449Y-29244D01*
X66245Y-36248D02*
X66133Y-36169D01*
X66245Y-36113D02*
X66009Y-36113D01*
X66009Y-36203D01*
X66020Y-36225D01*
X66031Y-36236D01*
X66054Y-36248D01*
X66088Y-36248D01*
X66110Y-36236D01*
X66121Y-36225D01*
X66133Y-36203D01*
X66133Y-36113D01*
X66245Y-36473D02*
X66245Y-36338D01*
X66245Y-36405D02*
X66009Y-36405D01*
X66043Y-36383D01*
X66065Y-36360D01*
X66076Y-36338D01*
X66110Y-36608D02*
X66099Y-36585D01*
X66088Y-36574D01*
X66065Y-36563D01*
X66054Y-36563D01*
X66031Y-36574D01*
X66020Y-36585D01*
X66009Y-36608D01*
X66009Y-36653D01*
X66020Y-36675D01*
X66031Y-36686D01*
X66054Y-36698D01*
X66065Y-36698D01*
X66088Y-36686D01*
X66099Y-36675D01*
X66110Y-36653D01*
X66110Y-36608D01*
X66121Y-36585D01*
X66133Y-36574D01*
X66155Y-36563D01*
X66200Y-36563D01*
X66223Y-36574D01*
X66234Y-36585D01*
X66245Y-36608D01*
X66245Y-36653D01*
X66234Y-36675D01*
X66223Y-36686D01*
X66200Y-36698D01*
X66155Y-36698D01*
X66133Y-36686D01*
X66121Y-36675D01*
X66110Y-36653D01*
X66245Y-37099D02*
X66245Y-36964D01*
X66245Y-37031D02*
X66009Y-37031D01*
X66043Y-37009D01*
X66065Y-36986D01*
X66076Y-36964D01*
X66245Y-37200D02*
X66009Y-37200D01*
X66245Y-37335D02*
X66110Y-37234D01*
X66009Y-37335D02*
X66144Y-37200D01*
X64795Y-38548D02*
X64683Y-38469D01*
X64795Y-38413D02*
X64559Y-38413D01*
X64559Y-38503D01*
X64570Y-38525D01*
X64581Y-38536D01*
X64604Y-38548D01*
X64638Y-38548D01*
X64660Y-38536D01*
X64671Y-38525D01*
X64683Y-38503D01*
X64683Y-38413D01*
X64581Y-38638D02*
X64570Y-38649D01*
X64559Y-38671D01*
X64559Y-38728D01*
X64570Y-38750D01*
X64581Y-38761D01*
X64604Y-38773D01*
X64626Y-38773D01*
X64660Y-38761D01*
X64795Y-38626D01*
X64795Y-38773D01*
X64581Y-38863D02*
X64570Y-38874D01*
X64559Y-38896D01*
X64559Y-38953D01*
X64570Y-38975D01*
X64581Y-38986D01*
X64604Y-38998D01*
X64626Y-38998D01*
X64660Y-38986D01*
X64795Y-38851D01*
X64795Y-38998D01*
X64795Y-39374D02*
X64795Y-39239D01*
X64795Y-39306D02*
X64559Y-39306D01*
X64593Y-39284D01*
X64615Y-39261D01*
X64626Y-39239D01*
X64559Y-39588D02*
X64559Y-39475D01*
X64671Y-39464D01*
X64660Y-39475D01*
X64649Y-39498D01*
X64649Y-39554D01*
X64660Y-39576D01*
X64671Y-39588D01*
X64694Y-39599D01*
X64750Y-39599D01*
X64773Y-39588D01*
X64784Y-39576D01*
X64795Y-39554D01*
X64795Y-39498D01*
X64784Y-39475D01*
X64773Y-39464D01*
X64559Y-39745D02*
X64559Y-39768D01*
X64570Y-39790D01*
X64581Y-39801D01*
X64604Y-39813D01*
X64649Y-39824D01*
X64705Y-39824D01*
X64750Y-39813D01*
X64773Y-39801D01*
X64784Y-39790D01*
X64795Y-39768D01*
X64795Y-39745D01*
X64784Y-39723D01*
X64773Y-39711D01*
X64750Y-39700D01*
X64705Y-39689D01*
X64649Y-39689D01*
X64604Y-39700D01*
X64581Y-39711D01*
X64570Y-39723D01*
X64559Y-39745D01*
X64795Y-40060D02*
X64683Y-39981D01*
X64795Y-39925D02*
X64559Y-39925D01*
X64559Y-40015D01*
X64570Y-40038D01*
X64581Y-40049D01*
X64604Y-40060D01*
X64638Y-40060D01*
X64660Y-40049D01*
X64671Y-40038D01*
X64683Y-40015D01*
X64683Y-39925D01*
X62295Y-38548D02*
X62183Y-38469D01*
X62295Y-38413D02*
X62059Y-38413D01*
X62059Y-38503D01*
X62070Y-38525D01*
X62081Y-38536D01*
X62104Y-38548D01*
X62138Y-38548D01*
X62160Y-38536D01*
X62171Y-38525D01*
X62183Y-38503D01*
X62183Y-38413D01*
X62081Y-38638D02*
X62070Y-38649D01*
X62059Y-38671D01*
X62059Y-38728D01*
X62070Y-38750D01*
X62081Y-38761D01*
X62104Y-38773D01*
X62126Y-38773D01*
X62160Y-38761D01*
X62295Y-38626D01*
X62295Y-38773D01*
X62059Y-38919D02*
X62059Y-38941D01*
X62070Y-38964D01*
X62081Y-38975D01*
X62104Y-38986D01*
X62149Y-38998D01*
X62205Y-38998D01*
X62250Y-38986D01*
X62273Y-38975D01*
X62284Y-38964D01*
X62295Y-38941D01*
X62295Y-38919D01*
X62284Y-38896D01*
X62273Y-38885D01*
X62250Y-38874D01*
X62205Y-38863D01*
X62149Y-38863D01*
X62104Y-38874D01*
X62081Y-38885D01*
X62070Y-38896D01*
X62059Y-38919D01*
X62295Y-39374D02*
X62295Y-39239D01*
X62295Y-39306D02*
X62059Y-39306D01*
X62093Y-39284D01*
X62115Y-39261D01*
X62126Y-39239D01*
X62059Y-39588D02*
X62059Y-39475D01*
X62171Y-39464D01*
X62160Y-39475D01*
X62149Y-39498D01*
X62149Y-39554D01*
X62160Y-39576D01*
X62171Y-39588D01*
X62194Y-39599D01*
X62250Y-39599D01*
X62273Y-39588D01*
X62284Y-39576D01*
X62295Y-39554D01*
X62295Y-39498D01*
X62284Y-39475D01*
X62273Y-39464D01*
X62059Y-39745D02*
X62059Y-39768D01*
X62070Y-39790D01*
X62081Y-39801D01*
X62104Y-39813D01*
X62149Y-39824D01*
X62205Y-39824D01*
X62250Y-39813D01*
X62273Y-39801D01*
X62284Y-39790D01*
X62295Y-39768D01*
X62295Y-39745D01*
X62284Y-39723D01*
X62273Y-39711D01*
X62250Y-39700D01*
X62205Y-39689D01*
X62149Y-39689D01*
X62104Y-39700D01*
X62081Y-39711D01*
X62070Y-39723D01*
X62059Y-39745D01*
X62295Y-40060D02*
X62183Y-39981D01*
X62295Y-39925D02*
X62059Y-39925D01*
X62059Y-40015D01*
X62070Y-40038D01*
X62081Y-40049D01*
X62104Y-40060D01*
X62138Y-40060D01*
X62160Y-40049D01*
X62171Y-40038D01*
X62183Y-40015D01*
X62183Y-39925D01*
X61045Y-38548D02*
X60933Y-38469D01*
X61045Y-38413D02*
X60809Y-38413D01*
X60809Y-38503D01*
X60820Y-38525D01*
X60831Y-38536D01*
X60854Y-38548D01*
X60888Y-38548D01*
X60910Y-38536D01*
X60921Y-38525D01*
X60933Y-38503D01*
X60933Y-38413D01*
X61045Y-38773D02*
X61045Y-38638D01*
X61045Y-38705D02*
X60809Y-38705D01*
X60843Y-38683D01*
X60865Y-38660D01*
X60876Y-38638D01*
X61045Y-38885D02*
X61045Y-38930D01*
X61034Y-38953D01*
X61023Y-38964D01*
X60989Y-38986D01*
X60944Y-38998D01*
X60854Y-38998D01*
X60831Y-38986D01*
X60820Y-38975D01*
X60809Y-38953D01*
X60809Y-38908D01*
X60820Y-38885D01*
X60831Y-38874D01*
X60854Y-38863D01*
X60910Y-38863D01*
X60933Y-38874D01*
X60944Y-38885D01*
X60955Y-38908D01*
X60955Y-38953D01*
X60944Y-38975D01*
X60933Y-38986D01*
X60910Y-38998D01*
X61045Y-39374D02*
X61045Y-39239D01*
X61045Y-39306D02*
X60809Y-39306D01*
X60843Y-39284D01*
X60865Y-39261D01*
X60876Y-39239D01*
X60809Y-39588D02*
X60809Y-39475D01*
X60921Y-39464D01*
X60910Y-39475D01*
X60899Y-39498D01*
X60899Y-39554D01*
X60910Y-39576D01*
X60921Y-39588D01*
X60944Y-39599D01*
X61000Y-39599D01*
X61023Y-39588D01*
X61034Y-39576D01*
X61045Y-39554D01*
X61045Y-39498D01*
X61034Y-39475D01*
X61023Y-39464D01*
X60809Y-39745D02*
X60809Y-39768D01*
X60820Y-39790D01*
X60831Y-39801D01*
X60854Y-39813D01*
X60899Y-39824D01*
X60955Y-39824D01*
X61000Y-39813D01*
X61023Y-39801D01*
X61034Y-39790D01*
X61045Y-39768D01*
X61045Y-39745D01*
X61034Y-39723D01*
X61023Y-39711D01*
X61000Y-39700D01*
X60955Y-39689D01*
X60899Y-39689D01*
X60854Y-39700D01*
X60831Y-39711D01*
X60820Y-39723D01*
X60809Y-39745D01*
X61045Y-40060D02*
X60933Y-39981D01*
X61045Y-39925D02*
X60809Y-39925D01*
X60809Y-40015D01*
X60820Y-40038D01*
X60831Y-40049D01*
X60854Y-40060D01*
X60888Y-40060D01*
X60910Y-40049D01*
X60921Y-40038D01*
X60933Y-40015D01*
X60933Y-39925D01*
X64745Y-36063D02*
X64509Y-36063D01*
X64509Y-36119D01*
X64520Y-36153D01*
X64543Y-36175D01*
X64565Y-36186D01*
X64610Y-36198D01*
X64644Y-36198D01*
X64689Y-36186D01*
X64711Y-36175D01*
X64734Y-36153D01*
X64745Y-36119D01*
X64745Y-36063D01*
X64745Y-36423D02*
X64745Y-36288D01*
X64745Y-36355D02*
X64509Y-36355D01*
X64543Y-36333D01*
X64565Y-36310D01*
X64576Y-36288D01*
X64745Y-36648D02*
X64745Y-36513D01*
X64745Y-36580D02*
X64509Y-36580D01*
X64543Y-36558D01*
X64565Y-36535D01*
X64576Y-36513D01*
X64745Y-37048D02*
X64633Y-36969D01*
X64745Y-36913D02*
X64509Y-36913D01*
X64509Y-37003D01*
X64520Y-37025D01*
X64531Y-37036D01*
X64554Y-37048D01*
X64588Y-37048D01*
X64610Y-37036D01*
X64621Y-37025D01*
X64633Y-37003D01*
X64633Y-36913D01*
X64621Y-37149D02*
X64621Y-37228D01*
X64745Y-37261D02*
X64745Y-37149D01*
X64509Y-37149D01*
X64509Y-37261D01*
X64745Y-37363D02*
X64509Y-37363D01*
X64509Y-37419D01*
X64520Y-37453D01*
X64543Y-37475D01*
X64565Y-37486D01*
X64610Y-37498D01*
X64644Y-37498D01*
X64689Y-37486D01*
X64711Y-37475D01*
X64734Y-37453D01*
X64745Y-37419D01*
X64745Y-37363D01*
X63495Y-35663D02*
X63259Y-35663D01*
X63259Y-35719D01*
X63270Y-35753D01*
X63293Y-35775D01*
X63315Y-35786D01*
X63360Y-35798D01*
X63394Y-35798D01*
X63439Y-35786D01*
X63461Y-35775D01*
X63484Y-35753D01*
X63495Y-35719D01*
X63495Y-35663D01*
X63495Y-36023D02*
X63495Y-35888D01*
X63495Y-35955D02*
X63259Y-35955D01*
X63293Y-35933D01*
X63315Y-35910D01*
X63326Y-35888D01*
X63259Y-36169D02*
X63259Y-36191D01*
X63270Y-36214D01*
X63281Y-36225D01*
X63304Y-36236D01*
X63349Y-36248D01*
X63405Y-36248D01*
X63450Y-36236D01*
X63473Y-36225D01*
X63484Y-36214D01*
X63495Y-36191D01*
X63495Y-36169D01*
X63484Y-36146D01*
X63473Y-36135D01*
X63450Y-36124D01*
X63405Y-36113D01*
X63349Y-36113D01*
X63304Y-36124D01*
X63281Y-36135D01*
X63270Y-36146D01*
X63259Y-36169D01*
X63383Y-36543D02*
X63495Y-36543D01*
X63259Y-36464D02*
X63383Y-36543D01*
X63259Y-36621D01*
X63371Y-36700D02*
X63371Y-36779D01*
X63495Y-36813D02*
X63495Y-36700D01*
X63259Y-36700D01*
X63259Y-36813D01*
X63495Y-37026D02*
X63495Y-36914D01*
X63259Y-36914D01*
X63495Y-37218D02*
X63495Y-37105D01*
X63259Y-37105D01*
X63259Y-37341D02*
X63259Y-37386D01*
X63270Y-37409D01*
X63293Y-37431D01*
X63338Y-37443D01*
X63416Y-37443D01*
X63461Y-37431D01*
X63484Y-37409D01*
X63495Y-37386D01*
X63495Y-37341D01*
X63484Y-37319D01*
X63461Y-37296D01*
X63416Y-37285D01*
X63338Y-37285D01*
X63293Y-37296D01*
X63270Y-37319D01*
X63259Y-37341D01*
X63259Y-37521D02*
X63495Y-37578D01*
X63326Y-37623D01*
X63495Y-37668D01*
X63259Y-37724D01*
X62245Y-35875D02*
X62009Y-35875D01*
X62009Y-35931D01*
X62020Y-35965D01*
X62043Y-35988D01*
X62065Y-35999D01*
X62110Y-36010D01*
X62144Y-36010D01*
X62189Y-35999D01*
X62211Y-35988D01*
X62234Y-35965D01*
X62245Y-35931D01*
X62245Y-35875D01*
X62245Y-36123D02*
X62245Y-36168D01*
X62234Y-36190D01*
X62223Y-36201D01*
X62189Y-36224D01*
X62144Y-36235D01*
X62054Y-36235D01*
X62031Y-36224D01*
X62020Y-36213D01*
X62009Y-36190D01*
X62009Y-36145D01*
X62020Y-36123D01*
X62031Y-36111D01*
X62054Y-36100D01*
X62110Y-36100D01*
X62133Y-36111D01*
X62144Y-36123D01*
X62155Y-36145D01*
X62155Y-36190D01*
X62144Y-36213D01*
X62133Y-36224D01*
X62110Y-36235D01*
X62020Y-36606D02*
X62009Y-36583D01*
X62009Y-36550D01*
X62020Y-36516D01*
X62043Y-36493D01*
X62065Y-36482D01*
X62110Y-36471D01*
X62144Y-36471D01*
X62189Y-36482D01*
X62211Y-36493D01*
X62234Y-36516D01*
X62245Y-36550D01*
X62245Y-36572D01*
X62234Y-36606D01*
X62223Y-36617D01*
X62144Y-36617D01*
X62144Y-36572D01*
X62245Y-36853D02*
X62133Y-36775D01*
X62245Y-36718D02*
X62009Y-36718D01*
X62009Y-36808D01*
X62020Y-36831D01*
X62031Y-36842D01*
X62054Y-36853D01*
X62088Y-36853D01*
X62110Y-36842D01*
X62121Y-36831D01*
X62133Y-36808D01*
X62133Y-36718D01*
X62121Y-36955D02*
X62121Y-37033D01*
X62245Y-37067D02*
X62245Y-36955D01*
X62009Y-36955D01*
X62009Y-37067D01*
X62121Y-37168D02*
X62121Y-37247D01*
X62245Y-37281D02*
X62245Y-37168D01*
X62009Y-37168D01*
X62009Y-37281D01*
X62245Y-37382D02*
X62009Y-37382D01*
X62245Y-37517D01*
X62009Y-37517D01*
X60995Y-36025D02*
X60759Y-36025D01*
X60759Y-36081D01*
X60770Y-36115D01*
X60793Y-36138D01*
X60815Y-36149D01*
X60860Y-36160D01*
X60894Y-36160D01*
X60939Y-36149D01*
X60961Y-36138D01*
X60984Y-36115D01*
X60995Y-36081D01*
X60995Y-36025D01*
X60860Y-36295D02*
X60849Y-36273D01*
X60838Y-36261D01*
X60815Y-36250D01*
X60804Y-36250D01*
X60781Y-36261D01*
X60770Y-36273D01*
X60759Y-36295D01*
X60759Y-36340D01*
X60770Y-36363D01*
X60781Y-36374D01*
X60804Y-36385D01*
X60815Y-36385D01*
X60838Y-36374D01*
X60849Y-36363D01*
X60860Y-36340D01*
X60860Y-36295D01*
X60871Y-36273D01*
X60883Y-36261D01*
X60905Y-36250D01*
X60950Y-36250D01*
X60973Y-36261D01*
X60984Y-36273D01*
X60995Y-36295D01*
X60995Y-36340D01*
X60984Y-36363D01*
X60973Y-36374D01*
X60950Y-36385D01*
X60905Y-36385D01*
X60883Y-36374D01*
X60871Y-36363D01*
X60860Y-36340D01*
X60871Y-36740D02*
X60883Y-36774D01*
X60894Y-36785D01*
X60916Y-36796D01*
X60950Y-36796D01*
X60973Y-36785D01*
X60984Y-36774D01*
X60995Y-36751D01*
X60995Y-36661D01*
X60759Y-36661D01*
X60759Y-36740D01*
X60770Y-36763D01*
X60781Y-36774D01*
X60804Y-36785D01*
X60826Y-36785D01*
X60849Y-36774D01*
X60860Y-36763D01*
X60871Y-36740D01*
X60871Y-36661D01*
X60995Y-37010D02*
X60995Y-36898D01*
X60759Y-36898D01*
X60759Y-37089D02*
X60950Y-37089D01*
X60973Y-37100D01*
X60984Y-37111D01*
X60995Y-37134D01*
X60995Y-37179D01*
X60984Y-37201D01*
X60973Y-37213D01*
X60950Y-37224D01*
X60759Y-37224D01*
X60871Y-37336D02*
X60871Y-37415D01*
X60995Y-37449D02*
X60995Y-37336D01*
X60759Y-37336D01*
X60759Y-37449D01*
%LPC*%
G54D18*
X64000Y-39550D03*
X64000Y-38950D03*
G54D19*
X61392Y-34000D03*
X61392Y-33500D03*
X61392Y-33000D03*
X61392Y-32500D03*
G54D20*
X61392Y-32000D03*
G54D19*
X61392Y-31500D03*
X61392Y-31000D03*
X64207Y-31000D03*
X64207Y-31500D03*
X64207Y-32000D03*
X64207Y-32500D03*
X64207Y-33000D03*
X64207Y-33500D03*
X64207Y-34000D03*
G54D21*
X52218Y-33684D03*
X52218Y-33428D03*
X52218Y-33172D03*
X52218Y-32916D03*
X54581Y-32916D03*
X54581Y-33172D03*
X54581Y-33428D03*
X54581Y-33684D03*
G54D19*
X63542Y-45500D03*
X66357Y-45500D03*
X63542Y-45000D03*
X66357Y-45000D03*
X63542Y-44500D03*
X66357Y-44500D03*
X63542Y-44000D03*
X66357Y-44000D03*
X63542Y-43500D03*
X66357Y-43500D03*
X63542Y-43000D03*
X66357Y-43000D03*
X63542Y-42500D03*
X66357Y-42500D03*
X63542Y-42000D03*
X66357Y-42000D03*
G54D22*
X55600Y-29550D03*
G54D23*
X55600Y-30550D03*
G54D24*
X55125Y-35350D03*
X54375Y-35350D03*
X54750Y-36350D03*
G54D25*
X50800Y-30971D03*
G54D26*
X50406Y-29691D03*
X51194Y-29691D03*
G54D25*
X66500Y-30921D03*
G54D26*
X66106Y-29641D03*
X66894Y-29641D03*
X54488Y-29850D03*
X53111Y-29850D03*
X53111Y-31450D03*
X54488Y-31450D03*
G54D27*
X50663Y-45081D03*
X52237Y-45081D03*
X50663Y-42719D03*
X52237Y-42719D03*
G54D28*
X55025Y-42000D03*
X54275Y-42000D03*
X55025Y-43250D03*
X54275Y-43250D03*
X55025Y-44500D03*
X54275Y-44500D03*
X55025Y-45750D03*
X54275Y-45750D03*
X58425Y-42000D03*
X57675Y-42000D03*
X58425Y-43250D03*
X57675Y-43250D03*
X58425Y-44500D03*
X57675Y-44500D03*
X58425Y-45750D03*
X57675Y-45750D03*
G54D29*
X59550Y-34875D03*
X59550Y-34125D03*
G54D28*
X52475Y-36400D03*
X53225Y-36400D03*
X53225Y-35100D03*
X52475Y-35100D03*
G54D30*
X66250Y-32600D03*
X66250Y-33900D03*
X59550Y-32650D03*
X59550Y-31350D03*
X56400Y-33900D03*
X56400Y-32600D03*
X50850Y-35100D03*
X50850Y-36400D03*
G54D31*
X51750Y-46500D03*
X51150Y-46500D03*
X65250Y-46500D03*
X64650Y-46500D03*
X50500Y-32200D03*
X51100Y-32200D03*
X62600Y-29850D03*
X63200Y-29850D03*
G54D18*
X66750Y-36450D03*
X66750Y-37050D03*
X65250Y-39550D03*
X65250Y-38950D03*
X62750Y-39550D03*
X62750Y-38950D03*
X61500Y-39550D03*
X61500Y-38950D03*
X65250Y-36450D03*
X65250Y-37050D03*
X64000Y-36450D03*
X64000Y-37050D03*
X62750Y-36450D03*
X62750Y-37050D03*
X61500Y-36450D03*
X61500Y-37050D03*
M02*
