M48
INCH,TZ
T1C0.025
T2C0.032
T3C0.040
%
G90
G05
T1
X53450Y-44400
X57000Y-40500
X59750Y-41250
X60500Y-36000
X61400Y-32500
X65050Y-32500
X66850Y-46550
X66950Y-29225
X67500Y-32500
T2
X55600Y-29550
X55600Y-30550
T3
X50016Y-37750
X50016Y-45000
X51984Y-37750
X51984Y-45000
X54016Y-43250
X55984Y-43250
X57811Y-30750
X59189Y-30750
X65016Y-41250
X66984Y-41250
T0
M30
