G04 (created by PCBNEW (2013-mar-13)-testing) date Mon 25 Mar 2013 01:51:38 PM CET*
%MOIN*%
G04 Gerber Fmt 3.4, Leading zero omitted, Abs format*
%FSLAX34Y34*%
G01*
G70*
G90*
G04 APERTURE LIST*
%ADD10C,2.3622e-06*%
%ADD11C,0.0049*%
%ADD12C,0.015*%
%ADD13R,0.035X0.055*%
%ADD14R,0.055X0.035*%
%ADD15R,0.025X0.045*%
%ADD16R,0.045X0.025*%
%ADD17R,0.05X0.016*%
%ADD18C,0.04*%
%ADD19C,0.065*%
%ADD20R,0.055X0.055*%
%ADD21C,0.055*%
%ADD22R,0.0551X0.1142*%
%ADD23R,0.024X0.035*%
%ADD24R,0.0472X0.0472*%
%ADD25R,0.045X0.02*%
%ADD26R,0.0591X0.063*%
%ADD27R,0.0709X0.0472*%
%ADD28R,0.061X0.024*%
%ADD29R,0.08X0.06*%
%ADD30R,0.0157X0.0216*%
%ADD31C,0.035*%
%ADD32C,0.012*%
%ADD33C,0.025*%
%ADD34C,0.01*%
G04 APERTURE END LIST*
G54D10*
G54D11*
X58252Y-33759D02*
X58252Y-33365D01*
X58252Y-33740D02*
X58282Y-33759D01*
X58342Y-33759D01*
X58372Y-33740D01*
X58387Y-33721D01*
X58402Y-33684D01*
X58402Y-33571D01*
X58387Y-33534D01*
X58372Y-33515D01*
X58342Y-33496D01*
X58282Y-33496D01*
X58252Y-33515D01*
X58117Y-33271D02*
X58087Y-33252D01*
X58042Y-33252D01*
X58012Y-33271D01*
X57997Y-33309D01*
X57997Y-33346D01*
X58012Y-33384D01*
X58117Y-33515D01*
X57997Y-33515D01*
G54D12*
X67250Y-28250D02*
X49750Y-28250D01*
X68250Y-46750D02*
X68250Y-29250D01*
X68250Y-29250D02*
G75*
G03X67250Y-28250I-1000J0D01*
G74*
G01*
X50000Y-47750D02*
X67250Y-47750D01*
X48750Y-46500D02*
X48750Y-29250D01*
X48750Y-46500D02*
G75*
G03X50000Y-47750I1250J0D01*
G74*
G01*
X67250Y-47750D02*
G75*
G03X68250Y-46750I0J1000D01*
G74*
G01*
X49750Y-28250D02*
G75*
G03X48750Y-29250I0J-1000D01*
G74*
G01*
G54D13*
X52675Y-36400D03*
X53425Y-36400D03*
G54D14*
X59950Y-34825D03*
X59950Y-34075D03*
G54D15*
X50500Y-32200D03*
X51100Y-32200D03*
G54D16*
X65250Y-36450D03*
X65250Y-37050D03*
X64000Y-36450D03*
X64000Y-37050D03*
X62750Y-36450D03*
X62750Y-37050D03*
X61500Y-36450D03*
X61500Y-37050D03*
G54D13*
X58875Y-42000D03*
X58125Y-42000D03*
X58875Y-43250D03*
X58125Y-43250D03*
X58875Y-44500D03*
X58125Y-44500D03*
X58875Y-45750D03*
X58125Y-45750D03*
G54D17*
X53975Y-32915D03*
X53975Y-33170D03*
X53975Y-33430D03*
X53975Y-33685D03*
X52225Y-33685D03*
X52225Y-33430D03*
X52225Y-33170D03*
X52225Y-32915D03*
G54D18*
X59189Y-30750D03*
X57811Y-30750D03*
G54D19*
X50016Y-45000D03*
X51984Y-45000D03*
X50016Y-37750D03*
X51984Y-37750D03*
X65016Y-41250D03*
X66984Y-41250D03*
G54D20*
X55600Y-29550D03*
G54D21*
X55600Y-30550D03*
G54D22*
X54213Y-44431D03*
X55787Y-44431D03*
X54213Y-42069D03*
X55787Y-42069D03*
G54D19*
X54016Y-43250D03*
X55984Y-43250D03*
G54D23*
X55325Y-35350D03*
X54575Y-35350D03*
X54950Y-36350D03*
G54D24*
X54471Y-29850D03*
X53329Y-29850D03*
X53329Y-31450D03*
X54471Y-31450D03*
G54D25*
X62150Y-34000D03*
X62150Y-33500D03*
X62150Y-33000D03*
X62150Y-32500D03*
X62150Y-32000D03*
X62150Y-31500D03*
X62150Y-31000D03*
X64250Y-31000D03*
X64250Y-31500D03*
X64250Y-32000D03*
X64250Y-32500D03*
X64250Y-33000D03*
X64250Y-33500D03*
X64250Y-34000D03*
G54D26*
X50429Y-30600D03*
G54D24*
X51709Y-30206D03*
X51709Y-30994D03*
G54D26*
X65679Y-30500D03*
G54D24*
X66959Y-30106D03*
X66959Y-30894D03*
G54D27*
X60000Y-32630D03*
X60000Y-31370D03*
X56000Y-33880D03*
X56000Y-32620D03*
G54D28*
X64437Y-45500D03*
X66563Y-45500D03*
X64437Y-45000D03*
X66563Y-45000D03*
X64437Y-44500D03*
X66563Y-44500D03*
X64437Y-44000D03*
X66563Y-44000D03*
X64437Y-43500D03*
X66563Y-43500D03*
X64437Y-43000D03*
X66563Y-43000D03*
X64437Y-42500D03*
X66563Y-42500D03*
X64437Y-42000D03*
X66563Y-42000D03*
G54D13*
X61625Y-45750D03*
X60875Y-45750D03*
X61625Y-44500D03*
X60875Y-44500D03*
X61625Y-43250D03*
X60875Y-43250D03*
X61625Y-42000D03*
X60875Y-42000D03*
G54D16*
X61500Y-39550D03*
X61500Y-38950D03*
X62750Y-39550D03*
X62750Y-38950D03*
X64000Y-39550D03*
X64000Y-38950D03*
X65250Y-39550D03*
X65250Y-38950D03*
X66750Y-36450D03*
X66750Y-37050D03*
G54D29*
X50000Y-33600D03*
X50000Y-34900D03*
X66250Y-32600D03*
X66250Y-33900D03*
G54D30*
X65657Y-46550D03*
X65343Y-46550D03*
X63093Y-29750D03*
X63407Y-29750D03*
X55157Y-46050D03*
X54843Y-46050D03*
G54D13*
X53425Y-35100D03*
X52675Y-35100D03*
G54D31*
X60500Y-36000D03*
X66950Y-29225D03*
X66850Y-46550D03*
X57000Y-40500D03*
X61400Y-32500D03*
X53450Y-44400D03*
X65050Y-32500D03*
X67500Y-32500D03*
X59750Y-41250D03*
G54D32*
X53425Y-35100D02*
X53425Y-34725D01*
X53150Y-33820D02*
X53285Y-33685D01*
X53150Y-34450D02*
X53150Y-33820D01*
X53425Y-34725D02*
X53150Y-34450D01*
X65657Y-46550D02*
X66213Y-46550D01*
X66213Y-46550D02*
X66563Y-46200D01*
G54D33*
X66563Y-45500D02*
X66563Y-46200D01*
X66563Y-46200D02*
X66563Y-46213D01*
X66563Y-46213D02*
X66900Y-46550D01*
X66900Y-46550D02*
X66850Y-46550D01*
X60500Y-35650D02*
X60500Y-35100D01*
X60500Y-35650D02*
X60500Y-36000D01*
X60500Y-36000D02*
X60500Y-40000D01*
X54213Y-42069D02*
X55782Y-40500D01*
X60000Y-40500D02*
X57000Y-40500D01*
X57000Y-40500D02*
X55782Y-40500D01*
X60500Y-40000D02*
X60000Y-40500D01*
X60225Y-34825D02*
X59950Y-34825D01*
X60500Y-35100D02*
X60225Y-34825D01*
G54D32*
X59400Y-34880D02*
X59895Y-34880D01*
X59895Y-34880D02*
X59950Y-34825D01*
X56930Y-34880D02*
X59400Y-34880D01*
X56700Y-34650D02*
X56930Y-34880D01*
X56700Y-33500D02*
X56700Y-34650D01*
X56500Y-33300D02*
X56700Y-33500D01*
X55150Y-33300D02*
X56500Y-33300D01*
X54765Y-33685D02*
X55150Y-33300D01*
X53975Y-33685D02*
X54765Y-33685D01*
X52225Y-32915D02*
X51315Y-32915D01*
X51100Y-32700D02*
X51100Y-32200D01*
X51315Y-32915D02*
X51100Y-32700D01*
G54D33*
X66959Y-30106D02*
X66959Y-29234D01*
X66959Y-29234D02*
X66950Y-29225D01*
G54D32*
X52225Y-32915D02*
X53015Y-32915D01*
X53015Y-32915D02*
X53150Y-33050D01*
X53150Y-33050D02*
X53150Y-33550D01*
X53150Y-33550D02*
X53285Y-33685D01*
X53285Y-33685D02*
X53300Y-33685D01*
X53300Y-33685D02*
X53975Y-33685D01*
G54D33*
X54213Y-44431D02*
X53481Y-44431D01*
X53481Y-44431D02*
X53450Y-44400D01*
X54213Y-44431D02*
X54213Y-43447D01*
X54213Y-43447D02*
X54016Y-43250D01*
X54016Y-43250D02*
X54050Y-43250D01*
X54050Y-43250D02*
X54213Y-43087D01*
X54213Y-43087D02*
X54213Y-42069D01*
X62150Y-32500D02*
X61400Y-32500D01*
G54D32*
X60850Y-29750D02*
X61300Y-29750D01*
X58750Y-29750D02*
X60850Y-29750D01*
X58500Y-30000D02*
X58750Y-29750D01*
X58500Y-30250D02*
X58500Y-30000D01*
X58500Y-31750D02*
X58500Y-30250D01*
X58750Y-32000D02*
X58500Y-31750D01*
X60500Y-32000D02*
X60300Y-32000D01*
X60300Y-32000D02*
X58750Y-32000D01*
X60700Y-32000D02*
X60500Y-32000D01*
X60850Y-32150D02*
X60700Y-32000D01*
X65679Y-30379D02*
X65679Y-30500D01*
X64600Y-29300D02*
X65679Y-30379D01*
X61750Y-29300D02*
X64600Y-29300D01*
X61300Y-29750D02*
X61750Y-29300D01*
X62150Y-32000D02*
X61000Y-32000D01*
X61000Y-32000D02*
X60850Y-32150D01*
X62150Y-33000D02*
X61000Y-33000D01*
X60850Y-32850D02*
X60850Y-32150D01*
X61000Y-33000D02*
X60850Y-32850D01*
X65350Y-33000D02*
X65550Y-32800D01*
X65350Y-32000D02*
X64250Y-32000D01*
X65550Y-32200D02*
X65350Y-32000D01*
X65550Y-32800D02*
X65550Y-32200D01*
X64250Y-33000D02*
X65350Y-33000D01*
X65350Y-33000D02*
X65400Y-33000D01*
X65400Y-33000D02*
X65650Y-33250D01*
X65650Y-33250D02*
X66850Y-33250D01*
X66850Y-33250D02*
X67100Y-33000D01*
X67100Y-33000D02*
X67100Y-31921D01*
X67100Y-31921D02*
X65679Y-30500D01*
X55157Y-46050D02*
X55300Y-46050D01*
X55300Y-46050D02*
X55600Y-46050D01*
X55787Y-44431D02*
X55787Y-45863D01*
X55787Y-45863D02*
X55600Y-46050D01*
X55600Y-46050D02*
X55850Y-46050D01*
X63900Y-45500D02*
X62800Y-46600D01*
X63900Y-45500D02*
X64437Y-45500D01*
X56100Y-46050D02*
X55850Y-46050D01*
X56650Y-46600D02*
X56100Y-46050D01*
X62800Y-46600D02*
X56650Y-46600D01*
X55787Y-42069D02*
X55787Y-43053D01*
X55787Y-43053D02*
X55984Y-43250D01*
X55984Y-43250D02*
X55984Y-43266D01*
X55984Y-43266D02*
X55787Y-43463D01*
X55787Y-43463D02*
X55787Y-44431D01*
X50500Y-32200D02*
X50500Y-30671D01*
X50500Y-30671D02*
X50429Y-30600D01*
X52225Y-33170D02*
X50820Y-33170D01*
X50500Y-32850D02*
X50500Y-32200D01*
X50820Y-33170D02*
X50500Y-32850D01*
X53975Y-33170D02*
X53620Y-33170D01*
X54471Y-32079D02*
X54471Y-31450D01*
X54250Y-32300D02*
X54471Y-32079D01*
X53450Y-32300D02*
X54250Y-32300D01*
X53300Y-32450D02*
X53450Y-32300D01*
X53300Y-32850D02*
X53300Y-32450D01*
X53620Y-33170D02*
X53300Y-32850D01*
X54471Y-29850D02*
X54471Y-31450D01*
X54471Y-29850D02*
X54471Y-29121D01*
X54471Y-29121D02*
X54300Y-28950D01*
X54300Y-28950D02*
X50150Y-28950D01*
X54250Y-28950D02*
X54300Y-28950D01*
X50150Y-28950D02*
X49750Y-29350D01*
X49750Y-29350D02*
X49750Y-33350D01*
X49750Y-33350D02*
X50000Y-33600D01*
X52225Y-33430D02*
X50170Y-33430D01*
X50170Y-33430D02*
X50000Y-33600D01*
X54843Y-46050D02*
X51066Y-46050D01*
X51066Y-46050D02*
X50016Y-45000D01*
G54D33*
X66959Y-30894D02*
X67144Y-30894D01*
X67500Y-31250D02*
X67500Y-32500D01*
X67144Y-30894D02*
X67500Y-31250D01*
X65050Y-32500D02*
X64250Y-32500D01*
X67500Y-32500D02*
X67500Y-32500D01*
G54D32*
X55600Y-30550D02*
X55600Y-31800D01*
X54485Y-32915D02*
X53975Y-32915D01*
X55600Y-31800D02*
X54485Y-32915D01*
X52225Y-33685D02*
X51915Y-33685D01*
X51270Y-34880D02*
X50000Y-34880D01*
X51700Y-34450D02*
X51270Y-34880D01*
X51700Y-33900D02*
X51700Y-34450D01*
X51915Y-33685D02*
X51700Y-33900D01*
X52675Y-35100D02*
X52675Y-36400D01*
X54950Y-36350D02*
X54800Y-36500D01*
X53525Y-36500D02*
X53425Y-36400D01*
X54800Y-36500D02*
X53525Y-36500D01*
X55325Y-35350D02*
X55800Y-35350D01*
X56000Y-35150D02*
X56000Y-33880D01*
X55800Y-35350D02*
X56000Y-35150D01*
X64000Y-37050D02*
X64000Y-38950D01*
X65250Y-37050D02*
X65250Y-38950D01*
X60200Y-33500D02*
X62150Y-33500D01*
X59950Y-34075D02*
X59950Y-33750D01*
X60000Y-33300D02*
X60200Y-33500D01*
X60000Y-33300D02*
X60000Y-32630D01*
X59950Y-33750D02*
X60200Y-33500D01*
X63093Y-29750D02*
X62950Y-29750D01*
X62950Y-29750D02*
X62600Y-29750D01*
X62620Y-29750D02*
X62600Y-29750D01*
X62600Y-29750D02*
X62000Y-29750D01*
X60000Y-30500D02*
X60000Y-31370D01*
X60250Y-30250D02*
X60000Y-30500D01*
X61500Y-30250D02*
X60250Y-30250D01*
X62000Y-29750D02*
X61500Y-30250D01*
X62150Y-31500D02*
X61500Y-31500D01*
X61500Y-31500D02*
X60130Y-31500D01*
X60130Y-31500D02*
X60000Y-31370D01*
X64250Y-31000D02*
X63950Y-31000D01*
X64000Y-34650D02*
X64000Y-36450D01*
X63650Y-34300D02*
X64000Y-34650D01*
X63650Y-31300D02*
X63650Y-34300D01*
X63950Y-31000D02*
X63650Y-31300D01*
X64250Y-34000D02*
X64950Y-34000D01*
X65250Y-34300D02*
X65250Y-36100D01*
X64950Y-34000D02*
X65250Y-34300D01*
X65250Y-36100D02*
X65250Y-36450D01*
X65250Y-36120D02*
X65250Y-36100D01*
X64250Y-33500D02*
X65150Y-33500D01*
X65550Y-33900D02*
X66250Y-33900D01*
X65150Y-33500D02*
X65550Y-33900D01*
X66250Y-33900D02*
X66250Y-34900D01*
X66750Y-35400D02*
X66750Y-36450D01*
X66250Y-34900D02*
X66750Y-35400D01*
X61500Y-36450D02*
X61500Y-34300D01*
X61800Y-34000D02*
X62150Y-34000D01*
X61500Y-34300D02*
X61800Y-34000D01*
X61500Y-37050D02*
X61500Y-38950D01*
X62750Y-37050D02*
X62750Y-38950D01*
X62750Y-36100D02*
X62750Y-36450D01*
X62750Y-36120D02*
X62750Y-36100D01*
X62750Y-36100D02*
X62750Y-34750D01*
X62750Y-31000D02*
X62150Y-31000D01*
X63000Y-31250D02*
X62750Y-31000D01*
X63000Y-34500D02*
X63000Y-31250D01*
X62750Y-34750D02*
X63000Y-34500D01*
X53975Y-33430D02*
X54620Y-33430D01*
X55130Y-32620D02*
X56000Y-32620D01*
X54900Y-32850D02*
X55130Y-32620D01*
X54900Y-33150D02*
X54900Y-32850D01*
X54620Y-33430D02*
X54900Y-33150D01*
X53329Y-31450D02*
X52800Y-31450D01*
X51815Y-31100D02*
X51709Y-30994D01*
X52450Y-31100D02*
X51815Y-31100D01*
X52800Y-31450D02*
X52450Y-31100D01*
X51709Y-30206D02*
X52444Y-30206D01*
X52800Y-29850D02*
X53329Y-29850D01*
X52444Y-30206D02*
X52800Y-29850D01*
X63407Y-29750D02*
X63550Y-29750D01*
X63880Y-29750D02*
X64400Y-29750D01*
X64900Y-31250D02*
X65150Y-31500D01*
X64900Y-30250D02*
X64900Y-31250D01*
X64400Y-29750D02*
X64900Y-30250D01*
X63550Y-29750D02*
X63880Y-29750D01*
X64250Y-31500D02*
X65150Y-31500D01*
X65150Y-31500D02*
X65850Y-31500D01*
X66250Y-31900D02*
X66250Y-32600D01*
X65850Y-31500D02*
X66250Y-31900D01*
X60875Y-42000D02*
X58875Y-42000D01*
X61625Y-42000D02*
X63250Y-42000D01*
X63750Y-43000D02*
X64437Y-43000D01*
X63500Y-42750D02*
X63750Y-43000D01*
X63500Y-42250D02*
X63500Y-42750D01*
X63250Y-42000D02*
X63500Y-42250D01*
X64437Y-45000D02*
X65150Y-45000D01*
X65343Y-45193D02*
X65343Y-46550D01*
X65150Y-45000D02*
X65343Y-45193D01*
X61625Y-44500D02*
X62750Y-44500D01*
X63250Y-44000D02*
X64437Y-44000D01*
X62750Y-44500D02*
X63250Y-44000D01*
X60875Y-44500D02*
X58875Y-44500D01*
X60875Y-45750D02*
X58875Y-45750D01*
X64437Y-44500D02*
X63750Y-44500D01*
X63000Y-45750D02*
X61625Y-45750D01*
X63500Y-45250D02*
X63000Y-45750D01*
X63500Y-44750D02*
X63500Y-45250D01*
X63750Y-44500D02*
X63500Y-44750D01*
X61625Y-43250D02*
X63000Y-43250D01*
X63250Y-43500D02*
X64437Y-43500D01*
X63000Y-43250D02*
X63250Y-43500D01*
X60875Y-43250D02*
X58875Y-43250D01*
G54D10*
G36*
X65240Y-32671D02*
X65221Y-32690D01*
X64708Y-32690D01*
X64725Y-32649D01*
X64725Y-32612D01*
X64662Y-32550D01*
X64300Y-32550D01*
X64300Y-32557D01*
X64200Y-32557D01*
X64200Y-32550D01*
X64192Y-32550D01*
X64192Y-32450D01*
X64200Y-32450D01*
X64200Y-32442D01*
X64300Y-32442D01*
X64300Y-32450D01*
X64662Y-32450D01*
X64725Y-32387D01*
X64725Y-32350D01*
X64708Y-32310D01*
X65221Y-32310D01*
X65240Y-32328D01*
X65240Y-32671D01*
X65240Y-32671D01*
G37*
G54D34*
X65240Y-32671D02*
X65221Y-32690D01*
X64708Y-32690D01*
X64725Y-32649D01*
X64725Y-32612D01*
X64662Y-32550D01*
X64300Y-32550D01*
X64300Y-32557D01*
X64200Y-32557D01*
X64200Y-32550D01*
X64192Y-32550D01*
X64192Y-32450D01*
X64200Y-32450D01*
X64200Y-32442D01*
X64300Y-32442D01*
X64300Y-32450D01*
X64662Y-32450D01*
X64725Y-32387D01*
X64725Y-32350D01*
X64708Y-32310D01*
X65221Y-32310D01*
X65240Y-32328D01*
X65240Y-32671D01*
G54D10*
G36*
X67925Y-46716D02*
X67867Y-47006D01*
X67723Y-47222D01*
X67559Y-47332D01*
X67559Y-41136D01*
X67471Y-40924D01*
X67445Y-40897D01*
X67445Y-31179D01*
X67445Y-31006D01*
X67382Y-30944D01*
X67009Y-30944D01*
X67009Y-30951D01*
X66909Y-30951D01*
X66909Y-30944D01*
X66901Y-30944D01*
X66901Y-30844D01*
X66909Y-30844D01*
X66909Y-30836D01*
X67009Y-30836D01*
X67009Y-30844D01*
X67382Y-30844D01*
X67445Y-30781D01*
X67445Y-30608D01*
X67407Y-30516D01*
X67390Y-30500D01*
X67406Y-30483D01*
X67444Y-30391D01*
X67445Y-30292D01*
X67445Y-29820D01*
X67407Y-29728D01*
X67336Y-29658D01*
X67334Y-29657D01*
X67334Y-29408D01*
X67374Y-29309D01*
X67375Y-29140D01*
X67310Y-28984D01*
X67191Y-28864D01*
X67034Y-28800D01*
X66865Y-28799D01*
X66709Y-28864D01*
X66589Y-28983D01*
X66525Y-29140D01*
X66524Y-29309D01*
X66584Y-29452D01*
X66584Y-29656D01*
X66581Y-29657D01*
X66511Y-29728D01*
X66473Y-29820D01*
X66472Y-29919D01*
X66472Y-30391D01*
X66510Y-30483D01*
X66527Y-30500D01*
X66510Y-30516D01*
X66472Y-30608D01*
X66473Y-30781D01*
X66535Y-30843D01*
X66473Y-30843D01*
X66473Y-30855D01*
X66224Y-30607D01*
X66224Y-30135D01*
X66186Y-30043D01*
X66116Y-29973D01*
X66024Y-29935D01*
X65924Y-29934D01*
X65673Y-29934D01*
X64819Y-29080D01*
X64718Y-29013D01*
X64600Y-28990D01*
X61750Y-28990D01*
X61631Y-29013D01*
X61530Y-29080D01*
X61171Y-29440D01*
X60850Y-29440D01*
X58750Y-29440D01*
X58631Y-29463D01*
X58591Y-29490D01*
X58530Y-29530D01*
X58530Y-29530D01*
X58280Y-29780D01*
X58213Y-29881D01*
X58190Y-30000D01*
X58190Y-30250D01*
X58190Y-30492D01*
X58066Y-30368D01*
X57900Y-30300D01*
X57721Y-30299D01*
X57556Y-30368D01*
X57429Y-30494D01*
X57361Y-30660D01*
X57360Y-30839D01*
X57429Y-31004D01*
X57555Y-31131D01*
X57721Y-31199D01*
X57900Y-31200D01*
X58065Y-31131D01*
X58190Y-31007D01*
X58190Y-31750D01*
X58213Y-31868D01*
X58280Y-31969D01*
X58530Y-32219D01*
X58530Y-32219D01*
X58591Y-32259D01*
X58631Y-32286D01*
X58631Y-32286D01*
X58750Y-32310D01*
X59409Y-32310D01*
X59395Y-32344D01*
X59395Y-32443D01*
X59395Y-32915D01*
X59433Y-33007D01*
X59503Y-33077D01*
X59595Y-33115D01*
X59690Y-33116D01*
X59690Y-33300D01*
X59713Y-33418D01*
X59765Y-33496D01*
X59730Y-33530D01*
X59663Y-33631D01*
X59659Y-33649D01*
X59625Y-33649D01*
X59533Y-33687D01*
X59463Y-33758D01*
X59425Y-33850D01*
X59424Y-33949D01*
X59424Y-34299D01*
X59462Y-34391D01*
X59521Y-34450D01*
X59463Y-34508D01*
X59437Y-34570D01*
X59400Y-34570D01*
X58737Y-34570D01*
X58737Y-34150D01*
X58737Y-33000D01*
X57663Y-33000D01*
X57663Y-34150D01*
X58737Y-34150D01*
X58737Y-34570D01*
X57058Y-34570D01*
X57010Y-34521D01*
X57010Y-33500D01*
X56986Y-33381D01*
X56919Y-33280D01*
X56719Y-33080D01*
X56618Y-33013D01*
X56561Y-33002D01*
X56566Y-32997D01*
X56604Y-32905D01*
X56604Y-32806D01*
X56604Y-32334D01*
X56566Y-32242D01*
X56496Y-32172D01*
X56404Y-32134D01*
X56304Y-32133D01*
X56129Y-32133D01*
X56129Y-30625D01*
X56125Y-30536D01*
X56125Y-29775D01*
X56125Y-29225D01*
X56087Y-29133D01*
X56016Y-29063D01*
X55924Y-29025D01*
X55825Y-29024D01*
X55275Y-29024D01*
X55183Y-29062D01*
X55113Y-29133D01*
X55075Y-29225D01*
X55074Y-29324D01*
X55074Y-29874D01*
X55112Y-29966D01*
X55183Y-30036D01*
X55275Y-30074D01*
X55362Y-30075D01*
X55327Y-30089D01*
X55302Y-30182D01*
X55600Y-30479D01*
X55897Y-30182D01*
X55872Y-30089D01*
X55831Y-30075D01*
X55924Y-30075D01*
X56016Y-30037D01*
X56086Y-29966D01*
X56124Y-29874D01*
X56125Y-29775D01*
X56125Y-30536D01*
X56118Y-30417D01*
X56060Y-30277D01*
X55967Y-30252D01*
X55670Y-30550D01*
X55967Y-30847D01*
X56060Y-30822D01*
X56129Y-30625D01*
X56129Y-32133D01*
X55897Y-32133D01*
X55897Y-30917D01*
X55600Y-30620D01*
X55529Y-30691D01*
X55529Y-30550D01*
X55232Y-30252D01*
X55139Y-30277D01*
X55070Y-30474D01*
X55081Y-30682D01*
X55139Y-30822D01*
X55232Y-30847D01*
X55529Y-30550D01*
X55529Y-30691D01*
X55302Y-30917D01*
X55327Y-31010D01*
X55524Y-31079D01*
X55732Y-31068D01*
X55872Y-31010D01*
X55897Y-30917D01*
X55897Y-32133D01*
X55595Y-32133D01*
X55504Y-32171D01*
X55433Y-32242D01*
X55405Y-32310D01*
X55130Y-32310D01*
X55011Y-32333D01*
X54910Y-32400D01*
X54910Y-32400D01*
X54680Y-32630D01*
X54613Y-32731D01*
X54590Y-32850D01*
X54590Y-33021D01*
X54491Y-33120D01*
X54475Y-33120D01*
X54475Y-33044D01*
X54475Y-33040D01*
X54475Y-33040D01*
X54475Y-33017D01*
X54458Y-33001D01*
X54437Y-32948D01*
X54366Y-32878D01*
X54359Y-32875D01*
X54412Y-32875D01*
X54475Y-32812D01*
X54475Y-32785D01*
X54437Y-32693D01*
X54366Y-32623D01*
X54307Y-32598D01*
X54368Y-32586D01*
X54469Y-32519D01*
X54690Y-32298D01*
X54690Y-32298D01*
X54690Y-32298D01*
X54730Y-32237D01*
X54757Y-32197D01*
X54757Y-32197D01*
X54781Y-32079D01*
X54781Y-31925D01*
X54848Y-31898D01*
X54918Y-31827D01*
X54956Y-31735D01*
X54957Y-31636D01*
X54957Y-31164D01*
X54919Y-31072D01*
X54848Y-31002D01*
X54781Y-30974D01*
X54781Y-30325D01*
X54848Y-30298D01*
X54918Y-30227D01*
X54956Y-30135D01*
X54957Y-30036D01*
X54957Y-29564D01*
X54919Y-29472D01*
X54848Y-29402D01*
X54781Y-29374D01*
X54781Y-29121D01*
X54757Y-29002D01*
X54690Y-28901D01*
X54519Y-28730D01*
X54418Y-28663D01*
X54300Y-28640D01*
X54250Y-28640D01*
X50150Y-28640D01*
X50031Y-28663D01*
X49930Y-28730D01*
X49930Y-28730D01*
X49930Y-28730D01*
X49530Y-29130D01*
X49463Y-29231D01*
X49440Y-29350D01*
X49440Y-33106D01*
X49388Y-33158D01*
X49350Y-33250D01*
X49349Y-33349D01*
X49349Y-33949D01*
X49387Y-34041D01*
X49458Y-34111D01*
X49550Y-34149D01*
X49649Y-34150D01*
X50449Y-34150D01*
X50541Y-34112D01*
X50611Y-34041D01*
X50649Y-33949D01*
X50650Y-33850D01*
X50650Y-33740D01*
X51772Y-33740D01*
X51725Y-33787D01*
X51724Y-33814D01*
X51762Y-33906D01*
X51833Y-33976D01*
X51925Y-34014D01*
X52024Y-34015D01*
X52112Y-34015D01*
X52175Y-33952D01*
X52175Y-33760D01*
X52275Y-33760D01*
X52275Y-33952D01*
X52337Y-34015D01*
X52425Y-34015D01*
X52524Y-34014D01*
X52616Y-33976D01*
X52687Y-33906D01*
X52725Y-33814D01*
X52725Y-33787D01*
X52662Y-33725D01*
X52609Y-33725D01*
X52616Y-33722D01*
X52686Y-33651D01*
X52708Y-33598D01*
X52725Y-33582D01*
X52725Y-33555D01*
X52724Y-33555D01*
X52725Y-33460D01*
X52725Y-33300D01*
X52724Y-33300D01*
X52724Y-33299D01*
X52725Y-33225D01*
X52840Y-33225D01*
X52840Y-33550D01*
X52863Y-33668D01*
X52874Y-33685D01*
X52863Y-33701D01*
X52840Y-33820D01*
X52840Y-34450D01*
X52863Y-34568D01*
X52867Y-34575D01*
X52800Y-34574D01*
X52450Y-34574D01*
X52358Y-34612D01*
X52288Y-34683D01*
X52250Y-34775D01*
X52249Y-34874D01*
X52249Y-35424D01*
X52287Y-35516D01*
X52358Y-35586D01*
X52365Y-35589D01*
X52365Y-35910D01*
X52358Y-35912D01*
X52288Y-35983D01*
X52250Y-36075D01*
X52249Y-36174D01*
X52249Y-36724D01*
X52287Y-36816D01*
X52358Y-36886D01*
X52450Y-36924D01*
X52549Y-36925D01*
X52899Y-36925D01*
X52991Y-36887D01*
X53050Y-36828D01*
X53108Y-36886D01*
X53200Y-36924D01*
X53299Y-36925D01*
X53649Y-36925D01*
X53741Y-36887D01*
X53811Y-36816D01*
X53814Y-36810D01*
X54800Y-36810D01*
X54918Y-36786D01*
X54935Y-36775D01*
X55119Y-36775D01*
X55211Y-36737D01*
X55281Y-36666D01*
X55319Y-36574D01*
X55320Y-36475D01*
X55320Y-36125D01*
X55282Y-36033D01*
X55211Y-35963D01*
X55119Y-35925D01*
X55020Y-35924D01*
X54945Y-35924D01*
X54945Y-35475D01*
X54945Y-35224D01*
X54944Y-35125D01*
X54906Y-35033D01*
X54836Y-34962D01*
X54744Y-34924D01*
X54687Y-34925D01*
X54625Y-34987D01*
X54625Y-35300D01*
X54882Y-35300D01*
X54945Y-35237D01*
X54945Y-35224D01*
X54945Y-35475D01*
X54945Y-35462D01*
X54882Y-35400D01*
X54625Y-35400D01*
X54625Y-35712D01*
X54687Y-35775D01*
X54744Y-35775D01*
X54836Y-35737D01*
X54906Y-35666D01*
X54944Y-35574D01*
X54945Y-35475D01*
X54945Y-35924D01*
X54780Y-35924D01*
X54688Y-35962D01*
X54618Y-36033D01*
X54580Y-36125D01*
X54579Y-36190D01*
X54525Y-36190D01*
X54525Y-35712D01*
X54525Y-35400D01*
X54525Y-35300D01*
X54525Y-34987D01*
X54462Y-34925D01*
X54405Y-34924D01*
X54313Y-34962D01*
X54243Y-35033D01*
X54205Y-35125D01*
X54204Y-35224D01*
X54205Y-35237D01*
X54267Y-35300D01*
X54525Y-35300D01*
X54525Y-35400D01*
X54267Y-35400D01*
X54205Y-35462D01*
X54204Y-35475D01*
X54205Y-35574D01*
X54243Y-35666D01*
X54313Y-35737D01*
X54405Y-35775D01*
X54462Y-35775D01*
X54525Y-35712D01*
X54525Y-36190D01*
X53850Y-36190D01*
X53850Y-36075D01*
X53812Y-35983D01*
X53741Y-35913D01*
X53649Y-35875D01*
X53550Y-35874D01*
X53200Y-35874D01*
X53108Y-35912D01*
X53049Y-35971D01*
X52991Y-35913D01*
X52985Y-35910D01*
X52985Y-35589D01*
X52991Y-35587D01*
X53050Y-35528D01*
X53108Y-35586D01*
X53200Y-35624D01*
X53299Y-35625D01*
X53649Y-35625D01*
X53741Y-35587D01*
X53811Y-35516D01*
X53849Y-35424D01*
X53850Y-35325D01*
X53850Y-34775D01*
X53812Y-34683D01*
X53741Y-34613D01*
X53706Y-34598D01*
X53644Y-34505D01*
X53460Y-34321D01*
X53460Y-33995D01*
X53626Y-33995D01*
X53675Y-34014D01*
X53774Y-34015D01*
X54274Y-34015D01*
X54323Y-33995D01*
X54765Y-33995D01*
X54883Y-33971D01*
X54984Y-33904D01*
X55278Y-33610D01*
X55395Y-33610D01*
X55395Y-33693D01*
X55395Y-34165D01*
X55433Y-34257D01*
X55503Y-34327D01*
X55595Y-34365D01*
X55690Y-34366D01*
X55690Y-35021D01*
X55671Y-35040D01*
X55659Y-35040D01*
X55657Y-35033D01*
X55586Y-34963D01*
X55494Y-34925D01*
X55395Y-34924D01*
X55155Y-34924D01*
X55063Y-34962D01*
X54993Y-35033D01*
X54955Y-35125D01*
X54954Y-35224D01*
X54954Y-35574D01*
X54992Y-35666D01*
X55063Y-35736D01*
X55155Y-35774D01*
X55254Y-35775D01*
X55494Y-35775D01*
X55586Y-35737D01*
X55656Y-35666D01*
X55659Y-35660D01*
X55800Y-35660D01*
X55918Y-35636D01*
X56019Y-35569D01*
X56219Y-35369D01*
X56286Y-35268D01*
X56310Y-35150D01*
X56310Y-34366D01*
X56390Y-34366D01*
X56390Y-34650D01*
X56413Y-34768D01*
X56480Y-34869D01*
X56710Y-35099D01*
X56710Y-35099D01*
X56811Y-35166D01*
X56930Y-35190D01*
X59400Y-35190D01*
X59511Y-35190D01*
X59533Y-35211D01*
X59625Y-35249D01*
X59724Y-35250D01*
X60119Y-35250D01*
X60125Y-35255D01*
X60125Y-35650D01*
X60125Y-35794D01*
X60075Y-35915D01*
X60074Y-36084D01*
X60125Y-36205D01*
X60125Y-39844D01*
X59844Y-40125D01*
X57205Y-40125D01*
X57084Y-40075D01*
X56915Y-40074D01*
X56794Y-40125D01*
X55782Y-40125D01*
X55638Y-40153D01*
X55516Y-40234D01*
X54503Y-41248D01*
X54438Y-41247D01*
X53887Y-41247D01*
X53796Y-41285D01*
X53725Y-41356D01*
X53687Y-41448D01*
X53687Y-41547D01*
X53687Y-42689D01*
X53713Y-42752D01*
X53690Y-42762D01*
X53528Y-42923D01*
X53441Y-43135D01*
X53440Y-43363D01*
X53528Y-43575D01*
X53689Y-43737D01*
X53713Y-43747D01*
X53687Y-43810D01*
X53687Y-43909D01*
X53687Y-44038D01*
X53534Y-43975D01*
X53365Y-43974D01*
X53209Y-44039D01*
X53089Y-44158D01*
X53025Y-44315D01*
X53024Y-44484D01*
X53089Y-44640D01*
X53208Y-44760D01*
X53365Y-44824D01*
X53534Y-44825D01*
X53580Y-44806D01*
X53687Y-44806D01*
X53687Y-45051D01*
X53725Y-45143D01*
X53795Y-45213D01*
X53887Y-45251D01*
X53987Y-45252D01*
X54538Y-45252D01*
X54629Y-45214D01*
X54700Y-45143D01*
X54738Y-45051D01*
X54738Y-44952D01*
X54738Y-43810D01*
X54700Y-43718D01*
X54630Y-43648D01*
X54588Y-43630D01*
X54588Y-43447D01*
X54577Y-43396D01*
X54590Y-43364D01*
X54591Y-43136D01*
X54582Y-43115D01*
X54587Y-43087D01*
X54588Y-43087D01*
X54588Y-42869D01*
X54629Y-42852D01*
X54700Y-42781D01*
X54738Y-42689D01*
X54738Y-42590D01*
X54738Y-42073D01*
X55261Y-41550D01*
X55261Y-42689D01*
X55299Y-42781D01*
X55369Y-42851D01*
X55461Y-42889D01*
X55477Y-42889D01*
X55477Y-42971D01*
X55409Y-43135D01*
X55408Y-43363D01*
X55477Y-43528D01*
X55477Y-43609D01*
X55461Y-43609D01*
X55370Y-43647D01*
X55299Y-43718D01*
X55261Y-43810D01*
X55261Y-43909D01*
X55261Y-45051D01*
X55299Y-45143D01*
X55369Y-45213D01*
X55461Y-45251D01*
X55477Y-45251D01*
X55477Y-45734D01*
X55471Y-45740D01*
X55387Y-45740D01*
X55377Y-45730D01*
X55285Y-45692D01*
X55185Y-45691D01*
X55028Y-45691D01*
X55000Y-45703D01*
X54971Y-45691D01*
X54944Y-45692D01*
X54882Y-45754D01*
X54882Y-45784D01*
X54866Y-45800D01*
X54828Y-45892D01*
X54828Y-45991D01*
X54828Y-46207D01*
X54866Y-46299D01*
X54882Y-46315D01*
X54882Y-46345D01*
X54944Y-46408D01*
X54971Y-46408D01*
X54999Y-46396D01*
X55028Y-46407D01*
X55128Y-46408D01*
X55285Y-46408D01*
X55376Y-46370D01*
X55387Y-46360D01*
X55600Y-46360D01*
X55850Y-46360D01*
X55971Y-46360D01*
X56430Y-46819D01*
X56531Y-46886D01*
X56650Y-46910D01*
X62800Y-46910D01*
X62918Y-46886D01*
X63019Y-46819D01*
X64001Y-45836D01*
X64082Y-45869D01*
X64181Y-45870D01*
X64791Y-45870D01*
X64883Y-45832D01*
X64953Y-45761D01*
X64991Y-45669D01*
X64992Y-45570D01*
X64992Y-45330D01*
X64983Y-45310D01*
X65021Y-45310D01*
X65033Y-45321D01*
X65033Y-46347D01*
X65014Y-46392D01*
X65014Y-46491D01*
X65014Y-46707D01*
X65052Y-46799D01*
X65122Y-46869D01*
X65214Y-46907D01*
X65314Y-46908D01*
X65471Y-46908D01*
X65499Y-46896D01*
X65528Y-46907D01*
X65628Y-46908D01*
X65785Y-46908D01*
X65876Y-46870D01*
X65887Y-46860D01*
X66213Y-46860D01*
X66331Y-46836D01*
X66432Y-46769D01*
X66466Y-46734D01*
X66489Y-46790D01*
X66608Y-46910D01*
X66765Y-46974D01*
X66934Y-46975D01*
X67090Y-46910D01*
X67210Y-46791D01*
X67274Y-46634D01*
X67275Y-46550D01*
X67275Y-46465D01*
X67210Y-46309D01*
X67091Y-46189D01*
X67055Y-46175D01*
X66938Y-46057D01*
X66938Y-45861D01*
X67009Y-45832D01*
X67079Y-45761D01*
X67117Y-45669D01*
X67118Y-45570D01*
X67118Y-45330D01*
X67084Y-45250D01*
X67118Y-45169D01*
X67118Y-44830D01*
X67084Y-44749D01*
X67117Y-44669D01*
X67118Y-44570D01*
X67118Y-44330D01*
X67084Y-44249D01*
X67117Y-44169D01*
X67118Y-44070D01*
X67118Y-43830D01*
X67084Y-43749D01*
X67117Y-43669D01*
X67118Y-43570D01*
X67118Y-43330D01*
X67084Y-43249D01*
X67117Y-43169D01*
X67118Y-43070D01*
X67118Y-42830D01*
X67084Y-42750D01*
X67118Y-42669D01*
X67118Y-42330D01*
X67084Y-42250D01*
X67118Y-42169D01*
X67118Y-42112D01*
X67055Y-42050D01*
X66613Y-42050D01*
X66613Y-42192D01*
X66613Y-42307D01*
X66613Y-42450D01*
X67055Y-42450D01*
X67118Y-42387D01*
X67118Y-42330D01*
X67118Y-42669D01*
X67118Y-42612D01*
X67055Y-42550D01*
X66613Y-42550D01*
X66613Y-42557D01*
X66513Y-42557D01*
X66513Y-42550D01*
X66513Y-42450D01*
X66513Y-42307D01*
X66513Y-42192D01*
X66513Y-42050D01*
X66070Y-42050D01*
X66008Y-42112D01*
X66007Y-42169D01*
X66041Y-42250D01*
X66007Y-42330D01*
X66008Y-42387D01*
X66070Y-42450D01*
X66513Y-42450D01*
X66513Y-42550D01*
X66070Y-42550D01*
X66008Y-42612D01*
X66007Y-42669D01*
X66041Y-42750D01*
X66008Y-42830D01*
X66007Y-42929D01*
X66007Y-43169D01*
X66041Y-43250D01*
X66008Y-43330D01*
X66007Y-43429D01*
X66007Y-43669D01*
X66041Y-43750D01*
X66008Y-43830D01*
X66007Y-43929D01*
X66007Y-44169D01*
X66041Y-44250D01*
X66008Y-44330D01*
X66007Y-44429D01*
X66007Y-44669D01*
X66041Y-44750D01*
X66007Y-44830D01*
X66008Y-44887D01*
X66070Y-44950D01*
X66513Y-44950D01*
X66513Y-44942D01*
X66613Y-44942D01*
X66613Y-44950D01*
X67055Y-44950D01*
X67118Y-44887D01*
X67118Y-44830D01*
X67118Y-45169D01*
X67118Y-45112D01*
X67055Y-45050D01*
X66613Y-45050D01*
X66613Y-45057D01*
X66513Y-45057D01*
X66513Y-45050D01*
X66070Y-45050D01*
X66008Y-45112D01*
X66007Y-45169D01*
X66041Y-45250D01*
X66008Y-45330D01*
X66007Y-45429D01*
X66007Y-45669D01*
X66045Y-45761D01*
X66116Y-45831D01*
X66188Y-45861D01*
X66188Y-46136D01*
X66084Y-46240D01*
X65887Y-46240D01*
X65877Y-46230D01*
X65785Y-46192D01*
X65725Y-46191D01*
X65725Y-39724D01*
X65725Y-39662D01*
X65662Y-39600D01*
X65300Y-39600D01*
X65300Y-39862D01*
X65362Y-39925D01*
X65425Y-39925D01*
X65524Y-39924D01*
X65616Y-39886D01*
X65687Y-39816D01*
X65725Y-39724D01*
X65725Y-46191D01*
X65685Y-46191D01*
X65653Y-46191D01*
X65653Y-45193D01*
X65652Y-45192D01*
X65653Y-45192D01*
X65648Y-45169D01*
X65629Y-45074D01*
X65629Y-45074D01*
X65591Y-45017D01*
X65591Y-41136D01*
X65503Y-40924D01*
X65342Y-40762D01*
X65200Y-40703D01*
X65200Y-39862D01*
X65200Y-39600D01*
X64837Y-39600D01*
X64775Y-39662D01*
X64774Y-39724D01*
X64812Y-39816D01*
X64883Y-39886D01*
X64975Y-39924D01*
X65074Y-39925D01*
X65137Y-39925D01*
X65200Y-39862D01*
X65200Y-40703D01*
X65130Y-40675D01*
X64902Y-40674D01*
X64690Y-40762D01*
X64528Y-40923D01*
X64475Y-41053D01*
X64475Y-39724D01*
X64475Y-39662D01*
X64412Y-39600D01*
X64050Y-39600D01*
X64050Y-39862D01*
X64112Y-39925D01*
X64175Y-39925D01*
X64274Y-39924D01*
X64366Y-39886D01*
X64437Y-39816D01*
X64475Y-39724D01*
X64475Y-41053D01*
X64441Y-41135D01*
X64440Y-41363D01*
X64528Y-41575D01*
X64582Y-41629D01*
X64549Y-41630D01*
X64487Y-41692D01*
X64487Y-41950D01*
X64929Y-41950D01*
X64992Y-41887D01*
X64992Y-41830D01*
X64989Y-41824D01*
X65129Y-41825D01*
X65341Y-41737D01*
X65503Y-41576D01*
X65590Y-41364D01*
X65591Y-41136D01*
X65591Y-45017D01*
X65562Y-44973D01*
X65562Y-44973D01*
X65369Y-44780D01*
X65268Y-44713D01*
X65150Y-44690D01*
X64983Y-44690D01*
X64991Y-44669D01*
X64992Y-44570D01*
X64992Y-44330D01*
X64958Y-44249D01*
X64991Y-44169D01*
X64992Y-44070D01*
X64992Y-43830D01*
X64958Y-43749D01*
X64991Y-43669D01*
X64992Y-43570D01*
X64992Y-43330D01*
X64958Y-43249D01*
X64991Y-43169D01*
X64992Y-43070D01*
X64992Y-42830D01*
X64958Y-42750D01*
X64992Y-42669D01*
X64992Y-42330D01*
X64958Y-42250D01*
X64992Y-42169D01*
X64992Y-42112D01*
X64929Y-42050D01*
X64487Y-42050D01*
X64487Y-42192D01*
X64487Y-42307D01*
X64487Y-42450D01*
X64929Y-42450D01*
X64992Y-42387D01*
X64992Y-42330D01*
X64992Y-42669D01*
X64992Y-42612D01*
X64929Y-42550D01*
X64487Y-42550D01*
X64487Y-42557D01*
X64387Y-42557D01*
X64387Y-42550D01*
X64387Y-42450D01*
X64387Y-42307D01*
X64387Y-42192D01*
X64387Y-42050D01*
X64387Y-41950D01*
X64387Y-41692D01*
X64324Y-41630D01*
X64181Y-41629D01*
X64082Y-41630D01*
X63990Y-41668D01*
X63950Y-41708D01*
X63950Y-39862D01*
X63950Y-39600D01*
X63587Y-39600D01*
X63525Y-39662D01*
X63524Y-39724D01*
X63562Y-39816D01*
X63633Y-39886D01*
X63725Y-39924D01*
X63824Y-39925D01*
X63887Y-39925D01*
X63950Y-39862D01*
X63950Y-41708D01*
X63919Y-41738D01*
X63881Y-41830D01*
X63882Y-41887D01*
X63944Y-41950D01*
X64387Y-41950D01*
X64387Y-42050D01*
X63944Y-42050D01*
X63882Y-42112D01*
X63881Y-42169D01*
X63915Y-42250D01*
X63881Y-42330D01*
X63882Y-42387D01*
X63944Y-42450D01*
X64387Y-42450D01*
X64387Y-42550D01*
X63944Y-42550D01*
X63882Y-42612D01*
X63881Y-42669D01*
X63890Y-42690D01*
X63878Y-42690D01*
X63810Y-42621D01*
X63810Y-42250D01*
X63786Y-42131D01*
X63786Y-42131D01*
X63759Y-42091D01*
X63719Y-42030D01*
X63719Y-42030D01*
X63469Y-41780D01*
X63368Y-41713D01*
X63250Y-41690D01*
X63225Y-41690D01*
X63225Y-39724D01*
X63225Y-39662D01*
X63162Y-39600D01*
X62800Y-39600D01*
X62800Y-39862D01*
X62862Y-39925D01*
X62925Y-39925D01*
X63024Y-39924D01*
X63116Y-39886D01*
X63187Y-39816D01*
X63225Y-39724D01*
X63225Y-41690D01*
X62700Y-41690D01*
X62700Y-39862D01*
X62700Y-39600D01*
X62337Y-39600D01*
X62275Y-39662D01*
X62274Y-39724D01*
X62312Y-39816D01*
X62383Y-39886D01*
X62475Y-39924D01*
X62574Y-39925D01*
X62637Y-39925D01*
X62700Y-39862D01*
X62700Y-41690D01*
X62050Y-41690D01*
X62050Y-41675D01*
X62012Y-41583D01*
X61975Y-41546D01*
X61975Y-39724D01*
X61975Y-39662D01*
X61912Y-39600D01*
X61550Y-39600D01*
X61550Y-39862D01*
X61612Y-39925D01*
X61675Y-39925D01*
X61774Y-39924D01*
X61866Y-39886D01*
X61937Y-39816D01*
X61975Y-39724D01*
X61975Y-41546D01*
X61941Y-41513D01*
X61849Y-41475D01*
X61750Y-41474D01*
X61450Y-41474D01*
X61450Y-39862D01*
X61450Y-39600D01*
X61087Y-39600D01*
X61025Y-39662D01*
X61024Y-39724D01*
X61062Y-39816D01*
X61133Y-39886D01*
X61225Y-39924D01*
X61324Y-39925D01*
X61387Y-39925D01*
X61450Y-39862D01*
X61450Y-41474D01*
X61400Y-41474D01*
X61308Y-41512D01*
X61249Y-41571D01*
X61191Y-41513D01*
X61099Y-41475D01*
X61000Y-41474D01*
X60650Y-41474D01*
X60558Y-41512D01*
X60488Y-41583D01*
X60450Y-41675D01*
X60450Y-41690D01*
X59300Y-41690D01*
X59300Y-41675D01*
X59262Y-41583D01*
X59191Y-41513D01*
X59099Y-41475D01*
X59000Y-41474D01*
X58650Y-41474D01*
X58558Y-41512D01*
X58500Y-41571D01*
X58441Y-41512D01*
X58349Y-41474D01*
X58237Y-41475D01*
X58175Y-41537D01*
X58175Y-41950D01*
X58182Y-41950D01*
X58182Y-42050D01*
X58175Y-42050D01*
X58175Y-42462D01*
X58237Y-42525D01*
X58349Y-42525D01*
X58441Y-42487D01*
X58500Y-42428D01*
X58558Y-42486D01*
X58650Y-42524D01*
X58749Y-42525D01*
X59099Y-42525D01*
X59191Y-42487D01*
X59261Y-42416D01*
X59299Y-42324D01*
X59299Y-42310D01*
X60449Y-42310D01*
X60449Y-42324D01*
X60487Y-42416D01*
X60558Y-42486D01*
X60650Y-42524D01*
X60749Y-42525D01*
X61099Y-42525D01*
X61191Y-42487D01*
X61250Y-42428D01*
X61308Y-42486D01*
X61400Y-42524D01*
X61499Y-42525D01*
X61849Y-42525D01*
X61941Y-42487D01*
X62011Y-42416D01*
X62049Y-42324D01*
X62049Y-42310D01*
X63121Y-42310D01*
X63190Y-42378D01*
X63190Y-42750D01*
X63213Y-42868D01*
X63280Y-42969D01*
X63501Y-43190D01*
X63378Y-43190D01*
X63219Y-43030D01*
X63118Y-42963D01*
X63000Y-42940D01*
X62050Y-42940D01*
X62050Y-42925D01*
X62012Y-42833D01*
X61941Y-42763D01*
X61849Y-42725D01*
X61750Y-42724D01*
X61400Y-42724D01*
X61308Y-42762D01*
X61249Y-42821D01*
X61191Y-42763D01*
X61099Y-42725D01*
X61000Y-42724D01*
X60650Y-42724D01*
X60558Y-42762D01*
X60488Y-42833D01*
X60450Y-42925D01*
X60450Y-42940D01*
X59300Y-42940D01*
X59300Y-42925D01*
X59262Y-42833D01*
X59191Y-42763D01*
X59099Y-42725D01*
X59000Y-42724D01*
X58650Y-42724D01*
X58558Y-42762D01*
X58500Y-42821D01*
X58441Y-42762D01*
X58349Y-42724D01*
X58237Y-42725D01*
X58175Y-42787D01*
X58175Y-43200D01*
X58182Y-43200D01*
X58182Y-43300D01*
X58175Y-43300D01*
X58175Y-43712D01*
X58237Y-43775D01*
X58349Y-43775D01*
X58441Y-43737D01*
X58500Y-43678D01*
X58558Y-43736D01*
X58650Y-43774D01*
X58749Y-43775D01*
X59099Y-43775D01*
X59191Y-43737D01*
X59261Y-43666D01*
X59299Y-43574D01*
X59299Y-43560D01*
X60449Y-43560D01*
X60449Y-43574D01*
X60487Y-43666D01*
X60558Y-43736D01*
X60650Y-43774D01*
X60749Y-43775D01*
X61099Y-43775D01*
X61191Y-43737D01*
X61250Y-43678D01*
X61308Y-43736D01*
X61400Y-43774D01*
X61499Y-43775D01*
X61849Y-43775D01*
X61941Y-43737D01*
X62011Y-43666D01*
X62049Y-43574D01*
X62049Y-43560D01*
X62871Y-43560D01*
X63030Y-43719D01*
X63030Y-43719D01*
X63076Y-43749D01*
X63076Y-43750D01*
X63030Y-43780D01*
X62621Y-44190D01*
X62050Y-44190D01*
X62050Y-44175D01*
X62012Y-44083D01*
X61941Y-44013D01*
X61849Y-43975D01*
X61750Y-43974D01*
X61400Y-43974D01*
X61308Y-44012D01*
X61249Y-44071D01*
X61191Y-44013D01*
X61099Y-43975D01*
X61000Y-43974D01*
X60650Y-43974D01*
X60558Y-44012D01*
X60488Y-44083D01*
X60450Y-44175D01*
X60450Y-44190D01*
X59300Y-44190D01*
X59300Y-44175D01*
X59262Y-44083D01*
X59191Y-44013D01*
X59099Y-43975D01*
X59000Y-43974D01*
X58650Y-43974D01*
X58558Y-44012D01*
X58500Y-44071D01*
X58441Y-44012D01*
X58349Y-43974D01*
X58237Y-43975D01*
X58175Y-44037D01*
X58175Y-44450D01*
X58182Y-44450D01*
X58182Y-44550D01*
X58175Y-44550D01*
X58175Y-44962D01*
X58237Y-45025D01*
X58349Y-45025D01*
X58441Y-44987D01*
X58500Y-44928D01*
X58558Y-44986D01*
X58650Y-45024D01*
X58749Y-45025D01*
X59099Y-45025D01*
X59191Y-44987D01*
X59261Y-44916D01*
X59299Y-44824D01*
X59299Y-44810D01*
X60449Y-44810D01*
X60449Y-44824D01*
X60487Y-44916D01*
X60558Y-44986D01*
X60650Y-45024D01*
X60749Y-45025D01*
X61099Y-45025D01*
X61191Y-44987D01*
X61250Y-44928D01*
X61308Y-44986D01*
X61400Y-45024D01*
X61499Y-45025D01*
X61849Y-45025D01*
X61941Y-44987D01*
X62011Y-44916D01*
X62049Y-44824D01*
X62049Y-44810D01*
X62750Y-44810D01*
X62868Y-44786D01*
X62969Y-44719D01*
X63378Y-44310D01*
X63501Y-44310D01*
X63280Y-44530D01*
X63213Y-44631D01*
X63190Y-44750D01*
X63190Y-45121D01*
X62871Y-45440D01*
X62050Y-45440D01*
X62050Y-45425D01*
X62012Y-45333D01*
X61941Y-45263D01*
X61849Y-45225D01*
X61750Y-45224D01*
X61400Y-45224D01*
X61308Y-45262D01*
X61249Y-45321D01*
X61191Y-45263D01*
X61099Y-45225D01*
X61000Y-45224D01*
X60650Y-45224D01*
X60558Y-45262D01*
X60488Y-45333D01*
X60450Y-45425D01*
X60450Y-45440D01*
X59300Y-45440D01*
X59300Y-45425D01*
X59262Y-45333D01*
X59191Y-45263D01*
X59099Y-45225D01*
X59000Y-45224D01*
X58650Y-45224D01*
X58558Y-45262D01*
X58500Y-45321D01*
X58441Y-45262D01*
X58349Y-45224D01*
X58237Y-45225D01*
X58175Y-45287D01*
X58175Y-45700D01*
X58182Y-45700D01*
X58182Y-45800D01*
X58175Y-45800D01*
X58175Y-46212D01*
X58237Y-46275D01*
X58349Y-46275D01*
X58441Y-46237D01*
X58500Y-46178D01*
X58558Y-46236D01*
X58650Y-46274D01*
X58749Y-46275D01*
X59099Y-46275D01*
X59191Y-46237D01*
X59261Y-46166D01*
X59299Y-46074D01*
X59299Y-46060D01*
X60449Y-46060D01*
X60449Y-46074D01*
X60487Y-46166D01*
X60558Y-46236D01*
X60650Y-46274D01*
X60749Y-46275D01*
X61099Y-46275D01*
X61191Y-46237D01*
X61250Y-46178D01*
X61308Y-46236D01*
X61400Y-46274D01*
X61499Y-46275D01*
X61849Y-46275D01*
X61941Y-46237D01*
X62011Y-46166D01*
X62049Y-46074D01*
X62049Y-46060D01*
X62901Y-46060D01*
X62671Y-46290D01*
X58075Y-46290D01*
X58075Y-46212D01*
X58075Y-45800D01*
X58075Y-45700D01*
X58075Y-45287D01*
X58075Y-44962D01*
X58075Y-44550D01*
X58075Y-44450D01*
X58075Y-44037D01*
X58075Y-43712D01*
X58075Y-43300D01*
X58075Y-43200D01*
X58075Y-42787D01*
X58075Y-42462D01*
X58075Y-42050D01*
X58075Y-41950D01*
X58075Y-41537D01*
X58012Y-41475D01*
X57900Y-41474D01*
X57808Y-41512D01*
X57738Y-41583D01*
X57700Y-41675D01*
X57699Y-41774D01*
X57700Y-41887D01*
X57762Y-41950D01*
X58075Y-41950D01*
X58075Y-42050D01*
X57762Y-42050D01*
X57700Y-42112D01*
X57699Y-42225D01*
X57700Y-42324D01*
X57738Y-42416D01*
X57808Y-42487D01*
X57900Y-42525D01*
X58012Y-42525D01*
X58075Y-42462D01*
X58075Y-42787D01*
X58012Y-42725D01*
X57900Y-42724D01*
X57808Y-42762D01*
X57738Y-42833D01*
X57700Y-42925D01*
X57699Y-43024D01*
X57700Y-43137D01*
X57762Y-43200D01*
X58075Y-43200D01*
X58075Y-43300D01*
X57762Y-43300D01*
X57700Y-43362D01*
X57699Y-43475D01*
X57700Y-43574D01*
X57738Y-43666D01*
X57808Y-43737D01*
X57900Y-43775D01*
X58012Y-43775D01*
X58075Y-43712D01*
X58075Y-44037D01*
X58012Y-43975D01*
X57900Y-43974D01*
X57808Y-44012D01*
X57738Y-44083D01*
X57700Y-44175D01*
X57699Y-44274D01*
X57700Y-44387D01*
X57762Y-44450D01*
X58075Y-44450D01*
X58075Y-44550D01*
X57762Y-44550D01*
X57700Y-44612D01*
X57699Y-44725D01*
X57700Y-44824D01*
X57738Y-44916D01*
X57808Y-44987D01*
X57900Y-45025D01*
X58012Y-45025D01*
X58075Y-44962D01*
X58075Y-45287D01*
X58012Y-45225D01*
X57900Y-45224D01*
X57808Y-45262D01*
X57738Y-45333D01*
X57700Y-45425D01*
X57699Y-45524D01*
X57700Y-45637D01*
X57762Y-45700D01*
X58075Y-45700D01*
X58075Y-45800D01*
X57762Y-45800D01*
X57700Y-45862D01*
X57699Y-45975D01*
X57700Y-46074D01*
X57738Y-46166D01*
X57808Y-46237D01*
X57900Y-46275D01*
X58012Y-46275D01*
X58075Y-46212D01*
X58075Y-46290D01*
X56778Y-46290D01*
X56319Y-45830D01*
X56218Y-45763D01*
X56100Y-45740D01*
X56097Y-45740D01*
X56097Y-45252D01*
X56112Y-45252D01*
X56203Y-45214D01*
X56274Y-45143D01*
X56312Y-45051D01*
X56312Y-44952D01*
X56312Y-43810D01*
X56286Y-43747D01*
X56309Y-43737D01*
X56471Y-43576D01*
X56558Y-43364D01*
X56559Y-43136D01*
X56471Y-42924D01*
X56310Y-42762D01*
X56286Y-42752D01*
X56312Y-42689D01*
X56312Y-42590D01*
X56312Y-41448D01*
X56274Y-41356D01*
X56204Y-41286D01*
X56112Y-41248D01*
X56012Y-41247D01*
X55564Y-41247D01*
X55937Y-40875D01*
X56794Y-40875D01*
X56915Y-40924D01*
X57084Y-40925D01*
X57205Y-40875D01*
X60000Y-40875D01*
X60143Y-40846D01*
X60265Y-40765D01*
X60765Y-40265D01*
X60846Y-40143D01*
X60875Y-40000D01*
X60875Y-36205D01*
X60924Y-36084D01*
X60925Y-35915D01*
X60875Y-35794D01*
X60875Y-35650D01*
X60875Y-35100D01*
X60846Y-34956D01*
X60765Y-34834D01*
X60490Y-34559D01*
X60446Y-34530D01*
X60437Y-34508D01*
X60378Y-34449D01*
X60436Y-34391D01*
X60474Y-34299D01*
X60475Y-34200D01*
X60475Y-33850D01*
X60458Y-33810D01*
X61551Y-33810D01*
X61280Y-34080D01*
X61213Y-34181D01*
X61190Y-34300D01*
X61190Y-36089D01*
X61133Y-36112D01*
X61063Y-36183D01*
X61025Y-36275D01*
X61024Y-36374D01*
X61024Y-36624D01*
X61062Y-36716D01*
X61096Y-36749D01*
X61063Y-36783D01*
X61025Y-36875D01*
X61024Y-36974D01*
X61024Y-37224D01*
X61062Y-37316D01*
X61133Y-37386D01*
X61190Y-37410D01*
X61190Y-38589D01*
X61133Y-38612D01*
X61063Y-38683D01*
X61025Y-38775D01*
X61024Y-38874D01*
X61024Y-39124D01*
X61062Y-39216D01*
X61096Y-39250D01*
X61062Y-39283D01*
X61024Y-39375D01*
X61025Y-39437D01*
X61087Y-39500D01*
X61450Y-39500D01*
X61450Y-39492D01*
X61550Y-39492D01*
X61550Y-39500D01*
X61912Y-39500D01*
X61975Y-39437D01*
X61975Y-39375D01*
X61937Y-39283D01*
X61903Y-39250D01*
X61936Y-39216D01*
X61974Y-39124D01*
X61975Y-39025D01*
X61975Y-38775D01*
X61937Y-38683D01*
X61866Y-38613D01*
X61810Y-38589D01*
X61810Y-37410D01*
X61866Y-37387D01*
X61936Y-37316D01*
X61974Y-37224D01*
X61975Y-37125D01*
X61975Y-36875D01*
X61937Y-36783D01*
X61903Y-36750D01*
X61936Y-36716D01*
X61974Y-36624D01*
X61975Y-36525D01*
X61975Y-36275D01*
X61937Y-36183D01*
X61866Y-36113D01*
X61810Y-36089D01*
X61810Y-34428D01*
X61888Y-34349D01*
X61974Y-34350D01*
X62424Y-34350D01*
X62516Y-34312D01*
X62586Y-34241D01*
X62624Y-34149D01*
X62625Y-34050D01*
X62625Y-33850D01*
X62587Y-33758D01*
X62578Y-33750D01*
X62586Y-33741D01*
X62624Y-33649D01*
X62625Y-33550D01*
X62625Y-33350D01*
X62587Y-33258D01*
X62578Y-33250D01*
X62586Y-33241D01*
X62624Y-33149D01*
X62625Y-33050D01*
X62625Y-32850D01*
X62587Y-32758D01*
X62578Y-32750D01*
X62586Y-32741D01*
X62624Y-32649D01*
X62625Y-32550D01*
X62625Y-32350D01*
X62587Y-32258D01*
X62578Y-32250D01*
X62586Y-32241D01*
X62624Y-32149D01*
X62625Y-32050D01*
X62625Y-31850D01*
X62587Y-31758D01*
X62578Y-31750D01*
X62586Y-31741D01*
X62624Y-31649D01*
X62625Y-31550D01*
X62625Y-31350D01*
X62608Y-31310D01*
X62621Y-31310D01*
X62690Y-31378D01*
X62690Y-34371D01*
X62530Y-34530D01*
X62463Y-34631D01*
X62440Y-34750D01*
X62440Y-36089D01*
X62383Y-36112D01*
X62313Y-36183D01*
X62275Y-36275D01*
X62274Y-36374D01*
X62274Y-36624D01*
X62312Y-36716D01*
X62346Y-36749D01*
X62313Y-36783D01*
X62275Y-36875D01*
X62274Y-36974D01*
X62274Y-37224D01*
X62312Y-37316D01*
X62383Y-37386D01*
X62440Y-37410D01*
X62440Y-38589D01*
X62383Y-38612D01*
X62313Y-38683D01*
X62275Y-38775D01*
X62274Y-38874D01*
X62274Y-39124D01*
X62312Y-39216D01*
X62346Y-39250D01*
X62312Y-39283D01*
X62274Y-39375D01*
X62275Y-39437D01*
X62337Y-39500D01*
X62700Y-39500D01*
X62700Y-39492D01*
X62800Y-39492D01*
X62800Y-39500D01*
X63162Y-39500D01*
X63225Y-39437D01*
X63225Y-39375D01*
X63187Y-39283D01*
X63153Y-39250D01*
X63186Y-39216D01*
X63224Y-39124D01*
X63225Y-39025D01*
X63225Y-38775D01*
X63187Y-38683D01*
X63116Y-38613D01*
X63060Y-38589D01*
X63060Y-37410D01*
X63116Y-37387D01*
X63186Y-37316D01*
X63224Y-37224D01*
X63225Y-37125D01*
X63225Y-36875D01*
X63187Y-36783D01*
X63153Y-36750D01*
X63186Y-36716D01*
X63224Y-36624D01*
X63225Y-36525D01*
X63225Y-36275D01*
X63187Y-36183D01*
X63116Y-36113D01*
X63060Y-36089D01*
X63060Y-34878D01*
X63219Y-34719D01*
X63219Y-34719D01*
X63219Y-34719D01*
X63259Y-34658D01*
X63286Y-34618D01*
X63286Y-34618D01*
X63310Y-34500D01*
X63310Y-31250D01*
X63286Y-31131D01*
X63286Y-31131D01*
X63259Y-31091D01*
X63219Y-31030D01*
X63219Y-31030D01*
X62969Y-30780D01*
X62868Y-30713D01*
X62750Y-30690D01*
X62518Y-30690D01*
X62516Y-30688D01*
X62424Y-30650D01*
X62325Y-30649D01*
X61875Y-30649D01*
X61783Y-30687D01*
X61713Y-30758D01*
X61675Y-30850D01*
X61674Y-30949D01*
X61674Y-31149D01*
X61691Y-31190D01*
X61500Y-31190D01*
X60604Y-31190D01*
X60604Y-31084D01*
X60566Y-30992D01*
X60496Y-30922D01*
X60404Y-30884D01*
X60310Y-30883D01*
X60310Y-30628D01*
X60378Y-30560D01*
X61500Y-30560D01*
X61618Y-30536D01*
X61719Y-30469D01*
X62128Y-30060D01*
X62600Y-30060D01*
X62620Y-30060D01*
X62862Y-30060D01*
X62872Y-30069D01*
X62964Y-30107D01*
X63064Y-30108D01*
X63221Y-30108D01*
X63249Y-30096D01*
X63278Y-30107D01*
X63378Y-30108D01*
X63535Y-30108D01*
X63626Y-30070D01*
X63637Y-30060D01*
X63880Y-30060D01*
X64271Y-30060D01*
X64590Y-30378D01*
X64590Y-30677D01*
X64524Y-30650D01*
X64425Y-30649D01*
X63975Y-30649D01*
X63883Y-30687D01*
X63864Y-30707D01*
X63864Y-30707D01*
X63831Y-30713D01*
X63730Y-30780D01*
X63730Y-30780D01*
X63430Y-31080D01*
X63363Y-31181D01*
X63340Y-31300D01*
X63340Y-34300D01*
X63363Y-34418D01*
X63430Y-34519D01*
X63690Y-34778D01*
X63690Y-36089D01*
X63633Y-36112D01*
X63563Y-36183D01*
X63525Y-36275D01*
X63524Y-36374D01*
X63524Y-36624D01*
X63562Y-36716D01*
X63596Y-36749D01*
X63563Y-36783D01*
X63525Y-36875D01*
X63524Y-36974D01*
X63524Y-37224D01*
X63562Y-37316D01*
X63633Y-37386D01*
X63690Y-37410D01*
X63690Y-38589D01*
X63633Y-38612D01*
X63563Y-38683D01*
X63525Y-38775D01*
X63524Y-38874D01*
X63524Y-39124D01*
X63562Y-39216D01*
X63596Y-39250D01*
X63562Y-39283D01*
X63524Y-39375D01*
X63525Y-39437D01*
X63587Y-39500D01*
X63950Y-39500D01*
X63950Y-39492D01*
X64050Y-39492D01*
X64050Y-39500D01*
X64412Y-39500D01*
X64475Y-39437D01*
X64475Y-39375D01*
X64437Y-39283D01*
X64403Y-39250D01*
X64436Y-39216D01*
X64474Y-39124D01*
X64475Y-39025D01*
X64475Y-38775D01*
X64437Y-38683D01*
X64366Y-38613D01*
X64310Y-38589D01*
X64310Y-37410D01*
X64366Y-37387D01*
X64436Y-37316D01*
X64474Y-37224D01*
X64475Y-37125D01*
X64475Y-36875D01*
X64437Y-36783D01*
X64403Y-36750D01*
X64436Y-36716D01*
X64474Y-36624D01*
X64475Y-36525D01*
X64475Y-36275D01*
X64437Y-36183D01*
X64366Y-36113D01*
X64310Y-36089D01*
X64310Y-34650D01*
X64309Y-34649D01*
X64310Y-34649D01*
X64305Y-34626D01*
X64286Y-34531D01*
X64286Y-34531D01*
X64219Y-34430D01*
X64219Y-34430D01*
X64138Y-34350D01*
X64524Y-34350D01*
X64616Y-34312D01*
X64618Y-34310D01*
X64821Y-34310D01*
X64940Y-34428D01*
X64940Y-36089D01*
X64883Y-36112D01*
X64813Y-36183D01*
X64775Y-36275D01*
X64774Y-36374D01*
X64774Y-36624D01*
X64812Y-36716D01*
X64846Y-36749D01*
X64813Y-36783D01*
X64775Y-36875D01*
X64774Y-36974D01*
X64774Y-37224D01*
X64812Y-37316D01*
X64883Y-37386D01*
X64940Y-37410D01*
X64940Y-38589D01*
X64883Y-38612D01*
X64813Y-38683D01*
X64775Y-38775D01*
X64774Y-38874D01*
X64774Y-39124D01*
X64812Y-39216D01*
X64846Y-39250D01*
X64812Y-39283D01*
X64774Y-39375D01*
X64775Y-39437D01*
X64837Y-39500D01*
X65200Y-39500D01*
X65200Y-39492D01*
X65300Y-39492D01*
X65300Y-39500D01*
X65662Y-39500D01*
X65725Y-39437D01*
X65725Y-39375D01*
X65687Y-39283D01*
X65653Y-39250D01*
X65686Y-39216D01*
X65724Y-39124D01*
X65725Y-39025D01*
X65725Y-38775D01*
X65687Y-38683D01*
X65616Y-38613D01*
X65560Y-38589D01*
X65560Y-37410D01*
X65616Y-37387D01*
X65686Y-37316D01*
X65724Y-37224D01*
X65725Y-37125D01*
X65725Y-36875D01*
X65687Y-36783D01*
X65653Y-36750D01*
X65686Y-36716D01*
X65724Y-36624D01*
X65725Y-36525D01*
X65725Y-36275D01*
X65687Y-36183D01*
X65616Y-36113D01*
X65560Y-36089D01*
X65560Y-34300D01*
X65559Y-34299D01*
X65560Y-34299D01*
X65555Y-34276D01*
X65541Y-34208D01*
X65549Y-34209D01*
X65550Y-34210D01*
X65599Y-34210D01*
X65599Y-34249D01*
X65637Y-34341D01*
X65708Y-34411D01*
X65800Y-34449D01*
X65899Y-34450D01*
X65940Y-34450D01*
X65940Y-34900D01*
X65963Y-35018D01*
X66030Y-35119D01*
X66440Y-35528D01*
X66440Y-36089D01*
X66383Y-36112D01*
X66313Y-36183D01*
X66275Y-36275D01*
X66274Y-36374D01*
X66274Y-36624D01*
X66312Y-36716D01*
X66346Y-36750D01*
X66312Y-36783D01*
X66274Y-36875D01*
X66275Y-36937D01*
X66337Y-37000D01*
X66700Y-37000D01*
X66700Y-36992D01*
X66800Y-36992D01*
X66800Y-37000D01*
X67162Y-37000D01*
X67225Y-36937D01*
X67225Y-36875D01*
X67187Y-36783D01*
X67153Y-36750D01*
X67186Y-36716D01*
X67224Y-36624D01*
X67225Y-36525D01*
X67225Y-36275D01*
X67187Y-36183D01*
X67116Y-36113D01*
X67060Y-36089D01*
X67060Y-35400D01*
X67036Y-35281D01*
X66969Y-35180D01*
X66560Y-34771D01*
X66560Y-34450D01*
X66699Y-34450D01*
X66791Y-34412D01*
X66861Y-34341D01*
X66899Y-34249D01*
X66900Y-34150D01*
X66900Y-33550D01*
X66899Y-33550D01*
X66968Y-33536D01*
X67069Y-33469D01*
X67319Y-33219D01*
X67319Y-33219D01*
X67319Y-33219D01*
X67359Y-33158D01*
X67386Y-33118D01*
X67386Y-33118D01*
X67410Y-33000D01*
X67410Y-31921D01*
X67386Y-31802D01*
X67319Y-31701D01*
X67319Y-31701D01*
X66997Y-31380D01*
X67009Y-31380D01*
X67009Y-31317D01*
X67071Y-31380D01*
X67145Y-31380D01*
X67244Y-31379D01*
X67336Y-31341D01*
X67407Y-31271D01*
X67445Y-31179D01*
X67445Y-40897D01*
X67410Y-40862D01*
X67310Y-40762D01*
X67225Y-40727D01*
X67225Y-37224D01*
X67225Y-37162D01*
X67162Y-37100D01*
X66800Y-37100D01*
X66800Y-37362D01*
X66862Y-37425D01*
X66925Y-37425D01*
X67024Y-37424D01*
X67116Y-37386D01*
X67187Y-37316D01*
X67225Y-37224D01*
X67225Y-40727D01*
X67098Y-40675D01*
X66870Y-40674D01*
X66700Y-40745D01*
X66700Y-37362D01*
X66700Y-37100D01*
X66337Y-37100D01*
X66275Y-37162D01*
X66274Y-37224D01*
X66312Y-37316D01*
X66383Y-37386D01*
X66475Y-37424D01*
X66574Y-37425D01*
X66637Y-37425D01*
X66700Y-37362D01*
X66700Y-40745D01*
X66658Y-40762D01*
X66496Y-40923D01*
X66409Y-41135D01*
X66408Y-41363D01*
X66496Y-41575D01*
X66550Y-41630D01*
X66512Y-41630D01*
X66512Y-41692D01*
X66450Y-41630D01*
X66307Y-41629D01*
X66208Y-41630D01*
X66116Y-41668D01*
X66045Y-41738D01*
X66007Y-41830D01*
X66008Y-41887D01*
X66070Y-41950D01*
X66513Y-41950D01*
X66513Y-41942D01*
X66613Y-41942D01*
X66613Y-41950D01*
X67055Y-41950D01*
X67118Y-41887D01*
X67118Y-41830D01*
X67113Y-41818D01*
X67309Y-41737D01*
X67471Y-41576D01*
X67558Y-41364D01*
X67559Y-41136D01*
X67559Y-47332D01*
X67505Y-47368D01*
X67218Y-47425D01*
X54803Y-47425D01*
X54803Y-46345D01*
X54803Y-46100D01*
X54803Y-46000D01*
X54803Y-45754D01*
X54741Y-45692D01*
X54714Y-45691D01*
X54623Y-45729D01*
X54552Y-45800D01*
X54514Y-45892D01*
X54514Y-45937D01*
X54577Y-46000D01*
X54803Y-46000D01*
X54803Y-46100D01*
X54577Y-46100D01*
X54514Y-46162D01*
X54514Y-46207D01*
X54552Y-46299D01*
X54623Y-46370D01*
X54714Y-46408D01*
X54741Y-46408D01*
X54803Y-46345D01*
X54803Y-47425D01*
X52559Y-47425D01*
X52559Y-44886D01*
X52559Y-37636D01*
X52471Y-37424D01*
X52310Y-37262D01*
X52098Y-37175D01*
X51870Y-37174D01*
X51658Y-37262D01*
X51496Y-37423D01*
X51409Y-37635D01*
X51408Y-37863D01*
X51496Y-38075D01*
X51657Y-38237D01*
X51869Y-38324D01*
X52097Y-38325D01*
X52309Y-38237D01*
X52471Y-38076D01*
X52558Y-37864D01*
X52559Y-37636D01*
X52559Y-44886D01*
X52471Y-44674D01*
X52310Y-44512D01*
X52098Y-44425D01*
X51870Y-44424D01*
X51658Y-44512D01*
X51496Y-44673D01*
X51409Y-44885D01*
X51408Y-45113D01*
X51496Y-45325D01*
X51657Y-45487D01*
X51869Y-45574D01*
X52097Y-45575D01*
X52309Y-45487D01*
X52471Y-45326D01*
X52558Y-45114D01*
X52559Y-44886D01*
X52559Y-47425D01*
X50650Y-47425D01*
X50650Y-35249D01*
X50650Y-34550D01*
X50612Y-34458D01*
X50541Y-34388D01*
X50449Y-34350D01*
X50350Y-34349D01*
X50112Y-34350D01*
X50050Y-34412D01*
X50050Y-34850D01*
X50587Y-34850D01*
X50650Y-34787D01*
X50650Y-34550D01*
X50650Y-35249D01*
X50650Y-35012D01*
X50587Y-34950D01*
X50050Y-34950D01*
X50050Y-35387D01*
X50112Y-35450D01*
X50350Y-35450D01*
X50449Y-35449D01*
X50541Y-35411D01*
X50612Y-35341D01*
X50650Y-35249D01*
X50650Y-47425D01*
X50595Y-47425D01*
X50595Y-45087D01*
X50595Y-37837D01*
X50585Y-37609D01*
X50517Y-37447D01*
X50420Y-37416D01*
X50349Y-37487D01*
X50349Y-37345D01*
X50318Y-37248D01*
X50103Y-37170D01*
X49950Y-37177D01*
X49950Y-35387D01*
X49950Y-34950D01*
X49950Y-34850D01*
X49950Y-34412D01*
X49887Y-34350D01*
X49649Y-34349D01*
X49550Y-34350D01*
X49458Y-34388D01*
X49387Y-34458D01*
X49349Y-34550D01*
X49350Y-34787D01*
X49412Y-34850D01*
X49950Y-34850D01*
X49950Y-34950D01*
X49412Y-34950D01*
X49350Y-35012D01*
X49349Y-35249D01*
X49387Y-35341D01*
X49458Y-35411D01*
X49550Y-35449D01*
X49649Y-35450D01*
X49887Y-35450D01*
X49950Y-35387D01*
X49950Y-37177D01*
X49875Y-37180D01*
X49713Y-37248D01*
X49682Y-37345D01*
X50016Y-37679D01*
X50349Y-37345D01*
X50349Y-37487D01*
X50086Y-37750D01*
X50420Y-38083D01*
X50517Y-38052D01*
X50595Y-37837D01*
X50595Y-45087D01*
X50585Y-44859D01*
X50517Y-44697D01*
X50420Y-44666D01*
X50349Y-44737D01*
X50349Y-44595D01*
X50349Y-38154D01*
X50016Y-37820D01*
X49945Y-37891D01*
X49945Y-37750D01*
X49611Y-37416D01*
X49514Y-37447D01*
X49436Y-37662D01*
X49446Y-37890D01*
X49514Y-38052D01*
X49611Y-38083D01*
X49945Y-37750D01*
X49945Y-37891D01*
X49682Y-38154D01*
X49713Y-38251D01*
X49928Y-38329D01*
X50156Y-38319D01*
X50318Y-38251D01*
X50349Y-38154D01*
X50349Y-44595D01*
X50318Y-44498D01*
X50103Y-44420D01*
X49875Y-44430D01*
X49713Y-44498D01*
X49682Y-44595D01*
X50016Y-44929D01*
X50349Y-44595D01*
X50349Y-44737D01*
X50086Y-45000D01*
X50420Y-45333D01*
X50517Y-45302D01*
X50595Y-45087D01*
X50595Y-47425D01*
X50349Y-47425D01*
X50349Y-45404D01*
X50016Y-45070D01*
X49945Y-45141D01*
X49945Y-45000D01*
X49611Y-44666D01*
X49514Y-44697D01*
X49436Y-44912D01*
X49446Y-45140D01*
X49514Y-45302D01*
X49611Y-45333D01*
X49945Y-45000D01*
X49945Y-45141D01*
X49682Y-45404D01*
X49713Y-45501D01*
X49928Y-45579D01*
X50156Y-45569D01*
X50318Y-45501D01*
X50349Y-45404D01*
X50349Y-47425D01*
X50034Y-47425D01*
X49647Y-47348D01*
X49351Y-47150D01*
X49150Y-46850D01*
X49075Y-46468D01*
X49075Y-29281D01*
X49131Y-28994D01*
X49277Y-28776D01*
X49493Y-28632D01*
X49783Y-28575D01*
X67218Y-28575D01*
X67505Y-28631D01*
X67723Y-28777D01*
X67867Y-28993D01*
X67925Y-29283D01*
X67925Y-46716D01*
X67925Y-46716D01*
G37*
G54D34*
X67925Y-46716D02*
X67867Y-47006D01*
X67723Y-47222D01*
X67559Y-47332D01*
X67559Y-41136D01*
X67471Y-40924D01*
X67445Y-40897D01*
X67445Y-31179D01*
X67445Y-31006D01*
X67382Y-30944D01*
X67009Y-30944D01*
X67009Y-30951D01*
X66909Y-30951D01*
X66909Y-30944D01*
X66901Y-30944D01*
X66901Y-30844D01*
X66909Y-30844D01*
X66909Y-30836D01*
X67009Y-30836D01*
X67009Y-30844D01*
X67382Y-30844D01*
X67445Y-30781D01*
X67445Y-30608D01*
X67407Y-30516D01*
X67390Y-30500D01*
X67406Y-30483D01*
X67444Y-30391D01*
X67445Y-30292D01*
X67445Y-29820D01*
X67407Y-29728D01*
X67336Y-29658D01*
X67334Y-29657D01*
X67334Y-29408D01*
X67374Y-29309D01*
X67375Y-29140D01*
X67310Y-28984D01*
X67191Y-28864D01*
X67034Y-28800D01*
X66865Y-28799D01*
X66709Y-28864D01*
X66589Y-28983D01*
X66525Y-29140D01*
X66524Y-29309D01*
X66584Y-29452D01*
X66584Y-29656D01*
X66581Y-29657D01*
X66511Y-29728D01*
X66473Y-29820D01*
X66472Y-29919D01*
X66472Y-30391D01*
X66510Y-30483D01*
X66527Y-30500D01*
X66510Y-30516D01*
X66472Y-30608D01*
X66473Y-30781D01*
X66535Y-30843D01*
X66473Y-30843D01*
X66473Y-30855D01*
X66224Y-30607D01*
X66224Y-30135D01*
X66186Y-30043D01*
X66116Y-29973D01*
X66024Y-29935D01*
X65924Y-29934D01*
X65673Y-29934D01*
X64819Y-29080D01*
X64718Y-29013D01*
X64600Y-28990D01*
X61750Y-28990D01*
X61631Y-29013D01*
X61530Y-29080D01*
X61171Y-29440D01*
X60850Y-29440D01*
X58750Y-29440D01*
X58631Y-29463D01*
X58591Y-29490D01*
X58530Y-29530D01*
X58530Y-29530D01*
X58280Y-29780D01*
X58213Y-29881D01*
X58190Y-30000D01*
X58190Y-30250D01*
X58190Y-30492D01*
X58066Y-30368D01*
X57900Y-30300D01*
X57721Y-30299D01*
X57556Y-30368D01*
X57429Y-30494D01*
X57361Y-30660D01*
X57360Y-30839D01*
X57429Y-31004D01*
X57555Y-31131D01*
X57721Y-31199D01*
X57900Y-31200D01*
X58065Y-31131D01*
X58190Y-31007D01*
X58190Y-31750D01*
X58213Y-31868D01*
X58280Y-31969D01*
X58530Y-32219D01*
X58530Y-32219D01*
X58591Y-32259D01*
X58631Y-32286D01*
X58631Y-32286D01*
X58750Y-32310D01*
X59409Y-32310D01*
X59395Y-32344D01*
X59395Y-32443D01*
X59395Y-32915D01*
X59433Y-33007D01*
X59503Y-33077D01*
X59595Y-33115D01*
X59690Y-33116D01*
X59690Y-33300D01*
X59713Y-33418D01*
X59765Y-33496D01*
X59730Y-33530D01*
X59663Y-33631D01*
X59659Y-33649D01*
X59625Y-33649D01*
X59533Y-33687D01*
X59463Y-33758D01*
X59425Y-33850D01*
X59424Y-33949D01*
X59424Y-34299D01*
X59462Y-34391D01*
X59521Y-34450D01*
X59463Y-34508D01*
X59437Y-34570D01*
X59400Y-34570D01*
X58737Y-34570D01*
X58737Y-34150D01*
X58737Y-33000D01*
X57663Y-33000D01*
X57663Y-34150D01*
X58737Y-34150D01*
X58737Y-34570D01*
X57058Y-34570D01*
X57010Y-34521D01*
X57010Y-33500D01*
X56986Y-33381D01*
X56919Y-33280D01*
X56719Y-33080D01*
X56618Y-33013D01*
X56561Y-33002D01*
X56566Y-32997D01*
X56604Y-32905D01*
X56604Y-32806D01*
X56604Y-32334D01*
X56566Y-32242D01*
X56496Y-32172D01*
X56404Y-32134D01*
X56304Y-32133D01*
X56129Y-32133D01*
X56129Y-30625D01*
X56125Y-30536D01*
X56125Y-29775D01*
X56125Y-29225D01*
X56087Y-29133D01*
X56016Y-29063D01*
X55924Y-29025D01*
X55825Y-29024D01*
X55275Y-29024D01*
X55183Y-29062D01*
X55113Y-29133D01*
X55075Y-29225D01*
X55074Y-29324D01*
X55074Y-29874D01*
X55112Y-29966D01*
X55183Y-30036D01*
X55275Y-30074D01*
X55362Y-30075D01*
X55327Y-30089D01*
X55302Y-30182D01*
X55600Y-30479D01*
X55897Y-30182D01*
X55872Y-30089D01*
X55831Y-30075D01*
X55924Y-30075D01*
X56016Y-30037D01*
X56086Y-29966D01*
X56124Y-29874D01*
X56125Y-29775D01*
X56125Y-30536D01*
X56118Y-30417D01*
X56060Y-30277D01*
X55967Y-30252D01*
X55670Y-30550D01*
X55967Y-30847D01*
X56060Y-30822D01*
X56129Y-30625D01*
X56129Y-32133D01*
X55897Y-32133D01*
X55897Y-30917D01*
X55600Y-30620D01*
X55529Y-30691D01*
X55529Y-30550D01*
X55232Y-30252D01*
X55139Y-30277D01*
X55070Y-30474D01*
X55081Y-30682D01*
X55139Y-30822D01*
X55232Y-30847D01*
X55529Y-30550D01*
X55529Y-30691D01*
X55302Y-30917D01*
X55327Y-31010D01*
X55524Y-31079D01*
X55732Y-31068D01*
X55872Y-31010D01*
X55897Y-30917D01*
X55897Y-32133D01*
X55595Y-32133D01*
X55504Y-32171D01*
X55433Y-32242D01*
X55405Y-32310D01*
X55130Y-32310D01*
X55011Y-32333D01*
X54910Y-32400D01*
X54910Y-32400D01*
X54680Y-32630D01*
X54613Y-32731D01*
X54590Y-32850D01*
X54590Y-33021D01*
X54491Y-33120D01*
X54475Y-33120D01*
X54475Y-33044D01*
X54475Y-33040D01*
X54475Y-33040D01*
X54475Y-33017D01*
X54458Y-33001D01*
X54437Y-32948D01*
X54366Y-32878D01*
X54359Y-32875D01*
X54412Y-32875D01*
X54475Y-32812D01*
X54475Y-32785D01*
X54437Y-32693D01*
X54366Y-32623D01*
X54307Y-32598D01*
X54368Y-32586D01*
X54469Y-32519D01*
X54690Y-32298D01*
X54690Y-32298D01*
X54690Y-32298D01*
X54730Y-32237D01*
X54757Y-32197D01*
X54757Y-32197D01*
X54781Y-32079D01*
X54781Y-31925D01*
X54848Y-31898D01*
X54918Y-31827D01*
X54956Y-31735D01*
X54957Y-31636D01*
X54957Y-31164D01*
X54919Y-31072D01*
X54848Y-31002D01*
X54781Y-30974D01*
X54781Y-30325D01*
X54848Y-30298D01*
X54918Y-30227D01*
X54956Y-30135D01*
X54957Y-30036D01*
X54957Y-29564D01*
X54919Y-29472D01*
X54848Y-29402D01*
X54781Y-29374D01*
X54781Y-29121D01*
X54757Y-29002D01*
X54690Y-28901D01*
X54519Y-28730D01*
X54418Y-28663D01*
X54300Y-28640D01*
X54250Y-28640D01*
X50150Y-28640D01*
X50031Y-28663D01*
X49930Y-28730D01*
X49930Y-28730D01*
X49930Y-28730D01*
X49530Y-29130D01*
X49463Y-29231D01*
X49440Y-29350D01*
X49440Y-33106D01*
X49388Y-33158D01*
X49350Y-33250D01*
X49349Y-33349D01*
X49349Y-33949D01*
X49387Y-34041D01*
X49458Y-34111D01*
X49550Y-34149D01*
X49649Y-34150D01*
X50449Y-34150D01*
X50541Y-34112D01*
X50611Y-34041D01*
X50649Y-33949D01*
X50650Y-33850D01*
X50650Y-33740D01*
X51772Y-33740D01*
X51725Y-33787D01*
X51724Y-33814D01*
X51762Y-33906D01*
X51833Y-33976D01*
X51925Y-34014D01*
X52024Y-34015D01*
X52112Y-34015D01*
X52175Y-33952D01*
X52175Y-33760D01*
X52275Y-33760D01*
X52275Y-33952D01*
X52337Y-34015D01*
X52425Y-34015D01*
X52524Y-34014D01*
X52616Y-33976D01*
X52687Y-33906D01*
X52725Y-33814D01*
X52725Y-33787D01*
X52662Y-33725D01*
X52609Y-33725D01*
X52616Y-33722D01*
X52686Y-33651D01*
X52708Y-33598D01*
X52725Y-33582D01*
X52725Y-33555D01*
X52724Y-33555D01*
X52725Y-33460D01*
X52725Y-33300D01*
X52724Y-33300D01*
X52724Y-33299D01*
X52725Y-33225D01*
X52840Y-33225D01*
X52840Y-33550D01*
X52863Y-33668D01*
X52874Y-33685D01*
X52863Y-33701D01*
X52840Y-33820D01*
X52840Y-34450D01*
X52863Y-34568D01*
X52867Y-34575D01*
X52800Y-34574D01*
X52450Y-34574D01*
X52358Y-34612D01*
X52288Y-34683D01*
X52250Y-34775D01*
X52249Y-34874D01*
X52249Y-35424D01*
X52287Y-35516D01*
X52358Y-35586D01*
X52365Y-35589D01*
X52365Y-35910D01*
X52358Y-35912D01*
X52288Y-35983D01*
X52250Y-36075D01*
X52249Y-36174D01*
X52249Y-36724D01*
X52287Y-36816D01*
X52358Y-36886D01*
X52450Y-36924D01*
X52549Y-36925D01*
X52899Y-36925D01*
X52991Y-36887D01*
X53050Y-36828D01*
X53108Y-36886D01*
X53200Y-36924D01*
X53299Y-36925D01*
X53649Y-36925D01*
X53741Y-36887D01*
X53811Y-36816D01*
X53814Y-36810D01*
X54800Y-36810D01*
X54918Y-36786D01*
X54935Y-36775D01*
X55119Y-36775D01*
X55211Y-36737D01*
X55281Y-36666D01*
X55319Y-36574D01*
X55320Y-36475D01*
X55320Y-36125D01*
X55282Y-36033D01*
X55211Y-35963D01*
X55119Y-35925D01*
X55020Y-35924D01*
X54945Y-35924D01*
X54945Y-35475D01*
X54945Y-35224D01*
X54944Y-35125D01*
X54906Y-35033D01*
X54836Y-34962D01*
X54744Y-34924D01*
X54687Y-34925D01*
X54625Y-34987D01*
X54625Y-35300D01*
X54882Y-35300D01*
X54945Y-35237D01*
X54945Y-35224D01*
X54945Y-35475D01*
X54945Y-35462D01*
X54882Y-35400D01*
X54625Y-35400D01*
X54625Y-35712D01*
X54687Y-35775D01*
X54744Y-35775D01*
X54836Y-35737D01*
X54906Y-35666D01*
X54944Y-35574D01*
X54945Y-35475D01*
X54945Y-35924D01*
X54780Y-35924D01*
X54688Y-35962D01*
X54618Y-36033D01*
X54580Y-36125D01*
X54579Y-36190D01*
X54525Y-36190D01*
X54525Y-35712D01*
X54525Y-35400D01*
X54525Y-35300D01*
X54525Y-34987D01*
X54462Y-34925D01*
X54405Y-34924D01*
X54313Y-34962D01*
X54243Y-35033D01*
X54205Y-35125D01*
X54204Y-35224D01*
X54205Y-35237D01*
X54267Y-35300D01*
X54525Y-35300D01*
X54525Y-35400D01*
X54267Y-35400D01*
X54205Y-35462D01*
X54204Y-35475D01*
X54205Y-35574D01*
X54243Y-35666D01*
X54313Y-35737D01*
X54405Y-35775D01*
X54462Y-35775D01*
X54525Y-35712D01*
X54525Y-36190D01*
X53850Y-36190D01*
X53850Y-36075D01*
X53812Y-35983D01*
X53741Y-35913D01*
X53649Y-35875D01*
X53550Y-35874D01*
X53200Y-35874D01*
X53108Y-35912D01*
X53049Y-35971D01*
X52991Y-35913D01*
X52985Y-35910D01*
X52985Y-35589D01*
X52991Y-35587D01*
X53050Y-35528D01*
X53108Y-35586D01*
X53200Y-35624D01*
X53299Y-35625D01*
X53649Y-35625D01*
X53741Y-35587D01*
X53811Y-35516D01*
X53849Y-35424D01*
X53850Y-35325D01*
X53850Y-34775D01*
X53812Y-34683D01*
X53741Y-34613D01*
X53706Y-34598D01*
X53644Y-34505D01*
X53460Y-34321D01*
X53460Y-33995D01*
X53626Y-33995D01*
X53675Y-34014D01*
X53774Y-34015D01*
X54274Y-34015D01*
X54323Y-33995D01*
X54765Y-33995D01*
X54883Y-33971D01*
X54984Y-33904D01*
X55278Y-33610D01*
X55395Y-33610D01*
X55395Y-33693D01*
X55395Y-34165D01*
X55433Y-34257D01*
X55503Y-34327D01*
X55595Y-34365D01*
X55690Y-34366D01*
X55690Y-35021D01*
X55671Y-35040D01*
X55659Y-35040D01*
X55657Y-35033D01*
X55586Y-34963D01*
X55494Y-34925D01*
X55395Y-34924D01*
X55155Y-34924D01*
X55063Y-34962D01*
X54993Y-35033D01*
X54955Y-35125D01*
X54954Y-35224D01*
X54954Y-35574D01*
X54992Y-35666D01*
X55063Y-35736D01*
X55155Y-35774D01*
X55254Y-35775D01*
X55494Y-35775D01*
X55586Y-35737D01*
X55656Y-35666D01*
X55659Y-35660D01*
X55800Y-35660D01*
X55918Y-35636D01*
X56019Y-35569D01*
X56219Y-35369D01*
X56286Y-35268D01*
X56310Y-35150D01*
X56310Y-34366D01*
X56390Y-34366D01*
X56390Y-34650D01*
X56413Y-34768D01*
X56480Y-34869D01*
X56710Y-35099D01*
X56710Y-35099D01*
X56811Y-35166D01*
X56930Y-35190D01*
X59400Y-35190D01*
X59511Y-35190D01*
X59533Y-35211D01*
X59625Y-35249D01*
X59724Y-35250D01*
X60119Y-35250D01*
X60125Y-35255D01*
X60125Y-35650D01*
X60125Y-35794D01*
X60075Y-35915D01*
X60074Y-36084D01*
X60125Y-36205D01*
X60125Y-39844D01*
X59844Y-40125D01*
X57205Y-40125D01*
X57084Y-40075D01*
X56915Y-40074D01*
X56794Y-40125D01*
X55782Y-40125D01*
X55638Y-40153D01*
X55516Y-40234D01*
X54503Y-41248D01*
X54438Y-41247D01*
X53887Y-41247D01*
X53796Y-41285D01*
X53725Y-41356D01*
X53687Y-41448D01*
X53687Y-41547D01*
X53687Y-42689D01*
X53713Y-42752D01*
X53690Y-42762D01*
X53528Y-42923D01*
X53441Y-43135D01*
X53440Y-43363D01*
X53528Y-43575D01*
X53689Y-43737D01*
X53713Y-43747D01*
X53687Y-43810D01*
X53687Y-43909D01*
X53687Y-44038D01*
X53534Y-43975D01*
X53365Y-43974D01*
X53209Y-44039D01*
X53089Y-44158D01*
X53025Y-44315D01*
X53024Y-44484D01*
X53089Y-44640D01*
X53208Y-44760D01*
X53365Y-44824D01*
X53534Y-44825D01*
X53580Y-44806D01*
X53687Y-44806D01*
X53687Y-45051D01*
X53725Y-45143D01*
X53795Y-45213D01*
X53887Y-45251D01*
X53987Y-45252D01*
X54538Y-45252D01*
X54629Y-45214D01*
X54700Y-45143D01*
X54738Y-45051D01*
X54738Y-44952D01*
X54738Y-43810D01*
X54700Y-43718D01*
X54630Y-43648D01*
X54588Y-43630D01*
X54588Y-43447D01*
X54577Y-43396D01*
X54590Y-43364D01*
X54591Y-43136D01*
X54582Y-43115D01*
X54587Y-43087D01*
X54588Y-43087D01*
X54588Y-42869D01*
X54629Y-42852D01*
X54700Y-42781D01*
X54738Y-42689D01*
X54738Y-42590D01*
X54738Y-42073D01*
X55261Y-41550D01*
X55261Y-42689D01*
X55299Y-42781D01*
X55369Y-42851D01*
X55461Y-42889D01*
X55477Y-42889D01*
X55477Y-42971D01*
X55409Y-43135D01*
X55408Y-43363D01*
X55477Y-43528D01*
X55477Y-43609D01*
X55461Y-43609D01*
X55370Y-43647D01*
X55299Y-43718D01*
X55261Y-43810D01*
X55261Y-43909D01*
X55261Y-45051D01*
X55299Y-45143D01*
X55369Y-45213D01*
X55461Y-45251D01*
X55477Y-45251D01*
X55477Y-45734D01*
X55471Y-45740D01*
X55387Y-45740D01*
X55377Y-45730D01*
X55285Y-45692D01*
X55185Y-45691D01*
X55028Y-45691D01*
X55000Y-45703D01*
X54971Y-45691D01*
X54944Y-45692D01*
X54882Y-45754D01*
X54882Y-45784D01*
X54866Y-45800D01*
X54828Y-45892D01*
X54828Y-45991D01*
X54828Y-46207D01*
X54866Y-46299D01*
X54882Y-46315D01*
X54882Y-46345D01*
X54944Y-46408D01*
X54971Y-46408D01*
X54999Y-46396D01*
X55028Y-46407D01*
X55128Y-46408D01*
X55285Y-46408D01*
X55376Y-46370D01*
X55387Y-46360D01*
X55600Y-46360D01*
X55850Y-46360D01*
X55971Y-46360D01*
X56430Y-46819D01*
X56531Y-46886D01*
X56650Y-46910D01*
X62800Y-46910D01*
X62918Y-46886D01*
X63019Y-46819D01*
X64001Y-45836D01*
X64082Y-45869D01*
X64181Y-45870D01*
X64791Y-45870D01*
X64883Y-45832D01*
X64953Y-45761D01*
X64991Y-45669D01*
X64992Y-45570D01*
X64992Y-45330D01*
X64983Y-45310D01*
X65021Y-45310D01*
X65033Y-45321D01*
X65033Y-46347D01*
X65014Y-46392D01*
X65014Y-46491D01*
X65014Y-46707D01*
X65052Y-46799D01*
X65122Y-46869D01*
X65214Y-46907D01*
X65314Y-46908D01*
X65471Y-46908D01*
X65499Y-46896D01*
X65528Y-46907D01*
X65628Y-46908D01*
X65785Y-46908D01*
X65876Y-46870D01*
X65887Y-46860D01*
X66213Y-46860D01*
X66331Y-46836D01*
X66432Y-46769D01*
X66466Y-46734D01*
X66489Y-46790D01*
X66608Y-46910D01*
X66765Y-46974D01*
X66934Y-46975D01*
X67090Y-46910D01*
X67210Y-46791D01*
X67274Y-46634D01*
X67275Y-46550D01*
X67275Y-46465D01*
X67210Y-46309D01*
X67091Y-46189D01*
X67055Y-46175D01*
X66938Y-46057D01*
X66938Y-45861D01*
X67009Y-45832D01*
X67079Y-45761D01*
X67117Y-45669D01*
X67118Y-45570D01*
X67118Y-45330D01*
X67084Y-45250D01*
X67118Y-45169D01*
X67118Y-44830D01*
X67084Y-44749D01*
X67117Y-44669D01*
X67118Y-44570D01*
X67118Y-44330D01*
X67084Y-44249D01*
X67117Y-44169D01*
X67118Y-44070D01*
X67118Y-43830D01*
X67084Y-43749D01*
X67117Y-43669D01*
X67118Y-43570D01*
X67118Y-43330D01*
X67084Y-43249D01*
X67117Y-43169D01*
X67118Y-43070D01*
X67118Y-42830D01*
X67084Y-42750D01*
X67118Y-42669D01*
X67118Y-42330D01*
X67084Y-42250D01*
X67118Y-42169D01*
X67118Y-42112D01*
X67055Y-42050D01*
X66613Y-42050D01*
X66613Y-42192D01*
X66613Y-42307D01*
X66613Y-42450D01*
X67055Y-42450D01*
X67118Y-42387D01*
X67118Y-42330D01*
X67118Y-42669D01*
X67118Y-42612D01*
X67055Y-42550D01*
X66613Y-42550D01*
X66613Y-42557D01*
X66513Y-42557D01*
X66513Y-42550D01*
X66513Y-42450D01*
X66513Y-42307D01*
X66513Y-42192D01*
X66513Y-42050D01*
X66070Y-42050D01*
X66008Y-42112D01*
X66007Y-42169D01*
X66041Y-42250D01*
X66007Y-42330D01*
X66008Y-42387D01*
X66070Y-42450D01*
X66513Y-42450D01*
X66513Y-42550D01*
X66070Y-42550D01*
X66008Y-42612D01*
X66007Y-42669D01*
X66041Y-42750D01*
X66008Y-42830D01*
X66007Y-42929D01*
X66007Y-43169D01*
X66041Y-43250D01*
X66008Y-43330D01*
X66007Y-43429D01*
X66007Y-43669D01*
X66041Y-43750D01*
X66008Y-43830D01*
X66007Y-43929D01*
X66007Y-44169D01*
X66041Y-44250D01*
X66008Y-44330D01*
X66007Y-44429D01*
X66007Y-44669D01*
X66041Y-44750D01*
X66007Y-44830D01*
X66008Y-44887D01*
X66070Y-44950D01*
X66513Y-44950D01*
X66513Y-44942D01*
X66613Y-44942D01*
X66613Y-44950D01*
X67055Y-44950D01*
X67118Y-44887D01*
X67118Y-44830D01*
X67118Y-45169D01*
X67118Y-45112D01*
X67055Y-45050D01*
X66613Y-45050D01*
X66613Y-45057D01*
X66513Y-45057D01*
X66513Y-45050D01*
X66070Y-45050D01*
X66008Y-45112D01*
X66007Y-45169D01*
X66041Y-45250D01*
X66008Y-45330D01*
X66007Y-45429D01*
X66007Y-45669D01*
X66045Y-45761D01*
X66116Y-45831D01*
X66188Y-45861D01*
X66188Y-46136D01*
X66084Y-46240D01*
X65887Y-46240D01*
X65877Y-46230D01*
X65785Y-46192D01*
X65725Y-46191D01*
X65725Y-39724D01*
X65725Y-39662D01*
X65662Y-39600D01*
X65300Y-39600D01*
X65300Y-39862D01*
X65362Y-39925D01*
X65425Y-39925D01*
X65524Y-39924D01*
X65616Y-39886D01*
X65687Y-39816D01*
X65725Y-39724D01*
X65725Y-46191D01*
X65685Y-46191D01*
X65653Y-46191D01*
X65653Y-45193D01*
X65652Y-45192D01*
X65653Y-45192D01*
X65648Y-45169D01*
X65629Y-45074D01*
X65629Y-45074D01*
X65591Y-45017D01*
X65591Y-41136D01*
X65503Y-40924D01*
X65342Y-40762D01*
X65200Y-40703D01*
X65200Y-39862D01*
X65200Y-39600D01*
X64837Y-39600D01*
X64775Y-39662D01*
X64774Y-39724D01*
X64812Y-39816D01*
X64883Y-39886D01*
X64975Y-39924D01*
X65074Y-39925D01*
X65137Y-39925D01*
X65200Y-39862D01*
X65200Y-40703D01*
X65130Y-40675D01*
X64902Y-40674D01*
X64690Y-40762D01*
X64528Y-40923D01*
X64475Y-41053D01*
X64475Y-39724D01*
X64475Y-39662D01*
X64412Y-39600D01*
X64050Y-39600D01*
X64050Y-39862D01*
X64112Y-39925D01*
X64175Y-39925D01*
X64274Y-39924D01*
X64366Y-39886D01*
X64437Y-39816D01*
X64475Y-39724D01*
X64475Y-41053D01*
X64441Y-41135D01*
X64440Y-41363D01*
X64528Y-41575D01*
X64582Y-41629D01*
X64549Y-41630D01*
X64487Y-41692D01*
X64487Y-41950D01*
X64929Y-41950D01*
X64992Y-41887D01*
X64992Y-41830D01*
X64989Y-41824D01*
X65129Y-41825D01*
X65341Y-41737D01*
X65503Y-41576D01*
X65590Y-41364D01*
X65591Y-41136D01*
X65591Y-45017D01*
X65562Y-44973D01*
X65562Y-44973D01*
X65369Y-44780D01*
X65268Y-44713D01*
X65150Y-44690D01*
X64983Y-44690D01*
X64991Y-44669D01*
X64992Y-44570D01*
X64992Y-44330D01*
X64958Y-44249D01*
X64991Y-44169D01*
X64992Y-44070D01*
X64992Y-43830D01*
X64958Y-43749D01*
X64991Y-43669D01*
X64992Y-43570D01*
X64992Y-43330D01*
X64958Y-43249D01*
X64991Y-43169D01*
X64992Y-43070D01*
X64992Y-42830D01*
X64958Y-42750D01*
X64992Y-42669D01*
X64992Y-42330D01*
X64958Y-42250D01*
X64992Y-42169D01*
X64992Y-42112D01*
X64929Y-42050D01*
X64487Y-42050D01*
X64487Y-42192D01*
X64487Y-42307D01*
X64487Y-42450D01*
X64929Y-42450D01*
X64992Y-42387D01*
X64992Y-42330D01*
X64992Y-42669D01*
X64992Y-42612D01*
X64929Y-42550D01*
X64487Y-42550D01*
X64487Y-42557D01*
X64387Y-42557D01*
X64387Y-42550D01*
X64387Y-42450D01*
X64387Y-42307D01*
X64387Y-42192D01*
X64387Y-42050D01*
X64387Y-41950D01*
X64387Y-41692D01*
X64324Y-41630D01*
X64181Y-41629D01*
X64082Y-41630D01*
X63990Y-41668D01*
X63950Y-41708D01*
X63950Y-39862D01*
X63950Y-39600D01*
X63587Y-39600D01*
X63525Y-39662D01*
X63524Y-39724D01*
X63562Y-39816D01*
X63633Y-39886D01*
X63725Y-39924D01*
X63824Y-39925D01*
X63887Y-39925D01*
X63950Y-39862D01*
X63950Y-41708D01*
X63919Y-41738D01*
X63881Y-41830D01*
X63882Y-41887D01*
X63944Y-41950D01*
X64387Y-41950D01*
X64387Y-42050D01*
X63944Y-42050D01*
X63882Y-42112D01*
X63881Y-42169D01*
X63915Y-42250D01*
X63881Y-42330D01*
X63882Y-42387D01*
X63944Y-42450D01*
X64387Y-42450D01*
X64387Y-42550D01*
X63944Y-42550D01*
X63882Y-42612D01*
X63881Y-42669D01*
X63890Y-42690D01*
X63878Y-42690D01*
X63810Y-42621D01*
X63810Y-42250D01*
X63786Y-42131D01*
X63786Y-42131D01*
X63759Y-42091D01*
X63719Y-42030D01*
X63719Y-42030D01*
X63469Y-41780D01*
X63368Y-41713D01*
X63250Y-41690D01*
X63225Y-41690D01*
X63225Y-39724D01*
X63225Y-39662D01*
X63162Y-39600D01*
X62800Y-39600D01*
X62800Y-39862D01*
X62862Y-39925D01*
X62925Y-39925D01*
X63024Y-39924D01*
X63116Y-39886D01*
X63187Y-39816D01*
X63225Y-39724D01*
X63225Y-41690D01*
X62700Y-41690D01*
X62700Y-39862D01*
X62700Y-39600D01*
X62337Y-39600D01*
X62275Y-39662D01*
X62274Y-39724D01*
X62312Y-39816D01*
X62383Y-39886D01*
X62475Y-39924D01*
X62574Y-39925D01*
X62637Y-39925D01*
X62700Y-39862D01*
X62700Y-41690D01*
X62050Y-41690D01*
X62050Y-41675D01*
X62012Y-41583D01*
X61975Y-41546D01*
X61975Y-39724D01*
X61975Y-39662D01*
X61912Y-39600D01*
X61550Y-39600D01*
X61550Y-39862D01*
X61612Y-39925D01*
X61675Y-39925D01*
X61774Y-39924D01*
X61866Y-39886D01*
X61937Y-39816D01*
X61975Y-39724D01*
X61975Y-41546D01*
X61941Y-41513D01*
X61849Y-41475D01*
X61750Y-41474D01*
X61450Y-41474D01*
X61450Y-39862D01*
X61450Y-39600D01*
X61087Y-39600D01*
X61025Y-39662D01*
X61024Y-39724D01*
X61062Y-39816D01*
X61133Y-39886D01*
X61225Y-39924D01*
X61324Y-39925D01*
X61387Y-39925D01*
X61450Y-39862D01*
X61450Y-41474D01*
X61400Y-41474D01*
X61308Y-41512D01*
X61249Y-41571D01*
X61191Y-41513D01*
X61099Y-41475D01*
X61000Y-41474D01*
X60650Y-41474D01*
X60558Y-41512D01*
X60488Y-41583D01*
X60450Y-41675D01*
X60450Y-41690D01*
X59300Y-41690D01*
X59300Y-41675D01*
X59262Y-41583D01*
X59191Y-41513D01*
X59099Y-41475D01*
X59000Y-41474D01*
X58650Y-41474D01*
X58558Y-41512D01*
X58500Y-41571D01*
X58441Y-41512D01*
X58349Y-41474D01*
X58237Y-41475D01*
X58175Y-41537D01*
X58175Y-41950D01*
X58182Y-41950D01*
X58182Y-42050D01*
X58175Y-42050D01*
X58175Y-42462D01*
X58237Y-42525D01*
X58349Y-42525D01*
X58441Y-42487D01*
X58500Y-42428D01*
X58558Y-42486D01*
X58650Y-42524D01*
X58749Y-42525D01*
X59099Y-42525D01*
X59191Y-42487D01*
X59261Y-42416D01*
X59299Y-42324D01*
X59299Y-42310D01*
X60449Y-42310D01*
X60449Y-42324D01*
X60487Y-42416D01*
X60558Y-42486D01*
X60650Y-42524D01*
X60749Y-42525D01*
X61099Y-42525D01*
X61191Y-42487D01*
X61250Y-42428D01*
X61308Y-42486D01*
X61400Y-42524D01*
X61499Y-42525D01*
X61849Y-42525D01*
X61941Y-42487D01*
X62011Y-42416D01*
X62049Y-42324D01*
X62049Y-42310D01*
X63121Y-42310D01*
X63190Y-42378D01*
X63190Y-42750D01*
X63213Y-42868D01*
X63280Y-42969D01*
X63501Y-43190D01*
X63378Y-43190D01*
X63219Y-43030D01*
X63118Y-42963D01*
X63000Y-42940D01*
X62050Y-42940D01*
X62050Y-42925D01*
X62012Y-42833D01*
X61941Y-42763D01*
X61849Y-42725D01*
X61750Y-42724D01*
X61400Y-42724D01*
X61308Y-42762D01*
X61249Y-42821D01*
X61191Y-42763D01*
X61099Y-42725D01*
X61000Y-42724D01*
X60650Y-42724D01*
X60558Y-42762D01*
X60488Y-42833D01*
X60450Y-42925D01*
X60450Y-42940D01*
X59300Y-42940D01*
X59300Y-42925D01*
X59262Y-42833D01*
X59191Y-42763D01*
X59099Y-42725D01*
X59000Y-42724D01*
X58650Y-42724D01*
X58558Y-42762D01*
X58500Y-42821D01*
X58441Y-42762D01*
X58349Y-42724D01*
X58237Y-42725D01*
X58175Y-42787D01*
X58175Y-43200D01*
X58182Y-43200D01*
X58182Y-43300D01*
X58175Y-43300D01*
X58175Y-43712D01*
X58237Y-43775D01*
X58349Y-43775D01*
X58441Y-43737D01*
X58500Y-43678D01*
X58558Y-43736D01*
X58650Y-43774D01*
X58749Y-43775D01*
X59099Y-43775D01*
X59191Y-43737D01*
X59261Y-43666D01*
X59299Y-43574D01*
X59299Y-43560D01*
X60449Y-43560D01*
X60449Y-43574D01*
X60487Y-43666D01*
X60558Y-43736D01*
X60650Y-43774D01*
X60749Y-43775D01*
X61099Y-43775D01*
X61191Y-43737D01*
X61250Y-43678D01*
X61308Y-43736D01*
X61400Y-43774D01*
X61499Y-43775D01*
X61849Y-43775D01*
X61941Y-43737D01*
X62011Y-43666D01*
X62049Y-43574D01*
X62049Y-43560D01*
X62871Y-43560D01*
X63030Y-43719D01*
X63030Y-43719D01*
X63076Y-43749D01*
X63076Y-43750D01*
X63030Y-43780D01*
X62621Y-44190D01*
X62050Y-44190D01*
X62050Y-44175D01*
X62012Y-44083D01*
X61941Y-44013D01*
X61849Y-43975D01*
X61750Y-43974D01*
X61400Y-43974D01*
X61308Y-44012D01*
X61249Y-44071D01*
X61191Y-44013D01*
X61099Y-43975D01*
X61000Y-43974D01*
X60650Y-43974D01*
X60558Y-44012D01*
X60488Y-44083D01*
X60450Y-44175D01*
X60450Y-44190D01*
X59300Y-44190D01*
X59300Y-44175D01*
X59262Y-44083D01*
X59191Y-44013D01*
X59099Y-43975D01*
X59000Y-43974D01*
X58650Y-43974D01*
X58558Y-44012D01*
X58500Y-44071D01*
X58441Y-44012D01*
X58349Y-43974D01*
X58237Y-43975D01*
X58175Y-44037D01*
X58175Y-44450D01*
X58182Y-44450D01*
X58182Y-44550D01*
X58175Y-44550D01*
X58175Y-44962D01*
X58237Y-45025D01*
X58349Y-45025D01*
X58441Y-44987D01*
X58500Y-44928D01*
X58558Y-44986D01*
X58650Y-45024D01*
X58749Y-45025D01*
X59099Y-45025D01*
X59191Y-44987D01*
X59261Y-44916D01*
X59299Y-44824D01*
X59299Y-44810D01*
X60449Y-44810D01*
X60449Y-44824D01*
X60487Y-44916D01*
X60558Y-44986D01*
X60650Y-45024D01*
X60749Y-45025D01*
X61099Y-45025D01*
X61191Y-44987D01*
X61250Y-44928D01*
X61308Y-44986D01*
X61400Y-45024D01*
X61499Y-45025D01*
X61849Y-45025D01*
X61941Y-44987D01*
X62011Y-44916D01*
X62049Y-44824D01*
X62049Y-44810D01*
X62750Y-44810D01*
X62868Y-44786D01*
X62969Y-44719D01*
X63378Y-44310D01*
X63501Y-44310D01*
X63280Y-44530D01*
X63213Y-44631D01*
X63190Y-44750D01*
X63190Y-45121D01*
X62871Y-45440D01*
X62050Y-45440D01*
X62050Y-45425D01*
X62012Y-45333D01*
X61941Y-45263D01*
X61849Y-45225D01*
X61750Y-45224D01*
X61400Y-45224D01*
X61308Y-45262D01*
X61249Y-45321D01*
X61191Y-45263D01*
X61099Y-45225D01*
X61000Y-45224D01*
X60650Y-45224D01*
X60558Y-45262D01*
X60488Y-45333D01*
X60450Y-45425D01*
X60450Y-45440D01*
X59300Y-45440D01*
X59300Y-45425D01*
X59262Y-45333D01*
X59191Y-45263D01*
X59099Y-45225D01*
X59000Y-45224D01*
X58650Y-45224D01*
X58558Y-45262D01*
X58500Y-45321D01*
X58441Y-45262D01*
X58349Y-45224D01*
X58237Y-45225D01*
X58175Y-45287D01*
X58175Y-45700D01*
X58182Y-45700D01*
X58182Y-45800D01*
X58175Y-45800D01*
X58175Y-46212D01*
X58237Y-46275D01*
X58349Y-46275D01*
X58441Y-46237D01*
X58500Y-46178D01*
X58558Y-46236D01*
X58650Y-46274D01*
X58749Y-46275D01*
X59099Y-46275D01*
X59191Y-46237D01*
X59261Y-46166D01*
X59299Y-46074D01*
X59299Y-46060D01*
X60449Y-46060D01*
X60449Y-46074D01*
X60487Y-46166D01*
X60558Y-46236D01*
X60650Y-46274D01*
X60749Y-46275D01*
X61099Y-46275D01*
X61191Y-46237D01*
X61250Y-46178D01*
X61308Y-46236D01*
X61400Y-46274D01*
X61499Y-46275D01*
X61849Y-46275D01*
X61941Y-46237D01*
X62011Y-46166D01*
X62049Y-46074D01*
X62049Y-46060D01*
X62901Y-46060D01*
X62671Y-46290D01*
X58075Y-46290D01*
X58075Y-46212D01*
X58075Y-45800D01*
X58075Y-45700D01*
X58075Y-45287D01*
X58075Y-44962D01*
X58075Y-44550D01*
X58075Y-44450D01*
X58075Y-44037D01*
X58075Y-43712D01*
X58075Y-43300D01*
X58075Y-43200D01*
X58075Y-42787D01*
X58075Y-42462D01*
X58075Y-42050D01*
X58075Y-41950D01*
X58075Y-41537D01*
X58012Y-41475D01*
X57900Y-41474D01*
X57808Y-41512D01*
X57738Y-41583D01*
X57700Y-41675D01*
X57699Y-41774D01*
X57700Y-41887D01*
X57762Y-41950D01*
X58075Y-41950D01*
X58075Y-42050D01*
X57762Y-42050D01*
X57700Y-42112D01*
X57699Y-42225D01*
X57700Y-42324D01*
X57738Y-42416D01*
X57808Y-42487D01*
X57900Y-42525D01*
X58012Y-42525D01*
X58075Y-42462D01*
X58075Y-42787D01*
X58012Y-42725D01*
X57900Y-42724D01*
X57808Y-42762D01*
X57738Y-42833D01*
X57700Y-42925D01*
X57699Y-43024D01*
X57700Y-43137D01*
X57762Y-43200D01*
X58075Y-43200D01*
X58075Y-43300D01*
X57762Y-43300D01*
X57700Y-43362D01*
X57699Y-43475D01*
X57700Y-43574D01*
X57738Y-43666D01*
X57808Y-43737D01*
X57900Y-43775D01*
X58012Y-43775D01*
X58075Y-43712D01*
X58075Y-44037D01*
X58012Y-43975D01*
X57900Y-43974D01*
X57808Y-44012D01*
X57738Y-44083D01*
X57700Y-44175D01*
X57699Y-44274D01*
X57700Y-44387D01*
X57762Y-44450D01*
X58075Y-44450D01*
X58075Y-44550D01*
X57762Y-44550D01*
X57700Y-44612D01*
X57699Y-44725D01*
X57700Y-44824D01*
X57738Y-44916D01*
X57808Y-44987D01*
X57900Y-45025D01*
X58012Y-45025D01*
X58075Y-44962D01*
X58075Y-45287D01*
X58012Y-45225D01*
X57900Y-45224D01*
X57808Y-45262D01*
X57738Y-45333D01*
X57700Y-45425D01*
X57699Y-45524D01*
X57700Y-45637D01*
X57762Y-45700D01*
X58075Y-45700D01*
X58075Y-45800D01*
X57762Y-45800D01*
X57700Y-45862D01*
X57699Y-45975D01*
X57700Y-46074D01*
X57738Y-46166D01*
X57808Y-46237D01*
X57900Y-46275D01*
X58012Y-46275D01*
X58075Y-46212D01*
X58075Y-46290D01*
X56778Y-46290D01*
X56319Y-45830D01*
X56218Y-45763D01*
X56100Y-45740D01*
X56097Y-45740D01*
X56097Y-45252D01*
X56112Y-45252D01*
X56203Y-45214D01*
X56274Y-45143D01*
X56312Y-45051D01*
X56312Y-44952D01*
X56312Y-43810D01*
X56286Y-43747D01*
X56309Y-43737D01*
X56471Y-43576D01*
X56558Y-43364D01*
X56559Y-43136D01*
X56471Y-42924D01*
X56310Y-42762D01*
X56286Y-42752D01*
X56312Y-42689D01*
X56312Y-42590D01*
X56312Y-41448D01*
X56274Y-41356D01*
X56204Y-41286D01*
X56112Y-41248D01*
X56012Y-41247D01*
X55564Y-41247D01*
X55937Y-40875D01*
X56794Y-40875D01*
X56915Y-40924D01*
X57084Y-40925D01*
X57205Y-40875D01*
X60000Y-40875D01*
X60143Y-40846D01*
X60265Y-40765D01*
X60765Y-40265D01*
X60846Y-40143D01*
X60875Y-40000D01*
X60875Y-36205D01*
X60924Y-36084D01*
X60925Y-35915D01*
X60875Y-35794D01*
X60875Y-35650D01*
X60875Y-35100D01*
X60846Y-34956D01*
X60765Y-34834D01*
X60490Y-34559D01*
X60446Y-34530D01*
X60437Y-34508D01*
X60378Y-34449D01*
X60436Y-34391D01*
X60474Y-34299D01*
X60475Y-34200D01*
X60475Y-33850D01*
X60458Y-33810D01*
X61551Y-33810D01*
X61280Y-34080D01*
X61213Y-34181D01*
X61190Y-34300D01*
X61190Y-36089D01*
X61133Y-36112D01*
X61063Y-36183D01*
X61025Y-36275D01*
X61024Y-36374D01*
X61024Y-36624D01*
X61062Y-36716D01*
X61096Y-36749D01*
X61063Y-36783D01*
X61025Y-36875D01*
X61024Y-36974D01*
X61024Y-37224D01*
X61062Y-37316D01*
X61133Y-37386D01*
X61190Y-37410D01*
X61190Y-38589D01*
X61133Y-38612D01*
X61063Y-38683D01*
X61025Y-38775D01*
X61024Y-38874D01*
X61024Y-39124D01*
X61062Y-39216D01*
X61096Y-39250D01*
X61062Y-39283D01*
X61024Y-39375D01*
X61025Y-39437D01*
X61087Y-39500D01*
X61450Y-39500D01*
X61450Y-39492D01*
X61550Y-39492D01*
X61550Y-39500D01*
X61912Y-39500D01*
X61975Y-39437D01*
X61975Y-39375D01*
X61937Y-39283D01*
X61903Y-39250D01*
X61936Y-39216D01*
X61974Y-39124D01*
X61975Y-39025D01*
X61975Y-38775D01*
X61937Y-38683D01*
X61866Y-38613D01*
X61810Y-38589D01*
X61810Y-37410D01*
X61866Y-37387D01*
X61936Y-37316D01*
X61974Y-37224D01*
X61975Y-37125D01*
X61975Y-36875D01*
X61937Y-36783D01*
X61903Y-36750D01*
X61936Y-36716D01*
X61974Y-36624D01*
X61975Y-36525D01*
X61975Y-36275D01*
X61937Y-36183D01*
X61866Y-36113D01*
X61810Y-36089D01*
X61810Y-34428D01*
X61888Y-34349D01*
X61974Y-34350D01*
X62424Y-34350D01*
X62516Y-34312D01*
X62586Y-34241D01*
X62624Y-34149D01*
X62625Y-34050D01*
X62625Y-33850D01*
X62587Y-33758D01*
X62578Y-33750D01*
X62586Y-33741D01*
X62624Y-33649D01*
X62625Y-33550D01*
X62625Y-33350D01*
X62587Y-33258D01*
X62578Y-33250D01*
X62586Y-33241D01*
X62624Y-33149D01*
X62625Y-33050D01*
X62625Y-32850D01*
X62587Y-32758D01*
X62578Y-32750D01*
X62586Y-32741D01*
X62624Y-32649D01*
X62625Y-32550D01*
X62625Y-32350D01*
X62587Y-32258D01*
X62578Y-32250D01*
X62586Y-32241D01*
X62624Y-32149D01*
X62625Y-32050D01*
X62625Y-31850D01*
X62587Y-31758D01*
X62578Y-31750D01*
X62586Y-31741D01*
X62624Y-31649D01*
X62625Y-31550D01*
X62625Y-31350D01*
X62608Y-31310D01*
X62621Y-31310D01*
X62690Y-31378D01*
X62690Y-34371D01*
X62530Y-34530D01*
X62463Y-34631D01*
X62440Y-34750D01*
X62440Y-36089D01*
X62383Y-36112D01*
X62313Y-36183D01*
X62275Y-36275D01*
X62274Y-36374D01*
X62274Y-36624D01*
X62312Y-36716D01*
X62346Y-36749D01*
X62313Y-36783D01*
X62275Y-36875D01*
X62274Y-36974D01*
X62274Y-37224D01*
X62312Y-37316D01*
X62383Y-37386D01*
X62440Y-37410D01*
X62440Y-38589D01*
X62383Y-38612D01*
X62313Y-38683D01*
X62275Y-38775D01*
X62274Y-38874D01*
X62274Y-39124D01*
X62312Y-39216D01*
X62346Y-39250D01*
X62312Y-39283D01*
X62274Y-39375D01*
X62275Y-39437D01*
X62337Y-39500D01*
X62700Y-39500D01*
X62700Y-39492D01*
X62800Y-39492D01*
X62800Y-39500D01*
X63162Y-39500D01*
X63225Y-39437D01*
X63225Y-39375D01*
X63187Y-39283D01*
X63153Y-39250D01*
X63186Y-39216D01*
X63224Y-39124D01*
X63225Y-39025D01*
X63225Y-38775D01*
X63187Y-38683D01*
X63116Y-38613D01*
X63060Y-38589D01*
X63060Y-37410D01*
X63116Y-37387D01*
X63186Y-37316D01*
X63224Y-37224D01*
X63225Y-37125D01*
X63225Y-36875D01*
X63187Y-36783D01*
X63153Y-36750D01*
X63186Y-36716D01*
X63224Y-36624D01*
X63225Y-36525D01*
X63225Y-36275D01*
X63187Y-36183D01*
X63116Y-36113D01*
X63060Y-36089D01*
X63060Y-34878D01*
X63219Y-34719D01*
X63219Y-34719D01*
X63219Y-34719D01*
X63259Y-34658D01*
X63286Y-34618D01*
X63286Y-34618D01*
X63310Y-34500D01*
X63310Y-31250D01*
X63286Y-31131D01*
X63286Y-31131D01*
X63259Y-31091D01*
X63219Y-31030D01*
X63219Y-31030D01*
X62969Y-30780D01*
X62868Y-30713D01*
X62750Y-30690D01*
X62518Y-30690D01*
X62516Y-30688D01*
X62424Y-30650D01*
X62325Y-30649D01*
X61875Y-30649D01*
X61783Y-30687D01*
X61713Y-30758D01*
X61675Y-30850D01*
X61674Y-30949D01*
X61674Y-31149D01*
X61691Y-31190D01*
X61500Y-31190D01*
X60604Y-31190D01*
X60604Y-31084D01*
X60566Y-30992D01*
X60496Y-30922D01*
X60404Y-30884D01*
X60310Y-30883D01*
X60310Y-30628D01*
X60378Y-30560D01*
X61500Y-30560D01*
X61618Y-30536D01*
X61719Y-30469D01*
X62128Y-30060D01*
X62600Y-30060D01*
X62620Y-30060D01*
X62862Y-30060D01*
X62872Y-30069D01*
X62964Y-30107D01*
X63064Y-30108D01*
X63221Y-30108D01*
X63249Y-30096D01*
X63278Y-30107D01*
X63378Y-30108D01*
X63535Y-30108D01*
X63626Y-30070D01*
X63637Y-30060D01*
X63880Y-30060D01*
X64271Y-30060D01*
X64590Y-30378D01*
X64590Y-30677D01*
X64524Y-30650D01*
X64425Y-30649D01*
X63975Y-30649D01*
X63883Y-30687D01*
X63864Y-30707D01*
X63864Y-30707D01*
X63831Y-30713D01*
X63730Y-30780D01*
X63730Y-30780D01*
X63430Y-31080D01*
X63363Y-31181D01*
X63340Y-31300D01*
X63340Y-34300D01*
X63363Y-34418D01*
X63430Y-34519D01*
X63690Y-34778D01*
X63690Y-36089D01*
X63633Y-36112D01*
X63563Y-36183D01*
X63525Y-36275D01*
X63524Y-36374D01*
X63524Y-36624D01*
X63562Y-36716D01*
X63596Y-36749D01*
X63563Y-36783D01*
X63525Y-36875D01*
X63524Y-36974D01*
X63524Y-37224D01*
X63562Y-37316D01*
X63633Y-37386D01*
X63690Y-37410D01*
X63690Y-38589D01*
X63633Y-38612D01*
X63563Y-38683D01*
X63525Y-38775D01*
X63524Y-38874D01*
X63524Y-39124D01*
X63562Y-39216D01*
X63596Y-39250D01*
X63562Y-39283D01*
X63524Y-39375D01*
X63525Y-39437D01*
X63587Y-39500D01*
X63950Y-39500D01*
X63950Y-39492D01*
X64050Y-39492D01*
X64050Y-39500D01*
X64412Y-39500D01*
X64475Y-39437D01*
X64475Y-39375D01*
X64437Y-39283D01*
X64403Y-39250D01*
X64436Y-39216D01*
X64474Y-39124D01*
X64475Y-39025D01*
X64475Y-38775D01*
X64437Y-38683D01*
X64366Y-38613D01*
X64310Y-38589D01*
X64310Y-37410D01*
X64366Y-37387D01*
X64436Y-37316D01*
X64474Y-37224D01*
X64475Y-37125D01*
X64475Y-36875D01*
X64437Y-36783D01*
X64403Y-36750D01*
X64436Y-36716D01*
X64474Y-36624D01*
X64475Y-36525D01*
X64475Y-36275D01*
X64437Y-36183D01*
X64366Y-36113D01*
X64310Y-36089D01*
X64310Y-34650D01*
X64309Y-34649D01*
X64310Y-34649D01*
X64305Y-34626D01*
X64286Y-34531D01*
X64286Y-34531D01*
X64219Y-34430D01*
X64219Y-34430D01*
X64138Y-34350D01*
X64524Y-34350D01*
X64616Y-34312D01*
X64618Y-34310D01*
X64821Y-34310D01*
X64940Y-34428D01*
X64940Y-36089D01*
X64883Y-36112D01*
X64813Y-36183D01*
X64775Y-36275D01*
X64774Y-36374D01*
X64774Y-36624D01*
X64812Y-36716D01*
X64846Y-36749D01*
X64813Y-36783D01*
X64775Y-36875D01*
X64774Y-36974D01*
X64774Y-37224D01*
X64812Y-37316D01*
X64883Y-37386D01*
X64940Y-37410D01*
X64940Y-38589D01*
X64883Y-38612D01*
X64813Y-38683D01*
X64775Y-38775D01*
X64774Y-38874D01*
X64774Y-39124D01*
X64812Y-39216D01*
X64846Y-39250D01*
X64812Y-39283D01*
X64774Y-39375D01*
X64775Y-39437D01*
X64837Y-39500D01*
X65200Y-39500D01*
X65200Y-39492D01*
X65300Y-39492D01*
X65300Y-39500D01*
X65662Y-39500D01*
X65725Y-39437D01*
X65725Y-39375D01*
X65687Y-39283D01*
X65653Y-39250D01*
X65686Y-39216D01*
X65724Y-39124D01*
X65725Y-39025D01*
X65725Y-38775D01*
X65687Y-38683D01*
X65616Y-38613D01*
X65560Y-38589D01*
X65560Y-37410D01*
X65616Y-37387D01*
X65686Y-37316D01*
X65724Y-37224D01*
X65725Y-37125D01*
X65725Y-36875D01*
X65687Y-36783D01*
X65653Y-36750D01*
X65686Y-36716D01*
X65724Y-36624D01*
X65725Y-36525D01*
X65725Y-36275D01*
X65687Y-36183D01*
X65616Y-36113D01*
X65560Y-36089D01*
X65560Y-34300D01*
X65559Y-34299D01*
X65560Y-34299D01*
X65555Y-34276D01*
X65541Y-34208D01*
X65549Y-34209D01*
X65550Y-34210D01*
X65599Y-34210D01*
X65599Y-34249D01*
X65637Y-34341D01*
X65708Y-34411D01*
X65800Y-34449D01*
X65899Y-34450D01*
X65940Y-34450D01*
X65940Y-34900D01*
X65963Y-35018D01*
X66030Y-35119D01*
X66440Y-35528D01*
X66440Y-36089D01*
X66383Y-36112D01*
X66313Y-36183D01*
X66275Y-36275D01*
X66274Y-36374D01*
X66274Y-36624D01*
X66312Y-36716D01*
X66346Y-36750D01*
X66312Y-36783D01*
X66274Y-36875D01*
X66275Y-36937D01*
X66337Y-37000D01*
X66700Y-37000D01*
X66700Y-36992D01*
X66800Y-36992D01*
X66800Y-37000D01*
X67162Y-37000D01*
X67225Y-36937D01*
X67225Y-36875D01*
X67187Y-36783D01*
X67153Y-36750D01*
X67186Y-36716D01*
X67224Y-36624D01*
X67225Y-36525D01*
X67225Y-36275D01*
X67187Y-36183D01*
X67116Y-36113D01*
X67060Y-36089D01*
X67060Y-35400D01*
X67036Y-35281D01*
X66969Y-35180D01*
X66560Y-34771D01*
X66560Y-34450D01*
X66699Y-34450D01*
X66791Y-34412D01*
X66861Y-34341D01*
X66899Y-34249D01*
X66900Y-34150D01*
X66900Y-33550D01*
X66899Y-33550D01*
X66968Y-33536D01*
X67069Y-33469D01*
X67319Y-33219D01*
X67319Y-33219D01*
X67319Y-33219D01*
X67359Y-33158D01*
X67386Y-33118D01*
X67386Y-33118D01*
X67410Y-33000D01*
X67410Y-31921D01*
X67386Y-31802D01*
X67319Y-31701D01*
X67319Y-31701D01*
X66997Y-31380D01*
X67009Y-31380D01*
X67009Y-31317D01*
X67071Y-31380D01*
X67145Y-31380D01*
X67244Y-31379D01*
X67336Y-31341D01*
X67407Y-31271D01*
X67445Y-31179D01*
X67445Y-40897D01*
X67410Y-40862D01*
X67310Y-40762D01*
X67225Y-40727D01*
X67225Y-37224D01*
X67225Y-37162D01*
X67162Y-37100D01*
X66800Y-37100D01*
X66800Y-37362D01*
X66862Y-37425D01*
X66925Y-37425D01*
X67024Y-37424D01*
X67116Y-37386D01*
X67187Y-37316D01*
X67225Y-37224D01*
X67225Y-40727D01*
X67098Y-40675D01*
X66870Y-40674D01*
X66700Y-40745D01*
X66700Y-37362D01*
X66700Y-37100D01*
X66337Y-37100D01*
X66275Y-37162D01*
X66274Y-37224D01*
X66312Y-37316D01*
X66383Y-37386D01*
X66475Y-37424D01*
X66574Y-37425D01*
X66637Y-37425D01*
X66700Y-37362D01*
X66700Y-40745D01*
X66658Y-40762D01*
X66496Y-40923D01*
X66409Y-41135D01*
X66408Y-41363D01*
X66496Y-41575D01*
X66550Y-41630D01*
X66512Y-41630D01*
X66512Y-41692D01*
X66450Y-41630D01*
X66307Y-41629D01*
X66208Y-41630D01*
X66116Y-41668D01*
X66045Y-41738D01*
X66007Y-41830D01*
X66008Y-41887D01*
X66070Y-41950D01*
X66513Y-41950D01*
X66513Y-41942D01*
X66613Y-41942D01*
X66613Y-41950D01*
X67055Y-41950D01*
X67118Y-41887D01*
X67118Y-41830D01*
X67113Y-41818D01*
X67309Y-41737D01*
X67471Y-41576D01*
X67558Y-41364D01*
X67559Y-41136D01*
X67559Y-47332D01*
X67505Y-47368D01*
X67218Y-47425D01*
X54803Y-47425D01*
X54803Y-46345D01*
X54803Y-46100D01*
X54803Y-46000D01*
X54803Y-45754D01*
X54741Y-45692D01*
X54714Y-45691D01*
X54623Y-45729D01*
X54552Y-45800D01*
X54514Y-45892D01*
X54514Y-45937D01*
X54577Y-46000D01*
X54803Y-46000D01*
X54803Y-46100D01*
X54577Y-46100D01*
X54514Y-46162D01*
X54514Y-46207D01*
X54552Y-46299D01*
X54623Y-46370D01*
X54714Y-46408D01*
X54741Y-46408D01*
X54803Y-46345D01*
X54803Y-47425D01*
X52559Y-47425D01*
X52559Y-44886D01*
X52559Y-37636D01*
X52471Y-37424D01*
X52310Y-37262D01*
X52098Y-37175D01*
X51870Y-37174D01*
X51658Y-37262D01*
X51496Y-37423D01*
X51409Y-37635D01*
X51408Y-37863D01*
X51496Y-38075D01*
X51657Y-38237D01*
X51869Y-38324D01*
X52097Y-38325D01*
X52309Y-38237D01*
X52471Y-38076D01*
X52558Y-37864D01*
X52559Y-37636D01*
X52559Y-44886D01*
X52471Y-44674D01*
X52310Y-44512D01*
X52098Y-44425D01*
X51870Y-44424D01*
X51658Y-44512D01*
X51496Y-44673D01*
X51409Y-44885D01*
X51408Y-45113D01*
X51496Y-45325D01*
X51657Y-45487D01*
X51869Y-45574D01*
X52097Y-45575D01*
X52309Y-45487D01*
X52471Y-45326D01*
X52558Y-45114D01*
X52559Y-44886D01*
X52559Y-47425D01*
X50650Y-47425D01*
X50650Y-35249D01*
X50650Y-34550D01*
X50612Y-34458D01*
X50541Y-34388D01*
X50449Y-34350D01*
X50350Y-34349D01*
X50112Y-34350D01*
X50050Y-34412D01*
X50050Y-34850D01*
X50587Y-34850D01*
X50650Y-34787D01*
X50650Y-34550D01*
X50650Y-35249D01*
X50650Y-35012D01*
X50587Y-34950D01*
X50050Y-34950D01*
X50050Y-35387D01*
X50112Y-35450D01*
X50350Y-35450D01*
X50449Y-35449D01*
X50541Y-35411D01*
X50612Y-35341D01*
X50650Y-35249D01*
X50650Y-47425D01*
X50595Y-47425D01*
X50595Y-45087D01*
X50595Y-37837D01*
X50585Y-37609D01*
X50517Y-37447D01*
X50420Y-37416D01*
X50349Y-37487D01*
X50349Y-37345D01*
X50318Y-37248D01*
X50103Y-37170D01*
X49950Y-37177D01*
X49950Y-35387D01*
X49950Y-34950D01*
X49950Y-34850D01*
X49950Y-34412D01*
X49887Y-34350D01*
X49649Y-34349D01*
X49550Y-34350D01*
X49458Y-34388D01*
X49387Y-34458D01*
X49349Y-34550D01*
X49350Y-34787D01*
X49412Y-34850D01*
X49950Y-34850D01*
X49950Y-34950D01*
X49412Y-34950D01*
X49350Y-35012D01*
X49349Y-35249D01*
X49387Y-35341D01*
X49458Y-35411D01*
X49550Y-35449D01*
X49649Y-35450D01*
X49887Y-35450D01*
X49950Y-35387D01*
X49950Y-37177D01*
X49875Y-37180D01*
X49713Y-37248D01*
X49682Y-37345D01*
X50016Y-37679D01*
X50349Y-37345D01*
X50349Y-37487D01*
X50086Y-37750D01*
X50420Y-38083D01*
X50517Y-38052D01*
X50595Y-37837D01*
X50595Y-45087D01*
X50585Y-44859D01*
X50517Y-44697D01*
X50420Y-44666D01*
X50349Y-44737D01*
X50349Y-44595D01*
X50349Y-38154D01*
X50016Y-37820D01*
X49945Y-37891D01*
X49945Y-37750D01*
X49611Y-37416D01*
X49514Y-37447D01*
X49436Y-37662D01*
X49446Y-37890D01*
X49514Y-38052D01*
X49611Y-38083D01*
X49945Y-37750D01*
X49945Y-37891D01*
X49682Y-38154D01*
X49713Y-38251D01*
X49928Y-38329D01*
X50156Y-38319D01*
X50318Y-38251D01*
X50349Y-38154D01*
X50349Y-44595D01*
X50318Y-44498D01*
X50103Y-44420D01*
X49875Y-44430D01*
X49713Y-44498D01*
X49682Y-44595D01*
X50016Y-44929D01*
X50349Y-44595D01*
X50349Y-44737D01*
X50086Y-45000D01*
X50420Y-45333D01*
X50517Y-45302D01*
X50595Y-45087D01*
X50595Y-47425D01*
X50349Y-47425D01*
X50349Y-45404D01*
X50016Y-45070D01*
X49945Y-45141D01*
X49945Y-45000D01*
X49611Y-44666D01*
X49514Y-44697D01*
X49436Y-44912D01*
X49446Y-45140D01*
X49514Y-45302D01*
X49611Y-45333D01*
X49945Y-45000D01*
X49945Y-45141D01*
X49682Y-45404D01*
X49713Y-45501D01*
X49928Y-45579D01*
X50156Y-45569D01*
X50318Y-45501D01*
X50349Y-45404D01*
X50349Y-47425D01*
X50034Y-47425D01*
X49647Y-47348D01*
X49351Y-47150D01*
X49150Y-46850D01*
X49075Y-46468D01*
X49075Y-29281D01*
X49131Y-28994D01*
X49277Y-28776D01*
X49493Y-28632D01*
X49783Y-28575D01*
X67218Y-28575D01*
X67505Y-28631D01*
X67723Y-28777D01*
X67867Y-28993D01*
X67925Y-29283D01*
X67925Y-46716D01*
M02*
