G04 (created by PCBNEW (2013-mar-13)-testing) date Mon 25 Mar 2013 11:27:55 CET*
%MOIN*%
G04 Gerber Fmt 3.4, Leading zero omitted, Abs format*
%FSLAX34Y34*%
G01*
G70*
G90*
G04 APERTURE LIST*
%ADD10C,2.3622e-06*%
%ADD11C,0.015*%
%ADD12R,0.055X0.075*%
%ADD13R,0.0672X0.0909*%
%ADD14R,0.0396X0.12*%
%ADD15R,0.0987X0.1184*%
%ADD16R,0.037X0.1*%
%ADD17C,0.06*%
%ADD18R,0.1577X0.0829*%
%ADD19R,0.0751X0.1342*%
%ADD20R,0.055X0.044*%
%ADD21R,0.075X0.075*%
%ADD22C,0.075*%
%ADD23R,0.0909X0.0672*%
%ADD24C,0.085*%
G04 APERTURE END LIST*
G54D10*
G54D11*
X67250Y-28250D02*
X49750Y-28250D01*
X68250Y-46750D02*
X68250Y-29250D01*
X68250Y-29250D02*
G75*
G03X67250Y-28250I-1000J0D01*
G74*
G01*
X50000Y-47750D02*
X67250Y-47750D01*
X48750Y-46500D02*
X48750Y-29250D01*
X48750Y-46500D02*
G75*
G03X50000Y-47750I1250J0D01*
G74*
G01*
X67250Y-47750D02*
G75*
G03X68250Y-46750I0J1000D01*
G74*
G01*
X49750Y-28250D02*
G75*
G03X48750Y-29250I0J-1000D01*
G74*
G01*
G54D12*
X50625Y-42250D03*
X51375Y-42250D03*
X50625Y-40500D03*
X51375Y-40500D03*
G54D13*
X62630Y-39250D03*
X61370Y-39250D03*
G54D14*
X58500Y-31774D03*
X58814Y-31774D03*
X57871Y-31774D03*
G54D15*
X60271Y-29569D03*
X60271Y-31734D03*
X56729Y-29569D03*
X56768Y-31734D03*
G54D16*
X58186Y-31750D03*
G54D17*
X59189Y-30750D03*
X57811Y-30750D03*
G54D14*
X59129Y-31774D03*
G54D18*
X66352Y-45500D03*
X64148Y-45500D03*
G54D19*
X50213Y-43819D03*
X51787Y-43819D03*
X50213Y-46181D03*
X51787Y-46181D03*
X50213Y-36569D03*
X51787Y-36569D03*
X50213Y-38931D03*
X51787Y-38931D03*
X65213Y-40069D03*
X66787Y-40069D03*
X65213Y-42431D03*
X66787Y-42431D03*
G54D20*
X54000Y-42125D03*
X54000Y-41375D03*
X55000Y-41750D03*
X65500Y-37875D03*
X65500Y-37125D03*
X66500Y-37500D03*
X57000Y-42125D03*
X57000Y-41375D03*
X58000Y-41750D03*
G54D21*
X55600Y-29550D03*
G54D22*
X55600Y-30550D03*
G54D13*
X62630Y-43000D03*
X61370Y-43000D03*
X62630Y-41250D03*
X61370Y-41250D03*
G54D23*
X57000Y-38380D03*
X57000Y-37120D03*
X57000Y-44370D03*
X57000Y-45630D03*
X55000Y-37120D03*
X55000Y-38380D03*
X55000Y-44370D03*
X55000Y-45630D03*
G54D24*
X54016Y-43250D03*
X55984Y-43250D03*
M02*
